<?xml version="1.0" encoding="UTF-8" standalone="no"?>
<svg
   xmlns:dc="http://purl.org/dc/elements/1.1/"
   xmlns:cc="http://creativecommons.org/ns#"
   xmlns:rdf="http://www.w3.org/1999/02/22-rdf-syntax-ns#"
   xmlns:svg="http://www.w3.org/2000/svg"
   xmlns="http://www.w3.org/2000/svg"
   xmlns:sodipodi="http://sodipodi.sourceforge.net/DTD/sodipodi-0.dtd"
   xmlns:inkscape="http://www.inkscape.org/namespaces/inkscape"
   width="58.70853"
   height="62.460644"
   viewBox="0 0 58.70853 62.460644"
   version="1.1"
   id="svg14"
   sodipodi:docname="army.svg"
   inkscape:version="0.92.4 (5da689c313, 2019-01-14)">
  <metadata
     id="metadata20">
    <rdf:RDF>
      <cc:Work
         rdf:about="">
        <dc:format>image/svg+xml</dc:format>
        <dc:type
           rdf:resource="http://purl.org/dc/dcmitype/StillImage" />
        <dc:title>army</dc:title>
      </cc:Work>
    </rdf:RDF>
  </metadata>
  <defs
     id="defs18" />
  <sodipodi:namedview
     pagecolor="#ffffff"
     bordercolor="#666666"
     borderopacity="1"
     objecttolerance="10"
     gridtolerance="10"
     guidetolerance="10"
     inkscape:pageopacity="0"
     inkscape:pageshadow="2"
     inkscape:window-width="1920"
     inkscape:window-height="1017"
     id="namedview16"
     showgrid="false"
     fit-margin-top="0"
     fit-margin-left="0"
     fit-margin-right="0"
     fit-margin-bottom="0"
     inkscape:zoom="5.9920752"
     inkscape:cx="18.383244"
     inkscape:cy="56.738492"
     inkscape:window-x="-8"
     inkscape:window-y="-8"
     inkscape:window-maximized="1"
     inkscape:current-layer="svg14" />
  <!-- Generator: Sketch 64 (93537) - https://sketch.com -->
  <title
     id="title2">army</title>
  <desc
     id="desc4">Created with Sketch.</desc>
  <path
     d="m 12.190827,32.902793 c -1.342506,0 -2.153115,0.44205 -2.153115,1.248656 l 4.58e-4,0.0532 c 0.01473,0.946332 0.37189,5.645017 -0.7260404,7.61125 -0.746892,1.337569 -3.640568,2.860206 -8.68103095,4.567906 l 0.05646,-0.337336 C 1.6081576,40.577483 2.4529056,37.109527 3.2218016,35.642601 4.3986826,33.397305 7.3469176,29.859494 11.27557,30.177229 l 0.660559,0.05399 c 3.213243,0.266377 2.833667,0.307574 4.023548,0.994198 l 0.212411,-0.09051 c 1.755814,-0.745353 4.8465,-1.963934 7.699575,-0.957676 l 0.329452,-1.131784 c 0.684204,-2.358179 0.533474,-1.885915 0.721084,-2.202336 -0.0551,-0.459626 -0.520798,-1.85328 -0.520798,-2.307962 l 4.56e-4,-0.03319 c 0.01485,-0.637248 0.392592,-5.873042 1.027962,-6.191079 0.64833,-0.324527 1.877,-0.412814 2.2262,-1.060655 0.3457,-0.641362 -0.22343,-1.766915 -0.94195,-2.261547 l -0.0218,-0.01479 c -0.72875,-0.486639 -1.77005,-1.692213 -1.77005,-2.379495 1.0413,-0.837965 5.57783,-3.6889482 5.98829,-3.4927367 0.41045,0.1962116 0.97792,2.4114417 0.91027,2.4900007 -0.0676,0.07856 -0.0132,0.115982 -0.25483,0.215043 0.0529,0.255363 0.20415,0.687096 0.45361,1.2952 0.50406,0.505907 0.75609,0.926777 0.75609,1.262609 l -0.1411,0.06302 c -0.32574,0.143761 -0.1592,0.0529 -0.43305,0.13603 0.0607,1.07833 0.31933,1.494959 0.12842,1.852843 -0.31036,0.241869 -1.5131,0.393424 -1.74171,0.568731 -0.15241,0.11687 -0.27854,0.264932 -0.37841,0.444185 0.24369,0.555939 0.59331,0.849794 1.04886,0.881564 0.68333,0.04766 5.53128,-1.354108 8.51129,-6.0361 l -0.0344,-0.0502 c -0.33596,-0.495736 -0.4267,-0.804665 -0.27221,-0.926788 -3.66133,-5.3114991 -7.7502,-8.9188095 -12.26663,-10.82192858 6.89099,2.22234918 7.69347,3.45851028 13.45099,9.84025958 0.49908,0 2.56947,1.770756 2.34639,2.278263 -0.22309,0.507507 -0.92384,0.992012 -1.68627,1.172661 -0.18952,1.206834 -2.95327,7.323138 -8.53219,8.576043 -0.50406,2.140387 -1.12577,3.447506 -1.86514,3.921355 1.38393,0.384708 2.40973,1.046301 3.0774,1.98478 l 0.54132,-0.843397 c 0.99769,-1.552496 2.25988,-3.506884 3.78654,-5.863139 2.03155,-2.117296 4.32918,-3.16503 6.89289,-3.143204 l 0.0778,9.89e-4 7.34735,0.143255 2.99734,-0.474707 -1.59288,3.823096 -1.83798,11.073232 h -2.96924 l -1.97854,-7.257358 -0.48267,13.654626 h 2.90001 c 2.78325,0 4.17487,1.014528 4.17487,3.043582 -0.15166,1.788237 -0.48547,3.864401 -1.00143,6.228493 -0.51081,2.34045 -2.29802,3.989041 -5.36164,4.945771 l -0.0893,0.02753 c 0.0849,-0.06088 0.12797,-1.552324 0.13048,-4.47499 l 1.1e-4,-0.275283 c 2.07247,0 2.79769,-1.956371 3.01302,-4.290948 0.14356,-1.556385 -0.43718,-2.080149 -1.74222,-1.571292 l -2.67096,0.583809 c -1.62841,0.355056 -3.14595,0.684216 -4.55262,0.987483 -2.91636,3.721535 -3.64862,8.956248 -2.1968,15.704141 l 0.04467,0.204949 h -4.61957 l -0.087,-0.380074 c -0.28366,-1.25282 -0.69488,-3.428378 0.86817,-4.079342 -0.27973,-2.297952 0.73239,-9.632644 0.73239,-11.44967 -5.51876,0.382074 -7.82106,0 -9.13841,0 -3.230792,2.876801 -3.230792,3.484722 -4.014607,4.515878 l 0.175296,0.128749 c 2.804621,2.068829 4.187151,3.526122 4.147591,4.371877 l -0.002,0.02596 v 4.319562 l -3.628284,-1.912356 v -2.407203 l -0.820728,-0.530061 c -1.781164,-1.152035 -3.355109,-2.181398 -4.721833,-3.088089 1.124597,-2.019774 1.340696,-3.363689 1.340696,-5.767525 -7.405954,4.178024 -6.656019,7.7772 -6.656019,8.058132 0,0.280933 -0.338035,4.353225 0.378478,5.350871 0.46944,0.65363 0.875893,1.580264 1.219359,2.7799 l 0.01802,0.06339 H 9.4585976 l -0.217248,-0.353957 c -0.702177,-1.150759 -1.045474,-1.905226 0.64563,-3.187227 -0.455762,-3.338594 0.3223284,-4.202354 0.7780894,-10.033325 0.888808,-1.312653 2.403148,-5.491174 4.54302,-12.535564 l 0.06504,-0.214343 -0.05006,-0.03496 C 14.92914,33.914207 13.399082,32.902796 12.190827,32.902796 Z"
     id="body"
     inkscape:connector-curvature="0"
     style="fill:#000000;fill-opacity:1;stroke:#000000"
     inkscape:label="body" />
  <path
     d="m 15.268189,34.887573 c -1.34251,0 -2.15312,0.44205 -2.15312,1.248656 l 4.6e-4,0.0532 c 0.0147,0.946332 0.37189,5.645017 -0.72604,7.61125 -0.74689,1.337569 -3.6405704,2.860206 -8.6810304,4.567906 l 0.0565,-0.337336 c 0.9206,-5.468986 1.76534,-8.936942 2.53424,-10.403868 1.17688,-2.245296 4.1251204,-5.783107 8.0537704,-5.465372 l 0.66056,0.05399 c 3.21324,0.266377 2.83367,0.307574 4.02355,0.994198 l 0.21241,-0.09051 c 1.75581,-0.745353 4.8465,-1.963934 7.69957,-0.957676 l 0.32945,-1.131784 c 0.68421,-2.358179 0.53348,-1.885915 0.72109,-2.202336 -0.0551,-0.459626 -0.5208,-1.85328 -0.5208,-2.307962 l 4.6e-4,-0.03319 c 0.0148,-0.637248 0.39259,-5.873042 1.02796,-6.191079 0.64833,-0.324527 1.877,-0.412814 2.2262,-1.060655 0.3457,-0.641362 -0.22343,-1.766915 -0.94195,-2.261547 l -0.0218,-0.01479 c -0.72875,-0.486639 -1.77005,-1.692213 -1.77005,-2.379495 1.0413,-0.837965 5.57783,-3.688948 5.98829,-3.492736 0.41045,0.196211 0.97792,2.411441 0.91027,2.49 -0.0676,0.07856 -0.0132,0.115982 -0.25483,0.215043 0.0529,0.255363 0.20415,0.687096 0.45361,1.2952 0.50406,0.505907 0.75609,0.926777 0.75609,1.262609 l -0.1411,0.06302 c -0.32574,0.143761 -0.1592,0.0529 -0.43305,0.13603 0.0607,1.07833 0.31933,1.494959 0.12842,1.852843 -0.31036,0.241869 -1.5131,0.393424 -1.74171,0.568731 -0.15241,0.11687 -0.27854,0.264932 -0.37841,0.444185 0.24369,0.555939 0.59331,0.849794 1.04886,0.881564 0.68333,0.04766 5.53128,-1.354108 8.51129,-6.0361 l -0.0344,-0.0502 c -0.33596,-0.495736 -0.4267,-0.804665 -0.27221,-0.926788 -3.66133,-5.3114991 -7.7502,-8.9188091 -12.26663,-10.8219281 6.89099,2.222349 7.69347,3.45851 13.45099,9.8402591 0.49908,0 2.56947,1.770756 2.34639,2.278263 -0.22309,0.507507 -0.92384,0.992012 -1.68627,1.172661 -0.18952,1.206834 -2.95327,7.323138 -8.53219,8.576043 -0.50406,2.140387 -1.12577,3.447506 -1.86514,3.921355 1.38393,0.384708 2.40973,1.046301 3.0774,1.98478 l 0.54132,-0.843397 c 0.99769,-1.552496 2.25988,-3.506884 3.78654,-5.863139 2.03155,-2.117296 4.32918,-3.16503 6.89289,-3.143204 l 0.0778,9.89e-4 7.34735,0.143255 2.99734,-0.474707 -1.59288,3.823096 -1.83798,11.073232 h -2.96924 l -1.97854,-7.257358 -0.48267,13.654626 h 2.90001 c 2.78325,0 4.17487,1.014528 4.17487,3.043582 -0.15166,1.788237 -0.48547,3.864401 -1.00143,6.228493 -0.51081,2.34045 -2.29802,3.989041 -5.36164,4.945771 l -0.0893,0.02753 c 0.0849,-0.06088 0.12797,-1.552324 0.13048,-4.47499 l 1.1e-4,-0.275283 c 2.07247,0 2.79769,-1.956371 3.01302,-4.290948 0.14356,-1.556385 -0.43718,-2.080149 -1.74222,-1.571292 l -2.67096,0.583809 c -1.62841,0.355056 -3.14595,0.684216 -4.55262,0.987483 -2.91636,3.721535 -3.64862,8.956248 -2.1968,15.704141 l 0.0447,0.204949 h -4.61957 l -0.087,-0.380074 c -0.28366,-1.25282 -0.69488,-3.428378 0.86817,-4.079342 -0.27973,-2.297952 0.73239,-9.632644 0.73239,-11.44967 -5.51876,0.382074 -7.82106,0 -9.13841,0 -3.23079,2.876801 -3.23079,3.484722 -4.01461,4.515878 l 0.1753,0.128749 c 2.80462,2.068829 4.18715,3.526122 4.14759,4.371877 l -0.002,0.02596 v 4.319562 l -3.62836,-1.912356 v -2.407203 l -0.82072,-0.530061 c -1.78117,-1.152035 -3.35511,-2.181398 -4.72184,-3.088089 1.1246,-2.019774 1.3407,-3.363689 1.3407,-5.767525 -7.40595,4.178024 -6.65602,7.7772 -6.65602,8.058132 0,0.280933 -0.33803,4.353225 0.37848,5.350871 0.46944,0.65363 0.87589,1.580264 1.21936,2.7799 l 0.018,0.06339 h -5.15096 l -0.21725,-0.353957 c -0.70218,-1.150759 -1.04548,-1.905226 0.64563,-3.187227 -0.45576,-3.338594 0.32233,-4.202354 0.77809,-10.033325 0.88881,-1.312653 2.40315,-5.491174 4.54302,-12.535564 l 0.065,-0.214343 -0.0501,-0.03496 c -0.29393,-0.202281 -1.82399,-1.213692 -3.03224,-1.213692 z"
     id="shadow"
     inkscape:connector-curvature="0"
     style="fill:#000000;fill-opacity:0.53333321;stroke:none"
     inkscape:label="shadow" />
</svg>
