<?xml version="1.0" encoding="UTF-8" standalone="no"?>
<!-- Created with Inkscape (http://www.inkscape.org/) -->

<svg
   xmlns:dc="http://purl.org/dc/elements/1.1/"
   xmlns:cc="http://creativecommons.org/ns#"
   xmlns:rdf="http://www.w3.org/1999/02/22-rdf-syntax-ns#"
   xmlns:svg="http://www.w3.org/2000/svg"
   xmlns="http://www.w3.org/2000/svg"
   xmlns:sodipodi="http://sodipodi.sourceforge.net/DTD/sodipodi-0.dtd"
   xmlns:inkscape="http://www.inkscape.org/namespaces/inkscape"
   id="svg2"
   version="1.1"
   inkscape:version="0.92.4 (5da689c313, 2019-01-14)"
   width="60.310471"
   height="68.217827"
   sodipodi:docname="army.svg">
  <metadata
     id="metadata8">
    <rdf:RDF>
      <cc:Work
         rdf:about="">
        <dc:format>image/svg+xml</dc:format>
        <dc:type
           rdf:resource="http://purl.org/dc/dcmitype/StillImage" />
        <dc:title></dc:title>
      </cc:Work>
    </rdf:RDF>
  </metadata>
  <defs
     id="defs6">
    <inkscape:perspective
       sodipodi:type="inkscape:persp3d"
       inkscape:vp_x="0 : 0.5 : 1"
       inkscape:vp_y="0 : 1000 : 0"
       inkscape:vp_z="1 : 0.5 : 1"
       inkscape:persp3d-origin="0.5 : 0.33333333 : 1"
       id="perspective10" />
  </defs>
  <sodipodi:namedview
     pagecolor="#ffffff"
     bordercolor="#666666"
     borderopacity="1"
     objecttolerance="10"
     gridtolerance="10"
     guidetolerance="10"
     inkscape:pageopacity="0"
     inkscape:pageshadow="2"
     inkscape:window-width="1920"
     inkscape:window-height="1017"
     id="namedview4"
     showgrid="false"
     inkscape:zoom="7.1011573"
     inkscape:cx="100.17417"
     inkscape:cy="15.95586"
     inkscape:window-x="-8"
     inkscape:window-y="-8"
     inkscape:window-maximized="1"
     inkscape:current-layer="svg2"
     fit-margin-top="0"
     fit-margin-left="0"
     fit-margin-right="0"
     fit-margin-bottom="0" />
  <path
     d="m 22.537188,31.989078 c -1.162966,0 -1.865169,0.38666 -1.865169,1.092195 l 3.97e-4,0.04653 c 0.01276,0.827753 0.322155,4.937673 -0.628944,6.657529 -0.647007,1.169966 -3.153699,2.501811 -7.520079,3.995529 l 0.04891,-0.295067 c 0.797484,-4.783699 1.52926,-7.817106 2.195328,-9.10022 1.019491,-1.963951 3.573446,-5.05846 6.976703,-4.780538 l 0.572219,0.04723 c 2.783522,0.232998 2.454709,0.269033 3.485462,0.86962 l 0.184004,-0.07917 c 1.521001,-0.651957 4.198356,-1.717845 6.669877,-0.837675 l 0.285393,-0.989967 c 0.592702,-2.06269 0.46213,-1.649602 0.62465,-1.926374 -0.04773,-0.402033 -0.451149,-1.621057 -0.451149,-2.018765 l 3.95e-4,-0.02903 c 0.01286,-0.5574 0.340089,-5.137127 0.890488,-5.415313 0.561626,-0.283862 1.62598,-0.361086 1.92848,-0.92775 0.299468,-0.560997 -0.193549,-1.545513 -0.815978,-1.978166 l -0.01888,-0.01294 c -0.631291,-0.42566 -1.533334,-1.480171 -1.533334,-2.081333 0.902043,-0.732966 4.831883,-3.226708 5.18745,-3.055082 0.355559,0.171625 0.847139,2.109277 0.788536,2.177992 -0.05856,0.06872 -0.01143,0.10145 -0.220751,0.188097 0.04583,0.223365 0.176848,0.601 0.392947,1.132906 0.43665,0.442515 0.654975,0.810648 0.654975,1.104399 l -0.12223,0.05512 c -0.282178,0.125748 -0.13791,0.04627 -0.375137,0.118985 0.05258,0.943211 0.276625,1.307635 0.111246,1.620674 -0.268854,0.211562 -1.310746,0.344127 -1.508783,0.497467 -0.132028,0.102226 -0.24129,0.231735 -0.327804,0.388527 0.211101,0.486277 0.513964,0.743311 0.908592,0.7711 0.591945,0.04169 4.791557,-1.184432 7.373037,-5.279751 l -0.0298,-0.04391 c -0.291035,-0.433613 -0.36964,-0.703832 -0.23581,-0.810653 -3.171685,-4.6459451 -6.713732,-7.8012441 -10.62616,-9.4658931 5.969428,1.943879 6.664589,3.025143 11.65213,8.6072311 0.432336,0 2.225844,1.548873 2.032597,1.992788 -0.193255,0.443914 -0.800291,0.867708 -1.460758,1.025722 -0.164174,1.055612 -2.558316,6.405518 -7.391142,7.501429 -0.43665,1.872188 -0.975216,3.01552 -1.615707,3.429994 1.198851,0.336502 2.087466,0.915195 2.665846,1.736078 l 0.468927,-0.737715 c 0.864264,-1.357962 1.957656,-3.067458 3.280149,-5.128465 1.759862,-1.85199 3.75022,-2.768438 5.971074,-2.749347 l 0.06739,8.65e-4 6.364757,0.125304 2.596492,-0.415223 -1.379857,3.344046 -1.592179,9.68571 h -2.57215 l -1.713941,-6.347981 -0.418121,11.943645 h 2.512179 c 2.411034,0 3.616546,0.887404 3.616546,2.662209 -0.131377,1.564163 -0.420546,3.380175 -0.867504,5.448037 -0.442497,2.047182 -1.990696,3.489198 -4.644604,4.326045 l -0.07736,0.02408 c 0.07355,-0.05325 0.110856,-1.357812 0.113031,-3.914256 l 9.5e-5,-0.240788 c 1.795309,0 2.423542,-1.71123 2.610075,-3.753275 0.124362,-1.361363 -0.378714,-1.819498 -1.509225,-1.374402 l -2.313761,0.510655 c -1.410635,0.310566 -2.725228,0.598481 -3.943778,0.863747 -2.526342,3.255211 -3.160674,7.833993 -1.903012,13.736347 l 0.0387,0.179268 h -4.001775 l -0.07536,-0.332449 c -0.245725,-1.095836 -0.60195,-2.998788 0.752066,-3.568183 -0.24232,-2.010009 0.634444,-8.425634 0.634444,-10.014979 -4.780712,0.334198 -6.775115,0 -7.91629,0 -2.798724,2.516326 -2.798724,3.048072 -3.477716,3.950019 l 0.151853,0.112617 c 2.429547,1.809596 3.627185,3.084284 3.592915,3.824062 l -0.0017,0.02271 V 53.87923 L 32.638537,52.2065 v -2.105573 l -0.711002,-0.463642 c -1.542962,-1.00768 -2.906416,-1.90806 -4.090362,-2.701139 0.9742,-1.766688 1.161399,-2.942205 1.161399,-5.04483 -6.415523,3.6545 -5.76588,6.802685 -5.76588,7.048415 0,0.245731 -0.292829,3.807748 0.327862,4.680384 0.40666,0.571728 0.758756,1.382251 1.056289,2.431568 l 0.01561,0.05545 h -4.4621 l -0.188194,-0.309608 c -0.608272,-1.006564 -0.905658,-1.666494 0.559287,-2.787855 -0.394811,-2.920254 0.279222,-3.675781 0.674032,-8.776107 0.769943,-1.148173 2.081764,-4.803108 3.935462,-10.964806 l 0.05634,-0.187485 -0.04337,-0.03058 c -0.25462,-0.176934 -1.580057,-1.061611 -2.626727,-1.061611 z"
     id="shadow"
     inkscape:connector-curvature="0"
     style="fill:#000000;fill-opacity:0.53333285;stroke:none;stroke-width:0.87047052"
     inkscape:label="shadow" />
  <path
     d="m 19.871343,30.252999 c -1.162967,0 -1.86517,0.38666 -1.86517,1.092195 l 3.97e-4,0.04653 c 0.01276,0.827752 0.322155,4.937673 -0.628944,6.657528 -0.647007,1.169966 -3.153698,2.501811 -7.520078,3.995529 l 0.04891,-0.295067 c 0.797483,-4.783699 1.529259,-7.817106 2.195328,-9.10022 1.019491,-1.963951 3.573446,-5.05846 6.976702,-4.780538 l 0.572219,0.04723 c 2.783522,0.232999 2.454709,0.269033 3.485462,0.869621 l 0.184004,-0.07917 c 1.521001,-0.651957 4.198356,-1.717845 6.669877,-0.837675 l 0.285393,-0.989967 c 0.592702,-2.06269 0.46213,-1.649602 0.62465,-1.926374 -0.04773,-0.402033 -0.451149,-1.621057 -0.451149,-2.018765 l 3.95e-4,-0.02903 c 0.01286,-0.557398 0.340089,-5.137126 0.890488,-5.415311 0.561626,-0.283863 1.625981,-0.361087 1.928481,-0.927751 0.299468,-0.560997 -0.19355,-1.545513 -0.815979,-1.978166 l -0.01889,-0.01294 c -0.631291,-0.425661 -1.533333,-1.480171 -1.533333,-2.081334 0.902042,-0.732964 4.831882,-3.2267071 5.187449,-3.0550811 0.355559,0.171625 0.847139,2.1092781 0.788536,2.1779931 -0.05856,0.06872 -0.01143,0.101449 -0.22075,0.188097 0.04583,0.223364 0.176848,0.600999 0.392946,1.132905 0.43665,0.442515 0.654975,0.810648 0.654975,1.104399 l -0.12223,0.05512 c -0.282177,0.125748 -0.137909,0.04627 -0.375136,0.118985 0.05258,0.943211 0.276624,1.307635 0.111245,1.620674 -0.268854,0.211562 -1.310746,0.344127 -1.508783,0.497467 -0.132028,0.102226 -0.24129,0.231735 -0.327804,0.388527 0.211101,0.486277 0.513964,0.743311 0.908592,0.7711 0.591945,0.04169 4.791557,-1.184432 7.373038,-5.279751 l -0.0298,-0.04391 c -0.291025,-0.433612 -0.36963,-0.703831 -0.235801,-0.810652 -3.171684,-4.6459461 -6.713732,-7.8012451 -10.62616,-9.4658951 5.969428,1.943879 6.664589,3.025144 11.65213,8.6072331 0.432336,0 2.225844,1.548872 2.032597,1.992787 -0.193255,0.443914 -0.800291,0.867708 -1.460757,1.025721 -0.164175,1.055613 -2.558317,6.405519 -7.391143,7.50143 -0.43665,1.872187 -0.975216,3.015519 -1.615707,3.429993 1.198851,0.336502 2.087466,0.915195 2.665846,1.736079 l 0.468927,-0.737716 c 0.864264,-1.357962 1.957656,-3.067457 3.280149,-5.128464 1.759862,-1.85199 3.75022,-2.768438 5.971074,-2.749347 l 0.06739,8.65e-4 6.364757,0.125304 2.596493,-0.415224 -1.379858,3.344046 -1.592179,9.685711 h -2.57215 L 50.244051,23.959739 49.82593,35.903383 h 2.512179 c 2.411034,0 3.616547,0.887404 3.616547,2.662209 -0.131378,1.564164 -0.420546,3.380176 -0.867505,5.448037 -0.442497,2.047182 -1.990695,3.489198 -4.644604,4.326046 l -0.07736,0.02408 c 0.07355,-0.05325 0.110856,-1.357811 0.113031,-3.914255 l 9.5e-5,-0.240789 c 1.79531,0 2.423543,-1.71123 2.610076,-3.753275 0.124361,-1.361363 -0.378714,-1.819497 -1.509226,-1.374402 l -2.31376,0.510655 c -1.410636,0.310566 -2.725229,0.598481 -3.943779,0.863747 -2.526342,3.255212 -3.160674,7.833993 -1.903012,13.736347 l 0.0387,0.179268 h -4.001775 l -0.07536,-0.332449 c -0.245725,-1.095836 -0.60195,-2.998788 0.752066,-3.568183 -0.24232,-2.010009 0.634444,-8.425634 0.634444,-10.014979 -4.780712,0.334198 -6.775115,0 -7.91629,0 -2.798724,2.516326 -2.798724,3.048072 -3.477716,3.95002 l 0.151853,0.112616 c 2.429547,1.809596 3.627185,3.084284 3.592915,3.824063 l -0.0017,0.02271 v 3.778303 l -3.143058,-1.67273 v -2.105571 l -0.710968,-0.463642 c -1.542961,-1.00768 -2.906416,-1.90806 -4.090362,-2.701139 0.9742,-1.766688 1.161399,-2.942204 1.161399,-5.04483 -6.415523,3.6545 -5.76588,6.802685 -5.76588,7.048415 0,0.245731 -0.292828,3.807748 0.327862,4.680385 0.40666,0.571727 0.758756,1.38225 1.056289,2.431567 l 0.01561,0.05545 h -4.4621 l -0.188194,-0.309605 c -0.608272,-1.006564 -0.905658,-1.666493 0.559287,-2.787854 -0.394811,-2.920255 0.279222,-3.675782 0.674032,-8.776108 0.769944,-1.148172 2.081764,-4.803107 3.935462,-10.964806 l 0.05634,-0.187485 -0.04336,-0.03058 c -0.254658,-0.17694 -1.580095,-1.061617 -2.626764,-1.061617 z"
     id="body"
     inkscape:connector-curvature="0"
     style="fill:#000000;fill-opacity:1;stroke:none;stroke-width:0.87047052"
     inkscape:label="body" />
</svg>
