<?xml version="1.0" encoding="UTF-8" standalone="no"?>
<!-- Created with Inkscape (http://www.inkscape.org/) -->

<svg
   xmlns:dc="http://purl.org/dc/elements/1.1/"
   xmlns:cc="http://creativecommons.org/ns#"
   xmlns:rdf="http://www.w3.org/1999/02/22-rdf-syntax-ns#"
   xmlns:svg="http://www.w3.org/2000/svg"
   xmlns="http://www.w3.org/2000/svg"
   xmlns:sodipodi="http://sodipodi.sourceforge.net/DTD/sodipodi-0.dtd"
   xmlns:inkscape="http://www.inkscape.org/namespaces/inkscape"
   id="svg2"
   version="1.1"
   inkscape:version="0.92.3 (2405546, 2018-03-11)"
   width="70.93618"
   height="61.518742"
   sodipodi:docname="fleet.svg">
  <metadata
     id="metadata8">
    <rdf:RDF>
      <cc:Work
         rdf:about="">
        <dc:format>image/svg+xml</dc:format>
        <dc:type
           rdf:resource="http://purl.org/dc/dcmitype/StillImage" />
        <dc:title></dc:title>
      </cc:Work>
    </rdf:RDF>
  </metadata>
  <defs
     id="defs6">
    <inkscape:perspective
       sodipodi:type="inkscape:persp3d"
       inkscape:vp_x="0 : 0.5 : 1"
       inkscape:vp_y="0 : 1000 : 0"
       inkscape:vp_z="1 : 0.5 : 1"
       inkscape:persp3d-origin="0.5 : 0.33333333 : 1"
       id="perspective10" />
  </defs>
  <sodipodi:namedview
     pagecolor="#ffffff"
     bordercolor="#666666"
     borderopacity="1"
     objecttolerance="10"
     gridtolerance="10"
     guidetolerance="10"
     inkscape:pageopacity="0"
     inkscape:pageshadow="2"
     inkscape:window-width="1853"
     inkscape:window-height="1016"
     id="namedview4"
     showgrid="false"
     inkscape:zoom="4.0435898"
     inkscape:cx="-0.9295887"
     inkscape:cy="-9.527047"
     inkscape:window-x="67"
     inkscape:window-y="27"
     inkscape:window-maximized="1"
     inkscape:current-layer="svg2"
     fit-margin-top="0"
     fit-margin-left="0"
     fit-margin-right="0"
     fit-margin-bottom="0" />
  <path
     d="m 26.590163,2.430606 0.07028,0.869211 4.328535,3.954094 c 3.210402,1.493848 6.45989,3.627411 9.748466,6.400692 l 8e-6,-6.501131 h 1.651095 l 0.237187,3.268396 27.297246,40.841205 1.0132,-0.180038 -0.23404,0.528037 -10.678656,2.176184 -3.931318,4.408283 -0.481074,2.960096 3.821341,2.5e-5 v 0.36308 H 7.403689 v -0.36308 l 4.390221,-2.5e-5 -7.141915,-6.191464 h 12.436307 v -1.00944 H 29.008891 L 28.86065,51.914837 0.126156,50.279561 v -1.459017 l 3.509202,0.127546 c 6.561857,-4.7353 10.580466,-16.17308 12.055819,-34.313336 l 0.0439,-0.551757 v -1.361433 l 2.791799,1.286028 c 3.324822,-2.505847 5.559452,-6.313108 6.703892,-11.421779 l 0.03438,-0.155207 z m 1.472423,18.208997 2.693984,33.315121 0.583395,7e-6 v 1.863151 H 43.390968 V 53.2652 L 31.385133,51.827753 v -0.744718 c 1.453021,-2.376816 2.018412,-8.989476 1.696147,-19.837979 l -0.01,-0.33004 h -2.300194 c 0.567029,-2.982617 0.907333,-5.747007 1.088606,-8.256297 z m 16.165223,11.857945 1.671727,23.034972 13.493933,-2.398284 -1.734721,-0.335194 c -5.91722,-1.141593 -3.88029,-0.709579 -10.110216,-1.274251 l -0.217422,-0.0198 c 0.64831,-3.456937 0.960653,-6.894401 1.036614,-10.208406 z m 11.15145,13.805848 0.06585,0.06514 c 2.057685,2.041861 3.683872,4.242046 4.878552,6.600555 L 69.3906,51.357689 68.805255,50.485986 c -2.34543,-1.575994 -6.820755,-2.970191 -13.426,-4.182593 z m -0.957625,-12.734339 0.483455,0.51937 0.262342,0.282427 c 2.848315,3.068336 6.37036,6.928122 10.723386,11.776257 L 64.923615,44.706337 C 57.308407,35.031649 55.052002,33.703385 54.43969,33.57266 Z m -10.846003,-10.057932 0.526003,7.247565 1.8e-5,-0.691748 0.132539,0.161019 c 1.417156,1.724808 2.468622,3.106308 3.154381,4.144501 l 6.2e-5,-5e-4 C 46.082429,28.129234 44.236191,24.625908 43.575631,23.511125 Z m 10.530482,9.462473 0.03434,0.284719 0.05187,0.0416 v 0 l 0.0027,0.0021 z M 42.713838,11.636077 43.525754,22.830384 c 0.412123,0.198409 1.403897,0.980556 3.682563,3.231989 l 8.85e-4,8.01e-4 C 46.144317,19.74815 44.677072,15.196913 44.233553,13.898733 Z M 26.723348,4.07804 27.874453,18.313283 31.991372,20.20911 C 32.185427,14.670218 31.611787,10.639195 31.176217,8.60945 Z"
     id="shadow"
     inkscape:connector-curvature="0"
     style="fill:#000000;fill-opacity:0.53333291;stroke:none;stroke-width:0.89018542"
     inkscape:label="shadow" />
  <path
     d="m 26.464006,0 0.07028,0.869211 4.328535,3.954094 c 3.210402,1.493848 6.45989,3.627411 9.748466,6.400692 l 8e-6,-6.501131 h 1.651095 l 0.237187,3.268396 27.297245,40.841205 1.013202,-0.180038 -0.234045,0.528037 -10.678652,2.176184 -3.931318,4.408283 -0.481074,2.960096 3.821341,2.5e-5 v 0.36308 H 7.277533 v -0.36308 l 4.39022,-2.5e-5 -7.141914,-6.191464 h 12.436306 v -1.00944 H 28.882734 L 28.734493,49.484231 0,47.848955 v -1.459017 l 3.509202,0.127546 c 6.561856,-4.7353 10.580465,-16.17308 12.055818,-34.313336 l 0.0439,-0.551757 v -1.361433 l 2.791799,1.286028 C 21.725541,9.071139 23.960171,5.263878 25.104611,0.155207 L 25.138991,0 Z m 1.472423,18.208997 2.693984,33.315121 0.583395,7e-6 v 1.863151 H 43.264811 V 50.834594 L 31.258976,49.397147 v -0.744718 c 1.453021,-2.376816 2.018412,-8.989476 1.696147,-19.837979 l -0.01,-0.330039 h -2.300194 c 0.567029,-2.982617 0.907333,-5.747008 1.088606,-8.256298 z m 16.165223,11.857945 1.671727,23.034972 13.493933,-2.398284 -1.734721,-0.335194 c -5.91722,-1.141593 -3.88029,-0.709579 -10.110216,-1.274251 l -0.217422,-0.0198 c 0.64831,-3.456937 0.960653,-6.894401 1.036614,-10.208406 z m 11.15145,13.805848 0.06585,0.06514 c 2.057685,2.041861 3.683872,4.242046 4.878552,6.600555 L 69.26444,48.927083 68.679098,48.05538 c -2.34543,-1.575994 -6.820755,-2.970191 -13.426,-4.182593 z m -0.957625,-12.734339 0.483455,0.51937 0.262342,0.282427 c 2.848315,3.068336 6.37036,6.928122 10.723386,11.776257 L 64.797458,42.275731 C 57.18225,32.601043 54.925845,31.272779 54.313533,31.142054 Z M 43.449474,21.08052 l 0.526003,7.247564 1.8e-5,-0.691748 0.132539,0.161019 c 1.417156,1.724808 2.468622,3.106308 3.154381,4.144501 l 6.2e-5,-5e-4 C 45.956272,25.698628 44.110034,22.195302 43.449474,21.08052 Z m 10.530482,9.462472 0.03434,0.284719 0.05187,0.0416 v 0 l 0.0027,0.0021 z M 42.587681,9.205471 43.399597,20.399778 c 0.412123,0.198409 1.403897,0.980557 3.682563,3.231989 l 8.85e-4,8.01e-4 C 46.01816,17.317544 44.550915,12.766307 44.107396,11.468127 Z m -15.99049,-7.558037 1.151105,14.235243 4.116919,1.895827 C 32.05927,12.239612 31.48563,8.208589 31.05006,6.178844 Z"
     id="hull"
     inkscape:connector-curvature="0"
     style="fill:#000000;fill-opacity:1;stroke:none;stroke-width:0.89018542"
     inkscape:label="hull" />
</svg>
