<?xml version="1.0" encoding="UTF-8" standalone="no"?>
<!-- Created with Inkscape (http://www.inkscape.org/) -->

<svg
   xmlns:dc="http://purl.org/dc/elements/1.1/"
   xmlns:cc="http://creativecommons.org/ns#"
   xmlns:rdf="http://www.w3.org/1999/02/22-rdf-syntax-ns#"
   xmlns:svg="http://www.w3.org/2000/svg"
   xmlns="http://www.w3.org/2000/svg"
   xmlns:sodipodi="http://sodipodi.sourceforge.net/DTD/sodipodi-0.dtd"
   xmlns:inkscape="http://www.inkscape.org/namespaces/inkscape"
   id="svg2"
   version="1.1"
   inkscape:version="0.92.4 (5da689c313, 2019-01-14)"
   width="100.93618"
   height="73.518738"
   sodipodi:docname="fleet.svg">
  <metadata
     id="metadata8">
    <rdf:RDF>
      <cc:Work
         rdf:about="">
        <dc:format>image/svg+xml</dc:format>
        <dc:type
           rdf:resource="http://purl.org/dc/dcmitype/StillImage" />
        <dc:title></dc:title>
      </cc:Work>
    </rdf:RDF>
  </metadata>
  <defs
     id="defs6">
    <inkscape:perspective
       sodipodi:type="inkscape:persp3d"
       inkscape:vp_x="0 : 0.5 : 1"
       inkscape:vp_y="0 : 1000 : 0"
       inkscape:vp_z="1 : 0.5 : 1"
       inkscape:persp3d-origin="0.5 : 0.33333333 : 1"
       id="perspective10" />
  </defs>
  <sodipodi:namedview
     pagecolor="#ffffff"
     bordercolor="#666666"
     borderopacity="1"
     objecttolerance="10"
     gridtolerance="10"
     guidetolerance="10"
     inkscape:pageopacity="0"
     inkscape:pageshadow="2"
     inkscape:window-width="1920"
     inkscape:window-height="1017"
     id="namedview4"
     showgrid="false"
     inkscape:zoom="2.8592498"
     inkscape:cx="91.880174"
     inkscape:cy="57.877186"
     inkscape:window-x="-8"
     inkscape:window-y="-8"
     inkscape:window-maximized="1"
     inkscape:current-layer="svg2"
     fit-margin-top="0"
     fit-margin-left="0"
     fit-margin-right="0"
     fit-margin-bottom="0" />
  <path
     d="m 52.121336,2.88913 0.07028,0.86921 4.328535,3.954094 c 3.210402,1.493847 6.45989,3.627409 9.748466,6.40069 l 8e-6,-6.501129 h 1.651095 l 0.237187,3.268394 27.297246,40.841205 1.0132,-0.180038 -0.23404,0.528037 -10.678656,2.176184 -3.931318,4.408283 -0.481074,2.960096 3.821341,2.5e-5 v 0.36308 H 32.934862 v -0.36308 l 4.390221,-2.5e-5 -7.141915,-6.191464 h 12.436307 v -1.00944 H 54.540064 L 54.391823,52.373358 25.657329,50.738082 v -1.459017 l 3.509202,0.127546 c 6.561857,-4.7353 10.580466,-16.17308 12.055819,-34.313336 l 0.0439,-0.551757 v -1.361433 l 2.791799,1.286028 c 3.324822,-2.505847 5.559452,-6.313106 6.703892,-11.421776 l 0.03438,-0.155207 z m 1.472423,18.208994 2.693984,33.315121 0.583395,7e-6 v 1.863151 H 68.922141 V 53.723721 L 56.916306,52.286274 v -0.744718 c 1.453021,-2.376816 2.018412,-8.989476 1.696147,-19.837979 l -0.01,-0.33004 h -2.300194 c 0.567029,-2.982617 0.907333,-5.747007 1.088606,-8.256297 z m 16.165223,11.857945 1.671727,23.034972 13.493933,-2.398284 -1.734721,-0.335194 c -5.91722,-1.141593 -3.88029,-0.709579 -10.110216,-1.274251 l -0.217422,-0.0198 c 0.64831,-3.456937 0.960653,-6.894401 1.036614,-10.208406 z m 11.15145,13.805848 0.06585,0.06514 c 2.057685,2.041861 3.683872,4.242046 4.878552,6.600555 l 9.066939,-1.611402 -0.585345,-0.871703 c -2.34543,-1.575994 -6.820755,-2.970191 -13.426,-4.182593 z m -0.957625,-12.734339 0.483455,0.51937 0.262342,0.282427 c 2.848315,3.068336 6.37036,6.928122 10.723386,11.776257 L 90.454788,45.164858 C 82.83958,35.49017 80.583175,34.161906 79.970863,34.031181 Z m -10.846003,-10.057932 0.526003,7.247565 1.8e-5,-0.691748 0.132539,0.161019 c 1.417156,1.724808 2.468622,3.106308 3.154381,4.144501 l 6.2e-5,-5e-4 C 71.613602,28.587755 69.767364,25.084429 69.106804,23.969646 Z m 10.530482,9.462473 0.03434,0.284719 0.05187,0.0416 v 0 l 0.0027,0.0021 z M 68.245011,12.094598 69.056927,23.288905 c 0.412123,0.198409 1.403897,0.980556 3.682563,3.231989 l 8.85e-4,8.01e-4 C 71.67549,20.206671 70.208245,15.655434 69.764726,14.357254 Z m -15.99049,-7.558035 1.151105,14.235241 4.116919,1.895827 C 57.7166,15.128739 57.14296,11.097716 56.70739,9.067972 Z"
     id="shadow"
     inkscape:connector-curvature="0"
     style="fill:#000000;fill-opacity:0.53333285;stroke:none;stroke-width:0.89018542"
     inkscape:label="shadow" />
  <path
     d="m 51.995179,0.45852404 0.07028,0.86921096 4.328535,3.954093 c 3.210402,1.493848 6.45989,3.62741 9.748466,6.40069 l 8e-6,-6.501129 h 1.651095 l 0.237187,3.268396 27.297245,40.841203 1.013202,-0.180038 -0.234045,0.528037 -10.678652,2.176184 -3.931318,4.408283 -0.481074,2.960096 3.821341,2.5e-5 v 0.36308 H 32.808706 v -0.36308 l 4.39022,-2.5e-5 -7.141914,-6.191464 h 12.436306 v -1.00944 H 54.413907 L 54.265666,49.942752 25.531173,48.307476 v -1.459017 l 3.509202,0.127546 c 6.561856,-4.7353 10.580465,-16.17308 12.055818,-34.313336 l 0.0439,-0.551757 v -1.361433 l 2.791799,1.286028 C 47.256714,9.529661 49.491344,5.722401 50.635784,0.61373104 l 0.03438,-0.155207 z m 1.472423,18.20899396 2.693984,33.315121 0.583395,7e-6 v 1.863151 H 68.795984 V 51.293115 L 56.790149,49.855668 V 49.11095 c 1.453021,-2.376816 2.018412,-8.989476 1.696147,-19.837979 l -0.01,-0.330039 h -2.300194 c 0.567029,-2.982617 0.907333,-5.747008 1.088606,-8.256298 z m 16.165223,11.857945 1.671727,23.034972 13.493933,-2.398284 -1.734721,-0.335194 c -5.91722,-1.141593 -3.88029,-0.709579 -10.110216,-1.274251 l -0.217422,-0.0198 c 0.64831,-3.456937 0.960653,-6.894401 1.036614,-10.208406 z m 11.15145,13.805848 0.06585,0.06514 c 2.057685,2.041861 3.683872,4.242046 4.878552,6.600555 l 9.066936,-1.611402 -0.585342,-0.871703 c -2.34543,-1.575994 -6.820755,-2.970191 -13.426,-4.182593 z m -0.957625,-12.734339 0.483455,0.51937 0.262342,0.282427 c 2.848315,3.068336 6.37036,6.928122 10.723386,11.776257 L 90.328631,42.734252 C 82.713423,33.059564 80.457018,31.7313 79.844706,31.600575 Z m -10.846003,-10.057931 0.526003,7.247564 1.8e-5,-0.691748 0.132539,0.161019 c 1.417156,1.724808 2.468622,3.106308 3.154381,4.144501 l 6.2e-5,-5e-4 C 71.487445,26.157149 69.641207,22.653823 68.980647,21.539041 Z m 10.530482,9.462472 0.03434,0.284719 0.05187,0.0416 v 0 l 0.0027,0.0021 z M 68.118854,9.663993 68.93077,20.858299 c 0.412123,0.198409 1.403897,0.980557 3.682563,3.231989 l 8.85e-4,8.01e-4 C 71.549333,17.776065 70.082088,13.224828 69.638569,11.926648 Z m -15.99049,-7.558035 1.151105,14.23524 4.116919,1.895827 C 57.590443,12.698133 57.016803,8.667111 56.581233,6.637367 Z"
     id="hull"
     inkscape:connector-curvature="0"
     style="fill:#000000;fill-opacity:1;stroke:none;stroke-width:0.89018542"
     inkscape:label="hull" />
</svg>
