<?xml version="1.0" encoding="UTF-8" standalone="no"?>
<svg
   xmlns:dc="http://purl.org/dc/elements/1.1/"
   xmlns:cc="http://creativecommons.org/ns#"
   xmlns:rdf="http://www.w3.org/1999/02/22-rdf-syntax-ns#"
   xmlns:svg="http://www.w3.org/2000/svg"
   xmlns="http://www.w3.org/2000/svg"
   xmlns:sodipodi="http://sodipodi.sourceforge.net/DTD/sodipodi-0.dtd"
   xmlns:inkscape="http://www.inkscape.org/namespaces/inkscape"
   height="61.518742"
   width="120"
   version="1.1"
   id="svg2"
   sodipodi:docname="fleet.svg"
   viewBox="0 0 120.00454 61.518742"
   inkscape:version="0.92.3 (2405546, 2018-03-11)">
  <sodipodi:namedview
     pagecolor="#ffffff"
     bordercolor="#666666"
     borderopacity="1"
     objecttolerance="10"
     gridtolerance="10"
     guidetolerance="10"
     inkscape:pageopacity="0"
     inkscape:pageshadow="2"
     inkscape:window-width="1853"
     inkscape:window-height="1016"
     id="namedview7"
     showgrid="false"
     inkscape:zoom="3.4378159"
     inkscape:cx="18.761912"
     inkscape:cy="30.759371"
     inkscape:window-x="67"
     inkscape:window-y="27"
     inkscape:window-maximized="1"
     inkscape:current-layer="svg2" />
  <metadata
     id="metadata8">
    <rdf:RDF>
      <cc:Work
         rdf:about="">
        <dc:format>image/svg+xml</dc:format>
        <dc:type
           rdf:resource="http://purl.org/dc/dcmitype/StillImage" />
        <dc:title></dc:title>
      </cc:Work>
    </rdf:RDF>
  </metadata>
  <defs
     id="defs6" />
  <path
     style="fill:#000000;fill-opacity:0.53333285;stroke:none;stroke-width:0.89018542"
     id="shadow"
     d="m 71.07211,2.4306044 0.07028,0.869211 4.328535,3.954094 c 3.210402,1.493848 6.45989,3.6274106 9.748466,6.4006916 l 8e-6,-6.5011306 h 1.651095 l 0.237187,3.2683956 27.297249,40.841205 1.0132,-0.180038 -0.23404,0.528037 -10.67866,2.176184 -3.93132,4.408283 -0.48107,2.960096 3.82134,2.5e-5 v 0.36308 H 51.885636 v -0.36308 l 4.390221,-2.5e-5 -7.141915,-6.191464 h 12.436307 v -1.00944 H 73.490838 L 73.342597,51.914835 44.608103,50.279559 v -1.459017 l 3.509202,0.127546 c 6.561857,-4.7353 10.580466,-16.17308 12.055819,-34.313336 l 0.0439,-0.551757 v -1.361433 l 2.791799,1.286028 c 3.324822,-2.505847 5.559452,-6.3131076 6.703892,-11.4217786 l 0.03438,-0.155207 z m 1.472423,18.2089966 2.693984,33.315121 0.583395,7e-6 V 55.81788 H 87.872915 V 53.265198 L 75.86708,51.827751 v -0.744718 c 1.453021,-2.376816 2.018412,-8.989476 1.696147,-19.837979 l -0.01,-0.33004 h -2.300194 c 0.567029,-2.982617 0.907333,-5.747007 1.088606,-8.256297 z M 88.709756,32.497546 90.381483,55.532518 103.87542,53.134234 102.1407,52.79904 C 96.223475,51.657447 98.260405,52.089461 92.030479,51.524789 l -0.217422,-0.0198 c 0.64831,-3.456937 0.960653,-6.894401 1.036614,-10.208406 z m 11.15145,13.805848 0.06585,0.06514 c 2.057684,2.041861 3.683874,4.242046 4.878554,6.600555 l 9.06694,-1.611402 -0.58535,-0.871703 c -2.34543,-1.575994 -6.82075,-2.970191 -13.425998,-4.182593 z m -0.957625,-12.734339 0.483455,0.51937 0.262342,0.282427 c 2.848312,3.068336 6.370362,6.928122 10.723382,11.776257 l -0.9672,-1.440774 C 101.79035,35.031647 99.533949,33.703383 98.921637,33.572658 Z m -10.846003,-10.057932 0.526003,7.247565 1.8e-5,-0.691748 0.132539,0.161019 c 1.417156,1.724808 2.468622,3.106308 3.154381,4.144501 l 6.2e-5,-5e-4 C 90.564376,28.129232 88.718138,24.625906 88.057578,23.511123 Z m 10.530482,9.462473 0.03434,0.284719 0.05187,0.0416 v 0 l 0.0027,0.0021 z M 87.195785,11.636075 88.007701,22.830382 c 0.412123,0.198409 1.403897,0.980556 3.682563,3.231989 l 8.85e-4,8.01e-4 C 90.626264,19.748148 89.159019,15.196911 88.7155,13.898731 Z M 71.205295,4.0780384 72.3564,18.313281 76.473319,20.209108 C 76.667374,14.670216 76.093734,10.639193 75.658164,8.6094484 Z"
     inkscape:connector-curvature="0" />
  <path
     style="fill:#000000;fill-opacity:1;stroke:none;stroke-width:0.89018542"
     id="hull"
     d="M 70.945953,-1.6077268e-6 71.016233,0.86920939 75.344768,4.8233034 c 3.210402,1.493848 6.45989,3.627411 9.748466,6.4006916 l 8e-6,-6.5011306 h 1.651095 l 0.237187,3.268396 27.297246,40.8412046 1.0132,-0.180038 -0.23404,0.528037 -10.67866,2.176184 -3.93131,4.408283 -0.481078,2.960096 3.821338,2.5e-5 v 0.36308 H 51.75948 v -0.36308 l 4.39022,-2.5e-5 -7.141914,-6.191464 h 12.436306 v -1.00944 H 73.364681 L 73.21644,49.484229 44.481947,47.848953 v -1.459017 l 3.509202,0.127546 c 6.561856,-4.7353 10.580465,-16.17308 12.055818,-34.313336 l 0.0439,-0.551757 v -1.361433 l 2.791799,1.286028 C 66.207488,9.0711374 68.442118,5.2638764 69.586558,0.15520539 L 69.620938,-1.6077268e-6 Z M 72.418376,18.208995 l 2.693984,33.315121 0.583395,7e-6 v 1.863151 H 87.746758 V 50.834592 L 75.740923,49.397145 v -0.744718 c 1.453021,-2.376816 2.018412,-8.989476 1.696147,-19.837979 l -0.01,-0.330039 h -2.300194 c 0.567029,-2.982617 0.907333,-5.747008 1.088606,-8.256298 z m 16.165223,11.857945 1.671727,23.034972 13.493934,-2.398284 -1.73472,-0.335194 C 96.097318,49.226841 98.134248,49.658855 91.904322,49.094183 l -0.217422,-0.0198 c 0.64831,-3.456937 0.960653,-6.894401 1.036614,-10.208406 z m 11.15145,13.805848 0.06585,0.06514 c 2.057681,2.041861 3.683871,4.242046 4.878551,6.600555 l 9.06694,-1.611402 -0.58534,-0.871703 c -2.34543,-1.575994 -6.82076,-2.970191 -13.426005,-4.182593 z m -0.957625,-12.734339 0.483455,0.51937 0.262342,0.282427 c 2.848319,3.068336 6.370359,6.928122 10.723389,11.776257 L 109.2794,42.275729 C 101.6642,32.601041 99.407792,31.272777 98.79548,31.142052 Z m -10.846003,-10.057931 0.526003,7.247564 1.8e-5,-0.691748 0.132539,0.161019 c 1.417156,1.724808 2.468622,3.106308 3.154381,4.144501 l 6.2e-5,-5e-4 C 90.438219,25.698626 88.591981,22.1953 87.931421,21.080518 Z m 10.530482,9.462472 0.03434,0.284719 0.05187,0.0416 v 0 l 0.0027,0.0021 z M 87.069628,9.2054694 87.881544,20.399776 c 0.412123,0.198409 1.403897,0.980557 3.682563,3.231989 l 8.85e-4,8.01e-4 C 90.500107,17.317542 89.032862,12.766305 88.589343,11.468125 Z m -15.99049,-7.558037 1.151105,14.2352426 4.116919,1.895827 C 76.541217,12.23961 75.967577,8.2085874 75.532007,6.1788424 Z"
     inkscape:connector-curvature="0" />
</svg>
