<?xml version="1.0" encoding="UTF-8" standalone="no"?>
<!-- Created with Inkscape (http://www.inkscape.org/) -->

<svg
   xmlns:dc="http://purl.org/dc/elements/1.1/"
   xmlns:cc="http://creativecommons.org/ns#"
   xmlns:rdf="http://www.w3.org/1999/02/22-rdf-syntax-ns#"
   xmlns:svg="http://www.w3.org/2000/svg"
   xmlns="http://www.w3.org/2000/svg"
   xmlns:sodipodi="http://sodipodi.sourceforge.net/DTD/sodipodi-0.dtd"
   xmlns:inkscape="http://www.inkscape.org/namespaces/inkscape"
   id="svg2"
   version="1.1"
   inkscape:version="0.92.3 (2405546, 2018-03-11)"
   width="70.93618"
   height="61.518742"
   sodipodi:docname="fleet.svg"
   viewBox="-45 -40 115.94 101.52">
  <metadata
     id="metadata8">
    <rdf:RDF>
      <cc:Work
         rdf:about="">
        <dc:format>image/svg+xml</dc:format>
        <dc:type
           rdf:resource="http://purl.org/dc/dcmitype/StillImage" />
        <dc:title></dc:title>
      </cc:Work>
    </rdf:RDF>
  </metadata>
  <defs
     id="defs6">
    <inkscape:perspective
       sodipodi:type="inkscape:persp3d"
       inkscape:vp_x="0 : 0.82511441 : 1"
       inkscape:vp_y="0 : 1650.2288 : 0"
       inkscape:vp_z="1.6344268 : 0.8251144 : 1"
       inkscape:persp3d-origin="0.81721344 : 0.55007626 : 1"
       id="perspective10" />
  </defs>
  <sodipodi:namedview
     pagecolor="#ffffff"
     bordercolor="#666666"
     borderopacity="1"
     objecttolerance="10"
     gridtolerance="10"
     guidetolerance="10"
     inkscape:pageopacity="0"
     inkscape:pageshadow="2"
     inkscape:window-width="1853"
     inkscape:window-height="1016"
     id="namedview4"
     showgrid="false"
     inkscape:zoom="5.7184995"
     inkscape:cx="12.06214"
     inkscape:cy="49.695446"
     inkscape:window-x="67"
     inkscape:window-y="27"
     inkscape:window-maximized="1"
     inkscape:current-layer="svg2"
     fit-margin-top="0"
     fit-margin-left="0"
     fit-margin-right="0"
     fit-margin-bottom="0"
     viewbox-width="115.94" />
  <path
     d="m 26.590163,-37.174886 0.07028,0.869211 4.328535,3.954094 c 3.210402,1.493848 6.45989,3.627411 9.748466,6.400692 l 8e-6,-6.501131 h 1.651095 l 0.237187,3.268396 27.297246,40.841205 1.0132,-0.180038 -0.23404,0.528037 -10.678656,2.176184 -3.931318,4.408283 -0.481074,2.960096 3.821341,2.5e-5 v 0.36308 H 7.403689 v -0.36308 l 4.390221,-2.5e-5 -7.141915,-6.191464 h 12.436307 v -1.00944 H 29.008891 L 28.86065,12.309345 0.126156,10.674069 V 9.2150524 l 3.509202,0.127546 C 10.197215,4.6072988 14.215824,-6.8304819 15.691177,-24.970738 l 0.0439,-0.551757 v -1.361433 l 2.791799,1.286028 c 3.324822,-2.505847 5.559452,-6.313108 6.703892,-11.421779 l 0.03438,-0.155207 z m 1.472423,18.208997 2.693984,33.315121 0.583395,7e-6 V 16.21239 H 43.390968 V 13.659708 L 31.385133,12.222261 V 11.477543 C 32.838154,9.1007274 33.403545,2.4880671 33.08128,-8.3604359 l -0.01,-0.33004 h -2.300194 c 0.567029,-2.9826171 0.907333,-5.7470071 1.088606,-8.2562971 z M 44.227809,-7.1079439 45.899536,15.927028 59.393469,13.528744 57.658748,13.19355 c -5.91722,-1.141593 -3.88029,-0.709579 -10.110216,-1.274251 l -0.217422,-0.0198 C 47.97942,8.4425624 48.291763,5.0050988 48.367724,1.6910931 Z m 11.15145,13.8058487 0.06585,0.06514 c 2.057685,2.041861 3.683872,4.2420462 4.878552,6.6005552 L 69.3906,11.752197 68.805255,10.880494 C 66.459825,9.3045004 61.9845,7.9103034 55.379255,6.6979018 Z m -0.957625,-12.7343397 0.483455,0.51937 0.262342,0.282427 c 2.848315,3.068336 6.37036,6.928122 10.723386,11.7762577 L 64.923615,5.1008458 C 57.308407,-4.5738429 55.052002,-5.9021069 54.43969,-6.0328319 Z m -10.846003,-10.0579321 0.526003,7.2475651 1.8e-5,-0.691748 0.132539,0.161019 c 1.417156,1.724808 2.468622,3.106308 3.154381,4.144501 l 6.2e-5,-5e-4 C 46.082429,-11.476258 44.236191,-14.979584 43.575631,-16.094367 Z m 10.530482,9.4624731 0.03434,0.284719 0.05187,0.0416 v 0 l 0.0027,0.0021 z m -11.392275,-21.3375211 0.811916,11.194307 c 0.412123,0.198409 1.403897,0.980556 3.682563,3.231989 l 8.85e-4,8.01e-4 c -1.064885,-6.315024 -2.53213,-10.866261 -2.975649,-12.164441 z m -15.99049,-7.558037 1.151105,14.235243 4.116919,1.895827 c 0.194055,-5.538892 -0.379585,-9.569915 -0.815155,-11.59966 z"
     id="shadow"
     inkscape:connector-curvature="0"
     style="fill:#000000;fill-opacity:0.53333285;stroke:none;stroke-width:0.89018542"
     inkscape:label="shadow" />
  <path
     d="m 26.464006,-39.605492 0.07028,0.869211 4.328535,3.954094 c 3.210402,1.493848 6.45989,3.627411 9.748466,6.400692 l 8e-6,-6.501131 h 1.651095 l 0.237187,3.268396 27.297245,40.8412054 1.013202,-0.180038 -0.234045,0.528037 -10.678652,2.1761836 -3.931318,4.408283 -0.481074,2.960096 3.821341,2.5e-5 v 0.36308 H 7.277533 v -0.36308 l 4.39022,-2.5e-5 -7.141914,-6.191464 h 12.436306 v -1.00944 H 28.882734 L 28.734493,9.8787394 0,8.2434634 v -1.459017 l 3.509202,0.127546 C 10.071058,2.1766921 14.089667,-9.2610879 15.56502,-27.401344 l 0.0439,-0.551757 v -1.361433 l 2.791799,1.286028 c 3.324822,-2.505847 5.559452,-6.313108 6.703892,-11.421779 l 0.03438,-0.155207 z m 1.472423,18.208997 2.693984,33.315121 0.583395,7e-6 v 1.863151 H 43.264811 V 11.229102 L 31.258976,9.7916554 v -0.744718 c 1.453021,-2.3768156 2.018412,-8.98947633 1.696147,-19.8379794 l -0.01,-0.330039 h -2.300194 c 0.567029,-2.982617 0.907333,-5.747008 1.088606,-8.256298 z M 44.101652,-9.5385499 45.773379,13.496422 59.267312,11.098138 57.532591,10.762944 C 51.615371,9.6213514 53.652301,10.053365 47.422375,9.4886934 l -0.217422,-0.0198 c 0.64831,-3.4569366 0.960653,-6.8944013 1.036614,-10.20840633 z m 11.15145,13.8058487 0.06585,0.06514 c 2.057685,2.041861 3.683872,4.2420456 4.878552,6.6005542 L 69.26444,9.3215914 68.679098,8.4498884 c -2.34543,-1.575994 -6.820755,-2.9701906 -13.426,-4.1825926 z m -0.957625,-12.7343397 0.483455,0.51937 0.262342,0.282427 c 2.848315,3.068336 6.37036,6.92812197 10.723386,11.7762577 L 64.797458,2.6702391 C 57.18225,-7.0044489 54.925845,-8.3327129 54.313533,-8.4634379 Z m -10.846003,-10.0579311 0.526003,7.247564 1.8e-5,-0.691748 0.132539,0.161019 c 1.417156,1.724808 2.468622,3.1063081 3.154381,4.1445011 l 6.2e-5,-5e-4 C 45.956272,-13.906864 44.110034,-17.41019 43.449474,-18.524972 Z m 10.530482,9.4624721 0.03434,0.284719 0.05187,0.0416 v 0 l 0.0027,0.0021 z m -11.392275,-21.3375211 0.811916,11.194307 c 0.412123,0.198409 1.403897,0.980557 3.682563,3.231989 l 8.85e-4,8.01e-4 c -1.064885,-6.315024 -2.53213,-10.866261 -2.975649,-12.164441 z m -15.99049,-7.558037 1.151105,14.235243 4.116919,1.895827 c 0.194055,-5.538892 -0.379585,-9.569915 -0.815155,-11.59966 z"
     id="hull"
     inkscape:connector-curvature="0"
     style="fill:#000000;fill-opacity:1;stroke:none;stroke-width:0.89018542"
     inkscape:label="hull" />
</svg>
