<?xml version="1.0" encoding="UTF-8" standalone="no"?>
<svg
   xmlns:dc="http://purl.org/dc/elements/1.1/"
   xmlns:cc="http://creativecommons.org/ns#"
   xmlns:rdf="http://www.w3.org/1999/02/22-rdf-syntax-ns#"
   xmlns:svg="http://www.w3.org/2000/svg"
   xmlns="http://www.w3.org/2000/svg"
   xmlns:sodipodi="http://sodipodi.sourceforge.net/DTD/sodipodi-0.dtd"
   xmlns:inkscape="http://www.inkscape.org/namespaces/inkscape"
   width="83.334167"
   height="69.032539"
   viewBox="0 0 83.334167 69.032539"
   version="1.1"
   id="svg12"
   sodipodi:docname="fleet.svg"
   inkscape:version="0.92.4 (5da689c313, 2019-01-14)">
  <metadata
     id="metadata18">
    <rdf:RDF>
      <cc:Work
         rdf:about="">
        <dc:format>image/svg+xml</dc:format>
        <dc:type
           rdf:resource="http://purl.org/dc/dcmitype/StillImage" />
        <dc:title>fleet</dc:title>
      </cc:Work>
    </rdf:RDF>
  </metadata>
  <defs
     id="defs16" />
  <sodipodi:namedview
     pagecolor="#ffffff"
     bordercolor="#666666"
     borderopacity="1"
     objecttolerance="10"
     gridtolerance="10"
     guidetolerance="10"
     inkscape:pageopacity="0"
     inkscape:pageshadow="2"
     inkscape:window-width="1920"
     inkscape:window-height="1017"
     id="namedview14"
     showgrid="false"
     inkscape:zoom="2.75"
     inkscape:cx="-75.37012"
     inkscape:cy="58.674021"
     inkscape:window-x="-8"
     inkscape:window-y="-8"
     inkscape:window-maximized="1"
     inkscape:current-layer="svg12"
     fit-margin-top="0"
     fit-margin-left="0"
     fit-margin-right="0"
     fit-margin-bottom="0" />
  <!-- Generator: Sketch 64 (93537) - https://sketch.com -->
  <title
     id="title2">fleet</title>
  <desc
     id="desc4">Created with Sketch.</desc>
  <path
     d="m 33.23275,3.032541 0.0794,0.970888 4.89031,4.416626 c 3.62706,1.668591 7.29828,4.05173 11.01366,7.149416 l 1e-5,-7.261604 h 1.86538 l 0.26797,3.650718 30.83999,45.618627 1.1447,-0.201098 -0.26442,0.589804 -12.06457,2.430744 -4.44154,4.923945 -0.54351,3.306355 4.31729,2.8e-5 v 0.405551 H 11.55618 V 68.62699 l 4.96,-2.8e-5 -8.06882,-6.915714 H 22.4977 v -1.12752 H 35.96539 L 35.79791,58.305216 3.33414,56.478653 v -1.629686 l 3.96464,0.142466 C 14.71226,49.702218 19.25242,36.926498 20.91925,16.664276 l 0.0496,-0.616299 v -1.520688 l 3.15413,1.436463 c 3.75633,-2.798971 6.28098,-7.051588 7.57395,-12.757849 l 0.0388,-0.173362 z m 1.66352,20.339005 3.04362,37.212174 0.65911,8e-6 v 2.081094 h 13.61503 v -2.851283 l -13.564,-1.605593 v -0.831832 c 1.6416,-2.654845 2.28037,-10.041025 1.91628,-22.158537 l -0.0113,-0.368646 h -2.59872 c 0.64062,-3.33151 1.02509,-6.419267 1.22989,-9.222082 z M 53.15948,36.61658 55.04817,62.34608 70.2934,59.667255 68.33354,59.292852 C 61.64836,58.01772 63.94965,58.500269 56.91118,57.869544 l -0.24564,-0.02212 c 0.73245,-3.861314 1.08533,-7.700877 1.17115,-11.40254 z m 12.59873,15.420794 0.0744,0.07276 c 2.32474,2.280709 4.16198,4.738261 5.51171,7.372658 L 81.588,57.682896 80.92669,56.709225 C 78.27686,54.948878 73.22071,53.391594 65.75821,52.037371 Z m -1.08191,-14.223945 0.5462,0.580124 0.29639,0.315463 c 3.21798,3.427257 7.19713,7.738543 12.11511,13.153791 L 76.54127,50.253498 C 67.93773,39.447108 65.38848,37.96347 64.6967,37.817453 Z m -12.25364,-11.234463 0.59427,8.095352 2e-5,-0.772665 0.14974,0.179854 c 1.60108,1.926568 2.78901,3.46967 3.56377,4.629306 l 7e-5,-5.59e-4 C 55.2548,31.73728 53.16895,27.824151 52.42266,26.578966 Z m 11.89717,10.56935 0.0388,0.318024 0.0586,0.04647 v 0 l 0.003,0.0024 z M 51.44902,13.314827 52.36631,25.818594 c 0.46561,0.221618 1.5861,1.095258 4.1605,3.610053 l 0.001,8.95e-4 C 55.32472,22.375814 53.66705,17.292194 53.16597,15.842159 Z m -18.0658,-8.442142 1.3005,15.900418 4.65123,2.117592 C 39.55419,16.703889 38.9061,12.201334 38.414,9.934159 Z"
     id="shadow"
     inkscape:connector-curvature="0"
     style="fill:#000000;fill-opacity:0.53333315;stroke:none"
     inkscape:label="shadow" />
  <path
     d="m 30.39861,0.5 0.0794,0.9708878 4.89031,4.4166264 c 3.62706,1.6685909 7.29828,4.0517296 11.01366,7.1494158 l 1e-5,-7.261604 h 1.86538 l 0.26797,3.650718 30.83999,45.618627 1.1447,-0.201098 -0.26442,0.589804 -12.06457,2.430744 -4.44154,4.923945 -0.54351,3.306355 4.31729,2.8e-5 V 66.5 H 8.72204 v -0.405551 l 4.96,-2.8e-5 -8.06882,-6.915714 h 14.05034 v -1.12752 H 33.13125 L 32.96377,55.772675 0.5,53.946112 v -1.629686 l 3.96464,0.142466 C 11.87812,47.169677 16.41828,34.393957 18.08511,14.131735 l 0.0496,-0.616299 v -1.520688 l 3.15413,1.436463 C 25.04517,10.63224 27.56982,6.3796236 28.86279,0.67336197 L 28.90163,0.5 Z m 1.66352,20.339005 3.04362,37.212174 0.65911,8e-6 v 2.081094 h 13.61503 v -2.851283 l -13.564,-1.605593 v -0.831832 c 1.6416,-2.654845 2.28037,-10.041025 1.91628,-22.158537 l -0.0113,-0.368646 h -2.59872 c 0.64062,-3.33151 1.02509,-6.419267 1.22989,-9.222082 z m 18.26321,13.245034 1.88869,25.7295 15.24523,-2.678825 -1.95986,-0.374403 C 58.81422,55.485179 61.11551,55.967728 54.07704,55.337003 l -0.24564,-0.02212 c 0.73245,-3.861314 1.08533,-7.700877 1.17115,-11.40254 z m 12.59873,15.420794 0.0744,0.07276 c 2.32474,2.280709 4.16198,4.738261 5.51171,7.372658 L 78.75386,55.150355 78.09255,54.176684 C 75.44272,52.416337 70.38657,50.859053 62.92407,49.50483 Z m -1.08191,-14.223945 0.5462,0.580124 0.29639,0.315463 c 3.21798,3.427257 7.19713,7.738543 12.11511,13.153791 L 73.70713,47.720957 C 65.10359,36.914567 62.55434,35.430929 61.86256,35.284912 Z m -12.25364,-11.234463 0.59427,8.095352 2e-5,-0.772665 0.14974,0.179854 c 1.60108,1.926568 2.78901,3.46967 3.56377,4.629306 l 7e-5,-5.59e-4 C 52.42066,29.204739 50.33481,25.29161 49.58852,24.046425 Z m 11.89717,10.56935 0.0388,0.318024 0.0586,0.04647 v 0 l 0.003,0.0024 z M 48.61488,10.782286 49.53217,23.286053 c 0.46561,0.221618 1.5861,1.095258 4.1605,3.610053 l 10e-4,8.95e-4 C 52.49058,19.843273 50.83291,14.759653 50.33183,13.309618 Z m -18.0658,-8.4421413 1.3005,15.9004173 4.65123,2.117592 C 36.72005,14.171348 36.07196,9.6687934 35.57986,7.401618 Z"
     id="hull"
     inkscape:connector-curvature="0"
     style="fill:#000000;fill-opacity:1;stroke:#040404" />
</svg>
