<?xml version="1.0" encoding="UTF-8" standalone="no"?>
<svg
   xmlns:dc="http://purl.org/dc/elements/1.1/"
   xmlns:cc="http://creativecommons.org/ns#"
   xmlns:rdf="http://www.w3.org/1999/02/22-rdf-syntax-ns#"
   xmlns:svg="http://www.w3.org/2000/svg"
   xmlns="http://www.w3.org/2000/svg"
   xmlns:sodipodi="http://sodipodi.sourceforge.net/DTD/sodipodi-0.dtd"
   xmlns:inkscape="http://www.inkscape.org/namespaces/inkscape"
   height="61.518742"
   width="120"
   version="1.1"
   id="svg2"
   sodipodi:docname="fleet.svg"
   inkscape:version="0.92.3 (2405546, 2018-03-11)">
  <sodipodi:namedview
     pagecolor="#ffffff"
     bordercolor="#666666"
     borderopacity="1"
     objecttolerance="10"
     gridtolerance="10"
     guidetolerance="10"
     inkscape:pageopacity="0"
     inkscape:pageshadow="2"
     inkscape:window-width="1853"
     inkscape:window-height="1016"
     id="namedview7"
     showgrid="false"
     inkscape:zoom="3.4378159"
     inkscape:cx="20.361765"
     inkscape:cy="33.959077"
     inkscape:window-x="67"
     inkscape:window-y="27"
     inkscape:window-maximized="1"
     inkscape:current-layer="svg2"
     viewbox-height="100"
     viewbox-y="-40"
     viewbox-width="120" />
  <metadata
     id="metadata8">
    <rdf:RDF>
      <cc:Work
         rdf:about="">
        <dc:format>image/svg+xml</dc:format>
        <dc:type
           rdf:resource="http://purl.org/dc/dcmitype/StillImage" />
        <dc:title></dc:title>
      </cc:Work>
    </rdf:RDF>
  </metadata>
  <defs
     id="defs6" />
  <path
     style="fill:#000000;fill-opacity:0.53333285;stroke:none;stroke-width:0.89018542"
     id="shadow"
     d="m 55.071502,-31.570684 0.07028,0.869211 4.328535,3.954094 c 3.210402,1.493848 6.45989,3.627411 9.748466,6.400692 l 8e-6,-6.501131 h 1.651095 l 0.237187,3.268396 27.297221,40.841204 1.0132,-0.180038 -0.23404,0.528037 -10.67864,2.176184 -3.931312,4.408283 -0.48107,2.960096 3.821336,2.5e-5 v 0.36308 h -52.02874 v -0.36308 l 4.390221,-2.5e-5 -7.141915,-6.191464 H 45.569641 V 19.95344 H 57.49023 L 57.341989,17.913546 28.607495,16.27827 v -1.459017 l 3.509202,0.127546 c 6.561857,-4.7353 10.580466,-16.1730781 12.055819,-34.313335 l 0.0439,-0.551757 v -1.361433 l 2.791799,1.286028 c 3.324822,-2.505847 5.559452,-6.313108 6.703892,-11.421779 l 0.03438,-0.155207 z m 1.472423,18.208998 2.693984,33.315119 0.583395,7e-6 v 1.863151 H 71.872307 V 19.263909 L 59.866472,17.826462 v -0.744718 c 1.453021,-2.376816 2.018412,-8.9894757 1.696147,-19.8379768 l -0.01,-0.33004 h -2.300194 c 0.567029,-2.9826167 0.907333,-5.7470067 1.088606,-8.2562962 z m 16.165223,11.8579449 1.671727,23.0349701 13.493933,-2.398284 -1.73472,-0.335194 C 80.222867,17.656158 82.259797,18.088172 76.029871,17.5235 l -0.217422,-0.0198 c 0.64831,-3.456937 0.960653,-6.894401 1.036614,-10.2084054 z m 11.15145,13.8058461 0.06585,0.06514 c 2.057684,2.041861 3.68387,4.242046 4.878546,6.600555 l 9.066924,-1.611402 -0.58535,-0.871703 C 94.941142,14.908701 90.46583,13.514504 83.860594,12.302102 Z m -0.957625,-12.73433717 0.483455,0.5193697 0.262342,0.282427 C 86.497078,3.4379002 90.01912,7.2976856 94.372132,12.14582 L 93.404936,10.705046 C 85.789742,1.0303595 83.533341,-0.29790417 82.921029,-0.42862917 Z M 72.05697,-10.490163 l 0.526003,7.2475642 1.8e-5,-0.691748 0.132539,0.161019 c 1.417156,1.724808 2.468622,3.10630763 3.154381,4.14450033 l 6.2e-5,-5e-4 C 74.563768,-5.8720545 72.71753,-9.3753805 72.05697,-10.490163 Z m 10.530482,9.4624719 0.03434,0.28471893 0.05187,0.0416 v 0 l 0.0027,0.0021 z m -11.392275,-21.3375219 0.811916,11.194309 c 0.412123,0.198409 1.403897,0.980556 3.682563,3.2319885 l 8.85e-4,8.01e-4 C 74.625656,-14.253139 73.158411,-18.804377 72.714892,-20.102557 Z m -15.99049,-7.558037 1.151105,14.235244 4.116919,1.895827 c 0.194055,-5.538893 -0.379585,-9.569916 -0.815155,-11.599661 z"
     inkscape:connector-curvature="0" />
  <path
     style="fill:#000000;fill-opacity:1;stroke:none;stroke-width:0.89018542"
     id="hull"
     d="m 54.945345,-34.00129 0.07028,0.869211 4.328535,3.954094 c 3.210402,1.493848 6.45989,3.627411 9.748466,6.400692 l 8e-6,-6.501131 h 1.651095 l 0.237187,3.268396 27.297218,40.841204 1.0132,-0.180038 -0.23404,0.528037 -10.67864,2.176184 -3.931302,4.408283 -0.481078,2.960096 3.821334,2.5e-5 v 0.36308 H 35.758872 v -0.36308 l 4.39022,-2.5e-5 -7.141914,-6.191464 h 12.436306 v -1.00944 H 57.364073 L 57.215832,15.48294 28.481339,13.847664 v -1.459017 l 3.509202,0.127546 C 38.552397,7.7808936 42.571006,-3.6568848 44.046359,-21.797142 l 0.0439,-0.551757 v -1.361433 l 2.791799,1.286028 c 3.324822,-2.505847 5.559452,-6.313108 6.703892,-11.421779 l 0.03438,-0.155207 z m 1.472423,18.208998 2.693984,33.315119 0.583395,7e-6 v 1.863151 H 71.74615 V 16.833303 L 59.740315,15.395856 v -0.744718 c 1.453021,-2.376816 2.018412,-8.9894751 1.696147,-19.8379765 l -0.01,-0.330039 h -2.300194 c 0.567029,-2.982617 0.907333,-5.7470075 1.088606,-8.2562985 z m 16.165223,11.8579452 1.671727,23.0349698 13.49393,-2.398284 -1.73472,-0.335194 C 80.09671,15.225552 82.13364,15.657566 75.903714,15.092894 l -0.217422,-0.0198 c 0.64831,-3.456937 0.960653,-6.8944007 1.036614,-10.2084051 z m 11.15145,13.8058461 0.06585,0.06514 c 2.057681,2.0418607 3.683867,4.2420457 4.878543,6.6005547 l 9.066924,-1.611402 -0.58534,-0.871703 C 94.814992,12.478095 90.33967,11.083898 83.734437,9.8714963 Z m -0.957625,-12.7343371 0.483455,0.51937 0.262342,0.282427 c 2.848315,3.0683353 6.370351,6.9281207 10.723369,11.7762551 L 93.278776,8.2744403 C 85.663592,-1.4002461 83.407184,-2.7285098 82.794872,-2.8592348 Z m -10.846003,-10.0579312 0.526003,7.2475645 1.8e-5,-0.691748 0.132539,0.161019 c 1.417156,1.724808 2.468622,3.1063077 3.154381,4.1445007 l 6.2e-5,-5e-4 C 74.437611,-8.3026605 72.591373,-11.805986 71.930813,-12.920769 Z m 10.530482,9.4624722 0.03434,0.284719 0.05187,0.0416 v 0 l 0.0027,0.0021 z M 71.06902,-24.795819 l 0.811916,11.194308 c 0.412123,0.198409 1.403897,0.980557 3.682563,3.23199 l 8.85e-4,8.01e-4 c -1.064885,-6.315025 -2.53213,-10.866263 -2.975649,-12.164443 z m -15.99049,-7.558037 1.151105,14.235243 4.116919,1.895828 c 0.194055,-5.538893 -0.379585,-9.569916 -0.815155,-11.599661 z"
     inkscape:connector-curvature="0" />
</svg>
