<?xml version="1.0" encoding="UTF-8" standalone="no"?>
<!-- Created with Inkscape (http://www.inkscape.org/) -->

<svg
   width="720"
   height="720"
   viewBox="0 0 720 720"
   version="1.1"
   id="svg1"
   inkscape:version="1.3.2 (091e20e, 2023-11-25, custom)"
   sodipodi:docname="balkans.svg"
   xmlns:inkscape="http://www.inkscape.org/namespaces/inkscape"
   xmlns:sodipodi="http://sodipodi.sourceforge.net/DTD/sodipodi-0.dtd"
   xmlns="http://www.w3.org/2000/svg"
   xmlns:svg="http://www.w3.org/2000/svg">
  <sodipodi:namedview
     id="namedview1"
     pagecolor="#ffffff"
     bordercolor="#000000"
     borderopacity="0.25"
     inkscape:showpageshadow="2"
     inkscape:pageopacity="0.0"
     inkscape:pagecheckerboard="0"
     inkscape:deskcolor="#d1d1d1"
     inkscape:document-units="mm"
     inkscape:zoom="0.73890575"
     inkscape:cx="364.05184"
     inkscape:cy="259.16702"
     inkscape:window-width="2560"
     inkscape:window-height="1369"
     inkscape:window-x="-8"
     inkscape:window-y="-8"
     inkscape:window-maximized="1"
     inkscape:current-layer="layer1" />
  <defs
     id="defs1" />
  <g
     inkscape:label="Layer 1"
     inkscape:groupmode="layer"
     id="layer1">
    <g
       id="g3"
       transform="scale(1,1.2)">
      <g
         id="g2"
         transform="scale(0.8,1)">
        <rect
           width="450"
           height="600"
           fill="#ffffff"
           id="rect1"
           x="450"
           y="0"
           style="stroke-width:134.164" />
        <rect
           width="450"
           height="400"
           y="200"
           fill="#00966e"
           id="rect2"
           x="450"
           style="stroke-width:134.164" />
        <rect
           width="450"
           height="200"
           y="400"
           fill="#d62612"
           id="rect3"
           x="450"
           style="stroke-width:134.164" />
        <rect
           width="450"
           height="600"
           fill="#ffffff"
           id="rect1-9"
           x="0"
           y="0"
           style="fill:#002b7f;fill-opacity:1;stroke-width:134.164" />
        <rect
           width="450"
           height="400"
           y="200"
           fill="#00966e"
           id="rect2-7"
           x="0"
           style="fill:#fcd116;fill-opacity:1;stroke-width:134.164" />
      </g>
      <rect
         width="450"
         height="200"
         y="400"
         fill="#d62612"
         id="rect3-9"
         x="0"
         style="stroke-width:134.164" />
    </g>
    <g
       id="g4"
       transform="matrix(1.0865893,0,0,1.1416897,-128.96518,17.493092)">
      <path
         fill-rule="evenodd"
         stroke="#fcd115"
         stroke-width="12.9093"
         d="m 450.00073,101.97451 49.6522,152.79457 160.65924,0.007 -129.97311,94.43838 49.6406,152.79894 -129.97893,-94.43113 -129.98037,94.42967 49.64059,-152.79893 -129.97312,-94.43837 160.65924,-0.007 z"
         id="path4"
         style="fill:#ff0000;fill-opacity:1" />
      <g
         id="g1"
         transform="matrix(1.193609,0,0,1.193609,-87.723385,-57.334776)">
        <path
           id="half"
           d="m 434.52087,274.82223 c -1.55688,-0.0262 -4.14079,0.49634 -4.08289,1.69118 -4.33649,-0.74322 -4.78804,1.048 -4.5332,2.64189 0.41259,-0.63256 0.91496,-0.97598 1.30092,-1.04074 0.57826,-0.096 1.18337,0.0908 1.80128,0.47032 0.61794,0.37956 1.2987,0.99205 1.60115,1.37095 -1.53051,0.36592 -2.71287,0.12971 -3.91279,-0.0801 -0.59151,-0.10346 -1.41926,-0.43622 -1.91135,-0.78054 -0.49207,-0.34437 -0.64701,-0.66849 -1.42101,-1.46102 -0.91255,-0.93442 -1.88376,-0.67131 -1.58112,0.78055 0.69988,1.34845 1.86903,1.94973 3.34237,2.19156 0.70898,0.11643 1.76508,0.3691 2.96209,0.37026 1.19703,7e-4 2.54108,-0.17293 3.27234,-0.02 -0.4393,0.27581 -0.93643,0.75132 -1.92137,0.94066 -1.00159,0.19252 -2.52435,-0.5956 -3.45243,-0.81057 0.11788,0.78089 1.10287,1.51088 3.04215,1.89134 3.18675,0.69391 5.8348,1.22127 7.58539,2.17154 1.75057,0.95027 2.85431,2.13997 3.64258,3.07218 1.56866,1.85511 1.65118,3.27918 1.75124,3.59252 0.32273,2.96393 -0.71077,4.63119 -2.63186,5.14365 -0.96055,0.25622 -2.6668,-0.22624 -3.29231,-0.96067 -0.62555,-0.73426 -1.23417,-1.99636 -1.06077,-3.9728 0.1686,-0.77536 1.05523,-2.79498 0.30023,-3.21226 -3.47819,-1.9224 -7.70185,-3.86655 -10.75764,-5.0235 -0.83521,-0.31621 -1.52324,0.81893 -1.79128,1.26089 -5.19123,-0.63218 -9.87163,-4.14511 -11.97848,-7.88558 -1.43493,-2.54759 -3.79997,0.005 -3.40241,2.41168 0.64183,2.68596 2.68832,4.6279 5.14365,6.00426 2.52003,1.38759 5.66991,2.75299 8.85626,2.68192 1.71663,0.32475 1.69969,2.54562 -0.36026,2.96209 -4.02874,0.0255 -7.24273,-0.0749 -10.2773,-3.00212 -2.30171,-2.10159 -3.59749,0.4025 -2.93207,1.82128 1.12763,4.37375 7.36724,5.59852 13.67968,4.18296 2.44444,-0.40481 0.9807,2.21451 0.2902,2.2416 -2.6376,1.89114 -7.35968,3.74156 -11.51819,-0.02 -1.90292,-1.45711 -3.18951,-0.23229 -2.48175,1.87134 1.8452,5.48466 8.90349,4.33273 13.74974,1.63115 1.24738,-0.69535 2.37944,0.92239 0.86061,2.15153 -6.0267,4.21108 -9.03995,4.25899 -11.75832,2.64187 -3.40321,-1.34217 -3.70256,2.43256 -1.68119,3.67262 2.2467,1.37825 7.96407,0.34489 12.15864,-2.29163 1.79819,-1.3369 1.87955,0.75351 0.74051,1.58112 -4.97767,4.30174 -6.93964,5.43456 -12.1286,4.73334 -2.57305,-0.20059 -2.53441,2.97167 -0.51036,4.21296 2.76352,1.6948 8.16026,-1.11837 12.34876,-4.59327 1.76292,-0.94199 2.05245,0.6029 1.18083,2.43173 -2.55928,3.22891 -4.96133,5.13263 -7.27514,6.01425 -2.31381,0.88164 -4.53938,0.74117 -6.11435,0.20001 -1.92143,-0.66013 -2.16237,1.33672 -1.10077,3.15223 0.63993,1.09437 3.29184,1.44529 6.15435,0.43032 2.86253,-1.01482 5.93566,-3.39524 8.0457,-6.18438 1.83584,-1.6072 1.60752,0.55197 0.77055,2.07146 -4.22521,6.67953 -8.08958,9.15731 -13.17933,8.73619 -2.25681,-0.38323 -2.76935,1.37174 -1.33092,2.99212 2.52576,2.09464 5.6838,2.02896 8.44598,-0.0401 2.45555,-2.3675 7.1532,-7.46557 9.6168,-10.19724 1.73606,-1.38399 2.29065,-0.0196 1.78127,2.79198 -0.46325,1.61011 -1.62299,3.30583 -4.78339,4.54322 -2.15905,1.23224 -0.53766,2.93053 1.08077,2.96209 0.89067,0.0174 2.69926,-1.02381 4.0829,-2.58181 1.82024,-2.04962 1.92848,-3.42566 2.93208,-6.61468 0.94816,-1.55451 2.64171,-0.82892 2.64188,0.80058 -0.81225,3.19433 -1.51014,3.76709 -3.15223,5.07361 -1.57066,1.47462 1.09364,1.96607 1.9914,1.36096 2.59718,-1.75061 3.54533,-4.0151 4.41311,-6.07432 0.62638,-1.48639 2.44346,-0.76582 1.60115,1.66118 -2.01296,5.80021 -5.32064,8.08403 -11.10788,9.25655 -0.58652,0.10432 -0.94427,0.45043 -0.74051,1.13079 0.77674,0.80637 1.5549,1.53806 2.33166,2.34166 -3.57856,1.04195 -6.48591,1.62731 -10.0672,2.67205 -1.75704,-1.15193 -3.17646,-2.12922 -4.93348,-3.28233 -0.46332,-1.0831 -0.67936,-2.73635 -3.27234,-1.57112 -1.75704,-0.81149 -2.56752,-0.51393 -3.54251,0.30022 1.40753,0.0524 2.01994,0.4294 2.57182,1.07077 0.72054,1.89771 2.3821,2.08103 4.0829,1.54109 1.10647,0.93211 1.69573,1.64709 2.80197,2.58182 -2.06521,-0.0706 -3.50398,-0.10722 -5.56394,-0.17004 -1.96642,-2.11139 -3.53595,-1.99573 -4.9435,-0.34023 -1.07278,0.16485 -1.52754,0.18791 -2.2616,1.49105 1.15446,-0.4738 1.88076,-0.61583 2.38169,-0.1 2.09067,1.21204 3.45647,0.9415 4.4932,0 2.01703,0.12335 3.8346,0.22768 5.85414,0.36025 -0.74183,0.63057 -1.75992,0.96506 -2.50179,1.60115 -3.02945,-0.86669 -4.6106,0.29994 -5.14365,2.77198 -0.40599,0.99773 -0.59609,2.02495 -0.42029,3.0922 0.29322,-0.97618 0.76467,-1.81549 1.63116,-2.34166 2.70016,0.68586 3.71546,-0.41646 3.86273,-2.03144 1.30156,-1.06198 3.26424,-1.29617 4.56324,-2.37169 1.51883,0.48623 2.25304,0.7874 3.78268,1.27089 0.54384,1.65262 1.77448,2.30699 3.77266,1.88134 2.37864,0.0746 1.95872,1.05064 2.15153,1.83131 0.63215,-1.12115 0.61454,-2.21145 -0.85061,-3.20227 -0.53305,-1.4482 -1.71409,-2.10683 -3.26231,-1.2709 -1.45733,-0.41374 -1.84047,-1.00842 -3.29231,-1.42102 3.67239,-1.17051 6.27741,-1.4339 9.94705,-2.60184 0.91856,0.86648 1.64657,1.48854 2.57181,2.2616 0.48765,0.29105 0.95445,0.36437 1.2409,0 2.2995,-3.3282 3.32648,-6.26135 5.46387,-8.45599 0.81657,-0.90801 1.84823,-2.13314 2.99212,-2.43172 0.57195,-0.14929 1.27335,-0.0582 1.72122,0.43031 0.44787,0.48848 0.79968,1.38877 0.65047,2.73195 -0.21413,1.92803 -0.67996,2.53677 -1.22085,3.6926 -0.5409,1.15587 -1.20193,1.86685 -1.88135,2.75195 -1.35885,1.77018 -3.1518,2.80051 -4.21297,3.49246 -2.12236,1.38396 -3.01998,0.77824 -4.6633,0.69048 -2.12399,0.23834 -2.68913,1.27279 -0.95068,2.70191 1.62513,0.84557 3.08588,0.94996 4.27305,0.73052 1.01932,-0.18849 2.21223,-1.50414 3.06217,-2.21156 0.95672,-1.10527 2.54292,0.20548 1.46103,1.49105 -1.96599,2.33598 -3.93041,3.87615 -6.35452,3.84273 -2.5473,0.34281 -2.07081,1.77406 -0.38026,2.47175 3.04253,1.25567 5.78957,-1.0963 7.18509,-2.64189 1.07667,-1.17792 1.84139,-1.22386 1.65118,0.60042 -1.06886,3.30269 -2.52951,4.57851 -4.9135,4.74336 -1.93371,-0.17955 -1.9546,1.31312 -0.54038,2.32166 3.22158,2.22981 5.55462,-1.56743 6.64471,-3.86274 0.77677,-2.07048 1.96818,-1.08587 2.0915,0.62044 0.0161,2.27982 -1.01408,4.14122 -3.77266,6.47458 2.11067,3.36287 4.5713,6.78334 6.68471,10.15722 l 6.40614,-71.3485 -6.40454,-11.27263 c -0.66705,-0.61584 -2.92296,-3.27369 -3.51245,-3.64258 -0.215,-0.22971 -0.34575,-0.392 -0.03,-0.51036 0.30537,-0.11442 1.02021,-0.24267 1.50105,-0.33023 -1.35831,-1.3606 -2.52231,-1.79698 -5.09369,-2.54172 0.62664,-0.26688 1.23619,-0.11154 3.08218,-0.20002 -0.73287,-1.04031 -2.36977,-2.63381 -4.48318,-3.40254 1.39572,-0.99223 1.6677,-1.05873 3.05217,-2.22157 -2.3974,-0.17004 -4.44469,-0.62673 -6.50461,-1.25089 -1.30234,-0.60895 -3.11113,-1.12596 -3.99281,-1.14081 z m 0.23028,2.79198 c 1.26688,0 2.05146,0.43426 2.05146,0.96067 0,0.53555 -0.78458,0.9707 -2.05146,0.9707 -1.26162,0 -2.06147,-0.47488 -2.06147,-1.0107 2.3e-4,-0.52641 0.79985,-0.92067 2.06147,-0.92067 z"
           fill="#000000"
           style="stroke-width:0.320227" />
        <path
           d="m 466.48337,274.82223 c 1.55688,-0.0262 4.1408,0.49634 4.0829,1.69118 4.33648,-0.74322 4.78803,1.048 4.53319,2.64189 -0.41259,-0.63256 -0.91496,-0.97598 -1.30092,-1.04074 -0.57826,-0.096 -1.18337,0.0908 -1.80128,0.47032 -0.61794,0.37956 -1.29871,0.99205 -1.60115,1.37095 1.53052,0.36592 2.71287,0.12971 3.91279,-0.0801 0.59151,-0.10346 1.41927,-0.43622 1.91134,-0.78054 0.49208,-0.34437 0.64702,-0.66849 1.42103,-1.46102 0.91253,-0.93442 1.88376,-0.67131 1.58112,0.78055 -0.69988,1.34845 -1.86904,1.94973 -3.34238,2.19156 -0.70898,0.11643 -1.76507,0.3691 -2.9621,0.37026 -1.19703,7e-4 -2.54107,-0.17293 -3.27233,-0.02 0.43931,0.27581 0.93643,0.75132 1.92137,0.94066 1.0016,0.19252 2.52435,-0.5956 3.45243,-0.81057 -0.11787,0.78089 -1.10287,1.51088 -3.04216,1.89134 -3.18673,0.69391 -5.83479,1.22127 -7.58537,2.17154 -1.75058,0.95027 -2.85432,2.13997 -3.64258,3.07218 -1.56867,1.85511 -1.65119,3.27918 -1.75125,3.59252 -0.32273,2.96393 0.71077,4.63119 2.63185,5.14365 0.96056,0.25622 2.66682,-0.22624 3.29232,-0.96067 0.62555,-0.73426 1.23418,-1.99636 1.06077,-3.9728 -0.1686,-0.77536 -1.05523,-2.79498 -0.30022,-3.21226 3.47817,-1.9224 7.70184,-3.86655 10.75764,-5.0235 0.8352,-0.31621 1.52324,0.81893 1.79127,1.26089 5.19123,-0.63218 9.87164,-4.14511 11.97847,-7.88558 1.43494,-2.54759 3.79998,0.005 3.40242,2.41168 -0.64184,2.68596 -2.68831,4.6279 -5.14365,6.00426 -2.52003,1.38759 -5.66991,2.75299 -8.85626,2.68192 -1.71664,0.32475 -1.69969,2.54562 0.36025,2.96209 4.02874,0.0255 7.24273,-0.0749 10.27731,-3.00212 2.30171,-2.10159 3.59749,0.4025 2.93207,1.82128 -1.12763,4.37375 -7.36724,5.59852 -13.67968,4.18296 -2.44443,-0.40481 -0.9807,2.21451 -0.29019,2.2416 2.63758,1.89114 7.35968,3.74156 11.51818,-0.02 1.90292,-1.45711 3.18951,-0.23229 2.48175,1.87134 -1.84519,5.48466 -8.9035,4.33273 -13.74974,1.63115 -1.24738,-0.69535 -2.37945,0.92239 -0.86062,2.15153 6.02671,4.21108 9.03995,4.25899 11.75832,2.64187 3.40323,-1.34217 3.70258,2.43256 1.6812,3.67262 -2.24669,1.37825 -7.96408,0.34489 -12.15863,-2.29163 -1.7982,-1.3369 -1.87956,0.75351 -0.74052,1.58112 4.97768,4.30174 6.93964,5.43456 12.12861,4.73334 2.57306,-0.20059 2.53441,2.97167 0.51035,4.21296 -2.76351,1.6948 -8.16026,-1.11837 -12.34876,-4.59327 -1.76292,-0.94199 -2.05245,0.6029 -1.18083,2.43173 2.55928,3.22891 4.96134,5.13263 7.27514,6.01425 2.31382,0.88164 4.53938,0.74117 6.11435,0.20001 1.92143,-0.66013 2.16237,1.33672 1.10077,3.15223 -0.63993,1.09437 -3.29184,1.44529 -6.15434,0.43032 -2.86254,-1.01482 -5.93567,-3.39524 -8.04572,-6.18438 -1.83583,-1.6072 -1.60751,0.55197 -0.77054,2.07146 4.22521,6.67953 8.08958,9.15731 13.17933,8.73619 2.25681,-0.38323 2.76936,1.37174 1.33093,2.99212 -2.52577,2.09464 -5.68381,2.02896 -8.44599,-0.0401 -2.45556,-2.3675 -7.1532,-7.46557 -9.6168,-10.19724 -1.73606,-1.38399 -2.29065,-0.0196 -1.78128,2.79198 0.46326,1.61011 1.623,3.30583 4.7834,4.54322 2.15905,1.23224 0.53767,2.93053 -1.08077,2.96209 -0.89066,0.0174 -2.69927,-1.02381 -4.08289,-2.58181 -1.82025,-2.04962 -1.9285,-3.42566 -2.93208,-6.61468 -0.94817,-1.55451 -2.64171,-0.82892 -2.64189,0.80058 0.81224,3.19433 1.51014,3.76709 3.15224,5.07361 1.57065,1.47462 -1.09365,1.96607 -1.99141,1.36096 -2.59718,-1.75061 -3.54532,-4.0151 -4.41311,-6.07432 -0.62639,-1.48639 -2.44346,-0.76582 -1.60115,1.66118 2.01296,5.80021 5.32063,8.08403 11.10788,9.25655 0.58652,0.10432 0.94427,0.45043 0.74051,1.13079 -0.77674,0.80637 -1.55489,1.53806 -2.33166,2.34166 3.57857,1.04195 6.48591,1.62731 10.06721,2.67205 1.75702,-1.15193 3.17645,-2.12922 4.93347,-3.28233 0.46332,-1.0831 0.67936,-2.73635 3.27234,-1.57112 1.75703,-0.81149 2.56752,-0.51393 3.54251,0.30022 -1.40753,0.0524 -2.01994,0.4294 -2.57182,1.07077 -0.72054,1.89771 -2.3821,2.08103 -4.08289,1.54109 -1.10648,0.93211 -1.69574,1.64709 -2.80199,2.58182 2.06521,-0.0706 3.504,-0.10722 5.56394,-0.17004 1.96643,-2.11139 3.53596,-1.99573 4.94351,-0.34023 1.07279,0.16485 1.52754,0.18791 2.2616,1.49105 -1.15446,-0.4738 -1.88077,-0.61583 -2.38169,-0.1 -2.09066,1.21204 -3.45647,0.9415 -4.4932,0 -2.01703,0.12335 -3.83459,0.22768 -5.85414,0.36025 0.74184,0.63057 1.75992,0.96506 2.50179,1.60115 3.02944,-0.86669 4.6106,0.29994 5.14365,2.77198 0.40599,0.99773 0.59609,2.02495 0.42029,3.0922 -0.29322,-0.97618 -0.76467,-1.81549 -1.63115,-2.34166 -2.70016,0.68586 -3.71547,-0.41646 -3.86274,-2.03144 -1.30157,-1.06198 -3.26424,-1.29617 -4.56324,-2.37169 -1.51884,0.48623 -2.25303,0.7874 -3.78268,1.27089 -0.54384,1.65262 -1.77448,2.30699 -3.77266,1.88134 -2.37863,0.0746 -1.95872,1.05064 -2.15152,1.83131 -0.63216,-1.12115 -0.61455,-2.21145 0.85059,-3.20227 0.53307,-1.4482 1.7141,-2.10683 3.26232,-1.2709 1.45734,-0.41374 1.84047,-1.00842 3.29232,-1.42102 -3.6724,-1.17051 -6.27741,-1.4339 -9.94706,-2.60184 -0.91856,0.86648 -1.64656,1.48854 -2.57182,2.2616 -0.48764,0.29105 -0.95444,0.36437 -1.24089,0 -2.29949,-3.3282 -3.32648,-6.26135 -5.46387,-8.45599 -0.81657,-0.90801 -1.84823,-2.13314 -2.99212,-2.43172 -0.57195,-0.14929 -1.27335,-0.0582 -1.72122,0.43031 -0.44787,0.48848 -0.79968,1.38877 -0.65048,2.73195 0.21414,1.92803 0.67996,2.53677 1.22087,3.6926 0.5409,1.15587 1.20192,1.86685 1.88133,2.75195 1.35886,1.77018 3.15181,2.80051 4.21298,3.49246 2.12237,1.38396 3.01997,0.77824 4.6633,0.69048 2.12398,0.23834 2.68912,1.27279 0.95067,2.70191 -1.62512,0.84557 -3.08587,0.94996 -4.27304,0.73052 -1.01932,-0.18849 -2.21223,-1.50414 -3.06217,-2.21156 -0.95672,-1.10527 -2.54291,0.20548 -1.46102,1.49105 1.96598,2.33598 3.9304,3.87615 6.35452,3.84273 2.54729,0.34281 2.07081,1.77406 0.38025,2.47175 -3.04253,1.25567 -5.78957,-1.0963 -7.18509,-2.64189 -1.07667,-1.17792 -1.84139,-1.22386 -1.65117,0.60042 1.06885,3.30269 2.5295,4.57851 4.91348,4.74336 1.93371,-0.17955 1.95461,1.31312 0.54039,2.32166 -3.22158,2.22981 -5.55463,-1.56743 -6.64471,-3.86274 -0.77676,-2.07048 -1.96818,-1.08587 -2.09149,0.62044 -0.0161,2.27982 1.01407,4.14122 3.77265,6.47458 -2.11066,3.36287 -4.5713,6.78334 -6.6847,10.15722 l -6.40615,-71.3485 6.40454,-11.27263 c 0.66705,-0.61584 2.92296,-3.27369 3.51244,-3.64258 0.215,-0.22971 0.34576,-0.392 0.03,-0.51036 -0.30538,-0.11442 -1.02022,-0.24267 -1.50106,-0.33023 1.35831,-1.3606 2.52231,-1.79698 5.0937,-2.54172 -0.62665,-0.26688 -1.23619,-0.11154 -3.08218,-0.20002 0.73286,-1.04031 2.36976,-2.63381 4.48317,-3.40254 -1.39571,-0.99223 -1.6677,-1.05873 -3.05217,-2.22157 2.39741,-0.17004 4.44469,-0.62673 6.50461,-1.25089 1.30234,-0.60895 3.11114,-1.12596 3.99282,-1.14081 z m -0.23027,2.79198 c -1.2669,0 -2.05147,0.43426 -2.05147,0.96067 0,0.53555 0.78457,0.9707 2.05147,0.9707 1.26161,0 2.06146,-0.47488 2.06146,-1.0107 -2.2e-4,-0.52641 -0.79985,-0.92067 -2.06146,-0.92067 z"
           fill="#000000"
           id="path1"
           style="stroke-width:0.320227" />
      </g>
    </g>
  </g>
</svg>
