<?xml version="1.0" encoding="UTF-8" standalone="no"?>
<!-- Created with Inkscape (http://www.inkscape.org/) -->

<svg
   xmlns:dc="http://purl.org/dc/elements/1.1/"
   xmlns:cc="http://creativecommons.org/ns#"
   xmlns:rdf="http://www.w3.org/1999/02/22-rdf-syntax-ns#"
   xmlns:svg="http://www.w3.org/2000/svg"
   xmlns="http://www.w3.org/2000/svg"
   xmlns:sodipodi="http://sodipodi.sourceforge.net/DTD/sodipodi-0.dtd"
   xmlns:inkscape="http://www.inkscape.org/namespaces/inkscape"
   id="svg2"
   version="1.1"
   inkscape:version="0.48.2 r9819"
   width="124.3913"
   height="29.404963"
   sodipodi:docname="fleet.svg">
  <metadata
     id="metadata8">
    <rdf:RDF>
      <cc:Work
         rdf:about="">
        <dc:format>image/svg+xml</dc:format>
        <dc:type
           rdf:resource="http://purl.org/dc/dcmitype/StillImage" />
        <dc:title />
      </cc:Work>
    </rdf:RDF>
  </metadata>
  <defs
     id="defs6">
    <inkscape:perspective
       sodipodi:type="inkscape:persp3d"
       inkscape:vp_x="0 : 0.5 : 1"
       inkscape:vp_y="0 : 1000 : 0"
       inkscape:vp_z="1 : 0.5 : 1"
       inkscape:persp3d-origin="0.5 : 0.33333333 : 1"
       id="perspective10" />
  </defs>
  <sodipodi:namedview
     pagecolor="#ffffff"
     bordercolor="#666666"
     borderopacity="1"
     objecttolerance="10"
     gridtolerance="10"
     guidetolerance="10"
     inkscape:pageopacity="0"
     inkscape:pageshadow="2"
     inkscape:window-width="1916"
     inkscape:window-height="1156"
     id="namedview4"
     showgrid="false"
     inkscape:zoom="8.0871796"
     inkscape:cx="69.588069"
     inkscape:cy="8.7107056"
     inkscape:window-x="0"
     inkscape:window-y="0"
     inkscape:window-maximized="1"
     inkscape:current-layer="svg2"
     fit-margin-top="0"
     fit-margin-left="0"
     fit-margin-right="0"
     fit-margin-bottom="0" />
  <path
     style="fill:#000000;fill-opacity:0.53333285"
     d="m 64.647842,29.396663 -62.069791,0.0083 2.015577,-0.183319 2.015577,-0.183321 0.440209,-1.269972 C 7.29153,27.069868 7.503056,26.141205 7.51947,25.704652 l 0.02984,-0.793733 0.318886,0.873106 0.318885,0.873103 6.500876,0 6.500878,0 -0.196222,-0.317492 -0.196221,-0.317494 -2.044963,0 -2.044965,0 0,-0.269855 0,-0.269856 3.730539,-0.226955 c 2.051794,-0.124827 4.302022,-0.344142 5.000506,-0.487367 l 1.26997,-0.260404 -2.30182,-0.03652 -2.301822,-0.03652 0,-0.317493 0,-0.317492 2.201778,0 2.20178,0 0.736206,-0.279905 c 0.404914,-0.15395 1.664339,-0.33254 2.79873,-0.396867 l 2.062519,-0.116959 0.09672,0.83438 0.09672,0.834379 1.173245,0.205244 c 0.645283,0.112888 2.637678,0.294713 4.427542,0.404058 l 3.254301,0.198807 0,-1.460776 0,-1.460778 0.51099,-0.285967 0.510991,-0.285963 -0.553146,-0.21226 -0.553144,-0.212264 0.815612,-0.708145 0.815616,-0.708147 0.125644,-1.269972 0.125644,-1.269969 0.05337,1.508091 0.05337,1.508087 0.396866,0.04277 c 0.218274,0.02352 0.825479,0.05925 1.349342,0.07937 l 0.952477,0.0366 0.313408,0.714359 0.313406,0.714358 0.559699,0 0.559696,0 0.0043,-1.825583 c 0.0024,-1.004071 0.09049,-2.147041 0.195779,-2.539938 l 0.191438,-0.714359 1.352001,0 1.352002,0 0.198433,0.992163 c 0.109134,0.545691 0.198432,1.439988 0.198432,1.987328 l 0,0.995169 0.634985,0.396553 0.634985,0.396555 0,1.267282 0,1.267277 1.190597,0.03656 c 0.654829,0.02011 1.476342,0.01333 1.825584,-0.01515 0.349262,-0.02848 0.992183,-0.183595 1.428737,-0.344751 0.436552,-0.161156 1.722395,-0.354183 2.857431,-0.428942 l 2.063703,-0.135933 -0.09456,-0.639011 -0.09457,-0.639007 0.332684,-0.205612 c 0.182976,-0.113089 0.332684,-0.417514 0.332684,-0.676509 l 0,-0.470898 -5.159253,0.04152 -5.159255,0.04152 -0.0067,-0.266245 c -0.0037,-0.146433 0.496365,-0.601908 1.11123,-1.012161 0.614866,-0.410259 1.555145,-1.124618 2.089508,-1.587466 0.534362,-0.462849 0.270132,-0.159 -0.587186,0.675216 l -1.558753,1.516757 4.714589,-0.08804 4.714588,-0.08804 0.08914,-3.889283 0.08914,-3.889284 -0.227429,0 c -0.125085,0 -0.588544,0.321461 -1.029903,0.714358 l -0.802472,0.714358 1.027122,-1.209607 1.027114,-1.209604 -0.18447,-0.298483 -0.184473,-0.298486 0.336228,0 0.336231,0 0.05134,-2.143075 0.05133,-2.1430747 0.22466,2.3811934 c 0.123566,1.3096593 0.243334,4.6944273 0.266157,7.5217123 l 0.04149,5.140518 0.317492,0.196219 0.317493,0.196223 0,0.857189 0,0.85719 2.619314,0.09291 2.619312,0.09291 0.105824,0.301131 0.105838,0.301127 1.640375,-0.0043 c 0.902211,-0.0024 1.96184,-0.09049 2.354738,-0.195775 l 0.714358,-0.191441 0,-0.737965 0,-0.737964 0.317491,-0.196225 0.317496,-0.196219 0,-1.687788 c 0,-0.928281 0.0893,-2.134257 0.19843,-2.679948 l 0.198435,-0.992163 1.706522,0 1.706522,0 0,1.26997 0,1.269972 0.305257,0 0.305253,0 0.365812,-1.349345 c 0.201159,-0.742121 0.534862,-1.99692 0.741528,-2.788426 l 0.375758,-1.439101 -0.127694,-1.338958 -0.127693,-1.338961 -0.5829,0 -0.582901,0 -0.195925,-0.317015 -0.195927,-0.317018 0.732801,0.0789 0.732801,0.0789 0.348511,-4.2861472 c 0.191683,-2.3573825 0.378868,-4.1432768 0.41597,-3.9686572 0.0371,0.174622 0.05091,1.7819252 0.0307,3.5717912 l -0.03677,3.254299 1.102425,0 1.102427,0 0.119424,-0.3582646 0.119424,-0.3582645 0.350215,1.1410946 0.350211,1.1410947 -0.608209,0.193038 -0.608208,0.193038 0.684823,0.554538 0.684824,0.554536 -1.234149,0.750153 -1.23415,0.750153 0.555613,0.123915 c 0.305587,0.06816 0.555614,0.241026 0.555614,0.384159 0,0.143135 -0.214309,0.342483 -0.47624,0.442995 l -0.47624,0.182751 0,1.529864 0,1.529862 0.616443,0.04643 0.616449,0.04643 0.126475,-1.010723 0.126475,-1.01072 0.05081,1.011887 0.05082,1.011891 1.111224,-0.180326 1.111222,-0.180328 0,0.699204 0,0.699206 -0.476237,0.47624 c -0.261933,0.261929 -0.47624,0.680343 -0.47624,0.929798 l 0,0.453562 1.111224,0 1.111225,0 0,1.428714 0,1.428718 0.873102,-0.04324 0.873106,-0.04324 -0.714358,-0.137596 -0.714359,-0.137597 0,-0.930395 0,-0.930396 2.679948,0 2.679951,0 0.196222,0.317493 0.196218,0.317492 2.679952,0 2.67995,0 0,0.303585 0,0.303581 -2.301824,0.09328 -2.301822,0.09328 -0.05862,0.793731 -0.05863,0.793731 0.165478,-0.577435 0.165478,-0.577438 2.750579,0.176006 c 1.512816,0.09681 3.929271,0.260374 5.369891,0.363495 l 2.61931,0.187488 0,0.293316 0,0.293316 -2.22244,0 -2.22245,0 0,0.317492 0,0.317492 9.82353,0 9.82353,0 0.19622,-0.317492 c 0.10792,-0.174621 0.4021,-0.317492 0.65373,-0.317492 l 0.4575,0 0.005,1.82558 0.005,1.825582 0.24252,0.381543 0.24252,0.381541 2.37193,0.110982 c 1.30456,0.06104 -25.55948,0.114709 -59.697865,0.119281 z M 39.69871,26.974604 c 1.120754,0 2.263727,-0.08672 2.53994,-0.192718 0.276215,-0.105981 0.502207,-0.320296 0.502207,-0.476237 l 0,-0.283525 -2.53994,0 -2.539941,0 0,0.476239 0,0.476241 2.037734,0 z m 18.155426,-11.055696 -1.619846,1.30696 1.125056,-1.078615 c 0.618781,-0.593242 1.543124,-1.4358 2.054093,-1.872353 l 0.929038,-0.79373 -0.43425,0.565391 c -0.238835,0.310966 -1.163178,1.153522 -2.054091,1.872347 z"
     id="shadow"
     inkscape:connector-curvature="0" />
  <path
     id="hull"
     d="m 62.08602,27.087689 -62.069792,0.0083 2.015577,-0.183321 2.015577,-0.183322 0.440209,-1.269969 c 0.242116,-0.698484 0.453642,-1.627149 0.470056,-2.063702 l 0.02985,-0.793732 0.318885,0.873107 0.318885,0.873103 6.500876,0 6.500878,0 -0.196222,-0.317492 -0.196221,-0.317493 -2.044963,0 -2.044966,0 0,-0.269857 0,-0.269855 3.730538,-0.226959 c 2.051797,-0.124827 4.302024,-0.344141 5.000508,-0.487364 l 1.26997,-0.260404 -2.301821,-0.03652 -2.301822,-0.03652 0,-0.317493 0,-0.317492 2.20178,0 2.201781,0 0.736204,-0.279906 c 0.404914,-0.153946 1.664341,-0.332537 2.798727,-0.396864 l 2.062525,-0.116959 0.09672,0.83438 0.09672,0.834379 1.173247,0.205245 c 0.645284,0.112889 2.637681,0.29471 4.427545,0.404055 l 3.254296,0.19881 0,-1.460778 0,-1.460776 0.510994,-0.285945 0.510991,-0.285966 -0.553144,-0.21226 -0.553145,-0.212263 0.815614,-0.708148 0.815616,-0.708147 0.125644,-1.269969 0.125644,-1.269969 0.05337,1.508088 0.05337,1.50809 0.396867,0.04276 c 0.218276,0.02352 0.825481,0.05925 1.349342,0.07937 l 0.95248,0.0366 0.313405,0.714362 0.313408,0.714355 0.559696,0 0.559699,0 0.0043,-1.825582 c 0.0024,-1.00407 0.09049,-2.147043 0.195781,-2.53994 l 0.191438,-0.714358 1.352001,0 1.352,0 0.198432,0.992165 c 0.109134,0.545688 0.198433,1.439988 0.198433,1.987328 l 0,0.995167 0.634985,0.396553 0.634984,0.396557 0,1.267279 0,1.267279 1.190598,0.03656 c 0.654829,0.02011 1.476341,0.01333 1.825582,-0.01515 0.349242,-0.02846 0.992163,-0.18359 1.428716,-0.344747 0.436552,-0.161159 1.722398,-0.354179 2.857434,-0.428941 l 2.0637,-0.135934 -0.09456,-0.639009 -0.09456,-0.639005 0.332686,-0.205611 c 0.182976,-0.113089 0.332684,-0.417516 0.332684,-0.67651 l 0,-0.4709 -5.159256,0.04152 -5.159251,0.04152 -0.0067,-0.266246 c -0.0037,-0.146434 0.496355,-0.601909 1.11122,-1.012164 0.614869,-0.410257 1.555147,-1.124615 2.089511,-1.587464 0.534359,-0.462848 0.270132,-0.159 -0.587184,0.675217 l -1.558757,1.516756 4.71459,-0.08804 4.714586,-0.08804 0.08914,-3.889283 0.08914,-3.889284 -0.22743,0 c -0.125085,0 -0.588543,0.321462 -1.029902,0.714359 l -0.802471,0.714358 1.02712,-1.209605 1.027116,-1.2096065 -0.184471,-0.2984835 -0.184473,-0.2984857 0.336227,0 0.336232,0 0.05134,-2.1430748 0.05133,-2.1430723 0.224657,2.3811934 c 0.123566,1.3096571 0.243331,4.6944254 0.266157,7.5217104 l 0.04149,5.140517 0.317492,0.196221 0.317493,0.196222 0,0.857191 0,0.857193 2.619314,0.09291 2.619315,0.09291 0.105824,0.301128 0.105838,0.301128 1.640376,-0.0043 c 0.90221,-0.0024 1.961842,-0.09049 2.354738,-0.195775 l 0.714359,-0.191441 0,-0.737964 0,-0.737965 0.317492,-0.196221 0.317491,-0.196222 0,-1.687782 c 0,-0.928284 0.0893,-2.134262 0.198434,-2.679953 l 0.198433,-0.992164 1.706522,0 1.706522,0 0,1.26997 0,1.269972 0.305257,0 0.305252,0 0.365814,-1.349345 c 0.201164,-0.742134 0.534865,-1.996933 0.741533,-2.788439 l 0.375752,-1.439102 -0.127693,-1.338958 -0.127693,-1.338958 -0.582901,0 -0.582901,0 -0.195924,-0.3170178 -0.19593,-0.3170177 0.732803,0.078899 0.7328,0.078896 0.348511,-4.2861495 c 0.191683,-2.3573824 0.378868,-4.14327676 0.415972,-3.96865706 0.0371,0.1746221 0.05091,1.78192736 0.0307,3.57179106 l -0.03676,3.254299 1.102425,0 1.102426,0 0.119424,-0.3582647 0.119424,-0.3582645 0.350212,1.1410946 0.350212,1.1410947 -0.60821,0.1930378 -0.608205,0.1930378 0.68482,0.5545385 0.684827,0.5545385 -1.234149,0.7501502 -1.23415,0.750156 0.55561,0.123914 c 0.305587,0.06815 0.555613,0.241027 0.555613,0.384161 0,0.143134 -0.214306,0.34248 -0.47624,0.442993 l -0.476238,0.18275 0,1.529863 0,1.529865 0.616444,0.04643 0.616446,0.04643 0.126476,-1.010723 0.126475,-1.010722 0.05081,1.01189 0.05082,1.01189 1.111224,-0.180327 1.111225,-0.180328 0,0.699207 0,0.699201 -0.47624,0.47624 c -0.261932,0.261932 -0.47624,0.680342 -0.47624,0.929801 l 0,0.45356 1.111225,0 1.111223,0 0,1.428717 0,1.428715 0.873105,-0.04324 0.873104,-0.04324 -0.714358,-0.137596 -0.714356,-0.137582 0,-0.930398 0,-0.930392 2.679947,0 2.679951,0 0.196219,0.317489 0.196222,0.317493 2.679951,0 2.679948,0 0,0.303585 0,0.303583 -2.301822,0.09328 -2.301821,0.09328 -0.05862,0.793733 -0.05863,0.793732 0.16548,-0.577439 0.165477,-0.577436 2.750577,0.176005 c 1.512819,0.09679 3.929268,0.260375 5.369891,0.363494 l 2.619312,0.187489 0,0.293316 0,0.293314 -2.22245,0 -2.222445,0 0,0.317495 0,0.317493 9.823535,0 9.82353,0 0.19622,-0.317493 c 0.10793,-0.174621 0.4021,-0.317495 0.65372,-0.317495 l 0.45751,0 0.005,1.825585 0.005,1.825582 0.24252,0.381541 0.24252,0.381542 2.37193,0.110983 c 1.30456,0.06104 -25.559479,0.114709 -59.697867,0.119266 z M 37.136887,24.665634 c 1.120757,0 2.263729,-0.08672 2.539943,-0.192715 0.276214,-0.105996 0.502204,-0.320298 0.502204,-0.476237 l 0,-0.283525 -2.53994,0 -2.539938,0 0,0.476238 0,0.476239 2.037731,0 z m 18.155425,-11.055693 -1.619844,1.30696 1.125057,-1.078619 c 0.618779,-0.593242 1.543122,-1.435799 2.054091,-1.87235 l 0.929041,-0.793732 -0.43425,0.56539 c -0.238838,0.310966 -1.163178,1.153522 -2.054095,1.872351 z"
     style="fill:#000000;fill-opacity:1;stroke:#000000;stroke-width:0;stroke-miterlimit:4;stroke-opacity:1;stroke-dasharray:none"
     inkscape:connector-curvature="0" />
</svg>
