<?xml version="1.0" encoding="UTF-8" standalone="no"?>
<svg
   xmlns:dc="http://purl.org/dc/elements/1.1/"
   xmlns:cc="http://creativecommons.org/ns#"
   xmlns:rdf="http://www.w3.org/1999/02/22-rdf-syntax-ns#"
   xmlns:svg="http://www.w3.org/2000/svg"
   xmlns="http://www.w3.org/2000/svg"
   xmlns:sodipodi="http://sodipodi.sourceforge.net/DTD/sodipodi-0.dtd"
   xmlns:inkscape="http://www.inkscape.org/namespaces/inkscape"
   sodipodi:docname="army.svg"
   inkscape:version="1.0 (4035a4fb49, 2020-05-01)"
   id="svg838"
   version="1.1"
   viewBox="0 0 34.830078 63.781963"
   height="63.781963"
   width="34.830078">
  <defs
     id="defs832" />
  <sodipodi:namedview
     inkscape:window-maximized="0"
     inkscape:window-y="0"
     inkscape:window-x="308"
     inkscape:window-height="1040"
     inkscape:window-width="1274"
     fit-margin-bottom="0"
     fit-margin-right="0"
     fit-margin-left="0"
     fit-margin-top="0"
     units="px"
     showgrid="false"
     inkscape:document-rotation="0"
     inkscape:current-layer="svg838"
     inkscape:document-units="px"
     inkscape:cy="236.39569"
     inkscape:cx="-64.98852"
     inkscape:zoom="0.9899495"
     inkscape:pageshadow="2"
     inkscape:pageopacity="0.0"
     borderopacity="1.0"
     bordercolor="#666666"
     pagecolor="#ffffff"
     id="base" />
  <metadata
     id="metadata835">
    <rdf:RDF>
      <cc:Work
         rdf:about="">
        <dc:format>image/svg+xml</dc:format>
        <dc:type
           rdf:resource="http://purl.org/dc/dcmitype/StillImage" />
        <dc:title></dc:title>
      </cc:Work>
    </rdf:RDF>
  </metadata>
  <path
     id="shadow"
     style="display:inline;fill:#777777;fill-opacity:1;stroke:none;stroke-width:0.221694"
     d="M 18.571763,1.0114681 C 16.350887,0.8583763 14.149416,3.7958279 14.582698,5.81516 l 0.44234,4.877748 -5.320089,-0.444341 V 8.9195459 H 8.8182675 L 8.3739259,10.470738 H 8.1517553 L 7.4872444,8.697375 5.2715416,8.9195459 4.3828588,10.248567 3.4961775,9.5840564 H 3.0538373 L 2.1671562,10.248567 v 0.886682 l 0.6645105,0.444341 1.5511921,-0.444341 -0.8866813,5.542259 0.8866813,0.444342 c -0.6743084,2.832266 0.5667747,3.956321 1.9955336,6.206769 2.1698188,0.268252 3.7033666,-0.445154 5.5422596,-1.551192 l 1.108852,4.655578 c -2.382312,0.776597 -5.0955313,3.427319 -2.437874,5.76443 l -0.484372,9.088992 -1.2889905,4.877746 0.8866815,0.886683 -0.2221714,1.329023 1.9955334,1.773362 c 0,2.013657 0.657447,6.13405 -0.540415,7.759963 -1.2589619,1.709052 -3.8231481,1.67606 -4.7796737,3.546725 2.8492923,1.324631 6.0460417,-0.222168 9.0889857,-0.222168 l 0.886681,-10.418005 h 1.108852 l 0.220169,-0.222168 v -1.331022 h 0.222171 V 51.2621 l 2.217704,1.108854 c 0.377545,1.829199 0.957685,3.670927 1.088837,5.542258 0.171072,2.441085 -1.1048,6.516588 2.23772,7.44172 0.759969,0.210393 1.655955,0.09606 2.437873,0.09606 0.753988,-1.596864 -0.358253,-3.118057 -1.553193,-4.213231 l 0.666513,-7.093448 V 52.37095 l 1.993533,0.222168 0.666511,-0.66651 -1.020785,-3.324557 -0.532408,-3.546725 v -0.222167 c 1.100717,-2.451965 -0.199809,-4.67343 -0.442341,-7.093458 l 2.217705,0.886685 h 0.220169 l 0.886682,-0.222168 0.222171,-0.222167 0.222171,-1.329032 2.437874,-7.095453 -2.215703,-0.44234 v -3.326559 l -0.222172,-1.773361 -0.22217,-1.551193 0.444341,-4.655578 v -0.444342 c -1.069651,-1.739685 -2.529302,-3.78363 -4.655578,-4.211236 v -0.222172 c 3.416766,0.0023 7.537585,0.98273 10.862348,0 -1.430159,-1.018932 -3.836981,-1.003763 -5.54226,-1.128866 -2.529764,-0.185629 -4.989186,-0.6445 -7.537793,-0.6445 L 21.89832,7.3663523 22.56283,7.1441813 C 23.075389,4.7795809 21.244343,1.1957037 18.571763,1.0114681 Z M 9.704949,12.02193 h 2.215703 c -1.204004,1.877359 -3.2630128,2.260195 -3.3245551,4.877749 L 7.7094154,13.352953 8.1517553,12.466272 h 0.2221714 l 0.8866807,0.886681 v -0.886681 z m 14.631244,11.751031 h 0.444342 l 0.44234,0.664511 0.444341,1.551191 0.44234,8.424475 -0.664511,0.222171 c -0.04589,-2.223602 -0.664089,-5.622503 -2.437873,-7.093452 z"
     inkscape:label="shadow" />
  <path
     inkscape:label="body"
     d="M 16.354058,0.12478729 C 14.133183,-0.02830448 11.931711,2.9091471 12.364993,4.9284793 L 12.807333,9.8062278 7.4872441,9.3618862 V 8.0328649 H 6.6005626 L 6.1562214,9.5840572 H 5.9340504 L 5.2695399,7.8106943 3.0538372,8.0328649 2.1651542,9.3618862 1.2784729,8.6973757 H 0.83613281 l -0.88668139,0.6645105 v 0.8866818 l 0.66451068,0.444341 1.5511921,-0.444341 -0.8866813,5.542259 0.8866813,0.444342 c -0.6743082,2.832266 0.5667749,3.956322 1.9955337,6.20677 2.1698184,0.268251 3.7033659,-0.445155 5.542259,-1.551193 l 1.1088521,4.655579 c -2.3823115,0.776596 -5.0955312,3.427319 -2.4378735,5.76443 l -0.484372,9.088985 -1.2889909,4.87775 0.8866815,0.886683 -0.2221714,1.329019 1.9955335,1.773363 c 0,2.013656 0.6574473,6.134053 -0.540415,7.759966 -1.2589616,1.709052 -3.8231478,1.67606 -4.7796733,3.546725 2.8492918,1.324631 6.0460415,-0.222168 9.0889851,-0.222168 l 0.886681,-10.418005 h 1.108852 l 0.220169,-0.222168 v -1.331022 h 0.222172 v 1.995534 l 2.217703,1.10885 c 0.377546,1.829203 0.957685,3.670931 1.088837,5.542262 0.171072,2.441085 -1.1048,6.516584 2.23772,7.441716 0.759969,0.210393 1.655956,0.0961 2.437874,0.0961 0.753988,-1.596899 -0.358253,-3.118092 -1.553194,-4.213266 L 22.56283,53.257622 V 51.48426 l 1.993533,0.222167 0.666511,-0.666514 -1.020785,-3.324553 -0.532408,-3.546724 v -0.222168 c 1.100717,-2.451961 -0.199809,-4.673426 -0.442341,-7.093454 l 2.217705,0.886683 h 0.220169 l 0.886681,-0.222167 0.222172,-0.222168 0.222171,-1.329029 2.437873,-7.095453 -2.215702,-0.44234 V 25.101983 L 26.996238,23.32862 26.774067,21.777428 27.218408,17.12185 V 16.677508 C 26.148757,14.937823 24.689107,12.893878 22.56283,12.466272 V 12.2441 c 3.416766,0.0023 7.537585,0.982731 10.862348,0 -1.430159,-1.018932 -3.836981,-1.003763 -5.542259,-1.128866 -2.529764,-0.185625 -4.989187,-0.644495 -7.537794,-0.644495 l -0.66451,-3.9910678 0.66451,-0.2221706 C 20.857684,3.8929002 19.026639,0.3090229 16.354058,0.12478729 Z M 7.4872441,11.135249 H 9.7029469 C 8.4989428,13.012607 6.4399343,13.395444 6.378392,16.012998 L 5.4917105,12.466272 5.9340504,11.579591 h 0.2221714 l 0.8866811,0.886681 V 11.579591 Z M 22.118488,22.88628 h 0.444342 l 0.442341,0.664511 0.44434,1.551192 0.442341,8.424474 -0.664512,0.222171 c -0.04589,-2.223601 -0.664089,-5.622503 -2.437873,-7.093452 z"
     style="display:inline;fill:#000000;stroke:#000000;stroke-width:0;stroke-miterlimit:4;stroke-dasharray:none;stroke-opacity:1"
     id="body" />
</svg>
