<?xml version="1.0" encoding="UTF-8" standalone="no"?>
<svg
   xmlns:dc="http://purl.org/dc/elements/1.1/"
   xmlns:cc="http://creativecommons.org/ns#"
   xmlns:rdf="http://www.w3.org/1999/02/22-rdf-syntax-ns#"
   xmlns:svg="http://www.w3.org/2000/svg"
   xmlns="http://www.w3.org/2000/svg"
   xmlns:sodipodi="http://sodipodi.sourceforge.net/DTD/sodipodi-0.dtd"
   xmlns:inkscape="http://www.inkscape.org/namespaces/inkscape"
   width="34.830078"
   height="63.781963"
   viewBox="0 0 9.2154577 16.875644"
   version="1.1"
   id="svg838"
   inkscape:version="1.0 (4035a4fb49, 2020-05-01)"
   sodipodi:docname="army.svg">
  <defs
     id="defs832" />
  <sodipodi:namedview
     id="base"
     pagecolor="#ffffff"
     bordercolor="#666666"
     borderopacity="1.0"
     inkscape:pageopacity="0.0"
     inkscape:pageshadow="2"
     inkscape:zoom="3.959798"
     inkscape:cx="36.269232"
     inkscape:cy="58.285288"
     inkscape:document-units="mm"
     inkscape:current-layer="svg838"
     inkscape:document-rotation="0"
     showgrid="false"
     units="px"
     fit-margin-top="0"
     fit-margin-left="0"
     fit-margin-right="0"
     fit-margin-bottom="0"
     inkscape:window-width="1274"
     inkscape:window-height="1040"
     inkscape:window-x="308"
     inkscape:window-y="0"
     inkscape:window-maximized="0" />
  <metadata
     id="metadata835">
    <rdf:RDF>
      <cc:Work
         rdf:about="">
        <dc:format>image/svg+xml</dc:format>
        <dc:type
           rdf:resource="http://purl.org/dc/dcmitype/StillImage" />
        <dc:title />
      </cc:Work>
    </rdf:RDF>
  </metadata>
  <path
     inkscape:label="shadow"
     d="M 4.7574252,0.34944681 C 4.1840315,0.30992103 3.6156478,1.0683228 3.7275139,1.5896812 L 3.8417189,2.8490358 2.4681593,2.7343142 V 2.3911827 H 2.2392327 L 2.124511,2.791675 H 2.0671502 L 1.8955844,2.3338218 1.3235263,2.3911827 1.094083,2.7343142 0.86515644,2.5627484 H 0.75095145 L 0.52202495,2.7343142 V 2.9632408 L 0.69359065,3.0779623 1.094083,2.9632408 0.86515644,4.3941612 1.094083,4.5088829 C 0.91998764,5.2401275 1.2404149,5.5303402 1.609297,6.1113689 2.1695086,6.180627 2.5654454,5.9964373 3.0402174,5.7108765 L 3.3265048,6.9128704 C 2.711431,7.1133748 2.0109223,7.7977479 2.6970859,8.4011516 l -0.125057,2.3466284 -0.3327962,1.259354 0.2289266,0.228927 -0.057361,0.343132 0.515214,0.457853 c 0,0.519893 0.1697421,1.583711 -0.1395264,2.003495 -0.3250432,0.441249 -0.987074,0.432731 -1.2340332,0.915706 0.7356405,0.341998 1.5609888,-0.05736 2.3466269,-0.05736 l 0.2289265,-2.689758 h 0.2862874 l 0.056844,-0.05736 v -0.343648 h 0.057361 v 0.515214 l 0.5725747,0.286288 c 0.097476,0.472269 0.2472584,0.947773 0.2811198,1.43092 0.044168,0.630248 -0.2852412,1.682476 0.5777426,1.92133 0.1962115,0.05432 0.4275404,0.0248 0.6294188,0.0248 0.1946674,-0.412284 -0.092495,-0.805031 -0.4010089,-1.087787 L 6.3604281,14.067474 V 13.609621 L 6.8751255,13.666981 7.0472079,13.494899 6.783658,12.636553 6.6461988,11.720847 v -0.05736 C 6.9303859,11.03043 6.5946114,10.456884 6.5319938,9.8320726 L 7.1045687,10.061 h 0.056844 L 7.3903394,10.00364 7.4477004,9.94628 7.5050614,9.6031459 8.1344803,7.7712164 7.5624223,7.6570114 V 6.7981486 L 7.5050611,6.3402957 7.4477003,5.9398033 7.562422,4.7378094 V 4.6230877 C 7.2862555,4.1739294 6.9093978,3.6462164 6.3604281,3.5358155 v -0.057361 c 0.8821529,5.821e-4 1.9460808,0.2537248 2.8044799,0 C 8.7956645,3.2153829 8.1742625,3.2192993 7.7339876,3.1869997 7.0808441,3.1390744 6.4458616,3.0206016 5.7878531,3.0206016 L 5.6162875,1.9901736 5.7878531,1.9328127 C 5.9201874,1.3223117 5.4474415,0.39701342 4.7574252,0.34944681 Z M 2.4681593,3.1921673 H 3.0402174 C 2.7293633,3.6768705 2.1977611,3.7757125 2.1818719,4.4515221 L 1.9529453,3.5358155 2.0671502,3.3068891 h 0.057361 L 2.3534376,3.5358155 V 3.3068891 Z m 3.7775471,3.0339233 h 0.1147217 l 0.114205,0.1715659 0.1147215,0.4004921 0.114205,2.175061 -0.1715658,0.057361 C 6.5201457,8.4564731 6.3605369,7.5789325 5.9025749,7.1991578 Z"
     style="display:inline;fill:#777777;fill-opacity:1;stroke:none;stroke-width:0.0572378"
     id="shadow" />
  <path
     id="body"
     style="display:inline;fill:#000000;stroke:#000000;stroke-width:0;stroke-opacity:1;stroke-miterlimit:4;stroke-dasharray:none"
     d="M 4.1848502,0.12052039 C 3.6114566,0.08099461 3.0430728,0.83939638 3.1549389,1.3607548 L 3.269144,2.6201094 1.8955843,2.5053877 V 2.1622562 H 1.6666577 L 1.5519361,2.5627486 H 1.4945752 L 1.3230095,2.1048954 0.75095143,2.1622562 0.52150807,2.5053877 0.2925815,2.333822 H 0.17837656 L -0.05055002,2.5053877 V 2.7343143 L 0.12101573,2.8490359 0.52150807,2.7343143 0.2925815,4.1652347 0.52150807,4.2799565 C 0.34741277,5.011201 0.66784003,5.3014138 1.0367221,5.8824425 1.5969336,5.9517006 1.9928704,5.7675109 2.4676424,5.4819501 L 2.7539298,6.683944 C 2.1388561,6.8844484 1.4383473,7.5688215 2.1245109,8.1722252 l -0.1250569,2.3466268 -0.3327963,1.259355 0.2289266,0.228927 -0.057361,0.343131 0.515214,0.457853 c 0,0.519893 0.1697421,1.583712 -0.1395263,2.003496 C 1.8888678,15.252863 1.226837,15.244345 0.97987784,15.72732 1.7155182,16.069318 2.5408665,15.66996 3.3265046,15.66996 l 0.2289265,-2.689758 h 0.2862874 l 0.056844,-0.05736 v -0.343648 h 0.057361 v 0.515214 l 0.5725747,0.286287 c 0.097476,0.47227 0.2472584,0.947774 0.2811198,1.430921 0.044168,0.630248 -0.2852412,1.682475 0.5777426,1.921329 0.1962115,0.05432 0.4275405,0.02481 0.6294189,0.02481 0.1946673,-0.412293 -0.092495,-0.80504 -0.401009,-1.087796 L 5.7878532,13.838546 V 13.380693 L 6.3025506,13.438053 6.4746329,13.26597 6.211083,12.407625 6.0736238,11.491919 v -0.05736 C 6.3578109,10.801503 6.0220364,10.227957 5.9594188,9.6031455 l 0.572575,0.2289271 h 0.056844 l 0.2289265,-0.05736 0.057361,-0.05736 0.057361,-0.3431335 0.6294188,-1.8319295 -0.572058,-0.114205 V 6.5692222 L 6.9324862,6.1113692 6.8751253,5.7108768 6.989847,4.508883 V 4.3941612 C 6.7136805,3.945003 6.3368228,3.41729 5.7878532,3.3068891 v -0.057361 c 0.8821528,5.821e-4 1.9460807,0.2537249 2.8044798,0 C 8.2230895,2.9864565 7.6016875,2.9903728 7.1614127,2.9580733 6.5082691,2.910148 5.8732866,2.7916752 5.2152782,2.7916752 L 5.0437125,1.7612471 5.2152782,1.7038863 C 5.3476124,1.0933853 4.8748666,0.168087 4.1848502,0.12052039 Z M 1.8955843,2.9632409 H 2.4676424 C 2.1567883,3.447944 1.6251861,3.546786 1.6092969,4.2225956 L 1.3803703,3.3068891 1.4945752,3.0779626 h 0.057361 L 1.7808627,3.3068891 V 3.0779626 Z m 3.7775471,3.0339233 h 0.1147218 l 0.114205,0.1715659 0.1147215,0.4004921 0.114205,2.175061 -0.1715659,0.057361 C 5.9475707,8.2275467 5.7879619,7.350006 5.3299999,6.9702313 Z"
     inkscape:label="body" />
</svg>
