<?xml version="1.0" encoding="UTF-8" standalone="no"?>
<!-- Created with Inkscape (http://www.inkscape.org/) -->

<svg
   xmlns:dc="http://purl.org/dc/elements/1.1/"
   xmlns:cc="http://creativecommons.org/ns#"
   xmlns:rdf="http://www.w3.org/1999/02/22-rdf-syntax-ns#"
   xmlns:svg="http://www.w3.org/2000/svg"
   xmlns="http://www.w3.org/2000/svg"
   xmlns:sodipodi="http://sodipodi.sourceforge.net/DTD/sodipodi-0.dtd"
   xmlns:inkscape="http://www.inkscape.org/namespaces/inkscape"
   id="svg2"
   version="1.1"
   inkscape:version="0.92.5 (2060ec1f9f, 2020-04-08)"
   width="63.78196"
   height="90"
   sodipodi:docname="army.svg">
  <metadata
     id="metadata8">
    <rdf:RDF>
      <cc:Work
         rdf:about="">
        <dc:format>image/svg+xml</dc:format>
        <dc:type
           rdf:resource="http://purl.org/dc/dcmitype/StillImage" />
        <dc:title></dc:title>
      </cc:Work>
    </rdf:RDF>
  </metadata>
  <defs
     id="defs6">
    <inkscape:perspective
       sodipodi:type="inkscape:persp3d"
       inkscape:vp_x="0 : 0.5 : 1"
       inkscape:vp_y="0 : 1000 : 0"
       inkscape:vp_z="1 : 0.5 : 1"
       inkscape:persp3d-origin="0.5 : 0.33333333 : 1"
       id="perspective10" />
  </defs>
  <sodipodi:namedview
     pagecolor="#ffffff"
     bordercolor="#666666"
     borderopacity="1"
     objecttolerance="10"
     gridtolerance="10"
     guidetolerance="10"
     inkscape:pageopacity="0"
     inkscape:pageshadow="2"
     inkscape:window-width="1920"
     inkscape:window-height="1121"
     id="namedview4"
     showgrid="false"
     inkscape:zoom="10.042553"
     inkscape:cx="33.16918"
     inkscape:cy="52.204409"
     inkscape:window-x="-9"
     inkscape:window-y="-9"
     inkscape:window-maximized="1"
     inkscape:current-layer="svg2"
     fit-margin-top="0"
     fit-margin-left="0"
     fit-margin-right="0"
     fit-margin-bottom="0" />
  <path
     id="shadow"
     style="display:inline;fill:#777777;fill-opacity:1;stroke:none;stroke-width:0.16729383"
     d="m 35.508563,1.0745242 c -1.675908,-0.11552596 -3.337173,2.101122 -3.010212,3.624942 l 0.333797,3.680826 -4.014624,-0.335307 v -1.0029 H 28.14842 l -0.335308,1.170554 h -0.167653 l -0.501451,-1.338207 -1.672004,0.167653 -0.670615,1.0029 -0.669104,-0.501449 h -0.333796 l -0.669104,0.501449 v 0.669105 l 0.50145,0.335307 1.170554,-0.335307 -0.669104,4.1822758 0.669104,0.335307 c -0.508843,2.137273 0.427698,2.985503 1.505862,4.683727 1.63738,0.202427 2.794619,-0.335921 4.182278,-1.170554 l 0.836758,3.513173 c -1.797731,0.586032 -3.84517,2.58631 -1.83966,4.349931 l -0.365514,6.858697 -0.972693,3.680826 0.669104,0.669105 -0.167654,1.002902 1.505861,1.338207 c 0,1.519537 0.49612,4.628851 -0.407806,5.855792 -0.950032,1.289677 -2.885008,1.264781 -3.606818,2.676415 2.150122,0.999588 4.56244,-0.167652 6.858693,-0.167652 l 0.669104,-7.861592 h 0.836758 l 0.166143,-0.167652 v -1.004411 h 0.167654 v 1.505863 l 1.673515,0.836758 c 0.2849,1.380344 0.722684,2.77014 0.821654,4.182276 0.129093,1.842083 -0.8337,4.917522 1.688618,5.615641 0.573486,0.158767 1.249611,0.07249 1.839658,0.07249 0.568971,-1.20502 -0.270343,-2.352936 -1.172064,-3.179372 l 0.502962,-5.352828 v -1.338209 l 1.504351,0.167652 0.50296,-0.502959 -0.7703,-2.508763 -0.401764,-2.676416 v -0.16765 c 0.830618,-1.850292 -0.150779,-3.526646 -0.333798,-5.352838 l 1.673516,0.669108 h 0.166143 l 0.669104,-0.167653 0.167654,-0.16765 0.167653,-1.002908 1.83966,-5.354342 -1.672005,-0.333797 v -2.510275 l -0.167655,-1.338207 -0.167653,-1.170554 0.335307,-3.513174 v -0.335308 c -0.807176,-1.312794 -1.908651,-2.855187 -3.513173,-3.177865 v -0.167655 c 2.578345,0.0017 5.687981,0.741585 8.1969,0 -1.07922,-0.7689018 -2.895447,-0.7574548 -4.182277,-0.8518598 -1.909,-0.140078 -3.764919,-0.48635 -5.68814,-0.48635 l -0.501449,-3.011721 0.501449,-0.167655 c 0.386786,-1.784365 -0.99495,-4.488815 -3.011722,-4.627842 z m -6.691039,8.30867 h 1.672005 c -0.908561,1.4166838 -2.462321,1.7055788 -2.508762,3.6808248 l -0.669104,-2.676414 0.333796,-0.6691038 h 0.167654 l 0.669103,0.6691038 V 9.7185012 Z m 11.040969,8.8675128 h 0.335309 l 0.333796,0.501451 0.335308,1.170553 0.333796,6.357243 -0.501451,0.167654 c -0.03462,-1.677965 -0.501132,-4.24283 -1.839657,-5.352832 z"
     inkscape:connector-curvature="0" />
  <path
     d="M 33.835048,0.40542024 C 32.15914,0.28989424 30.497874,2.5065422 30.824835,4.0303622 l 0.333797,3.680827 -4.014624,-0.335307 v -1.002901 h -0.669104 l -0.335307,1.170555 h -0.167653 l -0.501451,-1.338208 -1.672004,0.167653 -0.670615,1.002901 -0.669104,-0.50145 h -0.333796 l -0.669104,0.50145 v 0.669104 l 0.50145,0.335307 1.170554,-0.335307 -0.669104,4.1822758 0.669104,0.335307 c -0.508843,2.137273 0.427698,2.985504 1.505862,4.683727 1.63738,0.202427 2.794619,-0.335921 4.182277,-1.170554 l 0.836758,3.513174 c -1.79773,0.586031 -3.84517,2.586309 -1.839659,4.349931 l -0.365515,6.858693 -0.972693,3.680828 0.669104,0.669105 -0.167653,1.002898 1.505861,1.338208 c 0,1.519538 0.49612,4.628854 -0.407806,5.855795 -0.950032,1.289677 -2.885009,1.264781 -3.606817,2.676415 2.150121,0.999588 4.562438,-0.167652 6.858692,-0.167652 l 0.669104,-7.861593 h 0.836758 l 0.166142,-0.167651 v -1.004411 h 0.167655 v 1.505863 l 1.673514,0.836755 c 0.284903,1.380346 0.722685,2.770143 0.821654,4.182279 0.129093,1.842083 -0.833701,4.917519 1.688619,5.615638 0.573484,0.158766 1.249611,0.07252 1.839658,0.07252 0.568971,-1.205045 -0.270343,-2.352961 -1.172064,-3.179397 l 0.50296,-5.352836 v -1.338207 l 1.504353,0.16765 0.502959,-0.502962 -0.7703,-2.508761 -0.401763,-2.676413 v -0.167653 c 0.830618,-1.850288 -0.150779,-3.526641 -0.333798,-5.352832 l 1.673515,0.669105 h 0.166143 l 0.669104,-0.167651 0.167655,-0.167652 0.167653,-1.002906 1.839659,-5.354342 -1.672005,-0.333797 v -2.51027 L 41.865806,17.915405 41.698153,16.74485 42.03346,13.231677 V 12.89637 C 41.226284,11.583577 40.124809,10.041184 38.520285,9.7185052 v -0.167654 c 2.578347,0.0017 5.687983,0.7415838 8.196902,0 -1.07922,-0.768902 -2.895448,-0.757455 -4.182277,-0.85186 -1.909,-0.140076 -3.76492,-0.486347 -5.688139,-0.486347 L 36.34532,5.2009212 36.846771,5.0332682 C 37.233556,3.2489032 35.85182,0.54445224 33.835048,0.40542424 Z m -6.69104,8.30866996 h 1.672005 c -0.908561,1.4166838 -2.462321,1.7055788 -2.508762,3.6808248 l -0.669104,-2.6764138 0.333797,-0.669104 h 0.167653 l 0.669104,0.669104 v -0.669104 z m 11.04097,8.8675128 h 0.335307 l 0.333798,0.501451 0.335306,1.170554 0.333798,6.357242 -0.501451,0.167654 c -0.03462,-1.677965 -0.501132,-4.24283 -1.839658,-5.352831 z"
     style="display:inline;fill:#000000;stroke:#000000;stroke-width:0;stroke-miterlimit:4;stroke-dasharray:none;stroke-opacity:1"
     id="body"
     inkscape:connector-curvature="0" />
</svg>
