<?xml version="1.0" encoding="UTF-8" standalone="no"?>
<svg
   xmlns:dc="http://purl.org/dc/elements/1.1/"
   xmlns:cc="http://creativecommons.org/ns#"
   xmlns:rdf="http://www.w3.org/1999/02/22-rdf-syntax-ns#"
   xmlns:svg="http://www.w3.org/2000/svg"
   xmlns="http://www.w3.org/2000/svg"
   xmlns:sodipodi="http://sodipodi.sourceforge.net/DTD/sodipodi-0.dtd"
   xmlns:inkscape="http://www.inkscape.org/namespaces/inkscape"
   width="124.3913"
   height="31.297779"
   viewBox="0 0 124.3913 31.297779"
   version="1.1"
   id="svg1458"
   inkscape:version="1.0 (4035a4fb49, 2020-05-01)"
   sodipodi:docname="fleet.svg">
  <defs
     id="defs1452" />
  <sodipodi:namedview
     id="base"
     pagecolor="#ffffff"
     bordercolor="#666666"
     borderopacity="1.0"
     inkscape:pageopacity="0.0"
     inkscape:pageshadow="2"
     inkscape:zoom="5.6568543"
     inkscape:cx="22.844029"
     inkscape:cy="9.4380292"
     inkscape:document-units="px"
     inkscape:current-layer="svg1458"
     inkscape:document-rotation="0"
     showgrid="false"
     units="px"
     fit-margin-top="0"
     fit-margin-left="0"
     fit-margin-right="0"
     fit-margin-bottom="0"
     inkscape:window-width="1920"
     inkscape:window-height="1017"
     inkscape:window-x="-8"
     inkscape:window-y="-8"
     inkscape:window-maximized="1" />
  <metadata
     id="metadata1455">
    <rdf:RDF>
      <cc:Work
         rdf:about="">
        <dc:format>image/svg+xml</dc:format>
        <dc:type
           rdf:resource="http://purl.org/dc/dcmitype/StillImage" />
        <dc:title></dc:title>
      </cc:Work>
    </rdf:RDF>
  </metadata>
  <path
     inkscape:label="shadow"
     d="m 62.082081,1.8772151 c 0,0 0.05311,0.8435025 0.07239,1.278629 0.0057,0.134181 0.04005,0.1874687 0.05227,0.2311988 -0.02443,0.1571459 -0.03207,0.2713415 -0.0985,0.5347726 -0.264694,1.0496857 -1.428511,0.4305117 -2.213479,1.1499616 -0.70695,0.6478761 -3.116156,0.8041691 -3.116156,0.8041691 L 49.649642,7.253086 c 0,0 -1.802373,0.3376383 -1.779225,0.4241993 0.06949,0.259742 1.194191,0.04423 1.194191,0.04423 l 0.291496,-0.096501 4.101261,2.1471316 c 3.789131,1.9148021 2.188361,1.0760421 4.802901,2.6477281 0.02596,0.581448 0.08445,-0.86287 0.08445,1.375128 0,1.536744 0.327574,3.368185 -0.615191,4.686297 -1.121503,1.568034 -2.746394,2.78527 -4.509378,3.552417 -0.175699,-0.03833 -0.354949,-0.05787 -0.534775,-0.0583 -0.690434,2.63e-4 -1.350988,0.281904 -1.829484,0.780043 -0.321809,0.124066 -0.579161,0.136001 -0.908709,0.388013 l 0.977053,-0.755919 -0.195017,-0.488534 -1.757108,1.145941 -0.309592,-0.004 c -0.464034,-0.742935 -1.277739,-1.194237 -2.153172,-1.194203 -0.973972,1.13e-4 -1.86205,0.557797 -2.285851,1.435442 l -0.890616,-0.01409 1.04944,-0.979075 v -0.293523 l -0.0985,-0.0965 -1.598284,1.363067 -0.392032,0.01409 c -0.189862,-0.390167 -0.476417,-0.725157 -0.832328,-0.973056 l 0.09048,-0.209083 c -0.116064,0.0045 -0.216665,0.03352 -0.311616,0.07036 -0.375985,-0.208204 -0.798651,-0.317499 -1.228365,-0.317648 -1.016745,5.46e-4 -1.935125,0.608055 -2.334101,1.544005 l -0.279469,-0.219135 0.930826,-0.882575 -0.195017,-0.195013 h -0.197041 c -0.496256,0.705345 -1.185674,0.994763 -2.102871,1.033359 -0.173179,-0.361691 -0.429474,-0.677218 -0.747878,-0.920774 0.369113,-0.502969 0.44998,-0.586065 0.34781,-0.657407 -0.09591,-0.06697 -0.33773,0.241412 -0.552868,0.516678 -0.40108,-0.248269 -0.863323,-0.379841 -1.334919,-0.379971 -0.996364,1.95e-4 -1.900525,0.583576 -2.311995,1.491735 -3.168634,-0.288106 -5.034777,-0.535528 -7.450627,-2.157184 -1.519851,-1.598061 -1.487621,-3.66134 -1.218316,-5.663362 0.162397,-1.207087 0.837859,-2.885714 -0.448325,-3.737376 -0.99198,-0.656858 -2.53474,0.0061 -2.85078,1.099701 -0.26891,0.93046 0.288269,1.754852 1.290692,1.562099 l 0.09851,-0.390023 -0.587043,-0.293521 c 0.02555,-1.188052 1.666844,-2.08379 2.052642,-0.585033 0.269384,1.046566 -0.551516,2.068935 -0.962993,2.929186 -0.268217,0.560482 -0.387531,1.344767 -0.558898,1.952121 -1.205587,4.272958 -1.411686,8.261523 3.960534,7.894931 -0.744938,1.574822 -1.915594,1.754501 -3.405657,2.655769 -0.43452,0.825001 -1.318447,1.858186 -1.172076,2.832685 0.925381,0.211493 2.088891,0.271827 2.927176,-0.291511 1.07103,-1.765599 3.081611,-3.492959 3.701189,-4.611909 l 3.126208,0.293522 c -0.623468,1.333248 -4.333243,1.642007 -3.417719,3.580562 1.985612,-0.204485 2.6329,-2.346099 4.197763,-3.313177 0.600127,-0.370858 1.492867,-0.124149 2.149142,-0.07238 l -2.149142,1.85562 c -0.612823,0.873435 -1.671771,0.939079 -1.463589,2.116976 1.7126,0.366556 2.574439,-1.490399 3.266937,-2.605509 0.281211,-0.452877 0.705263,-0.786851 0.930828,-1.270587 l 2.344153,-0.0965 c -1.167158,1.166469 -3.632307,2.049469 -2.539167,3.972597 2.026041,-0.563126 1.843019,-2.516134 3.23075,-3.648918 0.631475,-0.515369 2.140959,-0.227179 2.921142,-0.227179 -1.150159,1.140692 -3.645078,2.149249 -2.637671,4.071106 1.558612,-0.541052 2.605785,-2.586326 3.222705,-3.972596 h 3.0277 c -0.842194,1.105345 -3.646869,2.065178 -2.734177,3.777585 1.973502,-0.468993 2.03542,-2.386283 3.433804,-3.550407 0.674826,-0.561948 2.457124,-0.227179 3.303126,-0.227179 -0.976943,1.117938 -3.081403,1.955344 -2.440655,3.679074 0.960836,-0.318698 1.814051,-0.712142 2.201414,-1.628442 0.2285,-0.540272 0.296306,-1.21989 0.741845,-1.638495 0.662811,-0.622488 2.528355,-0.412137 3.403643,-0.412137 l -1.073562,1.073569 c -0.694553,0.98993 -2.251085,1.484455 -1.562103,2.800519 1.524928,-0.518399 2.585811,-2.413478 3.220702,-3.777585 l 4.298283,-0.0965 c -1.173018,1.173015 -2.777697,2.019868 -2.931199,3.777585 l 0.587046,0.19501 c 0.78995,-0.626981 1.454544,-0.58498 1.867681,-1.531942 0.322001,-0.738104 0.350024,-1.78786 1.065526,-2.285851 0.979382,-0.681562 3.238256,-0.253312 4.390764,-0.253312 -0.990023,1.228182 -3.59364,2.558915 -2.832686,4.362618 2.292509,-0.17284 2.22339,-2.916998 3.467978,-4.141471 0.782242,-0.76964 3.149371,-0.263999 4.147504,-0.221147 -0.807429,1.623061 -3.527388,1.985724 -2.732165,4.167607 1.917558,-0.212298 2.726235,-2.709761 3.415707,-4.167607 h 4.004764 c -1.081705,1.603138 -3.342228,2.041268 -2.929186,4.266117 1.815323,-0.04365 2.257873,-1.459458 2.826653,-2.800519 0.217734,-0.51342 0.588447,-0.943587 0.786076,-1.465598 l 3.807743,0.09851 c -1.262158,1.159048 -3.952903,2.224299 -2.929187,4.264109 1.230523,-0.515858 2.186627,-1.25481 2.80052,-2.408487 0.310814,-0.584311 0.412721,-1.310572 1.009231,-1.698807 0.621414,-0.40425 1.843285,-0.14805 2.537155,-0.06031 -0.654618,1.516825 -3.372084,2.525603 -2.440654,4.461128 2.423943,-0.219887 2.00044,-2.899794 3.258895,-4.250034 0.695042,-0.745815 2.66258,-0.229924 3.576543,-0.211094 -0.740543,1.716412 -2.789486,2.264766 -2.247653,4.364628 1.520537,-0.165135 1.74055,-1.648303 2.195382,-2.80052 0.213802,-0.541443 0.573233,-1.000986 0.735813,-1.564108 9.909507,-0.383169 19.495833,-0.227936 15.91451,-11.30863 l 0.488533,-0.392034 c -0.244513,-0.641243 -0.533928,-1.380704 -0.914742,-1.952121 -0.378967,-0.568783 -0.867954,-0.930907 -0.842367,-1.660608 0.952429,-0.168239 2.365329,0.979621 2.14914,-0.780045 1.419179,-0.225663 0.116217,-1.4423688 -0.587041,-1.6606093 L 98.478778,8.5216628 98.673795,7.838119 97.795239,8.1296296 97.598198,7.7396077 h -0.195017 c -0.862701,0.7868248 -2.073095,0.9982244 -2.412509,2.2456425 -0.453461,1.6663208 0.191581,3.0205378 0.581013,4.5897958 0.102243,0.411966 -0.04482,0.871834 0.126639,1.264555 0.190894,0.437452 0.706603,0.568133 0.7901,1.079598 0.271757,1.666709 -2.893001,4.589796 -2.893001,4.589796 l -0.293519,0.29151 c 0,0 -3.57531,1.822684 -5.076315,0.878555 l 0.39002,-1.367087 -0.858451,0.95495 c -0.433135,-0.314586 -0.954517,-0.484161 -1.489688,-0.48451 -0.513208,-3.4e-5 -1.014381,0.155575 -1.437452,0.446314 l 0.269389,-0.719732 -0.486524,-0.09851 -1.270588,1.75711 c -0.405512,0 -0.76652,0.0113 -1.091658,-0.01004 C 82.02626,22.691424 81.665031,22.304951 81.215276,22.0498 l 0.0764,-0.540805 c -0.298978,0.07423 -0.46942,0.188768 -0.613178,0.313624 -0.232357,-0.06885 -0.47338,-0.104052 -0.715712,-0.104541 -0.885222,2.5e-4 -1.706415,0.461885 -2.167233,1.218317 -0.250186,0.0058 -0.484356,0.02115 -0.76195,0.0221 l 0.683542,-1.158004 -0.488532,0.09851 c -0.223499,0.581028 -0.59619,0.930001 -1.172079,1.09166 -0.07605,0.02134 -1.174961,0.06205 -1.252491,0.07238 -0.400813,-0.751413 -1.15113,-1.251875 -1.99836,-1.332911 1.91e-4,-0.07799 0.01222,-0.165471 0.05227,-0.277438 l -0.227164,-0.03218 c -0.07132,0.130438 -0.14947,0.22616 -0.233197,0.303571 -0.849024,0.0559 -1.613636,0.533692 -2.036558,1.272599 l -2.478852,0.05227 c -0.05857,-0.11485 -0.125761,-0.225068 -0.20105,-0.329709 l 0.526731,-0.52673 v -0.293522 l -0.195018,-0.19501 h -0.195017 l -0.293519,0.19501 -0.233196,0.388011 C 67.058249,22.081743 66.789768,21.920943 66.498979,21.812569 77.081322,20.615468 81.368721,14.417507 81.185119,11.864996 81.028532,8.4347781 78.164383,5.7770214 75.720789,3.5237515 75.421188,3.2474803 74.939032,3.0321686 74.647227,2.9387184 l 1.855617,-0.4885328 c 0,0 0.104763,-0.022319 0.430234,-0.2834694 0,0 -0.385656,-0.1196009 -3.067906,0.4503348 C 70.91472,3.229482 67.75591,3.493718 64.882602,4.4023067 64.220172,3.6771938 63.194414,4.8873318 62.896302,3.9218155 62.820174,3.675202 62.786156,3.5145752 62.769663,3.3870429 h 0.122631 c 0.02902,-0.4075501 0.0032,-0.062759 0.02825,-0.4081158 l 0.06636,0.066344 0.17692,-0.044229 -0.02214,-0.1326879 0.04425,0.04423 0.154815,-0.088459 -0.02214,-0.1085626 0.130687,0.022113 0.04623,-0.044229 v -0.199032 h 0.152792 L 63.736778,2.339612 63.648318,2.273268 V 2.229039 l 0.154815,-0.042219 0.06636,-0.2653757 -1.674684,0.022113 z m 2.506998,2.5250913 -1.757108,0.2935226 0.0985,-0.090469 z M 62.049916,4.7038695 V 4.8908389 L 60.097794,5.2808612 Z M 59.42028,12.850105 c 1.470588,2.597786 0.500013,3.39769 0.390024,3.783615 h -0.0985 c 0,-1.395291 -0.03906,-1.631783 -0.02482,-1.787008 0.01833,-0.200679 0.06254,-0.22314 -0.266717,-1.996607 z m 9.467083,5.23112 c 0.954195,-0.08875 0.743857,0.06634 0.743857,0.06634 -0.276033,0.81368 -1.034505,1.416997 -1.660611,1.968204 -0.799034,0.703449 -1.468469,1.192568 -2.217496,1.541994 h -0.002 c -0.04486,-0.0025 -0.08976,-0.0039 -0.134694,-0.004 -0.906175,1.37e-4 -1.743589,0.483587 -2.197394,1.268577 l -1.069546,0.02413 c 0.147561,-0.380887 0.483569,-0.563162 0.880568,-0.663439 l 0.09652,-0.4825 -0.392032,-0.0965 c -0.364569,0.71377 -0.872554,1.055975 -1.658599,1.172077 -0.2566,-0.321371 -0.535179,-0.546218 -0.870511,-0.703649 -0.156266,-0.09824 -0.322764,-0.179135 -0.496577,-0.241252 v -2.472835 c 3.204586,-1.226474 5.877165,-1.126619 8.978531,-1.37714 z m -10.639158,2.060683 v 1.658599 c -0.529857,0.153013 -0.527589,0.195525 -0.504617,0.347805 -0.280614,0.169778 -0.5257,0.392341 -0.72174,0.655397 l -2.191362,0.03417 -0.215099,0.02814 c -0.0092,-0.0108 -0.01871,-0.02153 -0.02825,-0.03218 l 0.536783,-0.446314 -0.0985,-0.392033 h -0.488533 l -0.267366,0.536784 c -0.197766,-0.157858 -0.417997,-0.28525 -0.653389,-0.377959 l 0.530755,-0.06031 c 0.558105,-1.020022 3.002745,-1.691807 4.101257,-1.952129 z"
     style="display:inline;fill:#000000;fill-opacity:0.47;stroke:none;stroke-width:0.0976454"
     id="shadow"
     sodipodi:nodetypes="cccsccccccccsccccccccccccccccccccccccccccscccccscccccccccccccccccccccccccccccccccccccccccccccccccccccccccccccccccccccccccccscccccccccccccccccccccsccccccccccccccccscccccccccccccccccccccccccccccccccccccsccccscccccccccccccccccccccccccccc" />
  <path
     sodipodi:nodetypes="cccsccccccccsccccccccccccccccccccccccccccscccccscccccccccccccccccccccccccccccccccccccccccccccccccccccccccccccccccccccccccccscccccccccccccccccccccsccccccccccccccccscccccccccccccccccccccccccccccccccccccsccccscccccccccccccccccccccccccccc"
     id="hull"
     style="display:inline;fill:#4fffff;fill-opacity:1;stroke:#000000;stroke-width:0.771755;stroke-miterlimit:4;stroke-dasharray:none;stroke-opacity:1"
     d="m 61.176575,0.7013071 c 0,0 0.05311,0.8435025 0.07239,1.278629 0.0057,0.134181 0.04005,0.1874688 0.05227,0.2311988 -0.02443,0.157146 -0.03207,0.2713415 -0.0985,0.5347725 C 60.938041,3.7955934 59.774224,3.176419 58.989256,3.8958695 58.282306,4.5437452 55.8731,4.7000382 55.8731,4.7000382 l -7.128958,1.3771399 c 0,0 -1.802373,0.3376383 -1.779225,0.4241992 0.06949,0.2597421 1.194192,0.04423 1.194192,0.04423 l 0.291495,-0.096501 4.101262,2.1471316 c 3.78913,1.9148021 2.188361,1.0760421 4.802901,2.6477281 0.02596,0.581448 0.08445,-0.86287 0.08445,1.375128 0,1.536744 0.327575,3.368185 -0.615191,4.686297 -1.121503,1.568034 -2.746394,2.78527 -4.509378,3.552417 -0.175699,-0.03833 -0.354948,-0.05787 -0.534774,-0.0583 -0.690434,2.63e-4 -1.350989,0.281904 -1.829484,0.780043 -0.321809,0.124066 -0.579161,0.136001 -0.90871,0.388013 l 0.977054,-0.755919 -0.195018,-0.488534 -1.757108,1.145941 -0.309592,-0.004 c -0.464033,-0.742935 -1.277738,-1.194237 -2.153171,-1.194203 -0.973973,1.13e-4 -1.862051,0.557797 -2.285851,1.435442 l -0.890617,-0.01409 1.049441,-0.979075 v -0.293523 l -0.0985,-0.0965 -1.598285,1.363067 -0.392031,0.01409 c -0.189864,-0.390156 -0.476419,-0.725146 -0.832329,-0.973045 l 0.09048,-0.209083 c -0.116063,0.0045 -0.216664,0.03352 -0.311615,0.07036 -0.375985,-0.208204 -0.798652,-0.317499 -1.228366,-0.317648 -1.016744,5.46e-4 -1.935124,0.608055 -2.334101,1.544005 l -0.279469,-0.219135 0.930827,-0.882575 -0.195018,-0.195013 H 37.03137 c -0.496256,0.705345 -1.185674,0.994763 -2.102871,1.033359 -0.173179,-0.361691 -0.429473,-0.677218 -0.747876,-0.920774 0.369112,-0.502969 0.449978,-0.586065 0.347808,-0.657407 -0.09591,-0.06697 -0.337728,0.241412 -0.552865,0.516678 -0.40108,-0.248269 -0.863323,-0.379841 -1.334919,-0.379971 -0.996365,1.95e-4 -1.900526,0.583576 -2.311996,1.491735 -3.168639,-0.288113 -5.034781,-0.535535 -7.450631,-2.157191 -1.519852,-1.598061 -1.487621,-3.66134 -1.218317,-5.663362 0.162398,-1.207087 0.837859,-2.885714 -0.448324,-3.737376 -0.99198,-0.6568585 -2.534741,0.0061 -2.85078,1.099701 -0.26891,0.93046 0.288269,1.754852 1.290691,1.562099 l 0.09851,-0.390023 -0.587043,-0.293521 c 0.02555,-1.188052 1.666844,-2.08379 2.052643,-0.585033 0.269384,1.046566 -0.551517,2.068935 -0.962993,2.929186 -0.268218,0.560482 -0.387532,1.344767 -0.558898,1.952121 -1.205587,4.272958 -1.411686,8.261523 3.960534,7.894931 -0.744938,1.574822 -1.915595,1.754501 -3.405657,2.655769 -0.434521,0.825001 -1.318447,1.858186 -1.172077,2.832685 0.925381,0.211493 2.088892,0.271827 2.927176,-0.291511 1.071031,-1.765599 3.081612,-3.492959 3.70119,-4.611909 l 3.126207,0.293522 c -0.623467,1.333248 -4.333242,1.642007 -3.417718,3.580562 1.985612,-0.204485 2.6329,-2.346099 4.197763,-3.313177 0.600126,-0.370858 1.492867,-0.124148 2.149141,-0.07238 l -2.149141,1.85562 c -0.612823,0.873435 -1.671772,0.939079 -1.463588,2.116976 1.7126,0.366556 2.574438,-1.490399 3.266937,-2.605509 0.28121,-0.452877 0.705264,-0.786851 0.930827,-1.270587 l 2.344152,-0.0965 c -1.167155,1.166469 -3.632305,2.049469 -2.539164,3.972597 2.026039,-0.563126 1.843017,-2.516134 3.230747,-3.648918 0.631474,-0.515369 2.140958,-0.227179 2.921143,-0.227179 -1.15016,1.140692 -3.645078,2.149249 -2.637673,4.071106 1.558613,-0.541052 2.605786,-2.586326 3.222706,-3.972596 h 3.0277 c -0.842195,1.105345 -3.646869,2.065178 -2.734177,3.777585 1.973502,-0.468993 2.03542,-2.386283 3.433804,-3.550407 0.674826,-0.561948 2.457124,-0.227179 3.303125,-0.227179 -0.976943,1.117938 -3.081402,1.955344 -2.440654,3.679074 0.960835,-0.318698 1.814052,-0.712142 2.201414,-1.628442 0.228501,-0.540272 0.296306,-1.21989 0.741845,-1.638495 0.662812,-0.622488 2.528355,-0.412137 3.403643,-0.412137 l -1.073562,1.073569 c -0.694553,0.98993 -2.251085,1.484455 -1.562102,2.800519 1.524927,-0.518399 2.58581,-2.413478 3.220701,-3.777585 l 4.298284,-0.0965 c -1.173018,1.173015 -2.777697,2.019868 -2.931199,3.777585 l 0.587045,0.19501 c 0.789951,-0.626981 1.454545,-0.58498 1.867682,-1.531942 0.322,-0.738104 0.350024,-1.78786 1.065525,-2.285851 0.979383,-0.681562 3.238256,-0.253312 4.390764,-0.253312 -0.990023,1.228182 -3.593639,2.558915 -2.832686,4.362618 2.292509,-0.17284 2.22339,-2.916998 3.467978,-4.141471 0.782243,-0.76964 3.149372,-0.263999 4.147504,-0.221147 -0.807429,1.623061 -3.527388,1.985724 -2.732165,4.167607 1.917559,-0.212298 2.726236,-2.709761 3.415707,-4.167607 h 4.004765 c -1.081705,1.603138 -3.342228,2.041268 -2.929187,4.266117 1.815323,-0.04365 2.257873,-1.459458 2.826653,-2.800519 0.217734,-0.51342 0.588446,-0.943587 0.786075,-1.465598 l 3.807743,0.09851 c -1.262158,1.159048 -3.952902,2.224299 -2.929187,4.264109 1.230523,-0.515858 2.186628,-1.25481 2.800521,-2.408487 0.310814,-0.584311 0.41272,-1.310572 1.00923,-1.698807 0.621414,-0.40425 1.843287,-0.14805 2.537155,-0.06031 -0.654618,1.516825 -3.372084,2.525603 -2.440654,4.461128 2.423944,-0.219887 2.000441,-2.899794 3.258895,-4.250034 0.695042,-0.745815 2.662582,-0.229924 3.576544,-0.211094 -0.740544,1.716412 -2.789486,2.264766 -2.247653,4.364628 1.520538,-0.165135 1.74055,-1.648303 2.195382,-2.80052 0.213802,-0.541443 0.573232,-1.000986 0.735813,-1.564108 9.909506,-0.383169 19.495835,-0.227936 15.91451,-11.30863 l 0.488532,-0.392034 c -0.244512,-0.641243 -0.533927,-1.380704 -0.914742,-1.952121 -0.378967,-0.568783 -0.867953,-0.930907 -0.842366,-1.660608 0.952428,-0.168239 2.365327,0.979621 2.14914,-0.7800447 1.419181,-0.2256636 0.116216,-1.4423691 -0.587041,-1.6606096 L 97.573271,7.3457548 97.768289,6.662211 96.889733,6.9537216 96.692692,6.5636997 h -0.195018 c -0.8627,0.7868248 -2.073095,0.9982244 -2.412508,2.2456425 -0.453462,1.6663208 0.191581,3.0205378 0.581013,4.5897958 0.102243,0.411966 -0.04482,0.871834 0.126639,1.264555 0.190894,0.437452 0.706602,0.568133 0.790099,1.079598 0.271757,1.666709 -2.893001,4.589796 -2.893001,4.589796 l -0.293519,0.29151 c 0,0 -3.57531,1.822684 -5.076314,0.878555 l 0.39002,-1.367087 -0.858451,0.95495 c -0.433135,-0.314586 -0.954517,-0.484161 -1.489689,-0.48451 -0.513207,-3.4e-5 -1.014381,0.155575 -1.437452,0.446314 l 0.26939,-0.719732 -0.486524,-0.09851 -1.270588,1.75711 c -0.405513,0 -0.76652,0.0113 -1.091659,-0.01004 -0.224377,-0.466131 -0.585606,-0.852604 -1.03536,-1.107755 l 0.0764,-0.540805 c -0.298979,0.07423 -0.46942,0.188768 -0.613179,0.313624 -0.232356,-0.06885 -0.473379,-0.104052 -0.715712,-0.104541 -0.885222,2.5e-4 -1.706414,0.461885 -2.167232,1.218317 -0.250186,0.0058 -0.484356,0.02115 -0.761951,0.0221 l 0.683543,-1.158004 -0.488533,0.09851 c -0.223499,0.581028 -0.596189,0.930001 -1.172078,1.09166 -0.07605,0.02134 -1.174962,0.06205 -1.252491,0.07238 -0.400813,-0.751413 -1.15113,-1.251875 -1.998361,-1.332911 1.91e-4,-0.07799 0.01222,-0.165471 0.05227,-0.277438 l -0.227164,-0.03218 c -0.07132,0.130438 -0.14947,0.22616 -0.233196,0.303571 -0.849025,0.0559 -1.613636,0.533692 -2.036558,1.272599 l -2.478852,0.05227 c -0.05857,-0.11485 -0.125761,-0.225068 -0.20105,-0.329709 l 0.52673,-0.52673 v -0.293522 l -0.195017,-0.19501 h -0.195018 l -0.293518,0.19501 -0.233197,0.388011 C 66.152743,20.905835 65.884262,20.745035 65.593473,20.636661 76.175816,19.43956 80.463215,13.241599 80.279613,10.689088 80.123026,7.2588701 77.258877,4.6011135 74.815283,2.3478435 74.515682,2.0715723 74.033525,1.8562606 73.741721,1.7628104 l 1.855617,-0.4885328 c 0,0 0.104763,-0.022319 0.430233,-0.2834694 0,0 -0.385656,-0.11960091 -3.067905,0.4503348 C 70.009213,2.053574 66.850404,2.31781 63.977095,3.2263986 63.314666,2.5012858 62.288908,3.7114241 61.990796,2.7459074 61.914667,2.4992943 61.88065,2.3386672 61.864157,2.2111349 h 0.12263 c 0.02902,-0.4075501 0.0032,-0.062759 0.02825,-0.4081158 l 0.06636,0.066344 0.176921,-0.044229 -0.02214,-0.1326878 0.04425,0.044229 0.154815,-0.088459 -0.02214,-0.1085627 0.130686,0.022113 0.04623,-0.044229 V 1.3185056 H 62.74281 L 62.83127,1.163703 62.74281,1.097359 V 1.05313 l 0.154815,-0.042219 0.06636,-0.26537571 -1.674684,0.0221132 z m 2.506998,2.5250913 -1.757108,0.2935215 0.0985,-0.090469 z m -2.539164,0.3015635 v 0.1869694 l -1.952121,0.3900219 z m -2.629635,8.1462341 c 1.470587,2.597787 0.500013,3.397691 0.390023,3.783616 h -0.0985 c 0,-1.395291 -0.03906,-1.631783 -0.02482,-1.787008 0.01832,-0.200679 0.06254,-0.22314 -0.266718,-1.996608 z m 9.467082,5.23112 c 0.954196,-0.08875 0.743857,0.06634 0.743857,0.06634 -0.276033,0.813679 -1.034505,1.416997 -1.660611,1.968204 -0.799033,0.703449 -1.468468,1.192567 -2.217495,1.541994 h -0.002 c -0.04486,-0.0025 -0.08976,-0.0039 -0.134695,-0.004 -0.906174,1.38e-4 -1.743589,0.483588 -2.197394,1.268577 l -1.069545,0.02413 c 0.147561,-0.380887 0.483569,-0.563161 0.880568,-0.663439 l 0.09652,-0.482499 -0.392032,-0.0965 c -0.36457,0.71377 -0.872554,1.055975 -1.658599,1.172077 -0.2566,-0.321371 -0.53518,-0.546218 -0.870512,-0.703649 -0.156266,-0.09824 -0.322764,-0.179135 -0.496577,-0.241252 v -2.472835 c 3.204586,-1.226474 5.877166,-1.126619 8.978531,-1.377141 z M 57.342699,18.966 v 1.658599 c -0.529857,0.153013 -0.52759,0.195525 -0.504617,0.347805 -0.280615,0.169778 -0.5257,0.39234 -0.721741,0.655396 l -2.191361,0.03417 -0.2151,0.02814 c -0.0092,-0.0108 -0.01871,-0.02153 -0.02825,-0.03218 l 0.536783,-0.446313 -0.0985,-0.392033 h -0.488532 l -0.267367,0.536784 c -0.197766,-0.157858 -0.417997,-0.28525 -0.653388,-0.377959 l 0.530754,-0.06031 c 0.55811,-1.020014 3.00275,-1.691799 4.101262,-1.952121 z"
     inkscape:label="hull" />
</svg>
