<?xml version="1.0" encoding="UTF-8" standalone="no"?>
<!-- Created with Inkscape (http://www.inkscape.org/) -->

<svg
   id="svg2"
   version="1.1"
   inkscape:version="1.3.2 (091e20e, 2023-11-25, custom)"
   width="64"
   height="126.79156"
   sodipodi:docname="army.svg"
   xml:space="preserve"
   xmlns:inkscape="http://www.inkscape.org/namespaces/inkscape"
   xmlns:sodipodi="http://sodipodi.sourceforge.net/DTD/sodipodi-0.dtd"
   xmlns="http://www.w3.org/2000/svg"
   xmlns:svg="http://www.w3.org/2000/svg"
   xmlns:rdf="http://www.w3.org/1999/02/22-rdf-syntax-ns#"
   xmlns:cc="http://creativecommons.org/ns#"
   xmlns:dc="http://purl.org/dc/elements/1.1/"><metadata
     id="metadata8"><rdf:RDF><cc:Work
         rdf:about=""><dc:format>image/svg+xml</dc:format><dc:type
           rdf:resource="http://purl.org/dc/dcmitype/StillImage" /></cc:Work></rdf:RDF></metadata><defs
     id="defs6"><inkscape:path-effect
       effect="fillet_chamfer"
       id="path-effect2"
       is_visible="true"
       lpeversion="1"
       nodesatellites_param="F,0,0,1,0,0,0,1 @ F,0,0,1,0,0,0,1 @ F,0,0,1,0,0,0,1 @ F,0,0,1,0,0,0,1 @ F,0,0,1,0,0,0,1 @ F,0,0,1,0,0,0,1 @ F,0,0,1,0,0,0,1 @ F,0,0,1,0,0,0,1 @ F,0,0,1,0,0,0,1 @ F,0,0,1,0,0,0,1 @ F,0,0,1,0,0,0,1 @ F,0,0,1,0,0,0,1 @ F,0,0,1,0,0,0,1 @ F,0,0,1,0,0,0,1 @ F,0,0,1,0,0,0,1 @ F,0,0,1,0,0,0,1 @ F,0,0,1,0,0,0,1 @ F,0,0,1,0,0,0,1 @ F,0,0,1,0,0,0,1 @ F,0,0,1,0,0,0,1 @ F,0,0,1,0,0,0,1 @ F,0,0,1,0,0,0,1 @ F,0,0,1,0,0,0,1 @ F,0,0,1,0,0,0,1 @ F,0,0,1,0,0,0,1 @ F,0,0,1,0,0,0,1 @ F,0,0,1,0,0,0,1 @ F,0,0,1,0,0,0,1 @ F,0,0,1,0,0,0,1 @ F,0,0,1,0,0,0,1 @ F,0,0,1,0,0,0,1 @ F,0,0,1,0,0,0,1 @ F,0,0,1,0,0,0,1 @ F,0,0,1,0,0,0,1 @ F,0,0,1,0,0,0,1 @ F,0,0,1,0,0,0,1 @ F,0,0,1,0,0,0,1 @ F,0,0,1,0,0,0,1 @ F,0,0,1,0,0,0,1 @ F,0,0,1,0,0,0,1 @ F,0,0,1,0,0,0,1 @ F,0,0,1,0,0,0,1 @ F,0,0,1,0,0,0,1 @ F,0,0,1,0,0,0,1 @ F,0,0,1,0,0,0,1 @ F,0,0,1,0,0,0,1 @ F,0,0,1,0,0,0,1 @ F,0,0,1,0,0,0,1 @ F,0,0,1,0,0,0,1 @ F,0,0,1,0,0,0,1 @ F,0,0,1,0,0,0,1 @ F,0,0,1,0,0,0,1 @ F,0,0,1,0,0,0,1 @ F,0,0,1,0,0,0,1 @ F,0,0,1,0,0,0,1 @ F,0,0,1,0,0,0,1 @ F,0,0,1,0,0,0,1 @ F,0,0,1,0,0,0,1 @ F,0,0,1,0,0,0,1 @ F,0,0,1,0,0,0,1 @ F,0,0,1,0,0,0,1 @ F,0,0,1,0,0,0,1 @ F,0,0,1,0,0,0,1 @ F,0,0,1,0,0,0,1 @ F,0,0,1,0,0,0,1 @ F,0,0,1,0,0,0,1 @ F,0,0,1,0,0,0,1 @ F,0,0,1,0,0,0,1 @ F,0,0,1,0,0,0,1 @ F,0,0,1,0,0,0,1 @ F,0,0,1,0,0,0,1 @ F,0,0,1,0,0,0,1 @ F,0,0,1,0,0,0,1 @ F,0,0,1,0,0,0,1 @ F,0,0,1,0,0,0,1 @ F,0,0,1,0,0,0,1 @ F,0,0,1,0,0,0,1 @ F,0,0,1,0,0,0,1 @ F,0,0,1,0,0,0,1 @ F,0,0,1,0,0,0,1 @ F,0,0,1,0,0,0,1 @ F,0,0,1,0,0,0,1 @ F,0,0,1,0,0,0,1 @ F,0,0,1,0,0,0,1 @ F,0,0,1,0,0,0,1 @ F,0,0,1,0,0,0,1 @ F,0,0,1,0,0,0,1 @ F,0,0,1,0,0,0,1 @ F,0,0,1,0,0,0,1 @ F,0,0,1,0,0,0,1 @ F,0,0,1,0,0,0,1 @ F,0,0,1,0,0,0,1 @ F,0,0,1,0,0,0,1 @ F,0,0,1,0,0,0,1 @ F,0,0,1,0,0,0,1 @ F,0,0,1,0,0,0,1 @ F,0,0,1,0,0,0,1 @ F,0,0,1,0,0,0,1 @ F,0,0,1,0,0,0,1 @ F,0,0,1,0,0,0,1 @ F,0,0,1,0,0,0,1 @ F,0,0,1,0,0,0,1 @ F,0,0,1,0,0,0,1 @ F,0,0,1,0,0,0,1 @ F,0,0,1,0,0,0,1 @ F,0,0,1,0,0,0,1 @ F,0,0,1,0,0,0,1 @ F,0,0,1,0,0,0,1 @ F,0,0,1,0,0,0,1 @ F,0,0,1,0,0,0,1 @ F,0,0,1,0,0,0,1 @ F,0,0,1,0,0,0,1 @ F,0,0,1,0,0,0,1 @ F,0,0,1,0,0,0,1 @ F,0,0,1,0,0,0,1 @ F,0,0,1,0,0,0,1 @ F,0,0,1,0,0,0,1 @ F,0,0,1,0,0,0,1 @ F,0,0,1,0,0,0,1 @ F,0,0,1,0,0,0,1 @ F,0,0,1,0,0,0,1 @ F,0,0,1,0,0,0,1 @ F,0,0,1,0,0,0,1 @ F,0,0,1,0,0,0,1 @ F,0,0,1,0,0,0,1 @ F,0,0,1,0,0,0,1 @ F,0,0,1,0,0,0,1 @ F,0,0,1,0,0,0,1 @ F,0,0,1,0,0,0,1 @ F,0,0,1,0,0,0,1 @ F,0,0,1,0,0,0,1 @ F,0,0,1,0,0,0,1 @ F,0,0,1,0,0,0,1 @ F,0,0,1,0,0,0,1 @ F,0,0,1,0,0,0,1 @ F,0,0,1,0,0,0,1 @ F,0,0,1,0,0,0,1 @ F,0,0,1,0,0,0,1 @ F,0,0,1,0,0,0,1 @ F,0,0,1,0,0,0,1 @ F,0,0,1,0,0,0,1 @ F,0,0,1,0,0,0,1 @ F,0,0,1,0,0,0,1 @ F,0,0,1,0,0,0,1 @ F,0,0,1,0,0,0,1 @ F,0,0,1,0,0,0,1 @ F,0,0,1,0,0,0,1 @ F,0,0,1,0,0,0,1 @ F,0,0,1,0,0,0,1 @ F,0,0,1,0,0,0,1 @ F,0,0,1,0,0,0,1 @ F,0,0,1,0,0,0,1 @ F,0,0,1,0,0,0,1 @ F,0,0,1,0,0,0,1 @ F,0,0,1,0,0,0,1 @ F,0,0,1,0,0,0,1 @ F,0,0,1,0,0,0,1 @ F,0,0,1,0,0,0,1 @ F,0,0,1,0,0,0,1 @ F,0,0,1,0,0,0,1 @ F,0,0,1,0,0,0,1 @ F,0,0,1,0,0,0,1 @ F,0,0,1,0,0,0,1 @ F,0,0,1,0,0,0,1 @ F,0,0,1,0,0,0,1 @ F,0,0,1,0,0,0,1 @ F,0,0,1,0,0,0,1 @ F,0,0,1,0,0,0,1 @ F,0,0,1,0,0,0,1 @ F,0,0,1,0,0,0,1 @ F,0,0,1,0,0,0,1 @ F,0,0,1,0,0,0,1 @ F,0,0,1,0,0,0,1 @ F,0,0,1,0,0,0,1 @ F,0,0,1,0,0,0,1 @ F,0,0,1,0,0,0,1 @ F,0,0,1,0,0,0,1 @ F,0,0,1,0,0,0,1 @ F,0,0,1,0,0,0,1 @ F,0,0,1,0,0,0,1 @ F,0,0,1,0,0,0,1 @ F,0,0,1,0,0,0,1 @ F,0,0,1,0,0,0,1 @ F,0,0,1,0,0,0,1 @ F,0,0,1,0,0,0,1 @ F,0,0,1,0,0,0,1 @ F,0,0,1,0,0,0,1 @ F,0,0,1,0,0,0,1 @ F,0,0,1,0,0,0,1 @ F,0,0,1,0,0,0,1 @ F,0,0,1,0,0,0,1 @ F,0,0,1,0,0,0,1 @ F,0,0,1,0,0,0,1 @ F,0,0,1,0,0,0,1 @ F,0,0,1,0,0,0,1 @ F,0,0,1,0,0,0,1 @ F,0,0,1,0,0,0,1 @ F,0,0,1,0,0,0,1 @ F,0,0,1,0,0,0,1 @ F,0,0,1,0,0,0,1 @ F,0,0,1,0,0,0,1 @ F,0,0,1,0,0,0,1 @ F,0,0,1,0,0,0,1 @ F,0,0,1,0,0.21613107,0,1 @ F,0,0,1,0,0.10567316,0,1 @ F,0,0,1,0,0,0,1 @ F,0,0,1,0,0,0,1 @ F,0,0,1,0,0,0,1 @ F,0,0,1,0,0,0,1 @ F,0,0,1,0,0,0,1 @ F,0,0,1,0,0,0,1 @ F,0,0,1,0,0,0,1 @ F,0,0,1,0,0,0,1 @ F,0,0,1,0,0,0,1 @ F,0,0,1,0,0,0,1 @ F,0,0,1,0,0,0,1 @ F,0,0,1,0,0,0,1 @ F,0,0,1,0,0,0,1 @ F,0,0,1,0,0,0,1 @ F,0,0,1,0,0,0,1 @ F,0,0,1,0,0,0,1 @ F,0,0,1,0,0,0,1 @ F,0,0,1,0,0,0,1 @ F,0,0,1,0,0.29387704,0,1 @ F,0,0,1,0,0,0,1 @ F,0,0,1,0,0,0,1 @ F,0,0,1,0,0,0,1 @ F,0,0,1,0,0,0,1 @ F,0,0,1,0,0,0,1 @ F,0,0,1,0,0,0,1 @ F,0,0,1,0,0,0,1 @ F,0,0,1,0,0,0,1 @ F,0,0,1,0,0,0,1 @ F,0,0,1,0,0,0,1 @ F,0,0,1,0,0,0,1 @ F,0,0,1,0,0,0,1 @ F,0,0,1,0,0,0,1 @ F,0,0,1,0,0,0,1 @ F,0,0,1,0,0,0,1 @ F,0,0,1,0,0,0,1 @ F,0,0,1,0,0,0,1 @ F,0,0,1,0,0,0,1 @ F,0,0,1,0,0,0,1 @ F,0,0,1,0,0,0,1 @ F,0,0,1,0,0,0,1 @ F,0,0,1,0,0,0,1 @ F,0,0,1,0,0,0,1 @ F,0,0,1,0,0,0,1 @ F,0,0,1,0,0,0,1 @ F,0,0,1,0,0,0,1 @ F,0,0,1,0,0,0,1 @ F,0,0,1,0,0,0,1 @ F,0,0,1,0,0,0,1 @ F,0,0,1,0,0,0,1 @ F,0,0,1,0,0,0,1 @ F,0,0,1,0,0,0,1 @ F,0,0,1,0,0,0,1 @ F,0,0,1,0,0,0,1 @ F,0,0,1,0,0,0,1 @ F,0,0,1,0,0,0,1 @ F,0,0,1,0,0,0,1 @ F,0,0,1,0,0,0,1 @ F,0,0,1,0,0,0,1 @ F,0,0,1,0,0,0,1 @ F,0,0,1,0,0,0,1 @ F,0,0,1,0,0,0,1 @ F,0,0,1,0,0,0,1 @ F,0,0,1,0,0,0,1 @ F,0,0,1,0,0,0,1 @ F,0,0,1,0,0,0,1 @ F,0,0,1,0,0,0,1 @ F,0,0,1,0,0,0,1 @ F,0,0,1,0,0,0,1 @ F,0,0,1,0,0,0,1 @ F,0,0,1,0,0,0,1 @ F,0,0,1,0,0,0,1 @ F,0,0,1,0,0,0,1 @ F,0,0,1,0,0,0,1 @ F,0,0,1,0,0,0,1 @ F,0,0,1,0,0,0,1 @ F,0,0,1,0,0,0,1 @ F,0,0,1,0,0,0,1 @ F,0,0,1,0,0,0,1 @ F,0,0,1,0,0,0,1 @ F,0,0,1,0,0,0,1 @ F,0,0,1,0,0,0,1 @ F,0,0,1,0,0,0,1 @ F,0,0,1,0,0,0,1 @ F,0,0,1,0,0,0,1 @ F,0,0,1,0,0,0,1 @ F,0,0,1,0,0,0,1 @ F,0,0,1,0,0,0,1 @ F,0,0,1,0,0,0,1 @ F,0,0,1,0,0,0,1 @ F,0,0,1,0,0,0,1 @ F,0,0,1,0,0,0,1"
       radius="0"
       unit="px"
       method="auto"
       mode="F"
       chamfer_steps="1"
       flexible="false"
       use_knot_distance="true"
       apply_no_radius="true"
       apply_with_radius="true"
       only_selected="false"
       hide_knots="false" /><inkscape:perspective
       sodipodi:type="inkscape:persp3d"
       inkscape:vp_x="0 : 93.321709 : 1"
       inkscape:vp_y="0 : 1000 : 0"
       inkscape:vp_z="1 : 93.321709 : 1"
       inkscape:persp3d-origin="0.5 : 93.155042 : 1"
       id="perspective10" /><inkscape:path-effect
       effect="fillet_chamfer"
       id="path-effect2-1"
       is_visible="true"
       lpeversion="1"
       nodesatellites_param="F,0,0,1,0,0,0,1 @ F,0,0,1,0,0,0,1 @ F,0,0,1,0,0,0,1 @ F,0,0,1,0,0,0,1 @ F,0,0,1,0,0,0,1 @ F,0,0,1,0,0,0,1 @ F,0,0,1,0,0,0,1 @ F,0,0,1,0,0,0,1 @ F,0,0,1,0,0,0,1 @ F,0,0,1,0,0,0,1 @ F,0,0,1,0,0,0,1 @ F,0,0,1,0,0,0,1 @ F,0,0,1,0,0,0,1 @ F,0,0,1,0,0,0,1 @ F,0,0,1,0,0,0,1 @ F,0,0,1,0,0,0,1 @ F,0,0,1,0,0,0,1 @ F,0,0,1,0,0,0,1 @ F,0,0,1,0,0,0,1 @ F,0,0,1,0,0,0,1 @ F,0,0,1,0,0,0,1 @ F,0,0,1,0,0,0,1 @ F,0,0,1,0,0,0,1 @ F,0,0,1,0,0,0,1 @ F,0,0,1,0,0,0,1 @ F,0,0,1,0,0,0,1 @ F,0,0,1,0,0,0,1 @ F,0,0,1,0,0,0,1 @ F,0,0,1,0,0,0,1 @ F,0,0,1,0,0,0,1 @ F,0,0,1,0,0,0,1 @ F,0,0,1,0,0,0,1 @ F,0,0,1,0,0,0,1 @ F,0,0,1,0,0,0,1 @ F,0,0,1,0,0,0,1 @ F,0,0,1,0,0,0,1 @ F,0,0,1,0,0,0,1 @ F,0,0,1,0,0,0,1 @ F,0,0,1,0,0,0,1 @ F,0,0,1,0,0,0,1 @ F,0,0,1,0,0,0,1 @ F,0,0,1,0,0,0,1 @ F,0,0,1,0,0,0,1 @ F,0,0,1,0,0,0,1 @ F,0,0,1,0,0,0,1 @ F,0,0,1,0,0,0,1 @ F,0,0,1,0,0,0,1 @ F,0,0,1,0,0,0,1 @ F,0,0,1,0,0,0,1 @ F,0,0,1,0,0,0,1 @ F,0,0,1,0,0,0,1 @ F,0,0,1,0,0,0,1 @ F,0,0,1,0,0,0,1 @ F,0,0,1,0,0,0,1 @ F,0,0,1,0,0,0,1 @ F,0,0,1,0,0,0,1 @ F,0,0,1,0,0,0,1 @ F,0,0,1,0,0,0,1 @ F,0,0,1,0,0,0,1 @ F,0,0,1,0,0,0,1 @ F,0,0,1,0,0,0,1 @ F,0,0,1,0,0,0,1 @ F,0,0,1,0,0,0,1 @ F,0,0,1,0,0,0,1 @ F,0,0,1,0,0,0,1 @ F,0,0,1,0,0,0,1 @ F,0,0,1,0,0,0,1 @ F,0,0,1,0,0,0,1 @ F,0,0,1,0,0,0,1 @ F,0,0,1,0,0,0,1 @ F,0,0,1,0,0,0,1 @ F,0,0,1,0,0,0,1 @ F,0,0,1,0,0,0,1 @ F,0,0,1,0,0,0,1 @ F,0,0,1,0,0,0,1 @ F,0,0,1,0,0,0,1 @ F,0,0,1,0,0,0,1 @ F,0,0,1,0,0,0,1 @ F,0,0,1,0,0,0,1 @ F,0,0,1,0,0,0,1 @ F,0,0,1,0,0,0,1 @ F,0,0,1,0,0,0,1 @ F,0,0,1,0,0,0,1 @ F,0,0,1,0,0,0,1 @ F,0,0,1,0,0,0,1 @ F,0,0,1,0,0,0,1 @ F,0,0,1,0,0,0,1 @ F,0,0,1,0,0,0,1 @ F,0,0,1,0,0,0,1 @ F,0,0,1,0,0,0,1 @ F,0,0,1,0,0,0,1 @ F,0,0,1,0,0,0,1 @ F,0,0,1,0,0,0,1 @ F,0,0,1,0,0,0,1 @ F,0,0,1,0,0,0,1 @ F,0,0,1,0,0,0,1 @ F,0,0,1,0,0,0,1 @ F,0,0,1,0,0,0,1 @ F,0,0,1,0,0,0,1 @ F,0,0,1,0,0,0,1 @ F,0,0,1,0,0,0,1 @ F,0,0,1,0,0,0,1 @ F,0,0,1,0,0,0,1 @ F,0,0,1,0,0,0,1 @ F,0,0,1,0,0,0,1 @ F,0,0,1,0,0,0,1 @ F,0,0,1,0,0,0,1 @ F,0,0,1,0,0,0,1 @ F,0,0,1,0,0,0,1 @ F,0,0,1,0,0,0,1 @ F,0,0,1,0,0,0,1 @ F,0,0,1,0,0,0,1 @ F,0,0,1,0,0,0,1 @ F,0,0,1,0,0,0,1 @ F,0,0,1,0,0,0,1 @ F,0,0,1,0,0,0,1 @ F,0,0,1,0,0,0,1 @ F,0,0,1,0,0,0,1 @ F,0,0,1,0,0,0,1 @ F,0,0,1,0,0,0,1 @ F,0,0,1,0,0,0,1 @ F,0,0,1,0,0,0,1 @ F,0,0,1,0,0,0,1 @ F,0,0,1,0,0,0,1 @ F,0,0,1,0,0,0,1 @ F,0,0,1,0,0,0,1 @ F,0,0,1,0,0,0,1 @ F,0,0,1,0,0,0,1 @ F,0,0,1,0,0,0,1 @ F,0,0,1,0,0,0,1 @ F,0,0,1,0,0,0,1 @ F,0,0,1,0,0,0,1 @ F,0,0,1,0,0,0,1 @ F,0,0,1,0,0,0,1 @ F,0,0,1,0,0,0,1 @ F,0,0,1,0,0,0,1 @ F,0,0,1,0,0,0,1 @ F,0,0,1,0,0,0,1 @ F,0,0,1,0,0,0,1 @ F,0,0,1,0,0,0,1 @ F,0,0,1,0,0,0,1 @ F,0,0,1,0,0,0,1 @ F,0,0,1,0,0,0,1 @ F,0,0,1,0,0,0,1 @ F,0,0,1,0,0,0,1 @ F,0,0,1,0,0,0,1 @ F,0,0,1,0,0,0,1 @ F,0,0,1,0,0,0,1 @ F,0,0,1,0,0,0,1 @ F,0,0,1,0,0,0,1 @ F,0,0,1,0,0,0,1 @ F,0,0,1,0,0,0,1 @ F,0,0,1,0,0,0,1 @ F,0,0,1,0,0,0,1 @ F,0,0,1,0,0,0,1 @ F,0,0,1,0,0,0,1 @ F,0,0,1,0,0,0,1 @ F,0,0,1,0,0,0,1 @ F,0,0,1,0,0,0,1 @ F,0,0,1,0,0,0,1 @ F,0,0,1,0,0,0,1 @ F,0,0,1,0,0,0,1 @ F,0,0,1,0,0,0,1 @ F,0,0,1,0,0,0,1 @ F,0,0,1,0,0,0,1 @ F,0,0,1,0,0,0,1 @ F,0,0,1,0,0,0,1 @ F,0,0,1,0,0,0,1 @ F,0,0,1,0,0,0,1 @ F,0,0,1,0,0,0,1 @ F,0,0,1,0,0,0,1 @ F,0,0,1,0,0,0,1 @ F,0,0,1,0,0,0,1 @ F,0,0,1,0,0,0,1 @ F,0,0,1,0,0,0,1 @ F,0,0,1,0,0,0,1 @ F,0,0,1,0,0,0,1 @ F,0,0,1,0,0,0,1 @ F,0,0,1,0,0,0,1 @ F,0,0,1,0,0,0,1 @ F,0,0,1,0,0,0,1 @ F,0,0,1,0,0,0,1 @ F,0,0,1,0,0,0,1 @ F,0,0,1,0,0,0,1 @ F,0,0,1,0,0,0,1 @ F,0,0,1,0,0,0,1 @ F,0,0,1,0,0,0,1 @ F,0,0,1,0,0,0,1 @ F,0,0,1,0,0,0,1 @ F,0,0,1,0,0,0,1 @ F,0,0,1,0,0,0,1 @ F,0,0,1,0,0,0,1 @ F,0,0,1,0,0,0,1 @ F,0,0,1,0,0,0,1 @ F,0,0,1,0,0,0,1 @ F,0,0,1,0,0,0,1 @ F,0,0,1,0,0,0,1 @ F,0,0,1,0,0,0,1 @ F,0,0,1,0,0,0,1 @ F,0,0,1,0,0,0,1 @ F,0,0,1,0,0,0,1 @ F,0,0,1,0,0,0,1 @ F,0,0,1,0,0,0,1 @ F,0,0,1,0,0.21613107,0,1 @ F,0,0,1,0,0.10567316,0,1 @ F,0,0,1,0,0,0,1 @ F,0,0,1,0,0,0,1 @ F,0,0,1,0,0,0,1 @ F,0,0,1,0,0,0,1 @ F,0,0,1,0,0,0,1 @ F,0,0,1,0,0,0,1 @ F,0,0,1,0,0,0,1 @ F,0,0,1,0,0,0,1 @ F,0,0,1,0,0,0,1 @ F,0,0,1,0,0,0,1 @ F,0,0,1,0,0,0,1 @ F,0,0,1,0,0,0,1 @ F,0,0,1,0,0,0,1 @ F,0,0,1,0,0,0,1 @ F,0,0,1,0,0,0,1 @ F,0,0,1,0,0,0,1 @ F,0,0,1,0,0,0,1 @ F,0,0,1,0,0,0,1 @ F,0,0,1,0,0.29387704,0,1 @ F,0,0,1,0,0,0,1 @ F,0,0,1,0,0,0,1 @ F,0,0,1,0,0,0,1 @ F,0,0,1,0,0,0,1 @ F,0,0,1,0,0,0,1 @ F,0,0,1,0,0,0,1 @ F,0,0,1,0,0,0,1 @ F,0,0,1,0,0,0,1 @ F,0,0,1,0,0,0,1 @ F,0,0,1,0,0,0,1 @ F,0,0,1,0,0,0,1 @ F,0,0,1,0,0,0,1 @ F,0,0,1,0,0,0,1 @ F,0,0,1,0,0,0,1 @ F,0,0,1,0,0,0,1 @ F,0,0,1,0,0,0,1 @ F,0,0,1,0,0,0,1 @ F,0,0,1,0,0,0,1 @ F,0,0,1,0,0,0,1 @ F,0,0,1,0,0,0,1 @ F,0,0,1,0,0,0,1 @ F,0,0,1,0,0,0,1 @ F,0,0,1,0,0,0,1 @ F,0,0,1,0,0,0,1 @ F,0,0,1,0,0,0,1 @ F,0,0,1,0,0,0,1 @ F,0,0,1,0,0,0,1 @ F,0,0,1,0,0,0,1 @ F,0,0,1,0,0,0,1 @ F,0,0,1,0,0,0,1 @ F,0,0,1,0,0,0,1 @ F,0,0,1,0,0,0,1 @ F,0,0,1,0,0,0,1 @ F,0,0,1,0,0,0,1 @ F,0,0,1,0,0,0,1 @ F,0,0,1,0,0,0,1 @ F,0,0,1,0,0,0,1 @ F,0,0,1,0,0,0,1 @ F,0,0,1,0,0,0,1 @ F,0,0,1,0,0,0,1 @ F,0,0,1,0,0,0,1 @ F,0,0,1,0,0,0,1 @ F,0,0,1,0,0,0,1 @ F,0,0,1,0,0,0,1 @ F,0,0,1,0,0,0,1 @ F,0,0,1,0,0,0,1 @ F,0,0,1,0,0,0,1 @ F,0,0,1,0,0,0,1 @ F,0,0,1,0,0,0,1 @ F,0,0,1,0,0,0,1 @ F,0,0,1,0,0,0,1 @ F,0,0,1,0,0,0,1 @ F,0,0,1,0,0,0,1 @ F,0,0,1,0,0,0,1 @ F,0,0,1,0,0,0,1 @ F,0,0,1,0,0,0,1 @ F,0,0,1,0,0,0,1 @ F,0,0,1,0,0,0,1 @ F,0,0,1,0,0,0,1 @ F,0,0,1,0,0,0,1 @ F,0,0,1,0,0,0,1 @ F,0,0,1,0,0,0,1 @ F,0,0,1,0,0,0,1 @ F,0,0,1,0,0,0,1 @ F,0,0,1,0,0,0,1 @ F,0,0,1,0,0,0,1 @ F,0,0,1,0,0,0,1 @ F,0,0,1,0,0,0,1 @ F,0,0,1,0,0,0,1 @ F,0,0,1,0,0,0,1 @ F,0,0,1,0,0,0,1 @ F,0,0,1,0,0,0,1"
       radius="0"
       unit="px"
       method="auto"
       mode="F"
       chamfer_steps="1"
       flexible="false"
       use_knot_distance="true"
       apply_no_radius="true"
       apply_with_radius="true"
       only_selected="false"
       hide_knots="false" /></defs><sodipodi:namedview
     pagecolor="#ffffff"
     bordercolor="#666666"
     borderopacity="1"
     objecttolerance="10"
     gridtolerance="10"
     guidetolerance="10"
     inkscape:pageopacity="0"
     inkscape:pageshadow="2"
     inkscape:window-width="2560"
     inkscape:window-height="1369"
     id="namedview4"
     showgrid="false"
     inkscape:zoom="4"
     inkscape:cx="77.875"
     inkscape:cy="59.625"
     inkscape:window-x="-8"
     inkscape:window-y="-8"
     inkscape:window-maximized="1"
     inkscape:current-layer="svg2"
     fit-margin-top="0"
     fit-margin-left="0"
     fit-margin-right="0"
     fit-margin-bottom="0"
     inkscape:pagecheckerboard="0"
     width="34px"
     inkscape:showpageshadow="2"
     inkscape:deskcolor="#d1d1d1" /><path
     id="shadow"
     style="fill:#060707;fill-opacity:0.53;stroke:none;stroke-width:0.131727"
     d="m 39.593056,-16.143385 c -0.281851,-0.0064 -0.620953,-0.01933 -0.828125,0.171875 -0.163504,0.150907 -0.0026,0.516895 -0.1875,0.640625 -0.121899,0.08156 -0.290855,-0.04945 -0.4375,-0.04687 -0.257759,0.0045 -0.529481,0.006 -0.765625,0.109375 -0.166159,0.07277 -0.45707,0.1658 -0.421875,0.34375 0.05595,0.282867 0.641714,0.03001 0.828125,0.25 0.105246,0.124202 0.168632,0.360929 0.0625,0.484375 -0.152833,0.177766 -0.470136,-0.01034 -0.703125,0.01563 -0.417227,0.04652 -0.859999,0.06004 -1.234375,0.25 -0.213704,0.108434 -0.611923,0.258722 -0.53125,0.484375 0.06672,0.186623 0.402386,-0.02032 0.59375,0.03125 0.220415,0.0594 0.435563,0.164514 0.609375,0.3125 0.167359,0.142491 0.4757,0.32858 0.390625,0.53125 -0.07127,0.16979 -0.368275,0.03329 -0.546875,0.07813 -0.338794,0.08506 -0.768639,0.08465 -0.984375,0.359375 -0.08739,0.11128 -0.10135,0.291294 -0.04687,0.421875 0.122775,0.294274 0.771267,0.275601 0.75,0.59375 -0.02788,0.417101 -0.746612,0.385969 -1.078125,0.640625 -0.254111,0.195199 -0.720633,0.353164 -0.6875,0.6718755 0.01404,0.135089 0.219241,0.164493 0.34375,0.21875 0.226986,0.09891 0.476879,0.134539 0.71875,0.1875 0.232541,0.05092 0.469604,0.07879 0.703125,0.125 0.287619,0.05692 0.84547,-0.105367 0.859375,0.1875 0.01297,0.273117 -0.54546,0.111565 -0.78125,0.25 -0.381323,0.22388 -0.633787,0.617582 -0.96875,0.90625 -0.146033,0.125849 -0.50978,0.175109 -0.453125,0.359375 0.08288,0.269566 0.562236,0.04561 0.84375,0.0625 0.452789,0.02717 1.054816,-0.273655 1.359375,0.0625 0.06653,0.07343 0.0262,0.207033 -0.01563,0.29686 -0.138458,0.2972993 -0.489613,0.4372391 -0.71875,0.6718748 -0.22423,0.229611 -0.475347,0.4436441 -0.640625,0.71875 -0.131539,0.2189461 -0.440603,0.5326783 -0.265625,0.71875 0.309286,0.3288958 0.868413,-0.2483203 1.296875,-0.390625 0.289272,-0.096076 0.569753,-0.4075179 0.859375,-0.3125 0.07137,0.023416 0.127323,0.1124203 0.125,0.1875 -0.01012,0.3269335 -0.417381,0.5057836 -0.59375,0.78125 -0.197247,0.3080745 -0.735121,0.6761105 -0.515625,0.96875 0.07661,0.1021444 0.250389,-0.050282 0.375,-0.078125 0.459864,-0.1027501 0.938034,-0.151794 1.375,-0.328125 0.218683,-0.088246 0.3795,-0.4119816 0.609375,-0.359375 0.09153,0.020946 0.154398,0.1404987 0.15625,0.234375 0.0065,0.3295456 -0.493713,0.5148694 -0.515625,0.84375 -0.01287,0.1931229 0.05125,0.4685852 0.234375,0.53125 0.341764,0.1169498 0.654604,-0.3122418 0.953125,-0.515625 0.500966,-0.3413092 0.913428,-0.798054 1.390625,-1.171875 0.223068,-0.1747447 0.406616,-0.4625897 0.6875,-0.5 0.116018,-0.015452 0.281674,0.01757 0.328125,0.125 0.114006,0.2636706 -0.165781,0.5598855 -0.328125,0.796875 -0.247757,0.3616758 -0.56983,0.6934642 -0.953125,0.90625 -0.41894,0.2325738 -0.938516,0.2044216 -1.391602,0.3603515 -0.592916,0.2040525 -1.186074,0.4294697 -1.725585,0.7490235 -0.360902,0.2137633 -0.994141,0.7714844 -0.994141,0.7714844 L 34.987587,0.05974027 33.993447,1.2042715 32.897743,1.9757559 31.751259,2.7238028 30.407509,3.0206778 29.536415,2.9718498 29.063759,2.772631 28.516884,2.4738029 28.018837,2.2745842 27.595009,2.0753654 27.247353,1.8273185 c -0.124471,0.0083 -0.250529,0.015137 -0.375,0.023437 L 26.399697,1.030443 25.80204,0.93083397 25.180947,-6.1648692 l -0.375,-0.023437 0.199218,2.5625 -0.199218,-0.023437 -0.421875,-2.4648437 -0.597657,0.074219 0.523438,7.4179688 -0.47461,0.074219 c -0.06638,0.1078742 -0.132838,0.2163446 -0.199218,0.3242188 -0.0083,0.1410662 -0.01514,0.2827618 -0.02344,0.4238281 0.06638,0.1078742 0.132839,0.2163446 0.199219,0.3242188 l -0.125,0.2480468 0.373047,0.2246094 c 0.0083,0.099576 0.01709,0.1992522 0.02539,0.2988281 -0.02489,0.099576 -0.04933,0.1992522 -0.07422,0.2988281 0.05809,0.1161722 0.115738,0.2314841 0.173828,0.3476563 -0.04978,0.049788 -0.100601,0.1006027 -0.150391,0.1503906 0.04978,0.1161722 0.100601,0.2314841 0.150391,0.3476563 l 0.498047,0.3730468 1.841797,22.480468 v 0.498047 l -0.498047,0.07422 -0.498047,-0.796875 -0.248047,-0.273438 -0.150391,0.148438 0.273438,1.095703 h 0.623047 l 0.546875,0.02539 0.09961,0.697266 -0.04883,0.421875 -0.125,0.324219 -0.04883,-0.373047 -0.298828,-0.22461 -0.34961,0.22461 -0.298828,0.148437 -0.173828,0.199219 0.150391,0.125 0.02344,0.173828 -0.173828,0.173828 -0.125,0.324219 0.25,-0.04883 0.447266,-0.25 0.548828,0.05078 0.199219,0.123047 0.123046,0.697266 c 10e-7,0 0.150391,0.523467 0.150391,0.623047 0,0.09958 0.298828,0.572265 0.298828,0.572265 l 0.970703,1.941407 0.09961,0.298828 -0.324219,0.472656 0.324219,2.191406 0.919922,3.634766 1.269531,2.71289 2.515625,-0.871093 1.691406,-1.044922 -3.160156,-4.431641 -1.71875,-2.982422 -0.572266,-2.138672 0.441406,-0.253906 0.183594,-0.466797 0.05273,-0.537109 -0.263672,-0.5625 -0.923828,-0.34375 -0.158203,-0.722656 -0.140626,-0.07813 -2.226562,-24.3359371 0.949219,1.7519531 0.308593,0.9589844 c -0.03227,0.8009248 -0.06539,1.601418 -0.09766,2.402343 0.261108,0.09095 0.522096,0.182488 0.783203,0.273438 -0.0264,-0.434201 -0.05173,-0.868534 -0.07813,-1.302734 0.03521,-0.2933793 0.07026,-0.5874803 0.105469,-0.8808595 0.05281,0.7011761 0.105393,1.4023385 0.158203,2.1035155 0.176028,0.0264 0.351316,0.05368 0.527344,0.08008 C 28.805853,8.9607424 28.75327,8.0044339 28.70046,7.048018 28.7562,6.9394678 28.812689,6.8303965 28.868429,6.7218462 c 0.09975,1.0620324 0.199078,2.1235142 0.298828,3.1855462 l 0.976562,-0.183594 c -0.04987,-1.018025 -0.09857,-2.036661 -0.148437,-3.0546866 0.06748,-0.058676 0.133692,-0.1171053 0.201172,-0.1757812 0.06748,1.0913704 0.135645,2.1820668 0.203125,3.2734368 0.181894,-0.03521 0.363027,-0.07026 0.544922,-0.105469 -0.02054,-1.0708331 -0.04001,-2.1420561 -0.06055,-3.2128898 l 0.255859,-0.035156 0.02539,3.1953127 c 0.258173,-0.03814 0.517217,-0.07709 0.77539,-0.115234 l -0.09766,-3.1933599 0.255859,-0.097656 0.333985,3.2128909 c 0.173094,-0.07628 0.346437,-0.152236 0.519531,-0.228516 -0.05574,-1.1236422 -0.112229,-2.2474513 -0.167969,-3.3710936 0.140822,-0.0088 0.283007,-0.018544 0.423828,-0.027344 0.01174,1.0444297 0.02342,2.0883829 0.03516,3.1328126 0.111484,-0.04107 0.2225,-0.08198 0.333984,-0.123047 0.0029,-0.6777058 0.0049,-1.3554973 0.0078,-2.0332031 0.04987,0.3960618 0.100521,0.7933913 0.150391,1.1894531 0.03814,-0.3960618 0.07709,-0.7933913 0.115235,-1.1894531 L 33.964115,6.651534 c 0.04694,0.6513015 0.09368,1.3018234 0.140625,1.9531253 l 0.326172,-0.2539066 c -0.03814,-0.9652173 -0.07709,-1.931267 -0.115235,-2.8964844 l 0.40625,0.044922 c 0.04401,0.9094753 0.08685,1.8170872 0.13086,2.7265625 L 35.22388,8.0675497 35.12622,5.6573934 35.385986,5.5362997 v 2.3652344 c 0.09958,-0.033192 0.199248,-0.066417 0.298828,-0.099609 l 0.125,-2.3398437 0.125,2.3144531 0.421875,-0.2734375 c -0.04978,-0.8298015 -0.09865,-1.6604329 -0.148438,-2.4902344 0.09128,-0.058086 0.182158,-0.1157422 0.273438,-0.1738281 l 0.125,2.3652343 0.324258,-0.050778 V 4.6398184 l 0.222656,-0.050781 c 0.0166,0.7136293 0.03418,1.4289488 0.05078,2.1425781 l 0.32422,-0.199219 c -0.0166,-0.7717153 -0.03418,-1.5446909 -0.05078,-2.3164062 l 0.248047,-0.048828 c 0.03319,0.7551193 0.06642,1.5105056 0.09961,2.265625 l 0.847656,-0.4980469 0.224609,0.2988281 0.248047,1.7421875 -0.248047,0.4472656 0.521485,0.6972657 c -0.0083,0.315325 -0.01709,0.631941 -0.02539,0.9472647 l -1.318359,1.31836 c 0,0 0.07398,0.248113 -0.623047,0.447266 -0.697033,0.199151 -1.542508,5.452001 -1.617188,6.472656 -0.07468,1.020656 2.166016,1.345703 2.166016,1.345703 0,0 -0.125066,0.546844 -0.324219,1.916015 -0.199151,1.369173 2.041016,2.115235 2.041016,2.115235 l 1.26953,17.923828 c 0.05809,0.182557 0.115738,0.366271 0.173828,0.548828 l 0.407178,0.638114 a 0.391512,0.391512 0 0 0 0.332387,0.180906 l 4.574685,-0.02737 a 0.09351884,0.09351884 0 0 0 0.0922,-0.105443 l -0.07441,-0.578783 -0.15625,-0.884766 c 0.05893,-0.191507 0.118804,-0.382711 0.177734,-0.574218 -0.0221,-0.736569 -0.04431,-1.472416 -0.06641,-2.208985 -0.09575,-0.869151 -0.19136,-1.73827 -0.28711,-2.607422 -0.09575,-1.517331 -0.191359,-3.035403 -0.287109,-4.552734 l -0.154297,-2.496094 -0.15625,-5.28125 c 0.64818,-0.02946 1.297132,-0.06038 1.945313,-0.08984 h 0.906251 l 0.61914,1.304688 c 0.0663,0.346188 0.13097,0.692875 0.19727,1.039062 l 0.61914,1.126954 c 0,0 -0.48633,2.187 -0.48633,2.27539 0,0.08839 -0.375,1.701172 -0.375,1.701172 -0.20624,0.898614 -0.4129,1.796699 -0.61914,2.695313 -0.11049,0.839688 -0.21959,1.679843 -0.33008,2.519531 l -0.443361,2.564453 0.06183,3.96983 a 0.29621586,0.29621586 0 0 0 0.298445,0.291594 l 8.389723,-0.06416 0.15625,-0.595703 -0.31055,-0.863282 c -0.43457,-0.191508 -0.86816,-0.382711 -1.30273,-0.574218 -0.41985,-0.03683 -0.83992,-0.07255 -1.25977,-0.109376 -0.17678,-0.125216 -0.35447,-0.251736 -0.53125,-0.376953 -0.12522,-0.162044 -0.24978,-0.324283 -0.375,-0.486328 0.0516,-0.184142 0.1027,-0.366639 0.1543,-0.550781 -0.0958,-0.434576 -0.19141,-0.870112 -0.28711,-1.304688 0.081,-0.405112 0.16314,-0.809731 0.24414,-1.214843 0.0737,-0.640815 0.14701,-1.281061 0.22071,-1.921875 l 1.58984,-5.857422 c 0.11048,-1.193242 0.22155,-2.384883 0.33203,-3.578125 -0.29463,-1.001734 -0.59014,-2.004126 -0.88476,-3.005859 l 0.35351,-0.707032 c -0.007,-0.265164 -0.0145,-0.529757 -0.0215,-0.794922 l -2.55274,-6.71875 c -0.0958,-0.202555 -0.19141,-0.404866 -0.28711,-0.607422 0.10917,-0.112054 0.21896,-0.223882 0.32813,-0.335937 0,0 0.0195,-0.687496 0.0195,-0.785156 0,-0.09766 0.15234,-1.128907 0.15234,-1.128907 0,0 0.12112,0.05469 0.13672,0.08594 0.0155,0.03125 0.0115,1.851561 0.0195,1.925781 0.008,0.07422 0.19513,-0.03515 0.20313,-0.07031 0.008,-0.03516 0.14053,-2.132815 0.14453,-2.171875 0.004,-0.03906 0.19143,-0.07422 0.20703,-0.07422 0.0156,0 0.0664,1.835937 0.0664,1.835937 0.0534,-0.02865 0.10675,-0.05729 0.16015,-0.08594 0.0143,-0.79427 0.0287,-1.588542 0.043,-2.382813 0.043,-0.0013 0.0859,-0.0026 0.12891,-0.0039 0.0547,0.735677 0.10936,1.471355 0.16406,2.207032 0.069,-0.01562 0.13803,-0.03126 0.20703,-0.04688 0.0526,-0.746359 0.1056,-1.491921 0.1582,-2.238281 0,0 0.0703,1.124828 0.0703,1.248047 0,0.123219 0.0176,0.564453 0.0176,0.564453 0.088,0.02347 0.17568,0.04684 0.26368,0.07031 0,0 0.0351,-0.599413 0.0703,-0.740235 0.0352,-0.140821 -0.19336,-1.53125 -0.19336,-1.53125 0.0645,-0.02934 0.12886,-0.05855 0.19336,-0.08789 0.0528,0.6923737 0.1054,1.3857497 0.1582,2.0781247 l 0.35157,-0.263672 c 0.0293,-0.217101 0.0605,-0.435243 0.0898,-0.652344 -0.11149,-0.657169 -0.22445,-1.3135337 -0.33594,-1.9707027 0.0587,-0.205366 0.11708,-0.411822 0.17578,-0.617187 0.0821,0.281643 0.16595,0.564059 0.24805,0.845703 0.0763,0.481141 0.15222,0.9622167 0.22851,1.4433587 -0.006,-0.539817 -0.0116,-1.0793227 -0.0176,-1.6191407 -0.0704,-0.7921231 -0.14054,-1.584829 -0.21094,-2.3769527 -0.0352,-0.6043609 -0.0722,-1.208139 -0.10742,-1.8125 -0.40486,-0.674772 -0.80803,-1.3506185 -1.21289,-2.0253906 -0.44007,-0.5632878 -0.88025,-1.1261653 -1.32032,-1.6894531 -0.399,-0.63369893 -0.79826,-1.26669173 -1.19726,-1.90039063 -0.11735,-0.2523061 -0.23421,-0.50550647 -0.35156,-0.75781247 0,0 -0.18257,-0.9630069 -0.47058,-1.3378867 -0.1527,-0.1987539 -0.41586,-0.279945 -0.62109,-0.4238282 -0.61028,-0.4278625 -1.33982,-0.7319845 -1.814454,-1.3066406 -0.231681,-0.2805048 -0.511581,-0.6302448 -0.458984,-0.9902344 0.04788,-0.3276766 0.44582,-0.4900587 0.658203,-0.7441406 0.08087,-0.096736 0.199165,-0.1758113 0.234375,-0.296875 0.057,-0.1960659 0.0177,-0.4215705 -0.0625,-0.609375 -0.0537,-0.1257418 -0.2247,-0.1820568 -0.265625,-0.3124998 -0.04856,-0.154774 -0.0513,-0.355245 0.04687,-0.484375 0.08781,-0.115498 0.287425,-0.073 0.406255,-0.15625 0.13001,-0.09109 0.31802,-0.200724 0.3125,-0.359375 -0.01,-0.279727 -0.39274,-0.398982 -0.59375,-0.59375 -0.2514,-0.243582 -0.624157,-0.398567 -0.76563,-0.71875 -0.138945,-0.314461 0.06487,-0.6970155 -0.01562,-1.0312505 -0.08834,-0.366857 -0.258657,-0.725553 -0.5,-1.015625 -0.423727,-0.50928 -1.116325,-0.728179 -1.59375,-1.1875 -0.274917,-0.264492 -0.454883,-0.615109 -0.71875,-0.890625 -0.403284,-0.421087 -0.814868,-0.852416 -1.3125,-1.15625 -0.644702,-0.393629 -1.390509,-0.596145 -2.109375,-0.828125 -0.460434,-0.148583 -0.922561,-0.348355 -1.40625,-0.359375 z" /><path
     id="body"
     style="fill:#060707;fill-opacity:1;stroke:none;stroke-width:0.377953;stroke-linejoin:bevel"
     d="m 37.648512,-16.93888 c -0.281851,-0.0064 -0.620953,-0.01933 -0.828125,0.171875 -0.163504,0.150907 -0.0026,0.516895 -0.1875,0.640625 -0.121899,0.08156 -0.290855,-0.04945 -0.4375,-0.04687 -0.257759,0.0045 -0.529481,0.006 -0.765625,0.109375 -0.166159,0.07277 -0.45707,0.1658 -0.421875,0.34375 0.05595,0.282867 0.641714,0.03001 0.828125,0.25 0.105246,0.124202 0.168632,0.360929 0.0625,0.484375 -0.152833,0.177766 -0.470136,-0.01034 -0.703125,0.01563 -0.417227,0.04652 -0.859999,0.06004 -1.234375,0.25 -0.213704,0.108434 -0.611923,0.258722 -0.53125,0.484375 0.06672,0.186623 0.402386,-0.02032 0.59375,0.03125 0.220415,0.0594 0.435563,0.164514 0.609375,0.3125 0.167359,0.142491 0.4757,0.32858 0.390625,0.53125 -0.07127,0.16979 -0.368275,0.03329 -0.546875,0.07813 -0.338794,0.08506 -0.768639,0.08465 -0.984375,0.359375 -0.08739,0.11128 -0.10135,0.291294 -0.04687,0.421875 0.122775,0.294274 0.771267,0.275601 0.75,0.59375 -0.02788,0.417101 -0.746612,0.385969 -1.078125,0.640625 -0.254111,0.195199 -0.720633,0.353164 -0.6875,0.671875 0.01404,0.135089 0.219241,0.164493 0.34375,0.21875 0.226986,0.09891 0.476879,0.134539 0.71875,0.1875 0.232541,0.05092 0.469604,0.07879 0.703125,0.125 0.287619,0.05692 0.84547,-0.105367 0.859375,0.1875005 0.01297,0.273117 -0.54546,0.111565 -0.78125,0.25 -0.381323,0.22388 -0.633787,0.617582 -0.96875,0.90625 -0.146033,0.125849 -0.50978,0.175109 -0.453125,0.359375 0.08288,0.269566 0.562236,0.04561 0.84375,0.0625 0.452789,0.02717 1.054816,-0.273655 1.359375,0.0625 0.06653,0.07343 0.0262,0.207033 -0.01563,0.29686 -0.138458,0.297299 -0.489613,0.437239 -0.71875,0.671875 -0.22423,0.2296107 -0.475347,0.4436438 -0.640625,0.7187497 -0.131539,0.2189461 -0.440603,0.5326783 -0.265625,0.71875 0.309286,0.3288958 0.868413,-0.2483203 1.296875,-0.390625 0.289272,-0.096076 0.569753,-0.4075179 0.859375,-0.3125 0.07137,0.023416 0.127323,0.1124203 0.125,0.1875 -0.01012,0.3269335 -0.417381,0.5057836 -0.59375,0.78125 -0.197247,0.3080745 -0.735121,0.6761105 -0.515625,0.96875 0.07661,0.1021444 0.250389,-0.050282 0.375,-0.078125 0.459864,-0.1027501 0.938034,-0.151794 1.375,-0.328125 0.218683,-0.088246 0.3795,-0.4119816 0.609375,-0.359375 0.09153,0.020946 0.154398,0.1404987 0.15625,0.234375 0.0065,0.3295456 -0.493713,0.5148694 -0.515625,0.84375 -0.01287,0.1931229 0.05125,0.4685852 0.234375,0.53125 0.341764,0.1169498 0.654604,-0.3122418 0.953125,-0.515625 0.500966,-0.3413092 0.913428,-0.798054 1.390625,-1.171875 0.223068,-0.1747447 0.406616,-0.4625897 0.6875,-0.5 0.116018,-0.015452 0.281674,0.01757 0.328125,0.125 0.114006,0.2636706 -0.165781,0.5598855 -0.328125,0.796875 -0.247757,0.3616758 -0.56983,0.6934642 -0.953125,0.90625 -0.41894,0.2325738 -0.938516,0.2044216 -1.391602,0.3603515 -0.592916,0.2040525 -1.186074,0.4294697 -1.725585,0.7490235 -0.360902,0.2137633 -0.994141,0.7714844 -0.994141,0.7714844 l -1.744141,1.49414057 -0.99414,1.1445312 -1.095704,0.77148443 -1.146484,0.7480468 -1.34375,0.296875 L 27.591871,2.1763546 27.119215,1.9771358 26.57234,1.6783078 26.074293,1.4790891 25.650465,1.2798703 25.302809,1.0318234 c -0.124471,0.0083 -0.250529,0.015137 -0.375,0.023437 l -0.472656,-0.82031253 -0.597657,-0.099609 -0.621093,-7.09570317 -0.375,-0.023437 0.199218,2.5625 -0.199218,-0.023437 -0.421875,-2.4648437 -0.597657,0.074219 0.523438,7.41796877 -0.47461,0.074219 c -0.06638,0.1078742 -0.132838,0.2163446 -0.199218,0.3242188 -0.0083,0.14106623 -0.01514,0.28276183 -0.02344,0.42382813 0.06638,0.1078742 0.132839,0.2163446 0.199219,0.3242188 l -0.125,0.2480467 0.373047,0.2246094 c 0.0083,0.099576 0.01709,0.1992522 0.02539,0.2988281 -0.02489,0.099576 -0.04933,0.1992522 -0.07422,0.2988281 0.05809,0.1161722 0.115738,0.2314841 0.173828,0.3476563 -0.04978,0.049788 -0.100601,0.1006027 -0.150391,0.1503906 0.04978,0.1161722 0.100601,0.2314841 0.150391,0.3476563 l 0.498047,0.3730469 1.841797,22.4804681 v 0.498047 l -0.498047,0.07422 -0.498047,-0.796875 -0.248047,-0.273438 -0.150391,0.148438 0.273438,1.095703 h 0.623047 l 0.546875,0.02539 0.09961,0.697266 -0.04883,0.421875 -0.125,0.324219 -0.04883,-0.373047 -0.298828,-0.22461 -0.34961,0.22461 -0.298828,0.148437 -0.173828,0.199219 0.150391,0.125 0.02344,0.173828 -0.173828,0.173828 -0.125,0.324219 0.25,-0.04883 0.447266,-0.25 0.548828,0.05078 0.199219,0.123047 0.123046,0.697266 c 10e-7,0 0.150391,0.523467 0.150391,0.623047 0,0.09958 0.298828,0.572265 0.298828,0.572265 l 0.970703,1.941407 0.09961,0.298828 -0.324219,0.472656 0.324219,2.191406 0.919922,3.634766 1.269531,2.71289 2.515625,-0.871093 1.691406,-1.044922 -3.160156,-4.431641 -1.71875,-2.982422 -0.572266,-2.138672 0.441406,-0.253906 0.183594,-0.466797 0.05273,-0.537109 -0.263672,-0.5625 -0.923828,-0.34375 L 26.625066,28.14901 26.48444,28.07088 24.257878,3.7349427 25.207097,5.4868959 25.51569,6.4458803 c -0.03227,0.8009248 -0.06539,1.601418 -0.09766,2.402343 0.261108,0.09095 0.522096,0.182488 0.783203,0.273438 -0.0264,-0.434201 -0.05173,-0.868534 -0.07813,-1.302734 0.03521,-0.2933793 0.07026,-0.5874803 0.105469,-0.8808595 0.05281,0.7011761 0.105393,1.4023385 0.158203,2.1035155 0.176028,0.0264 0.351316,0.05368 0.527344,0.08008 -0.05281,-0.956416 -0.105393,-1.9127245 -0.158203,-2.8691404 0.05574,-0.1085502 0.112229,-0.2176215 0.167969,-0.3261718 0.09975,1.0620324 0.199078,2.1235142 0.298828,3.1855462 l 0.976562,-0.183594 c -0.04987,-1.018025 -0.09857,-2.036661 -0.148437,-3.0546866 0.06748,-0.058676 0.133692,-0.1171053 0.201172,-0.1757812 0.06748,1.0913704 0.135645,2.1820668 0.203125,3.2734368 0.181894,-0.03521 0.363027,-0.07026 0.544922,-0.105469 -0.02054,-1.0708331 -0.04001,-2.1420561 -0.06055,-3.2128898 l 0.255859,-0.035156 0.02539,3.1953127 c 0.258173,-0.03814 0.517217,-0.07709 0.77539,-0.115234 l -0.09766,-3.1933599 0.255859,-0.097656 0.333985,3.2128909 c 0.173094,-0.07628 0.346437,-0.152236 0.519531,-0.228516 -0.05574,-1.1236422 -0.112229,-2.2474513 -0.167969,-3.3710936 0.140822,-0.0088 0.283007,-0.018544 0.423828,-0.027344 0.01174,1.0444297 0.02342,2.0883829 0.03516,3.1328126 0.111484,-0.04107 0.2225,-0.08198 0.333984,-0.123047 0.0029,-0.6777058 0.0049,-1.3554973 0.0078,-2.0332031 0.04987,0.3960618 0.100521,0.7933913 0.150391,1.1894531 0.03814,-0.3960618 0.07709,-0.7933913 0.115235,-1.1894531 l 0.113281,-0.1132812 c 0.04694,0.6513015 0.09368,1.3018234 0.140625,1.9531253 l 0.326172,-0.2539066 c -0.03814,-0.9652173 -0.07709,-1.931267 -0.115235,-2.8964844 l 0.40625,0.044922 c 0.04401,0.9094753 0.08685,1.8170872 0.13086,2.7265625 L 33.279336,7.2720546 33.181676,4.8618983 33.441442,4.7408046 V 7.106039 C 33.541022,7.072847 33.64069,7.039622 33.74027,7.00643 l 0.125,-2.3398437 0.125,2.3144531 0.421875,-0.2734375 c -0.04978,-0.8298015 -0.09865,-1.6604329 -0.148438,-2.4902344 0.09128,-0.058086 0.182158,-0.1157422 0.273438,-0.1738281 l 0.125,2.3652343 0.324258,-0.050778 V 3.8443232 l 0.222656,-0.050781 c 0.0166,0.7136294 0.03418,1.4289489 0.05078,2.1425782 l 0.32422,-0.199219 c -0.0166,-0.7717153 -0.03418,-1.5446909 -0.05078,-2.3164063 l 0.248047,-0.048828 c 0.03319,0.7551194 0.06642,1.5105057 0.09961,2.2656251 l 0.847656,-0.4980469 0.224609,0.2988281 0.248047,1.7421875 -0.248047,0.4472656 0.521485,0.6972657 c -0.0083,0.315325 -0.01709,0.631941 -0.02539,0.947265 l -1.318359,1.3183598 c 0,0 0.07398,0.248113 -0.623047,0.447266 -0.697033,0.199151 -1.542508,5.452001 -1.617188,6.472656 -0.07468,1.020656 2.166016,1.345703 2.166016,1.345703 0,0 -0.125066,0.546844 -0.324219,1.916015 -0.199151,1.369173 2.041016,2.115235 2.041016,2.115235 l 1.269531,17.923828 c 0.05809,0.182557 0.115738,0.366271 0.173828,0.548828 l 0.407178,0.638114 a 0.391512,0.391512 0 0 0 0.332387,0.180905 l 4.574686,-0.02737 a 0.09351884,0.09351884 0 0 0 0.0922,-0.105443 l -0.07442,-0.578783 -0.15625,-0.884766 c 0.05893,-0.191507 0.118804,-0.382711 0.177734,-0.574218 -0.0221,-0.736569 -0.04431,-1.472416 -0.06641,-2.208985 -0.09575,-0.869151 -0.19136,-1.73827 -0.28711,-2.607422 -0.09575,-1.517331 -0.191359,-3.035403 -0.287109,-4.552734 l -0.154297,-2.496094 -0.15625,-5.28125 c 0.64818,-0.02946 1.297132,-0.06038 1.945313,-0.08984 h 0.906251 l 0.61914,1.304688 c 0.0663,0.346188 0.13097,0.692875 0.19727,1.039062 l 0.61914,1.126954 c 0,0 -0.48633,2.187 -0.48633,2.27539 0,0.08839 -0.375,1.701172 -0.375,1.701172 -0.20624,0.898614 -0.4129,1.796699 -0.61914,2.695313 -0.11049,0.839688 -0.21959,1.679843 -0.33008,2.519531 l -0.443361,2.564453 0.06183,3.96983 a 0.29621586,0.29621586 0 0 0 0.298446,0.291594 l 8.389726,-0.06416 0.15625,-0.595703 -0.31055,-0.863282 c -0.434574,-0.191508 -0.868164,-0.382711 -1.302734,-0.574218 -0.41985,-0.03683 -0.83992,-0.07255 -1.25977,-0.109376 -0.17678,-0.125216 -0.35447,-0.251736 -0.53125,-0.376953 -0.12522,-0.162044 -0.24978,-0.324283 -0.375,-0.486328 0.0516,-0.184142 0.1027,-0.366639 0.1543,-0.550781 -0.0958,-0.434576 -0.19141,-0.870112 -0.28711,-1.304688 0.081,-0.405112 0.16314,-0.809731 0.24414,-1.214843 0.0737,-0.640815 0.14701,-1.281061 0.22071,-1.921875 l 1.58984,-5.857422 c 0.11048,-1.193242 0.22155,-2.384883 0.33203,-3.578125 -0.29463,-1.001734 -0.59014,-2.004126 -0.88476,-3.005859 l 0.35351,-0.707032 c -0.007,-0.265164 -0.0145,-0.529757 -0.0215,-0.794922 l -2.55274,-6.71875 c -0.0958,-0.202555 -0.19141,-0.404866 -0.28711,-0.607422 0.10917,-0.112054 0.21896,-0.223882 0.32813,-0.335937 0,0 0.0195,-0.687496 0.0195,-0.785156 0,-0.09766 0.15234,-1.128907 0.15234,-1.128907 0,0 0.12112,0.05469 0.13672,0.08594 0.0155,0.03125 0.0115,1.851561 0.0195,1.925781 0.008,0.07422 0.19513,-0.03515 0.20313,-0.07031 0.008,-0.03516 0.14053,-2.132815 0.14453,-2.171875 0.004,-0.03906 0.19143,-0.07422 0.20703,-0.07422 0.0156,0 0.0664,1.835937 0.0664,1.835937 0.0534,-0.02865 0.10675,-0.05729 0.16015,-0.08594 0.0143,-0.79427 0.0287,-1.588542 0.043,-2.3828128 0.043,-0.0013 0.0859,-0.0026 0.12891,-0.0039 0.0547,0.7356768 0.10936,1.4713548 0.16406,2.2070318 0.069,-0.01562 0.13803,-0.03126 0.20703,-0.04688 0.0526,-0.746359 0.1056,-1.491921 0.1582,-2.2382808 0,0 0.0703,1.1248278 0.0703,1.2480468 0,0.123219 0.0176,0.564453 0.0176,0.564453 0.088,0.02347 0.17568,0.04684 0.26368,0.07031 0,0 0.0351,-0.599413 0.0703,-0.740235 0.0352,-0.140821 -0.19336,-1.5312498 -0.19336,-1.5312498 0.0645,-0.02934 0.12886,-0.05855 0.19336,-0.08789 0.0528,0.692374 0.1054,1.3857498 0.1582,2.0781248 l 0.35157,-0.263672 c 0.0293,-0.217101 0.0605,-0.435243 0.0898,-0.652344 -0.11149,-0.6571688 -0.22445,-1.3135338 -0.33594,-1.9707028 0.0587,-0.205366 0.11708,-0.411822 0.17578,-0.617187 0.0821,0.281643 0.16595,0.564059 0.24805,0.845703 0.0763,0.481141 0.15222,0.962217 0.22851,1.4433588 -0.006,-0.5398168 -0.0116,-1.0793228 -0.0176,-1.6191408 -0.0704,-0.7921231 -0.14054,-1.584829 -0.21094,-2.3769527 -0.0352,-0.6043609 -0.0722,-1.208139 -0.10742,-1.8125 -0.40486,-0.6747721 -0.80803,-1.3506186 -1.21289,-2.0253907 -0.44007,-0.5632877 -0.88025,-1.1261652 -1.32032,-1.68945303 -0.399,-0.6336989 -0.79826,-1.2666917 -1.19726,-1.90039057 -0.11735,-0.2523061 -0.23421,-0.5055065 -0.35156,-0.7578125 0,0 -0.18257,-0.9630069 -0.47058,-1.3378867 -0.1527,-0.1987539 -0.41586,-0.279945 -0.62109,-0.4238282 -0.61028,-0.4278625 -1.33982,-0.7319845 -1.814454,-1.3066406 -0.231681,-0.2805048 -0.511581,-0.6302448 -0.458984,-0.9902344 0.04788,-0.3276766 0.44582,-0.4900587 0.658203,-0.7441406 0.08087,-0.096736 0.199165,-0.1758117 0.234375,-0.2968747 0.057,-0.196066 0.0177,-0.421571 -0.0625,-0.609375 -0.0537,-0.125742 -0.2247,-0.182057 -0.265625,-0.3125 -0.04856,-0.154774 -0.0513,-0.355245 0.04687,-0.484375 0.08781,-0.115498 0.287425,-0.073 0.406255,-0.15625 0.13001,-0.09109 0.31802,-0.200724 0.3125,-0.359375 -0.01,-0.279727 -0.39274,-0.398982 -0.59375,-0.59375 -0.2514,-0.243582 -0.624157,-0.3985675 -0.76563,-0.7187505 -0.138945,-0.314461 0.06487,-0.697015 -0.01562,-1.03125 -0.08834,-0.366857 -0.258657,-0.725553 -0.5,-1.015625 -0.423727,-0.50928 -1.116325,-0.728179 -1.59375,-1.1875 -0.274917,-0.264492 -0.454883,-0.615109 -0.71875,-0.890625 -0.403284,-0.421087 -0.814868,-0.852416 -1.3125,-1.15625 -0.644702,-0.393629 -1.390509,-0.596145 -2.109375,-0.828125 -0.460434,-0.148583 -0.922561,-0.348355 -1.40625,-0.359375 z"
     sodipodi:nodetypes="aaaaaaaaaaaaaaaaaaaaaaaaaaaaaaaaaaaaaaaaaaaaaaaaaaaaccccccccccccccccccccccccccccccccccccccccccccccccccccccccccccscccccccccccccccccccccccccccccccccccccccccccccccccccccccccccccccccccccccccccccccccccsscsccccccccccccccccccsccccccccccccccccccccccccscccccscccccccsccsccccccccccccccccaaaaaaaaaaaaaaaaaaaa" /></svg>
