<?xml version="1.0" encoding="UTF-8" standalone="no"?>
<svg
   xmlns:dc="http://purl.org/dc/elements/1.1/"
   xmlns:cc="http://creativecommons.org/ns#"
   xmlns:rdf="http://www.w3.org/1999/02/22-rdf-syntax-ns#"
   xmlns:svg="http://www.w3.org/2000/svg"
   xmlns="http://www.w3.org/2000/svg"
   xmlns:xlink="http://www.w3.org/1999/xlink"
   xmlns:sodipodi="http://sodipodi.sourceforge.net/DTD/sodipodi-0.dtd"
   xmlns:inkscape="http://www.inkscape.org/namespaces/inkscape"
   width="100%"
   height="100%"
   viewBox="0 0 648 648"
   version="1.1"
   id="svg56"
   sodipodi:docname="austria2.svg"
   inkscape:version="0.92.3 (2405546, 2018-03-11)">
  <metadata
     id="metadata62">
    <rdf:RDF>
      <cc:Work
         rdf:about="">
        <dc:format>image/svg+xml</dc:format>
        <dc:type
           rdf:resource="http://purl.org/dc/dcmitype/StillImage" />
        <dc:title></dc:title>
      </cc:Work>
    </rdf:RDF>
  </metadata>
  <defs
     id="defs60" />
  <sodipodi:namedview
     pagecolor="#ffffff"
     bordercolor="#666666"
     borderopacity="1"
     objecttolerance="10"
     gridtolerance="10"
     guidetolerance="10"
     inkscape:pageopacity="0"
     inkscape:pageshadow="2"
     inkscape:window-width="1853"
     inkscape:window-height="1016"
     id="namedview58"
     showgrid="false"
     inkscape:zoom="1.0709877"
     inkscape:cx="228.46472"
     inkscape:cy="286.29566"
     inkscape:window-x="67"
     inkscape:window-y="27"
     inkscape:window-maximized="1"
     inkscape:current-layer="svg56" />
  <path
     d="M 0,112 H 648 V 654.17866 H 0 Z"
     id="path2"
     inkscape:connector-curvature="0"
     style="fill:#d81e05;stroke-width:1" />
  <path
     d="M 0,112 H 648 V 400 H 0 Z"
     id="path4"
     inkscape:connector-curvature="0"
     style="fill:#ffffff" />
  <path
     d="M 324,400.00001 H 648 V 654.17867 H 324 Z"
     id="path6"
     inkscape:connector-curvature="0"
     style="fill:#008d46;stroke-width:1" />
  <path
     d="M 0,-1.9135444 H 648 V 256 H 0 Z"
     id="path8"
     inkscape:connector-curvature="0"
     style="fill:#d81e05;stroke-width:1" />
  <use
     transform="translate(313)"
     xlink:href="#a"
     id="use10"
     x="0"
     y="0"
     width="100%"
     height="100%" />
  <path
     id="a"
     d="M 233.9,394 167.43,398.85 100.96,394 V 262 h 132.9 z"
     inkscape:connector-curvature="0"
     style="fill:#d81e05" />
  <path
     id="b"
     d="m 97.99,259 v 127.2 c 0,5.27 2.88,10.8 9.5,10.8 h 52.96 c 0.86,0 1.68,0.37 2.25,1.02 l 4.76,5.4 c 0,0 4.22,-4.79 4.77,-5.4 0.57,-0.64 1.39,-1.01 2.24,-1.01 h 52.96 c 6.57,0 9.51,-5.54 9.51,-10.8 v -127.2 z"
     inkscape:connector-curvature="0"
     style="fill:none;stroke:#ffcc00;stroke-width:6" />
  <path
     d="m 512.4,364 c -2.31,1.82 -4.43,3.8 -6.31,6.06 l -2.27,-2.15 c -1.62,-1.54 -5.23,-1.51 -7.45,-0.38 -6.5,3.3 -10.13,11.28 -11.99,18.3 l -3.28,12.37 64.76,-1.76 3.68,-10.17 1.23,-0.44 c 0,0 -5.49,-15 -11.99,-18.3 -2.22,-1.13 -5.83,-1.16 -7.45,0.38 l -2.27,2.15 c -1.88,-2.27 -4,-4.24 -6.31,-6.06 z"
     id="path14"
     inkscape:connector-curvature="0"
     style="fill:#008d46" />
  <g
     id="g20"
     style="fill:none;stroke:#ffffff"
     transform="translate(0,112)">
    <path
       d="m 500.7,183.3 h 34.21 m -17.08,62.97 0.03,-80.07 m -21.25,35.09 h 42.27"
       id="path16"
       inkscape:connector-curvature="0"
       style="stroke-width:6" />
    <path
       d="m 512.8,165.6 h 10.09 m 12.94,12.63 v 10.09 m -36.02,-10.47 -0.08,10.38 m 40.07,8.03 0.09,10.04 m -44.09,-10.04 -0.04,10.04"
       id="path18"
       inkscape:connector-curvature="0"
       style="stroke-width:3" />
  </g>
  <path
     d="m 512.6,358 h 10.1 v 6.06 h -10.1 z"
     id="path22"
     inkscape:connector-curvature="0"
     style="fill:#ffcc00" />
  <path
     d="m 514.3,358.8 -2.79,-2.15 m 6.31,2.15 v -3.21 m 3.79,3.21 2.13,-2.15"
     id="path24"
     inkscape:connector-curvature="0"
     style="fill:none;stroke:#ffcc00" />
  <path
     d="m 411.3,229.1 0.29,-16.42 15.86,21.52 2.35,-32.23 15.63,23.79 5.08,-26.29 8.21,17.85 c 2.15,-17.04 17.49,-23.92 17.49,-23.92 v -17.85 l 10.31,-0.36 -0.08,18.29 c 0,0 11.98,3.98 16.91,23.67 l 9.34,-18.93 4.17,30.04 15.02,-26.76 4.16,32.94 13.13,-21.33 2.22,17.95 -12.83,25.19 c 0,0 -23.55,-11.97 -37.56,-11.97 h -37.56 c -12.71,0 -28.85,5.15 -37.56,11.97 z"
     id="path26"
     inkscape:connector-curvature="0"
     style="fill:#ffcc00" />
  <g
     id="g34"
     style="fill:none;stroke:#ffcc00;stroke-width:4"
     transform="translate(0,112)">
    <path
       d="M 425.6,144.1 402,102.08 c -1.96,-1.79 -0.13,-13.63 -0.13,-13.63 -0.38,-9.21 23.6,-17.42 32.06,-20.07 10.2,-3.2 42.66,-6.69 47.96,-6.69 5.55,0 39.76,3.53 45.94,6.69 0,0 26.51,8.2 33.07,20.07 0,0 2.06,12.02 0.63,13.63 l -22.72,42.02"
       id="path28"
       inkscape:connector-curvature="0" />
    <path
       d="M 482.4,61.03 466.34,35.15"
       id="path30"
       inkscape:connector-curvature="0" />
    <path
       d="M 464.4,46.93 477.07,38"
       id="path32"
       inkscape:connector-curvature="0" />
  </g>
  <path
     d="m 168.4,171.07 v -11.23 h 6.25 v -1.8 h -6.25 v -7.98 h -1.8 v 7.98 h -6.36 v 1.8 h 6.36 v 11.23 c -1.14,2.12 -3.02,6.37 -5.15,7.76 -2.87,1.89 -7.68,1.89 -15.54,0.97 -8.85,-1.03 -15.58,-4.75 -22.35,-3.63 -5.74,0.95 -10.03,7.96 -10.03,7.96 0.2,-0.07 -25.92,-3.13 -28.31,19.76 -1.04,9.91 5.6,17.99 5.6,17.99 0,0 -5.9,0.11 -6.93,4.1 -1.03,3.98 3.54,6.96 7.08,6.96 3.54,0 7.81,-0.44 13.12,5.9 5.31,6.34 8.55,19.31 8.55,19.31 0,0 8.85,-6.52 25.46,-11.38 16.61,-4.86 42.17,-4.86 58.78,0 16.61,4.86 25.46,11.38 25.46,11.38 0,0 3.24,-12.97 8.55,-19.31 5.31,-6.34 9.58,-5.9 13.12,-5.9 3.54,0 8.11,-2.98 7.08,-6.96 -1.03,-3.98 -6.93,-4.1 -6.93,-4.1 0,0 6.64,-8.07 5.6,-17.99 -2.39,-22.88 -28.5,-19.83 -28.31,-19.76 0,0 -4.29,-7.01 -10.02,-7.96 -6.77,-1.13 -13.5,2.59 -22.35,3.63 -7.85,0.92 -12.67,0.92 -15.54,-0.97 -2.12,-1.4 -4.01,-5.65 -5.14,-7.76 z"
     id="path36"
     inkscape:connector-curvature="0"
     style="fill:#ffcc00" />
  <ellipse
     cx="167.39999"
     cy="209.07001"
     rx="4.8000002"
     ry="6.5599999"
     id="ellipse38"
     style="fill:#d81e05" />
  <ellipse
     cx="167.39999"
     cy="233.70001"
     rx="7.3299999"
     ry="4.9299998"
     id="ellipse40"
     style="fill:#d81e05" />
  <g
     id="c"
     transform="translate(0,112)">
    <path
       d="m 161.7,109.2 c -1.22,4.2 -5.02,4.98 -8.48,1.75 -3.46,-3.23 -5.28,-9.27 -4.05,-13.47 0,-0.01 0.01,-0.03 0.01,-0.04 1.22,-4.2 5.02,-4.98 8.48,-1.75 3.46,3.23 5.27,9.27 4.05,13.47 -0.01,0.01 -0.01,0.03 -0.01,0.04 z m -17.06,-0.18 c -2.12,4.2 -6.09,4.98 -8.86,1.75 -2.77,-3.24 -3.29,-9.27 -1.17,-13.47 0.01,-0.01 0.01,-0.02 0.02,-0.04 2.12,-4.2 6.09,-4.98 8.86,-1.75 2.77,3.24 3.29,9.27 1.17,13.47 -0.01,0.01 -0.02,0.02 -0.02,0.04 z m -21.79,3.64 c -0.63,2.21 -3.06,2.62 -5.42,0.92 -2.36,-1.7 -3.77,-4.88 -3.14,-7.09 l 0.01,-0.02 c 0.63,-2.21 3.06,-2.62 5.42,-0.92 2.36,1.7 3.77,4.88 3.14,7.09 0,0.01 0,0.02 -0.01,0.02 z m -9.86,5.62 c -0.63,2.21 -3.06,2.62 -5.42,0.92 -2.36,-1.7 -3.77,-4.88 -3.14,-7.09 0,-0.01 0,-0.02 0.01,-0.02 0.63,-2.21 3.06,-2.62 5.42,-0.92 2.36,1.7 3.77,4.88 3.14,7.09 0,0.01 0,0.02 -0.01,0.02 z m 16.83,-11.5 c -1.44,2.22 -4.24,1.95 -6.27,-0.6 -2.03,-2.55 -2.51,-6.4 -1.07,-8.62 0,-0.01 0.01,-0.02 0.01,-0.02 1.44,-2.22 4.24,-1.95 6.27,0.6 2.03,2.55 2.51,6.4 1.07,8.62 -0.01,0.01 -0.01,0.02 -0.01,0.02 z m -28.9,11.17 c -0.73,2.48 -3.52,2.95 -6.24,1.03 -2.72,-1.91 -4.34,-5.48 -3.61,-7.96 0,-0.01 0.01,-0.02 0.01,-0.02 0.73,-2.48 3.52,-2.95 6.24,-1.03 2.72,1.91 4.34,5.48 3.61,7.96 0,0.01 0,0.02 -0.01,0.02 z m 18.52,-22.46 c -0.23,2.38 -6.83,5.92 -10.15,7.59 -3.32,1.66 -7.75,2.6 -12.04,1.51 -4.29,-1.09 -7.76,-12.12 -4.28,-19.2 3.58,-7.27 15.63,-8.14 19.61,-6.23 2.2,1.06 7.09,13.94 6.86,16.33 z m 43.98,-10.14 c -1.94,4.02 -17.17,9.97 -23.53,10.38 -6.37,0.42 -10.62,-3.4 -10.62,-3.4 -4.8,-6.89 -10.44,-17.79 -5.33,-21.11 4.99,-3.24 16.83,2.13 28.58,2.13 6.58,0 12.43,-2.13 12.43,-2.13 0,0 0.42,10.1 -1.52,14.12 z m -21.08,36.76 c 1.78,2.2 0.34,5.4 -3.22,7.15 -3.56,1.76 -7.88,1.4 -9.66,-0.8 -0.01,-0.01 -0.01,-0.02 -0.02,-0.02 -1.78,-2.2 -0.34,-5.4 3.22,-7.16 3.56,-1.75 7.88,-1.4 9.66,0.81 z"
       id="path42"
       inkscape:connector-curvature="0"
       style="fill:#d81e05" />
    <path
       d="m 162.3,62.71 c 0.01,2.17 -1.71,3.93 -3.83,3.94 -2.12,0.01 -3.84,-1.75 -3.85,-3.91 v -0.02 c -0.01,-2.17 1.71,-3.93 3.83,-3.94 2.12,-0.01 3.84,1.75 3.85,3.91 z m -11.61,0 c 0.01,2.17 -1.71,3.93 -3.83,3.94 -2.12,0.01 -3.84,-1.75 -3.85,-3.91 v -0.02 c -0.01,-2.17 1.71,-3.93 3.83,-3.94 2.12,-0.01 3.84,1.75 3.85,3.92 z m -11.61,-2.52 c 0.01,2.17 -1.71,3.93 -3.83,3.94 -2.12,0.01 -3.84,-1.75 -3.85,-3.91 V 60.2 c -0.01,-2.17 1.71,-3.93 3.83,-3.94 2.12,-0.01 3.84,1.75 3.85,3.91 z m -13.38,0 c 0.01,2.17 -1.71,3.93 -3.83,3.94 -2.12,0.01 -3.84,-1.75 -3.85,-3.91 V 60.2 c -0.01,-2.17 1.71,-3.93 3.82,-3.94 2.12,-0.01 3.84,1.75 3.85,3.91 z M 113.84,66 c 0.01,2.17 -1.71,3.93 -3.83,3.94 -2.12,0.01 -3.84,-1.75 -3.85,-3.92 V 66 c -0.01,-2.17 1.71,-3.93 3.83,-3.94 2.12,-0.01 3.84,1.75 3.85,3.92 z M 99.7,69.03 c 0.01,2.17 -1.71,3.93 -3.83,3.94 -2.12,0.01 -3.84,-1.75 -3.85,-3.92 v -0.02 c -0.01,-2.17 1.71,-3.93 3.82,-3.94 2.12,-0.01 3.84,1.75 3.85,3.91 z m -12.37,9.59 c 0.01,2.17 -1.71,3.93 -3.83,3.94 -2.12,0.01 -3.84,-1.75 -3.85,-3.91 v -0.02 c -0.01,-2.17 1.71,-3.93 3.83,-3.94 2.12,-0.01 3.84,1.75 3.85,3.92 z M 83.04,92 c 0.01,2.17 -1.71,3.93 -3.83,3.94 -2.12,0.01 -3.84,-1.75 -3.84,-3.91 v -0.02 c -0.01,-2.17 1.71,-3.93 3.83,-3.94 2.12,-0.01 3.84,1.75 3.85,3.92 z m 1.26,13.38 c 0.01,2.17 -1.71,3.93 -3.83,3.94 -2.12,0.01 -3.84,-1.75 -3.85,-3.91 v -0.02 c -0.01,-2.17 1.71,-3.93 3.83,-3.94 2.12,-0.01 3.84,1.75 3.85,3.91 z m 29.28,28.78 c 0.01,2.17 -1.71,3.93 -3.83,3.94 -2.12,0.01 -3.84,-1.75 -3.85,-3.91 v -0.02 c -0.01,-2.17 1.71,-3.93 3.83,-3.94 2.12,-0.01 3.84,1.75 3.85,3.91 z m 0.51,-27.01 c 0.01,2.17 -1.71,3.93 -3.83,3.94 -2.12,0.01 -3.84,-1.75 -3.85,-3.91 v -0.02 c -0.01,-2.17 1.71,-3.93 3.83,-3.94 2.12,-0.01 3.84,1.75 3.85,3.91 z m 36.35,-9.59 c 0.01,2.17 -1.71,3.93 -3.82,3.94 -2.12,0.01 -3.84,-1.75 -3.85,-3.92 v -0.02 c -0.01,-2.17 1.71,-3.93 3.83,-3.94 2.12,-0.01 3.84,1.75 3.85,3.91 z"
       id="path44"
       inkscape:connector-curvature="0"
       style="fill:#ffffff" />
  </g>
  <path
     id="d"
     d="m 413.4,181.04 c 0.01,2.17 -1.71,3.93 -3.83,3.94 -2.12,0.01 -3.84,-1.75 -3.85,-3.91 v -0.02 c -0.01,-2.17 1.71,-3.93 3.83,-3.94 2.12,-0.01 3.84,1.75 3.85,3.91 z m -14.55,36.77 c 0.01,2.17 -1.71,3.93 -3.83,3.94 -2.12,0.01 -3.84,-1.75 -3.85,-3.91 v -0.02 c -0.01,-2.17 1.71,-3.93 3.82,-3.94 2.12,-0.01 3.84,1.75 3.85,3.91 z m -2.23,-13.74 c 0.01,2.17 -1.71,3.93 -3.83,3.94 -2.12,0.01 -3.84,-1.75 -3.85,-3.92 v -0.02 c -0.01,-2.17 1.71,-3.93 3.83,-3.94 2.12,-0.01 3.84,1.75 3.85,3.91 z m 4.28,-13.75 c 0.01,2.17 -1.71,3.93 -3.83,3.94 -2.12,0.01 -3.84,-1.75 -3.85,-3.92 v -0.02 c -0.01,-2.17 1.71,-3.93 3.83,-3.94 2.12,-0.01 3.84,1.75 3.85,3.91 z m 26.77,-14.99 c 0.01,2.17 -1.71,3.93 -3.83,3.94 -2.12,0.01 -3.84,-1.75 -3.85,-3.92 v -0.02 c -0.01,-2.17 1.71,-3.93 3.83,-3.94 2.12,-0.01 3.84,1.75 3.85,3.91 z m 14.64,-4.29 c 0.01,2.17 -1.71,3.93 -3.83,3.94 -2.12,0.01 -3.84,-1.75 -3.85,-3.91 v -0.02 c -0.01,-2.17 1.71,-3.93 3.83,-3.94 2.12,-0.01 3.84,1.75 3.85,3.91 z m 14.46,-2.86 c 0.01,2.17 -1.71,3.93 -3.83,3.94 -2.12,0.01 -3.84,-1.75 -3.85,-3.91 v -0.02 c -0.01,-2.17 1.71,-3.93 3.82,-3.94 2.12,-0.01 3.84,1.75 3.85,3.92 z m 14.46,-1.96 c 0.01,2.17 -1.71,3.93 -3.83,3.94 -2.12,0.01 -3.84,-1.75 -3.85,-3.91 v -0.02 c -0.01,-2.17 1.71,-3.93 3.83,-3.94 2.12,-0.01 3.84,1.75 3.85,3.91 z"
     inkscape:connector-curvature="0"
     style="fill:#ffffff" />
  <path
     d="m 413.8,279.2 h 66.46 v 15.71 H 413.8 Z m 0,32.31 h 66.46 v 15.71 H 413.8 Z m 0,33.74 h 66.46 v 15.71 H 413.8 Z m 0,33.92 h 66.46 v 20.26 H 413.8 Z m -313,-73.16 v 44 h 132.9 v -44 z"
     id="path48"
     inkscape:connector-curvature="0"
     style="fill:#ffffff" />
  <use
     transform="translate(313)"
     xlink:href="#b"
     id="use50"
     style="fill:none"
     x="0"
     y="0"
     width="100%"
     height="100%" />
  <use
     transform="matrix(-1,0,0,1,334.9,0)"
     xlink:href="#c"
     id="use52"
     x="0"
     y="0"
     width="100%"
     height="100%" />
  <use
     transform="matrix(-1,0,0,1,963.1,0)"
     xlink:href="#d"
     id="use54"
     x="0"
     y="0"
     width="100%"
     height="100%" />
</svg>
