<?xml version="1.0" encoding="UTF-8" standalone="no"?>
<!-- Created with Inkscape (http://www.inkscape.org/) -->

<svg
   xmlns:dc="http://purl.org/dc/elements/1.1/"
   xmlns:cc="http://creativecommons.org/ns#"
   xmlns:rdf="http://www.w3.org/1999/02/22-rdf-syntax-ns#"
   xmlns:svg="http://www.w3.org/2000/svg"
   xmlns="http://www.w3.org/2000/svg"
   xmlns:sodipodi="http://sodipodi.sourceforge.net/DTD/sodipodi-0.dtd"
   xmlns:inkscape="http://www.inkscape.org/namespaces/inkscape"
   id="svg2"
   version="1.1"
   inkscape:version="0.92.5 (2060ec1f9f, 2020-04-08)"
   width="64.738815"
   height="59.189262"
   sodipodi:docname="army.svg">
  <metadata
     id="metadata8">
    <rdf:RDF>
      <cc:Work
         rdf:about="">
        <dc:format>image/svg+xml</dc:format>
        <dc:type
           rdf:resource="http://purl.org/dc/dcmitype/StillImage" />
      </cc:Work>
    </rdf:RDF>
  </metadata>
  <defs
     id="defs6">
    <inkscape:perspective
       sodipodi:type="inkscape:persp3d"
       inkscape:vp_x="0 : 25.719414 : 1"
       inkscape:vp_y="0 : 1000 : 0"
       inkscape:vp_z="1 : 25.719414 : 1"
       inkscape:persp3d-origin="0.5 : 25.552747 : 1"
       id="perspective10" />
  </defs>
  <sodipodi:namedview
     pagecolor="#ffffff"
     bordercolor="#666666"
     borderopacity="1"
     objecttolerance="10"
     gridtolerance="10"
     guidetolerance="10"
     inkscape:pageopacity="0"
     inkscape:pageshadow="2"
     inkscape:window-width="1920"
     inkscape:window-height="1121"
     id="namedview4"
     showgrid="false"
     inkscape:zoom="7.1011573"
     inkscape:cx="-5.3512407"
     inkscape:cy="44.711022"
     inkscape:window-x="-9"
     inkscape:window-y="-9"
     inkscape:window-maximized="1"
     inkscape:current-layer="svg2"
     fit-margin-top="0"
     fit-margin-left="0"
     fit-margin-right="0"
     fit-margin-bottom="0"
     inkscape:pagecheckerboard="0" />
  <path
     id="shadow"
     d="m 42.77715,0.66312397 c -0.17197,-0.0079 -0.332171,0.02988 -0.46229,0.114021 -0.104984,0.06792 -0.345101,0.124402 -0.533436,0.125515 -0.409917,0.0023 -0.563833,0.19849803 -0.353864,0.45141703 0.131232,0.158113 0.08219,1.077437 -0.05749,1.077437 -0.213148,0 -0.949609,-0.414739 -1.008466,-0.567922 -0.09417,-0.245601 -0.591844,-0.258749 -0.591844,-0.01554 0,0.09894 -0.256878,0.323499 -0.570718,0.498952 L 38.628632,2.66576 38.475778,2.155624 C 38.36284,1.778633 38.359776,1.586343 38.464268,1.419003 c 0.1877,-0.300479 -1.562626,-0.50562203 -1.997359,-0.23425 -0.284253,0.177678 -0.356904,0.384234 -0.101281,0.287998 0.335157,-0.126141 0.980309,0.444987 1.366368,1.209786 0.445867,0.883304 0.416533,1.348439 -0.09662,1.543456 -1.014058,0.385581 -1.664241,1.389663 -0.964662,1.489398 0.625774,0.08924 0.477404,0.506689 -0.611416,1.720854 -0.444435,0.495497 -0.381453,0.696249 0.318446,1.013748 l 0.655224,0.297009 -0.513242,0.3737471 c -1.500801,1.0916829 -3.965292,4.8338299 -3.437663,5.2197279 0.185314,0.135367 0.134933,0.23677 -0.445824,0.898173 -0.359972,0.409919 -0.863605,1.046441 -1.119069,1.414525 -0.291889,0.420416 -0.657667,0.764097 -0.984232,0.923961 -0.554193,0.27137 -1.017358,0.702121 -1.24769,1.160076 -0.191995,0.381446 -0.459495,0.451718 -0.459495,0.120854 0,-0.145863 -0.05709,-0.265319 -0.127067,-0.265319 -0.06999,0 -0.127379,0.170644 -0.127379,0.379341 0,0.509175 0.586387,0.434118 -7.889707,1.013125 -1.880182,0.128527 -4.949612,0.07768 -6.546017,-0.108426 -1.278907,-0.149048 -1.414942,-0.120516 -0.840388,0.176464 0.936909,0.484522 6.328736,0.65868 10.694833,0.345476 4.89611,-0.351062 4.680807,-0.350172 4.729163,-0.02392 0.03261,0.220943 0.180716,0.331876 0.615766,0.461357 0.8876,0.264213 1.025604,0.223564 1.712777,-0.506716 0.629274,-0.668562 0.662385,-0.685315 1.775222,-0.886059 1.25807,-0.22699 1.413535,-0.314739 1.283418,-0.724817 -0.09433,-0.297137 -0.148427,-0.298222 -1.576698,-0.041 -0.569463,0.102598 -0.441373,-0.102771 0.342991,-0.549593 0.328952,-0.187223 1.08734,-0.645846 1.685435,-1.01934 1.458017,-0.910503 1.648466,-0.90421 1.648466,0.05592 0,0.560713 -0.05649,0.783776 -0.23798,0.939185 -0.151592,0.129958 -0.2702,0.462782 -0.327145,0.918988 -0.04915,0.393535 -0.173287,0.799466 -0.275885,0.901905 -0.192313,0.192472 -0.590474,1.351272 -0.496466,1.44528 0.0291,0.0291 -0.0304,0.136025 -0.132039,0.237671 -0.101643,0.101644 -0.184853,0.377095 -0.184853,0.612039 0,0.234944 -0.08577,0.512956 -0.190758,0.617941 -0.104985,0.104986 -0.193031,0.381035 -0.195416,0.613592 -0.0026,0.232398 -0.08636,0.565996 -0.186409,0.74097 -0.203606,0.356312 -0.255142,1.472156 -0.07301,1.584777 0.13139,0.08112 0.04886,1.323621 -0.127067,1.914719 -0.09942,0.33341 -0.277984,3.50468 -0.30105,5.344622 -0.0075,0.594907 0.01822,0.647616 0.393941,0.813042 1.247571,0.549583 0.392134,2.273879 -1.53227,3.088465 -2.157917,0.91321 -1.300483,1.693794 1.323183,1.20482 0.593801,-0.110711 1.470446,-0.256139 1.94765,-0.323106 0.477205,-0.06697 0.949574,-0.189741 1.049787,-0.272777 0.212833,-0.176728 0.245973,-1.083836 0.04412,-1.208541 -0.256735,-0.158592 0.0069,-1.590179 0.473787,-2.572741 0.241784,-0.508699 0.405938,-0.979567 0.364738,-1.046058 -0.07365,-0.119299 0.201748,-0.213967 0.826407,-0.283958 0.29364,-0.03291 0.321348,-0.09257 0.356661,-0.775769 0.04009,-0.770683 0.30352,-0.976638 0.383689,-0.299807 0.03978,0.336115 0.05176,0.340196 1.031456,0.340196 h 0.991689 l 0.08171,0.782292 c 0.04502,0.430279 0.08262,1.017116 0.08357,1.304232 0.0036,0.929273 0.87157,1.092279 2.76225,0.518523 0.334521,-0.101485 0.617819,-0.185151 0.629749,-0.185787 0.04979,-0.0032 0.447056,1.295368 0.513865,1.680156 0.03992,0.230013 0.06273,1.036276 0.05064,1.791688 -0.0299,1.879388 0.320993,2.264229 1.955416,2.144933 0.988448,-0.07206 1.276718,-1.420593 0.561708,-2.626484 -0.413098,-0.69656 -0.462867,-3.530437 -0.06711,-3.820738 0.279641,-0.205354 0.252574,-1.243 -0.09165,-3.49763 -0.670632,-4.392663 -0.64456,-4.122949 -0.416935,-4.311923 0.14873,-0.123437 0.165467,-0.238083 0.07146,-0.485593 -0.06777,-0.178157 -0.229793,-0.789463 -0.360387,-1.35829 -0.130436,-0.568667 -0.335513,-1.377653 -0.455768,-1.797591 -0.344381,-1.203032 -0.406644,-1.119493 1.016855,-1.359846 2.035431,-0.343587 3.010345,-0.14878 5.886134,1.175301 0.936275,0.431075 1.315131,0.412085 1.135225,-0.05717 -0.08494,-0.221262 -1.606237,-1.007821 -2.977243,-1.539106 -0.806157,-0.31241 -1.092561,-0.572229 -0.632856,-0.574136 0.08335,-3.2e-4 0.323164,-0.137581 0.532815,-0.305399 0.583303,-0.466705 0.164449,-0.941528 -0.555492,-0.629436 -0.254032,0.109915 -0.762345,0.308654 -1.129633,0.441476 l -0.667962,0.241708 -1.304541,-0.312854 c -0.717556,-0.172112 -1.533788,-0.360881 -1.813747,-0.419416 -1.000855,-0.209334 -0.156621,-1.0053 1.336232,-1.259807 0.174975,-0.0299 0.375524,-0.149058 0.445514,-0.2647 0.06999,-0.115802 0.314936,-0.387931 0.544311,-0.604583 0.278369,-0.262937 0.44408,-0.561752 0.49864,-0.897862 0.04502,-0.277097 0.159792,-0.581385 0.254758,-0.676349 0.170836,-0.17084 0.131513,-0.754668 -0.09134,-1.35674 -0.05185,-0.139979 -0.109693,-0.311525 -0.128622,-0.381515 -0.01893,-0.06999 -0.12041,-0.190196 -0.225554,-0.267185 -0.105144,-0.07683 -0.154677,-0.199157 -0.109979,-0.271534 0.04469,-0.07238 -0.03247,-0.275934 -0.171496,-0.452659 -0.139026,-0.176724 -0.252583,-0.37516 -0.252583,-0.440853 0,-0.196133 -0.373403,-0.884157 -0.566989,-1.044816 -0.0991,-0.08224 -0.217189,-0.318117 -0.262524,-0.524427 C 47.088333,9.4942241 46.415689,8.863171 45.446488,8.400282 L 44.581556,7.987078 45.070566,7.562379 45.559886,7.137681 44.923614,6.559506 C 44.573664,6.241529 44.098118,5.890419 43.866993,5.77939 43.353522,5.532675 43.31655,4.942354 43.810133,4.872205 44.02901,4.841185 44.096269,4.747778 44.096269,4.47609 c 0,-0.376515 -1.31756,-1.13394 -1.70998,-0.983302 -0.401965,0.154137 -0.430906,-0.204974 -0.0932,-1.162562 0.310817,-0.882032 0.379455,-0.977799 0.825164,-1.152933 0.482612,-0.18960903 0.484223,-0.19207503 0.191381,-0.35448503 -0.176805,-0.09814 -0.360535,-0.151816 -0.532505,-0.159689 z M 45.267868,14.091007 c 0.04899,-0.02016 0.107835,-0.01998 0.169633,0.0038 0.185792,0.07126 0.186561,0.09802 0.0078,0.276815 -0.225559,0.225558 -0.398879,0.128421 -0.287691,-0.161243 0.02235,-0.05838 0.0613,-0.09914 0.110293,-0.1193 z m 0.63876,5.265396 c 0.11596,0 0.248393,0.06116 0.294521,0.135767 0.149208,0.241465 -0.06828,0.300964 -0.289862,0.07922 -0.198515,-0.198357 -0.198882,-0.214989 -0.0046,-0.214989 z m 0.783532,0.127067 c 0.104984,0 0.226094,0.05739 0.26936,0.127379 0.04327,0.06999 -0.0072,0.127379 -0.112156,0.127379 -0.104984,0 -0.226402,-0.05739 -0.269669,-0.127379 -0.04328,-0.06999 0.0075,-0.127379 0.112465,-0.127379 z"
     style="opacity:0.52999998;fill:#000000;fill-opacity:1;stroke-width:0.15906821"
     inkscape:connector-curvature="0" />
  <path
     id="body"
     d="m 40.856292,0.00101977 c -0.17197,-0.00788 -0.332171,0.029876 -0.46229,0.1140211 -0.104985,0.06792 -0.345102,0.1244012 -0.533436,0.1255141 -0.409917,0.00228 -0.563833,0.198498 -0.353865,0.451417 0.131233,0.158114 0.08219,1.07743803 -0.05749,1.07743803 -0.213149,0 -0.949609,-0.41474 -1.008466,-0.567923 -0.09417,-0.24560003 -0.591844,-0.25874903 -0.591844,-0.01554 0,0.09894 -0.256878,0.3235 -0.570718,0.498952 L 36.707772,2.003656 36.554918,1.49352 c -0.112937,-0.376991 -0.116001,-0.56928103 -0.0115,-0.73662103 0.1877,-0.300479 -1.562626,-0.5056221 -1.997359,-0.234251 -0.284254,0.177678 -0.356904,0.384235 -0.101281,0.287998 0.335156,-0.126141 0.980309,0.44498803 1.366368,1.20978703 0.445867,0.883304 0.416533,1.348438 -0.09662,1.543456 -1.014059,0.385581 -1.664241,1.389662 -0.964662,1.489398 0.625774,0.08924 0.477404,0.506688 -0.611416,1.720854 -0.444435,0.495497 -0.381453,0.696248 0.318445,1.013748 l 0.655224,0.297008 -0.513241,0.373748 c -1.500801,1.0916831 -3.965292,4.833829 -3.437663,5.219727 0.185314,0.135367 0.134933,0.23677 -0.445825,0.898174 -0.359971,0.409918 -0.863604,1.046441 -1.119068,1.414524 -0.291889,0.420417 -0.657667,0.764097 -0.984232,0.923961 -0.554193,0.27137 -1.017359,0.702122 -1.24769,1.160077 -0.191995,0.381445 -0.459495,0.451717 -0.459495,0.120853 0,-0.145863 -0.05709,-0.265319 -0.127067,-0.265319 -0.06999,0 -0.127379,0.170644 -0.127379,0.379341 0,0.509176 0.586386,0.434118 -7.889708,1.013125 -1.880182,0.128528 -4.949611,0.07768 -6.546017,-0.108426 -1.278906,-0.149048 -1.414941,-0.120516 -0.840388,0.176464 0.93691,0.484522 6.328736,0.658681 10.694833,0.345476 4.896111,-0.351062 4.680808,-0.350171 4.729164,-0.02392 0.03261,0.220944 0.180716,0.331877 0.615766,0.461358 0.8876,0.264213 1.025603,0.223563 1.712777,-0.506717 0.629273,-0.668562 0.662385,-0.685314 1.775222,-0.886058 1.25807,-0.226991 1.413535,-0.31474 1.283418,-0.724817 -0.09433,-0.297138 -0.148427,-0.298222 -1.576698,-0.04101 -0.569463,0.102598 -0.441373,-0.10277 0.342991,-0.549593 0.328951,-0.187222 1.08734,-0.645846 1.685435,-1.019339 1.458017,-0.910504 1.648466,-0.904211 1.648466,0.05592 0,0.560714 -0.05649,0.783776 -0.23798,0.939185 -0.151593,0.129958 -0.2702,0.462783 -0.327146,0.918988 -0.04915,0.393536 -0.173286,0.799466 -0.275884,0.901905 -0.192313,0.192473 -0.590475,1.351273 -0.496466,1.445281 0.0291,0.0291 -0.0304,0.136025 -0.132039,0.23767 -0.101643,0.101645 -0.184853,0.377096 -0.184853,0.612039 0,0.234944 -0.08577,0.512957 -0.190758,0.617942 -0.104985,0.104985 -0.193032,0.381034 -0.195417,0.613591 -0.0026,0.232399 -0.08636,0.565996 -0.186408,0.74097 -0.203606,0.356313 -0.255143,1.472156 -0.07301,1.584777 0.13139,0.08113 0.04886,1.323622 -0.127067,1.914719 -0.09942,0.33341 -0.277984,3.50468 -0.30105,5.344622 -0.0075,0.594907 0.01822,0.647617 0.393941,0.813042 1.24757,0.549583 0.392133,2.273879 -1.53227,3.088465 -2.157917,0.91321 -1.300484,1.693794 1.323183,1.204821 0.593801,-0.110712 1.470446,-0.25614 1.947649,-0.323107 0.477206,-0.06697 0.949575,-0.189741 1.049788,-0.272777 0.212833,-0.176728 0.245973,-1.083835 0.04411,-1.208541 -0.256734,-0.158592 0.0069,-1.590179 0.473788,-2.572741 0.241784,-0.508699 0.405938,-0.979566 0.364738,-1.046058 -0.07365,-0.119299 0.201748,-0.213967 0.826407,-0.283958 0.293639,-0.03291 0.321348,-0.09257 0.356661,-0.775769 0.04008,-0.770682 0.30352,-0.976637 0.383689,-0.299806 0.03978,0.336114 0.05176,0.340195 1.031455,0.340195 h 0.99169 l 0.08171,0.782292 c 0.04502,0.430279 0.08262,1.017117 0.08357,1.304232 0.0036,0.929274 0.871571,1.092279 2.762251,0.518523 0.334521,-0.101484 0.617819,-0.185151 0.629749,-0.185787 0.04979,-0.0032 0.447056,1.295368 0.513864,1.680157 0.03993,0.230013 0.06273,1.036275 0.05064,1.791687 -0.0299,1.879388 0.320993,2.264229 1.955417,2.144934 0.988448,-0.07206 1.276718,-1.420593 0.561708,-2.626485 -0.413098,-0.69656 -0.462867,-3.530437 -0.06711,-3.820738 0.279641,-0.205354 0.252574,-1.242999 -0.09165,-3.497629 -0.670631,-4.392664 -0.64456,-4.12295 -0.416934,-4.311924 0.148729,-0.123436 0.165467,-0.238083 0.07146,-0.485592 -0.06777,-0.178157 -0.229793,-0.789464 -0.360387,-1.358291 -0.130436,-0.568667 -0.335513,-1.377652 -0.455769,-1.797591 -0.34438,-1.203031 -0.406644,-1.119493 1.016856,-1.359846 2.035431,-0.343586 3.010345,-0.14878 5.886134,1.175301 0.936275,0.431075 1.31513,0.412086 1.135225,-0.05717 -0.08494,-0.221262 -1.606238,-1.00782 -2.977244,-1.539106 -0.806156,-0.31241 -1.092561,-0.572229 -0.632855,-0.574136 0.08335,-3.19e-4 0.323164,-0.137581 0.532815,-0.305399 0.583303,-0.466705 0.164448,-0.941528 -0.555492,-0.629435 -0.254032,0.109915 -0.762345,0.308653 -1.129633,0.441475 l -0.667962,0.241708 -1.304541,-0.312854 c -0.717556,-0.172112 -1.533788,-0.36088 -1.813747,-0.419415 -1.000855,-0.209334 -0.156621,-1.005301 1.336232,-1.259808 0.174974,-0.0299 0.375524,-0.149057 0.445513,-0.2647 0.06999,-0.115802 0.314936,-0.38793 0.544312,-0.604582 0.278369,-0.262938 0.44408,-0.561753 0.49864,-0.897863 0.04502,-0.277096 0.159792,-0.581385 0.254758,-0.676349 0.170836,-0.17084 0.131512,-0.754668 -0.09134,-1.35674 -0.05185,-0.139979 -0.109693,-0.311525 -0.128622,-0.381514 -0.01893,-0.06999 -0.12041,-0.190197 -0.225554,-0.267186 -0.105144,-0.07683 -0.154678,-0.199157 -0.109979,-0.271533 0.04469,-0.07238 -0.03248,-0.275935 -0.171496,-0.452659 -0.139026,-0.176725 -0.252583,-0.375161 -0.252583,-0.440854 0,-0.196133 -0.373403,-0.884156 -0.566989,-1.0448149 -0.0991,-0.08224 -0.217189,-0.318117 -0.262524,-0.524428 C 45.167475,8.832111 44.494832,8.201058 43.525631,7.73817 L 42.660699,7.324965 43.149708,6.900267 43.639029,6.475568 43.002756,5.897393 C 42.652807,5.579416 42.177261,5.228306 41.946136,5.117278 41.432664,4.870562 41.395693,4.280242 41.889276,4.210093 c 0.218877,-0.03102 0.286136,-0.124428 0.286136,-0.396116 0,-0.376515 -1.31756,-1.133939 -1.70998,-0.983302 -0.401965,0.154137 -0.430906,-0.204974 -0.09321,-1.162562 0.310818,-0.88203203 0.379456,-0.97779903 0.825165,-1.15293203 0.482612,-0.18961 0.484223,-0.192076 0.191381,-0.3544851 -0.176788,-0.098141 -0.360517,-0.1518129 -0.532487,-0.1596856 z M 43.34701,13.428902 c 0.04899,-0.02016 0.107834,-0.01997 0.169632,0.0038 0.185792,0.07126 0.186561,0.09802 0.0078,0.276815 -0.225559,0.225558 -0.398879,0.12842 -0.287691,-0.161243 0.02235,-0.05838 0.0613,-0.09914 0.110292,-0.119301 z m 0.638759,5.265396 c 0.115961,0 0.248394,0.06116 0.294522,0.135767 0.149208,0.241466 -0.06828,0.300965 -0.289862,0.07922 -0.198516,-0.198358 -0.198882,-0.21499 -0.0046,-0.21499 z m 0.783533,0.127067 c 0.104984,0 0.226094,0.05739 0.26936,0.127379 0.04327,0.06999 -0.0072,0.127379 -0.112156,0.127379 -0.104984,0 -0.226403,-0.05739 -0.269669,-0.127379 -0.04328,-0.06999 0.0075,-0.127379 0.112465,-0.127379 z"
     style="stroke-width:0.15906821"
     inkscape:connector-curvature="0" />
</svg>
