<?xml version="1.0" encoding="UTF-8" standalone="no"?>
<!-- Created with Inkscape (http://www.inkscape.org/) -->

<svg
   id="svg2"
   version="1.1"
   inkscape:version="1.1.1 (3bf5ae0d25, 2021-09-20)"
   width="64.738815"
   height="59.189262"
   sodipodi:docname="army.svg"
   xmlns:inkscape="http://www.inkscape.org/namespaces/inkscape"
   xmlns:sodipodi="http://sodipodi.sourceforge.net/DTD/sodipodi-0.dtd"
   xmlns="http://www.w3.org/2000/svg"
   xmlns:svg="http://www.w3.org/2000/svg"
   xmlns:rdf="http://www.w3.org/1999/02/22-rdf-syntax-ns#"
   xmlns:cc="http://creativecommons.org/ns#"
   xmlns:dc="http://purl.org/dc/elements/1.1/">
  <metadata
     id="metadata8">
    <rdf:RDF>
      <cc:Work
         rdf:about="">
        <dc:format>image/svg+xml</dc:format>
        <dc:type
           rdf:resource="http://purl.org/dc/dcmitype/StillImage" />
      </cc:Work>
    </rdf:RDF>
  </metadata>
  <defs
     id="defs6">
    <inkscape:perspective
       sodipodi:type="inkscape:persp3d"
       inkscape:vp_x="0 : 25.719414 : 1"
       inkscape:vp_y="0 : 1000 : 0"
       inkscape:vp_z="1 : 25.719414 : 1"
       inkscape:persp3d-origin="0.5 : 25.552747 : 1"
       id="perspective10" />
  </defs>
  <sodipodi:namedview
     pagecolor="#ffffff"
     bordercolor="#666666"
     borderopacity="1"
     objecttolerance="10"
     gridtolerance="10"
     guidetolerance="10"
     inkscape:pageopacity="0"
     inkscape:pageshadow="2"
     inkscape:window-width="1920"
     inkscape:window-height="1017"
     id="namedview4"
     showgrid="false"
     inkscape:zoom="7.1011573"
     inkscape:cx="19.644685"
     inkscape:cy="44.711022"
     inkscape:window-x="-8"
     inkscape:window-y="-8"
     inkscape:window-maximized="1"
     inkscape:current-layer="svg2"
     fit-margin-top="0"
     fit-margin-left="0"
     fit-margin-right="0"
     fit-margin-bottom="0"
     inkscape:pagecheckerboard="0" />
  <path
     id="path992"
     d="m 47.235691,0.98727298 c -0.256033,-0.01173 -0.494543,0.04448 -0.688267,0.16975702 -0.156303,0.101121 -0.513794,0.185211 -0.79419,0.186868 -0.610293,0.0034 -0.839446,0.295528 -0.526841,0.6720789 0.195382,0.2354028 0.12236,1.604111 -0.08559,1.604111 -0.31734,0 -1.413798,-0.6174727 -1.501425,-0.8455345 -0.140199,-0.3656551 -0.881149,-0.3852309 -0.881149,-0.023139 0,0.1473042 -0.382446,0.4816327 -0.849697,0.7428498 L 41.059293,3.9688353 40.831721,3.2093348 C 40.663577,2.6480629 40.659015,2.3617774 40.814591,2.1126382 41.094043,1.665279 38.488122,1.359858 37.840882,1.763881 37.41768,2.028412 37.309517,2.3359372 37.690093,2.1926588 c 0.498988,-0.1878014 1.459504,0.6625064 2.034277,1.8011545 0.663816,1.3150812 0.620143,2.007583 -0.14385,2.2979288 -1.509751,0.5740612 -2.477756,2.068958 -1.436208,2.217446 0.931665,0.1328583 0.710768,0.7543682 -0.910289,2.5620429 -0.661684,0.737705 -0.567915,1.036589 0.474108,1.509288 l 0.975511,0.442193 -0.764125,0.556443 c -2.234423,1.62532 -5.903607,7.196704 -5.118062,7.771237 0.275899,0.201537 0.200891,0.352508 -0.663753,1.337219 -0.535933,0.610295 -1.285752,1.557963 -1.666092,2.105973 -0.434571,0.625925 -0.979148,1.137603 -1.465345,1.375612 -0.825094,0.404021 -1.514664,1.045333 -1.857586,1.727146 -0.285846,0.567904 -0.684106,0.672526 -0.684106,0.179929 0,-0.217164 -0.08499,-0.395012 -0.18918,-0.395012 -0.104199,0 -0.189644,0.254058 -0.189644,0.56477 0,0.758071 0.873024,0.646324 -11.746358,1.508362 C 11.540138,29.945745 6.970308,29.870045 4.5935469,29.592964 2.689485,29.371058 2.4869531,29.413537 3.34236,29.855687 c 1.3948906,0.721366 9.422352,0.980657 15.922686,0.514352 7.289429,-0.522669 6.968882,-0.521343 7.040875,-0.03562 0.04855,0.328945 0.269054,0.494104 0.916766,0.686878 1.321476,0.393366 1.526939,0.332846 2.550017,-0.75441 0.936875,-0.995369 0.986172,-1.02031 2.642987,-1.319182 1.87304,-0.337948 2.104499,-0.46859 1.910779,-1.079122 -0.140436,-0.442385 -0.220982,-0.443999 -2.347421,-0.06105 -0.847828,0.15275 -0.657125,-0.153007 0.510652,-0.818245 0.48975,-0.278741 1.618855,-0.961549 2.509311,-1.517614 2.170725,-1.355576 2.45427,-1.346207 2.45427,0.08326 0,0.834802 -0.08411,1.166902 -0.35431,1.398278 -0.225694,0.193484 -0.402279,0.689 -0.487061,1.368208 -0.07318,0.585904 -0.257993,1.190262 -0.410742,1.342775 -0.28632,0.286557 -0.879111,2.011802 -0.739149,2.151763 0.04333,0.04333 -0.04526,0.202517 -0.196582,0.353849 -0.151329,0.15133 -0.275214,0.561427 -0.275214,0.911216 0,0.349789 -0.127701,0.7637 -0.284004,0.920004 -0.156304,0.156304 -0.287389,0.567292 -0.29094,0.913527 -0.0038,0.346 -0.128568,0.842667 -0.277529,1.103172 -0.303133,0.530485 -0.379861,2.191776 -0.108693,2.359448 0.195616,0.12078 0.07274,1.970635 -0.18918,2.850673 -0.148017,0.496387 -0.413868,5.217839 -0.448209,7.957182 -0.01113,0.88571 0.02713,0.964185 0.586508,1.210474 1.857408,0.81823 0.583816,3.385397 -2.281275,4.59817 -3.212751,1.359606 -1.936187,2.521755 1.969982,1.793761 0.884063,-0.164829 2.18923,-0.381346 2.8997,-0.481047 0.710473,-0.09971 1.413746,-0.282491 1.562945,-0.406116 0.31687,-0.263117 0.36621,-1.613637 0.06568,-1.799301 -0.382232,-0.236115 0.01034,-2.367491 0.705385,-3.830349 0.359972,-0.757362 0.604368,-1.458399 0.543029,-1.557393 -0.109649,-0.177615 0.300367,-0.318558 1.230372,-0.422762 0.437176,-0.049 0.478429,-0.137822 0.531004,-1.154981 0.05968,-1.147408 0.451886,-1.454038 0.571244,-0.446358 0.05922,0.500414 0.07706,0.50649 1.535652,0.50649 h 1.476448 l 0.12165,1.164692 c 0.06703,0.640608 0.123004,1.514304 0.124424,1.941767 0.0053,1.383522 1.297612,1.626208 4.112495,0.771988 0.498042,-0.151092 0.919821,-0.275656 0.937583,-0.276603 0.07413,-0.0047 0.665586,1.92857 0.765052,2.501451 0.05944,0.342448 0.09339,1.542828 0.0754,2.667501 -0.04452,2.798071 0.477901,3.37103 2.911264,3.193421 1.471622,-0.107279 1.900804,-2.115008 0.836282,-3.910364 -0.615028,-1.037053 -0.689126,-5.256187 -0.09991,-5.688393 0.416335,-0.305735 0.376037,-1.850603 -0.136448,-5.207342 -0.99845,-6.539887 -0.959634,-6.138332 -0.620741,-6.41968 0.221432,-0.183775 0.246351,-0.354463 0.106387,-0.72296 -0.100893,-0.265244 -0.34212,-1.17537 -0.536552,-2.022251 -0.194195,-0.846643 -0.499518,-2.051077 -0.678557,-2.67629 -0.512721,-1.791098 -0.60542,-1.666724 1.513915,-2.024567 3.030392,-0.511538 4.481864,-0.221506 8.763397,1.749813 1.393945,0.641793 1.957993,0.613521 1.690146,-0.08511 -0.126466,-0.32942 -2.391399,-1.500464 -4.432581,-2.291453 -1.200222,-0.465122 -1.626627,-0.851946 -0.942208,-0.854785 0.124095,-4.76e-4 0.481133,-0.204834 0.793266,-0.454684 0.868433,-0.69484 0.244834,-1.401767 -0.827028,-0.937117 -0.378208,0.163644 -1.134995,0.45953 -1.681821,0.657278 l -0.994475,0.35986 -1.942228,-0.465784 c -1.068312,-0.256244 -2.283535,-0.537286 -2.700343,-0.624434 -1.490094,-0.311661 -0.233181,-1.496712 1.989409,-1.875627 0.260506,-0.04452 0.559088,-0.22192 0.66329,-0.394091 0.1042,-0.172408 0.468883,-0.577559 0.810382,-0.900115 0.414441,-0.391467 0.661155,-0.836348 0.742385,-1.336756 0.06703,-0.412547 0.237902,-0.865578 0.379289,-1.006962 0.254344,-0.25435 0.195799,-1.123565 -0.135991,-2.019942 -0.0772,-0.208404 -0.163314,-0.463805 -0.191496,-0.568007 -0.02818,-0.104202 -0.179268,-0.283168 -0.335809,-0.397791 -0.15654,-0.114384 -0.230287,-0.296509 -0.163739,-0.404265 0.06654,-0.107754 -0.04834,-0.410817 -0.255327,-0.673928 -0.206984,-0.263111 -0.37605,-0.558546 -0.37605,-0.656352 0,-0.292006 -0.55593,-1.31635 -0.844145,-1.555542 -0.147542,-0.122438 -0.323356,-0.47362 -0.390851,-0.780779 -0.183775,-0.836225 -1.185221,-1.77575 -2.628187,-2.464908 l -1.287728,-0.615187 0.728047,-0.6323 0.728511,-0.6323 -0.947296,-0.8607988 C 49.910394,9.2925099 49.202391,8.7697699 48.858288,8.6044685 48.093821,8.2371532 48.038777,7.3582718 48.773638,7.2538328 c 0.325868,-0.04618 0.426005,-0.1852505 0.426005,-0.589745 0,-0.5605634 -1.96161,-1.6882318 -2.545853,-1.4639599 C 46.055336,5.4296105 46.012248,4.8949583 46.515025,3.4692814 46.977776,2.1560946 47.079966,2.013515 47.743547,1.752772 48.46207,1.470478 48.464468,1.466806 48.028479,1.225008 47.765247,1.078888 47.491707,0.99897998 47.235674,0.98725898 Z M 50.943923,20.978979 c 0.07294,-0.03001 0.160546,-0.02974 0.252552,0.0056 0.276611,0.106097 0.277756,0.145937 0.01155,0.412127 -0.335817,0.335816 -0.59386,0.191196 -0.428321,-0.240061 0.03328,-0.08692 0.09126,-0.1476 0.164206,-0.177617 z m 0.950998,7.839229 c 0.172644,0 0.369813,0.09106 0.43849,0.202133 0.222143,0.359499 -0.101654,0.448082 -0.431553,0.117948 -0.295554,-0.295319 -0.296099,-0.320081 -0.0069,-0.320081 z m 1.166539,0.18918 c 0.156303,0 0.336613,0.08545 0.401029,0.189645 0.06442,0.1042 -0.01066,0.189644 -0.16698,0.189644 -0.156303,0 -0.337073,-0.08545 -0.401489,-0.189644 -0.06443,-0.104199 0.01113,-0.189645 0.16744,-0.189645 z"
     style="opacity:0.53;fill:#000000;fill-opacity:1;stroke-width:0.236824" />
  <path
     id="body"
     d="m 44.375878,0.00151818 c -0.256033,-0.01173 -0.494543,0.04448 -0.688267,0.169757 -0.156303,0.101121 -0.513794,0.185211 -0.79419,0.186868 -0.610293,0.0034 -0.839446,0.295528 -0.526841,0.67207892 0.195382,0.2354028 0.12236,1.604111 -0.08559,1.604111 -0.31734,0 -1.413798,-0.6174727 -1.501425,-0.8455345 -0.140199,-0.3656551 -0.881149,-0.3852309 -0.881149,-0.023139 0,0.1473042 -0.382446,0.4816327 -0.849697,0.7428498 L 38.19948,2.9830805 37.971908,2.22358 C 37.803764,1.6623081 37.799202,1.3760226 37.954778,1.1268834 38.23423,0.67952418 35.628309,0.37410318 34.981069,0.77812618 34.557867,1.0426572 34.449704,1.3501824 34.83028,1.206904 c 0.498988,-0.1878014 1.459504,0.6625064 2.034277,1.8011545 0.663816,1.3150812 0.620143,2.007583 -0.14385,2.2979288 -1.509751,0.5740612 -2.477756,2.068958 -1.436208,2.217446 0.931665,0.1328583 0.710768,0.7543682 -0.910289,2.5620427 -0.661684,0.737706 -0.567915,1.036589 0.474108,1.509289 l 0.975511,0.442192 -0.764125,0.556443 c -2.234423,1.62532 -5.903607,7.196704 -5.118062,7.771237 0.275899,0.201537 0.200891,0.352508 -0.663753,1.337219 -0.535933,0.610295 -1.285752,1.557963 -1.666092,2.105973 -0.434571,0.625925 -0.979148,1.137603 -1.465345,1.375612 -0.825094,0.404021 -1.514664,1.045333 -1.857586,1.727146 -0.285846,0.567904 -0.684106,0.672526 -0.684106,0.179929 0,-0.217164 -0.08499,-0.395012 -0.18918,-0.395012 -0.104199,0 -0.189644,0.254058 -0.189644,0.56477 0,0.758071 0.873024,0.646324 -11.746358,1.508362 C 8.6803242,28.95999 4.1104948,28.88429 1.7337337,28.607209 -0.1703281,28.385303 -0.37286,28.427782 0.4825469,28.869932 c 1.3948905,0.721366 9.4223513,0.980657 15.9226861,0.514352 7.289429,-0.522669 6.968882,-0.521343 7.040875,-0.03562 0.04855,0.328945 0.269054,0.494104 0.916766,0.686878 1.321476,0.393366 1.526939,0.332846 2.550017,-0.75441 0.936875,-0.995369 0.986172,-1.02031 2.642987,-1.319182 1.87304,-0.337948 2.104499,-0.46859 1.910779,-1.079122 -0.140436,-0.442385 -0.220982,-0.443999 -2.347421,-0.06105 -0.847828,0.15275 -0.657125,-0.153007 0.510652,-0.818245 0.48975,-0.278741 1.618855,-0.961549 2.509311,-1.517614 2.170725,-1.355576 2.45427,-1.346207 2.45427,0.08326 0,0.834802 -0.08411,1.166902 -0.35431,1.398278 -0.225694,0.193484 -0.402279,0.689 -0.487061,1.368208 -0.07318,0.585904 -0.257993,1.190262 -0.410742,1.342775 -0.28632,0.286557 -0.879111,2.011802 -0.739149,2.151763 0.04333,0.04333 -0.04526,0.202517 -0.196582,0.353849 -0.151329,0.15133 -0.275214,0.561427 -0.275214,0.911216 0,0.349789 -0.127701,0.7637 -0.284004,0.920004 -0.156304,0.156304 -0.287389,0.567292 -0.29094,0.913527 -0.0038,0.346 -0.128568,0.842667 -0.277529,1.103172 -0.303133,0.530485 -0.379861,2.191776 -0.108693,2.359448 0.195616,0.12078 0.07274,1.970635 -0.18918,2.850673 -0.148017,0.496387 -0.413868,5.217839 -0.448209,7.957182 -0.01113,0.88571 0.02713,0.964185 0.586508,1.210474 1.857408,0.81823 0.583816,3.385397 -2.281275,4.59817 -3.212751,1.359606 -1.936187,2.521755 1.969982,1.793761 0.884063,-0.164829 2.18923,-0.381346 2.8997,-0.481047 0.710473,-0.09971 1.413746,-0.282491 1.562945,-0.406116 0.31687,-0.263117 0.36621,-1.613637 0.06568,-1.799301 -0.382232,-0.236115 0.01034,-2.367491 0.705385,-3.830349 0.359972,-0.757362 0.604368,-1.458399 0.543029,-1.557393 -0.109649,-0.177615 0.300367,-0.318558 1.230372,-0.422762 0.437176,-0.049 0.478429,-0.137822 0.531004,-1.154981 0.05968,-1.147408 0.451886,-1.454038 0.571244,-0.446358 0.05922,0.500414 0.07706,0.50649 1.535652,0.50649 h 1.476448 l 0.12165,1.164692 c 0.06703,0.640608 0.123004,1.514304 0.124424,1.941767 0.0053,1.383522 1.297612,1.626208 4.112495,0.771988 0.498042,-0.151092 0.919821,-0.275656 0.937583,-0.276603 0.07413,-0.0047 0.665586,1.92857 0.765052,2.501451 0.05944,0.342448 0.09339,1.542828 0.0754,2.667501 -0.04452,2.798071 0.477901,3.37103 2.911264,3.193421 1.471622,-0.107279 1.900804,-2.115008 0.836282,-3.910364 -0.615028,-1.037053 -0.689126,-5.256187 -0.09991,-5.688393 0.416335,-0.305735 0.376037,-1.850603 -0.136448,-5.207342 -0.99845,-6.539887 -0.959634,-6.138332 -0.620741,-6.41968 0.221432,-0.183775 0.246351,-0.354463 0.106387,-0.72296 -0.100893,-0.265244 -0.34212,-1.17537 -0.536552,-2.022251 -0.194195,-0.846643 -0.499518,-2.051077 -0.678557,-2.67629 -0.512721,-1.791098 -0.60542,-1.666724 1.513915,-2.024567 3.030392,-0.511538 4.481864,-0.221506 8.763397,1.749813 1.393945,0.641793 1.957993,0.613521 1.690146,-0.08511 -0.126466,-0.32942 -2.391399,-1.500464 -4.432581,-2.291453 -1.200222,-0.465122 -1.626627,-0.851946 -0.942208,-0.854785 0.124095,-4.76e-4 0.481133,-0.204834 0.793266,-0.454684 0.868433,-0.69484 0.244834,-1.401767 -0.827028,-0.937117 -0.378208,0.163644 -1.134995,0.45953 -1.681821,0.657278 l -0.994475,0.35986 -1.942228,-0.465784 c -1.068312,-0.256244 -2.283535,-0.537286 -2.700343,-0.624434 -1.490094,-0.311661 -0.233181,-1.496712 1.989409,-1.875627 0.260506,-0.04452 0.559088,-0.22192 0.66329,-0.394091 0.1042,-0.172408 0.468883,-0.577559 0.810382,-0.900115 0.414441,-0.391467 0.661155,-0.836348 0.742385,-1.336756 0.06703,-0.412547 0.237902,-0.865578 0.379289,-1.006962 0.254344,-0.254351 0.195799,-1.123565 -0.135991,-2.019942 -0.0772,-0.208404 -0.163314,-0.463805 -0.191496,-0.568007 -0.02818,-0.104202 -0.179268,-0.283168 -0.335809,-0.397791 -0.15654,-0.114384 -0.230287,-0.29651 -0.163739,-0.404265 0.06654,-0.107754 -0.04835,-0.410817 -0.255327,-0.673928 -0.206984,-0.263111 -0.37605,-0.558546 -0.37605,-0.656352 0,-0.292006 -0.55593,-1.31635 -0.844145,-1.555542 -0.147542,-0.122438 -0.323356,-0.473619 -0.390851,-0.780779 -0.183775,-0.836225 -1.185221,-1.77575 -2.628187,-2.464907 l -1.287728,-0.615188 0.728047,-0.6323 0.728511,-0.6322996 -0.947296,-0.860799 C 47.050581,8.3067551 46.342578,7.7840151 45.998475,7.6187137 45.234008,7.2513984 45.178964,6.372517 45.913825,6.268078 46.239693,6.221898 46.33983,6.0828275 46.33983,5.678333 c 0,-0.5605634 -1.96161,-1.6882318 -2.545853,-1.4639599 -0.598454,0.2294826 -0.641542,-0.3051696 -0.138765,-1.7308465 0.462751,-1.3131868 0.564941,-1.4557664 1.228522,-1.71650942 0.718523,-0.282294 0.720921,-0.285966 0.284932,-0.527764 -0.263232,-0.14612 -0.536772,-0.226028 -0.792805,-0.237749 z M 48.08411,19.993224 c 0.07294,-0.03001 0.160546,-0.02974 0.252552,0.0056 0.276611,0.106097 0.277756,0.145937 0.01155,0.412127 -0.335817,0.335816 -0.59386,0.191195 -0.428321,-0.240061 0.03328,-0.08692 0.09126,-0.1476 0.164206,-0.177618 z m 0.950998,7.839229 c 0.172644,0 0.369813,0.09106 0.43849,0.202133 0.222143,0.359499 -0.101654,0.448082 -0.431553,0.117948 -0.295554,-0.295319 -0.296099,-0.320081 -0.0069,-0.320081 z m 1.166539,0.18918 c 0.156303,0 0.336613,0.08545 0.401029,0.189645 0.06442,0.1042 -0.01066,0.189644 -0.16698,0.189644 -0.156303,0 -0.337073,-0.08545 -0.401489,-0.189644 -0.06443,-0.104199 0.01113,-0.189645 0.16744,-0.189645 z"
     style="stroke-width:0.236824"
     sodipodi:insensitive="true" />
</svg>
