<?xml version="1.0" encoding="UTF-8" standalone="no"?>
<!-- Created with Inkscape (http://www.inkscape.org/) -->

<svg
   version="1.0"
   width="200"
   height="200"
   id="svg4391"
   sodipodi:docname="asakura.svg"
   inkscape:version="1.1.1 (3bf5ae0d25, 2021-09-20)"
   xmlns:inkscape="http://www.inkscape.org/namespaces/inkscape"
   xmlns:sodipodi="http://sodipodi.sourceforge.net/DTD/sodipodi-0.dtd"
   xmlns="http://www.w3.org/2000/svg"
   xmlns:svg="http://www.w3.org/2000/svg">
  <sodipodi:namedview
     id="namedview11"
     pagecolor="#ffffff"
     bordercolor="#666666"
     borderopacity="1.0"
     inkscape:pageshadow="2"
     inkscape:pageopacity="0.0"
     inkscape:pagecheckerboard="0"
     showgrid="false"
     fit-margin-top="0"
     fit-margin-left="0"
     fit-margin-right="0"
     fit-margin-bottom="0"
     inkscape:zoom="0.54142442"
     inkscape:cx="-405.41208"
     inkscape:cy="399.87114"
     inkscape:window-width="1920"
     inkscape:window-height="1017"
     inkscape:window-x="-8"
     inkscape:window-y="-8"
     inkscape:window-maximized="1"
     inkscape:current-layer="svg4391" />
  <defs
     id="defs4393" />
  <rect
     width="200"
     height="200"
     x="5e-07"
     y="5e-07"
     id="rect2539"
     style="display:inline;opacity:1;fill:#000000;fill-opacity:1;fill-rule:evenodd;stroke:#000000;stroke-width:0;stroke-linecap:round;stroke-linejoin:round;stroke-miterlimit:4;stroke-dasharray:none;stroke-opacity:1" />
  <path
     d="m 97.296855,106.58081 c -0.0419,-0.0456 -0.805703,-0.17974 -1.697336,-0.29799 -3.899581,-0.5172 -7.033254,-1.63789 -11.021794,-3.94173 -1.996574,-1.15325 -3.888282,-2.597264 -4.225049,-3.225146 -0.130293,-0.242927 -0.395654,-0.64246 -0.589689,-0.887855 -0.718873,-0.90915 -0.967217,-3.853158 -0.470214,-5.57418 0.401121,-1.388997 1.263724,-2.52517 2.793792,-3.679825 2.912694,-2.198043 3.918946,-2.939012 3.994189,-2.941181 0.04328,-0.0012 0.199194,0.364243 0.346477,0.8122 0.473767,1.440931 2.590399,3.438026 5.251907,4.955301 2.595658,1.479739 5.318921,2.173777 8.501522,2.166661 2.6145,-0.0058 3.48471,-0.179739 6.79991,-1.358819 1.60516,-0.570888 4.63211,-2.71639 6.03732,-4.279256 0.48492,-0.539325 0.72836,-0.975553 0.89698,-1.607324 0.12729,-0.476907 0.27647,-0.843906 0.33149,-0.815551 0.13582,0.06998 1.59429,1.073065 3.35918,2.310311 1.29216,0.905857 2.76227,2.330849 2.9225,2.832818 0.0313,0.09815 0.0999,0.21337 0.1524,0.256033 0.0525,0.04266 0.24052,0.574616 0.41785,1.182118 0.33827,1.158884 0.35861,2.623685 0.0558,4.014954 -0.39086,1.795601 -1.5948,3.278163 -3.83658,4.724451 -0.8507,0.54883 -1.57877,1.03677 -1.61794,1.0843 -0.29384,0.35661 -5.07819,2.59529 -6.33831,2.9658 -1.65988,0.48806 -2.41273,0.65272 -4.55789,0.99688 -1.86601,0.29937 -2.9958,0.38865 -4.925837,0.38924 -1.377455,4.7e-4 -2.538746,-0.0366 -2.580648,-0.0822 z m 2.022782,-13.683474 c -2.557285,-0.189158 -5.049129,-0.908821 -6.921701,-1.99904 -2.458749,-1.431493 -4.62587,-3.447275 -4.900546,-4.55832 -0.479683,-1.940278 1.436375,-3.430509 2.255908,-1.754551 0.241014,0.492878 0.203102,0.988651 -0.119702,1.565314 -0.156383,0.279368 -0.284335,0.567608 -0.284335,0.640533 0,0.246531 2.056739,1.81977 3.418415,2.614815 0.744218,0.434526 1.737695,0.903131 2.207727,1.041344 0.470031,0.138213 1.178758,0.348475 1.57495,0.467249 1.231584,0.369217 3.214921,0.590169 4.407277,0.490989 2.03412,-0.1692 4.73625,-0.929289 6.26402,-1.762026 1.00017,-0.545161 2.93022,-1.968552 3.41211,-2.516401 l 0.40324,-0.458422 -0.28995,-0.638306 c -0.15948,-0.351069 -0.26902,-0.756453 -0.24344,-0.900854 0.0256,-0.144401 0.0514,-0.346986 0.0574,-0.450189 0.0174,-0.300337 0.76447,-0.975882 1.07915,-0.975882 0.37489,0 1.04024,0.677644 1.1552,1.176548 0.0496,0.215404 0.0583,0.7536 0.0193,1.195992 -0.0674,0.764115 -0.12312,0.857562 -1.11361,1.868139 -1.50372,1.534198 -3.00307,2.566909 -5.40215,3.720851 -1.81659,0.873764 -4.77172,1.395504 -6.979263,1.232217 z m -0.172813,-2.429112 c -0.798805,-0.187 -0.984534,-0.306875 -1.940569,-1.25249 -0.544276,-0.538345 -1.019152,-1.456471 -1.022345,-1.976609 -0.0044,-0.720269 -0.167004,-0.772541 -1.107788,-0.356173 -1.062526,0.470246 -1.22967,0.475775 -2.217202,0.07334 -1.414054,-0.576248 -2.003877,-1.558839 -1.992499,-3.319314 0.0108,-1.671732 0.281719,-2.11578 2.288277,-3.750691 0.923048,-0.752084 2.057822,-1.708765 2.521716,-2.125956 1.210843,-1.088939 1.385651,-1.152903 1.951474,-0.71407 0.257018,0.199333 0.854973,0.507648 1.328786,0.685143 l 0.861482,0.322717 0.07122,2.010267 c 0.06664,1.880988 0.08954,2.010268 0.356084,2.010268 0.26657,0 0.28944,-0.12928 0.35608,-2.013428 l 0.0712,-2.013428 0.4273,-0.142945 c 0.67386,-0.225429 1.53298,-0.687351 1.94227,-1.044305 l 0.3755,-0.32748 1.12006,0.950243 c 0.61603,0.522635 1.44053,1.226124 1.83223,1.56331 0.39169,0.337186 1.04974,0.89719 1.46234,1.244454 0.41259,0.347264 0.97183,0.960444 1.24276,1.362621 0.45522,0.675747 0.49286,0.817915 0.49613,1.873633 0.003,0.884155 -0.0642,1.269918 -0.29624,1.706501 -0.41578,0.782409 -1.48237,1.72707 -1.95329,1.729999 -0.21009,0.0012 -0.46534,0.05997 -0.56723,0.13037 -0.19414,0.134123 -1.35705,-0.138166 -1.87195,-0.438309 -0.39248,-0.228781 -0.5264,-0.119141 -0.63671,0.521261 -0.23538,1.366578 -1.64908,2.891829 -3.06854,3.310665 -0.77633,0.22907 -0.97662,0.227137 -2.030563,-0.01959 z M 73.019214,89.982777 C 70.530523,89.486761 68.619462,88.630941 66.734173,87.168184 64.842791,85.700698 62.799587,82.982076 61.91504,80.755996 61.796374,80.457358 61.612707,80.003584 61.506888,79.747609 61.401072,79.491634 61.239487,78.828425 61.147813,78.273813 61.056139,77.7192 60.906363,77.09779 60.81498,76.892901 c -0.224151,-0.502562 -0.225023,-6.077034 -0.0011,-6.91889 0.09079,-0.3413 0.241195,-1.004509 0.334234,-1.473797 0.534321,-2.695088 2.250077,-5.623317 4.699533,-8.02055 1.179776,-1.154621 3.79575,-2.718977 5.270055,-3.151499 1.767857,-0.518642 4.6326,-0.749085 5.829151,-0.468902 3.004891,0.703622 3.605111,0.976282 6.348535,2.883925 1.065456,0.740865 1.917681,1.368278 1.893834,1.394251 -0.02384,0.02597 -0.529582,0.185935 -1.123859,0.355473 -1.739858,0.496353 -3.254623,1.418224 -4.556699,2.773161 -1.822282,1.896264 -2.526049,3.106924 -3.227899,5.552801 -0.271475,0.946066 -0.372391,1.702069 -0.424535,3.180298 -0.0611,1.732335 -0.02829,2.111723 0.307607,3.556374 0.343829,1.478753 0.847274,2.804321 1.114133,2.933502 0.05875,0.02844 0.106826,0.126816 0.106826,0.218607 0,0.256979 1.073643,1.746732 1.906818,2.645837 1.510879,1.630437 3.074313,2.511069 5.545471,3.123583 0.220997,0.05478 0.381236,0.162369 0.356085,0.239092 -0.07448,0.227224 -3.681977,2.78484 -4.532395,3.213345 -2.21927,1.118241 -5.23206,1.533503 -7.641579,1.053265 z m 50.585406,-0.173053 c -1.88345,-0.166797 -3.78799,-0.938646 -5.91101,-2.395542 -0.82256,-0.564467 -1.77402,-1.21644 -2.11436,-1.448828 -0.34034,-0.232389 -0.59086,-0.452951 -0.55672,-0.49014 0.0341,-0.03719 0.60103,-0.215384 1.25976,-0.395991 0.65872,-0.180607 1.62282,-0.560779 2.14246,-0.844828 0.88032,-0.48121 3.11376,-2.288896 3.11524,-2.521388 3.1e-4,-0.05707 0.18812,-0.321589 0.41724,-0.587823 0.65664,-0.762988 1.42086,-2.154847 1.80439,-3.286297 0.19369,-0.571378 0.3923,-1.143588 0.44136,-1.271576 0.12605,-0.328824 0.11065,-0.232006 0.31715,-1.993296 0.15271,-1.302443 0.15456,-1.829487 0.01,-2.792456 -0.22473,-1.495213 -0.63707,-2.953233 -1.15386,-4.080003 -0.3899,-0.850089 -1.63221,-2.76167 -2.10311,-3.236124 -1.38579,-1.396232 -3.33146,-2.551965 -5.11055,-3.035678 -0.56795,-0.154421 -1.02993,-0.319666 -1.02661,-0.367212 0.0157,-0.224622 3.93454,-2.744678 5.08596,-3.270552 1.86948,-0.853829 4.7427,-1.252747 6.64502,-0.922597 0.61914,0.107451 1.22804,0.207412 1.35313,0.222134 0.12508,0.01472 0.41971,0.0814 0.65473,0.148179 3.02898,0.860626 6.47116,3.451878 8.13165,6.121446 1.04303,1.67688 1.30291,2.170641 1.68415,3.199856 0.57368,1.548722 0.6391,1.812109 0.94406,3.800844 0.41961,2.736327 0.34146,4.724134 -0.30799,7.834392 -0.21018,1.006555 -1.25544,3.407061 -2.052,4.712542 -0.97512,1.598117 -2.7346,3.468456 -4.26929,4.538295 -0.91374,0.636975 -2.615,1.472713 -3.85443,1.893476 -0.89398,0.30349 -1.55621,0.405558 -2.99111,0.461013 -1.01361,0.03917 -2.1634,0.04284 -2.5551,0.0082 z M 83.936772,84.108632 c -2.730509,-1.166775 -4.4151,-2.826594 -5.759514,-5.674818 -0.862936,-1.828187 -1.285481,-4.725192 -0.951065,-6.520597 0.08741,-0.469288 0.223676,-1.202308 0.302811,-1.628933 0.558164,-3.009134 3.467972,-6.427972 6.486668,-7.621418 1.299832,-0.513891 2.178744,-0.494569 2.661755,0.05851 0.93224,1.067485 0.504503,2.676105 -0.711584,2.676105 -0.668333,0 -0.997627,-0.23055 -1.243044,-0.870294 -0.238679,-0.622184 -0.363342,-0.618598 -1.498196,0.04311 -1.038999,0.605817 -1.587029,1.075271 -2.492594,2.135212 -0.851344,0.996477 -1.043528,1.330028 -1.615059,2.803089 -0.955259,2.462077 -0.969845,5.404786 -0.03831,7.730903 0.165138,0.412366 0.300252,0.820194 0.300252,0.906281 0,0.254855 0.571928,1.020584 1.709207,2.288382 0.807076,0.8997 1.341662,1.338555 2.186523,1.794974 1.229652,0.664293 1.113477,0.68674 1.589178,-0.307044 0.19853,-0.414752 0.770107,-0.611657 1.401191,-0.482706 1.002194,0.20478 1.243697,1.671293 0.427947,2.598688 -0.340811,0.387455 -0.48459,0.439007 -1.180427,0.423248 -0.436731,-0.0099 -1.143941,-0.168185 -1.575734,-0.352695 z m 29.880338,0.101065 c -0.79532,-0.53722 -0.89253,-1.964662 -0.17973,-2.639234 0.66003,-0.624636 1.60933,-0.321345 1.9072,0.609326 0.13315,0.41602 0.19827,0.460068 0.54479,0.368502 1.61756,-0.427444 3.70746,-2.356354 4.75914,-4.392542 0.37118,-0.718645 0.90988,-2.588043 1.11714,-3.876701 0.18047,-1.122052 0.0501,-2.174607 -0.51955,-4.194228 -0.71844,-2.547203 -2.46128,-4.634699 -4.90964,-5.880549 -0.65454,-0.333061 -0.97936,-0.271096 -0.97936,0.186829 0,0.306348 -0.78868,1.006385 -1.13382,1.006385 -0.18416,0 -0.5492,-0.178081 -0.8112,-0.395736 -0.40019,-0.332464 -0.47635,-0.494923 -0.47635,-1.016092 0,-1.850924 1.41418,-2.291438 3.74772,-1.167405 2.98291,1.436837 5.09254,4.100009 6.03709,7.621168 0.3345,1.246959 0.32576,4.248189 -0.0165,5.662482 -0.58146,2.402839 -1.81059,4.43558 -3.7025,6.123212 -1.18454,1.056638 -1.99443,1.521409 -3.37972,1.93953 -1.25457,0.378665 -1.50259,0.384239 -2.00474,0.04505 z M 88.194986,81.047532 c -1.489789,-0.223192 -3.205802,-1.66059 -3.834058,-3.211558 l -0.22445,-0.554099 -1.541642,-0.267968 c -1.278452,-0.222219 -1.629849,-0.345081 -2.058319,-0.719669 -0.844819,-0.738578 -1.132853,-1.4697 -1.146148,-2.909296 -0.01077,-1.16493 0.01878,-1.292111 0.46946,-2.021011 0.645393,-1.04382 1.736722,-1.642856 3.178936,-1.744936 l 1.02485,-0.07254 0.370748,-0.82536 c 0.942439,-2.098064 3.250829,-3.434872 5.238287,-3.033536 1.058607,0.213771 1.759814,0.664492 4.001523,2.57209 1.007775,0.857573 2.028066,1.713745 2.267315,1.902603 0.239248,0.188857 0.479925,0.422555 0.534836,0.519328 0.09135,0.160992 -0.363203,1.821414 -0.623843,2.278807 -0.08046,0.141191 -0.692389,0.193921 -2.250476,0.193921 -1.648526,0 -2.126408,0.04453 -2.080903,0.19392 0.04244,0.139333 0.677265,0.215756 2.255203,0.271489 l 2.196135,0.07757 0.161871,0.714188 c 0.08903,0.392804 0.233245,0.859442 0.320477,1.036973 0.269245,0.547956 0.187757,0.710835 -0.731607,1.462318 -0.489617,0.40021 -1.415625,1.167316 -2.057795,1.704681 -0.642172,0.537365 -1.498935,1.238329 -1.903921,1.557698 -1.036373,0.81728 -2.140607,1.088003 -3.566479,0.874388 z m 22.020844,-0.116197 c -0.88596,-0.255923 -1.98971,-1.078638 -4.65588,-3.47041 -0.54594,-0.489752 -1.18114,-1.011752 -1.41155,-1.16 -0.28579,-0.183874 -0.38828,-0.344625 -0.32246,-0.505773 0.0531,-0.129925 0.22659,-0.670712 0.38562,-1.201749 l 0.28914,-0.965522 2.00296,-0.04287 c 1.66797,-0.0357 2.00296,-0.08179 2.00296,-0.275571 0,-0.193922 -0.33754,-0.239873 -2.02532,-0.275719 l -2.02531,-0.04301 -0.20418,-0.732668 c -0.11229,-0.402967 -0.24837,-0.852191 -0.30239,-0.998273 -0.11486,-0.310571 0.13621,-0.588807 1.99339,-2.20911 3.5975,-3.138639 4.06107,-3.420471 5.62614,-3.420471 0.89264,0 1.20875,0.07486 1.92286,0.455343 1.04664,0.557664 2.27868,1.886131 2.50194,2.697758 l 0.16277,0.591737 1.08902,0.192706 c 1.94032,0.343345 2.25543,0.474392 2.86083,1.189748 1.34872,1.593674 1.25816,3.969252 -0.20095,5.271513 -0.78253,0.698407 -1.61108,1.003727 -2.72384,1.003727 h -0.90353 l -0.39608,0.888328 c -0.47975,1.075969 -1.22159,1.892423 -2.29725,2.528311 -0.641,0.378931 -1.02279,0.489119 -1.87333,0.540666 -0.58754,0.03561 -1.26054,0.0092 -1.49556,-0.05869 z M 99.390854,77.192593 c -1.634231,-0.41292 -2.672116,-1.914374 -2.681528,-3.879231 -0.0054,-1.137777 0.305841,-1.96902 1.034646,-2.762821 1.170402,-1.274781 2.997408,-1.496286 4.378688,-0.530869 1.53466,1.072615 2.06994,3.336264 1.22074,5.162378 -0.54143,1.164254 -1.64555,1.995514 -2.74621,2.067534 -0.42847,0.02804 -0.97132,0.0024 -1.206336,-0.05699 z m 3.560846,-7.23873 c -0.47802,-0.455991 -1.72654,-1.139535 -2.08566,-1.14186 -0.35769,-0.0023 -0.42317,-0.380944 -0.39714,-2.296443 0.0233,-1.715531 -0.0827,-2.209861 -0.42468,-1.97968 -0.09863,0.06639 -0.154847,0.834875 -0.154847,2.116721 0,1.476912 -0.04738,2.027285 -0.178043,2.068089 -0.827513,0.258426 -1.597037,0.646129 -2.03517,1.025365 -0.623126,0.539361 -0.668286,0.521246 -2.344672,-0.940557 -0.587541,-0.512332 -1.356684,-1.15269 -1.709207,-1.423019 -2.028658,-1.555653 -2.672707,-2.394569 -2.932823,-3.820189 -0.110278,-0.60441 0.226009,-1.87387 0.693183,-2.616712 0.668551,-1.063051 2.382134,-1.564947 3.663979,-1.073156 0.352523,0.135249 0.713462,0.246922 0.802087,0.248165 0.08862,0.0012 0.237126,-0.326461 0.330009,-0.728228 0.267978,-1.159153 1.13931,-2.272249 2.286318,-2.920695 0.360624,-0.203874 0.833404,-0.285008 1.709206,-0.293315 1.13875,-0.0108 1.26071,0.0209 2.05251,0.533499 0.95994,0.621449 1.71045,1.674524 1.9587,2.748363 0.17641,0.763073 0.18613,0.765148 1.36008,0.290368 0.47479,-0.192017 0.75429,-0.210638 1.34141,-0.08936 0.9651,0.19935 1.50973,0.558016 2.07663,1.367554 0.58294,0.832439 0.80916,1.732819 0.68713,2.734766 -0.14996,1.231309 -0.80161,2.058793 -3.06693,3.894521 -0.82256,0.666566 -1.86743,1.547605 -2.32195,1.957866 -0.45451,0.41026 -0.83909,0.745844 -0.8546,0.74574 -0.0155,-1.04e-4 -0.2205,-0.183615 -0.45552,-0.4078 z M 88.175971,62.672452 c -0.214446,-0.126734 -0.486851,-0.434624 -0.605344,-0.684199 -0.594047,-1.251211 0.0603,-2.51012 2.242873,-4.315088 0.889998,-0.736019 2.822892,-2.049279 3.016189,-2.049279 0.04594,0 0.355233,-0.129734 0.687318,-0.288299 1.588227,-0.758349 1.796736,-0.833646 3.381254,-1.221037 1.360938,-0.332731 5.096169,-0.370359 6.338309,-0.06386 2.8443,0.70185 5.74105,2.187551 7.75573,3.977807 0.74709,0.663865 1.59247,1.662532 1.72237,2.03468 0.53725,1.539087 -0.46814,3.241724 -1.55329,2.630524 -0.7236,-0.407559 -0.85546,-1.200952 -0.35357,-2.127458 l 0.29228,-0.539551 -1.08308,-0.933936 c -1.06666,-0.919776 -2.74554,-2.072646 -3.01831,-2.072646 -0.0767,0 -0.44186,-0.163277 -0.81136,-0.362838 -0.36951,-0.19956 -1.31278,-0.518085 -2.09617,-0.70783 -0.78338,-0.189745 -1.65611,-0.410431 -1.93938,-0.490413 -0.78365,-0.221261 -3.059173,-0.173499 -4.256492,0.08934 -1.375303,0.301911 -3.25817,0.841339 -3.548354,1.016577 -0.124379,0.07511 -0.642765,0.344818 -1.151966,0.599346 -1.009123,0.504419 -1.659951,0.92713 -2.510686,1.630685 -0.303403,0.250914 -0.759954,0.620977 -1.014555,0.822363 -0.438527,0.346868 -0.62484,0.815772 -0.324133,0.815772 0.188038,0 0.573392,0.836932 0.573392,1.245321 0,0.407063 -0.738908,1.239102 -1.092905,1.230651 -0.143118,-0.0034 -0.435671,-0.109903 -0.65012,-0.236637 z m -2.886077,-2.299973 c -1.80551,-1.325109 -2.842959,-2.058199 -3.317137,-2.343977 -0.283151,-0.17065 -0.85503,-0.678972 -1.270846,-1.129603 -1.848105,-2.002851 -2.294634,-5.421293 -1.053736,-8.066965 0.654749,-1.395968 2.433035,-2.927123 5.356852,-4.6124 0.705048,-0.406388 1.347483,-0.794518 1.427635,-0.862512 0.299339,-0.25394 4.152866,-1.754962 5.337977,-2.079243 2.102625,-0.575344 2.57511,-0.685161 3.638906,-0.845769 4.118847,-0.621846 7.448415,-0.499307 11.815175,0.434843 0.93584,0.200197 3.79556,1.17992 4.84275,1.659096 0.23502,0.107539 0.84392,0.386653 1.35312,0.620255 0.90334,0.414411 2.53234,1.361597 4.43129,2.576579 2.82555,1.807835 4.12236,4.993952 3.34807,8.225817 -0.51347,2.14318 -1.54409,3.304871 -4.7771,5.384607 -0.58142,0.374013 -1.27938,0.844309 -1.55104,1.045102 -0.63898,0.47229 -0.88148,0.464657 -0.88148,-0.02774 0,-1.050348 -0.63624,-1.895129 -2.71205,-3.600991 -4.18653,-3.440406 -9.69927,-4.775758 -14.794241,-3.583614 -1.495006,0.349808 -4.024408,1.261684 -4.570966,1.647879 -0.195846,0.138385 -0.644513,0.419023 -0.997038,0.623642 -1.556574,0.903496 -4.395243,3.534731 -4.426016,4.102584 -0.0058,0.107215 -0.117976,0.455971 -0.249259,0.775014 l -0.238696,0.580077 z"
     id="path4389"
     style="fill:#ffffff;stroke-width:0.155136" />
  <path
     d="m 55.836498,159.87063 c -0.0419,-0.0456 -0.805702,-0.17974 -1.697335,-0.298 -3.899581,-0.5172 -7.033254,-1.63789 -11.021794,-3.94173 -1.996574,-1.15323 -3.888282,-2.59726 -4.225049,-3.22514 -0.130293,-0.24293 -0.395654,-0.64245 -0.589689,-0.88785 -0.718873,-0.90916 -0.967217,-3.85316 -0.470214,-5.57418 0.40112,-1.389 1.263724,-2.52517 2.793792,-3.67983 2.912694,-2.19804 3.918946,-2.93902 3.994189,-2.94118 0.04328,-0.001 0.199193,0.36425 0.346477,0.81221 0.473767,1.44092 2.590399,3.43802 5.251906,4.95529 2.595659,1.47974 5.318921,2.17377 8.501523,2.16667 2.614497,-0.006 3.484714,-0.17975 6.799911,-1.35883 1.605159,-0.57089 4.632104,-2.71639 6.037319,-4.27925 0.48492,-0.53934 0.728365,-0.97556 0.896984,-1.60733 0.127289,-0.4769 0.276461,-0.84391 0.331486,-0.81555 0.135818,0.07 1.594294,1.07307 3.359177,2.31031 1.292167,0.90586 2.762275,2.33085 2.922501,2.83282 0.03133,0.0982 0.09991,0.21338 0.152401,0.25604 0.05249,0.0427 0.240523,0.57461 0.417847,1.18211 0.33827,1.15888 0.358615,2.62368 0.05577,4.01496 -0.390856,1.7956 -1.594797,3.27816 -3.836583,4.72445 -0.850697,0.54883 -1.578771,1.03676 -1.61794,1.0843 -0.293833,0.35661 -5.078182,2.59527 -6.338309,2.9658 -1.659875,0.48806 -2.412726,0.65272 -4.557885,0.99688 -1.866008,0.29937 -2.995801,0.38865 -4.925839,0.38924 -1.377455,4.6e-4 -2.538746,-0.0366 -2.580649,-0.0822 z m 2.022783,-13.68347 c -2.557285,-0.18916 -5.049129,-0.90882 -6.921701,-1.99905 -2.458749,-1.43149 -4.62587,-3.44727 -4.900546,-4.55832 -0.479683,-1.94028 1.436375,-3.43051 2.255908,-1.75455 0.241014,0.49288 0.203102,0.98865 -0.119702,1.56531 -0.156383,0.27937 -0.284335,0.56761 -0.284335,0.64054 0,0.24653 2.056739,1.81977 3.418415,2.61481 0.744217,0.43453 1.737694,0.90313 2.207727,1.04134 0.470031,0.13821 1.178758,0.34848 1.57495,0.46726 1.231584,0.36921 3.214921,0.59017 4.407274,0.49099 2.03412,-0.16921 4.736248,-0.9293 6.264019,-1.76203 1.000174,-0.54516 2.93022,-1.96855 3.412118,-2.5164 l 0.403235,-0.45843 -0.289951,-0.63829 c -0.159475,-0.35108 -0.269021,-0.75647 -0.243441,-0.90087 0.02558,-0.1444 0.05142,-0.34697 0.05741,-0.45019 0.01744,-0.30033 0.764476,-0.97587 1.079153,-0.97587 0.374887,0 1.040235,0.67764 1.155199,1.17654 0.04964,0.21541 0.05832,0.75361 0.01929,1.196 -0.06741,0.7641 -0.123115,0.85756 -1.113612,1.86813 -1.503714,1.53419 -3.003065,2.56691 -5.402147,3.72086 -1.816586,0.87376 -4.771715,1.3955 -6.979261,1.23222 z m -0.172813,-2.42911 c -0.798805,-0.18701 -0.984534,-0.30688 -1.940569,-1.2525 -0.544276,-0.53834 -1.019152,-1.45647 -1.022345,-1.97661 -0.0044,-0.72027 -0.167004,-0.77255 -1.107788,-0.35618 -1.062526,0.47025 -1.22967,0.47578 -2.217203,0.0733 -1.414053,-0.57625 -2.003876,-1.55884 -1.992498,-3.31931 0.01081,-1.67174 0.281718,-2.11579 2.288277,-3.75069 0.923048,-0.75209 2.057822,-1.70877 2.521716,-2.12596 1.210843,-1.08893 1.385651,-1.15291 1.951474,-0.71408 0.257017,0.19934 0.854972,0.50765 1.328786,0.68515 l 0.861482,0.32271 0.07122,2.01028 c 0.06664,1.88098 0.08954,2.01027 0.356085,2.01027 0.266575,0 0.289439,-0.12929 0.356084,-2.01344 l 0.07122,-2.01342 0.427302,-0.14295 c 0.673863,-0.22542 1.532979,-0.68734 1.942271,-1.0443 l 0.375499,-0.32749 1.120057,0.95024 c 0.616033,0.52264 1.440534,1.22614 1.832227,1.56331 0.391694,0.33719 1.049747,0.8972 1.46234,1.24446 0.412593,0.34727 0.971837,0.96045 1.242766,1.36263 0.455218,0.67574 0.492864,0.81791 0.496126,1.87363 0.0027,0.88415 -0.06423,1.26991 -0.296237,1.7065 -0.415782,0.78241 -1.482373,1.72707 -1.953294,1.73 -0.210082,0.001 -0.465334,0.06 -0.567231,0.13036 -0.194136,0.13413 -1.357045,-0.13816 -1.871945,-0.4383 -0.392479,-0.22878 -0.526402,-0.11915 -0.636708,0.52125 -0.235377,1.36659 -1.649082,2.89184 -3.06854,3.31068 -0.776331,0.22906 -0.976618,0.22713 -2.030568,-0.0196 z m -26.127609,-0.48546 c -2.488692,-0.49602 -4.399753,-1.35183 -6.285041,-2.81459 -1.891383,-1.46748 -3.934586,-4.18611 -4.819134,-6.41218 -0.118665,-0.29864 -0.302333,-0.75241 -0.408151,-1.00839 -0.105817,-0.25597 -0.267401,-0.91918 -0.359076,-1.47379 -0.09167,-0.55462 -0.24145,-1.17603 -0.332832,-1.38092 -0.224152,-0.50257 -0.225023,-6.07704 -0.0011,-6.91889 0.09079,-0.3413 0.241193,-1.00451 0.334233,-1.4738 0.534321,-2.69509 2.250077,-5.62332 4.699533,-8.02055 1.179775,-1.15462 3.79575,-2.71898 5.270056,-3.1515 1.767856,-0.51864 4.632598,-0.74908 5.829149,-0.4689 3.004891,0.70362 3.605111,0.97628 6.348535,2.88392 1.065456,0.74087 1.917681,1.36828 1.893834,1.39425 -0.02384,0.026 -0.529582,0.18594 -1.123859,0.35548 -1.739858,0.49635 -3.254623,1.41822 -4.556699,2.77316 -1.822282,1.89626 -2.526049,3.10692 -3.227899,5.5528 -0.271475,0.94607 -0.372391,1.70207 -0.424535,3.1803 -0.06111,1.73233 -0.02829,2.11172 0.307607,3.55637 0.343829,1.47876 0.847273,2.80432 1.114133,2.93351 0.05875,0.0284 0.106825,0.1268 0.106825,0.2186 0,0.25698 1.073644,1.74673 1.906819,2.64584 1.510878,1.63043 3.074313,2.51107 5.545471,3.12358 0.220997,0.0548 0.381236,0.16238 0.356085,0.23909 -0.07448,0.22723 -3.681977,2.78484 -4.532395,3.21334 -2.21927,1.11824 -5.23206,1.53351 -7.641577,1.05327 z m 50.585404,-0.17305 c -1.883446,-0.16679 -3.787987,-0.93864 -5.911008,-2.39554 -0.822557,-0.56447 -1.774017,-1.21644 -2.114358,-1.44884 -0.340339,-0.23238 -0.590866,-0.45293 -0.556723,-0.49014 0.03414,-0.0372 0.601033,-0.21537 1.259756,-0.39598 0.658721,-0.18061 1.622829,-0.56077 2.142461,-0.84483 0.880322,-0.48122 3.113763,-2.2889 3.115239,-2.52138 3.1e-4,-0.0571 0.188124,-0.3216 0.417248,-0.58783 0.656634,-0.76299 1.420854,-2.15485 1.804388,-3.28629 0.193685,-0.57138 0.392297,-1.14359 0.441359,-1.27158 0.126051,-0.32882 0.110646,-0.232 0.31715,-1.9933 0.152704,-1.30244 0.154561,-1.82949 0.0098,-2.79246 -0.224728,-1.49521 -0.637065,-2.95323 -1.153862,-4.08 -0.389894,-0.85009 -1.6322,-2.76167 -2.103103,-3.23612 -1.385791,-1.39624 -3.331458,-2.55197 -5.110551,-3.03568 -0.567955,-0.15442 -1.029931,-0.31967 -1.026616,-0.36721 0.01566,-0.22463 3.934548,-2.74468 5.085964,-3.27055 1.869484,-0.85383 4.742702,-1.25275 6.645024,-0.9226 0.619133,0.10745 1.228037,0.20741 1.353122,0.22213 0.125088,0.0147 0.419717,0.0814 0.654732,0.14818 3.028981,0.86063 6.471168,3.45188 8.131655,6.12145 1.043028,1.67688 1.302905,2.17064 1.684148,3.19985 0.573678,1.54872 0.639099,1.81211 0.944065,3.80085 0.419603,2.73632 0.341458,4.72413 -0.307994,7.8344 -0.210178,1.00654 -1.255441,3.40706 -2.052005,4.71253 -0.975119,1.59812 -2.734592,3.46847 -4.269283,4.5383 -0.913744,0.63698 -2.615007,1.47271 -3.854434,1.89347 -0.893977,0.3035 -1.556213,0.40556 -2.991112,0.46102 -1.013609,0.0392 -2.1634,0.0428 -2.555093,0.008 z m -39.667847,-5.7011 c -2.730509,-1.16676 -4.4151,-2.82658 -5.759515,-5.67481 -0.862935,-1.82819 -1.285481,-4.72519 -0.951064,-6.5206 0.08741,-0.46929 0.223676,-1.20231 0.302811,-1.62893 0.558164,-3.00914 3.467972,-6.42797 6.486668,-7.62142 1.299832,-0.51389 2.178744,-0.49457 2.661755,0.0585 0.93224,1.06748 0.504503,2.6761 -0.711584,2.6761 -0.668333,0 -0.997627,-0.23055 -1.243044,-0.87029 -0.238679,-0.62219 -0.363342,-0.6186 -1.498196,0.0431 -1.038999,0.60581 -1.587029,1.07527 -2.492594,2.13521 -0.851344,0.99647 -1.043528,1.33003 -1.615059,2.80309 -0.955259,2.46207 -0.969845,5.40478 -0.03831,7.73091 0.165138,0.41236 0.300252,0.82019 0.300252,0.90627 0,0.25486 0.571928,1.02058 1.709207,2.28839 0.807076,0.8997 1.341662,1.33855 2.186523,1.79497 1.229652,0.66428 1.113477,0.68673 1.589178,-0.30704 0.19853,-0.41476 0.770107,-0.61166 1.401191,-0.48271 1.002194,0.20478 1.243697,1.67129 0.427947,2.59869 -0.340811,0.38746 -0.48459,0.43901 -1.180427,0.42325 -0.436731,-0.01 -1.143941,-0.16819 -1.575734,-0.35271 z m 29.880343,0.10107 c -0.795321,-0.53722 -0.892533,-1.96466 -0.179738,-2.63922 0.660033,-0.62465 1.609336,-0.32135 1.907204,0.60931 0.133152,0.41603 0.198271,0.46007 0.544785,0.36851 1.617568,-0.42745 3.707466,-2.35635 4.759148,-4.39255 0.371178,-0.71864 0.909877,-2.58803 1.117138,-3.8767 0.180466,-1.12205 0.05008,-2.1746 -0.519549,-4.19422 -0.718438,-2.54721 -2.461279,-4.6347 -4.909644,-5.88055 -0.654538,-0.33306 -0.979357,-0.2711 -0.979357,0.18683 0,0.30634 -0.788681,1.00638 -1.133821,1.00638 -0.184166,0 -0.549205,-0.17808 -0.811201,-0.39574 -0.400193,-0.33246 -0.476354,-0.49492 -0.476354,-1.01609 0,-1.85092 1.414187,-2.29144 3.74772,-1.1674 2.982918,1.43683 5.092544,4.10001 6.037096,7.62117 0.334496,1.24695 0.325762,4.24818 -0.01648,5.66248 -0.581456,2.40284 -1.810584,4.43557 -3.702495,6.12321 -1.184537,1.05664 -1.994427,1.52141 -3.37972,1.93953 -1.254573,0.37866 -1.502593,0.38424 -2.004735,0.045 z M 46.73463,134.33735 c -1.489789,-0.22319 -3.205802,-1.66059 -3.834058,-3.21156 l -0.22445,-0.5541 -1.541643,-0.26796 c -1.278451,-0.22222 -1.629848,-0.34509 -2.058318,-0.71968 -0.844819,-0.73858 -1.132853,-1.4697 -1.146148,-2.90929 -0.01077,-1.16493 0.01878,-1.29211 0.46946,-2.02101 0.645393,-1.04382 1.736722,-1.64286 3.178936,-1.74494 l 1.02485,-0.0725 0.370748,-0.82536 c 0.942439,-2.09806 3.250829,-3.43487 5.238287,-3.03353 1.058607,0.21377 1.759814,0.66449 4.001522,2.57209 1.007776,0.85757 2.028067,1.71374 2.267315,1.9026 0.239249,0.18886 0.479926,0.42255 0.534837,0.51933 0.09135,0.16099 -0.363203,1.82141 -0.623843,2.2788 -0.08046,0.14119 -0.69239,0.19392 -2.250476,0.19392 -1.648526,0 -2.126408,0.0445 -2.080903,0.19392 0.04244,0.13934 0.677265,0.21576 2.255203,0.27149 l 2.196135,0.0776 0.161871,0.71419 c 0.08903,0.3928 0.233245,0.85944 0.320477,1.03697 0.269245,0.54796 0.187757,0.71083 -0.731607,1.46232 -0.489617,0.40022 -1.415625,1.16732 -2.057795,1.70468 -0.642172,0.53736 -1.498935,1.23833 -1.903921,1.5577 -1.036373,0.81729 -2.140607,1.088 -3.566479,0.87439 z m 22.020843,-0.1162 c -0.885959,-0.25592 -1.989709,-1.07864 -4.65588,-3.47041 -0.545937,-0.48975 -1.181136,-1.01176 -1.411552,-1.16001 -0.28579,-0.18386 -0.388278,-0.34462 -0.322461,-0.50576 0.05306,-0.12992 0.226592,-0.67072 0.385621,-1.20175 l 0.289144,-0.96552 2.00296,-0.0429 c 1.667964,-0.0357 2.002963,-0.0818 2.002963,-0.27557 0,-0.19392 -0.337544,-0.23987 -2.025319,-0.27572 l -2.025319,-0.043 -0.204172,-0.73267 c -0.112294,-0.40297 -0.248374,-0.85219 -0.302399,-0.99828 -0.114853,-0.31057 0.136213,-0.5888 1.993399,-2.2091 3.5975,-3.13864 4.061068,-3.42048 5.626139,-3.42048 0.892633,0 1.208749,0.0749 1.922858,0.45535 1.046642,0.55766 2.278683,1.88613 2.501938,2.69776 l 0.162774,0.59173 1.089021,0.19271 c 1.940318,0.34334 2.255425,0.47439 2.860828,1.18975 1.348717,1.59367 1.258156,3.96925 -0.200956,5.27151 -0.782523,0.69841 -1.611081,1.00373 -2.723841,1.00373 h -0.903521 l -0.396087,0.88833 c -0.479747,1.07597 -1.221585,1.89242 -2.29725,2.52831 -0.641002,0.37893 -1.022785,0.48911 -1.87333,0.54066 -0.587541,0.0356 -1.260542,0.009 -1.495558,-0.0587 z m -10.824975,-3.73874 c -1.634231,-0.41292 -2.672116,-1.91438 -2.681528,-3.87923 -0.0055,-1.13778 0.305841,-1.96902 1.034646,-2.76282 1.170402,-1.27478 2.997406,-1.49629 4.378691,-0.53087 1.534661,1.07261 2.069941,3.33626 1.220732,5.16237 -0.541422,1.16427 -1.645544,1.99552 -2.746207,2.06753 -0.428469,0.0281 -0.971318,0.002 -1.206334,-0.057 z m 3.560848,-7.23873 c -0.478019,-0.45599 -1.726544,-1.13954 -2.085661,-1.14186 -0.357688,-0.002 -0.423168,-0.38095 -0.397142,-2.29645 0.02331,-1.71553 -0.08274,-2.20986 -0.424683,-1.97967 -0.09863,0.0664 -0.154843,0.83487 -0.154843,2.11672 0,1.47691 -0.04738,2.02728 -0.178043,2.06808 -0.827513,0.25843 -1.597037,0.64613 -2.03517,1.02537 -0.623126,0.53936 -0.668286,0.52125 -2.344672,-0.94056 -0.587541,-0.51233 -1.356684,-1.15269 -1.709207,-1.42302 -2.028658,-1.55565 -2.672707,-2.39456 -2.932823,-3.82018 -0.110278,-0.60441 0.226009,-1.87388 0.693183,-2.61672 0.668551,-1.06305 2.382134,-1.56494 3.663979,-1.07315 0.352523,0.13525 0.713462,0.24692 0.802087,0.24816 0.08862,0.001 0.237126,-0.32646 0.330009,-0.72823 0.267978,-1.15915 1.13931,-2.27225 2.286318,-2.92069 0.360624,-0.20388 0.833404,-0.28501 1.709207,-0.29332 1.138746,-0.0108 1.26071,0.0209 2.052511,0.5335 0.95994,0.62145 1.710443,1.67453 1.958699,2.74837 0.176412,0.76307 0.186128,0.76514 1.36008,0.29036 0.474787,-0.19201 0.75429,-0.21063 1.341411,-0.0894 0.965096,0.19935 1.509731,0.55802 2.076629,1.36756 0.582934,0.83243 0.809162,1.73281 0.687132,2.73476 -0.149965,1.23131 -0.801609,2.05879 -3.066937,3.89452 -0.822555,0.66657 -1.86743,1.54761 -2.321946,1.95787 -0.454514,0.41026 -0.839085,0.74584 -0.854604,0.74574 -0.01552,-1.1e-4 -0.220498,-0.18362 -0.455514,-0.4078 z m -14.775731,-7.28141 c -0.214447,-0.12674 -0.486851,-0.43463 -0.605344,-0.6842 -0.594047,-1.25121 0.0603,-2.51012 2.242873,-4.31509 0.889998,-0.73602 2.822892,-2.04928 3.016189,-2.04928 0.04594,0 0.355233,-0.12973 0.687318,-0.2883 1.588227,-0.75835 1.796736,-0.83364 3.381254,-1.22104 1.360938,-0.33273 5.096169,-0.37035 6.338308,-0.0639 2.844304,0.70185 5.741051,2.18755 7.755732,3.97781 0.747088,0.66386 1.592468,1.66253 1.722372,2.03468 0.537249,1.53908 -0.468143,3.24172 -1.553298,2.63052 -0.7236,-0.40756 -0.855455,-1.20095 -0.353564,-2.12746 l 0.292278,-0.53955 -1.083083,-0.93393 c -1.066658,-0.91978 -2.745534,-2.07265 -3.018304,-2.07265 -0.07675,0 -0.44186,-0.16328 -0.811364,-0.36284 -0.369504,-0.19956 -1.312779,-0.51808 -2.096165,-0.70783 -0.783387,-0.18974 -1.656108,-0.41043 -1.939383,-0.49041 -0.783649,-0.22126 -3.059173,-0.1735 -4.256492,0.0893 -1.375304,0.30191 -3.25817,0.84134 -3.548354,1.01658 -0.12438,0.0751 -0.642765,0.34481 -1.151966,0.59934 -1.009123,0.50442 -1.659951,0.92713 -2.510686,1.63069 -0.303403,0.25091 -0.759954,0.62097 -1.014555,0.82236 -0.438528,0.34687 -0.62484,0.81577 -0.324133,0.81577 0.188038,0 0.573392,0.83693 0.573392,1.24532 0,0.40707 -0.738909,1.2391 -1.092905,1.23065 -0.143118,-0.003 -0.435672,-0.1099 -0.65012,-0.23663 z m -2.886077,-2.29998 c -1.805511,-1.3251 -2.842959,-2.05819 -3.317137,-2.34397 -0.283151,-0.17065 -0.85503,-0.67897 -1.270846,-1.12961 -1.848105,-2.00285 -2.294634,-5.42129 -1.053736,-8.06696 0.654749,-1.39597 2.433035,-2.927124 5.356851,-4.612401 0.705049,-0.406388 1.347483,-0.794517 1.427636,-0.862512 0.299339,-0.25394 4.152866,-1.754961 5.337977,-2.079243 2.102625,-0.575344 2.57511,-0.68516 3.638906,-0.845769 4.118847,-0.621846 7.448415,-0.499306 11.815174,0.434843 0.935839,0.200198 3.79556,1.17992 4.842753,1.659097 0.235014,0.107539 0.84392,0.386652 1.353122,0.620254 0.903331,0.414411 2.532331,1.361597 4.431285,2.576579 2.825551,1.807832 4.122363,4.993952 3.348069,8.225822 -0.513466,2.14317 -1.544092,3.30487 -4.7771,5.3846 -0.581415,0.37402 -1.279382,0.84431 -1.551043,1.0451 -0.638973,0.47229 -0.881476,0.46466 -0.881476,-0.0277 0,-1.05035 -0.636238,-1.89513 -2.712052,-3.60099 -4.186527,-3.44041 -9.699269,-4.77576 -14.794238,-3.58361 -1.495006,0.3498 -4.024408,1.26168 -4.570967,1.64788 -0.195845,0.13838 -0.644513,0.41902 -0.997037,0.62364 -1.556574,0.90349 -4.395243,3.53473 -4.426016,4.10258 -0.0058,0.10722 -0.117976,0.45597 -0.249259,0.77502 l -0.238696,0.58007 z"
     id="path2530"
     style="fill:#ffffff;stroke-width:0.155136" />
  <path
     d="m 138.21624,159.87063 c -0.0419,-0.0456 -0.80571,-0.17974 -1.69734,-0.298 -3.89958,-0.5172 -7.03325,-1.63789 -11.02179,-3.94173 -1.99658,-1.15323 -3.88828,-2.59726 -4.22505,-3.22514 -0.13029,-0.24293 -0.39566,-0.64245 -0.58969,-0.88785 -0.71887,-0.90916 -0.96722,-3.85316 -0.47021,-5.57418 0.40112,-1.389 1.26372,-2.52517 2.79379,-3.67983 2.91269,-2.19804 3.91894,-2.93902 3.99419,-2.94118 0.0433,-0.001 0.19919,0.36425 0.34647,0.81221 0.47377,1.44092 2.5904,3.43802 5.25191,4.95529 2.59566,1.47974 5.31892,2.17377 8.50152,2.16667 2.6145,-0.006 3.48472,-0.17975 6.79991,-1.35883 1.60515,-0.57089 4.6321,-2.71639 6.03733,-4.27925 0.48491,-0.53934 0.72836,-0.97556 0.89698,-1.60733 0.12729,-0.4769 0.27645,-0.84391 0.33148,-0.81555 0.13582,0.07 1.59429,1.07307 3.35919,2.31031 1.29216,0.90586 2.76226,2.33085 2.92249,2.83282 0.0313,0.0982 0.0999,0.21338 0.1524,0.25604 0.0525,0.0427 0.24053,0.57461 0.41785,1.18211 0.33827,1.15888 0.35861,2.62368 0.0558,4.01496 -0.39085,1.7956 -1.5948,3.27816 -3.83659,4.72445 -0.85069,0.54883 -1.57876,1.03676 -1.61793,1.0843 -0.29383,0.35661 -5.07818,2.59527 -6.3383,2.9658 -1.65989,0.48806 -2.41274,0.65272 -4.55789,0.99688 -1.86601,0.29937 -2.99581,0.38865 -4.92584,0.38924 -1.37746,4.6e-4 -2.53875,-0.0366 -2.58065,-0.0822 z m 2.02278,-13.68347 c -2.55729,-0.18916 -5.04913,-0.90882 -6.9217,-1.99905 -2.45875,-1.43149 -4.62587,-3.44727 -4.90055,-4.55832 -0.47968,-1.94028 1.43638,-3.43051 2.25591,-1.75455 0.24101,0.49288 0.2031,0.98865 -0.1197,1.56531 -0.15638,0.27937 -0.28434,0.56761 -0.28434,0.64054 0,0.24653 2.05674,1.81977 3.41842,2.61481 0.74422,0.43453 1.73769,0.90313 2.20773,1.04134 0.47003,0.13821 1.17875,0.34848 1.57495,0.46726 1.23158,0.36921 3.21492,0.59017 4.40727,0.49099 2.03412,-0.16921 4.73625,-0.9293 6.26402,-1.76203 1.00017,-0.54516 2.93022,-1.96855 3.41211,-2.5164 l 0.40325,-0.45843 -0.28995,-0.63829 c -0.15949,-0.35108 -0.26903,-0.75647 -0.24344,-0.90087 0.0256,-0.1444 0.0514,-0.34697 0.0574,-0.45019 0.0174,-0.30033 0.76448,-0.97587 1.07916,-0.97587 0.37488,0 1.04023,0.67764 1.15519,1.17654 0.0496,0.21541 0.0583,0.75361 0.0193,1.196 -0.0674,0.7641 -0.1231,0.85756 -1.1136,1.86813 -1.50372,1.53419 -3.00307,2.56691 -5.40215,3.72086 -1.81658,0.87376 -4.77171,1.3955 -6.97926,1.23222 z m -0.17281,-2.42911 c -0.79881,-0.18701 -0.98454,-0.30688 -1.94057,-1.2525 -0.54428,-0.53834 -1.01915,-1.45647 -1.02235,-1.97661 -0.004,-0.72027 -0.167,-0.77255 -1.10778,-0.35618 -1.06253,0.47025 -1.22968,0.47578 -2.21721,0.0733 -1.41405,-0.57625 -2.00387,-1.55884 -1.9925,-3.31931 0.0108,-1.67174 0.28172,-2.11579 2.28828,-3.75069 0.92305,-0.75209 2.05782,-1.70877 2.52172,-2.12596 1.21084,-1.08893 1.38565,-1.15291 1.95147,-0.71408 0.25702,0.19934 0.85497,0.50765 1.32879,0.68515 l 0.86148,0.32271 0.0712,2.01028 c 0.0666,1.88098 0.0895,2.01027 0.35608,2.01027 0.26658,0 0.28944,-0.12929 0.35609,-2.01344 l 0.0712,-2.01342 0.4273,-0.14295 c 0.67387,-0.22542 1.53298,-0.68734 1.94228,-1.0443 l 0.37549,-0.32749 1.12006,0.95024 c 0.61603,0.52264 1.44054,1.22614 1.83223,1.56331 0.39169,0.33719 1.04974,0.8972 1.46234,1.24446 0.41259,0.34727 0.97184,0.96045 1.24277,1.36263 0.45521,0.67574 0.49285,0.81791 0.49612,1.87363 0.003,0.88415 -0.0642,1.26991 -0.29625,1.7065 -0.41578,0.78241 -1.48236,1.72707 -1.95328,1.73 -0.21008,0.001 -0.46533,0.06 -0.56723,0.13036 -0.19414,0.13413 -1.35705,-0.13816 -1.87195,-0.4383 -0.39248,-0.22878 -0.5264,-0.11915 -0.6367,0.52125 -0.23538,1.36659 -1.64909,2.89184 -3.06855,3.31068 -0.77633,0.22906 -0.97661,0.22713 -2.03056,-0.0196 z m -26.12761,-0.48546 c -2.48869,-0.49602 -4.39976,-1.35183 -6.28504,-2.81459 -1.89139,-1.46748 -3.93459,-4.18611 -4.81914,-6.41218 -0.11866,-0.29864 -0.30233,-0.75241 -0.40815,-1.00839 -0.10582,-0.25597 -0.2674,-0.91918 -0.35907,-1.47379 -0.0917,-0.55462 -0.24145,-1.17603 -0.33284,-1.38092 -0.22415,-0.50257 -0.22502,-6.07704 -10e-4,-6.91889 0.0908,-0.3413 0.24119,-1.00451 0.33423,-1.4738 0.53432,-2.69509 2.25008,-5.62332 4.69953,-8.02055 1.17978,-1.15462 3.79576,-2.71898 5.27006,-3.1515 1.76786,-0.51864 4.6326,-0.74908 5.82915,-0.4689 3.00489,0.70362 3.60511,0.97628 6.34854,2.88392 1.06545,0.74087 1.91768,1.36828 1.89383,1.39426 -0.0238,0.026 -0.52958,0.18593 -1.12386,0.35547 -1.73986,0.49635 -3.25462,1.41822 -4.5567,2.77316 -1.82228,1.89626 -2.52605,3.10692 -3.2279,5.5528 -0.27147,0.94607 -0.37239,1.70207 -0.42453,3.1803 -0.0611,1.73233 -0.0283,2.11172 0.3076,3.55637 0.34383,1.47876 0.84728,2.80432 1.11414,2.93351 0.0587,0.0284 0.10682,0.1268 0.10682,0.2186 0,0.25698 1.07365,1.74673 1.90682,2.64584 1.51088,1.63043 3.07431,2.51107 5.54547,3.12358 0.221,0.0548 0.38124,0.16238 0.35609,0.23909 -0.0745,0.22723 -3.68198,2.78484 -4.5324,3.21334 -2.21927,1.11824 -5.23206,1.53351 -7.64158,1.05327 z m 50.58541,-0.17305 c -1.88345,-0.16679 -3.788,-0.93864 -5.91101,-2.39554 -0.82257,-0.56447 -1.77402,-1.21644 -2.11436,-1.44884 -0.34034,-0.23238 -0.59087,-0.45293 -0.55672,-0.49014 0.0341,-0.0372 0.60103,-0.21537 1.25975,-0.39598 0.65871,-0.18061 1.62282,-0.56077 2.14245,-0.84483 0.88033,-0.48122 3.11378,-2.2889 3.11525,-2.52138 3.1e-4,-0.0571 0.18812,-0.3216 0.41724,-0.58783 0.65663,-0.76299 1.42087,-2.15485 1.8044,-3.28629 0.19368,-0.57138 0.39229,-1.14359 0.44136,-1.27158 0.12605,-0.32882 0.11064,-0.232 0.31714,-1.9933 0.1527,-1.30244 0.15457,-1.82949 0.01,-2.79245 -0.22473,-1.49522 -0.63707,-2.95324 -1.15387,-4.08001 -0.38989,-0.85009 -1.6322,-2.76167 -2.1031,-3.23612 -1.38578,-1.39623 -3.33146,-2.55197 -5.11055,-3.03568 -0.56795,-0.15442 -1.02993,-0.31967 -1.02661,-0.36721 0.0157,-0.22462 3.93454,-2.74468 5.08596,-3.27055 1.86949,-0.85383 4.74269,-1.25275 6.64502,-0.9226 0.61914,0.10745 1.22803,0.20741 1.35312,0.22213 0.12508,0.0147 0.41972,0.0814 0.65474,0.14818 3.02897,0.86063 6.47116,3.45188 8.13164,6.12145 1.04303,1.67688 1.30292,2.17064 1.68415,3.19986 0.57368,1.54872 0.6391,1.8121 0.94407,3.80084 0.41961,2.73633 0.34145,4.72413 -0.30799,7.8344 -0.21018,1.00654 -1.25545,3.40706 -2.05201,4.71253 -0.97511,1.59812 -2.73459,3.46847 -4.26928,4.5383 -0.91374,0.63698 -2.61501,1.47271 -3.85443,1.89347 -0.89399,0.3035 -1.55622,0.40556 -2.99112,0.46102 -1.0136,0.0392 -2.16339,0.0428 -2.55508,0.008 z m -39.66785,-5.7011 c -2.73051,-1.16676 -4.41511,-2.82658 -5.75952,-5.67481 -0.86294,-1.82819 -1.28548,-4.72519 -0.95106,-6.5206 0.0874,-0.46928 0.22367,-1.2023 0.30281,-1.62893 0.55816,-3.00913 3.46797,-6.42797 6.48666,-7.62142 1.29984,-0.51389 2.17875,-0.49457 2.66176,0.0585 0.93224,1.06748 0.5045,2.6761 -0.71158,2.6761 -0.66834,0 -0.99763,-0.23055 -1.24305,-0.87029 -0.23868,-0.62219 -0.36334,-0.6186 -1.49819,0.0431 -1.039,0.60581 -1.58703,1.07527 -2.4926,2.13521 -0.85134,0.99648 -1.04353,1.33003 -1.61506,2.80309 -0.95526,2.46207 -0.96984,5.40478 -0.0383,7.73091 0.16514,0.41236 0.30025,0.82019 0.30025,0.90627 0,0.25486 0.57193,1.02058 1.70921,2.28839 0.80707,0.8997 1.34166,1.33855 2.18652,1.79497 1.22965,0.66428 1.11348,0.68673 1.58918,-0.30704 0.19853,-0.41476 0.7701,-0.61166 1.40119,-0.48271 1.00219,0.20478 1.2437,1.67129 0.42795,2.59869 -0.34082,0.38746 -0.48459,0.43901 -1.18043,0.42325 -0.43673,-0.01 -1.14394,-0.16819 -1.57573,-0.35271 z m 29.88033,0.10107 c -0.79532,-0.53722 -0.89253,-1.96466 -0.17974,-2.63922 0.66005,-0.62465 1.60934,-0.32135 1.90722,0.60931 0.13315,0.41603 0.19826,0.46007 0.54478,0.36851 1.61757,-0.42745 3.70746,-2.35635 4.75915,-4.39255 0.37118,-0.71864 0.90987,-2.58803 1.11714,-3.8767 0.18047,-1.12205 0.0501,-2.1746 -0.51956,-4.19422 -0.71843,-2.54721 -2.46127,-4.6347 -4.90965,-5.88055 -0.65453,-0.33306 -0.97934,-0.2711 -0.97934,0.18683 0,0.30635 -0.78868,1.00638 -1.13383,1.00638 -0.18416,0 -0.5492,-0.17808 -0.8112,-0.39573 -0.40019,-0.33247 -0.47636,-0.49493 -0.47636,-1.0161 0,-1.85092 1.4142,-2.29143 3.74773,-1.1674 2.98292,1.43684 5.09254,4.10001 6.03709,7.62117 0.3345,1.24696 0.32577,4.24819 -0.0165,5.66248 -0.58145,2.40284 -1.81058,4.43557 -3.70249,6.12321 -1.18454,1.05664 -1.99443,1.52141 -3.37972,1.93953 -1.25457,0.37866 -1.50259,0.38424 -2.00474,0.045 z m -25.62212,-3.16216 c -1.48979,-0.22319 -3.2058,-1.66059 -3.83406,-3.21156 l -0.22445,-0.5541 -1.54164,-0.26796 c -1.27845,-0.22222 -1.62985,-0.34509 -2.05832,-0.71968 -0.84482,-0.73858 -1.13285,-1.4697 -1.14615,-2.90929 -0.0108,-1.16493 0.0188,-1.29211 0.46946,-2.02101 0.64539,-1.04382 1.73672,-1.64286 3.17894,-1.74494 l 1.02485,-0.0725 0.37075,-0.82536 c 0.94243,-2.09806 3.25083,-3.43487 5.23828,-3.03353 1.05861,0.21377 1.75982,0.66449 4.00153,2.57209 1.00777,0.85757 2.02806,1.71374 2.26731,1.9026 0.23925,0.18886 0.47993,0.42255 0.53484,0.51933 0.0914,0.16099 -0.36321,1.82141 -0.62385,2.2788 -0.0805,0.1412 -0.69239,0.19393 -2.25047,0.19393 -1.64853,0 -2.12641,0.0445 -2.08091,0.19392 0.0425,0.13933 0.67727,0.21575 2.25521,0.27148 l 2.19613,0.0776 0.16187,0.71419 c 0.089,0.39281 0.23325,0.85944 0.32048,1.03697 0.26925,0.54796 0.18776,0.71083 -0.73161,1.46232 -0.48961,0.40022 -1.41562,1.16732 -2.05779,1.70468 -0.64217,0.53736 -1.49894,1.23833 -1.90392,1.5577 -1.03638,0.81729 -2.14061,1.088 -3.56648,0.87439 z m 22.02085,-0.1162 c -0.88597,-0.25592 -1.98972,-1.07864 -4.65589,-3.47041 -0.54594,-0.48975 -1.18113,-1.01176 -1.41155,-1.16001 -0.28579,-0.18386 -0.38828,-0.34462 -0.32246,-0.50576 0.0531,-0.12992 0.22659,-0.67071 0.38562,-1.20175 l 0.28914,-0.96552 2.00296,-0.0429 c 1.66797,-0.0357 2.00296,-0.0818 2.00296,-0.27557 0,-0.19392 -0.33755,-0.23987 -2.02531,-0.27572 l -2.02532,-0.043 -0.20417,-0.73267 c -0.1123,-0.40297 -0.24838,-0.85219 -0.3024,-0.99827 -0.11486,-0.31057 0.13621,-0.58881 1.9934,-2.20911 3.59749,-3.13864 4.06107,-3.42047 5.62613,-3.42047 0.89264,0 1.20875,0.0748 1.92286,0.45534 1.04664,0.55766 2.27869,1.88613 2.50195,2.69776 l 0.16276,0.59173 1.08903,0.19271 c 1.94031,0.34335 2.25542,0.47439 2.86083,1.18975 1.34871,1.59367 1.25815,3.96925 -0.20097,5.27151 -0.78252,0.69841 -1.61107,1.00373 -2.72384,1.00373 h -0.90351 l -0.3961,0.88833 c -0.47974,1.07597 -1.22157,1.89242 -2.29724,2.52831 -0.64101,0.37893 -1.02279,0.48911 -1.87334,0.54066 -0.58753,0.0356 -1.26053,0.009 -1.49554,-0.0587 z m -10.82498,-3.73874 c -1.63423,-0.41292 -2.67212,-1.91437 -2.68153,-3.87923 -0.005,-1.13778 0.30584,-1.96902 1.03464,-2.76282 1.17041,-1.27478 2.99741,-1.49629 4.3787,-0.53087 1.53466,1.07261 2.06994,3.33626 1.22073,5.16238 -0.54142,1.16426 -1.64555,1.99551 -2.74621,2.06752 -0.42847,0.0281 -0.97132,0.002 -1.20633,-0.057 z m 3.56084,-7.23873 c -0.47801,-0.45599 -1.72654,-1.13953 -2.08566,-1.14186 -0.35768,-0.002 -0.42316,-0.38094 -0.39714,-2.29644 0.0233,-1.71553 -0.0827,-2.20986 -0.42468,-1.97968 -0.0986,0.0664 -0.15484,0.83487 -0.15484,2.11672 0,1.47691 -0.0474,2.02728 -0.17805,2.06809 -0.82751,0.25842 -1.59703,0.64613 -2.03517,1.02536 -0.62312,0.53936 -0.66828,0.52125 -2.34467,-0.94056 -0.58754,-0.51233 -1.35668,-1.15269 -1.70921,-1.42301 -2.02865,-1.55566 -2.6727,-2.39457 -2.93282,-3.82019 -0.11028,-0.60441 0.22601,-1.87387 0.69318,-2.61672 0.66855,-1.06305 2.38214,-1.56494 3.66398,-1.07315 0.35253,0.13525 0.71346,0.24692 0.80209,0.24816 0.0886,0.001 0.23713,-0.32646 0.33001,-0.72822 0.26798,-1.15916 1.13931,-2.27225 2.28632,-2.9207 0.36062,-0.20387 0.8334,-0.28501 1.7092,-0.29331 1.13875,-0.0108 1.26071,0.0209 2.05251,0.53349 0.95994,0.62145 1.71045,1.67453 1.9587,2.74837 0.17642,0.76307 0.18613,0.76515 1.36008,0.29037 0.47479,-0.19202 0.75429,-0.21064 1.34141,-0.0894 0.9651,0.19935 1.50974,0.55802 2.07664,1.36756 0.58292,0.83244 0.80916,1.73282 0.68713,2.73476 -0.14997,1.23131 -0.80161,2.0588 -3.06694,3.89452 -0.82256,0.66657 -1.86743,1.54761 -2.32195,1.95787 -0.45451,0.41026 -0.83908,0.74584 -0.8546,0.74574 -0.0155,-1e-4 -0.2205,-0.18362 -0.45552,-0.4078 z m -14.77573,-7.28141 c -0.21444,-0.12674 -0.48685,-0.43463 -0.60534,-0.6842 -0.59405,-1.25121 0.0603,-2.51012 2.24287,-4.31509 0.89,-0.73602 2.82289,-2.04928 3.01619,-2.04928 0.0459,0 0.35523,-0.12973 0.68732,-0.2883 1.58823,-0.75835 1.79674,-0.83364 3.38125,-1.22103 1.36094,-0.33273 5.09617,-0.37036 6.33831,-0.0639 2.84431,0.70185 5.74105,2.18755 7.75574,3.97781 0.74708,0.66386 1.59246,1.66253 1.72237,2.03468 0.53724,1.53909 -0.46815,3.24172 -1.5533,2.63052 -0.7236,-0.40756 -0.85546,-1.20095 -0.35357,-2.12746 l 0.29227,-0.53955 -1.08307,-0.93393 c -1.06665,-0.91978 -2.74553,-2.07265 -3.01831,-2.07265 -0.0767,0 -0.44185,-0.16327 -0.81136,-0.36284 -0.3695,-0.19956 -1.31278,-0.51808 -2.09616,-0.70783 -0.78339,-0.18974 -1.65611,-0.41043 -1.93939,-0.49041 -0.78365,-0.22126 -3.05917,-0.1735 -4.25649,0.0893 -1.3753,0.30191 -3.25817,0.84134 -3.54835,1.01658 -0.12438,0.0751 -0.64277,0.34482 -1.15197,0.59934 -1.00912,0.50442 -1.65995,0.92713 -2.51068,1.63069 -0.30341,0.25091 -0.75996,0.62098 -1.01456,0.82236 -0.43853,0.34687 -0.62484,0.81577 -0.32413,0.81577 0.18803,0 0.57339,0.83694 0.57339,1.24533 0,0.40706 -0.73891,1.2391 -1.09291,1.23065 -0.14311,-0.003 -0.43567,-0.10991 -0.65012,-0.23664 z m -2.88607,-2.29997 c -1.80551,-1.32511 -2.84296,-2.0582 -3.31714,-2.34398 -0.28315,-0.17065 -0.85503,-0.67897 -1.27085,-1.1296 -1.8481,-2.00286 -2.29463,-5.4213 -1.05373,-8.06697 0.65475,-1.39597 2.43303,-2.927122 5.35685,-4.612399 0.70505,-0.406388 1.34748,-0.794518 1.42764,-0.862513 0.29933,-0.253939 4.15286,-1.754961 5.33797,-2.079243 2.10263,-0.575343 2.57511,-0.68516 3.63891,-0.845768 4.11884,-0.621846 7.44841,-0.499307 11.81517,0.434843 0.93584,0.200197 3.79556,1.17992 4.84275,1.659096 0.23501,0.107539 0.84393,0.386653 1.35313,0.620254 0.90333,0.414412 2.53232,1.361598 4.43129,2.57658 2.82554,1.80783 4.12236,4.99395 3.34806,8.22582 -0.51347,2.14318 -1.54409,3.30487 -4.7771,5.3846 -0.58141,0.37402 -1.27938,0.84431 -1.55104,1.04511 -0.63898,0.47229 -0.88147,0.46465 -0.88147,-0.0278 0,-1.05035 -0.63625,-1.89513 -2.71207,-3.60099 -4.18652,-3.4404 -9.69926,-4.77576 -14.79423,-3.58361 -1.495,0.34981 -4.02441,1.26168 -4.57096,1.64788 -0.19585,0.13838 -0.64452,0.41902 -0.99704,0.62364 -1.55658,0.9035 -4.39524,3.53473 -4.42602,4.10258 -0.006,0.10722 -0.11797,0.45597 -0.24926,0.77502 l -0.23869,0.58007 z"
     id="path2532"
     style="fill:#ffffff;stroke-width:0.155136" />
</svg>
