<?xml version="1.0" encoding="UTF-8" standalone="no"?>
<!-- Created with Inkscape (http://www.inkscape.org/) -->

<svg
   width="200.00002"
   height="200.00002"
   id="svg2"
   version="1.1"
   inkscape:version="1.1.1 (3bf5ae0d25, 2021-09-20)"
   sodipodi:docname="chosokabe.svg"
   xmlns:inkscape="http://www.inkscape.org/namespaces/inkscape"
   xmlns:sodipodi="http://sodipodi.sourceforge.net/DTD/sodipodi-0.dtd"
   xmlns="http://www.w3.org/2000/svg"
   xmlns:svg="http://www.w3.org/2000/svg"
   xmlns:rdf="http://www.w3.org/1999/02/22-rdf-syntax-ns#"
   xmlns:cc="http://creativecommons.org/ns#"
   xmlns:dc="http://purl.org/dc/elements/1.1/">
  <defs
     id="defs4" />
  <sodipodi:namedview
     id="base"
     pagecolor="#ffffff"
     bordercolor="#666666"
     borderopacity="1.0"
     inkscape:pageopacity="0.0"
     inkscape:pageshadow="2"
     inkscape:zoom="1.4382997"
     inkscape:cx="62.921518"
     inkscape:cy="127.5812"
     inkscape:document-units="px"
     inkscape:current-layer="svg2"
     showgrid="false"
     inkscape:window-width="1920"
     inkscape:window-height="1017"
     inkscape:window-x="-8"
     inkscape:window-y="-8"
     inkscape:window-maximized="1"
     inkscape:pagecheckerboard="0"
     fit-margin-top="0"
     fit-margin-left="0"
     fit-margin-right="0"
     fit-margin-bottom="0" />
  <metadata
     id="metadata7">
    <rdf:RDF>
      <cc:Work
         rdf:about="">
        <dc:format>image/svg+xml</dc:format>
        <dc:type
           rdf:resource="http://purl.org/dc/dcmitype/StillImage" />
      </cc:Work>
    </rdf:RDF>
  </metadata>
  <rect
     style="opacity:0.3;fill:#ffffff;fill-opacity:1;stroke:none;stroke-width:1;stroke-miterlimit:4;stroke-dasharray:none;stroke-dashoffset:6.7;stroke-opacity:1"
     id="rect1165"
     width="200"
     height="200"
     x="0"
     y="0" />
  <path
     inkscape:connector-curvature="0"
     id="path3704"
     d="M 88.736119,199.90366 C 74.385899,197.84471 65.574879,195.14778 54.270835,189.35432 30.461232,177.15162 12.69367,156.02533 4.4299773,130.09174 c -1.61697,-5.07447 -2.663526,-9.75653 -3.72811503,-16.67879 -0.937494,-6.09584 -0.935434,-20.127848 0.0039,-26.554698 C 3.9780023,64.469742 14.186763,44.100912 29.882922,28.643102 45.164336,13.593732 66.060439,3.4419624 87.403199,0.69851243 c 8.72794,-1.12192 20.183491,-0.87674 29.109911,0.62299997 22.5846,3.79449 43.78976,15.6495596 58.68615,32.8094196 6.14077,7.07383 11.47985,15.23403 15.07616,23.04229 1.03493,2.24704 2.04757,4.42941 2.25028,4.84969 0.87562,1.81545 3.47523,9.65468 4.33807,13.08159 6.98732,27.751588 2.19419,56.590928 -13.32896,80.197998 -3.99258,6.07178 -7.49022,10.28926 -13.43319,16.19783 -14.43472,14.35113 -31.61735,23.37966 -52.05423,27.3516 -4.95493,0.96302 -6.1006,1.03997 -16.74382,1.1247 -6.283731,0.05 -11.939081,0.0171 -12.567461,-0.073 z m 24.182801,-10.64404 c 19.70318,-3.01311 36.52452,-11.54058 50.46023,-25.58051 7.70086,-7.75846 12.25815,-14.08311 16.99517,-23.58604 6.51501,-13.06974 9.26749,-25.05108 9.24532,-40.244028 -0.0232,-15.93259 -3.58014,-29.58648 -11.34602,-43.55389 -7.27715,-13.08837 -19.20544,-25.48321 -31.78706,-33.03034 -10.07833,-6.04551 -21.98555,-10.36041 -33.50526,-12.14152 -5.15562,-0.79712 -20.576271,-0.9045 -24.816431,-0.1728 -11.54588,1.99243 -19.19904,4.33831 -27.61032,8.46327 -9.608441,4.71208 -16.182683,9.47781 -24.205712,17.54704 -7.098527,7.13938 -11.625235,13.27751 -16.087535,21.81442 -10.113242,19.34778 -12.7691357,42.383928 -7.334529,63.616648 8.159026,31.87686 32.971803,56.76188 64.765216,64.95377 4.31815,1.11262 10.20259,2.13139 15.23327,2.63737 3.24627,0.3265 16.190861,-0.14185 19.993661,-0.72339 z m -19.993661,-0.45627 c -9.68025,-0.84753 -21.23541,-3.86779 -29.65782,-7.75187 -2.57664,-1.18826 -2.60505,-1.21733 -1.76567,-1.80718 0.46921,-0.32973 1.99041,-1.00229 3.38044,-1.49457 2.89606,-1.02565 7.33976,-1.20017 9.63298,-0.37834 1.96189,0.70308 20.12382,10.95629 20.12382,11.36077 0,0.18316 -0.0428,0.30412 -0.0952,0.2688 -0.0523,-0.0353 -0.7807,-0.12425 -1.61853,-0.19761 z m 2.85625,-0.1652 c 0,-0.23487 0.66533,-1.09455 1.47852,-1.91041 1.24442,-1.2485 1.7298,-1.48337 3.065561,-1.48337 0.87288,0 2.07753,0.25447 2.677,0.56549 1.26978,0.65877 2.7637,2.42916 2.46246,2.91816 -0.31858,0.51717 -9.683541,0.43027 -9.683541,-0.0899 z m 10.663291,-0.27159 c 0,-0.52474 18.26314,-11.47121 20.3745,-12.21196 1.03502,-0.36313 2.69268,-0.48877 5.17126,-0.39196 3.19283,0.1247 3.9649,0.29902 6.18852,1.39731 1.39732,0.69015 2.54058,1.41744 2.54058,1.61616 0,0.92717 -12.20432,5.78941 -18.50165,7.3711 -7.54473,1.895 -15.77321,3.05279 -15.77321,2.21935 z m -20.116431,-7.43507 c -5.09447,-2.99407 -9.90007,-6.0606 -10.67908,-6.81451 -4.34505,-4.20506 -5.56803,-12.11073 -2.79367,-18.0589 4.64992,-9.96923 17.76668,-12.57293 25.81998,-5.12529 l 1.675881,1.54985 1.64257,-1.51903 c 8.36956,-7.74012 21.34684,-5.4178 26.16926,4.68304 3.19572,6.69364 1.0975,15.87152 -4.46486,19.52986 -1.00648,0.66195 -5.46811,3.47421 -9.91473,6.24947 l -8.08477,5.04592 -1.0994,-0.90034 c -0.60465,-0.49517 -1.42011,-1.08965 -1.81214,-1.32106 -0.69617,-0.41095 -0.69606,-0.45183 0.005,-1.75731 0.91966,-1.71332 0.58904,-3.15375 -0.9014,-3.92701 -1.924911,-0.99869 -3.824211,0.28985 -3.824211,2.59442 0,0.51346 0.25705,1.14759 0.57123,1.4092 0.86588,0.72097 0.68868,1.44778 -0.50376,2.06644 -0.59127,0.30676 -1.29774,0.82698 -1.56996,1.15606 -0.27221,0.32907 -0.60248,0.59485 -0.73393,0.59063 -0.13144,-0.004 -4.40721,-2.45737 -9.50171,-5.45144 z m -34.343417,-6.07475 c -4.660383,-3.04577 -10.064853,-7.32936 -13.855146,-10.98161 -4.956786,-4.77624 -9.627221,-10.72565 -8.419911,-10.72565 0.106226,0 4.776176,2.30503 10.377668,5.1223 10.757451,5.41045 11.881584,6.19993 13.924091,9.7789 1.571273,2.75325 2.884585,9.16996 1.87682,9.16996 -0.157585,0 -1.914172,-1.06374 -3.903522,-2.3639 z m 93.304688,0.36528 c 0,-1.72239 0.95959,-5.31375 1.9294,-7.22098 1.50709,-2.96381 3.58877,-4.74776 8.67305,-7.43253 2.65169,-1.40024 7.10175,-3.74714 9.88903,-5.21535 2.78728,-1.46819 5.16257,-2.57435 5.27843,-2.45812 0.32611,0.32717 -4.22681,5.79243 -8.04757,9.66022 -5.26212,5.3269 -11.31085,10.11856 -17.24629,13.66212 -0.34247,0.20444 -0.47605,-0.0748 -0.47605,-0.99536 z M 52.05835,161.55977 c -0.693227,-0.16466 -5.775774,-2.42521 -11.294552,-5.02347 l -10.034142,-4.72412 0.102451,-2.29249 0.102452,-2.29248 1.630831,-0.22403 c 1.805164,-0.24798 2.67052,-1.10268 2.651737,-2.61909 -0.02818,-2.27486 -2.456141,-3.37303 -4.278257,-1.93504 -0.572703,0.45197 -1.041278,1.1245 -1.041278,1.49451 0,1.06771 -0.317081,1.13243 -1.809116,0.36925 -0.769222,-0.39346 -1.68146,-0.71539 -2.027197,-0.71539 -0.800852,0 -1.018375,-2.35047 -1.34367,-14.51912 -0.230495,-8.62219 -0.206919,-9.06623 0.593476,-11.1767 1.573811,-4.14976 5.324784,-7.90258 9.479229,-9.48388 9.011598,-3.43008 19.026591,1.80099 21.582113,11.27286 0.650872,2.41238 0.644252,6.31396 -0.01438,8.47987 -0.219015,0.72023 -0.0582,0.83987 1.429602,1.06372 4.63131,0.69678 9.64096,4.63548 11.80959,9.28494 2.15081,4.61128 1.89113,10.50961 -0.66468,15.09747 -3.04558,5.46702 -11.17936,9.29583 -16.8742,7.94319 z m 89.42297,-1.0607 c -4.60356,-1.256 -8.46672,-4.56522 -10.48003,-8.9773 -4.1877,-9.17718 0.88115,-19.99025 10.60934,-22.63219 l 2.43625,-0.66163 -0.36359,-1.58075 c -0.19996,-0.86941 -0.29701,-3.06402 -0.21566,-4.8769 0.12452,-2.7744 0.34567,-3.69914 1.39703,-5.84176 1.68067,-3.42511 4.65365,-6.41576 7.92165,-7.96871 2.43507,-1.15715 2.85411,-1.23332 6.78454,-1.23332 3.90316,0 4.35812,0.0812 6.66455,1.18842 2.99003,1.43547 5.58212,3.67668 7.22742,6.24909 2.26933,3.54803 2.36173,4.30237 2.06799,16.88341 l -0.26451,11.33011 -1.15819,0.23241 c -0.63699,0.12781 -1.47338,0.51857 -1.85862,0.86836 -0.7716,0.70057 -1.2033,0.46348 -1.97177,-1.08296 -1.02882,-2.07042 -3.92874,-2.06412 -4.78521,0.0103 -0.84584,2.04871 0.8467,3.9376 3.35514,3.74444 0.85067,-0.0655 0.89922,0.0529 0.91162,2.2233 l 0.0131,2.2925 -10.242,5.12062 c -9.80187,4.90059 -10.35656,5.12637 -12.90783,5.25425 -1.74425,0.0874 -3.52156,-0.0998 -5.14123,-0.54176 z M 27.162557,150.95251 c -2.077992,-2.93912 -3.739106,-5.66983 -3.739106,-6.14677 0,-0.62859 1.623672,-0.55056 3.402473,0.16351 1.136266,0.45614 1.70797,1.01024 2.292694,2.22208 0.428437,0.88793 0.778974,1.99853 0.778974,2.46797 0,0.78855 -0.975379,3.10809 -1.306966,3.10809 -0.0797,0 -0.722331,-0.81669 -1.428069,-1.81488 z m 144.363933,0.42858 c -0.31875,-0.38535 -0.53069,-1.52361 -0.53069,-2.85024 0,-1.92401 0.14446,-2.35994 1.12084,-3.38243 1.20457,-1.26142 3.14051,-1.99246 4.4008,-1.66181 0.76304,0.20019 0.75781,0.24231 -0.24534,1.97258 -0.56378,0.97241 -1.74277,2.84698 -2.61999,4.16572 -1.44064,2.16578 -1.64626,2.33566 -2.12562,1.75618 z M 20.04612,138.61472 c -1.291678,-2.7405 -3.12063,-7.30139 -4.064344,-10.13532 -2.442282,-7.33411 -4.648156,-18.12312 -3.705372,-18.12312 0.201118,0 1.377644,0.66118 2.614499,1.46927 2.485114,1.62363 4.108361,3.47641 5.668666,6.47024 0.96579,1.8531 1.065463,2.5163 1.54772,10.29793 0.283493,4.5745 0.616078,9.82172 0.739072,11.66048 0.124276,1.85796 0.07361,3.34322 -0.114055,3.34322 -0.185725,0 -1.394507,-2.24221 -2.686186,-4.9827 z m 157.06124,-0.84405 c 0.12141,-2.57427 0.35812,-7.81924 0.52599,-11.65548 0.29955,-6.8453 0.32869,-7.02284 1.56826,-9.549 1.4584,-2.97215 4.17179,-5.81008 6.86357,-7.17858 1.01877,-0.51795 1.94571,-0.94173 2.05989,-0.94173 0.54138,0 -1.76443,12.18605 -3.26417,17.25099 -2.10546,7.11051 -6.36635,16.75431 -7.40248,16.75431 -0.48942,0 -0.53999,-0.67443 -0.35106,-4.68051 z m -97.511221,3.37337 c -6.53115,-1.63947 -11.19265,-6.71717 -12.46421,-13.57704 -0.41754,-2.25261 -0.12308,-5.81532 0.63537,-7.68732 0.1916,-0.47288 -0.2284,-0.73362 -1.96114,-1.21744 -8.73832,-2.44003 -13.859803,-11.88468 -11.164013,-20.587848 1.417477,-4.5762 4.496273,-8.05361 8.988203,-10.15187 2.04771,-0.95652 2.65992,-1.05423 6.63542,-1.05901 l 4.37957,-0.005 4.18914,2.33057 c 2.30404,1.28182 5.9029,3.25144 7.99747,4.37694 2.09458,1.12549 4.6652,2.50774 5.71249,3.07166 l 1.90415,1.02529 -0.13557,2.2394 c -0.0745,1.231688 -0.20915,2.317138 -0.29909,2.412118 -0.0899,0.095 -0.75224,0.13293 -1.47177,0.0843 -1.63784,-0.11066 -2.85398,1.00091 -2.85398,2.60862 0,2.41606 2.85494,3.55096 4.50362,1.79026 0.45542,-0.48638 0.82804,-1.078 0.82804,-1.31474 0,-0.82953 0.727,-0.86751 1.97646,-0.10323 0.69335,0.4241 1.56052,0.77174 1.92707,0.77251 0.61451,7.9e-4 0.66457,0.6341 0.64236,8.12068 -0.0359,12.08634 -0.35836,15.67808 -1.64418,18.31107 -1.19823,2.45366 -4.58365,5.90961 -7.00102,7.14693 -3.58832,1.83663 -7.62923,2.34097 -11.32439,1.41341 z m 33.497431,0.01 c -3.02486,-0.73729 -5.53418,-2.1323 -7.65966,-4.25826 -1.87158,-1.87197 -3.96331,-5.38495 -4.42726,-7.4354 -0.11888,-0.52536 -0.27145,-5.92918 -0.33906,-12.00846 l -0.12289,-11.05327 0.9836,-0.26392 c 0.54097,-0.14515 1.43251,-0.55903 1.9812,-0.91974 1.05247,-0.69185 1.7928,-0.53171 1.7928,0.38781 0,0.88023 1.43729,2.0789 2.49271,2.0789 1.1719,0 2.83893,-1.57052 2.83893,-2.67456 0,-1.36529 -1.66511,-2.67458 -3.40144,-2.67458 -1.53019,0 -1.53182,-0.002 -1.4539,-1.43281 0.0429,-0.78804 -0.0495,-1.791798 -0.2052,-2.230568 -0.25106,-0.70709 0.16104,-1.03682 3.62635,-2.90163 2.15028,-1.15713 6.69676,-3.60726 10.10325,-5.44474 6.82687,-3.6824 8.77728,-4.23271 12.76456,-3.60153 7.56404,1.19737 12.76018,6.26202 13.93529,13.582578 1.27146,7.92099 -3.44677,15.58355 -11.15977,18.12387 l -2.53622,0.83531 0.30288,1.18233 c 0.16658,0.65029 0.30286,2.90171 0.30286,5.00315 0,3.50633 -0.10035,4.03338 -1.21921,6.40314 -3.43095,7.2668 -11.13772,11.12122 -18.59982,9.30239 z M 97.836569,105.24511 c -1.80457,-0.81859 -2.96321,-2.71285 -2.96321,-4.84455 0,-4.045658 3.82165,-6.466058 7.355221,-4.658328 4.78073,2.44577 3.55775,9.280768 -1.76738,9.877438 -0.793451,0.0889 -1.974521,-0.0797 -2.624631,-0.37456 z m 58.917011,-7.720328 c -2.70373,-0.72944 -6.15238,-2.86271 -7.85631,-4.85974 -3.81543,-4.47176 -5.20972,-11.40232 -3.29085,-16.35784 0.3671,-0.94809 0.30585,-1.02325 -1.20267,-1.47583 -4.77943,-1.43387 -8.26037,-4.45611 -10.4632,-9.08438 -1.34104,-2.81761 -1.40781,-3.14362 -1.38899,-6.78074 0.0152,-2.92291 0.2026,-4.27822 0.79772,-5.76718 1.89468,-4.74034 5.72661,-8.30401 10.49,-9.7556 2.09288,-0.63778 3.34361,-0.77317 5.97602,-0.6469 l 3.32916,0.1597 10.15662,5.90353 c 7.73315,4.4949 10.09734,6.0403 9.90818,6.47666 -0.13665,0.31523 -0.32225,1.30386 -0.41243,2.19698 -0.16204,1.60465 -0.18155,1.62385 -1.64897,1.62385 -0.97721,0 -1.74542,0.2613 -2.24663,0.76417 -1.57975,1.58491 -0.44708,4.58498 1.73103,4.58498 1.06879,0 2.83894,-1.53773 2.83894,-2.46617 0,-0.82643 0.50934,-0.73925 2.13082,0.36471 0.77162,0.52537 1.64897,0.95521 1.94965,0.95521 0.45072,0 0.50676,0.58693 0.31918,3.34322 -0.12512,1.83878 -0.39345,7.03986 -0.59626,11.55798 -0.36258,8.07738 -0.38858,8.25521 -1.5538,10.63357 -3.4526,7.04715 -11.41145,10.66831 -18.96721,8.62982 z m 29.21813,-1.50003 c -2.24884,-1.75781 -3.93618,-3.90139 -5.19249,-6.59651 l -1.01987,-2.18792 0.0959,-8.78789 c 0.10797,-9.89261 0.42245,-15.30228 0.86235,-14.8345 0.69224,0.73611 4.20748,11.00993 5.2718,15.40763 1.76836,7.30673 3.053,18.33993 2.1354,18.33993 -0.24082,0 -1.20972,-0.60334 -2.15312,-1.34074 z m -91.542161,0.60928 c -0.19899,-0.19214 -4.38908,-2.77723 -9.31134,-5.74462 -5.19236,-3.13022 -9.48986,-5.99115 -10.23656,-6.81467 -1.70528,-1.8807 -3.39392,-5.52595 -3.90296,-8.42537 -0.82804,-4.71629 0.8764,-10.00663 4.37112,-13.56739 5.50164,-5.60561 12.9026,-6.75649 19.70932,-3.06489 1.11087,0.60248 2.69691,1.73883 3.52452,2.52524 l 1.504741,1.42984 1.85747,-1.74311 c 6.17528,-5.79525 15.94657,-5.68636 22.20008,0.24736 3.86777,3.66998 5.38015,7.53108 5.04719,12.8855 -0.16571,2.66462 -0.4283,3.67201 -1.54904,5.94204 -0.74223,1.50341 -2.00263,3.35695 -2.80089,4.11899 -0.79827,0.76204 -5.6142,3.91632 -10.70209,7.00952 l -9.2507,5.62399 -0.97503,-0.97823 c -0.53627,-0.53803 -1.30047,-1.08186 -1.69822,-1.20852 -0.85942,-0.27367 -0.90334,-0.86289 -0.13983,-1.87567 1.30045,-1.72498 0.048,-4.41644 -2.05513,-4.41644 -2.234471,0 -3.581031,3.08638 -1.955701,4.4826 1.00748,0.86546 0.96293,1.4972 -0.12489,1.77112 -0.4876,0.12278 -1.35332,0.65723 -1.92378,1.18766 -1.18749,1.10414 -1.11207,1.07493 -1.58828,0.61505 z m -58.2906,-0.98344 c -4.225976,-0.9223 -7.63869,-3.26249 -10.145816,-6.95725 -2.309731,-3.40385 -2.508358,-4.68261 -2.645664,-17.03277 l -0.122234,-10.9948 1.415941,-0.38253 c 0.778766,-0.21039 1.518978,-0.54979 1.644911,-0.75422 0.411878,-0.66862 1.338282,-0.39039 1.6771,0.50368 0.776645,2.04945 3.381447,2.63998 4.659572,1.05639 1.582517,-1.96075 0.323381,-4.3509 -2.31318,-4.39099 l -1.598709,-0.0243 -0.124231,-2.30119 -0.12423,-2.3012 9.752915,-5.27917 c 11.011713,-5.96057 12.306596,-6.39249 16.888236,-5.63337 7.117799,1.17934 12.524169,6.68472 13.635329,13.88502 0.48118,3.118 -0.15419,6.76394 -1.71838,9.86089 -1.99176,3.94345 -6.67939,7.63559 -10.465496,8.243 l -1.587086,0.25461 0.317908,1.37879 c 0.174851,0.75834 0.317905,3.10769 0.317905,5.22078 0,3.67143 -0.06359,3.97096 -1.431616,6.74683 -2.416149,4.90251 -6.851,8.20907 -12.172279,9.07544 -2.875729,0.46821 -2.927004,0.46668 -5.860896,-0.17363 z m -24.521285,-2.01262 c 0,-6.84679 3.278543,-20.19121 7.133751,-29.03599 2.73502,-6.27478 2.837444,-5.97008 2.69716,8.02374 l -0.119699,11.94006 -1.274092,2.44943 c -1.46661,2.81956 -4.541173,6.07926 -6.847288,7.25962 l -1.589832,0.81374 z m 165.906566,-31.4348 c -2.00072,-0.60152 -3.6722,-2.86908 -3.6722,-4.98179 0,-0.93653 1.09338,-3.41324 1.50681,-3.41324 0.33203,0 4.18149,6.89325 4.47211,8.0082 0.22563,0.86568 -0.37759,0.96684 -2.30672,0.38683 z M 22.290998,57.342402 c 2.21288,-3.96788 3.603377,-6.18699 3.883703,-6.19799 0.151717,-0.006 0.537309,0.49643 0.856872,1.11644 1.695463,3.28941 -0.768918,7.27346 -4.501349,7.27709 l -1.464472,0.002 1.225246,-2.19697 z m 62.255971,-3.60239 c -8.5525,-1.14937 -15.01327,-10.00744 -13.53249,-18.55379 0.57156,-3.29876 2.23148,-6.78168 4.08377,-8.56876 1.20498,-1.16256 18.15629,-11.80135 19.83096,-12.44609 0.28431,-0.10946 0.97798,0.22795 1.54148,0.74981 0.5635,0.52186 1.32446,1.0546 1.69101,1.18389 0.80292,0.28318 0.87541,1.24928 0.12553,1.67286 -0.99048,0.55949 -1.09511,2.16018 -0.21462,3.28322 0.97809,1.24752 2.958541,1.41642 3.933601,0.33546 0.78588,-0.87125 0.81843,-2.87873 0.0591,-3.64063 -0.86092,-0.86375 -0.70154,-1.294 0.7322,-1.97658 0.71691,-0.34131 1.39702,-0.86519 1.51138,-1.16418 0.11436,-0.29898 0.38081,-0.5436 0.59209,-0.5436 0.38297,0 17.12554,10.08276 19.20381,11.56497 0.60155,0.42903 1.73795,1.78006 2.52535,3.00231 5.9261,9.19891 1.4253,21.58627 -8.94173,24.60993 -3.50564,1.02247 -8.46008,0.66692 -11.62436,-0.83422 -1.36148,-0.64588 -3.29433,-1.90502 -4.29524,-2.79809 l -1.819831,-1.62375 -1.83342,1.72057 c -2.14968,2.01739 -3.30693,2.66719 -6.14732,3.45183 -2.86345,0.79101 -4.73436,0.93593 -7.42119,0.57484 z m 83.973421,-3.86554 c -13.52049,-8.26786 -13.83446,-8.4796 -15.2696,-10.29808 -2.00692,-2.54297 -3.08001,-5.58571 -3.30166,-9.36181 -0.10175,-1.7337 -0.0705,-3.15217 0.0694,-3.15217 0.44083,0 4.46764,3.07563 8.0438,6.14378 5.29547,4.54324 10.32064,10.14049 14.7665,16.44757 3.09119,4.38528 2.54742,4.41314 -4.30846,0.22071 z m -141.669453,0.18164 c 0,-0.59689 5.74325,-7.68092 9.15212,-11.2887 3.594852,-3.80462 8.910167,-8.37373 13.21309,-11.3581 l 2.87757,-1.99579 -0.183774,2.87296 c -0.22775,3.56051 -1.759368,7.07487 -4.163241,9.55274 -1.401337,1.44449 -9.17592,6.12889 -20.610141,12.41819 -0.157093,0.0864 -0.285624,-0.004 -0.285624,-0.2013 z m 38.244342,-26.20712 c -2.04395,-0.64207 -5.11196,-2.18995 -5.11196,-2.5791 0,-0.70922 8.12071,-4.14263 14.38242,-6.08082 6.94339,-2.14918 19.89244,-4.16502 19.89244,-3.09673 0,0.23427 -1.58521,1.35708 -3.5227,2.49511 -8.93274,5.2469 -15.60514,8.99162 -16.70983,9.37799 -1.60992,0.56307 -6.99059,0.4929 -8.93037,-0.11645 z m 61.494561,-0.34652 c -0.75458,-0.2828 -2.55401,-1.17325 -3.99873,-1.97877 -3.97423,-2.21589 -16.31034,-9.41667 -16.52714,-9.64715 -0.36204,-0.38487 6.20262,0.31328 10.23452,1.08845 7.18977,1.3823 14.6802,3.76669 20.84937,6.63684 2.80178,1.3035 2.9516,1.43231 2.26167,1.94447 -2.65672,1.97217 -9.84872,3.06959 -12.81969,1.95616 z m -29.005331,-8.98642 c -0.57929,-0.38324 -1.30218,-1.02686 -1.60643,-1.43029 -1.17,-1.55139 -0.82982,-1.68872 4.182981,-1.68872 5.08345,0 5.35789,0.1204 4.16605,1.82757 -1.36321,1.95263 -4.759791,2.60319 -6.742601,1.29144 z"
     style="fill:#6a9b4e;fill-opacity:1;stroke-width:0.782532" />
</svg>
