<?xml version="1.0" encoding="UTF-8" standalone="no"?>
<!-- Created with Inkscape (http://www.inkscape.org/) -->

<svg
   xmlns:dc="http://purl.org/dc/elements/1.1/"
   xmlns:cc="http://creativecommons.org/ns#"
   xmlns:rdf="http://www.w3.org/1999/02/22-rdf-syntax-ns#"
   xmlns:svg="http://www.w3.org/2000/svg"
   xmlns="http://www.w3.org/2000/svg"
   xmlns:sodipodi="http://sodipodi.sourceforge.net/DTD/sodipodi-0.dtd"
   xmlns:inkscape="http://www.inkscape.org/namespaces/inkscape"
   id="svg2"
   version="1.1"
   inkscape:version="0.92.5 (2060ec1f9f, 2020-04-08)"
   width="80"
   height="31.42371"
   sodipodi:docname="fleet.svg">
  <metadata
     id="metadata8">
    <rdf:RDF>
      <cc:Work
         rdf:about="">
        <dc:format>image/svg+xml</dc:format>
        <dc:type
           rdf:resource="http://purl.org/dc/dcmitype/StillImage" />
        <dc:title></dc:title>
      </cc:Work>
    </rdf:RDF>
  </metadata>
  <defs
     id="defs6">
    <inkscape:perspective
       sodipodi:type="inkscape:persp3d"
       inkscape:vp_x="0 : 0.5 : 1"
       inkscape:vp_y="0 : 1000 : 0"
       inkscape:vp_z="1 : 0.5 : 1"
       inkscape:persp3d-origin="0.5 : 0.33333333 : 1"
       id="perspective10" />
  </defs>
  <sodipodi:namedview
     pagecolor="#ffffff"
     bordercolor="#666666"
     borderopacity="1"
     objecttolerance="10"
     gridtolerance="10"
     guidetolerance="10"
     inkscape:pageopacity="0"
     inkscape:pageshadow="2"
     inkscape:window-width="1920"
     inkscape:window-height="1121"
     id="namedview4"
     showgrid="false"
     inkscape:zoom="5.7187261"
     inkscape:cx="-24.43674"
     inkscape:cy="2.5739174"
     inkscape:window-x="-9"
     inkscape:window-y="-9"
     inkscape:window-maximized="1"
     inkscape:current-layer="svg2"
     fit-margin-top="0"
     fit-margin-left="0"
     fit-margin-right="0"
     fit-margin-bottom="0" />
  <path
     sodipodi:nodetypes="ccccccsccccscccccccccccsccccccccccccscccccscccc"
     style="fill:#000000;fill-opacity:1;fill-rule:evenodd;stroke:none;stroke-width:0.1789494;opacity:0.53"
     inkscape:connector-curvature="0"
     d="m 43.861516,3.1756639 c 2.420652,2.67458 -3.279477,16.7147761 -6.740894,17.6479951 -0.367922,0.09931 0.316384,0.202929 1.521066,0.23031 l 2.189985,0.04954 0.07552,0.992929 c 0.06388,2.533743 -0.02544,2.953916 -0.582663,2.740077 -0.414803,-0.15909 -0.658352,-0.01057 -0.658352,0.401738 0,1.109131 -3.396282,-0.488707 -4.344714,-2.044316 l -0.795432,-1.304365 -0.0013,1.435536 c -0.002,1.929965 1.042381,2.010789 2.586358,3.15249 0.698259,0.516264 1.269641,1.193233 1.269641,1.504427 0,0.311195 0.558863,-0.0089 1.242092,0.934358 1.178029,1.513565 3.327947,2.517978 15.979136,2.507242 12.51787,-0.01077 14.450109,-0.27369 15.845316,-1.543051 0.460892,-0.419194 1.96934,-2.1846 2.59638,-2.198832 3.820477,-1.053662 5.875172,-2.546027 6.234142,-6.504564 0.262342,-2.894154 -0.358431,-3.354766 -1.115565,-0.827465 -0.60324,2.013542 -2.858359,4.109935 -5.087174,4.728736 -2.549675,0.708106 -2.796267,0.625249 -2.476302,-0.831395 0.32819,-1.49351 -0.0138,-1.591222 -1.500133,-0.428587 -1.458441,1.140806 -2.069731,1.067257 -2.676369,-0.321567 -1.142507,-2.377492 -2.110568,-3.480527 -4.63818,-5.988769 -2.028585,-1.938589 -3.400946,-2.408309 -3.400946,-3.850287 0,-0.962028 -0.166958,-1.645796 -0.371139,-1.519639 -0.20418,0.126163 -0.278442,0.76447 -0.164993,1.418353 0.177701,1.024664 -0.34841,0.646901 -3.807861,-2.733092 C 49.430813,5.3440299 40.475081,-0.56652313 43.861516,3.1756639 M 66.531153,23.092177 c 1.497555,2.686237 1.285462,2.516144 -3.371879,2.785641 L 59.81167,26.071619 V 22.611098 21.15057 l 2.035908,-0.130632 c 2.480597,-0.159266 3.247899,0.477011 4.683575,2.072239 m -7.576651,-0.559641 c 0,3.371768 -0.0179,3.429027 -1.071552,3.429027 -0.951292,0 -1.072266,-0.18038 -1.078169,-1.607321 -0.01057,-2.588324 -0.297416,-2.765487 -4.220165,-2.606396 -2.554858,0.10379 -3.490225,3.56e-4 -3.489512,-0.38582 0.002,-0.895277 -3.229498,-1.206472 -5.87527,-0.565654 -0.04954,0.01178 -0.321035,0.793278 -0.603596,1.736164 -0.73709,2.460201 -1.235287,2.114471 -1.235287,-0.857168 v -0.57186 h 8.786776 8.786775 v 1.429028"
     id="shadow" />
  <path
     id="hull"
     d="m 41.861513,1.1756675 c 2.420651,2.67458 -3.279477,16.7147755 -6.740894,17.6479945 -0.367922,0.09931 0.316384,0.202929 1.521066,0.23031 l 2.189985,0.04954 0.07552,0.992929 c 0.06388,2.533743 -0.02544,2.953916 -0.582663,2.740077 -0.414803,-0.15909 -0.658352,-0.01057 -0.658352,0.401738 0,1.109131 -3.396282,-0.488707 -4.344714,-2.044316 l -0.795432,-1.304365 -0.0013,1.435536 c -0.002,1.929965 1.042381,2.010789 2.586358,3.15249 0.698259,0.516264 1.269641,1.193233 1.269641,1.504427 0,0.311195 0.558863,-0.0089 1.242092,0.934358 1.178029,1.513565 3.327947,2.517978 15.979135,2.507242 12.51787,-0.01077 14.450109,-0.27369 15.845316,-1.543051 0.460892,-0.419194 1.96934,-2.1846 2.59638,-2.198832 3.820477,-1.053662 5.875172,-2.546027 6.234142,-6.504564 0.262342,-2.894154 -0.358431,-3.354766 -1.115565,-0.827465 -0.60324,2.013542 -2.858359,4.109935 -5.087174,4.728736 -2.549675,0.708106 -2.796267,0.625249 -2.476302,-0.831395 0.32819,-1.49351 -0.0138,-1.591222 -1.500133,-0.428587 -1.458441,1.140806 -2.069731,1.067257 -2.676369,-0.321567 -1.142507,-2.377492 -2.110568,-3.480527 -4.63818,-5.988769 -2.028585,-1.938589 -3.400946,-2.408309 -3.400946,-3.850287 0,-0.962028 -0.166958,-1.645796 -0.371139,-1.519639 -0.20418,0.126163 -0.278442,0.76447 -0.164993,1.418353 0.177701,1.024664 -0.34841,0.646901 -3.807861,-2.7330925 C 47.430809,3.3440335 38.475078,-2.5665194 41.861513,1.1756675 M 64.531149,21.09218 c 1.497555,2.686237 1.285462,2.516144 -3.371879,2.785641 l -3.347604,0.193801 v -3.460521 -1.460528 l 2.035908,-0.130632 c 2.480597,-0.159266 3.247899,0.477011 4.683575,2.072239 m -7.576651,-0.559641 c 0,3.371768 -0.0179,3.429027 -1.071552,3.429027 -0.951292,0 -1.072266,-0.18038 -1.078169,-1.607321 -0.01057,-2.588324 -0.297416,-2.765487 -4.220165,-2.606396 -2.554858,0.10379 -3.490225,3.56e-4 -3.489512,-0.38582 0.002,-0.895277 -3.229498,-1.206472 -5.875269,-0.565654 -0.04954,0.01178 -0.321035,0.793278 -0.603596,1.736164 -0.73709,2.460201 -1.235287,2.114471 -1.235287,-0.857168 v -0.57186 h 8.786775 8.786775 v 1.429028"
     inkscape:connector-curvature="0"
     style="fill:#000000;fill-rule:evenodd;stroke:none;stroke-width:0.1789494"
     sodipodi:nodetypes="ccccccsccccscccccccccccsccccccccccccscccccscccc" />
</svg>
