<?xml version="1.0" encoding="UTF-8" standalone="no"?>
<!-- Created with Inkscape (http://www.inkscape.org/) -->

<svg
   width="200.00002"
   height="200.00002"
   id="svg2"
   version="1.1"
   inkscape:version="1.1.1 (3bf5ae0d25, 2021-09-20)"
   sodipodi:docname="oda.svg"
   xmlns:inkscape="http://www.inkscape.org/namespaces/inkscape"
   xmlns:sodipodi="http://sodipodi.sourceforge.net/DTD/sodipodi-0.dtd"
   xmlns="http://www.w3.org/2000/svg"
   xmlns:svg="http://www.w3.org/2000/svg"
   xmlns:rdf="http://www.w3.org/1999/02/22-rdf-syntax-ns#"
   xmlns:cc="http://creativecommons.org/ns#"
   xmlns:dc="http://purl.org/dc/elements/1.1/">
  <defs
     id="defs4" />
  <sodipodi:namedview
     id="base"
     pagecolor="#ffffff"
     bordercolor="#666666"
     borderopacity="1.0"
     inkscape:pageopacity="0.0"
     inkscape:pageshadow="2"
     inkscape:zoom="1.4382997"
     inkscape:cx="62.921518"
     inkscape:cy="127.5812"
     inkscape:document-units="px"
     inkscape:current-layer="svg2"
     showgrid="false"
     inkscape:window-width="1920"
     inkscape:window-height="1017"
     inkscape:window-x="-8"
     inkscape:window-y="-8"
     inkscape:window-maximized="1"
     inkscape:pagecheckerboard="0"
     fit-margin-top="0"
     fit-margin-left="0"
     fit-margin-right="0"
     fit-margin-bottom="0" />
  <metadata
     id="metadata7">
    <rdf:RDF>
      <cc:Work
         rdf:about="">
        <dc:format>image/svg+xml</dc:format>
        <dc:type
           rdf:resource="http://purl.org/dc/dcmitype/StillImage" />
      </cc:Work>
    </rdf:RDF>
  </metadata>
  <rect
     style="opacity:0.3;fill:#ffffff;fill-opacity:1;stroke:none;stroke-width:1;stroke-miterlimit:4;stroke-dasharray:none;stroke-dashoffset:6.7;stroke-opacity:1"
     id="rect1165"
     width="200"
     height="200"
     x="0"
     y="0" />
  <path
     d="m 60.386015,111.2933 0.0033,0.0199 0.180773,-0.0515 c 0.296402,-0.0614 0.58629,-0.14116 0.871292,-0.23249 l 25.907497,-6.94639 c -0.33386,-1.19564 -0.524404,-2.45274 -0.524404,-3.75633 0,-0.22086 0.0228,-0.43508 0.03257,-0.652622 l -12.08574,-3.718084 c -3.066623,-0.941573 -3.884171,-2.406243 -3.478654,-3.779578 0.407146,-1.371675 1.882642,-2.133901 4.949264,-1.190667 l 11.81374,3.633443 C 88.707086,93.17424 89.589778,91.860688 90.6679,90.738106 L 73.470051,70.481826 C 72.3789,69.090223 70.878975,68.009158 69.082648,67.45451 c -4.724519,-1.453046 -9.709611,1.275358 -11.132993,6.091165 -0.570004,1.919681 -0.475546,3.879216 0.128658,5.637816 -0.923406,-0.818688 -2.025957,-1.46467 -3.273452,-1.846613 -4.721261,-1.453045 -9.707982,1.273698 -11.132993,6.087844 -1.42501,4.817467 1.249123,9.900635 5.972014,11.35368 1.247495,0.383604 2.514533,0.468296 3.729455,0.307216 -1.457581,1.124241 -2.597589,2.703494 -3.164336,4.624834 -1.42501,4.814148 1.249123,9.897308 5.972014,11.350358 1.415238,0.43509 2.846762,0.48989 4.205,0.23249 z M 102.50279,86.83232 c 1.60905,0.275665 3.11875,0.840276 4.48024,1.644018 l 13.97161,-22.509747 c 0.99018,-1.46633 1.57321,-3.243196 1.57321,-5.157894 0,-5.030028 -3.99816,-9.108518 -8.93114,-9.108518 -1.96734,0 -3.77995,0.657606 -5.2587,1.755279 0.50486,-1.139188 0.78987,-2.399601 0.78987,-3.729761 0,-5.030026 -3.99981,-9.108517 -8.93279,-9.108517 -4.9346,0 -8.9344,4.078491 -8.9344,9.108517 0,1.33016 0.286631,2.592233 0.788235,3.729761 -1.475497,-1.097673 -3.288109,-1.755279 -5.255438,-1.755279 -4.934606,0 -8.934405,4.07849 -8.934405,9.108518 0,1.502863 0.363173,2.919374 0.996692,4.169823 l -0.01628,0.01 0.09772,0.162742 c 0.143315,0.270681 0.301288,0.529738 0.470661,0.783814 l 13.71104,22.800355 c 1.29798,-0.833634 2.740905,-1.451385 4.288058,-1.791813 v -12.35009 c 0,-3.266445 1.140008,-4.487003 2.545467,-4.487003 1.40548,0 2.54548,1.220558 2.54548,4.487003 V 86.83232 Z m 35.18066,31.19813 0.008,-0.0183 -0.16937,-0.0764 c -0.27034,-0.14116 -0.54395,-0.26404 -0.8257,-0.3753 l -24.43851,-11.08964 c -0.64654,1.31023 -1.48201,2.50754 -2.4901,3.53547 l 7.28627,10.81232 c 1.81425,2.69187 1.55367,4.3558 0.39412,5.16785 -1.15954,0.81038 -2.77836,0.46332 -4.59097,-2.22856 l -7.30256,-10.83888 c -1.28496,0.56462 -2.67739,0.92164 -4.13335,1.04785 l 1.01624,27.55638 c -0.002,1.78019 0.50649,3.58197 1.56832,5.15956 2.79302,4.14658 8.35626,5.19941 12.4212,2.34978 1.62207,-1.13753 2.75067,-2.72509 3.35814,-4.48037 0.21823,1.22721 0.68238,2.43448 1.42176,3.52883 2.79301,4.14658 8.35625,5.19941 12.41957,2.35145 4.0682,-2.8513 5.09909,-8.52232 2.30607,-12.66724 -0.73774,-1.096 -1.67581,-1.97116 -2.72299,-2.6188 1.82564,0.0531 3.68711,-0.45169 5.30592,-1.58922 4.0682,-2.84796 5.09909,-8.519 2.30608,-12.66557 -0.8371,-1.23883 -1.92174,-2.19534 -3.13828,-2.86125 z m 19.18796,-34.069346 c -1.38104,-4.830753 -6.3417,-7.603993 -11.07762,-6.194124 -1.25238,0.371978 -2.35819,1.004676 -3.29136,1.816721 0.62049,-1.751958 0.73123,-3.709832 0.18077,-5.636154 -1.38267,-4.829092 -6.34334,-7.603993 -11.07925,-6.194124 -1.41524,0.421798 -2.64645,1.172399 -3.64477,2.143863 l -0.0147,-0.01495 -0.1254,0.141152 c -0.21334,0.217542 -0.41366,0.445047 -0.60421,0.680856 L 109.60506,90.49233 c 1.0944,1.082727 2.00316,2.356424 2.68716,3.766293 l 11.81049,-3.510557 c 3.07639,-0.915004 4.54374,-0.141153 4.93622,1.235504 0.39413,1.376656 -0.43645,2.834683 -3.51122,3.749686 l -11.88376,3.533806 c 0.0261,0.352052 0.0521,0.704104 0.0521,1.062798 0,1.22388 -0.17263,2.40458 -0.46903,3.53381 l 25.58992,7.51599 c 1.6579,0.55962 3.49331,0.63269 5.29615,0.098 4.73592,-1.40987 7.45566,-6.46813 6.07461,-11.29556 -0.55046,-1.926327 -1.6758,-3.517204 -3.12362,-4.654731 1.21167,0.172706 2.48034,0.101294 3.73109,-0.272342 4.73754,-1.408207 7.45891,-6.466466 6.07624,-11.293897 z M 87.371634,123.71975 c -1.877756,2.64703 -3.501453,2.95424 -4.641461,2.1123 -1.138379,-0.84193 -1.361496,-2.51251 0.516261,-5.15789 l 7.546853,-10.62799 c -1.021122,-1.03456 -1.871242,-2.24184 -2.525933,-3.56536 L 63.340265,116.6322 c -1.646498,0.5945 -3.139908,1.68719 -4.240831,3.2349 -2.892363,4.07682 -1.998271,9.77276 1.998272,12.72037 1.594383,1.17738 3.439567,1.7287 5.265208,1.72206 -1.060207,0.62108 -2.019442,1.47298 -2.781619,2.54906 -2.893992,4.07351 -1.9999,9.77111 1.995014,12.71872 3.999799,2.94926 9.58421,2.03924 12.476574,-2.03759 0.765434,-1.07608 1.257266,-2.27007 1.506439,-3.49396 0.56349,1.7719 1.654641,3.38768 3.249023,4.5634 3.994914,2.94927 9.580953,2.03925 12.473317,-2.03759 0.864777,-1.2189 1.384295,-2.58226 1.591125,-3.97553 l 0.01954,0.003 0.01303,-0.18931 c 0.03908,-0.30722 0.06189,-0.61111 0.0684,-0.91667 l 2.069929,-27.53313 c -1.415239,-0.12952 -2.768591,-0.47659 -4.0226,-1.01795 z"
     id="path2"
     style="stroke-width:1.64453" />
  <ellipse
     cx="100.26024"
     cy="101.15852"
     id="circle4"
     style="stroke-width:1.64453"
     rx="8.5435457"
     ry="8.711628" />
  <path
     d="m 137.03364,43.104794 c 0,0 -2.92656,-14.321214 -36.71965,-14.321214 -33.793103,0 -38.112105,14.286341 -38.112105,14.286341 0,0 -10.626504,-15.656355 -10.626504,-18.766703 C 51.573753,12.592505 64.213185,0 100.31399,0 c 36.10079,0 47.9927,12.868168 47.9927,24.354698 -0.002,3.133596 -11.27305,18.750096 -11.27305,18.750096 z"
     id="path18"
     style="stroke-width:1.64453" />
  <path
     d="m 165.77813,119.63959 c 0,0 12.47821,-7.22039 2.14647,-40.027658 -10.33173,-32.807271 -24.98897,-32.634565 -24.98897,-32.634565 0,0 11.36913,-15.103367 14.27452,-16.054904 10.93594,-3.578643 26.55731,4.840716 37.59421,39.889827 11.03529,35.04911 2.65622,50.52778 -8.06962,54.04 -2.9282,0.95652 -20.95661,-5.2127 -20.95661,-5.2127 z"
     id="path20"
     style="stroke-width:1.64453" />
  <path
     d="m 103.62652,170.91631 c 0,0 10.63139,9.82425 37.95575,-10.4503 27.32437,-20.27455 22.57217,-34.41808 22.57217,-34.41808 0,0 17.62614,6.2838 19.42248,8.79965 6.75698,9.46721 3.80436,27.23255 -25.38472,48.89206 -29.19236,21.65951 -46.23222,18.38809 -52.86056,9.10021 -1.80934,-2.53245 -1.70512,-21.92354 -1.70512,-21.92354 z"
     id="path22"
     style="stroke-width:1.64453" />
  <path
     d="m 36.045215,125.80382 c 0,0 -6.019243,13.28001 21.119463,33.81195 27.138706,20.53361 38.955704,11.68414 38.955704,11.68414 0,0 -0.615605,19.02908 -2.433103,21.52833 -6.841677,9.4041 -24.3522,11.83857 -53.342605,-10.09659 C 11.352641,160.79647 9.3234265,143.2387 16.034817,134.01228 c 1.832155,-2.51418 20.010398,-8.20846 20.010398,-8.20846 z"
     id="path24"
     style="stroke-width:1.64453" />
  <path
     d="m 57.040906,47.402486 c 0,0 -14.259872,-1.609144 -24.747946,31.148308 -10.489703,32.757446 1.490153,41.377746 1.490153,41.377746 0,0 -17.894868,5.4402 -20.795375,4.47538 C 2.0713467,120.77048 -5.7458512,104.61095 5.4587992,69.616642 16.661821,34.623992 32.348331,27.089745 43.057893,30.655102 c 2.920049,0.973125 13.983013,16.747384 13.983013,16.747384 z"
     id="path26"
     style="stroke-width:1.64453" />
  <path
     d="m 124.84207,37.588199 -0.30455,-0.139492 c -7.60059,-3.015692 -15.46828,-4.540144 -24.11605,-4.540144 -8.685235,0 -16.989379,1.670587 -24.617661,4.712849 l -0.02931,0.02823 c -12.87069,5.179484 -8.543546,13.759923 -8.543546,13.759923 0.613976,1.637375 2.146473,2.698513 3.970485,2.698513 2.361446,0 4.275031,-1.952893 4.275031,-4.359136 0,-2.16047 -1.547154,-3.942319 -3.569854,-4.286068 l 0.02606,-0.03321 c 0,0 -5.175636,-1.607484 15.580653,-7.770056 l -0.057,-0.0017 c 4.193601,-0.885113 8.537032,-1.355069 12.989582,-1.355069 4.65123,0 9.17869,0.534721 13.54818,1.499543 20.17163,6.043007 14.16867,7.627242 14.16867,7.627242 l 0.0261,0.03321 c -2.02433,0.343749 -3.56986,2.125598 -3.56986,4.286068 0,2.406243 1.91522,4.359136 4.27503,4.359136 1.82239,0 3.36791,-1.167418 3.98189,-2.804792 l 0.0505,0.06144 c 0,-0.0017 4.94764,-8.605349 -8.08428,-13.77653 z"
     id="path6"
     style="stroke-width:1.64452" />
  <path
     d="m 167.54677,105.63057 0.0342,-0.33711 C 168.03209,96.988688 167.00771,88.889829 164.3238,80.508664 161.62687,72.089305 157.49027,64.56004 152.28369,58.11184 l -0.0342,-0.01993 c -8.82692,-10.867118 -15.48131,-4.005423 -15.48131,-4.005423 -1.33544,1.102654 -1.84844,2.919375 -1.28169,4.684618 0.73286,2.288338 3.14805,3.537127 5.39223,2.789846 2.01293,-0.670891 3.19366,-2.723421 2.88422,-4.792558 l 0.0375,0.01495 c 0,0 -0.10748,-5.51493 12.08409,12.688821 l -0.0163,-0.0548 c 2.12856,3.789542 3.91511,7.853087 5.29778,12.167386 1.44618,4.508591 2.35168,9.06202 2.81094,13.597182 0.63351,21.427018 -2.70997,16.101398 -2.70997,16.101398 l -0.0228,0.0349 c -0.94783,-1.85491 -3.08942,-2.80147 -5.10398,-2.12891 -2.24418,0.74728 -3.46888,3.20998 -2.73601,5.49832 0.56674,1.76524 2.13507,2.90111 3.85159,2.98746 l -0.0423,0.0681 c 0.002,0 9.55978,2.12559 10.33336,-12.11259 z"
     id="path8"
     style="stroke-width:1.64452" />
  <path
     d="m 115.97281,168.51837 0.32571,-0.0648 c 7.92469,-1.96784 15.22888,-5.31565 22.31485,-10.36727 7.12179,-5.07486 12.98794,-11.29389 17.53006,-18.24526 l 0.008,-0.0382 c 7.63806,-11.76551 -0.7296,-16.26912 -0.7296,-16.26912 -1.42338,-0.98475 -3.27671,-0.95652 -4.77175,0.10628 -1.93475,1.37998 -2.40542,4.09842 -1.05206,6.06958 1.21492,1.77022 3.48354,2.32819 5.33361,1.42647 l -0.002,0.0415 c 0,0 5.14469,-1.70546 -8.40349,15.47036 l 0.0456,-0.0299 c -2.93959,3.17677 -6.23422,6.09947 -9.88224,8.7 -3.81089,2.71844 -7.82208,4.92375 -11.94729,6.68567 -19.92571,6.83181 -15.89822,2.02762 -15.89822,2.02762 l -0.0391,-0.0116 c 1.4641,-1.46467 1.73119,-3.8294 0.51626,-5.59796 -1.35172,-1.97282 -4.01771,-2.45606 -5.95084,-1.07442 -1.49504,1.06445 -2.10576,2.92435 -1.68721,4.62483 l -0.0749,-0.0216 c 0,0 0.77521,9.94381 14.36411,6.56777 z"
     id="path10"
     style="stroke-width:1.64452" />
  <path
     d="m 42.834776,137.86326 0.162859,0.29726 c 4.314116,7.05764 9.721011,13.08238 16.645746,18.36317 6.955677,5.30569 14.587217,9.03711 22.484215,11.25902 l 0.03909,-0.005 c 13.351123,3.71149 14.924334,-5.80388 14.924334,-5.80388 0.47066,-1.68553 -0.135173,-3.47236 -1.594383,-4.58498 -1.892413,-1.44142 -4.571432,-1.04619 -5.983413,0.88013 -1.268667,1.73203 -1.078122,4.1034 0.342002,5.61457 l -0.03909,0.01 c 0,0 3.200165,4.44881 -17.041492,-3.29135 l 0.04397,0.0349 C 68.93933,158.78551 65.185446,156.51045 61.620478,153.79201 57.894281,150.95235 54.585,147.75897 51.650294,144.31816 39.045062,127.1606 44.78256,129.55688 44.78256,129.55688 l -0.0016,-0.0415 c 1.822384,0.95984 4.108915,0.47826 5.375952,-1.25211 1.415239,-1.92798 1.027636,-4.66137 -0.863149,-6.10279 -1.45921,-1.11261 -3.382566,-1.12092 -4.835262,-0.18433 l -0.0033,-0.0797 c -0.0033,-0.002 -9.019092,3.86593 -1.62044,15.96689 z"
     id="path12"
     style="stroke-width:1.64452" />
  <path
     d="m 48.039727,57.975669 -0.223115,0.252415 c -5.157723,6.441557 -9.004435,13.605485 -11.670426,21.991632 -2.679018,8.427662 -3.678968,16.994816 -3.190393,25.334464 l 0.01629,0.0349 c 0.864778,14.08209 10.206329,12.52775 10.206329,12.52775 1.716527,-0.0897 3.178994,-1.25045 3.740855,-3.01736 0.727977,-2.29 -0.50486,-4.74772 -2.749048,-5.49002 -2.017814,-0.66425 -4.156143,0.28397 -5.100721,2.14221 l -0.0228,-0.0349 c 0,0 -3.095936,4.5252 -2.446132,-17.507945 l -0.01954,0.05314 c 0.467403,-4.340869 1.366381,-8.698344 2.737648,-13.015964 1.433153,-4.513574 3.327195,-8.73986 5.574639,-12.682179 11.856076,-17.702252 11.48313,-11.391884 11.48313,-11.391884 l 0.03909,-0.01661 c -0.302916,2.069137 0.882692,4.120006 2.897249,4.785916 2.245816,0.740638 4.657747,-0.514793 5.385724,-2.803132 0.561861,-1.766903 -0.05212,-3.626801 -1.389181,-4.727794 l 0.07166,-0.02989 c 0.0016,0.0017 -6.499674,-7.451216 -15.341251,3.595249 z"
     id="path14"
     style="stroke-width:1.64452" />
</svg>
