<?xml version="1.0" encoding="UTF-8" standalone="no"?>
<!-- Created with Inkscape (http://www.inkscape.org/) -->

<svg
   width="200.00002"
   height="200.00002"
   id="svg2"
   version="1.1"
   inkscape:version="1.1.1 (3bf5ae0d25, 2021-09-20)"
   sodipodi:docname="oda.svg"
   xmlns:inkscape="http://www.inkscape.org/namespaces/inkscape"
   xmlns:sodipodi="http://sodipodi.sourceforge.net/DTD/sodipodi-0.dtd"
   xmlns="http://www.w3.org/2000/svg"
   xmlns:svg="http://www.w3.org/2000/svg"
   xmlns:rdf="http://www.w3.org/1999/02/22-rdf-syntax-ns#"
   xmlns:cc="http://creativecommons.org/ns#"
   xmlns:dc="http://purl.org/dc/elements/1.1/">
  <defs
     id="defs4" />
  <sodipodi:namedview
     id="base"
     pagecolor="#ffffff"
     bordercolor="#666666"
     borderopacity="1.0"
     inkscape:pageopacity="0.0"
     inkscape:pageshadow="2"
     inkscape:zoom="1.4382997"
     inkscape:cx="62.921518"
     inkscape:cy="127.5812"
     inkscape:document-units="px"
     inkscape:current-layer="svg2"
     showgrid="false"
     inkscape:window-width="1920"
     inkscape:window-height="1017"
     inkscape:window-x="-8"
     inkscape:window-y="-8"
     inkscape:window-maximized="1"
     inkscape:pagecheckerboard="0"
     fit-margin-top="0"
     fit-margin-left="0"
     fit-margin-right="0"
     fit-margin-bottom="0" />
  <metadata
     id="metadata7">
    <rdf:RDF>
      <cc:Work
         rdf:about="">
        <dc:format>image/svg+xml</dc:format>
        <dc:type
           rdf:resource="http://purl.org/dc/dcmitype/StillImage" />
      </cc:Work>
    </rdf:RDF>
  </metadata>
  <rect
     style="opacity:1;fill:#e6c83c;fill-opacity:1;stroke:none;stroke-width:1;stroke-miterlimit:4;stroke-dasharray:none;stroke-dashoffset:6.7;stroke-opacity:1"
     id="rect1165"
     width="200"
     height="200"
     x="0"
     y="0" />
  <path
     d="m 67.547056,109.25182 0.0027,0.0163 0.148094,-0.0422 c 0.242822,-0.0503 0.480307,-0.11564 0.71379,-0.19046 l 21.224225,-5.6907 c -0.273509,-0.9795 -0.429608,-2.00936 -0.429608,-3.0773 0,-0.18093 0.01868,-0.35643 0.02668,-0.534647 l -9.901013,-3.04597 c -2.512273,-0.771366 -3.182033,-1.971269 -2.849821,-3.096347 0.333546,-1.123719 1.542319,-1.748158 4.05459,-0.975432 l 9.678182,2.976629 c 0.533674,-1.183577 1.256803,-2.259679 2.140034,-3.179333 L 78.265904,75.817797 c -0.893905,-1.140044 -2.12269,-2.025686 -3.594296,-2.480071 -3.870473,-1.19038 -7.954415,1.044813 -9.120493,4.990071 -0.466965,1.572662 -0.389582,3.177974 0.1054,4.618674 -0.756483,-0.670695 -1.659727,-1.199903 -2.681713,-1.512803 -3.867804,-1.190379 -7.95308,1.043453 -9.120493,4.987351 -1.167413,3.946618 1.02332,8.110907 4.892459,9.301286 1.021986,0.314261 2.059983,0.383643 3.055285,0.251681 -1.194096,0.921013 -2.128025,2.214786 -2.592322,3.788808 -1.167413,3.943896 1.02332,8.108186 4.892459,9.298566 1.159407,0.35644 2.332156,0.40133 3.444866,0.19046 z M 102.05042,89.212629 c 1.31819,0.225833 2.55498,0.68838 3.67036,1.34683 l 11.44597,-18.440682 c 0.81119,-1.201263 1.28882,-2.656927 1.28882,-4.225507 0,-4.120755 -3.27541,-7.46198 -7.31666,-7.46198 -1.61171,0 -3.09666,0.538731 -4.30809,1.437979 0.41359,-0.933259 0.64708,-1.965828 0.64708,-3.055536 0,-4.120754 -3.27677,-7.46198 -7.31802,-7.46198 -4.042573,0 -7.319333,3.341226 -7.319333,7.46198 0,1.089708 0.234817,2.123637 0.645747,3.055536 -1.208773,-0.899248 -2.693721,-1.437979 -4.305418,-1.437979 -4.042582,0 -7.319342,3.341225 -7.319342,7.46198 0,1.231192 0.297523,2.391642 0.816521,3.416048 l -0.01334,0.0082 0.08006,0.133324 c 0.117409,0.22175 0.246825,0.433978 0.385581,0.642124 l 11.232509,18.678758 c 1.063345,-0.682939 2.245434,-1.189019 3.51291,-1.467909 V 79.186231 c 0,-2.675973 0.93393,-3.675892 2.085325,-3.675892 1.15141,0 2.08533,0.999919 2.08533,3.675892 v 10.026398 z m 28.82109,25.558471 0.007,-0.015 -0.13875,-0.0626 c -0.22147,-0.11564 -0.44562,-0.21631 -0.67644,-0.30745 l -20.02078,-9.08498 c -0.52967,1.07338 -1.21411,2.05425 -2.03997,2.89636 l 5.96914,8.85779 c 1.48629,2.20527 1.27281,3.56841 0.32287,4.23367 -0.94993,0.66388 -2.27611,0.37956 -3.76106,-1.82571 l -5.98248,-8.87955 c -1.05268,0.46256 -2.19341,0.75504 -3.38617,0.85843 l 0.83253,22.57505 c -0.002,1.45838 0.41493,2.93446 1.28482,4.22687 2.28813,3.397 6.84571,4.25951 10.17583,1.92501 1.32885,-0.9319 2.25344,-2.23248 2.75109,-3.67046 0.17878,1.00537 0.55903,1.9944 1.16475,2.89093 2.28812,3.39701 6.8457,4.25952 10.1745,1.92638 3.3328,-2.33587 4.17733,-6.98175 1.8892,-10.3774 -0.60438,-0.89787 -1.37287,-1.61483 -2.23075,-2.1454 1.49562,0.0435 3.02059,-0.37004 4.34677,-1.30194 3.3328,-2.33313 4.17733,-6.97903 1.88921,-10.37602 -0.68578,-1.01489 -1.57435,-1.79849 -2.57097,-2.34403 z m 15.71937,-27.910661 c -1.13139,-3.957502 -5.19531,-6.229426 -9.07513,-5.074418 -1.02599,0.304736 -1.9319,0.823062 -2.69638,1.488314 0.50832,-1.435258 0.59905,-3.039209 0.14809,-4.617312 -1.13272,-3.956142 -5.19666,-6.229427 -9.07646,-5.074418 -1.15941,0.34555 -2.16806,0.960465 -2.98591,1.756319 l -0.012,-0.01225 -0.10274,0.115636 c -0.17477,0.178217 -0.33888,0.364597 -0.49498,0.557779 L 107.86886,92.21102 c 0.89657,0.887004 1.64105,1.930456 2.20141,3.085464 l 9.67552,-2.875957 c 2.52027,-0.7496 3.72237,-0.115637 4.0439,1.012163 0.32289,1.1278 -0.35755,2.32226 -2.8765,3.071859 l -9.73554,2.895004 c 0.0214,0.288412 0.0427,0.576824 0.0427,0.870677 0,1.00264 -0.14142,1.96991 -0.38424,2.89501 l 20.96405,6.15733 c 1.3582,0.45846 2.86183,0.51832 4.33877,0.0803 3.87981,-1.15501 6.10791,-5.2989 4.97651,-9.25368 -0.45095,-1.578107 -1.37287,-2.881402 -2.55897,-3.8133 0.99264,0.141486 2.03198,0.08298 3.05663,-0.223111 3.88114,-1.153647 6.11057,-5.297529 4.97784,-9.25231 z M 89.654512,119.43195 c -1.538316,2.16853 -2.868499,2.42021 -3.802429,1.73047 -0.932595,-0.68974 -1.11538,-2.05833 0.422937,-4.22551 l 6.182616,-8.70678 c -0.836535,-0.84754 -1.532979,-1.83658 -2.069323,-2.92085 l -20.421044,8.31633 c -1.348862,0.48704 -2.57231,1.3822 -3.47422,2.65013 -2.369513,3.33986 -1.637045,8.00615 1.637047,10.42093 1.306167,0.96454 2.817799,1.4162 4.313421,1.41076 -0.868554,0.50881 -1.654389,1.20671 -2.278788,2.08827 -2.370848,3.33715 -1.63838,8.0048 1.634377,10.41957 3.276759,2.41612 7.851682,1.67061 10.221196,-1.66926 0.627067,-0.88156 1.029991,-1.85971 1.234122,-2.86236 0.461628,1.4516 1.355533,2.77529 2.6617,3.73848 3.272757,2.41613 7.849014,1.67062 10.218528,-1.66926 0.708452,-0.99856 1.134057,-2.11546 1.303499,-3.25687 l 0.01601,0.002 0.01067,-0.15508 c 0.03202,-0.25169 0.0507,-0.50064 0.05604,-0.75097 l 1.69575,-22.55599 c -1.159408,-0.10611 -2.268116,-0.39044 -3.295439,-0.83394 z"
     id="path2"
     style="stroke-width:1.34725" />
  <ellipse
     cx="100.21326"
     cy="100.9491"
     id="circle4"
     style="stroke-width:1.34725"
     rx="6.9991374"
     ry="7.1368356" />
  <path
     d="m 130.33917,53.389684 c 0,0 -2.39753,-11.732383 -30.08188,-11.732383 -27.684357,0 -31.222617,11.703814 -31.222617,11.703814 0,0 -8.705561,-12.826172 -8.705561,-15.374265 -0.0013,-9.593779 10.35328,-19.90995 39.928178,-19.90995 29.57489,0 39.31711,10.542002 39.31711,19.952124 -0.002,2.567139 -9.23523,15.36066 -9.23523,15.36066 z"
     id="path18"
     style="stroke-width:1.34725" />
  <path
     d="m 153.88754,116.08936 c 0,0 10.22254,-5.91517 1.75846,-32.791897 -8.46407,-26.876734 -20.47174,-26.735247 -20.47174,-26.735247 0,0 9.31394,-12.373147 11.69413,-13.152676 8.95906,-2.931735 21.75657,3.965665 30.79834,32.678983 9.04045,28.713317 2.17606,41.393927 -6.61088,44.271247 -2.39887,0.78361 -17.16831,-4.27041 -17.16831,-4.27041 z"
     id="path20"
     style="stroke-width:1.34725" />
  <path
     d="m 102.97102,158.09684 c 0,0 8.70956,8.04833 31.09453,-8.56121 22.38497,-16.60954 18.49182,-28.19636 18.49182,-28.19636 0,0 14.43988,5.14789 15.91149,7.20895 5.53553,7.75583 3.11665,22.30975 -20.79595,40.05389 -23.91528,17.74414 -37.87486,15.06409 -43.305,7.45517 -1.48227,-2.07466 -1.39689,-17.96044 -1.39689,-17.96044 z"
     id="path22"
     style="stroke-width:1.34725" />
  <path
     d="m 47.606318,121.13929 c 0,0 -4.93115,10.8794 17.301719,27.6998 22.232869,16.82177 31.91372,9.57201 31.91372,9.57201 0,0 -0.504322,15.58921 -1.993273,17.63667 -5.604914,7.70413 -19.950077,9.69853 -43.699916,-8.27144 -23.751172,-17.96998 -25.413567,-32.35385 -19.915388,-39.91242 1.500958,-2.05969 16.393138,-6.72462 16.393138,-6.72462 z"
     id="path24"
     style="stroke-width:1.34725" />
  <path
     d="m 64.806639,56.910486 c 0,0 -11.682129,-1.31826 -20.274284,25.51766 -8.59349,26.835914 1.220779,33.897934 1.220779,33.897934 0,0 -14.66003,4.45678 -17.036216,3.66637 -8.943046,-2.97663 -15.347137,-16.21502 -6.16794,-44.883439 9.177863,-28.667063 22.028738,-34.839352 30.802343,-31.918501 2.392195,0.797214 11.455318,13.719976 11.455318,13.719976 z"
     id="path26"
     style="stroke-width:1.34725" />
  <path
     d="m 120.35145,48.870318 -0.24949,-0.114276 c -6.22664,-2.470548 -12.6721,-3.719427 -19.75662,-3.719427 -7.115212,0 -13.918224,1.368597 -20.167549,3.860912 l -0.02401,0.02313 c -10.544068,4.243194 -6.999137,11.272556 -6.999137,11.272556 0.502988,1.341388 1.758457,2.210705 3.252744,2.210705 1.93457,0 3.502238,-1.59987 3.502238,-3.571139 0,-1.769924 -1.267477,-3.22967 -2.924535,-3.51128 l 0.02135,-0.02721 c 0,0 -4.240041,-1.3169 12.764154,-6.36547 l -0.0467,-0.0014 c 3.435528,-0.725112 6.993801,-1.110115 10.641465,-1.110115 3.81044,0 7.51947,0.43806 11.09909,1.228472 16.52523,4.950619 11.60742,6.248474 11.60742,6.248474 l 0.0214,0.02721 c -1.6584,0.28161 -2.92454,1.741356 -2.92454,3.51128 0,1.971269 1.56901,3.571139 3.50224,3.571139 1.49295,0 2.75909,-0.956385 3.26208,-2.297772 l 0.0414,0.05033 c 0,-0.0014 4.05326,-7.049768 -6.62289,-11.28616 z"
     id="path6"
     style="stroke-width:1.34724" />
  <path
     d="m 155.33647,104.61274 0.028,-0.27617 c 0.36957,-6.80353 -0.46964,-13.438366 -2.66838,-20.304476 -2.20941,-6.8974 -5.59824,-13.065608 -9.86363,-18.348173 l -0.028,-0.01633 c -7.23128,-8.90268 -12.68277,-3.281367 -12.68277,-3.281367 -1.09403,0.903328 -1.5143,2.391643 -1.05,3.837784 0.60039,1.874678 2.57898,2.897724 4.41749,2.285529 1.64905,-0.549615 2.61634,-2.231111 2.36284,-3.926212 l 0.0307,0.01225 c 0,0 -0.0881,-4.518002 9.89966,10.395076 l -0.0134,-0.04489 c 1.74378,3.10451 3.20738,6.433492 4.3401,9.9679 1.18476,3.693577 1.92657,7.423887 2.30281,11.139233 0.51899,17.553676 -2.22009,13.190756 -2.22009,13.190756 l -0.0187,0.0286 c -0.77649,-1.5196 -2.53095,-2.29506 -4.18134,-1.74407 -1.8385,0.61219 -2.84181,2.62971 -2.24142,4.50439 0.46429,1.44614 1.74911,2.37668 3.15534,2.44742 l -0.0346,0.0558 c 0.002,0 7.83167,1.74135 8.46541,-9.92301 z"
     id="path8"
     style="stroke-width:1.34724" />
  <path
     d="m 113.08548,156.13237 0.26683,-0.0531 c 6.49216,-1.61212 12.47597,-4.35475 18.28102,-8.49319 5.83439,-4.15748 10.64012,-9.25231 14.36117,-14.94708 l 0.007,-0.0313 c 6.25734,-9.63867 -0.59771,-13.32817 -0.59771,-13.32817 -1.16608,-0.80673 -2.68438,-0.78361 -3.90916,0.0871 -1.58501,1.13052 -1.9706,3.35755 -0.86188,4.97239 0.9953,1.45022 2.85382,1.90732 4.36945,1.16861 l -0.002,0.034 c 0,0 4.21469,-1.39717 -6.8844,12.67379 l 0.0374,-0.0245 c -2.4082,2.60251 -5.10726,4.99687 -8.09583,7.12731 -3.122,2.22703 -6.40809,4.03369 -9.78759,5.47711 -16.32376,5.59683 -13.02432,1.66109 -13.02432,1.66109 l -0.032,-0.01 c 1.19944,-1.1999 1.41824,-3.13716 0.42294,-4.58602 -1.10738,-1.61619 -3.29144,-2.01208 -4.87512,-0.8802 -1.22478,0.87203 -1.7251,2.39572 -1.38221,3.78881 l -0.0614,-0.0177 c 0,0 0.63507,8.14628 11.76752,5.38052 z"
     id="path10"
     style="stroke-width:1.34724" />
  <path
     d="m 53.168537,131.01876 0.133419,0.24352 c 3.534258,5.78184 7.963754,10.71749 13.636711,15.04368 5.698307,4.34659 11.950301,7.40348 18.419766,9.22374 l 0.03202,-0.004 c 10.937654,3.04057 12.226477,-4.75472 12.226477,-4.75472 0.385579,-1.38084 -0.110738,-2.84466 -1.306168,-3.75615 -1.550323,-1.18086 -3.745059,-0.85708 -4.901797,0.72102 -1.039332,1.41894 -0.883231,3.36164 0.280178,4.59963 l -0.03202,0.008 c 0,0 2.621674,3.6446 -13.960919,-2.69638 l 0.03602,0.0286 c -3.17803,-1.51688 -6.253328,-3.38068 -9.17386,-5.60771 -3.052617,-2.32634 -5.763682,-4.94245 -8.167884,-7.76127 -10.326597,-14.056 -5.626261,-12.0929 -5.626261,-12.0929 l -0.0013,-0.034 c 1.492954,0.78634 3.366151,0.39181 4.404147,-1.02576 1.159408,-1.57946 0.841871,-3.81874 -0.707119,-4.9996 -1.19543,-0.91148 -2.771102,-0.91829 -3.961196,-0.15101 l -0.0027,-0.0653 c -0.0027,-0.002 -7.388719,3.16709 -1.327514,13.08057 z"
     id="path12"
     style="stroke-width:1.34724" />
  <path
     d="m 57.432594,65.572366 -0.182782,0.206786 c -4.225367,5.277123 -7.376713,11.146035 -9.560775,18.016226 -2.194735,6.904202 -3.013925,13.92268 -2.613669,20.754782 l 0.01335,0.0286 c 0.708453,11.53648 8.361341,10.26312 8.361341,10.26312 1.406232,-0.0735 2.604331,-1.02441 3.064625,-2.47192 0.596381,-1.87603 -0.413597,-3.88948 -2.252106,-4.49759 -1.653055,-0.54417 -3.404841,0.23264 -4.178668,1.75496 l -0.01868,-0.0286 c 0,0 -2.536287,3.70719 -2.003947,-14.343048 l -0.01601,0.04353 c 0.382911,-3.556175 1.119382,-7.125953 2.242766,-10.663081 1.174084,-3.69766 2.725742,-7.159965 4.566917,-10.389635 9.712865,-14.502233 9.407336,-9.332584 9.407336,-9.332584 l 0.03202,-0.01361 c -0.248158,1.695101 0.723129,3.375236 2.373516,3.92077 1.839843,0.606754 3.815771,-0.421734 4.412152,-2.296412 0.460294,-1.447502 -0.0427,-2.971188 -1.13806,-3.873156 l 0.05871,-0.02449 c 0.0013,0.0014 -5.324734,-6.104267 -12.568028,2.94534 z"
     id="path14"
     style="stroke-width:1.34724" />
</svg>
