<?xml version="1.0" encoding="UTF-8" standalone="no"?>
<!-- Created with Inkscape (http://www.inkscape.org/) -->

<svg
   width="200.00002"
   height="200.00002"
   id="svg2"
   version="1.1"
   inkscape:version="1.1.1 (3bf5ae0d25, 2021-09-20)"
   sodipodi:docname="uesugi.svg"
   xmlns:inkscape="http://www.inkscape.org/namespaces/inkscape"
   xmlns:sodipodi="http://sodipodi.sourceforge.net/DTD/sodipodi-0.dtd"
   xmlns="http://www.w3.org/2000/svg"
   xmlns:svg="http://www.w3.org/2000/svg"
   xmlns:rdf="http://www.w3.org/1999/02/22-rdf-syntax-ns#"
   xmlns:cc="http://creativecommons.org/ns#"
   xmlns:dc="http://purl.org/dc/elements/1.1/">
  <defs
     id="defs4" />
  <sodipodi:namedview
     id="base"
     pagecolor="#ffffff"
     bordercolor="#666666"
     borderopacity="1.0"
     inkscape:pageopacity="0.0"
     inkscape:pageshadow="2"
     inkscape:zoom="0.50851574"
     inkscape:cx="-44.246418"
     inkscape:cy="268.42827"
     inkscape:document-units="px"
     inkscape:current-layer="svg2"
     showgrid="false"
     inkscape:window-width="1920"
     inkscape:window-height="1017"
     inkscape:window-x="-8"
     inkscape:window-y="-8"
     inkscape:window-maximized="1"
     inkscape:pagecheckerboard="0"
     fit-margin-top="0"
     fit-margin-left="0"
     fit-margin-right="0"
     fit-margin-bottom="0" />
  <metadata
     id="metadata7">
    <rdf:RDF>
      <cc:Work
         rdf:about="">
        <dc:format>image/svg+xml</dc:format>
        <dc:type
           rdf:resource="http://purl.org/dc/dcmitype/StillImage" />
      </cc:Work>
    </rdf:RDF>
  </metadata>
  <rect
     width="200"
     height="200"
     x="5e-07"
     y="5e-07"
     id="rect4450"
     style="fill:#000000;fill-opacity:1;fill-rule:nonzero;stroke:#000000;stroke-width:0;stroke-linecap:round;stroke-linejoin:miter;stroke-miterlimit:4;stroke-dasharray:none;stroke-opacity:1" />
  <path
     d="m 97.306029,180.81145 c -12.38833,-0.54707 -22.97882,-3.25451 -33.66901,-8.60748 -15.2856,-7.65404 -28.20364,-20.5643 -35.83841,-35.8168 -4.87682,-9.74279 -7.60359,-19.57442 -8.45636,-30.49032 -0.20676,-2.64657 -0.20864,-9.233517 -0.003,-11.830437 1.55564,-19.68255 9.70753,-37.46591 23.49414,-51.25253 13.78703,-13.78703 31.55815,-21.93347 51.25252,-23.4946 2.56237,-0.20311 9.314001,-0.20066 11.830441,0.004 19.97372,1.62682 37.69943,9.81974 51.54849,23.82599 13.66582,13.82094 21.62506,31.29125 23.19701,50.91684 0.20452,2.55341 0.203,9.305327 -0.003,11.830437 -1.456,17.87642 -8.13364,33.8316 -19.77785,47.25599 -1.66113,1.91508 -5.73757,5.98971 -7.70897,7.70552 -13.30516,11.58026 -29.6055,18.42294 -47.05884,19.75474 -1.94178,0.14817 -7.240851,0.2675 -8.807101,0.19834 z m 8.281301,-14.57585 c 12.81553,-1.13625 24.24217,-5.49709 34.37399,-13.11843 8.87206,-6.67375 16.22924,-15.85148 20.64733,-25.7566 3.98398,-8.93189 5.84025,-17.63831 5.83737,-27.378937 -0.002,-5.45094 -0.46371,-9.73871 -1.59374,-14.78804 -1.98051,-8.84949 -6.03649,-17.63467 -11.53076,-24.97537 -6.15686,-8.22596 -14.36356,-15.1206 -23.35136,-19.61802 -7.95889,-3.98256 -15.85431,-6.17416 -24.97435,-6.93233 -2.06196,-0.17142 -7.818571,-0.17037 -10.062451,0.002 -11.99921,0.92086 -23.36885,4.98748 -33.18435,11.86917 -6.02956,4.22735 -11.69411,9.86985 -15.99774,15.93546 -7.0094,9.8792 -11.13125,21.30592 -12.06245,33.43991 -0.17541,2.28575 -0.17429,7.871087 0.002,10.134757 0.66588,8.54846 2.78049,16.36739 6.48613,23.98291 1.49898,3.08058 2.45054,4.74811 4.35063,7.62407 6.50015,9.83855 15.30415,17.62041 25.88667,22.88122 6.67667,3.31916 13.04114,5.27207 20.77935,6.37608 3.60888,0.51488 10.485121,0.66886 14.393691,0.32232 z m -9.464341,-1.47305 c -0.32534,-0.0238 -1.53796,-0.13483 -2.69471,-0.2466 -10.67302,-1.03136 -21.48823,-5.02302 -30.36478,-11.20703 -2.09282,-1.458 -5.35362,-4.02707 -4.7254,-3.72297 0.47362,0.22927 2.5899,0.77893 3.56754,0.9266 1.38402,0.20904 4.14081,0.17532 5.57111,-0.0681 1.53654,-0.26157 3.69762,-0.96904 4.94028,-1.61732 l 0.94078,-0.49082 1.3958,1.28332 c 3.50606,3.22351 6.75286,5.65476 10.91916,8.17651 1.95195,1.18145 7.63989,4.03241 8.04506,4.03241 0.14838,0 0.33719,-0.0813 0.41959,-0.18052 0.16273,-0.19608 0.0654,-0.60817 -0.14362,-0.60817 -0.2372,0 -4.88079,-2.33381 -6.54646,-3.29015 -4.26188,-2.44697 -8.74388,-5.73959 -12.46467,-9.15692 l -0.83141,-0.7636 0.82868,-0.59151 c 1.12403,-0.80236 2.90833,-2.62102 3.81437,-3.88788 0.76752,-1.07317 1.92404,-3.26695 2.21219,-4.19625 0.0897,-0.28919 0.20905,-0.57602 0.2653,-0.63738 0.13519,-0.14748 1.72847,0.94354 3.28365,2.24854 2.49244,2.09148 5.12336,5.13829 6.72445,7.78747 1.03269,1.70867 5.14577,9.59733 6.06549,11.63326 0.3266,0.72296 0.95116,2.06866 1.38792,2.99046 l 0.7941,1.67599 -1.40645,-0.023 c -0.77355,-0.0127 -1.67263,-0.0425 -1.99797,-0.0663 z m 4.469271,0.0115 c 0,-0.19052 3.66961,-7.69381 4.71922,-9.64944 0.64025,-1.19291 1.58998,-3.01288 2.11051,-4.04442 2.44285,-4.84099 5.802,-8.77213 10.17954,-11.91288 0.5648,-0.4052 1.06904,-0.73675 1.12054,-0.73675 0.0515,0 0.19325,0.31602 0.315,0.70227 0.33335,1.05753 1.43085,3.13215 2.28312,4.31584 0.84921,1.17945 3.07572,3.39108 4.00708,3.9803 l 0.61068,0.38633 -0.87907,0.8139 c -5.12192,4.74212 -11.48072,9.0057 -17.56553,11.77767 -0.79527,0.36227 -1.49618,0.70611 -1.55759,0.76404 -0.18661,0.17608 0.0454,0.65762 0.31685,0.65762 0.53739,0 4.70285,-2.01279 7.35373,-3.5534 4.34432,-2.52477 9.68166,-6.5155 12.28496,-9.18544 0.35877,-0.36793 0.72193,-0.66898 0.80702,-0.66898 0.0851,0 0.61968,0.2289 1.18798,0.50863 2.33261,1.14832 4.13788,1.58122 7.0204,1.68358 2.40847,0.0855 3.89001,-0.0896 5.74749,-0.67951 0.55257,-0.17546 1.01922,-0.3045 1.03698,-0.28674 0.0178,0.0177 -0.45293,0.42241 -1.04596,0.89924 -9.37711,7.5396 -20.87262,12.39198 -32.80035,13.84532 -2.99294,0.36468 -7.2526,0.58951 -7.2526,0.38282 z m -4.666451,-12.07947 c -1.5189,-0.33602 -1.43536,-0.24079 -1.74997,-1.99541 -1.01225,-5.64558 -1.03548,-10.61468 -0.0758,-16.21209 0.26728,-1.55893 1.03196,-4.82442 1.16258,-4.9648 0.0307,-0.033 1.5811,0.29785 2.05944,0.43945 0.19328,0.0572 0.19592,0.14578 0.0282,0.94587 -0.7906,3.77163 -1.01414,8.93006 -0.56344,13.00224 0.29531,2.66811 1.12674,6.65901 1.75446,8.42148 l 0.19898,0.55866 -1.0129,-0.0105 c -0.5571,-0.006 -1.36782,-0.089 -1.8016,-0.18494 z m 5.516221,-0.0346 c 0.0491,-0.12654 0.25974,-0.82157 0.46818,-1.54453 1.30888,-4.53991 1.88477,-9.60613 1.59881,-14.06509 -0.15702,-2.4482 -0.40099,-4.45889 -0.73355,-6.04538 -0.11793,-0.56261 -0.14411,-0.94753 -0.0677,-0.99479 0.17279,-0.10678 2.10024,-0.55532 2.14231,-0.49855 0.13566,0.1832 0.91434,3.54907 1.18146,5.10692 0.63636,3.71128 0.83704,7.11939 0.61148,10.38451 -0.2134,3.08889 -0.79314,6.8513 -1.10856,7.19436 -0.2558,0.27822 -2.17191,0.69258 -3.20275,0.69258 -0.87864,0 -0.96977,-0.0236 -0.88971,-0.23003 z m -38.575701,-2.87369 c -0.99719,-0.12296 -3.11553,-0.61555 -3.99853,-0.92979 -0.51195,-0.18218 -1.45826,-0.60617 -2.1029,-0.94218 -0.98987,-0.51593 -1.42307,-0.86073 -2.78652,-2.21785 -1.61124,-1.60378 -3.99408,-4.28143 -3.99408,-4.48823 0,-0.0842 17.7052,-14.52163 18.67299,-15.22651 0.18552,-0.13512 0.50917,0.0898 2.20672,1.53375 1.09412,0.93067 2.12347,1.80046 2.28743,1.93291 1.17097,0.9459 2.08896,2.95712 2.27786,4.99055 l 0.0871,0.9377 1.1347,0.48753 c 0.91939,0.39503 3.60695,1.79448 3.81531,1.98672 0.0999,0.0922 -0.5494,1.71093 -1.18162,2.94578 -2.29762,4.4877 -6.70414,7.77733 -11.70869,8.74093 -1.09435,0.2107 -3.84137,0.35576 -4.70978,0.24869 z m 29.84353,-0.52965 c -0.48606,-0.91622 -2.06576,-3.30669 -2.77533,-4.19971 l -0.63608,-0.80052 0.1265,-1.63128 c 0.23427,-3.02084 0.85943,-6.64753 1.65207,-9.58395 0.28118,-1.04166 1.33667,-4.33503 1.42067,-4.43282 0.0924,-0.10753 1.78501,0.57613 1.78501,0.72098 0,0.0979 -0.17319,0.86966 -0.38487,1.71492 -0.51197,2.04442 -0.87017,4.12305 -1.13694,6.59764 -0.26897,2.49503 -0.19813,8.40305 0.12837,10.70535 0.11218,0.79102 0.18885,1.45334 0.17037,1.4718 -0.0185,0.0185 -0.17587,-0.23462 -0.34977,-0.56241 z m 14.327881,0.41285 c 0.002,-0.14459 0.0951,-0.85442 0.20661,-1.57738 0.32676,-2.11858 0.39849,-7.9664 0.12741,-10.38614 -0.27025,-2.41241 -0.74188,-5.0427 -1.2489,-6.96517 -0.20974,-0.79526 -0.34209,-1.48256 -0.29412,-1.5273 0.048,-0.0447 0.45952,-0.20442 0.91456,-0.35482 l 0.82735,-0.27346 0.13763,0.35482 c 0.87757,2.26239 1.9046,6.16974 2.40815,9.16192 0.27514,1.63491 0.59464,4.57759 0.59616,5.49081 10e-4,0.70753 -0.0416,0.81387 -0.63512,1.57742 -0.89001,1.14503 -1.68142,2.33924 -2.41544,3.64488 -0.34548,0.61454 -0.62641,0.99901 -0.62429,0.85442 z m 26.57507,0.0522 c -5.41908,-0.73189 -10.09161,-3.89384 -12.67809,-8.57942 -0.58267,-1.05552 -1.21828,-2.53488 -1.30393,-3.03482 -0.0354,-0.20675 0.22774,-0.40701 1.33611,-1.01675 0.75912,-0.41761 1.89139,-0.97299 2.51615,-1.23418 l 1.13594,-0.47489 0.0908,-0.96904 c 0.15622,-1.66712 0.63144,-3.02174 1.42439,-4.06023 0.35957,-0.4709 2.00053,-1.91268 4.81946,-4.23445 l 0.34615,-0.28512 9.39155,7.62727 c 5.16535,4.19497 9.37419,7.68791 9.35296,7.76207 -0.0611,0.21351 -2.21373,2.64671 -3.8713,4.37596 -1.36571,1.42476 -1.64342,1.64752 -2.81194,2.25534 -1.55867,0.81082 -3.19395,1.40006 -4.67301,1.68381 -1.3782,0.26445 -3.82471,0.35335 -5.07525,0.18445 z m -46.231201,-7.5386 c -0.57837,-0.58843 -1.51414,-1.45163 -2.07949,-1.91823 -1.02688,-0.84756 -1.02781,-0.8489 -0.94759,-1.37419 0.17065,-1.11741 1.43068,-4.55276 2.36245,-6.44101 0.53514,-1.08445 1.45249,-2.69623 2.03856,-3.58172 l 1.06558,-1.60994 0.9163,0.46142 c 0.50396,0.25381 0.91629,0.50026 0.91629,0.54774 0,0.0474 -0.26381,0.89348 -0.58626,1.88008 -1.3078,4.00157 -2.43707,9.7525 -2.43707,12.41108 0,0.32392 -0.0444,0.61273 -0.0986,0.64177 -0.0542,0.0291 -0.5718,-0.4286 -1.15018,-1.017 z m 24.120941,0.39319 c 0,-0.90328 -0.4798,-4.41883 -0.85283,-6.24886 -0.44034,-2.16015 -1.11664,-4.69803 -1.75465,-6.58442 l -0.51531,-1.52361 0.94741,-0.4688 0.94741,-0.46878 1.02237,1.53232 c 1.38889,2.08169 2.94484,5.28837 3.74125,7.71047 0.9611,2.9229 0.95692,2.78218 0.10247,3.44532 -0.39222,0.30439 -1.33513,1.14732 -2.09536,1.87317 -0.76024,0.72581 -1.41836,1.3197 -1.4625,1.3197 -0.0441,0 -0.0803,-0.26392 -0.0803,-0.58651 z m -63.412531,-3.68119 c -2.07228,-2.75898 -3.54944,-5.15081 -3.85882,-6.24825 -0.5485,-1.94562 -0.62158,-2.52402 -0.61451,-4.86361 0.006,-2.04113 0.0466,-2.45997 0.35934,-3.7166 1.24759,-5.01384 4.36574,-8.95235 8.8943,-11.23433 0.6113,-0.30805 1.16456,-0.56009 1.22945,-0.56009 0.0649,0 1.10268,0.9623 2.30621,2.13846 3.39023,3.31311 7.32642,6.95582 10.31625,9.54701 l 1.42411,1.23424 -0.30679,0.29651 c -0.57096,0.55184 -18.39088,14.91393 -18.5046,14.91393 -0.0621,0 -0.62228,-0.67829 -1.24494,-1.50727 z m 94.828911,-4.75703 c -4.22938,-3.4323 -8.42552,-6.83861 -9.32475,-7.56951 l -1.63495,-1.32892 0.83962,-0.73282 c 2.10931,-1.84093 6.88095,-6.20733 9.33138,-8.53887 1.4821,-1.4102 2.96664,-2.8223 3.29903,-3.13799 l 0.60431,-0.57404 1.25761,0.64427 c 4.70694,2.41131 7.95359,6.73006 8.99372,11.96357 0.30185,1.51878 0.29577,4.54838 -0.0121,6.00852 -0.41546,1.9707 -0.72506,2.68843 -2.00073,4.638 -1.30425,1.99328 -3.43542,4.90002 -3.57808,4.88023 -0.0469,-0.007 -3.54573,-2.82012 -7.77511,-6.25244 z m -60.549791,3.91354 c -0.58795,-0.40607 -1.37313,-0.91779 -1.74483,-1.13715 l -0.67584,-0.39884 0.99687,-1.67776 c 1.65496,-2.78529 4.75308,-6.65421 6.42663,-8.02558 0.56926,-0.46645 0.64002,-0.49078 0.99695,-0.34296 0.70487,0.29197 0.69145,0.38032 -0.27992,1.84151 -1.7086,2.57014 -3.35215,6.1191 -4.1943,9.05683 -0.21634,0.75471 -0.40758,1.38346 -0.42496,1.39721 -0.0174,0.0138 -0.51266,-0.30721 -1.1006,-0.71326 z m 34.128481,0.46169 c 0,-0.37785 -0.91002,-3.10954 -1.56594,-4.70061 -0.76928,-1.86608 -1.88254,-3.93474 -3.05194,-5.67114 -0.85218,-1.26537 -0.85764,-1.36491 -0.0924,-1.68191 l 0.40757,-0.16881 1.59748,1.63349 c 1.8696,1.91171 3.01768,3.3161 4.3443,5.31407 0.89705,1.35098 1.91001,3.07715 1.91001,3.25473 0,0.043 -0.3697,0.30003 -0.82155,0.57123 -0.45186,0.27116 -1.18399,0.74866 -1.62695,1.0611 -0.84567,0.59648 -1.10063,0.68631 -1.10063,0.38785 z m -38.777531,-3.11474 -1.38021,-0.64084 -0.0763,-0.62823 c -0.0419,-0.34552 -0.12125,-0.84366 -0.17628,-1.10698 l -0.10004,-0.47875 1.5565,-1.05979 c 2.23933,-1.52471 4.0487,-3.01053 6.22423,-5.11114 l 1.90729,-1.84165 0.75037,0.57965 0.75037,0.57962 -1.23751,1.24558 c -1.51889,1.52881 -3.09269,3.4018 -4.1788,4.97323 -0.87317,1.26331 -2.46228,3.87788 -2.46228,4.05119 0,0.15988 -0.0983,0.12488 -1.57739,-0.56189 z m 42.715271,-0.15558 c -0.60476,-1.13768 -2.68348,-4.20747 -3.68764,-5.44581 -0.45852,-0.56544 -1.50435,-1.71666 -2.32407,-2.55826 l -1.49041,-1.5302 0.76267,-0.58916 0.76266,-0.58913 2.07591,2.01552 c 2.08212,2.02157 4.28592,3.8171 6.44219,5.24873 0.85827,0.56982 1.13372,0.82026 1.07123,0.97392 -0.0463,0.11381 -0.14843,0.61006 -0.22704,1.10288 l -0.14291,0.89599 -1.37492,0.64854 c -0.7562,0.35669 -1.38752,0.64852 -1.40293,0.64852 -0.0154,0 -0.22455,-0.36968 -0.46474,-0.82154 z M 75.413099,131.1787 c -0.12187,-0.24085 -0.3693,-0.63512 -0.54986,-0.8762 -0.18055,-0.2411 -0.27708,-0.48441 -0.21451,-0.54075 0.0626,-0.0563 0.58697,-0.41611 1.16535,-0.79951 1.80387,-1.19581 3.80936,-2.83828 5.70118,-4.66921 l 1.82077,-1.76215 0.77403,0.71796 0.77402,0.71797 -1.86602,1.83566 c -1.91439,1.8832 -4.1866,3.77477 -5.98849,4.98524 -1.35253,0.9086 -1.35431,0.90904 -1.61647,0.39099 z m 47.583721,-0.47073 c -2.45431,-1.6655 -4.65826,-3.53247 -6.75599,-5.72302 l -0.97976,-1.02314 0.74383,-0.74381 0.74383,-0.74384 1.81332,1.77256 c 1.96783,1.92355 3.72582,3.37843 5.71006,4.72546 l 1.26776,0.86064 -0.36642,0.49143 c -0.20153,0.27029 -0.43906,0.66683 -0.52786,0.88122 -0.0888,0.21436 -0.20191,0.38977 -0.25135,0.38977 -0.0494,0 -0.67828,-0.39928 -1.39742,-0.88727 z m -81.260601,-2.23468 c -1.29885,-2.69212 -1.91689,-4.14898 -2.77475,-6.54061 -1.77747,-4.95544 -2.95251,-10.15364 -3.50599,-15.50997 -0.24932,-2.41277 -0.3969,-7.780017 -0.26621,-9.681307 0.0946,-1.37631 0.10215,-1.40136 0.44596,-1.48015 0.7856,-0.18004 5.67037,-0.23938 7.44798,-0.0905 2.12559,0.17806 5.25873,0.67932 6.96681,1.11461 1.01019,0.25744 1.17707,0.33823 1.14215,0.55296 -0.0225,0.13831 -0.0743,1.38105 -0.11513,2.76165 -0.089,3.008967 0.0848,5.226027 0.60939,7.775997 0.40231,1.95538 0.6704,2.70352 1.30664,3.64625 l 0.38726,0.57381 -0.94218,0.45006 c -0.5182,0.24753 -1.43839,0.78357 -2.04486,1.19122 l -1.10268,0.74116 -0.93479,-0.87 c -3.34354,-3.11186 -6.39671,-7.03633 -8.66779,-11.14136 -0.75837,-1.37077 -1.10321,-2.099467 -2.19921,-4.647277 -0.24835,-0.57735 -0.64944,-0.76361 -0.64944,-0.3016 0,0.4325 1.14793,3.257807 2.0853,5.132357 2.05368,4.10695 4.46977,7.40381 7.85893,10.7239 l 1.7554,1.71962 -0.99688,1.03648 c -1.06929,1.11175 -2.30651,2.86253 -3.00873,4.25765 -1.40392,2.78921 -2.12743,6.63599 -1.80631,9.60381 0.0665,0.6145 0.10976,1.13206 0.0961,1.15014 -0.0136,0.0181 -0.50277,-0.95796 -1.08701,-2.16892 z m 115.623031,-0.0887 c 0.056,-2.42782 -0.1739,-4.10701 -0.83101,-6.07073 -0.85011,-2.54049 -2.10927,-4.64078 -3.96255,-6.6095 -1.09274,-1.16085 -1.09822,-1.17012 -0.80564,-1.36384 0.47595,-0.31515 2.93544,-2.81901 4.09754,-4.17148 2.19297,-2.55221 3.90528,-5.17335 5.4529,-8.34703 1.31866,-2.704197 2.08943,-4.744127 1.87395,-4.959617 -0.23281,-0.2328 -0.43311,0.0495 -1.00065,1.41049 -1.59829,3.832717 -4.19764,7.990687 -7.10815,11.370367 -1.50659,1.74942 -4.24783,4.3664 -4.44241,4.24108 -0.0858,-0.0553 -0.57003,-0.37393 -1.07611,-0.7082 -0.50608,-0.33425 -1.35484,-0.82593 -1.88613,-1.09262 -0.8833,-0.4434 -0.94925,-0.50389 -0.77059,-0.70674 0.72331,-0.82134 1.43168,-3.08279 1.89267,-6.04233 0.23708,-1.52206 0.32168,-6.340317 0.13903,-7.919177 l -0.0992,-0.85763 1.54514,-0.35596 c 3.79196,-0.87356 7.2666,-1.22079 11.07524,-1.10675 1.48209,0.0444 2.81969,0.11688 2.97245,0.16113 0.37247,0.1079 0.44334,0.91567 0.44343,5.054287 1.8e-4,9.83471 -2.37175,19.77059 -6.84819,28.68654 l -0.70834,1.41085 z m -55.11151,0.41346 c -0.10877,-0.54384 -0.0265,-0.57596 0.30026,-0.11715 0.26573,0.37319 0.26672,0.38936 0.0276,0.45189 -0.19252,0.0503 -0.26583,-0.0245 -0.32788,-0.33474 z m -29.152361,-0.42852 -0.74696,-0.72291 1.20703,-0.80854 c 2.60601,-1.74567 4.89725,-3.65387 6.70802,-5.58657 0.49515,-0.52849 0.94042,-0.96088 0.9895,-0.96088 0.0491,0 0.39645,0.34902 0.77196,0.77564 l 0.68274,0.77561 -1.54182,1.55762 c -0.848,0.85666 -2.25118,2.12448 -3.11817,2.81738 -1.54039,1.23105 -3.89524,2.88349 -4.10171,2.8782 -0.057,-0.001 -0.43976,-0.32796 -0.85059,-0.72555 z m 24.21065,0.64858 c 0,-0.0438 0.15853,-0.26562 0.35228,-0.49294 0.19376,-0.22733 0.31206,-0.30494 0.2629,-0.17253 -0.0492,0.13244 -0.0894,0.35424 -0.0894,0.49294 0,0.1645 -0.0914,0.25215 -0.2629,0.25215 -0.1446,0 -0.2629,-0.0358 -0.2629,-0.0796 z m 27.614061,-0.66035 c -1.86621,-1.24945 -3.53844,-2.61294 -5.56345,-4.53628 -1.06638,-1.01282 -1.93876,-1.88149 -1.93863,-1.93035 1.3e-4,-0.0489 0.32256,-0.44375 0.71651,-0.87753 l 0.71629,-0.78869 0.84266,0.92014 c 1.64573,1.79707 4.4823,4.15657 6.82974,5.68105 l 1.28421,0.83401 -0.8473,0.71881 c -0.46601,0.39535 -0.86698,0.71881 -0.89103,0.71881 -0.0241,0 -0.5411,-0.333 -1.149,-0.73997 z m -29.242431,0.36116 c -0.22265,-0.0874 -0.18633,-0.16704 0.35333,-0.77468 0.81599,-0.91875 1.58716,-2.07512 2.14629,-3.21837 l 0.46551,-0.95183 -0.0878,0.92014 c -0.098,1.02657 -0.52395,1.9225 -1.58537,3.33451 -0.59209,0.78764 -0.78342,0.88988 -1.29193,0.69023 z m 7.488991,-0.62762 c -0.92516,-1.17744 -1.53197,-2.42517 -1.60686,-3.30404 l -0.0639,-0.75032 0.56747,1.0516 c 0.71052,1.31663 1.31144,2.18997 2.05773,2.99047 0.32052,0.34378 0.50018,0.62517 0.39981,0.62616 -0.10027,8.7e-4 -0.31019,0.0361 -0.46649,0.078 -0.23006,0.0617 -0.39911,-0.07 -0.88773,-0.69189 z m -9.051641,0.12649 c -0.18717,-0.0487 -0.0501,-0.25707 0.6919,-1.0516 1.69244,-1.81224 3.04883,-4.16817 3.73326,-6.48428 l 0.32926,-1.11424 0.004,0.78869 c 0.008,1.35718 -0.93104,3.61297 -2.3103,5.55233 -0.62739,0.88218 -1.99232,2.41008 -2.13068,2.38511 -0.0464,-0.008 -0.18946,-0.0426 -0.31784,-0.076 z m 10.650851,-0.81332 c -2.05613,-2.17962 -3.66808,-5.46331 -3.63255,-7.39991 0.008,-0.45718 0.0421,-0.71294 0.0749,-0.56834 0.66056,2.90997 2.09763,5.62892 4.0616,7.68459 0.5553,0.58122 0.94747,1.05677 0.87149,1.05677 -0.076,0 -0.22206,0.0322 -0.32463,0.0716 -0.11555,0.0443 -0.5153,-0.277 -1.05083,-0.84468 z m -12.304941,0.1975 -0.31011,-0.17198 0.6271,-0.51348 c 0.79287,-0.64925 2.20674,-2.27762 2.98237,-3.43486 1.31953,-1.96872 2.40941,-4.68916 2.75273,-6.87104 0.15128,-0.9614 0.18065,-1.03201 0.26599,-0.63925 0.13566,0.62436 -0.21504,2.55003 -0.76268,4.18782 -0.53366,1.59599 -1.3209,3.13689 -2.33713,4.57456 -0.76941,1.08852 -2.56121,3.05361 -2.77671,3.04527 -0.0723,-0.003 -0.271,-0.0825 -0.44156,-0.17704 z m 13.543251,-0.94401 c -2.27787,-2.43465 -3.847,-5.43805 -4.49028,-8.59471 -0.2704,-1.32686 -0.35417,-2.61366 -0.14595,-2.24189 0.0607,0.10843 0.1864,0.61125 0.27926,1.11733 0.61153,3.33308 2.36841,6.62468 4.92607,9.22927 l 1.32251,1.34674 -0.38514,0.13428 c -0.21183,0.0738 -0.40056,0.13427 -0.4194,0.13427 -0.0188,0 -0.50802,-0.50639 -1.08707,-1.12529 z m -35.245861,-0.32613 -0.8454,-0.75849 0.63176,-0.37384 c 2.58617,-1.53044 5.32778,-3.71689 7.48841,-5.97212 l 1.49337,-1.55875 0.62555,0.94075 0.62556,0.94073 -1.91182,1.86323 c -2.2398,2.18285 -4.31414,3.82965 -6.73424,5.34622 l -0.5278,0.33075 z m 56.243041,-0.2364 c -0.82725,-0.55381 -1.79881,-1.23084 -2.15902,-1.50456 -1.11287,-0.84561 -3.3646,-2.86724 -4.44455,-3.99032 l -1.02919,-1.07032 0.61512,-0.92506 0.61512,-0.92506 0.80464,0.87805 c 2.22755,2.43079 4.83194,4.59835 7.48325,6.22814 0.70489,0.43329 1.28163,0.80114 1.28163,0.81744 0,0.0163 -0.37416,0.36015 -0.83145,0.76413 l -0.83145,0.73451 z m -36.185611,0.7302 c -0.21035,-0.1538 -0.15885,-0.23767 0.57677,-0.93933 3.89093,-3.71131 6.10358,-8.40296 6.52084,-13.82665 l 0.0999,-1.2991 0.17668,0.72299 c 0.31136,1.27401 -0.05,4.13346 -0.82332,6.51523 -0.98407,3.03082 -3.31884,6.66018 -5.42933,8.43977 -0.72552,0.61175 -0.78587,0.63259 -1.12158,0.38709 z m 16.566741,-1.1509 c -1.54383,-1.62366 -2.54017,-3.02843 -3.51328,-4.95346 -1.63683,-3.23805 -2.42339,-7.16613 -1.91555,-9.56636 l 0.16687,-0.78869 0.0906,1.44593 c 0.33631,5.36479 2.46998,10.11744 6.17733,13.75971 1.07057,1.05177 1.14044,1.15154 0.89738,1.28162 -0.14496,0.0776 -0.35017,0.14108 -0.45601,0.14108 -0.10585,0 -0.75717,-0.59395 -1.44738,-1.31983 z m -17.985201,0.39532 c -0.18464,-0.10776 0.0217,-0.36982 1.31599,-1.67197 2.84116,-2.85826 4.50993,-5.98681 5.30355,-9.94297 0.32486,-1.61939 0.36581,-5.12802 0.0768,-6.58308 -0.17742,-0.89337 -0.17391,-0.9314 0.13744,-1.48846 0.17573,-0.31442 0.3686,-0.52259 0.42859,-0.46259 0.23546,0.23544 0.51383,2.6809 0.5135,4.51096 -8.7e-4,5.50262 -2.07178,10.47675 -5.99478,14.39977 -0.75578,0.75576 -1.41645,1.37233 -1.46815,1.37012 -0.0517,-0.002 -0.19253,-0.0615 -0.31297,-0.13178 z m 19.480921,-1.27729 c -3.16793,-3.22492 -4.98795,-6.82637 -5.72726,-11.33308 -0.18115,-1.10419 -0.21073,-1.85675 -0.14988,-3.81204 0.0417,-1.33991 0.15484,-2.78985 0.25141,-3.22212 l 0.17559,-0.78587 0.36782,0.65444 c 0.35404,0.62995 0.36273,0.68887 0.23233,1.57457 -0.34797,2.36349 -0.28351,4.92334 0.1786,7.09151 0.83989,3.9407 3.11913,7.79959 6.1538,10.41872 0.59123,0.51026 0.61545,0.55517 0.37013,0.68645 -0.14438,0.0773 -0.30794,0.1405 -0.36347,0.1405 -0.0555,0 -0.72562,-0.63587 -1.48907,-1.41308 z m -21.480071,-0.0642 -0.90363,-0.67105 0.37783,-0.25982 c 0.71898,-0.49442 3.1479,-3.05044 3.70744,-3.90143 1.67563,-2.54843 2.64717,-5.6677 2.65533,-8.5254 l 0.004,-1.39901 0.97814,-1.01221 c 0.62237,-0.64404 1.0122,-0.95713 1.07177,-0.86073 0.0515,0.0833 0.11975,1.10596 0.15167,2.27256 0.0438,1.59974 0.004,2.44131 -0.16214,3.42398 -0.67967,4.02189 -2.67316,7.74119 -5.62598,10.49654 -0.66318,0.61884 -1.23842,1.12119 -1.2783,1.11637 -0.0399,-0.005 -0.47913,-0.31073 -0.97612,-0.6798 z m 23.529001,0.004 c -3.26865,-2.88102 -5.31138,-6.53088 -6.0541,-10.8171 -0.21007,-1.21229 -0.27135,-3.86965 -0.12217,-5.297 l 0.0837,-0.80058 0.47498,0.56328 c 0.26125,0.3098 0.72638,0.78654 1.03365,1.05948 l 0.55866,0.49622 v 1.41657 c 0,4.37093 2.22551,9.08767 5.59125,11.85012 0.53966,0.44293 0.98121,0.84529 0.98121,0.89415 0,0.0753 -1.65027,1.32308 -1.7427,1.31771 -0.0175,-10e-4 -0.37953,-0.30829 -0.80446,-0.68285 z m 19.50411,-0.014 c -3.03996,-1.77564 -6.16453,-4.29995 -8.42184,-6.80396 l -0.92354,-1.02445 0.57096,-1.0509 0.57096,-1.0509 0.65119,0.80654 c 2.14192,2.653 5.71874,5.62064 8.89213,7.37779 l 0.87978,0.48713 -0.55116,0.47941 c -0.30314,0.26367 -0.69904,0.60736 -0.87978,0.76373 l -0.32862,0.28433 z m -62.149601,-0.53727 -0.79597,-0.71023 1.48304,-0.88245 c 0.81567,-0.48534 2.11615,-1.35421 2.88995,-1.93081 1.58192,-1.17872 4.34666,-3.79061 5.35845,-5.06212 l 0.66937,-0.84122 0.55878,1.02645 0.55878,1.02648 -0.27533,0.38782 c -0.4767,0.67146 -3.2613,3.38919 -4.4263,4.32 -1.71101,1.36704 -4.74632,3.37631 -5.10048,3.37631 -0.0684,0 -0.48251,-0.31962 -0.92029,-0.71023 z m 16.63351,-1.43096 c -0.41669,-0.37674 -0.75682,-0.72378 -0.75583,-0.77122 8.7e-4,-0.0474 0.30802,-0.30628 0.6823,-0.57518 2.7614,-1.98386 4.80523,-5.42968 5.17874,-8.73116 l 0.0915,-0.80828 0.67052,-0.33977 c 0.3688,-0.18689 0.89977,-0.48451 1.17995,-0.6614 l 0.50942,-0.32157 -0.0879,1.09535 c -0.29518,3.67872 -1.43281,6.53326 -3.65834,9.17948 -0.7285,0.86622 -2.73183,2.63791 -2.96691,2.62387 -0.0472,-0.003 -0.42672,-0.31338 -0.84341,-0.69012 z m 28.624871,0.14895 c -0.9895,-0.79697 -1.46353,-1.26825 -2.29324,-2.27985 -2.14752,-2.6184 -3.20491,-5.33523 -3.49818,-8.9882 l -0.0884,-1.10119 0.57382,0.39311 c 0.3156,0.21622 0.82427,0.52023 1.13038,0.67561 0.34969,0.17747 0.57744,0.3918 0.61275,0.57663 0.0309,0.1618 0.12364,0.702 0.20605,1.20049 0.26886,1.62611 1.06487,3.54314 2.06898,4.98271 0.65823,0.94369 2.34261,2.64944 3.09526,3.13456 0.34341,0.22134 0.62439,0.44657 0.62439,0.50046 0,0.13108 -1.5268,1.45428 -1.6656,1.44349 -0.0599,-0.005 -0.40473,-0.24665 -0.76621,-0.53782 z m -12.14869,-0.0673 c -0.006,-0.0845 -0.0444,-0.26192 -0.086,-0.39433 -0.0719,-0.2289 -0.0682,-0.22919 0.075,-0.006 0.0829,0.12925 0.12158,0.30672 0.086,0.39436 -0.0467,0.115 -0.0675,0.11663 -0.075,0.006 z m -35.529641,-0.79762 -0.85893,-0.75398 1.42206,-0.74878 c 3.2166,-1.69363 5.86231,-3.83744 8.6027,-6.97076 l 0.65511,-0.74904 0.76463,0.13925 c 0.62576,0.11395 0.78691,0.19782 0.88728,0.46183 0.0675,0.17744 0.12265,0.3759 0.12265,0.44105 0,0.21534 -1.91996,2.40872 -3.10592,3.54814 -1.90355,1.82892 -3.85373,3.29613 -6.12589,4.60886 -0.74011,0.42759 -1.38144,0.77744 -1.4252,0.77744 -0.0438,0 -0.46607,-0.3393 -0.93849,-0.75401 z m 66.409851,0.2159 c -1.20529,-0.65337 -3.0384,-1.8784 -4.27211,-2.85494 -1.21714,-0.96343 -3.71543,-3.40863 -4.65863,-4.55962 -0.73505,-0.89701 -0.74973,-0.93055 -0.58342,-1.33337 0.15148,-0.36692 0.2559,-0.42846 0.93176,-0.5491 l 0.76116,-0.13584 0.44743,0.54906 c 0.83783,1.0282 3.75567,3.84439 4.81054,4.64297 1.43238,1.08436 2.79459,1.94948 4.21409,2.67625 l 1.19075,0.60968 -0.8504,0.74651 c -0.46773,0.41058 -0.88526,0.74567 -0.92785,0.74465 -0.0426,-8.7e-4 -0.52109,-0.24232 -1.06332,-0.53625 z m -49.535791,-1.70962 c -0.37281,-0.44081 -0.67783,-0.84139 -0.67783,-0.89012 0,-0.0487 0.22149,-0.20558 0.49219,-0.34851 0.27071,-0.14297 0.99533,-0.76422 1.61026,-1.38053 1.2314,-1.23421 1.91562,-2.33189 2.45607,-3.9402 0.18221,-0.54224 0.34383,-0.99939 0.35915,-1.01587 0.0153,-0.0165 0.51222,-0.17029 1.10422,-0.34177 l 1.07637,-0.31175 v 0.34986 c 0,0.58822 -0.52008,2.37598 -0.98213,3.37601 -0.94668,2.04896 -2.54509,3.90175 -4.35433,5.04727 l -0.40614,0.25715 z m 33.104631,0.26102 c -2.68669,-2.00538 -4.45205,-4.89951 -4.90908,-8.04791 -0.0638,-0.43933 -0.0443,-0.49206 0.15042,-0.40785 0.12301,0.0532 0.64811,0.21451 1.16688,0.35852 l 0.94321,0.26186 0.33431,1.06613 c 0.18387,0.5864 0.55798,1.44817 0.83135,1.91503 0.61364,1.04803 2.05846,2.59896 3.00867,3.22968 0.63013,0.41826 0.69317,0.49971 0.54629,0.7059 -0.23645,0.33192 -1.24122,1.45951 -1.29993,1.45884 -0.027,-2.9e-4 -0.37449,-0.2434 -0.77212,-0.5402 z m -52.351631,-0.93061 -0.88923,-0.79596 1.54648,-0.75457 c 2.63054,-1.28345 4.93535,-2.94369 7.07473,-5.09619 l 1.19042,-1.1977 1.14844,0.28866 1.14844,0.28866 -1.05212,1.16823 c -2.27806,2.52942 -4.87855,4.55834 -7.8977,6.1618 l -1.38022,0.73306 z m 70.951381,0.11256 c -3.0846,-1.61579 -5.92175,-3.8207 -8.10651,-6.30006 l -0.94361,-1.07082 1.16178,-0.29203 1.16178,-0.29204 0.91611,0.98099 c 1.03305,1.10619 3.08837,2.80305 4.562,3.76637 0.54223,0.35448 1.73329,1.01872 2.64681,1.47613 l 1.66094,0.83166 -0.47789,0.44108 c -0.26285,0.24261 -0.6555,0.59994 -0.87257,0.79412 l -0.39467,0.353 z m -32.98614,-0.55451 c -0.0495,-0.26378 -0.0637,-0.5059 -0.0316,-0.53805 0.0321,-0.0321 0.0989,0.15744 0.1484,0.42122 0.0495,0.26381 0.0637,0.50593 0.0316,0.53805 -0.0321,0.0321 -0.0989,-0.15741 -0.1484,-0.42122 z m -2.938711,0.13878 c 0,-0.14459 0.0474,-0.41079 0.10524,-0.59154 0.0833,-0.2602 0.10525,-0.2739 0.10525,-0.0657 0,0.14462 -0.0474,0.41079 -0.10525,0.59154 -0.0833,0.26021 -0.10524,0.2739 -0.10524,0.0657 z m -17.75755,-1.6068 c -0.34506,-0.52509 -0.51658,-0.89858 -0.42644,-0.92864 0.0829,-0.0276 0.50541,-0.31133 0.93886,-0.6304 0.83005,-0.61105 1.8486,-1.86695 2.11773,-2.61125 0.1493,-0.41285 0.20811,-0.44733 0.89373,-0.52393 0.40366,-0.0451 0.95425,-0.11477 1.22355,-0.15485 l 0.48964,-0.0729 -0.25366,0.7373 c -0.42558,1.23694 -1.07911,2.32616 -1.95186,3.25299 -0.75462,0.80142 -2.07184,1.81959 -2.34516,1.81273 -0.06,-10e-4 -0.36892,-0.39799 -0.68639,-0.88107 z m 37.093971,0.42596 c -1.68706,-1.13614 -3.22455,-3.23733 -3.64176,-4.97692 -0.0886,-0.36933 -0.0834,-0.37308 0.40889,-0.30125 0.27421,0.04 0.81008,0.11046 1.19082,0.15657 0.68598,0.0831 0.69549,0.0905 1.05159,0.81901 0.45174,0.92416 1.40604,1.97732 2.29984,2.53805 0.37867,0.23759 0.70745,0.44462 0.73061,0.46009 0.0861,0.0576 -1.09882,1.75695 -1.22691,1.75956 -0.0733,10e-4 -0.43915,-0.20328 -0.81308,-0.45511 z m -16.59181,0.1402 c -0.006,-0.13858 0.0254,-0.21622 0.069,-0.17253 0.0437,0.0437 0.0483,0.15704 0.0104,0.25195 -0.042,0.10485 -0.0731,0.0737 -0.0794,-0.0794 z m -40.244131,-0.94148 c -0.45618,-0.46029 -0.80316,-0.85509 -0.77106,-0.87733 0.0321,-0.0223 0.56116,-0.24032 1.17568,-0.48462 2.2474,-0.89334 4.60913,-2.36616 6.5361,-4.07608 0.61525,-0.54593 1.19389,-1.04732 1.28587,-1.11418 0.16655,-0.12108 2.16818,0.54799 2.16818,0.72474 0,0.12645 -2.20949,2.22575 -3.02333,2.87255 -1.62425,1.29088 -3.74217,2.55355 -5.83742,3.48018 l -0.7046,0.3116 z m 75.125461,-0.18137 c -1.15232,-0.58035 -2.65274,-1.45485 -3.33427,-1.94337 -1.12157,-0.80393 -4.08455,-3.48677 -4.08455,-3.69837 0,-0.0935 1.81624,-0.8107 2.04365,-0.80698 0.0757,0.001 0.37146,0.24471 0.65725,0.54105 0.76308,0.79125 2.21377,1.95723 3.4115,2.74197 1.16004,0.76003 3.62979,1.9941 4.50214,2.24957 0.30726,0.09 0.55866,0.20032 0.55866,0.24517 0,0.0449 -0.37334,0.4516 -0.82963,0.90384 l -0.82964,0.82227 z M 79.462759,116.0516 c -1.36924,-2.89628 -1.36777,-2.89235 -1.05517,-2.8148 0.1641,0.0407 1.14129,0.11538 2.17152,0.16593 1.03024,0.0506 1.87316,0.13067 1.87316,0.17803 0,0.20485 -0.79769,1.29418 -1.26497,1.72744 -0.45509,0.42198 -1.35948,1.03916 -1.52275,1.03916 -0.0341,0 -0.12489,-0.13309 -0.20179,-0.29576 z m 40.288031,-0.0913 c -0.76671,-0.48622 -1.52011,-1.25837 -1.91422,-1.96186 l -0.30417,-0.54293 1.02714,-0.0105 c 0.56493,-0.006 1.52993,-0.0548 2.14446,-0.10889 0.61452,-0.0542 1.14144,-0.0796 1.17092,-0.0565 0.0564,0.0442 -1.39124,3.06768 -1.46883,3.06768 -0.0247,0 -0.31962,-0.17419 -0.6553,-0.38707 z m -61.219001,-0.72692 c -0.46364,-0.46782 -0.81673,-0.87084 -0.78462,-0.89561 0.0321,-0.0248 0.56115,-0.20724 1.17568,-0.40546 2.32809,-0.75102 5.23902,-2.39835 6.86664,-3.8859 l 0.70921,-0.64817 0.97233,0.53692 0.97234,0.53694 -0.99469,0.93832 c -1.67206,1.57732 -4.33369,3.25311 -6.55409,4.12648 -1.58554,0.62366 -1.42318,0.64451 -2.3628,-0.30352 z m 80.903731,0.40617 c -2.56892,-1.05904 -4.6675,-2.34617 -6.68394,-4.09951 l -1.16307,-1.01128 0.90017,-0.50567 c 0.49509,-0.27811 0.95415,-0.50686 1.02014,-0.50837 0.066,-10e-4 0.53919,0.3439 1.05159,0.7675 1.97821,1.63549 4.06092,2.79346 6.46158,3.59256 0.71797,0.23901 1.33168,0.45107 1.36378,0.47131 0.0943,0.0594 -1.61502,1.73895 -1.76341,1.73267 -0.0744,-0.003 -0.60846,-0.20078 -1.18684,-0.43921 z m -83.578131,-2.94899 -0.8895,-0.89636 0.89302,-0.16274 c 1.29603,-0.23619 3.49214,-0.99834 4.63447,-1.6084 0.80706,-0.43098 1.88487,-1.147 3.21869,-2.13822 0.15122,-0.11239 1.90382,0.92186 1.90995,1.12709 0.004,0.14549 -2.07702,1.72625 -3.08632,2.34401 -1.60359,0.98148 -4.70555,2.23099 -5.53856,2.23099 -0.13874,0 -0.65253,-0.40334 -1.14175,-0.89637 z m 85.699261,0.4941 c -1.66354,-0.55363 -3.23007,-1.31776 -4.67705,-2.28136 -1.28829,-0.85794 -2.49041,-1.84527 -2.37342,-1.94936 0.0362,-0.0322 0.44197,-0.31091 0.90184,-0.61942 l 0.83613,-0.56093 0.34692,0.27572 c 0.97283,0.7732 2.6212,1.79279 3.75485,2.32253 1.17357,0.54843 3.91624,1.37186 4.58648,1.37701 0.23373,0.002 0.11318,0.1723 -0.65057,0.92014 -0.64357,0.63018 -1.03503,0.91567 -1.24876,0.9107 -0.17123,-0.004 -0.83561,-0.18174 -1.47642,-0.39503 z m -63.245041,-0.7936 c -5.59968,-0.67904 -11.19497,-3.02637 -15.44528,-6.4796 -2.16064,-1.75545 -4.43991,-4.26624 -5.91972,-6.521037 -1.25668,-1.91483 -2.20674,-2.74905 -3.53248,-3.10175 -0.33202,-0.0883 -1.37265,-0.36991 -2.31251,-0.62573 -3.60424,-0.98102 -6.84084,-1.40634 -11.11381,-1.46045 -2.96833,-0.0376 -3.3011,-0.0971 -3.83384,-0.68578 -0.34046,-0.37621 -0.62909,-1.15829 -0.62909,-1.70463 0,-0.70171 0.47195,-1.58375 1.05325,-1.96843 0.68515,-0.45341 1.55135,-0.51153 3.81037,-0.25565 4.8177,0.5457 9.8129,1.69844 13.70146,3.16188 0.99697,0.3752 1.24474,0.42633 1.38523,0.28584 0.33414,-0.33414 -0.008,-0.59201 -1.65465,-1.24811 -3.96577,-1.57989 -7.51793,-2.46734 -11.91956,-2.97791 -0.93942,-0.10897 -2.09837,-0.19812 -2.57545,-0.19812 -2.06001,0 -3.22275,-1.63902 -2.29084,-3.2292 0.48676,-0.83059 1.26503,-1.17039 2.41155,-1.05293 4.80088,0.49186 10.78302,2.21581 16.02579,4.61836 0.5963,0.27326 1.12658,0.45443 1.17839,0.40262 0.20231,-0.20231 -0.22795,-0.54483 -1.61103,-1.28251 -4.36517,-2.32819 -9.95443,-4.03471 -14.8191,-4.52459 -1.05258,-0.10599 -1.60237,-0.42553 -2.0294,-1.17948 -0.59933,-1.05819 -0.26563,-2.49328 0.73352,-3.15448 0.80371,-0.53188 1.53835,-0.54663 3.47338,-0.0698 5.40105,1.33097 11.09553,3.91141 15.45894,7.00519 l 1.10279,0.78192 0.34315,-0.27849 c 1.42048,-1.1528 3.09712,-2.02544 4.97225,-2.58791 0.95655,-0.28692 1.49871,-0.35745 3.15982,-0.41107 l 2.00514,-0.0647 0.47073,-0.64125 c 0.25889,-0.35269 0.51004,-0.63689 0.55811,-0.63157 0.0481,0.005 0.67891,0.68427 1.40188,1.50876 0.72297,0.82448 1.37364,1.48091 1.44594,1.45873 0.0723,-0.0222 0.27735,-0.52367 0.45567,-1.1144 0.17832,-0.59074 0.36078,-1.07407 0.40548,-1.07407 0.0447,0 1.08184,1.38895 2.30476,3.08657 1.22293,1.69761 2.26774,3.08769 2.32179,3.08905 0.0541,10e-4 0.38733,-0.20517 0.74061,-0.45897 0.85239,-0.61238 2.62164,-1.42324 3.76184,-1.72406 1.26646,-0.33414 4.23667,-0.33308 5.45514,0.002 3.44636,0.94759 6.06544,3.12816 7.56585,6.2991 0.49486,1.04584 0.97321,2.78021 0.97634,3.53992 0.002,0.48212 0.022,0.50153 1.05361,1.0202 0.57837,0.2908 1.05159,0.55048 1.05159,0.57706 0,0.0266 -0.44288,0.33646 -0.98417,0.68864 -0.5413,0.35217 -0.98494,0.70639 -0.98587,0.78716 -8.7e-4,0.0808 0.2497,0.310177 0.55696,0.509807 0.30726,0.19963 0.75589,0.51007 0.99696,0.68986 l 0.43829,0.32689 -1.22438,0.54943 -1.22439,0.54943 -0.34115,0.91423 c -0.96228,2.57876 -2.38585,4.51503 -4.48464,6.09974 -1.96654,1.48486 -3.78675,2.2187 -6.38962,2.57608 -1.85885,0.2552 -6.00372,0.35433 -7.4556,0.17826 z m -4.92934,-7.73381 c 1.50105,-0.33544 2.85208,-0.83204 4.2454,-1.56054 1.03456,-0.54092 1.15225,-0.63988 1.11732,-0.93954 -0.0562,-0.48265 -0.48228,-0.48947 -1.24537,-0.0199 -1.95385,1.20222 -4.30555,1.84627 -7.11934,1.94974 -1.53058,0.0563 -2.03272,0.11739 -2.08503,0.25374 -0.10399,0.27096 0.19264,0.54799 0.66039,0.61672 0.8028,0.11796 3.31887,-0.0527 4.42663,-0.30018 z m -4.35411,-3.63665 c 1.56709,-0.26027 3.21397,-0.72019 4.64256,-1.296497 0.90988,-0.36705 1.09176,-0.48925 1.09176,-0.73348 0,-0.50371 -0.44908,-0.53749 -1.45686,-0.10958 -2.38174,1.01132 -4.70954,1.460497 -7.74458,1.494427 -2.7614,0.0309 -2.5901,0.006 -2.53955,0.36145 0.0566,0.39773 0.41585,0.45938 2.78616,0.47823 1.24799,0.01 2.41314,-0.0605 3.22051,-0.19455 z m 19.71302,-7.019177 c 0.67465,-0.67465 0.70163,-1.64968 0.0633,-2.28801 -0.63152,-0.63152 -1.63472,-0.60984 -2.29413,0.0496 -0.31848,0.31848 -0.37751,0.4839 -0.37751,1.05801 0,0.59863 0.0538,0.73426 0.44693,1.12743 0.38964,0.38963 0.53157,0.44692 1.10721,0.44692 0.55822,0 0.72117,-0.0609 1.0542,-0.39392 z m -5.90254,-1.59059 c 0.0867,-0.44082 0.12701,-0.83215 0.0895,-0.86964 -0.0968,-0.0968 -3.10623,0.18123 -3.21336,0.29687 -0.0488,0.0527 -0.0295,0.11872 0.0428,0.14681 0.0723,0.0281 0.72297,0.31366 1.44594,0.6346 0.72297,0.32094 1.35116,0.58562 1.39597,0.58818 0.0448,0.003 0.15245,-0.35601 0.23917,-0.79682 z m -8.13274,-1.24701 c 0.39546,-0.4765 0.0451,-0.5962 -5.60439,-1.91506 -3.03172,-0.70774 -5.63898,-1.28852 -5.79391,-1.29061 -0.3567,-0.005 -0.51243,0.37571 -0.25791,0.63023 0.1607,0.1607 10.59211,2.72409 11.26949,2.76934 0.11767,0.008 0.29169,-0.0794 0.38672,-0.1939 z m 42.120341,21.309267 c -0.0723,-0.0228 -0.90042,-0.11479 -1.84028,-0.20444 -2.84601,-0.27146 -5.00224,-1.06422 -6.97145,-2.56312 -2.17595,-1.65627 -3.6288,-3.6134 -4.53477,-6.10874 l -0.35794,-0.98587 -1.19904,-0.52412 c -0.65948,-0.28827 -1.19829,-0.55445 -1.19735,-0.59152 8.7e-4,-0.0371 0.44458,-0.35554 0.98587,-0.70772 0.54129,-0.35217 0.98417,-0.70749 0.98417,-0.789587 0,-0.0821 -0.47297,-0.44408 -1.05104,-0.80439 l -1.05104,-0.6551 1.01818,-0.50954 c 0.55999,-0.28025 1.02753,-0.51742 1.03895,-0.52704 0.0114,-0.01 0.11554,-0.56809 0.23135,-1.24103 1.40926,-8.18884 10.71137,-12.15616 17.59063,-7.50236 0.41489,0.28067 0.79938,0.50919 0.85442,0.50782 0.055,-0.001 1.10065,-1.39144 2.32358,-3.08905 1.22292,-1.69762 2.26007,-3.08657 2.30476,-3.08657 0.0447,0 0.22716,0.48333 0.40548,1.07407 0.17832,0.59073 0.38337,1.09222 0.45567,1.1144 0.0723,0.0222 0.72297,-0.63425 1.44594,-1.45873 0.72297,-0.82449 1.35382,-1.50343 1.40189,-1.50876 0.0481,-0.005 0.29866,0.27814 0.55689,0.62992 l 0.46951,0.63959 2.00637,0.0692 c 1.65538,0.0571 2.21249,0.1305 3.18468,0.41958 1.51462,0.45037 3.08821,1.23332 4.27868,2.12889 l 0.94341,0.70972 1.53196,-1.03653 c 4.60067,-3.11281 9.52307,-5.32562 14.80755,-6.65656 2.08787,-0.52585 2.54773,-0.55571 3.28704,-0.21342 1.71792,0.79537 2.01816,2.80228 0.59799,3.99727 -0.50369,0.42384 -0.52804,0.43047 -2.50401,0.68181 -4.41943,0.56214 -8.89539,1.94073 -13.01348,4.00811 -2.10547,1.057 -2.36431,1.21907 -2.36525,1.48096 -0.001,0.3205 0.10082,0.29861 1.35149,-0.29007 4.02541,-1.89474 8.76343,-3.38657 13.14132,-4.13772 3.42222,-0.58719 4.04292,-0.55884 4.7931,0.21887 1.41438,1.4663 0.52182,3.49942 -1.58624,3.61322 -5.40216,0.29163 -10.80243,1.48172 -15.20297,3.35036 -1.21647,0.51656 -1.43979,0.66775 -1.44393,0.97757 -0.003,0.2052 0.39159,0.34125 0.5733,0.19781 0.21042,-0.1661 2.59276,-0.96592 4.74838,-1.59416 4.46805,-1.30216 11.71201,-2.40393 13.00339,-1.97773 0.63055,0.2081 1.37936,0.86515 1.60707,1.41013 0.41479,0.99275 0.0159,2.292 -0.88721,2.88964 -0.50121,0.33169 -0.54219,0.33609 -3.50034,0.37545 -4.2867,0.057 -7.54893,0.48673 -11.07732,1.45908 -0.90372,0.24904 -1.95364,0.53823 -2.33318,0.64264 -1.3203,0.36321 -2.18221,1.13419 -3.52244,3.15081 -4.77095,7.178757 -12.77167,11.991257 -21.51352,12.940587 -1.15549,0.12546 -4.44757,0.17819 -4.77022,0.0764 z m 14.87528,-7.72415 c 0.10193,-0.10192 0.14725,-0.28457 0.10071,-0.40585 -0.0723,-0.18831 -0.30074,-0.2205 -1.56501,-0.2205 -2.60125,0 -5.08025,-0.61156 -7.31287,-1.80405 -1.20567,-0.64398 -1.56311,-0.66859 -1.56311,-0.10764 0,0.29308 0.18535,0.42186 1.61026,1.11883 1.64957,0.80686 3.36847,1.34397 5.02793,1.57112 1.27913,0.17509 3.46477,0.0854 3.70209,-0.15191 z m 4.97357,-3.63322 c 0.276,-0.0587 0.40694,-0.17238 0.43635,-0.3788 0.0508,-0.35675 0.21063,-0.3339 -2.53954,-0.36312 -3.09832,-0.0329 -5.24162,-0.445427 -7.8039,-1.502027 -1.05758,-0.43612 -1.5183,-0.38602 -1.43839,0.15639 0.0474,0.32196 1.1545,0.81968 3.06417,1.377597 2.04138,0.5964 3.49444,0.79611 5.78378,0.79493 1.15675,-5.9e-4 2.28064,-0.0388 2.49753,-0.085 z m -23.22145,-7.114297 c 0.67465,-0.67465 0.70163,-1.64968 0.0633,-2.28801 -0.63153,-0.63152 -1.63473,-0.60984 -2.29414,0.0496 -0.31848,0.31848 -0.3775,0.4839 -0.3775,1.05801 0,0.59863 0.0538,0.73426 0.44692,1.12743 0.38964,0.38963 0.53157,0.44692 1.10721,0.44692 0.55822,0 0.72117,-0.0609 1.0542,-0.39392 z m 5.70583,-1.48323 c 0.7049,-0.30348 1.28163,-0.59159 1.28163,-0.64025 0,-0.11105 -0.66143,-0.21012 -2.13605,-0.31993 -0.70008,-0.0521 -1.15018,-0.0367 -1.15018,0.0394 0,0.0688 0.0679,0.46324 0.15092,0.87656 0.12068,0.60089 0.19311,0.7359 0.36148,0.67372 0.11581,-0.0428 0.7873,-0.32605 1.4922,-0.62953 z m 12.18699,-2.4487 c 3.057,-0.71639 5.64181,-1.38614 5.744,-1.48833 0.24808,-0.24808 0.0865,-0.62778 -0.26512,-0.62301 -0.15494,0.002 -2.7622,0.58287 -5.79392,1.29061 -5.64952,1.31886 -5.99985,1.43856 -5.60439,1.91506 0.095,0.1145 0.21519,0.20819 0.26701,0.20819 0.0518,0 2.59542,-0.58614 5.65242,-1.30252 z M 53.764089,110.58559 c -0.42429,-0.44587 -0.75646,-1.12793 -0.75646,-1.55328 0,-0.12212 0.18008,-0.17756 0.577,-0.17756 1.99067,0 5.01292,-1.05183 7.00807,-2.43901 l 0.81544,-0.56695 0.85224,0.69858 0.85225,0.69857 -0.81326,0.60207 c -1.8067,1.3375 -3.7457,2.25418 -5.87406,2.777 -2.09934,0.5157 -2.13348,0.51518 -2.66122,-0.0394 z m 91.652381,0.41416 c -2.79395,-0.45773 -5.48607,-1.55436 -7.52954,-3.06712 l -0.89133,-0.65986 0.78699,-0.65494 c 0.43285,-0.36023 0.84279,-0.65494 0.91099,-0.65494 0.0682,0 0.44049,0.21555 0.82732,0.47901 1.04464,0.71145 3.18704,1.68753 4.40463,2.00669 0.58977,0.15459 1.55099,0.31799 2.13605,0.36311 1.14498,0.0883 1.16179,0.10383 0.91485,0.845 -0.13709,0.41148 -0.99322,1.45616 -1.15944,1.41479 -0.0396,-0.01 -0.21978,-0.0421 -0.40052,-0.0717 z M 52.690959,107.921 c -0.097,-0.29529 -0.34057,-1.55936 -0.34057,-1.76741 0,-0.1289 0.14351,-0.1907 0.44285,-0.1907 1.59237,0 4.16834,-0.79137 5.61084,-1.72369 l 0.82348,-0.53225 0.77964,0.77966 0.77965,0.77965 -0.96486,0.63797 c -1.78345,1.17924 -4.01043,1.95901 -6.05527,2.12023 -0.80515,0.0635 -1.02796,0.0421 -1.07576,-0.10346 z m 92.922681,0.0552 c -1.65368,-0.23538 -4.00352,-1.15893 -5.45288,-2.14317 l -0.81955,-0.55657 0.76279,-0.77082 0.7628,-0.77084 0.40168,0.26499 c 1.52887,1.00861 3.63614,1.74603 5.43891,1.90329 1.21232,0.10576 1.16405,0.0356 0.90026,1.30861 l -0.16343,0.78869 -0.71813,0.016 c -0.39496,0.009 -0.89556,-0.009 -1.11245,-0.0401 z m -93.527601,-3.22919 c -8.7e-4,-0.16265 -0.0381,-0.51756 -0.0829,-0.78868 l -0.0815,-0.49294 h 0.74708 c 1.38389,0 3.35501,-0.60226 4.56681,-1.39536 0.34709,-0.22716 0.35339,-0.22535 0.72297,0.20814 0.5967,0.69989 0.63604,0.81264 0.35835,1.02704 -0.49345,0.38097 -2.63353,1.32061 -3.47733,1.52677 -0.47455,0.11593 -1.28789,0.21081 -1.80742,0.21081 -0.89154,0 -0.94469,-0.0166 -0.94606,-0.29578 z m 92.936171,0.0233 c -1.0598,-0.27741 -3.00018,-1.17696 -3.32561,-1.54171 -0.18074,-0.20258 -0.15351,-0.2744 0.2944,-0.77626 l 0.49358,-0.55303 1.17018,0.5904 c 1.2625,0.63699 2.55587,0.96982 3.78274,0.97345 l 0.77226,0.002 -0.0821,0.41077 c -0.0452,0.22593 -0.0822,0.58084 -0.0822,0.78869 v 0.37794 l -1.01873,-0.007 c -0.56598,-0.004 -1.45684,-0.12192 -2.00451,-0.26529 z m -93.197621,-2.79956 v -0.73995 h 0.83056 c 0.98734,0 2.00632,-0.27552 2.9371,-0.79417 l 0.6786,-0.37813 0.31658,0.42184 c 0.17412,0.23201 0.35597,0.48886 0.40412,0.57079 0.10663,0.18145 -1.39025,0.98833 -2.36437,1.27448 -0.37445,0.11 -1.15822,0.24164 -1.74171,0.29254 l -1.06088,0.0925 z m 94.972091,0.62373 c -0.14459,-0.0285 -0.58823,-0.11692 -0.98587,-0.19655 -0.6697,-0.1341 -2.56253,-0.95325 -2.69391,-1.16582 -0.0317,-0.0512 0.12317,-0.33892 0.34409,-0.63931 l 0.40164,-0.54616 0.34971,0.2377 c 0.85383,0.58038 2.11523,0.9447 3.27445,0.94573 l 0.82156,8.7e-4 v 0.72297 0.72297 l -0.62438,-0.0153 c -0.34341,-0.008 -0.74269,-0.0385 -0.88729,-0.067 z m -94.756341,-2.24573 c -0.22086,-0.0568 -0.23632,-0.15948 -0.16101,-1.069207 0.18918,-2.28547 0.18016,-2.25511 0.66967,-2.25511 0.49718,0 1.45195,0.37766 2.02399,0.80059 0.35384,0.26159 1.19508,1.30798 1.19508,1.4865 0,0.17464 -1.58475,0.855727 -2.29777,0.987537 -0.80251,0.14835 -1.01749,0.15582 -1.42996,0.0497 z m 94.413971,-0.0872 c -0.77061,-0.16585 -1.97325,-0.718047 -2.0458,-0.939327 -0.0232,-0.0709 0.17927,-0.4246 0.44999,-0.78609 0.57918,-0.77334 1.87974,-1.51166 2.66282,-1.51166 h 0.48667 l 0.0845,0.80798 c 0.0464,0.44438 0.0845,1.17746 0.0845,1.62905 0,1.065427 -0.15504,1.137427 -1.72259,0.800047 z M 99.474949,89.380113 c -2.96481,-1.52883 -6.0286,-4.46253 -7.52956,-7.20986 l -0.39499,-0.72297 2.41774,-8.93457 c 1.32976,-4.91401 2.41775,-9.06257 2.41775,-9.21901 0,-0.33205 -0.90065,-1.19624 -1.44419,-1.38572 l -0.36671,-0.12784 0.24781,-1.14244 c 0.56224,-2.59203 1.45412,-5.36453 1.81432,-5.63998 0.55845,-0.42706 2.36731,-1.08906 2.97574,-1.08906 0.0326,0 0.0593,7.15927 0.0593,15.90949 0,14.08003 0.0229,15.91826 0.19885,15.98579 0.10936,0.042 0.286821,0.003 0.394341,-0.086 0.17106,-0.14196 0.1955,-2.14202 0.1955,-15.99465 0,-15.01551 0.0119,-15.82905 0.23004,-15.76763 0.12652,0.0356 0.43021,0.1052 0.67486,0.15462 0.52538,0.10613 1.21126,0.40585 1.87637,0.81997 0.43788,0.27264 0.52064,0.42732 0.94942,1.77457 0.44691,1.40421 1.26438,4.57963 1.26438,4.91141 0,0.0857 -0.26143,0.28244 -0.58096,0.43712 -0.31953,0.15469 -0.72779,0.47374 -0.90724,0.70901 l -0.32628,0.42777 2.4672,9.12855 2.4672,9.12855 -0.33497,0.59152 c -1.08747,1.92032 -3.09283,4.21836 -4.85962,5.56886 -0.77343,0.59121 -3.14786,2.06222 -3.30799,2.04939 -0.0399,-0.003 -0.309091,-0.12782 -0.598271,-0.27694 z m 20.867561,-1.70602 c -0.5947,-0.33002 -0.95266,-0.61155 -0.95208,-0.74884 0.002,-0.48908 0.54492,-2.44242 0.97571,-3.51078 1.01549,-2.51837 3.32757,-5.67915 4.52696,-6.18868 0.7667,-0.32571 1.98525,-0.1948 2.67642,0.28753 0.6437,0.44921 1.34687,1.62206 1.03882,1.7327 -0.0989,0.0355 -0.6904,0.40657 -1.31449,0.82456 -2.51112,1.68187 -4.75142,4.57178 -5.60184,7.22619 -0.1274,0.39764 -0.26872,0.76419 -0.31406,0.81457 -0.0453,0.0504 -0.51128,-0.14639 -1.03544,-0.43725 z m -41.790981,0.18134 c -0.7723,-2.20801 -1.58176,-3.66287 -2.9159,-5.24079 -0.87616,-1.03626 -2.44549,-2.35702 -3.52358,-2.96545 -0.74434,-0.42008 -0.81154,-0.56763 -0.51608,-1.13318 0.68535,-1.31188 2.4555,-1.86882 3.73938,-1.17652 0.63606,0.34298 1.99751,1.84959 2.875,3.18153 1.11912,1.69871 2.16235,4.2719 2.46067,6.0694 l 0.09,0.54242 -0.85173,0.47631 c -0.95074,0.53169 -1.23964,0.58409 -1.35779,0.24628 z m 2.79295,-2.31383 c -0.47728,-2.25562 -1.7153,-4.77239 -3.36149,-6.83358 -1.14924,-1.43897 -1.68427,-1.95754 -2.30472,-2.23382 -0.80658,-0.35917 -1.16713,-0.57886 -1.22247,-0.74488 -0.0279,-0.0837 0.2478,-0.43986 0.61265,-0.79153 0.6672,-0.64309 1.5913,-1.04884 2.38874,-1.04884 0.70023,0 1.67548,0.39755 2.27948,0.92923 0.48262,0.42481 0.77536,0.88198 1.41029,2.20238 1.42698,2.96757 2.14941,5.64585 2.06703,7.66316 l -0.0387,0.94891 -0.80207,0.48998 -0.80207,0.48997 z m 36.268441,0.49414 -0.79072,-0.46878 0.0413,-1.00824 c 0.0549,-1.34035 0.48449,-3.62281 0.90225,-4.79417 0.18562,-0.52044 0.61984,-1.53778 0.96494,-2.26075 0.3451,-0.72297 0.65795,-1.40322 0.69521,-1.51166 0.0373,-0.10845 0.24705,-0.44212 0.46617,-0.74148 0.90761,-1.23997 2.89758,-1.67067 4.31488,-0.9339 0.64833,0.33703 1.53402,1.221 1.45647,1.45365 -0.0413,0.12379 -0.39224,0.31908 -1.29421,0.72014 -1.02561,0.45604 -3.15905,3.1058 -4.25548,5.28535 -0.63264,1.25761 -1.30964,3.17741 -1.44959,4.11067 -0.0513,0.34183 -0.13085,0.6207 -0.17686,0.61972 -0.046,-8.7e-4 -0.43949,-0.21273 -0.87438,-0.47055 z m -33.621311,-2.3189 c -0.11923,-2.06553 -0.93195,-4.88806 -1.97823,-6.87028 -0.11448,-0.21689 -0.35153,-0.72679 -0.52678,-1.1331 -0.36266,-0.84081 -1.11715,-1.73769 -1.73575,-2.06332 -0.23119,-0.12169 -0.76036,-0.53408 -1.17593,-0.91641 l -0.75558,-0.69514 0.53028,-0.50445 c 0.60782,-0.5782 1.51475,-0.932 2.38436,-0.93014 1.28359,0.003 2.70279,1.07543 3.07489,2.32411 0.10361,0.34772 0.35083,1.0167 0.54937,1.48664 0.47048,1.11359 0.93101,2.6609 1.18857,3.99338 0.2436,1.26026 0.39867,4.11475 0.2701,4.9721 -0.0939,0.62597 -0.0632,0.59398 -1.40585,1.46457 l -0.34156,0.22147 z m 31.008701,0.66338 -0.77435,-0.53715 0.0758,-2.24949 c 0.0975,-2.89565 0.56447,-5.22266 1.44434,-7.19788 0.18179,-0.40811 0.42568,-1.06932 0.54197,-1.46935 0.39468,-1.35766 1.73967,-2.32363 3.23535,-2.32363 0.7452,0 2.10033,0.63357 2.42943,1.13583 0.21866,0.33372 0.21418,0.34746 -0.28328,0.86706 -0.278,0.29039 -0.77164,0.69988 -1.09698,0.90998 -1.3201,0.85252 -1.48821,1.08866 -2.74553,3.85677 -1.06935,2.35427 -1.59067,4.25995 -1.789,6.53959 -0.0487,0.56031 -0.12794,1.01574 -0.176,1.01208 -0.048,-0.004 -0.43582,-0.24838 -0.86171,-0.54381 z m -28.342541,-2.83435 c -8.7e-4,-1.76807 -0.2924,-3.82102 -0.77723,-5.47414 -0.24688,-0.84177 -1.27642,-3.54423 -1.63022,-4.27921 -0.16746,-0.34787 -0.9501,-1.20636 -1.2758,-1.39944 -0.1104,-0.0654 -0.40312,-0.37894 -0.6505,-0.69666 l -0.44977,-0.57768 0.50854,-0.42695 c 0.8199,-0.68834 1.94705,-0.89711 2.94977,-0.54633 0.39186,0.13709 0.50502,0.28965 0.89636,1.20849 0.60641,1.42382 1.2752,3.67758 1.54078,5.19225 0.31632,1.80409 0.40709,4.5985 0.20754,6.38888 l -0.16732,1.50113 -0.49597,0.39282 c -0.27278,0.21605 -0.53182,0.39282 -0.57564,0.39282 -0.0438,0 -0.0801,-0.7542 -0.0805,-1.67598 z m 26.138161,1.30449 c -0.26465,-0.19332 -0.51926,-0.49936 -0.56578,-0.68011 -0.0465,-0.18074 -0.11799,-1.48209 -0.15881,-2.89188 -0.10682,-3.68933 0.3187,-6.27369 1.55261,-9.42961 0.60366,-1.54397 0.78726,-1.7236 1.87653,-1.83603 0.89323,-0.0922 1.72166,0.18716 2.29544,0.77404 l 0.394,0.403 -0.41894,0.57065 c -0.23041,0.31386 -0.517,0.60445 -0.63685,0.64576 -0.40289,0.13886 -1.25076,1.19218 -1.48705,1.84736 -0.12884,0.35725 -0.42889,1.12276 -0.66678,1.70113 -1.02475,2.49141 -1.50601,4.89308 -1.50601,7.5156 0,0.96337 -0.0444,1.74708 -0.0986,1.74158 -0.0542,-0.005 -0.31512,-0.16817 -0.57977,-0.36149 z m -49.535261,-0.0951 c -1.10157,-0.2489 -2.739,-1.03936 -3.77249,-1.82116 -2.14274,-1.62091 -3.19432,-3.61167 -3.19432,-6.04725 0,-1.19956 0.38151,-2.36185 1.32422,-4.03433 l 0.8447,-1.49861 0.084,0.93959 c 0.19814,2.21717 1.35112,4.14477 3.08925,5.16473 0.42364,0.2486 1.3258,0.79523 2.00478,1.21472 1.46495,0.90509 3.75222,2.02633 5.18264,2.54058 0.9785,0.35178 1.02379,0.3858 0.9453,0.71008 -0.27688,1.14382 -1.42915,2.48491 -2.38288,2.77332 -0.81481,0.24641 -3.14682,0.27939 -4.12516,0.0583 z m 69.950301,0.0623 c -0.74433,-0.14634 -1.63511,-0.67441 -2.04569,-1.2127 -0.37543,-0.49223 -0.85836,-1.50616 -0.8626,-1.81111 -0.002,-0.14176 0.4032,-0.36519 1.27874,-0.70516 1.46776,-0.56991 3.91958,-1.77251 4.69712,-2.30388 0.29039,-0.19846 0.96064,-0.60503 1.48943,-0.90348 1.31868,-0.74425 2.03418,-1.3592 2.64401,-2.27244 0.69082,-1.03451 1.05943,-2.06444 1.16831,-3.26441 l 0.0899,-0.9905 0.72853,1.31449 c 1.174,2.11824 1.43112,2.88724 1.43717,4.29849 0.0108,2.52408 -1.29202,4.69064 -3.83463,6.3768 -2.04147,1.35383 -4.58878,1.90675 -6.79026,1.4739 z m -44.407771,-1.45478 c 0.0423,-0.17046 0.11574,-0.99017 0.16313,-1.82158 0.10303,-1.80734 -0.0911,-4.0643 -0.52628,-6.11898 -0.53308,-2.51683 -1.73702,-5.69686 -2.22815,-5.88533 -0.10822,-0.0415 -0.29288,-0.26138 -0.41036,-0.48856 -0.20007,-0.3869 -0.19843,-0.43014 0.026,-0.68264 0.36202,-0.40733 1.48757,-0.88706 2.07988,-0.88649 1.0287,8.8e-4 1.05125,0.0246 1.35661,1.42025 0.45989,2.10188 0.6648,3.52845 0.82457,5.74066 0.16681,2.30953 0.1098,3.94314 -0.23166,6.63819 -0.2269,1.79092 -0.26779,1.89517 -0.88287,2.25101 -0.21903,0.12672 -0.23889,0.10737 -0.17086,-0.16653 z m 21.947341,-0.10223 c -0.24278,-0.20261 -0.32479,-0.49514 -0.48705,-1.73733 -0.31082,-2.37943 -0.38418,-4.72929 -0.21899,-7.01456 0.22282,-3.08269 0.85954,-6.69056 1.22124,-6.91999 0.30911,-0.19607 1.47254,-0.11269 2.04342,0.14645 0.30681,0.13927 0.70801,0.40338 0.89154,0.58692 0.31467,0.31466 0.3226,0.35519 0.13899,0.71025 -0.10709,0.20709 -0.34257,0.47341 -0.52328,0.59182 -0.36918,0.24189 -0.68216,0.88657 -1.32585,2.731 -0.99639,2.85503 -1.45745,5.98759 -1.3543,9.20127 0.0345,1.07611 0.0276,1.95459 -0.0155,1.95218 -0.0431,-0.002 -0.20967,-0.11401 -0.37023,-0.24801 z m -19.933091,-2.24515 c 0.19978,-1.9703 0.12148,-7.9101 -0.12476,-9.46435 -0.41695,-2.63178 -0.90629,-4.59158 -1.16713,-4.67437 -0.32468,-0.10305 -0.29885,-0.2537 0.0969,-0.56497 0.50772,-0.39937 1.02588,-0.46577 1.58058,-0.20255 0.73624,0.34937 0.99807,0.87264 0.9142,1.82704 -0.0381,0.43378 -0.13151,2.14919 -0.20752,3.81203 -0.14967,3.27411 -0.36353,5.53656 -0.79519,8.41275 -0.31274,2.08374 -0.46654,2.52615 -0.29704,0.85442 z m 18.394861,0.9061 c -0.12343,-0.36581 -0.60525,-3.91288 -0.8016,-5.90117 -0.11067,-1.12061 -0.25487,-3.605 -0.32046,-5.52087 -0.13196,-3.85436 -0.13542,-3.83261 0.69187,-4.35039 0.50354,-0.31514 1.09622,-0.26372 1.67009,0.1449 0.45492,0.32394 0.49259,0.47562 0.14547,0.58579 -0.26662,0.0846 -0.60508,1.34353 -0.99083,3.68542 -0.48615,2.95147 -0.63211,7.43285 -0.33024,10.13999 0.1267,1.13633 0.0972,1.6949 -0.0643,1.21633 z m -39.839251,-1.45087 c -1.45594,-0.53569 -3.9996,-1.77803 -5.25928,-2.56866 -0.5791,-0.36347 -1.18965,-0.70426 -1.35679,-0.75731 -0.34069,-0.10813 -1.62358,-1.11972 -2.07915,-1.63947 -0.94534,-1.07851 -1.50503,-3.15297 -1.2489,-4.62895 0.23493,-1.35385 1.44536,-3.46647 3.07779,-5.37183 l 0.49482,-0.57755 -0.10047,0.45308 c -0.0553,0.24919 -0.0997,1.07417 -0.0987,1.83329 0.003,2.54136 0.77228,3.98975 3.22646,6.07692 1.90184,1.61744 3.96934,3.02326 5.93787,4.03753 1.38315,0.71266 1.50269,0.80156 1.18144,0.87873 -1.00857,0.24229 -2.06418,1.13638 -2.48608,2.10568 l -0.23741,0.54546 z m 60.071501,0.0153 c -0.19507,-0.88813 -1.36734,-1.91398 -2.62627,-2.29822 -0.19847,-0.0606 0.0777,-0.24793 1.15271,-0.78194 1.8162,-0.90221 3.96976,-2.34791 5.87793,-3.94589 1.67355,-1.4015 2.20665,-2.00194 2.77725,-3.12802 0.60504,-1.19408 0.81455,-2.21147 0.7369,-3.57866 -0.0369,-0.65068 -0.11443,-1.30135 -0.17216,-1.44594 -0.18775,-0.47014 0.25747,-0.003 1.32441,1.38856 2.31471,3.01979 2.80575,5.21936 1.69116,7.57543 -0.41645,0.88027 -1.47844,2.04979 -2.26728,2.49681 -0.33377,0.18916 -1.29318,0.74893 -2.13199,1.24396 -1.81359,1.07027 -3.72361,1.98224 -5.20365,2.48455 l -1.07643,0.36533 z m -87.807291,-1.26458 c -2.03359,-0.42352 -2.17565,-0.47498 -2.08849,-0.75652 0.0469,-0.15155 0.43328,-1.0915 0.85858,-2.08878 4.14851,-9.72775 10.86117,-18.48822 19.36991,-25.27903 6.42129,-5.12481 14.62334,-9.33313 22.34637,-11.4655 1.76449,-0.48718 4.42724,-1.09432 4.49634,-1.02522 0.0278,0.0278 -0.23311,0.21528 -0.57978,0.41664 -2.10184,1.22078 -4.43292,3.6244 -5.67437,5.85094 -0.40403,0.72465 -0.41395,0.73171 -1.36205,0.9692 -0.52529,0.13159 -1.87192,0.53443 -2.99253,0.89522 -9.84825,3.1707 -18.23174,9.15783 -24.54959,17.53226 -2.19061,2.90371 -4.49473,6.93834 -5.8729,10.28378 -0.67178,1.6307 -0.71794,2.05755 -0.22251,2.05755 0.27314,0 0.40294,-0.20948 1.05879,-1.70884 2.64203,-6.04001 5.76907,-10.702 10.17233,-15.16552 4.73019,-4.79493 10.04131,-8.35975 16.39055,-11.00132 1.7837,-0.7421 6.2336,-2.15181 6.3643,-2.01618 0.028,0.0291 -0.12398,0.57447 -0.33779,1.21197 -0.21382,0.6375 -0.48551,1.76899 -0.60375,2.51441 l -0.21499,1.35532 -1.75952,0.82754 c -5.32318,2.50363 -9.39982,5.56681 -12.84891,9.65465 -0.67099,0.79527 -1.49809,1.71213 -1.83798,2.03746 -1.88213,1.80156 -4.50048,5.02247 -6.51659,8.01626 -1.60443,2.38247 -2.87371,3.73115 -4.54213,4.82627 -2.21496,1.45386 -4.56288,2.14544 -7.213,2.1246 -0.86756,-0.007 -1.69569,-0.037 -1.84029,-0.0672 z m 112.454851,-0.11973 c -4.00074,-0.90072 -6.41562,-2.6434 -9.12699,-6.58637 -2.19203,-3.18773 -4.52349,-6.06547 -6.31896,-7.79952 -0.41172,-0.39763 -1.22858,-1.31449 -1.81523,-2.03746 -2.15262,-2.65279 -4.89892,-5.13805 -7.73731,-7.00183 -1.61878,-1.06295 -4.32983,-2.47217 -5.99203,-3.11471 -1.29543,-0.50075 -1.11606,-0.20579 -1.48186,-2.43687 -0.0889,-0.54222 -0.34924,-1.55236 -0.57852,-2.24474 l -0.41688,-1.25888 1.51863,0.42972 c 5.55574,1.57208 10.99674,4.26793 15.71516,7.78637 6.88986,5.13766 12.64099,12.45636 15.76788,20.06572 0.60552,1.47356 0.79728,1.77457 1.13051,1.77457 0.62366,0 0.47285,-0.50775 -1.22603,-4.12766 -6.07694,-12.94849 -17.95948,-22.8544 -31.81256,-26.52063 l -1.54932,-0.41002 -0.51681,-0.88489 c -1.28903,-2.20714 -3.45447,-4.41727 -5.58599,-5.7013 -0.43378,-0.26131 -0.7227,-0.47527 -0.64205,-0.47545 0.0807,-1.9e-4 0.82006,0.15124 1.64312,0.33651 6.39367,1.43918 13.45982,4.39986 19.37357,8.11742 4.50847,2.83417 8.21703,5.85638 12.17688,9.92332 5.50831,5.65725 9.91211,12.25478 12.97681,19.44113 1.10725,2.59639 1.10161,2.32987 0.0552,2.60666 -1.20603,0.31901 -4.36795,0.38667 -5.55724,0.11891 z m -27.9987,-2.36618 c -0.68581,-0.92707 -2.01217,-1.63521 -3.06277,-1.63521 h -0.53219 l 0.31576,-0.33611 c 0.17367,-0.18486 0.64241,-0.52013 1.04165,-0.74505 2.26828,-1.27786 5.82869,-4.4797 6.90171,-6.20664 1.45679,-2.34458 1.77948,-5.37897 0.83952,-7.8946 -0.13507,-0.36148 -0.24561,-0.6757 -0.24565,-0.69827 -3e-5,-0.0226 0.27381,0.15489 0.60854,0.39434 1.64476,1.17663 3.83819,4.07526 4.35797,5.75908 0.48783,1.58036 0.17658,3.66667 -0.76617,5.13584 -0.92549,1.44225 -4.94993,4.52631 -7.84424,6.01129 l -1.28551,0.65956 z m -53.995601,-0.37964 c -1.70884,-0.89926 -2.97857,-1.75675 -4.92568,-3.32645 -1.93118,-1.55686 -2.35069,-1.98878 -2.86024,-2.94478 -0.8084,-1.51672 -0.96557,-3.45037 -0.40858,-5.02669 0.5329,-1.50813 2.0816,-3.63307 3.54925,-4.86986 1.35504,-1.1419 1.35111,-1.14201 0.95835,0.0272 -0.29921,0.89068 -0.34237,1.23786 -0.34703,2.79174 -0.006,1.89192 0.18306,2.7623 0.91006,4.19696 1.03164,2.03585 4.28661,5.11428 7.18077,6.79131 0.54884,0.31803 1.10517,0.69677 1.23628,0.84165 0.23488,0.25953 0.23042,0.26341 -0.30285,0.26341 -0.91719,0 -1.97539,0.487 -2.75738,1.26898 -0.38651,0.38652 -0.74326,0.70149 -0.79276,0.69994 -0.0495,-0.001 -0.6976,-0.32256 -1.44019,-0.71334 z m 20.35368,0.25609 c -0.002,-0.0723 0.053,-0.66382 0.12318,-1.31449 0.0702,-0.65067 0.18635,-2.82955 0.25815,-4.84194 0.11251,-3.15298 0.10364,-3.71097 -0.0642,-4.03554 -0.10713,-0.20715 -0.19477,-0.63627 -0.19477,-0.95359 0,-0.49069 0.05,-0.59976 0.33481,-0.7295 0.78099,-0.35584 2.34491,0.0706 2.49761,0.68098 0.0397,0.15886 -0.59407,2.71432 -1.43968,5.80466 -0.83088,3.03648 -1.51267,5.46172 -1.5151,5.38942 z m 13.582411,-5.81766 c -1.10812,-4.06632 -1.42455,-5.40009 -1.31449,-5.54067 0.42273,-0.53997 1.82083,-0.82839 2.50485,-0.51673 0.27523,0.12541 0.3348,0.24352 0.3348,0.66378 0,0.28117 -0.1,0.70053 -0.22221,0.93191 -0.18427,0.34883 -0.21752,0.75742 -0.1947,2.39242 0.0299,2.14052 0.23938,6.14205 0.36305,6.93395 0.0423,0.27111 0.057,0.49246 0.0326,0.49189 -0.0244,-5.8e-4 -0.70117,-2.41102 -1.50386,-5.35655 z m -30.223631,1.96398 c -1.58565,-1.02814 -2.65015,-1.91547 -4.11014,-3.42609 -1.42545,-1.47488 -1.97638,-2.31582 -2.46543,-3.76323 -0.66125,-1.95706 -0.47304,-3.88162 0.59119,-6.0454 0.92555,-1.88181 2.43193,-3.43027 4.21361,-4.33133 1.51259,-0.76495 1.52238,-0.76131 0.93059,0.34638 -1.08797,2.03641 -1.45265,4.46188 -1.00468,6.68202 0.5294,2.6237 3.24951,6.42429 6.51511,9.10307 l 0.59152,0.48522 -0.72297,0.01 c -0.94974,0.013 -1.72024,0.33985 -2.57229,1.09107 -0.38241,0.33715 -0.71598,0.613 -0.74127,0.613 -0.0253,0 -0.57665,-0.34408 -1.22524,-0.76463 z m 46.556731,0.2149 c -0.67301,-0.70214 -1.72343,-1.15912 -2.66443,-1.15912 h -0.73103 l 0.70191,-0.54531 c 1.08409,-0.84222 3.11405,-2.96284 3.98815,-4.16625 1.17893,-1.6231 2.1086,-3.32615 2.36125,-4.32556 0.64414,-2.54803 0.26353,-5.38386 -0.99871,-7.44121 -0.21552,-0.35129 -0.35944,-0.67112 -0.31983,-0.71074 0.11276,-0.11275 1.90809,0.81884 2.64842,1.37424 1.10155,0.8264 2.24945,2.2266 2.88928,3.52433 1.36225,2.76294 1.36845,4.88899 0.0219,7.49261 -0.45231,0.87453 -3.07973,3.60708 -4.53192,4.71324 -0.8392,0.63925 -2.65782,1.8023 -2.78727,1.78254 -0.0395,-0.006 -0.29943,-0.24847 -0.57767,-0.53877 z m -42.197091,-3.10585 c -2.38776,-2.06466 -4.91484,-5.68068 -5.3499,-7.6552 -0.41111,-1.86581 -0.14639,-4.16225 0.6693,-5.80628 0.96669,-1.94839 2.15082,-3.12637 4.08399,-4.06281 0.62425,-0.30239 2.09033,-0.77217 2.40979,-0.77217 0.0464,0 -0.21303,0.3574 -0.57655,0.79422 -0.83326,1.00125 -1.66149,2.70025 -1.92831,3.95562 -0.28448,1.3385 -0.18363,3.9403 0.19592,5.05414 0.87438,2.566 2.46068,5.24588 4.13046,6.97795 l 0.65495,0.67939 -0.64217,0.0958 c -0.89675,0.13376 -1.62129,0.47022 -2.2117,1.02705 -0.27759,0.26179 -0.51547,0.47599 -0.52864,0.47599 -0.0132,0 -0.42138,-0.34366 -0.90714,-0.76369 z m 38.333711,0.3206 c -0.50762,-0.53817 -1.32676,-0.9357 -2.18773,-1.06171 l -0.6418,-0.0939 0.58871,-0.61372 c 1.34742,-1.40465 2.5378,-3.26345 3.55354,-5.54895 0.88477,-1.9908 1.06015,-2.85976 0.98046,-4.85774 -0.0936,-2.34754 -0.66723,-3.90501 -2.06053,-5.59495 -0.35286,-0.42797 -0.62296,-0.79674 -0.60023,-0.81947 0.0227,-0.0227 0.41335,0.0551 0.86804,0.17289 3.03065,0.78532 5.44491,3.24372 6.25855,6.37298 0.29032,1.11655 0.28351,3.08071 -0.0145,4.19699 -0.50219,1.88077 -2.12595,4.30754 -4.42593,6.61471 -0.91891,0.92179 -1.72247,1.67598 -1.78568,1.67598 -0.0632,0 -0.30299,-0.19939 -0.53285,-0.44309 z m -34.364501,-2.74455 c -0.31883,-0.37957 -0.76642,-0.93115 -0.99464,-1.22575 -1.11244,-1.43601 -2.53724,-4.39836 -2.87192,-5.97111 -0.78578,-3.69252 1.06978,-7.71092 4.31772,-9.35048 0.8268,-0.41737 2.51502,-0.90256 3.14044,-0.90256 h 0.37279 l -0.6358,0.78901 c -1.22142,1.51577 -2.011,3.58393 -2.18717,5.7289 -0.17832,2.17109 0.72576,5.64526 2.22908,8.5659 l 0.82884,1.61025 h -0.5536 c -0.81523,0 -1.69166,0.34611 -2.35501,0.93002 -0.32237,0.28376 -0.61423,0.51592 -0.64857,0.51592 -0.0343,0 -0.32332,-0.31055 -0.64216,-0.6901 z m 30.606651,0.23472 c -0.70191,-0.62009 -1.34391,-0.89882 -2.22283,-0.96507 l -0.75418,-0.0568 0.58248,-1.06878 c 1.1791,-2.16353 2.14746,-5.12178 2.42138,-7.39711 0.30179,-2.50682 -0.51528,-5.30187 -2.17521,-7.44098 l -0.58652,-0.75583 0.37021,0.002 c 0.20361,10e-4 0.74611,0.0906 1.20555,0.19886 3.07192,0.72417 5.56713,3.29093 6.26989,6.4497 0.30584,1.3747 0.21054,3.05941 -0.24999,4.41921 -0.47342,1.39787 -1.3884,3.26787 -2.16518,4.42514 -0.64748,0.96463 -2.00139,2.64361 -2.1268,2.63744 -0.0362,-0.002 -0.29211,-0.20323 -0.5688,-0.44767 z m -26.637011,-3.2769 c -0.77016,-1.5577 -1.47948,-3.65775 -1.78752,-5.29224 -0.59416,-3.15267 0.16599,-5.92517 2.17547,-7.93465 1.59684,-1.59684 3.29823,-2.27444 5.53559,-2.20462 l 1.21535,0.0379 -0.73887,0.48996 c -0.83618,0.55448 -1.63139,1.53417 -2.13091,2.62528 -0.58696,1.28209 -0.88766,3.82617 -0.9058,7.6636 -0.009,1.80743 0.0323,3.76771 0.0908,4.35618 l 0.10636,1.06994 -0.82933,-0.0621 c -0.69772,-0.0523 -0.92811,-0.0112 -1.45181,0.25857 l -0.62249,0.3207 z m 22.681591,1.0657 c -0.43283,-0.31528 -1.7263,-0.46795 -2.13077,-0.25148 -0.24462,0.13091 -0.24651,0.0951 -0.0775,-1.46434 0.11535,-1.06416 0.15074,-2.52134 0.10587,-4.35898 -0.14782,-6.05414 -0.9154,-8.38385 -3.29605,-10.00409 l -0.6555,-0.44612 h 1.31799 c 2.32569,0 4.05472,0.69971 5.61119,2.27077 1.81967,1.83671 2.7152,4.86135 2.20772,7.45647 -0.24475,1.25154 -0.68698,2.78397 -1.15627,4.00672 -0.48144,1.25442 -1.27077,2.89812 -1.44276,3.00441 -0.0568,0.0351 -0.27462,-0.0609 -0.48393,-0.21336 z m -18.543771,-3.27077 c -0.11415,-2.16377 0.10389,-6.00514 0.44927,-7.91516 0.31475,-1.74064 0.73349,-2.61794 1.67416,-3.50759 1.01701,-0.96185 2.1949,-1.47506 3.52157,-1.53438 0.58165,-0.026 1.13427,0.005 1.22804,0.0694 0.13132,0.0899 0.0322,0.35066 -0.43185,1.13549 -1.98092,3.35059 -3.56907,7.3409 -4.53716,11.39988 -0.40951,1.71701 -0.44359,1.79755 -0.78986,1.8668 -0.19904,0.0398 -0.51035,0.10964 -0.6918,0.15518 l -0.32992,0.0828 z m 14.667991,1.55608 -0.57877,-0.15373 -0.30777,-1.38022 c -0.61652,-2.76492 -1.56473,-5.57017 -2.78103,-8.22763 -0.68863,-1.50457 -0.74863,-1.6196 -1.79141,-3.43456 -0.34145,-0.59428 -0.58316,-1.14144 -0.53715,-1.2159 0.1391,-0.22507 1.69983,-0.15211 2.57535,0.12038 1.42076,0.44219 2.59073,1.42224 3.28269,2.74979 0.70604,1.35456 1.27468,6.07569 1.11833,9.28495 -0.0911,1.8702 -0.16577,2.44022 -0.31713,2.42123 -0.0464,-0.006 -0.34479,-0.0797 -0.66311,-0.16431 z m -9.871451,-8.06272 c 0,-0.26441 2.28972,-4.84583 2.57852,-5.15926 0.0278,-0.0301 0.0505,0.99026 0.0505,2.2675 v 2.32227 l -0.42721,0.003 c -0.23497,0.002 -0.82649,0.13947 -1.31449,0.30577 -0.48801,0.16631 -0.88729,0.28346 -0.88729,0.26033 z m 4.995071,-0.25466 c -0.46993,-0.16804 -1.01708,-0.30761 -1.2159,-0.31017 l -0.36149,-0.005 0.004,-2.2675 c 0.004,-2.06816 0.022,-2.24439 0.20656,-2.00461 0.19604,0.25467 2.16991,4.23491 2.33046,4.69932 0.0941,0.27228 0.12063,0.27537 -0.96381,-0.11239 z m 17.01709,-4.73402 c -5.12846,-1.93235 -10.94554,-3.11141 -16.26125,-3.29598 l -2.33323,-0.081 v -5.12084 -5.12084 l 1.74171,0.0877 c 3.81697,0.19226 5.51968,0.3457 6.58034,0.59302 5.30305,1.2365 9.6047,5.0764 11.37981,10.15825 0.40007,1.14534 0.86711,3.15179 0.78291,3.36352 -0.0244,0.0614 -0.87505,-0.20131 -1.89029,-0.58384 z m -39.889251,0.2867 c 0,-0.17626 0.0868,-0.69384 0.19295,-1.15018 0.73293,-3.15163 2.24479,-5.83325 4.53155,-8.03769 2.20598,-2.12657 4.77238,-3.4883 7.72289,-4.09774 0.76642,-0.15831 6.30656,-0.57822 7.76293,-0.58838 l 0.29576,-0.002 v 5.1063 5.10629 l -2.39895,0.0796 c -5.46194,0.18116 -11.7562,1.49491 -16.89465,3.52627 -1.16096,0.45895 -1.21248,0.46141 -1.21248,0.0576 z"
     id="path4448"
     style="fill:#ffffff;stroke-width:0.290698" />
</svg>
