<?xml version="1.0" encoding="UTF-8" standalone="no"?>
<!-- Created with Inkscape (http://www.inkscape.org/) -->

<svg
   id="svg2"
   version="1.1"
   inkscape:version="1.1.1 (3bf5ae0d25, 2021-09-20)"
   width="64.738815"
   height="59.189262"
   sodipodi:docname="army.svg"
   xmlns:inkscape="http://www.inkscape.org/namespaces/inkscape"
   xmlns:sodipodi="http://sodipodi.sourceforge.net/DTD/sodipodi-0.dtd"
   xmlns="http://www.w3.org/2000/svg"
   xmlns:svg="http://www.w3.org/2000/svg"
   xmlns:rdf="http://www.w3.org/1999/02/22-rdf-syntax-ns#"
   xmlns:cc="http://creativecommons.org/ns#"
   xmlns:dc="http://purl.org/dc/elements/1.1/">
  <metadata
     id="metadata8">
    <rdf:RDF>
      <cc:Work
         rdf:about="">
        <dc:format>image/svg+xml</dc:format>
        <dc:type
           rdf:resource="http://purl.org/dc/dcmitype/StillImage" />
      </cc:Work>
    </rdf:RDF>
  </metadata>
  <defs
     id="defs6">
    <inkscape:perspective
       sodipodi:type="inkscape:persp3d"
       inkscape:vp_x="0 : 25.719414 : 1"
       inkscape:vp_y="0 : 1000 : 0"
       inkscape:vp_z="1 : 25.719414 : 1"
       inkscape:persp3d-origin="0.5 : 25.552747 : 1"
       id="perspective10" />
  </defs>
  <sodipodi:namedview
     pagecolor="#ffffff"
     bordercolor="#666666"
     borderopacity="1"
     objecttolerance="10"
     gridtolerance="10"
     guidetolerance="10"
     inkscape:pageopacity="0"
     inkscape:pageshadow="2"
     inkscape:window-width="1920"
     inkscape:window-height="1121"
     id="namedview4"
     showgrid="false"
     inkscape:zoom="7.1011573"
     inkscape:cx="-5.2808294"
     inkscape:cy="44.711022"
     inkscape:window-x="-9"
     inkscape:window-y="-9"
     inkscape:window-maximized="1"
     inkscape:current-layer="svg2"
     fit-margin-top="0"
     fit-margin-left="0"
     fit-margin-right="0"
     fit-margin-bottom="0"
     inkscape:pagecheckerboard="0" />
  <path
     id="shadow"
     d="m 42.349433,-10.255344 c -0.152477,-0.007 -0.294519,0.02649 -0.40989,0.101097 -0.09308,0.06022 -0.305983,0.110301 -0.472971,0.111288 -0.363453,0.002 -0.499923,0.1759982 -0.313753,0.4002489 0.116356,0.1401909 0.07287,0.9553099 -0.05097,0.9553099 -0.188988,0 -0.841971,-0.3677285 -0.894157,-0.5035483 -0.0835,-0.2177622 -0.524758,-0.2294198 -0.524758,-0.013779 0,0.087725 -0.227761,0.2868305 -0.506028,0.442396 l -0.505758,0.2826256 -0.135528,-0.4523123 c -0.100136,-0.3342592 -0.102853,-0.5047532 -0.0102,-0.6531253 0.166424,-0.2664198 -1.385503,-0.4483095 -1.770959,-0.2076978 -0.252033,0.1575383 -0.316449,0.3406812 -0.0898,0.2553535 0.297167,-0.1118429 0.869191,0.3945479 1.21149,1.0726572 0.395329,0.7831818 0.36932,1.1955939 -0.08567,1.3685058 -0.899115,0.3418756 -1.4756,1.2321452 -0.855318,1.3205753 0.554843,0.079125 0.423291,0.449256 -0.542112,1.5257958 -0.394058,0.4393326 -0.338215,0.6173294 0.28235,0.89884 l 0.580955,0.2633429 -0.455066,0.331383 c -1.330686,0.967941 -3.515828,4.285917 -3.048005,4.628074 0.164308,0.120023 0.119638,0.209932 -0.39529,0.796365 -0.31917,0.363455 -0.765716,0.927828 -0.992223,1.254189 -0.258804,0.372762 -0.583121,0.677487 -0.87267,0.819231 -0.491375,0.24061 -0.902041,0.622536 -1.106265,1.028581 -0.170232,0.33821 -0.407411,0.400516 -0.407411,0.107156 0,-0.12933 -0.05062,-0.235245 -0.112664,-0.235245 -0.06206,0 -0.112941,0.151301 -0.112941,0.336342 0,0.451461 0.519921,0.384911 -6.995411,0.898288 -1.667064,0.113959 -4.388575,0.06887 -5.804028,-0.09614 -1.133944,-0.132153 -1.254559,-0.106855 -0.745131,0.156462 0.830711,0.429602 5.611376,0.584019 9.482578,0.306316 4.341137,-0.311269 4.150239,-0.31048 4.193114,-0.02121 0.02891,0.195899 0.160232,0.294258 0.545969,0.409062 0.786991,0.234265 0.909352,0.198223 1.518634,-0.44928 0.557946,-0.592781 0.587304,-0.607635 1.574001,-0.785624 1.115469,-0.201261 1.253312,-0.279064 1.137943,-0.64266 -0.08364,-0.263456 -0.131602,-0.264418 -1.397979,-0.03635 -0.504915,0.09097 -0.391344,-0.09112 0.304113,-0.487297 0.291665,-0.166002 0.96409,-0.57264 1.494391,-0.903798 1.292752,-0.807298 1.461613,-0.801718 1.461613,0.04958 0,0.497157 -0.05009,0.694935 -0.211005,0.832729 -0.134409,0.115227 -0.239573,0.410326 -0.290063,0.814821 -0.04358,0.348928 -0.153645,0.708847 -0.244614,0.799674 -0.170514,0.170656 -0.523544,1.198106 -0.440191,1.281458 0.0258,0.0258 -0.02696,0.120607 -0.117073,0.210731 -0.09012,0.09012 -0.1639,0.334352 -0.1639,0.542665 0,0.208313 -0.07605,0.454813 -0.169135,0.547898 -0.09309,0.09308 -0.171151,0.337844 -0.173266,0.544041 -0.0023,0.2060558 -0.07657,0.5018408 -0.16528,0.6569808 -0.180527,0.315925 -0.226221,1.305288 -0.06473,1.405144 0.116497,0.07193 0.04332,1.173589 -0.112664,1.697686 -0.08815,0.295618 -0.246475,3.107426 -0.266926,4.738811 -0.0067,0.527474 0.01616,0.574209 0.349288,0.720884 1.106159,0.487288 0.347686,2.016135 -1.358588,2.738388 -1.913318,0.809698 -1.153074,1.501803 1.173201,1.068254 0.526494,-0.09816 1.303771,-0.227105 1.726884,-0.286482 0.423114,-0.05938 0.84194,-0.168234 0.930794,-0.241857 0.188709,-0.156696 0.218092,-0.960984 0.03912,-1.071554 -0.227634,-0.140615 0.0061,-1.409933 0.420084,-2.281121 0.214378,-0.451039 0.359925,-0.868534 0.323395,-0.927488 -0.0653,-0.105777 0.17888,-0.189714 0.732734,-0.251772 0.260356,-0.02918 0.284923,-0.08208 0.316233,-0.687835 0.03555,-0.683327 0.269117,-0.865937 0.340198,-0.265824 0.03527,0.298016 0.04589,0.301634 0.914541,0.301634 h 0.879282 l 0.07245,0.69362 c 0.03992,0.381507 0.07326,0.901826 0.0741,1.156398 0.0032,0.82394 0.772778,0.968469 2.44915,0.459748 0.296603,-0.08998 0.54779,-0.164164 0.558367,-0.164728 0.04415,-0.0028 0.396383,1.148539 0.455619,1.489711 0.0354,0.203941 0.05562,0.918815 0.0449,1.588601 -0.02651,1.66636 0.284608,2.007579 1.73377,1.901806 0.876408,-0.06389 1.132003,-1.25957 0.498039,-2.328773 -0.366274,-0.617606 -0.410401,-3.130264 -0.0595,-3.387659 0.247943,-0.182077 0.223945,-1.102107 -0.08126,-3.101175 -0.594616,-3.894756 -0.571499,-3.655614 -0.369675,-3.823168 0.131871,-0.109446 0.146711,-0.211096 0.06336,-0.430551 -0.06009,-0.157963 -0.203746,-0.699978 -0.319538,-1.204329 -0.115651,-0.5042078 -0.297482,-1.2214958 -0.404106,-1.5938338 -0.305346,-1.066669 -0.360552,-0.992599 0.901594,-1.205708 1.804716,-0.304642 2.669124,-0.131916 5.218943,1.042081 0.830149,0.382213 1.166062,0.365375 1.006548,-0.05069 -0.07531,-0.196182 -1.424171,-0.893585 -2.639774,-1.364649 -0.714779,-0.276998 -0.968719,-0.507367 -0.561122,-0.509058 0.0739,-2.83e-4 0.286534,-0.121986 0.472421,-0.270782 0.517186,-0.413804 0.145809,-0.834806 -0.492527,-0.55809 -0.225238,0.09746 -0.675934,0.273669 -1.00159,0.391435 l -0.592249,0.214311 -1.156671,-0.277392 c -0.636222,-0.152603 -1.359934,-0.319976 -1.60816,-0.371876 -0.887408,-0.185606 -0.138868,-0.891349 1.184771,-1.117008 0.155142,-0.02651 0.332958,-0.132162 0.395015,-0.234696 0.06206,-0.102676 0.279238,-0.343959 0.482614,-0.536054 0.246816,-0.233133 0.393743,-0.498078 0.442119,-0.79609 0.03992,-0.245688 0.14168,-0.515485 0.225881,-0.599685 0.151472,-0.151475 0.116606,-0.669126 -0.08099,-1.202954 -0.04597,-0.12411203 -0.09726,-0.27621403 -0.114043,-0.33827003 -0.01678,-0.06206 -0.106762,-0.168638 -0.199988,-0.2369 -0.09323,-0.06812 -0.137144,-0.176583 -0.09751,-0.240756 0.03963,-0.06417 -0.02879,-0.244657 -0.152057,-0.40135 -0.123267,-0.156692 -0.223952,-0.332636 -0.223952,-0.390882 0,-0.173902 -0.331078,-0.78393797 -0.502721,-0.92638697 -0.08787,-0.07292 -0.192571,-0.282058 -0.232767,-0.464983 -0.109445,-0.498005 -0.705845,-1.057528 -1.565187,-1.4679492 l -0.766906,-0.3663624 0.433581,-0.3765595 0.433856,-0.3765587 -0.564151,-0.512639 c -0.310283,-0.2819345 -0.731926,-0.5932463 -0.936853,-0.6916902 -0.45527,-0.2187499 -0.488051,-0.7421582 -0.05042,-0.8043559 0.194067,-0.027504 0.253702,-0.1103232 0.253702,-0.3512155 0,-0.3338371 -1.168215,-1.0054083 -1.516154,-0.871845 -0.356402,0.1366656 -0.382063,-0.1817403 -0.08264,-1.0307861 0.275586,-0.7820539 0.336444,-0.8669658 0.731632,-1.0222484 0.427908,-0.1681169 0.429337,-0.1703034 0.169688,-0.3143043 -0.156764,-0.08702 -0.319668,-0.134608 -0.472146,-0.141588 z m 2.208396,11.9058372 c 0.04344,-0.01788 0.09561,-0.01772 0.150405,0.0034 0.164733,0.06318 0.165415,0.08691 0.0069,0.245439 -0.199992,0.199991 -0.353666,0.113864 -0.255081,-0.142967 0.01982,-0.05176 0.05435,-0.0879 0.09779,-0.105777 z m 0.566357,4.668565 c 0.102816,0 0.220238,0.05423 0.261137,0.120378 0.132295,0.214095 -0.06054,0.26685 -0.257006,0.07024 -0.176014,-0.175874 -0.176339,-0.19062 -0.0041,-0.19062 z m 0.694719,0.112664 c 0.09308,0 0.200466,0.05088 0.238828,0.112941 0.03836,0.06206 -0.0064,0.112941 -0.09944,0.112941 -0.09308,0 -0.20074,-0.05089 -0.239102,-0.112941 -0.03837,-0.06206 0.0066,-0.112941 0.09972,-0.112941 z"
     style="opacity:0.53;fill:#000000;fill-opacity:1;stroke-width:0.141038"
     inkscape:connector-curvature="0" />
  <path
     id="body"
     d="m 40.646304,-10.842399 c -0.152478,-0.007 -0.29452,0.02649 -0.40989,0.101097 -0.09309,0.06022 -0.305985,0.1103 -0.472971,0.111287 -0.363453,0.002 -0.499923,0.175998 -0.313755,0.400249 0.116358,0.140192 0.07287,0.955311 -0.05097,0.955311 -0.188989,0 -0.841971,-0.3677293 -0.894157,-0.5035491 -0.0835,-0.2177613 -0.524759,-0.2294199 -0.524759,-0.013778 0,0.087725 -0.227761,0.2868314 -0.506027,0.4423959 l -0.505755,0.282626 -0.135528,-0.4523122 c -0.100136,-0.3342592 -0.102852,-0.5047536 -0.0102,-0.6531256 0.166425,-0.26642 -1.385503,-0.44831 -1.770959,-0.207699 -0.252034,0.157539 -0.316449,0.340683 -0.0898,0.255354 0.297167,-0.111843 0.869192,0.3945489 1.211491,1.0726582 0.395328,0.7831818 0.369319,1.195593 -0.08567,1.3685058 -0.899116,0.3418755 -1.4756,1.2321443 -0.855318,1.3205752 0.554843,0.079125 0.42329,0.4492551 -0.542112,1.5257958 -0.394059,0.4393326 -0.338216,0.6173286 0.282349,0.8988401 l 0.580955,0.2633422 -0.455065,0.3313838 c -1.330686,0.9679411 -3.515828,4.28591707 -3.048006,4.6280721 0.164309,0.120023 0.119639,0.209932 -0.395291,0.796367 -0.319168,0.363453 -0.765714,0.927828 -0.992222,1.254188 -0.258803,0.372763 -0.58312,0.677487 -0.872669,0.81923 -0.491376,0.240611 -0.902042,0.622538 -1.106265,1.028584 -0.170232,0.338208 -0.407411,0.400514 -0.407411,0.107154 0,-0.129329 -0.05062,-0.235245 -0.112664,-0.235245 -0.06206,0 -0.112941,0.151301 -0.112941,0.336343 0,0.451461 0.519919,0.384911 -6.995412,0.898287 -1.667064,0.11396 -4.388575,0.06887 -5.804029,-0.09614 -1.133942,-0.132153 -1.254558,-0.106855 -0.74513,0.156462 0.830712,0.429602 5.611376,0.58402 9.482577,0.306317 4.341139,-0.31127 4.150241,-0.31048 4.193115,-0.02121 0.02891,0.1959 0.160232,0.294259 0.54597,0.409063 0.78699,0.234265 0.909351,0.198222 1.518634,-0.449281 0.557945,-0.59278 0.587304,-0.607633 1.574001,-0.785623 1.115468,-0.201262 1.253311,-0.279065 1.137943,-0.642659 -0.08364,-0.263458 -0.131603,-0.264419 -1.39798,-0.03636 -0.504914,0.09097 -0.391343,-0.09112 0.304113,-0.487297 0.291665,-0.166 0.964091,-0.572639 1.494392,-0.903797 1.292751,-0.807299 1.461613,-0.801719 1.461613,0.04958 0,0.497158 -0.05009,0.694936 -0.211005,0.832729 -0.13441,0.115227 -0.239573,0.410327 -0.290064,0.814821 -0.04358,0.348929 -0.153644,0.708847 -0.244613,0.799675 -0.170514,0.170656 -0.523545,1.198106 -0.440192,1.281458 0.0258,0.0258 -0.02695,0.120607 -0.117072,0.210731 -0.09012,0.09012 -0.1639,0.334352 -0.1639,0.542664 0,0.208313 -0.07605,0.454814 -0.169136,0.547899 -0.09309,0.09308 -0.171152,0.337844 -0.173266,0.54404 -0.0023,0.206057 -0.07657,0.501841 -0.165279,0.6569818 -0.180527,0.315925 -0.226223,1.305287 -0.06473,1.405143 0.116497,0.07193 0.04332,1.17359 -0.112664,1.697686 -0.08815,0.295618 -0.246475,3.107426 -0.266926,4.738811 -0.0067,0.527475 0.01615,0.57421 0.349287,0.720884 1.106159,0.487288 0.347685,2.016136 -1.358587,2.738389 -1.913318,0.809698 -1.153075,1.501803 1.1732,1.068255 0.526494,-0.09816 1.303772,-0.227107 1.726884,-0.286483 0.423115,-0.05938 0.841941,-0.168234 0.930795,-0.241858 0.188708,-0.156696 0.218092,-0.960983 0.03911,-1.071553 -0.227633,-0.140616 0.0061,-1.409933 0.420084,-2.281122 0.214378,-0.451038 0.359925,-0.868533 0.323395,-0.927488 -0.0653,-0.105776 0.17888,-0.189714 0.732735,-0.251771 0.260355,-0.02918 0.284923,-0.08208 0.316233,-0.687836 0.03554,-0.683326 0.269116,-0.865936 0.340198,-0.265823 0.03527,0.298015 0.04589,0.301634 0.91454,0.301634 h 0.879282 l 0.07245,0.693619 c 0.03992,0.381507 0.07326,0.901827 0.0741,1.156398 0.0032,0.823941 0.772779,0.96847 2.449151,0.459749 0.296603,-0.08998 0.547789,-0.164165 0.558367,-0.164729 0.04415,-0.0028 0.396382,1.148539 0.455618,1.489712 0.0354,0.203941 0.05562,0.918813 0.0449,1.588599 -0.02651,1.66636 0.284608,2.00758 1.733771,1.901807 0.876408,-0.06389 1.132002,-1.259569 0.498038,-2.328774 -0.366273,-0.617605 -0.410401,-3.130263 -0.0595,-3.387659 0.247944,-0.182077 0.223945,-1.102105 -0.08126,-3.101174 -0.594615,-3.894757 -0.5715,-3.655615 -0.369675,-3.823169 0.131871,-0.109444 0.146711,-0.211096 0.06336,-0.43055 -0.06009,-0.157963 -0.203746,-0.699979 -0.319537,-1.2043288 -0.115651,-0.504209 -0.297483,-1.221496 -0.404108,-1.593835 -0.305345,-1.066668 -0.360551,-0.992599 0.901596,-1.205708 1.804715,-0.304641 2.669123,-0.131916 5.218943,1.042081 0.830148,0.382213 1.16606,0.365376 1.006547,-0.05069 -0.07531,-0.196182 -1.424171,-0.893584 -2.639774,-1.364649 -0.714779,-0.276998 -0.96872,-0.507367 -0.561121,-0.509057 0.0739,-2.83e-4 0.286533,-0.121987 0.47242,-0.270783 0.517186,-0.413804 0.145808,-0.834806 -0.492527,-0.558088 -0.225237,0.09746 -0.675933,0.273667 -1.001589,0.391434 l -0.592249,0.21431 -1.156672,-0.277392 c -0.636221,-0.152603 -1.359933,-0.319974 -1.608159,-0.371874 -0.887409,-0.185607 -0.138868,-0.891351 1.18477,-1.11701 0.155141,-0.02651 0.332959,-0.132161 0.395015,-0.234696 0.06206,-0.102676 0.279238,-0.343958 0.482614,-0.536053 0.246816,-0.233134 0.393744,-0.498078 0.442119,-0.79609 0.03992,-0.245688 0.14168,-0.515486 0.225882,-0.599686 0.151471,-0.151475 0.116605,-0.669126 -0.08099,-1.20295403 -0.04597,-0.124112 -0.09726,-0.276213 -0.114043,-0.338269 -0.01678,-0.06206 -0.106761,-0.168638 -0.199987,-0.236901 -0.09323,-0.06812 -0.137146,-0.176582 -0.09751,-0.240754 0.03962,-0.06418 -0.0288,-0.244658 -0.152057,-0.401351 -0.123268,-0.156693 -0.223953,-0.33263597 -0.223953,-0.39088297 0,-0.173901 -0.331078,-0.783937 -0.502721,-0.926386 -0.08788,-0.07291 -0.192582,-0.282054 -0.232778,-0.46498 -0.109445,-0.498005 -0.705845,-1.0575282 -1.565187,-1.467948 l -0.766892,-0.3663684 0.43358,-0.3765586 0.433856,-0.3765595 -0.564151,-0.5126391 c -0.310283,-0.2819344 -0.731926,-0.5932462 -0.936853,-0.6916892 -0.45527,-0.2187508 -0.48805,-0.7421583 -0.05042,-0.8043559 0.194068,-0.027504 0.253703,-0.1103241 0.253703,-0.3512164 0,-0.3338372 -1.168215,-1.0054074 -1.516155,-0.8718451 -0.356402,0.1366657 -0.382063,-0.1817402 -0.08264,-1.030786 0.275587,-0.782054 0.336445,-0.866966 0.731633,-1.022248 0.427908,-0.168117 0.429336,-0.170304 0.169688,-0.314304 -0.156749,-0.08702 -0.319653,-0.134605 -0.47213,-0.141585 z M 42.8547,1.0634382 c 0.04344,-0.01788 0.09561,-0.01771 0.150404,0.0034 0.164732,0.06318 0.165414,0.08691 0.0069,0.245438 -0.199992,0.199991 -0.353666,0.113864 -0.255082,-0.142966 0.01982,-0.05176 0.05435,-0.0879 0.09779,-0.105779 z m 0.566356,4.668565 c 0.102816,0 0.220238,0.05423 0.261138,0.120378 0.132295,0.214096 -0.06054,0.26685 -0.257007,0.07024 -0.176014,-0.175874 -0.176339,-0.190621 -0.0041,-0.190621 z m 0.694719,0.112664 c 0.09308,0 0.200467,0.05089 0.238828,0.11294 0.03837,0.06206 -0.0064,0.112941 -0.09944,0.112941 -0.09308,0 -0.20074,-0.05089 -0.239102,-0.112941 -0.03837,-0.06206 0.0066,-0.11294 0.09972,-0.11294 z"
     style="stroke-width:0.141038"
     inkscape:connector-curvature="0" />
</svg>
