<?xml version="1.0" encoding="UTF-8" standalone="no"?>
<!-- Created with Inkscape (http://www.inkscape.org/) -->

<svg
   id="svg2"
   version="1.1"
   inkscape:version="1.1.1 (3bf5ae0d25, 2021-09-20)"
   width="124.3913"
   height="31.297779"
   sodipodi:docname="fleet.svg"
   xmlns:inkscape="http://www.inkscape.org/namespaces/inkscape"
   xmlns:sodipodi="http://sodipodi.sourceforge.net/DTD/sodipodi-0.dtd"
   xmlns="http://www.w3.org/2000/svg"
   xmlns:svg="http://www.w3.org/2000/svg"
   xmlns:rdf="http://www.w3.org/1999/02/22-rdf-syntax-ns#"
   xmlns:cc="http://creativecommons.org/ns#"
   xmlns:dc="http://purl.org/dc/elements/1.1/">
  <metadata
     id="metadata8">
    <rdf:RDF>
      <cc:Work
         rdf:about="">
        <dc:format>image/svg+xml</dc:format>
        <dc:type
           rdf:resource="http://purl.org/dc/dcmitype/StillImage" />
      </cc:Work>
    </rdf:RDF>
  </metadata>
  <defs
     id="defs6">
    <inkscape:perspective
       sodipodi:type="inkscape:persp3d"
       inkscape:vp_x="0 : 0.5 : 1"
       inkscape:vp_y="0 : 1000 : 0"
       inkscape:vp_z="1 : 0.5 : 1"
       inkscape:persp3d-origin="0.5 : 0.33333333 : 1"
       id="perspective10" />
  </defs>
  <sodipodi:namedview
     pagecolor="#ffffff"
     bordercolor="#666666"
     borderopacity="1"
     objecttolerance="10"
     gridtolerance="10"
     guidetolerance="10"
     inkscape:pageopacity="0"
     inkscape:pageshadow="2"
     inkscape:window-width="1920"
     inkscape:window-height="1017"
     id="namedview4"
     showgrid="false"
     inkscape:zoom="8.0871796"
     inkscape:cx="76.231768"
     inkscape:cy="14.900127"
     inkscape:window-x="-8"
     inkscape:window-y="-8"
     inkscape:window-maximized="1"
     inkscape:current-layer="svg2"
     fit-margin-top="0"
     fit-margin-left="0"
     fit-margin-right="0"
     fit-margin-bottom="0"
     inkscape:pagecheckerboard="0" />
  <path
     d="m 69.144117,-5.9656923 c -1.86718,1.103333 -3.445788,2.0199472 -3.496702,2.0199472 -0.05093,0 -0.08488,-0.7129206 -0.08488,-1.5786082 0.01698,-1.51072 0,-1.561633 -0.373436,-1.61256 -0.611067,-0.08488 -0.882663,0.254608 -0.882663,1.13727 0,0.424363 -0.05091,1.2900505 -0.10184,1.9180933 l -0.118816,1.1203081 -2.766804,1.6464967 C 59.79128,-0.41510641 58.484268,0.41664349 58.433342,0.50150779 58.365452,0.60334789 57.228169,2.894877 55.887206,5.6277451 52.271675,12.926682 51.168356,15.965068 51.168356,18.7149 c -0.01698,2.444295 0.933577,4.056855 2.953524,5.092284 l 0.882663,0.441339 1.120294,-0.746872 c 1.901117,-1.273075 5.092285,-2.664965 6.076802,-2.664965 0.305533,0 0.305533,-0.05092 -0.03395,4.2945 l -0.118828,1.323987 -1.544657,-0.101839 c -6.144681,-0.407388 -10.235486,-1.256099 -13.036243,-2.647989 -1.49373,-0.746872 -2.172714,-1.425841 -2.172714,-2.138762 0,-0.797788 1.052407,-2.783784 2.631015,-4.990433 1.476768,-2.053884 1.782302,-2.64799 1.782302,-3.360911 0,-0.61107 0.03395,-0.594105 -0.661994,-0.254609 -0.661994,0.322512 -0.831737,0.220658 -0.475276,-0.322521 0.254606,-0.3904 0.797785,-2.053882 0.797785,-2.393367 -0.01698,-0.101843 -0.186717,0.01699 -0.39041,0.254617 -0.475275,0.577119 -1.459779,1.171224 -1.918093,1.171224 h -0.35646 l 0.322523,-0.678973 c 0.373423,-0.763844 0.628043,-2.7158915 0.339485,-2.7158915 -0.08488,0 -0.203694,0.1697421 -0.271596,0.3734356 -0.288558,1.1542609 -2.189676,2.4612749 -4.481204,3.1062919 -0.594106,0.169742 -1.527681,0.594107 -2.087836,0.950567 -2.087835,1.357938 -2.732854,1.544656 -3.870136,1.154244 -0.661994,-0.23763 -0.695946,-0.186718 -0.814762,0.662009 -0.101853,0.797785 0.288559,1.663472 0.899639,1.935053 0.339485,0.152782 0.475276,0.135807 0.797785,-0.152767 0.203694,-0.186717 0.543179,-0.407371 0.729896,-0.458298 0.458301,-0.135791 1.2561,0.152766 1.2561,0.458298 0,0.390412 -0.594106,0.7978 -1.171235,0.7978 -0.661994,0 -0.848712,0.390397 -0.441325,0.848712 0.628043,0.695944 2.257578,0.322509 2.970499,-0.67897 0.475275,-0.661993 1.340963,-0.71292 1.952044,-0.08488 0.645018,0.628058 0.543165,1.222148 -0.543179,3.276035 -1.765326,3.343934 -1.816253,3.462761 -1.884141,4.600033 -0.203694,2.970498 1.59557,6.263503 4.107768,7.485651 1.96902,0.967542 5.126236,1.408869 12.238454,1.697427 12.238454,0.475287 23.169885,-0.118815 25.699044,-1.425829 1.459793,-0.763849 3.63249,-4.345428 4.854637,-7.994895 0.356461,-1.035429 0.492268,-1.850189 0.577131,-3.581567 0.152766,-2.597062 0.339484,-3.038401 1.307026,-3.225119 0.458299,-0.08486 0.712921,-0.03394 1.052405,0.22067 0.628042,0.475279 0.661994,0.729896 0.08486,0.729896 -0.59409,0 -0.899639,0.271585 -0.899639,0.780824 0,0.492251 0.35646,0.763832 1.15426,0.865688 0.560142,0.06789 0.746861,0.01695 1.205172,-0.390412 1.884143,-1.714399 -0.390412,-4.430291 -3.174191,-3.802234 -1.595584,0.35646 -2.580086,1.612544 -2.580086,3.27603 0,0.780812 -0.526203,2.172703 -1.069381,2.766808 -0.611082,0.712921 -1.357938,1.069381 -3.93804,1.85019 -4.090792,1.239123 -8.690826,1.918092 -14.071669,2.070858 l -3.547614,0.101856 0.10184,-1.2561 c 0.0679,-0.695944 0.169742,-2.036911 0.220669,-3.004449 0.118815,-1.680451 0.135791,-1.748351 0.560154,-1.867169 0.237631,-0.0679 2.087835,-0.118815 4.090792,-0.118815 3.021426,0.017 4.022904,0.08487 5.822182,0.407377 1.205172,0.203693 2.223626,0.339484 2.274553,0.288568 0.05091,-0.05093 -0.322523,-0.560154 -0.83175,-1.154256 -3.225105,-3.734334 -5.720328,-8.045798 -6.70483,-11.5934259 -0.424364,-1.5276805 -0.458315,-1.985996 -0.475277,-4.4133152 0,-2.3085048 0.05091,-2.93654731 0.390399,-4.15869521 0.49225,-1.81623929 1.782301,-4.53213109 2.936547,-6.19560399 0.475289,-0.71292 0.848725,-1.307026 0.814774,-1.340977 -0.03395,-0.03394 -1.595584,0.848712 -3.46275,1.952044 z"
     id="shadow"
     style="fill:#000000;fill-opacity:0.60373" />
  <path
     d="m 67.982439,-7.3139757 c -1.86718,1.1033331 -3.445788,2.0199473 -3.496702,2.0199473 -0.05093,0 -0.08488,-0.7129206 -0.08488,-1.5786082 0.01698,-1.51072 0,-1.5616328 -0.373436,-1.6125597 -0.611067,-0.084878 -0.882663,0.2546072 -0.882663,1.1372702 0,0.4243624 -0.05091,1.29005 -0.10184,1.9180928 l -0.118816,1.1203081 -2.766804,1.6464967 c -1.527696,0.8996388 -2.834708,1.73138867 -2.885634,1.816253 -0.06789,0.10184014 -1.205173,2.3933692 -2.546136,5.1262373 -3.615531,7.2989372 -4.71885,10.3373222 -4.71885,13.0871542 -0.01698,2.444295 0.933577,4.056855 2.953524,5.092284 l 0.882663,0.441339 1.120294,-0.746872 c 1.901117,-1.273075 5.092285,-2.664965 6.076802,-2.664965 0.305533,0 0.305533,-0.05092 -0.03395,4.2945 L 60.887183,25.106889 59.342526,25.00505 C 53.197845,24.597662 49.10704,23.748951 46.306283,22.357061 c -1.49373,-0.746872 -2.172714,-1.425841 -2.172714,-2.138762 0,-0.797788 1.052407,-2.783784 2.631015,-4.990433 1.476768,-2.053883 1.782302,-2.647989 1.782302,-3.36091 0,-0.61107 0.03395,-0.594105 -0.661994,-0.254609 -0.661994,0.322512 -0.831737,0.220658 -0.475276,-0.322521 0.254606,-0.3904 0.797785,-2.0538826 0.797785,-2.3933669 -0.01698,-0.1018432 -0.186717,0.016988 -0.39041,0.2546167 C 47.341716,9.7281944 46.357212,10.3223 45.898898,10.3223 h -0.35646 l 0.322523,-0.6789732 c 0.373423,-0.7638442 0.628043,-2.7158916 0.339485,-2.7158916 -0.08488,0 -0.203694,0.1697421 -0.271596,0.3734356 -0.288558,1.1542607 -2.189676,2.4612748 -4.481204,3.1062922 -0.594106,0.169742 -1.527681,0.594107 -2.087836,0.950567 -2.087835,1.357938 -2.732854,1.544656 -3.870136,1.154244 -0.661994,-0.23763 -0.695946,-0.186718 -0.814762,0.662009 -0.101853,0.797784 0.288559,1.663471 0.899639,1.935052 0.339485,0.152782 0.475276,0.135807 0.797785,-0.152767 0.203694,-0.186717 0.543179,-0.407371 0.729896,-0.458298 0.458301,-0.135791 1.2561,0.152766 1.2561,0.458298 0,0.390412 -0.594106,0.7978 -1.171235,0.7978 -0.661994,0 -0.848712,0.390397 -0.441325,0.848712 0.628043,0.695944 2.257578,0.322509 2.970499,-0.67897 0.475275,-0.661993 1.340963,-0.71292 1.952044,-0.08488 0.645018,0.628058 0.543165,1.222148 -0.543179,3.276035 -1.765326,3.343934 -1.816253,3.462761 -1.884141,4.600033 -0.203694,2.970498 1.59557,6.263503 4.107768,7.485651 1.96902,0.967542 5.126236,1.408869 12.238454,1.697427 12.238454,0.475287 23.169885,-0.118815 25.699044,-1.425829 1.459793,-0.763849 3.63249,-4.345428 4.854637,-7.994895 0.356461,-1.035429 0.492268,-1.850189 0.577131,-3.581567 0.152766,-2.597062 0.339484,-3.038401 1.307026,-3.225119 0.458299,-0.08486 0.712921,-0.03394 1.052405,0.22067 0.628042,0.475279 0.661994,0.729896 0.08486,0.729896 -0.59409,0 -0.899639,0.271585 -0.899639,0.780824 0,0.492251 0.35646,0.763832 1.15426,0.865688 0.560142,0.06789 0.746861,0.01695 1.205172,-0.390412 1.884143,-1.714399 -0.390412,-4.430291 -3.174191,-3.802234 -1.595584,0.35646 -2.580086,1.612544 -2.580086,3.27603 0,0.780812 -0.526203,2.172703 -1.069381,2.766808 -0.611082,0.712921 -1.357938,1.069381 -3.93804,1.85019 -4.090792,1.239123 -8.690826,1.918092 -14.071669,2.070858 l -3.547614,0.101856 0.10184,-1.2561 c 0.0679,-0.695944 0.169742,-2.036911 0.220669,-3.004449 0.118815,-1.680451 0.135791,-1.748351 0.560154,-1.867169 0.237631,-0.0679 2.087835,-0.118815 4.090792,-0.118815 3.021426,0.017 4.022904,0.08487 5.822182,0.407377 1.205172,0.203693 2.223626,0.339484 2.274553,0.288568 0.05091,-0.05093 -0.322523,-0.560154 -0.83175,-1.154256 -3.225105,-3.734334 -5.720328,-8.045797 -6.70483,-11.5934252 -0.424364,-1.5276805 -0.458315,-1.985996 -0.475277,-4.4133152 0,-2.30850475 0.05091,-2.93654732 0.390399,-4.1586952 0.49225,-1.8162393 1.782301,-4.5321311 2.936547,-6.1956035 0.475289,-0.7129208 0.848725,-1.3070264 0.814774,-1.3409776 -0.03395,-0.033941 -1.595584,0.8487118 -3.46275,1.9520439 z"
     id="hull" />
</svg>
