<?xml version="1.0" encoding="UTF-8"?>
<svg width="480px" height="480px" viewBox="0 0 480 480" version="1.1" xmlns="http://www.w3.org/2000/svg" xmlns:xlink="http://www.w3.org/1999/xlink">
    <title>France</title>
    <g id="France" stroke="none" stroke-width="1" fill="none" fill-rule="evenodd">
        <rect id="rect4" fill="#000099" fill-rule="nonzero" x="0" y="0" width="480" height="480"></rect>
        <g id="Group" transform="translate(40.000000, 82.000000)" fill="#FFED2A" fill-rule="nonzero" stroke="#B0900C" stroke-width="2.00000003">
            <g id="g8382" transform="translate(129.500000, 146.000000)">
                <g id="g8384" transform="translate(36.000000, 0.666667)">
                    <path d="M18.1765727,150.400503 C16.215703,139.599917 25.2547297,136.920383 28.1035402,114.587559 C30.1674303,98.4080063 24.2012931,73.4210723 16.574078,61.3999777 C8.94686297,49.3788679 0.515538046,44.3852848 0.219971782,32.1632563 C0.0577624713,25.4560277 3.11982291,19.2470661 11.8834573,15.0766625 C18.5470945,11.9056009 29.1400895,7.56809643 33.5489113,1.12260714 C37.9577179,7.56809643 48.5507129,11.9056009 55.2143501,15.0766625 C63.9779845,19.2470661 67.040045,25.4560277 66.8778508,32.1632563 C66.5822694,44.3852848 58.1509596,49.3788679 50.5237445,61.3999777 C42.8965295,73.4210723 36.9303923,98.4080063 38.9942824,114.587559 C41.8430777,136.920383 50.8821044,139.599917 48.9212347,150.400503 C47.308547,159.283246 39.4868322,161.338971 33.5489113,169.609258 C27.6109752,161.338971 19.7892604,159.283246 18.1765727,150.400503 Z" id="path8386"></path>
                    <line x1="33.5489113" y1="1.58669196" x2="33.5489113" y2="168.73863" id="path8388"></line>
                </g>
                <g id="g8390" transform="translate(109.500000, 100.166667) scale(-1, 1) translate(-109.500000, -100.166667) translate(79.000000, 54.666667)">
                    <g id="g8392">
                        <path d="M27.9184929,51.3762849 C27.9184929,51.3762849 1.8021511,50.0960684 0.338632812,26.1813062 C-0.472906921,12.9204515 12.4379359,-0.222962274 26.0798255,0.986342561 C51.9064529,3.2757885 62.6055711,31.5927225 60.5546354,53.666743 C59.3349762,66.7938565 53.5401587,90.0922434 38.4907625,90.7720676 C28.5274812,91.2221465 22.998791,83.794492 23.3218395,72.9065487 C25.2034365,74.7817039 29.1253581,81.3307732 37.9100908,79.8959379 C43.2821606,79.0185008 50.1648016,75.9083591 52.2806926,56.4152867 C53.6860163,43.4684434 48.8877816,27.850872 38.4907625,28.4717643 C21.3251116,29.4968711 27.9184929,51.3762849 27.9184929,51.3762849 L27.9184929,51.3762849 Z" id="path8394"></path>
                    </g>
                </g>
                <g id="g8396" transform="translate(0.000000, 54.666667)">
                    <g id="g8398">
                        <path d="M27.9184929,51.3762849 C27.9184929,51.3762849 1.8021511,50.0960684 0.338632812,26.1813062 C-0.472906921,12.9204515 12.4379359,-0.222962274 26.0798255,0.986342561 C51.9064529,3.2757885 62.6055711,31.5927225 60.5546354,53.666743 C59.3349762,66.7938565 53.5401587,90.0922434 38.4907625,90.7720676 C28.5274812,91.2221465 22.998791,83.794492 23.3218395,72.9065487 C25.2034365,74.7817039 29.1253581,81.3307732 37.9100908,79.8959379 C43.2821606,79.0185008 50.1648016,75.9083591 52.2806926,56.4152867 C53.6860163,43.4684434 48.8877816,27.850872 38.4907625,28.4717643 C21.3251116,29.4968711 27.9184929,51.3762849 27.9184929,51.3762849 L27.9184929,51.3762849 Z" id="path8400"></path>
                    </g>
                </g>
                <g id="g8402" transform="translate(37.000000, 104.666667)" stroke-linecap="round">
                    <polygon id="path8404" points="6.95586386 0.625488889 59.7811611 0.625488889 65.8720702 7.22924222 59.7811611 13.8329956 6.95586386 13.8329956 0.864954773 7.22924222"></polygon>
                </g>
            </g>
            <g id="g8382" transform="translate(259.000000, 0.000000)">
                <g id="g8384" transform="translate(36.000000, 0.666667)">
                    <path d="M18.4478649,150.400503 C16.4577284,139.599917 25.631666,136.920383 28.522996,114.587559 C30.6176904,98.4080063 24.5625064,73.4210723 16.8214523,61.3999777 C9.08039824,49.3788679 0.523232644,44.3852848 0.223254943,32.1632563 C0.0586245977,25.4560277 3.16638743,19.2470661 12.0608223,15.0766625 C18.8239168,11.9056009 29.5750162,7.56809643 34.0496413,1.12260714 C38.524251,7.56809643 49.2753504,11.9056009 56.0384449,15.0766625 C64.9328798,19.2470661 68.0406426,25.4560277 67.8760277,32.1632563 C67.5760346,44.3852848 59.0188844,49.3788679 51.2778303,61.3999777 C43.5367762,73.4210723 37.4815922,98.4080063 39.5762866,114.587559 C42.4676013,136.920383 51.6415388,139.599917 49.6514024,150.400503 C48.0146447,159.283246 40.0761879,161.338971 34.0496413,169.609258 C28.0230793,161.338971 20.0846225,159.283246 18.4478649,150.400503 Z" id="path8386"></path>
                    <line x1="34.0496413" y1="1.58669196" x2="34.0496413" y2="168.73863" id="path8388"></line>
                </g>
                <g id="g8390" transform="translate(110.000000, 100.166667) scale(-1, 1) translate(-110.000000, -100.166667) translate(79.000000, 54.666667)">
                    <g id="g8392">
                        <path d="M28.3761731,51.3762849 C28.3761731,51.3762849 1.83169456,50.0960684 0.344184169,26.1813062 C-0.480659494,12.9204515 12.6418365,-0.222962274 26.5073636,0.986342561 C52.7573784,3.2757885 63.6318919,31.5927225 61.5473344,53.666743 C60.3076808,66.7938565 54.4178662,90.0922434 39.1217586,90.7720676 C28.9951448,91.2221465 23.3758203,83.794492 23.7041647,72.9065487 C25.6166076,74.7817039 29.602823,81.3307732 38.5315677,79.8959379 C43.9917043,79.0185008 50.9871754,75.9083591 53.1377531,56.4152867 C54.566115,43.4684434 49.6892207,27.850872 39.1217586,28.4717643 C21.6747035,29.4968711 28.3761731,51.3762849 28.3761731,51.3762849 L28.3761731,51.3762849 Z" id="path8394"></path>
                    </g>
                </g>
                <g id="g8396" transform="translate(0.000000, 54.666667)">
                    <g id="g8398">
                        <path d="M28.3761731,51.3762849 C28.3761731,51.3762849 1.83169456,50.0960684 0.344184169,26.1813062 C-0.480659494,12.9204515 12.6418365,-0.222962274 26.5073636,0.986342561 C52.7573784,3.2757885 63.6318919,31.5927225 61.5473344,53.666743 C60.3076808,66.7938565 54.4178662,90.0922434 39.1217586,90.7720676 C28.9951448,91.2221465 23.3758203,83.794492 23.7041647,72.9065487 C25.6166076,74.7817039 29.602823,81.3307732 38.5315677,79.8959379 C43.9917043,79.0185008 50.9871754,75.9083591 53.1377531,56.4152867 C54.566115,43.4684434 49.6892207,27.850872 39.1217586,28.4717643 C21.6747035,29.4968711 28.3761731,51.3762849 28.3761731,51.3762849 L28.3761731,51.3762849 Z" id="path8400"></path>
                    </g>
                </g>
                <g id="g8402" transform="translate(37.000000, 104.666667)" stroke-linecap="round">
                    <polygon id="path8404" points="7.05968273 0.625488889 60.6734173 0.625488889 66.8552355 7.22924222 60.6734173 13.8329956 7.05968273 13.8329956 0.877864545 7.22924222"></polygon>
                </g>
            </g>
            <g id="g8382">
                <g id="g8384" transform="translate(36.000000, 0.666667)">
                    <path d="M18.1765727,150.400503 C16.215703,139.599917 25.2547297,136.920383 28.1035402,114.587559 C30.1674303,98.4080063 24.2012931,73.4210723 16.574078,61.3999777 C8.94686297,49.3788679 0.515538046,44.3852848 0.219971782,32.1632563 C0.0577624713,25.4560277 3.11982291,19.2470661 11.8834573,15.0766625 C18.5470945,11.9056009 29.1400895,7.56809643 33.5489113,1.12260714 C37.9577179,7.56809643 48.5507129,11.9056009 55.2143501,15.0766625 C63.9779845,19.2470661 67.040045,25.4560277 66.8778508,32.1632563 C66.5822694,44.3852848 58.1509596,49.3788679 50.5237445,61.3999777 C42.8965295,73.4210723 36.9303923,98.4080063 38.9942824,114.587559 C41.8430777,136.920383 50.8821044,139.599917 48.9212347,150.400503 C47.308547,159.283246 39.4868322,161.338971 33.5489113,169.609258 C27.6109752,161.338971 19.7892604,159.283246 18.1765727,150.400503 Z" id="path8386"></path>
                    <line x1="33.5489113" y1="1.58669196" x2="33.5489113" y2="168.73863" id="path8388"></line>
                </g>
                <g id="g8390" transform="translate(109.500000, 100.166667) scale(-1, 1) translate(-109.500000, -100.166667) translate(79.000000, 54.666667)">
                    <g id="g8392">
                        <path d="M27.9184929,51.3762849 C27.9184929,51.3762849 1.8021511,50.0960684 0.338632812,26.1813062 C-0.472906921,12.9204515 12.4379359,-0.222962274 26.0798255,0.986342561 C51.9064529,3.2757885 62.6055711,31.5927225 60.5546354,53.666743 C59.3349762,66.7938565 53.5401587,90.0922434 38.4907625,90.7720676 C28.5274812,91.2221465 22.998791,83.794492 23.3218395,72.9065487 C25.2034365,74.7817039 29.1253581,81.3307732 37.9100908,79.8959379 C43.2821606,79.0185008 50.1648016,75.9083591 52.2806926,56.4152867 C53.6860163,43.4684434 48.8877816,27.850872 38.4907625,28.4717643 C21.3251116,29.4968711 27.9184929,51.3762849 27.9184929,51.3762849 L27.9184929,51.3762849 Z" id="path8394"></path>
                    </g>
                </g>
                <g id="g8396" transform="translate(0.000000, 54.666667)">
                    <g id="g8398">
                        <path d="M27.9184929,51.3762849 C27.9184929,51.3762849 1.8021511,50.0960684 0.338632812,26.1813062 C-0.472906921,12.9204515 12.4379359,-0.222962274 26.0798255,0.986342561 C51.9064529,3.2757885 62.6055711,31.5927225 60.5546354,53.666743 C59.3349762,66.7938565 53.5401587,90.0922434 38.4907625,90.7720676 C28.5274812,91.2221465 22.998791,83.794492 23.3218395,72.9065487 C25.2034365,74.7817039 29.1253581,81.3307732 37.9100908,79.8959379 C43.2821606,79.0185008 50.1648016,75.9083591 52.2806926,56.4152867 C53.6860163,43.4684434 48.8877816,27.850872 38.4907625,28.4717643 C21.3251116,29.4968711 27.9184929,51.3762849 27.9184929,51.3762849 L27.9184929,51.3762849 Z" id="path8400"></path>
                    </g>
                </g>
                <g id="g8402" transform="translate(37.000000, 104.666667)" stroke-linecap="round">
                    <polygon id="path8404" points="6.95586386 0.625488889 59.7811611 0.625488889 65.8720702 7.22924222 59.7811611 13.8329956 6.95586386 13.8329956 0.864954773 7.22924222"></polygon>
                </g>
            </g>
        </g>
    </g>
</svg>