<?xml version="1.0" encoding="UTF-8" standalone="no"?>
<!-- Created with Inkscape (http://www.inkscape.org/) -->

<svg
   version="1.0"
   width="5000"
   height="5000"
   viewBox="0 0 5000 5000"
   id="svg18588"
   xml:space="preserve"
   sodipodi:docname="france.svg"
   inkscape:version="1.3.2 (091e20e, 2023-11-25, custom)"
   xmlns:inkscape="http://www.inkscape.org/namespaces/inkscape"
   xmlns:sodipodi="http://sodipodi.sourceforge.net/DTD/sodipodi-0.dtd"
   xmlns="http://www.w3.org/2000/svg"
   xmlns:svg="http://www.w3.org/2000/svg"><sodipodi:namedview
   id="namedview1"
   pagecolor="#ffffff"
   bordercolor="#000000"
   borderopacity="0.25"
   inkscape:showpageshadow="2"
   inkscape:pageopacity="0.0"
   inkscape:pagecheckerboard="0"
   inkscape:deskcolor="#d1d1d1"
   inkscape:zoom="0.12552083"
   inkscape:cx="1402.1577"
   inkscape:cy="1788.5477"
   inkscape:window-width="2560"
   inkscape:window-height="1369"
   inkscape:window-x="-8"
   inkscape:window-y="-8"
   inkscape:window-maximized="1"
   inkscape:current-layer="svg18588" /><defs
   id="defs18616" />
	
		<g
   id="flag">
			<rect
   width="5000"
   height="5000"
   x="0"
   y="0"
   style="fill:#000099;stroke-width:17.9305"
   id="blue" /> 
			
			
			<g
   id="g1"
   transform="matrix(0.99821497,0,0,0.99821497,228.14752,1021.7714)"><g
     id="_x33_"
     transform="matrix(16.367922,0,0,16.367922,-680.87447,-395.43201)">
				<path
   d="m 180.648,203.535 c 1.306,-1.418 3.611,-4.2 4.548,-7.149 1.048,-3.291 0.579,-7.963 0.327,-9.854 5.285,2.294 9.029,2.561 13.103,0.924 0,0 1.046,-0.422 1.049,-0.419 l -1.758,-0.756 c -2.82,-1.192 -7.485,-3.185 -9.582,-10.555 h 7.708 v -5.234 h -3.395 c 0.376,-10.385 6.267,-16.188 10.466,-16.383 2.072,-0.097 3.409,1.149 3.667,3.419 0.371,3.438 -1.587,7.933 -1.607,7.979 l -0.452,1.02 1.047,-0.394 c 5.441,-2.059 10.1,-5.568 13.477,-10.146 5.65,-7.663 3.77,-15.86 -1.01,-19.998 -4.518,-3.908 -12.297,-4.668 -19.5,2.447 -8.446,8.348 -12.418,24.929 -12.695,32.051 h -1.139 c -0.042,-8.529 -0.015,-13.812 4.318,-24.954 7.255,-18.646 4.346,-34.687 -8.572,-47.714 -12.925,13.028 -15.83,29.068 -8.577,47.717 4.331,11.14 4.358,16.422 4.317,24.951 h -1.14 c -0.274,-7.122 -4.249,-23.703 -12.695,-32.051 -7.201,-7.112 -14.983,-6.355 -19.5,-2.443 -4.78,4.139 -6.661,12.333 -1.009,19.996 3.377,4.575 8.036,8.087 13.474,10.146 l 1.047,0.396 -0.451,-1.024 c -0.021,-0.044 -1.979,-4.539 -1.607,-7.979 0.26,-2.268 1.595,-3.516 3.666,-3.419 4.202,0.198 10.092,5.998 10.468,16.383 h -3.394 v 5.236 h 7.707 c -2.097,7.371 -6.763,9.36 -9.583,10.553 l -1.759,0.756 c 0.005,-0.003 1.052,0.419 1.052,0.419 4.072,1.637 7.817,1.37 13.104,-0.921 -0.256,1.888 -0.724,6.562 0.326,9.851 0.937,2.948 3.243,5.731 4.554,7.149 z"
   id="path11053_2_" />
				<rect
   width="28.917999"
   height="3.3570001"
   x="166.185"
   y="171.429"
   style="fill:#ffd700"
   id="rect11055_2_" /> 
				<path
   d="m 169.579,170.492 h 4.73 c -0.276,-7.002 -4.164,-23.233 -12.414,-31.389 -7.242,-7.152 -14.346,-5.764 -18.228,-2.399 -4.454,3.852 -6.183,11.524 -0.87,18.731 3.058,4.143 7.21,7.366 12.042,9.401 -0.585,-1.598 -1.552,-4.731 -1.262,-7.409 0.311,-2.743 2.088,-4.373 4.641,-4.253 4.401,0.205 10.97,5.86 11.361,17.318 z"
   style="fill:#ffd700"
   id="path11057_2_" />
				<path
   d="m 183.965,170.492 c -0.043,-8.637 -0.016,-13.993 4.38,-25.299 6.974,-17.933 4.354,-33.391 -7.697,-46.008 -12.057,12.617 -14.679,28.077 -7.705,46.008 4.398,11.306 4.425,16.657 4.382,25.299 z"
   style="fill:#ffd700"
   id="path11059_2_" />
				<path
   d="m 191.712,170.492 h -4.731 c 0.276,-7.002 4.165,-23.233 12.416,-31.389 7.242,-7.152 14.343,-5.764 18.227,-2.399 4.454,3.852 6.183,11.524 0.868,18.731 -3.055,4.143 -7.21,7.366 -12.043,9.401 0.586,-1.598 1.555,-4.731 1.266,-7.409 -0.313,-2.743 -2.091,-4.373 -4.644,-4.253 -4.397,0.205 -10.969,5.86 -11.359,17.318 z"
   style="fill:#ffd700"
   id="path11061_2_" />
				<path
   d="m 187.358,175.726 c 2.085,7.67 6.751,9.949 9.79,11.248 -3.612,1.143 -7.011,0.668 -12.019,-1.626 l -0.807,-0.37 0.15,0.877 c 0.01,0.062 1.07,6.347 -0.17,10.247 -0.729,2.293 -2.396,4.534 -3.656,6.01 -1.264,-1.476 -2.932,-3.717 -3.661,-6.01 -1.241,-3.9 -0.18,-10.185 -0.171,-10.247 l 0.154,-0.877 -0.811,0.37 c -5.006,2.294 -8.405,2.766 -12.018,1.626 3.038,-1.299 7.706,-3.578 9.792,-11.248 z"
   style="fill:#ffd700"
   id="path11063_2_" />
			</g><g
     id="_x32_"
     transform="matrix(16.367922,0,0,16.367922,-680.87447,-395.43201)">
				<path
   d="m 86.388,131.446 c 1.307,-1.418 3.611,-4.199 4.549,-7.148 1.048,-3.291 0.579,-7.963 0.327,-9.854 5.285,2.293 9.029,2.561 13.103,0.924 0,0 1.046,-0.422 1.049,-0.42 l -1.758,-0.756 c -2.82,-1.191 -7.485,-3.184 -9.582,-10.554 h 7.708 v -5.234 h -3.395 c 0.376,-10.385 6.267,-16.188 10.466,-16.383 2.072,-0.097 3.409,1.149 3.667,3.419 0.371,3.438 -1.587,7.933 -1.607,7.979 l -0.452,1.02 1.047,-0.394 c 5.441,-2.059 10.1,-5.568 13.477,-10.146 5.65,-7.663 3.77,-15.86 -1.01,-19.998 -4.518,-3.908 -12.297,-4.668 -19.5,2.447 -8.446,8.348 -12.418,24.929 -12.695,32.051 H 90.643 C 90.6,89.87 90.627,84.588 94.96,73.445 102.215,54.799 99.306,38.758 86.388,25.731 73.464,38.759 70.559,54.799 77.812,73.448 c 4.33,11.14 4.357,16.422 4.316,24.951 H 80.99 C 80.715,91.277 76.741,74.696 68.295,66.348 c -7.201,-7.112 -14.982,-6.355 -19.5,-2.443 -4.78,4.139 -6.661,12.333 -1.009,19.996 3.377,4.575 8.036,8.087 13.474,10.146 l 1.048,0.396 -0.451,-1.024 C 61.836,93.375 59.878,88.88 60.25,85.44 c 0.26,-2.268 1.594,-3.516 3.666,-3.419 4.201,0.198 10.092,5.998 10.467,16.383 h -3.394 v 5.236 h 7.707 c -2.097,7.371 -6.763,9.361 -9.583,10.552 l -1.76,0.756 c 0.006,-0.002 1.053,0.42 1.053,0.42 4.072,1.637 7.816,1.369 13.104,-0.922 -0.256,1.889 -0.723,6.562 0.326,9.852 0.935,2.949 3.242,5.73 4.552,7.148 z"
   id="path11053_1_" />
				<rect
   width="28.919001"
   height="3.3570001"
   x="71.925003"
   y="99.341003"
   style="fill:#ffd700"
   id="rect11055_1_" /> 
				<path
   d="m 75.32,98.403 h 4.73 C 79.773,91.401 75.886,75.17 67.636,67.014 60.394,59.862 53.29,61.25 49.408,64.615 c -4.454,3.852 -6.183,11.524 -0.87,18.731 3.058,4.143 7.21,7.366 12.042,9.401 -0.586,-1.598 -1.553,-4.731 -1.263,-7.409 0.312,-2.743 2.089,-4.373 4.642,-4.253 4.4,0.206 10.97,5.86 11.361,17.318 z"
   style="fill:#ffd700"
   id="path11057_1_" />
				<path
   d="M 89.706,98.403 C 89.663,89.766 89.69,84.41 94.086,73.104 101.06,55.171 98.44,39.713 86.389,27.096 74.332,39.713 71.71,55.173 78.685,73.104 83.082,84.41 83.11,89.761 83.067,98.403 Z"
   style="fill:#ffd700"
   id="path11059_1_" />
				<path
   d="m 97.453,98.403 h -4.731 c 0.276,-7.002 4.165,-23.233 12.416,-31.389 7.242,-7.152 14.343,-5.764 18.227,-2.399 4.454,3.852 6.183,11.524 0.868,18.731 -3.055,4.143 -7.21,7.366 -12.043,9.401 0.586,-1.598 1.555,-4.731 1.266,-7.409 -0.313,-2.743 -2.091,-4.373 -4.644,-4.253 -4.397,0.206 -10.97,5.86 -11.359,17.318 z"
   style="fill:#ffd700"
   id="path11061_1_" />
				<path
   d="m 93.099,103.638 c 2.085,7.669 6.751,9.949 9.79,11.248 -3.612,1.143 -7.011,0.668 -12.019,-1.625 l -0.807,-0.371 0.15,0.877 c 0.01,0.062 1.07,6.348 -0.17,10.248 -0.729,2.293 -2.396,4.533 -3.656,6.01 -1.264,-1.477 -2.932,-3.717 -3.66,-6.01 -1.242,-3.9 -0.18,-10.186 -0.172,-10.248 l 0.154,-0.877 -0.809,0.37 c -5.006,2.293 -8.404,2.766 -12.018,1.625 3.038,-1.299 7.705,-3.578 9.792,-11.248 h 13.425 z"
   style="fill:#ffd700"
   id="path11063_1_" />
			</g><g
     id="_x31_"
     transform="matrix(16.367922,0,0,16.367922,-680.87447,-395.43201)">
				<path
   d="m 274.907,131.446 c 1.307,-1.418 3.611,-4.199 4.549,-7.148 1.048,-3.291 0.579,-7.963 0.327,-9.854 5.285,2.293 9.029,2.561 13.103,0.924 0,0 1.046,-0.422 1.049,-0.42 l -1.758,-0.756 c -2.82,-1.191 -7.485,-3.184 -9.582,-10.554 h 7.708 v -5.234 h -3.395 c 0.376,-10.385 6.267,-16.188 10.466,-16.383 2.072,-0.097 3.409,1.149 3.667,3.419 0.371,3.438 -1.587,7.933 -1.607,7.979 l -0.452,1.02 1.047,-0.394 c 5.441,-2.059 10.1,-5.568 13.477,-10.146 5.65,-7.663 3.77,-15.86 -1.01,-19.998 -4.518,-3.908 -12.297,-4.668 -19.5,2.447 -8.446,8.348 -12.418,24.929 -12.695,32.051 h -1.139 c -0.042,-8.529 -0.015,-13.812 4.318,-24.954 7.255,-18.646 4.346,-34.687 -8.572,-47.714 -12.924,13.028 -15.829,29.068 -8.576,47.717 4.33,11.14 4.357,16.422 4.316,24.951 h -1.139 c -0.275,-7.122 -4.249,-23.703 -12.695,-32.051 -7.201,-7.112 -14.982,-6.355 -19.5,-2.443 -4.779,4.139 -6.66,12.333 -1.009,19.996 3.378,4.575 8.036,8.087 13.475,10.146 l 1.048,0.396 -0.451,-1.024 c -0.021,-0.044 -1.979,-4.539 -1.607,-7.979 0.26,-2.268 1.594,-3.516 3.666,-3.419 4.201,0.198 10.092,5.998 10.467,16.383 h -3.394 v 5.236 h 7.707 c -2.097,7.371 -6.763,9.361 -9.583,10.552 l -1.76,0.756 c 0.006,-0.002 1.053,0.42 1.053,0.42 4.072,1.637 7.816,1.369 13.104,-0.922 -0.256,1.889 -0.723,6.562 0.326,9.852 0.934,2.949 3.241,5.73 4.551,7.148 z"
   id="path11053_3_" />
				<rect
   width="28.919001"
   height="3.3570001"
   x="260.444"
   y="99.341003"
   style="fill:#ffd700"
   id="rect11055_3_" /> 
				<path
   d="m 263.839,98.403 h 4.73 c -0.277,-7.002 -4.164,-23.233 -12.414,-31.389 -7.242,-7.152 -14.346,-5.764 -18.228,-2.399 -4.454,3.852 -6.183,11.524 -0.87,18.731 3.059,4.143 7.211,7.366 12.043,9.401 -0.586,-1.598 -1.553,-4.731 -1.263,-7.409 0.312,-2.743 2.089,-4.373 4.642,-4.253 4.399,0.206 10.969,5.86 11.36,17.318 z"
   style="fill:#ffd700"
   id="path11057_3_" />
				<path
   d="m 278.225,98.403 c -0.043,-8.637 -0.016,-13.993 4.38,-25.299 6.974,-17.933 4.354,-33.391 -7.697,-46.008 -12.057,12.617 -14.679,28.077 -7.704,46.008 4.397,11.306 4.425,16.657 4.382,25.299 z"
   style="fill:#ffd700"
   id="path11059_3_" />
				<path
   d="m 285.972,98.403 h -4.731 c 0.276,-7.002 4.165,-23.233 12.416,-31.389 7.242,-7.152 14.343,-5.764 18.227,-2.399 4.454,3.852 6.183,11.524 0.868,18.731 -3.055,4.143 -7.21,7.366 -12.043,9.401 0.586,-1.598 1.555,-4.731 1.266,-7.409 -0.313,-2.743 -2.091,-4.373 -4.644,-4.253 -4.397,0.206 -10.97,5.86 -11.359,17.318 z"
   style="fill:#ffd700"
   id="path11061_3_" />
				<path
   d="m 281.618,103.638 c 2.085,7.669 6.751,9.949 9.79,11.248 -3.612,1.143 -7.011,0.668 -12.019,-1.625 l -0.807,-0.371 0.15,0.877 c 0.01,0.062 1.07,6.348 -0.17,10.248 -0.729,2.293 -2.396,4.533 -3.656,6.01 -1.264,-1.477 -2.932,-3.717 -3.66,-6.01 -1.242,-3.9 -0.18,-10.186 -0.172,-10.248 l 0.154,-0.877 -0.811,0.371 c -5.006,2.293 -8.404,2.766 -12.018,1.625 3.038,-1.299 7.705,-3.578 9.792,-11.248 z"
   style="fill:#ffd700"
   id="path11063_3_" />
			</g></g>
		</g>
	</svg>
