<?xml version="1.0" encoding="UTF-8" standalone="no"?>
<svg
   width="5000"
   height="5000"
   version="1.0"
   id="svg2"
   sodipodi:docname="spain.svg"
   inkscape:version="1.3.2 (091e20e, 2023-11-25, custom)"
   xmlns:inkscape="http://www.inkscape.org/namespaces/inkscape"
   xmlns:sodipodi="http://sodipodi.sourceforge.net/DTD/sodipodi-0.dtd"
   xmlns="http://www.w3.org/2000/svg"
   xmlns:svg="http://www.w3.org/2000/svg">
  <sodipodi:namedview
     id="namedview2"
     pagecolor="#ffffff"
     bordercolor="#000000"
     borderopacity="0.25"
     inkscape:showpageshadow="2"
     inkscape:pageopacity="0.0"
     inkscape:pagecheckerboard="0"
     inkscape:deskcolor="#d1d1d1"
     inkscape:zoom="0.10041667"
     inkscape:cx="2330.2905"
     inkscape:cy="1956.8465"
     inkscape:window-width="2560"
     inkscape:window-height="1369"
     inkscape:window-x="-8"
     inkscape:window-y="-8"
     inkscape:window-maximized="1"
     inkscape:current-layer="svg2" />
  <defs
     id="defs1">
    <clipPath
       clipPathUnits="userSpaceOnUse"
       id="a">
      <rect
         ry="0.48800001"
         y="69.458"
         x="-109.549"
         height="158.75"
         width="238.125"
         fill="#0000ff"
         stroke-width="0.389"
         id="rect1" />
    </clipPath>
  </defs>
  <g
     id="g2"
     transform="scale(5.555555,8.3333333)">
    <rect
       ry="1.8430001"
       height="600"
       width="900"
       fill="#ffffff"
       id="rect2"
       x="0"
       y="0" />
    <path
       transform="matrix(3.7795276,0,0,3.7795276,414.04357,-262.51968)"
       d="m -109.54903,224.37241 c 0,-1.98725 1.17372,-2.49469 2.35149,-3.64541 1.1458,-1.11948 1.41973,-1.73559 1.66924,-3.75437 0.26916,-2.17772 0.45913,-2.55051 1.93251,-3.79245 0.89871,-0.75753 2.72649,-1.92873 4.06174,-2.60267 2.559193,-1.29171 2.922339,-1.20209 2.922339,0.72117 0,0.39926 0.382426,0.91974 0.849834,1.15662 0.73874,0.3744 1.49711,0.0221 5.801048,-2.69477 2.723165,-1.71902 5.949436,-3.96542 7.169496,-4.99202 2.207001,-1.85702 2.21964,-1.88046 2.48326,-4.60399 0.292457,-3.02149 0.444045,-3.21858 4.254455,-5.53154 1.1195,-0.67955 2.72242,-1.73678 3.562046,-2.3494 l 1.52659,-1.11386 0.0055,1.47803 c 0.0081,2.15824 0.402357,3.2128 1.201073,3.2128 0.792555,0 5.273824,-2.62678 12.227373,-7.16731 l 4.681545,-3.05695 0.257641,-2.99959 c 0.178133,-2.0739 0.481877,-3.23422 0.984252,-3.7599 0.934607,-0.97797 4.592868,-3.26633 5.780427,-3.61585 0.874283,-0.25731 0.915953,-0.17194 0.915953,1.87667 0,1.18044 0.103637,2.14625 0.230309,2.14625 0.53984,0 2.298451,-1.07802 6.893782,-4.22588 2.686801,-1.84049 5.753431,-3.81736 6.814733,-4.39304 2.028724,-1.10044 2.14326,-1.31951 2.504768,-4.79097 0.265512,-2.54963 1.376754,-4.06972 3.844914,-5.25955 1.043874,-0.50322 2.342063,-1.36581 2.884866,-1.91687 1.367242,-1.38803 1.659176,-1.26463 1.659176,0.70132 0,2.04707 0.309274,2.92281 1.032203,2.92281 0.454655,0 8.657746,-5.38841 12.0421076,-7.91016 1.41014,-1.05072 2.0068,-2.17706 1.55672,-2.93866 -0.19926,-0.33718 -1.55766,-1.35057 -3.01866,-2.25198 -1.461005,-0.9014 -2.6563706,-1.72361 -2.6563706,-1.82712 0,-0.1035 0.457978,-0.70361 1.017728,-1.33356 1.7786626,-2.00174 1.2291626,-3.27545 -2.265783,-5.25195 -0.798383,-0.4515 -1.805932,-1.19965 -2.239,-1.66254 -1.491586,-1.59429 -10.33005,-6.87706 -11.075995,-6.62013 -0.386575,0.13314 -1.498471,0.75275 -2.470883,1.3769 l -1.76802,1.13481 -1.488707,-1.35159 c -0.818788,-0.74338 -2.26114,-1.71751 -3.205229,-2.16474 -2.189371,-1.03713 -2.804451,-2.02187 -1.800368,-2.88237 0.402252,-0.34473 0.945931,-0.62678 1.208175,-0.62678 0.820727,0 0.520197,-1.85871 -0.439145,-2.71601 -0.503777,-0.45018 -3.441054,-2.58203 -6.527284,-4.73744 -3.08623,-2.15541 -6.347066,-4.43497 -7.246297,-5.0657 l -1.634972,-1.14677 -1.973241,1.05039 c -1.085289,0.57772 -2.409158,1.0504 -2.941934,1.0504 -0.532775,0 -1.92891,-0.68324 -3.102517,-1.51831 -1.173607,-0.83507 -2.49681,-1.62741 -2.940455,-1.76074 -1.015886,-0.30534 -1.013926,-0.82754 0.0091,-2.41645 1.791079,-2.78187 2.087684,-2.53272 -14.619047,-12.279718 -2.480484,-1.447157 -3.435664,-1.420571 -5.636254,0.156877 l -1.324047,0.949121 -2.23715,-1.283962 c -1.230431,-0.706173 -3.008767,-2.028489 -3.951859,-2.93847 l -1.714706,-1.654514 1.364604,-1.078812 c 1.189112,-0.940075 1.305089,-1.184119 0.90183,-1.897658 -0.254529,-0.450371 -1.60869,-1.475218 -3.009246,-2.27744 -1.400554,-0.802225 -3.921213,-2.419999 -5.601455,-3.595061 -1.68025,-1.175062 -4.650663,-3.0906 -6.600923,-4.256751 -4.09861,-2.450746 -5.10961,-3.068265 -5.11328,-7.947441 v -3.189027 l 15.045773,-10e-7 2.369399,1.9446 c 1.231451,0.775227 2.651181,1.524191 3.154955,1.664372 0.85547,0.238046 0.915954,0.138605 0.915954,-1.505873 v -1.760747 h 1.960552 c 1.68408,0 2.136822,0.176678 3.210615,1.25289 0.687536,0.689088 1.820389,1.709967 2.51745,2.268627 0.953397,0.764093 1.267946,1.337128 1.269653,2.313025 0.0074,4.24122 2.375379,6.421596 13.488694,12.420192 1.900092,1.025605 2.792674,0.474186 2.792674,-1.725258 0,-0.822147 0.169352,-1.494811 0.376333,-1.494811 0.206981,0 2.084689,0.934207 4.172683,2.076021 l 3.79635,2.076017 0.218522,3.128703 c 0.139809,2.001697 0.433089,3.328133 0.814181,3.682349 1.410245,1.310783 16.91712,11.76074 17.286388,11.64916 0.223901,-0.0677 0.514504,-0.8711 0.645782,-1.78544 0.137052,-0.95456 0.554225,-1.88091 0.979736,-2.17556 0.650576,-0.45049 0.929093,-0.35225 2.281312,0.80462 0.847143,0.72475 2.078958,1.58154 2.737363,1.90396 0.658405,0.32242 1.663814,1.11146 2.234245,1.75344 0.919758,1.0351 1.011124,1.40598 0.807241,3.27668 -0.22044,2.0226 -0.172109,2.16164 1.173676,3.3763 3.68064,3.32203 13.744824,10.32618 14.837569,10.32618 0.272256,0 0.7992416,-0.86738 1.1710806,-1.92752 0.37183,-1.06013 0.84734,-1.92752 1.05668,-1.92752 0.78737,0 6.1105,3.97297 6.6365,4.95322 0.30165,0.56215 0.67861002,2.03504 0.83769002,3.27309 0.32671,2.54265 1.59107,4.17176 5.16693998,6.6575 1.10024,0.76482 2.53023,1.89229 3.17777,2.50549 0.64753,0.6132 1.60361,1.11436 2.12461,1.11369 1.0879204,-0.002 9.3421904,-5.6557 10.2387204,-7.01369 0.32242,-0.48836 0.69994,-1.92879 0.83895,-3.20096 0.2898,-2.65224 0.95351,-3.37085 5.5426,-6.00111 l 2.64609,-1.51662 0.40709,1.31078 c 0.2239,0.72093 0.73597,1.65412 1.13794,2.07375 0.72252,0.75427 0.76656,0.74068 3.86736,-1.19348 5.13755,-3.20461 12.22879,-8.29037 12.68494,-9.09749 0.23391,-0.41391 0.42531,-1.77794 0.42531,-3.03117 0,-2.59377 -0.023,-2.56533 4.25567,-5.27099 3.83346,-2.42413 4.36929,-2.43553 4.83342,-0.10275 0.32693,1.64318 0.46108,1.81571 1.23632,1.58994 0.47827,-0.13929 1.60235,-0.72075 2.49795,-1.29214 0.8956,-0.5714 2.45272,-1.56654 3.46027,-2.21143 1.00755,-0.6449 4.26935,-2.71134 7.24844,-4.5921 2.97908,-1.880764 5.71285,-3.729643 6.07503,-4.108625 0.46916,-0.490926 0.64754,-1.379648 0.62038,-3.09077 -0.0434,-2.730764 0.16652,-3.091034 2.87094,-4.928097 1.07579,-0.730766 2.52261,-1.718982 3.21516,-2.196044 1.98354,-1.366354 2.36005,-1.166474 2.36005,1.252886 0,1.166151 0.0975,2.120276 0.21663,2.120276 0.94198,0 3.649,-1.677278 8.33228,-5.162725 l 5.495729,-4.090085 0.20355,-2.97303 0.20354,-2.973036 2.79045,-2.038167 c 2.39677,-1.750624 3.04288,-2.038168 4.57977,-2.038168 1.77438,0 1.78933,0.0113 1.78933,1.352561 v 1.35256 l 2.13723,-1.121396 c 2.08633,-1.094693 2.56281,-1.794494 9.31857,-1.926076 h 7.33692 v 7.9375 l -2.01435,1.229126 c -0.86287,0.416859 -2.54317,1.487244 -3.734,2.378625 -1.19083,0.891384 -3.28038,2.217637 -4.64344,2.947231 -3.36796,1.802736 -7.59291,4.691743 -7.87333,5.383755 -0.13681,0.337611 0.38717,1.164939 1.29605,2.046359 0.83914,0.81379 1.45907,1.658033 1.37762,1.876108 -0.0814,0.218072 -1.59776,1.379836 -3.36958,2.581709 l -3.22149,2.185214 -3.07152,-0.57877 -3.07152,-0.578763 -2.459439,1.568368 c -1.81557,1.157769 -12.49947,8.695014 -14.46281,10.203164 -0.10874,0.0835 0.68652,0.87831 1.76725,1.76615 l 1.96497,1.61427 -1.85381,0.85289 c -1.0196,0.46909 -2.56983,1.46547 -3.44496,2.21417 -1.88101,1.60927 -2.95093,1.69384 -5.15627,0.40757 -0.8956,-0.52237 -1.84124,-0.95518 -2.10143,-0.96179 -0.26018,-0.007 -2.21976,1.0722 -4.35464,2.39737 -2.13487,1.32517 -5.40262,3.32512 -7.26167,4.44433 -1.85904,1.11922 -4.10476,2.6131 -4.99047,3.31972 -1.58958,1.26819 -1.60156,1.29756 -0.9268,2.27276 0.37598,0.54337 1.05485,1.09955 1.50861,1.23593 0.56279,0.16915 0.82169,0.57668 0.81453,1.28213 -0.008,0.82733 -0.33702,1.17676 -1.64317,1.74723 -0.89797,0.3922 -2.56928,1.41417 -3.71402,2.27105 l -2.08134,1.55797 -2.5931,-1.21091 c -1.4262,-0.66601 -2.85039,-1.21091 -3.16485,-1.21091 -0.31446,0 -1.45594,0.63995 -2.53661,1.42211 -1.08067,0.78217 -4.55305,3.02129 -7.71639,4.97582 -3.16335,1.95454 -6.03989,3.94356 -6.39233,4.42005 -0.8098,1.09484 -0.38407,1.92267 1.57987,3.07209 l 1.4555,0.85185 -3.08855,1.87389 c -1.6987,1.03064 -3.19586,2.1387 -3.32702,2.46237 -0.41988,1.03617 0.89305,2.30899 5.61696,5.44535 6.26354,4.15856 6.67581,4.38928 7.84299,4.38928 1.01729,0 1.86056,-0.93813 1.86056,-2.06984 0,-0.31817 0.18423,-1.03736 0.4094,-1.5982 l 0.4094,-1.01969 1.93137,1.61241 c 1.06226,0.88683 2.61834,1.9451 3.45797,2.35171 l 1.52659,0.73928 0.006,2.59431 c 0.009,4.02849 -0.0361,3.97791 8.59772,9.5659 4.90038,3.17162 6.71456,4.21116 7.98524,4.57557 0.88093,0.25264 0.91595,0.17168 0.91595,-2.11756 0,-2.79543 -0.34074,-2.80802 5.03127,0.18592 l 3.80471,2.12046 0.23813,2.68984 c 0.13098,1.47941 0.44474,3.05541 0.69725,3.50222 0.6891,1.21932 15.32481,11.54468 16.38424,11.55893 0.16792,0.002 0.30532,-1.12349 0.30532,-2.50166 0,-1.75648 0.15318,-2.50578 0.51225,-2.50578 0.8406,0 5.4357,3.00415 6.729489,4.39955 0.91493,0.9868 1.26886,1.83595 1.48227,3.55632 0.1542,1.24299 0.37041,2.55462 0.48049,2.91474 0.11007,0.36011 3.07604,2.63533 6.59104,5.05604 9.24685,6.36811 9.4441,6.43402 9.4441,3.1558 0,-1.16615 0.13739,-2.11962 0.30531,-2.11883 0.51561,0.002 2.98187,1.52696 4.88011,3.01666 2.13356,1.67436 2.95639,3.01493 2.95639,4.81659 0,0.72567 0.37356,2.11911 0.83014,3.09655 0.67108,1.43662 1.36702,2.42474 1.27185,5.15693 v 3.92346 h -7.19062 c -5.62202,-0.0291 -6.70155,-0.71191 -7.88775,-1.34834 -3.31614,-1.77919 -3.24679,-1.75805 -4.21543,-1.28493 -0.50805,0.24815 -1.32602,0.79789 -1.81769,1.22165 l -0.89397,0.77047 -4.0929,-2.39542 c -2.25116,-1.31749 -4.092969,-2.54723 -4.092969,-2.73276 0,-0.18553 0.56313,-0.94468 1.25139,-1.687 0.784459,-0.84608 1.202169,-1.6714 1.119499,-2.21191 -0.0947,-0.61901 -2.141499,-2.20761 -7.255979,-5.6316 -3.91825,-2.62315 -8.1837,-5.28234 -9.47879,-5.9093 l -2.3547,-1.13994 -1.86973,0.78322 c -1.02836,0.43076 -2.25862,0.78112 -2.73394,0.77857 -1.08055,-0.006 -3.79071,-1.45707 -6.17267,-3.30541 l -1.81915,-1.41161 1.42658,-1.49532 c 0.78462,-0.82243 1.42658,-1.5751 1.42658,-1.6726 0,-0.0975 -1.14494,-0.90628 -2.54432,-1.79729 -1.39937,-0.891 -3.36868,-2.26197 -4.37622,-3.04659 -1.00756,-0.78462 -2.65258,-1.82071 -3.65561,-2.30243 -1.00304,-0.48172 -2.46856,-1.3616 -3.25673,-1.95528 -0.78817,-0.59369 -2.42103,-1.54557 -3.6286,-2.11528 l -2.19557,-1.03584 -2.08675,0.81905 c -2.92599,1.14844 -3.65157,1.04726 -6.29311,-0.87757 -3.62097,-2.63853 -3.66855,-2.73429 -2.11337,-4.25374 1.60291,-1.56609 1.51132,-2.41204 -0.38436,-3.54997 -0.7821,-0.46947 -1.98439,-1.2894 -2.67176,-1.82205 -1.36128,-1.05488 -13.75582,-8.65344 -14.63833,-8.97414 -0.29878,-0.10857 -1.05958,0.15281 -1.69066,0.58084 -1.09197,0.74062 -1.98935,0.9692 -3.41705,0.87036 -0.8751,-0.0606 -5.37672,-3.39291 -5.83546,-4.31969 -0.27431,-0.55421 -0.15808,-0.97157 0.44831,-1.60962 1.48169,-1.55907 1.42598,-1.69664 -1.52634,-3.76922 -2.6863004,-1.88584 -2.9397204,-1.98368 -3.8903204,-1.50191 -1.16916,0.59254 -4.22794,3.62754 -4.22794,4.19507 0,0.20945 0.54957,0.91322 1.22127,1.56392 0.67171,0.6507 1.22128,1.34455 1.22128,1.54189 0,0.82607 -2.65448,3.12564 -4.70435,4.07537 l -2.20610998,1.02211 -1.97347002,-0.97718 -1.97348,-0.97718 -1.59362,0.85758 c -0.87648,0.47167 -3.17784,2.00248 -5.1141256,3.40178 -1.93629,1.3993 -4.90773,3.43063 -6.603204,4.51405 -3.850002,2.4602 -4.324601,3.18282 -3.111156,4.73706 0.59318,0.75977 0.810265,1.4442 0.649941,2.04912 -0.260728,0.98374 -2.878992,3.16634 -5.052719,4.21198 -1.316598,0.63332 -1.40921,0.624 -3.351006,-0.3375 -1.098346,-0.54386 -2.266656,-0.98883 -2.59625,-0.98883 -0.555215,0 -8.640303,4.9404 -14.938931,9.12845 -2.610263,1.7356 -2.687913,1.83453 -2.340428,2.98188 0.197673,0.65271 0.753058,1.46792 1.234192,1.8116 0.818896,0.58494 0.833342,0.68088 0.226171,1.50177 -0.929455,1.25662 -6.310167,5.00802 -7.183099,5.00802 -0.404577,0 -1.610765,-0.3666 -2.680422,-0.81467 -1.674448,-0.70141 -2.160162,-0.75358 -3.493675,-0.37524 -0.851866,0.24169 -2.060877,0.84548 -2.68669,1.34175 -0.625817,0.49626 -3.244543,2.16649 -5.819394,3.71161 -5.678702,3.4077 -8.54891,5.60797 -8.54891,6.55353 0,0.7328 0.754772,1.61774 1.953776,2.29073 0.605451,0.33983 0.455663,0.59483 -1.19385,2.03241 -1.037389,0.90409 -2.757586,2.3276 -3.822658,3.16335 l -1.936491,1.51955 -1.876615,-0.69268 c -3.109757,-1.14784 -4.312457,-1.18308 -6.031958,-0.17673 -1.455015,0.85157 -1.99412,1.45803 -9.780449,1.45803 h -9.38214 c 0,-1.27864 0,-2.55728 0,-3.83592 z"
       clip-path="url(#a)"
       fill="#da121a"
       id="path2" />
  </g>
</svg>
