<?xml version="1.0" encoding="UTF-8" standalone="no"?>
<!-- Created with Inkscape (http://www.inkscape.org/) -->

<svg
   id="svg2"
   version="1.1"
   inkscape:version="1.3.2 (091e20e, 2023-11-25, custom)"
   width="124.3913"
   height="29.404963"
   sodipodi:docname="fleet.svg"
   xml:space="preserve"
   xmlns:inkscape="http://www.inkscape.org/namespaces/inkscape"
   xmlns:sodipodi="http://sodipodi.sourceforge.net/DTD/sodipodi-0.dtd"
   xmlns="http://www.w3.org/2000/svg"
   xmlns:svg="http://www.w3.org/2000/svg"
   xmlns:rdf="http://www.w3.org/1999/02/22-rdf-syntax-ns#"
   xmlns:cc="http://creativecommons.org/ns#"
   xmlns:dc="http://purl.org/dc/elements/1.1/"><metadata
     id="metadata8"><rdf:RDF><cc:Work
         rdf:about=""><dc:format>image/svg+xml</dc:format><dc:type
           rdf:resource="http://purl.org/dc/dcmitype/StillImage" /></cc:Work></rdf:RDF></metadata><defs
     id="defs6"><inkscape:perspective
       sodipodi:type="inkscape:persp3d"
       inkscape:vp_x="0 : 0.5 : 1"
       inkscape:vp_y="0 : 1000 : 0"
       inkscape:vp_z="1 : 0.5 : 1"
       inkscape:persp3d-origin="0.5 : 0.33333333 : 1"
       id="perspective10" /></defs><sodipodi:namedview
     pagecolor="#ffffff"
     bordercolor="#666666"
     borderopacity="1"
     objecttolerance="10"
     gridtolerance="10"
     guidetolerance="10"
     inkscape:pageopacity="0"
     inkscape:pageshadow="2"
     inkscape:window-width="2560"
     inkscape:window-height="1369"
     id="namedview4"
     showgrid="false"
     inkscape:zoom="8"
     inkscape:cx="61.6875"
     inkscape:cy="14.8125"
     inkscape:window-x="2552"
     inkscape:window-y="-8"
     inkscape:window-maximized="1"
     inkscape:current-layer="svg2"
     fit-margin-top="0"
     fit-margin-left="0"
     fit-margin-right="0"
     fit-margin-bottom="0"
     inkscape:pagecheckerboard="0"
     inkscape:showpageshadow="2"
     inkscape:deskcolor="#d1d1d1" /><path
     id="shadow"
     style="fill:#000000;fill-opacity:0.5;stroke-width:0.199531"
     d="m 74.58858,14.625 c -0.095,10e-4 -0.19188,0.01342 -0.25781,0.07422 -0.0694,0.064 1.4e-4,0.218984 -0.0781,0.271484 -0.0517,0.0346 -0.12527,-0.02063 -0.1875,-0.01953 -0.10938,0.002 -0.22401,0.0035 -0.32422,0.04687 -0.0705,0.0309 -0.19462,0.07101 -0.17968,0.146484 0.0237,0.12003 0.27246,0.01209 0.35156,0.105469 0.0447,0.0527 0.0724,0.152698 0.0273,0.205078 -0.0648,0.0754 -0.19996,-0.0032 -0.29883,0.0078 -0.17705,0.0197 -0.36457,0.02488 -0.52344,0.105468 -0.0907,0.046 -0.25884,0.109319 -0.22461,0.205079 0.0283,0.0792 0.17075,-0.0085 0.25196,0.01367 0.0935,0.0252 0.18405,0.07 0.25781,0.132813 0.071,0.0605 0.20212,0.138609 0.16601,0.224609 -0.0303,0.0721 -0.15663,0.0141 -0.23242,0.0332 -0.14377,0.0361 -0.32642,0.03575 -0.41797,0.152344 -0.0371,0.0472 -0.0426,0.124268 -0.0195,0.179688 0.0521,0.12487 0.32739,0.116953 0.31836,0.251953 -0.0118,0.177 -0.31635,0.163414 -0.45703,0.271484 -0.10783,0.0828 -0.307028,0.149907 -0.292966,0.285156 0.0059,0.0573 0.09364,0.07075 0.146484,0.09375 0.09632,0.042 0.202052,0.05562 0.304692,0.07813 0.0987,0.0216 0.19973,0.03509 0.29882,0.05469 0.12205,0.0242 0.35933,-0.04617 0.36524,0.07813 0.006,0.11589 -0.23198,0.04864 -0.33203,0.107422 -0.16182,0.095 -0.26997,0.262265 -0.41211,0.384765 -0.062,0.0534 -0.215448,0.07415 -0.19141,0.152344 0.0352,0.1144 0.23796,0.01819 0.35742,0.02539 0.19214,0.0115 0.44889,-0.115286 0.57813,0.02734 0.0282,0.0311 0.01,0.08692 -0.008,0.125 -0.0588,0.12616 -0.20746,0.185587 -0.30469,0.285157 -0.0952,0.0974 -0.20135,0.187947 -0.27148,0.304687 -0.0558,0.0929 -0.18754,0.227681 -0.11329,0.306641 0.13124,0.13957 0.36897,-0.105626 0.55079,-0.166016 0.12275,-0.0408 0.24233,-0.173142 0.36523,-0.132812 0.0303,0.01 0.0537,0.04818 0.0527,0.08008 -0.004,0.13873 -0.17711,0.213188 -0.25195,0.330078 -0.0837,0.13073 -0.31189,0.287929 -0.21875,0.412109 0.0325,0.0433 0.10532,-0.0214 0.1582,-0.0332 0.19514,-0.0436 0.39856,-0.06383 0.58398,-0.138672 0.0928,-0.0375 0.16027,-0.176626 0.25782,-0.154297 0.0388,0.009 0.0656,0.05971 0.0664,0.09961 0.002,0.13983 -0.20946,0.219815 -0.21875,0.359375 -0.006,0.0819 0.0219,0.198019 0.0996,0.224609 0.14502,0.0496 0.27762,-0.13245 0.40429,-0.21875 0.21259,-0.14484 0.3893,-0.337464 0.5918,-0.496094 0.0947,-0.0742 0.17182,-0.19701 0.29101,-0.21289 0.0492,-0.007 0.11897,0.0067 0.13868,0.05273 0.0484,0.11188 -0.0698,0.237321 -0.13868,0.337891 -0.0677,0.09877 -0.14988,0.191345 -0.24218,0.269531 -0.16493,0.06449 -0.32677,0.134963 -0.48633,0.208984 -0.0907,0.01507 -0.18192,0.0291 -0.26758,0.05859 -0.19844,0.0683 -0.32487,0.167806 -0.42383,0.296875 -0.40023,0.232153 -0.70047,0.616815 -0.98242,0.984375 -0.55481,0.723277 -0.974312,1.547854 -1.35742,2.375 -0.167943,0.362597 -0.375433,0.728698 -0.408203,1.126953 -0.02991,0.363605 -0.09971,0.843769 0.01758,1.1875 -5.275391,0.67017 -9.983695,1.021202 -14.15625,1.146485 l 2.167969,-2.867188 c 0,0 0.707159,-0.492983 1.046874,-0.757812 0.495997,-0.38667 1.111647,-0.677848 1.445313,-1.210938 0.13523,-0.21606 0.09354,-0.504487 0.185547,-0.742187 0.06591,-0.17026 0.148846,-0.337422 0.259766,-0.482422 0.196737,-0.2572 0.69032,-0.344489 0.705078,-0.667969 0.02476,-0.542839 -0.533178,-1.245759 -1.076172,-1.224609 -0.247072,0.01 -0.293904,0.39827 -0.445313,0.59375 -0.290913,0.375589 -0.605834,0.733021 -0.890625,1.113281 -0.180976,0.24164 -0.269028,0.573698 -0.519531,0.742188 -0.09653,0.0649 -0.224725,0.06133 -0.339844,0.07812 -0.380251,0.0554 -0.766444,0.08982 -1.15039,0.07422 -0.424657,-0.0173 -0.87371,-0.0121 -1.261719,-0.185547 -0.391295,-0.174909 -0.669525,-0.537699 -0.988281,-0.824218 -0.04664,-0.0419 -0.08668,-0.0906 -0.134766,-0.13086 -0.242516,-0.20301 -0.568123,-0.310827 -0.769531,-0.554687 -0.09831,-0.11903 -0.217634,-0.267162 -0.195313,-0.419922 0.02033,-0.13905 0.189174,-0.206633 0.279297,-0.314453 0.03433,-0.041 0.08466,-0.07557 0.09961,-0.126953 0.02419,-0.0832 0.0067,-0.178123 -0.02734,-0.257813 -0.02279,-0.0534 -0.09396,-0.0775 -0.111328,-0.132812 -0.02062,-0.0657 -0.02214,-0.150279 0.01953,-0.205078 0.03726,-0.049 0.12145,-0.03111 0.171875,-0.06641 0.05517,-0.0387 0.135154,-0.08504 0.132812,-0.152343 -0.0042,-0.1187 -0.166655,-0.169304 -0.251953,-0.251954 -0.106681,-0.10336 -0.264183,-0.17078 -0.324219,-0.30664 -0.05896,-0.13344 0.02632,-0.29567 -0.0078,-0.4375 -0.03747,-0.15568 -0.108523,-0.306598 -0.210938,-0.429688 C 54.940031,16.975296 54.644696,16.88241 54.4421,16.6875 c -0.116657,-0.11224 -0.192715,-0.261996 -0.304687,-0.378906 -0.17113,-0.17869 -0.345469,-0.361305 -0.556641,-0.490235 -0.273576,-0.167029 -0.589483,-0.253122 -0.894531,-0.351562 -0.195386,-0.0631 -0.392405,-0.147664 -0.597657,-0.152344 -0.0299,-8.5e-4 -0.06207,-0.002 -0.09375,-0.002 -0.09505,0.001 -0.191879,0.01342 -0.257812,0.07422 -0.06939,0.064 1.35e-4,0.218984 -0.07813,0.271484 -0.05173,0.0346 -0.125274,-0.02063 -0.1875,-0.01953 -0.10938,0.002 -0.224009,0.0035 -0.324219,0.04687 -0.07051,0.0309 -0.194624,0.07101 -0.179687,0.146484 0.02372,0.12003 0.27246,0.01209 0.351562,0.105469 0.04466,0.0527 0.07238,0.152698 0.02734,0.205078 -0.06485,0.0754 -0.19996,-0.0032 -0.298828,0.0078 -0.17705,0.0197 -0.364571,0.02488 -0.523438,0.105468 -0.09068,0.046 -0.258841,0.109319 -0.224609,0.205079 0.0283,0.0792 0.17075,-0.0085 0.251953,0.01367 0.09353,0.0252 0.184057,0.07 0.257813,0.132813 0.07102,0.0605 0.202118,0.138609 0.166015,0.224609 -0.03026,0.0721 -0.156634,0.0141 -0.232422,0.0332 -0.143768,0.0361 -0.32642,0.03575 -0.417968,0.152344 -0.03709,0.0472 -0.04264,0.124268 -0.01953,0.179688 0.0521,0.12487 0.327385,0.116953 0.31836,0.251953 -0.01184,0.177 -0.316357,0.163414 -0.457031,0.271484 -0.107831,0.0828 -0.307031,0.149907 -0.292969,0.285156 0.0059,0.0573 0.09364,0.07075 0.146484,0.09375 0.09632,0.042 0.202051,0.05562 0.304688,0.07813 0.09868,0.0216 0.199734,0.03509 0.298828,0.05469 0.12205,0.0242 0.359331,-0.04617 0.365234,0.07813 0.0055,0.11589 -0.231975,0.04864 -0.332031,0.107422 -0.161816,0.095 -0.269971,0.262265 -0.41211,0.384765 -0.06197,0.0534 -0.215445,0.07415 -0.191406,0.152344 0.03518,0.1144 0.237964,0.01819 0.357422,0.02539 0.19214,0.0115 0.448886,-0.115286 0.578125,0.02734 0.02822,0.0311 0.0099,0.08692 -0.0078,0.125 -0.05876,0.12616 -0.207458,0.185587 -0.304688,0.285157 -0.09515,0.0974 -0.201349,0.187947 -0.271484,0.304687 -0.05582,0.0929 -0.187534,0.227681 -0.113281,0.306641 0.13124,0.13957 0.368966,-0.105626 0.550781,-0.166016 0.122751,-0.0408 0.242331,-0.173142 0.365234,-0.132812 0.0303,0.01 0.05372,0.04818 0.05273,0.08008 -0.0043,0.13873 -0.177113,0.213188 -0.251954,0.330078 -0.0837,0.13073 -0.31189,0.287929 -0.21875,0.412109 0.0325,0.0433 0.105326,-0.0214 0.158204,-0.0332 0.195143,-0.0436 0.398561,-0.06383 0.583984,-0.138672 0.0928,-0.0375 0.160263,-0.176626 0.257812,-0.154297 0.03883,0.009 0.06563,0.05971 0.06641,0.09961 0.0025,0.13983 -0.209452,0.219815 -0.21875,0.359375 -0.0055,0.0819 0.02192,0.198019 0.09961,0.224609 0.145024,0.0496 0.277621,-0.13245 0.404297,-0.21875 0.212585,-0.14484 0.389299,-0.337464 0.591797,-0.496094 0.09465,-0.0742 0.17182,-0.19701 0.291015,-0.21289 0.04923,-0.007 0.118961,0.0067 0.138672,0.05273 0.04838,0.11188 -0.06978,0.237321 -0.138672,0.337891 -0.105137,0.15347 -0.241645,0.294466 -0.404297,0.384765 -0.177775,0.0987 -0.39953,0.08614 -0.591796,0.152344 -0.251603,0.0866 -0.388186,0.22197 -0.498047,0.40625 -0.354038,0.59387 -0.386719,2.039063 -0.386719,2.039063 l -0.01367,0.0059 -0.220703,1.632813 -0.251953,2.363281 C 40.217971,27.121072 33.696072,25.667307 29.350303,25.810547 c -1.55659,0.0513 -0.317623,4.48914 1.001953,4.5625 19.897437,1.106079 29.285611,1.884359 60.330074,-1.335938 1.72556,-0.178999 3.10739,-7.030226 0.96485,-6.529297 -4.60942,1.077711 -8.86798,1.914784 -12.86328,2.591797 0.28809,-0.175283 0.57091,-0.367241 0.79882,-0.613281 0.22497,-0.242861 0.341,-0.567564 0.5293,-0.839844 0.25724,-0.371971 0.68181,-0.650882 0.81836,-1.082031 0.0667,-0.210775 0.10191,-0.481937 -0.0234,-0.664062 -0.0861,-0.125087 -0.26849,-0.164552 -0.41992,-0.175782 -0.32603,-0.02418 -0.68708,0.04684 -0.94922,0.242188 -0.27551,0.205305 -0.3168,0.61631 -0.53125,0.884765 -0.14632,0.183167 -0.30236,0.599237 -0.50781,0.486329 -0.36207,-0.198976 0.15102,-0.814294 0.24414,-1.216797 0.0979,-0.422966 0.29033,-0.827451 0.33008,-1.259766 0.0183,-0.198581 0.0558,-0.422481 -0.043,-0.595703 -0.1807,-0.3168 -0.52914,-0.559625 -0.88672,-0.650391 -0.001,-0.003 -0.002,-0.0071 -0.004,-0.0098 -0.0983,-0.11903 -0.21764,-0.267162 -0.19531,-0.419922 0.0203,-0.13905 0.18917,-0.206633 0.27929,-0.314453 0.0343,-0.041 0.0847,-0.07557 0.0996,-0.126953 0.0242,-0.0832 0.007,-0.178123 -0.0273,-0.257813 -0.0228,-0.0534 -0.094,-0.0775 -0.11133,-0.132812 -0.0206,-0.0657 -0.0221,-0.150279 0.0195,-0.205078 0.0373,-0.049 0.12145,-0.03111 0.17188,-0.06641 0.0552,-0.0387 -0.0338,-0.321647 -0.11914,-0.404297 -0.10668,-0.10336 -0.26418,-0.17078 -0.32422,-0.30664 -0.059,-0.13344 0.0263,-0.29567 -0.008,-0.4375 -0.0375,-0.15568 -0.10852,-0.306598 -0.21094,-0.429688 C 77.53349,16.287796 77.23816,16.19491 77.03556,16 76.9189,15.88776 76.84284,15.738004 76.73087,15.621094 76.55974,15.442404 76.3854,15.259789 76.17423,15.130859 75.90066,14.96383 75.58475,14.877737 75.2797,14.779297 c -0.19539,-0.0631 -0.3924,-0.147664 -0.59766,-0.152344 -0.0299,-8.5e-4 -0.0621,-0.002 -0.0937,-0.002 z m -18.003902,9.328125 2.449219,0.408203 -2.523437,2.998047 c -0.05985,0.001 -0.120057,0.0029 -0.179688,0.0039 z m 16.666012,0.59375 c 0.0584,-0.0052 0.11681,0.002 0.16602,0.02734 0.0999,0.05155 0.15142,0.177347 0.17578,0.287109 0.0418,0.1882 -0.0385,0.383193 -0.0644,0.574219 -0.0217,0.160214 -0.13715,0.347181 -0.16016,0.505859 -0.28672,0.03973 -0.59161,0.0911 -0.874996,0.128906 0.0067,-0.01943 0.01241,-0.03913 0.01758,-0.05859 0.05483,-0.206449 -0.06708,-0.439781 0,-0.642578 0.100856,-0.3049 0.292266,-0.619689 0.574216,-0.773438 0.0486,-0.02651 0.10761,-0.04358 0.16602,-0.04883 z m 4.39258,0.169922 c 0.0436,-0.0036 0.0874,-5.36e-4 0.12695,0.01172 0.11124,0.03449 0.18206,0.171919 0.19922,0.287109 0.0113,0.07618 -0.0383,0.160159 -0.0918,0.240234 -0.18844,0.031 -0.3871,0.06942 -0.57422,0.09961 5.3e-4,-0.0025 10e-4,-0.0053 0.002,-0.0078 0.0303,-0.144161 -0.0836,-0.320107 0,-0.441406 0.0705,-0.102223 0.20717,-0.178573 0.3379,-0.189453 z" /><path
     id="hull"
     style="fill:#060707;stroke-width:0.160383;stroke-linejoin:bevel"
     d="m 76.257812,15.625 c -0.09505,10e-4 -0.191879,0.01342 -0.257812,0.07422 -0.06939,0.064 1.35e-4,0.218984 -0.07813,0.271484 -0.05173,0.0346 -0.125274,-0.02063 -0.1875,-0.01953 -0.10938,0.002 -0.224009,0.0035 -0.324219,0.04687 -0.07051,0.0309 -0.194624,0.07101 -0.179687,0.146484 0.02372,0.12003 0.27246,0.01209 0.351562,0.105469 0.04466,0.0527 0.07238,0.152698 0.02734,0.205078 -0.06485,0.0754 -0.19996,-0.0032 -0.298828,0.0078 -0.17705,0.0197 -0.364571,0.02488 -0.523438,0.105468 -0.09068,0.046 -0.258841,0.109319 -0.224609,0.205079 0.0283,0.0792 0.17075,-0.0085 0.251953,0.01367 0.09353,0.0252 0.184057,0.07 0.257813,0.132813 0.07102,0.0605 0.202118,0.138609 0.166015,0.224609 -0.03026,0.0721 -0.156634,0.0141 -0.232422,0.0332 -0.143768,0.0361 -0.32642,0.03575 -0.417968,0.152344 -0.03709,0.0472 -0.04264,0.124268 -0.01953,0.179688 0.0521,0.12487 0.327385,0.116953 0.31836,0.251953 -0.01184,0.177 -0.316357,0.163414 -0.457031,0.271484 -0.107831,0.0828 -0.307031,0.149907 -0.292969,0.285156 0.0059,0.0573 0.09364,0.07075 0.146484,0.09375 0.09632,0.042 0.202051,0.05562 0.304688,0.07813 0.09868,0.0216 0.199734,0.03509 0.298828,0.05469 0.12205,0.0242 0.359331,-0.04617 0.365234,0.07813 0.0055,0.11589 -0.231975,0.04864 -0.332031,0.107422 -0.161816,0.095 -0.269971,0.262265 -0.41211,0.384765 -0.06197,0.0534 -0.215445,0.07415 -0.191406,0.152344 0.03518,0.1144 0.237964,0.01819 0.357422,0.02539 0.19214,0.0115 0.448886,-0.115286 0.578125,0.02734 0.02822,0.0311 0.0099,0.08692 -0.0078,0.125 -0.05876,0.12616 -0.207458,0.185587 -0.304688,0.285157 -0.09515,0.0974 -0.201349,0.187947 -0.271484,0.304687 -0.05582,0.0929 -0.187534,0.227681 -0.113281,0.306641 0.13124,0.13957 0.368966,-0.105626 0.550781,-0.166016 0.122751,-0.0408 0.242331,-0.173142 0.365234,-0.132812 0.0303,0.01 0.05372,0.04818 0.05273,0.08008 -0.0043,0.13873 -0.177113,0.213188 -0.251954,0.330078 -0.0837,0.13073 -0.31189,0.287929 -0.21875,0.412109 0.0325,0.0433 0.105326,-0.0214 0.158204,-0.0332 0.195143,-0.0436 0.398561,-0.06383 0.583984,-0.138672 0.0928,-0.0375 0.160263,-0.176626 0.257812,-0.154297 0.03883,0.009 0.06563,0.05971 0.06641,0.09961 0.0025,0.13983 -0.209452,0.219815 -0.21875,0.359375 -0.0055,0.0819 0.02192,0.198019 0.09961,0.224609 0.145024,0.0496 0.277621,-0.13245 0.404297,-0.21875 0.212585,-0.14484 0.389299,-0.337464 0.591797,-0.496094 0.09465,-0.0742 0.17182,-0.19701 0.291015,-0.21289 0.04923,-0.007 0.118961,0.0067 0.138672,0.05273 0.04838,0.11188 -0.06978,0.237321 -0.138672,0.337891 -0.06766,0.09877 -0.149886,0.191345 -0.242187,0.269531 -0.16493,0.06449 -0.326769,0.134963 -0.486328,0.208984 -0.09068,0.01507 -0.181916,0.0291 -0.267578,0.05859 -0.198443,0.0683 -0.32487,0.167806 -0.423828,0.296875 -0.400231,0.232153 -0.700473,0.616815 -0.982422,0.984375 -0.554812,0.723277 -0.974314,1.547854 -1.357422,2.375 -0.167943,0.362597 -0.375433,0.728698 -0.408203,1.126953 -0.02991,0.363605 -0.09971,0.843769 0.01758,1.1875 -5.275391,0.67017 -9.983695,1.021202 -14.15625,1.146485 l 2.167969,-2.867188 c 0,0 0.707159,-0.492983 1.046874,-0.757812 0.495997,-0.38667 1.111647,-0.677848 1.445313,-1.210938 0.13523,-0.21606 0.09354,-0.504487 0.185547,-0.742187 0.06591,-0.17026 0.148846,-0.337422 0.259766,-0.482422 0.196737,-0.2572 0.69032,-0.344489 0.705078,-0.667969 0.02476,-0.542839 -0.533178,-1.245759 -1.076172,-1.224609 -0.247072,0.01 -0.293904,0.39827 -0.445313,0.59375 -0.290913,0.375589 -0.605834,0.733021 -0.890625,1.113281 -0.180976,0.24164 -0.269028,0.573698 -0.519531,0.742188 -0.09653,0.0649 -0.224725,0.06133 -0.339844,0.07812 -0.380251,0.0554 -0.766444,0.08982 -1.15039,0.07422 -0.424657,-0.0173 -0.87371,-0.0121 -1.261719,-0.185547 -0.391295,-0.174909 -0.669525,-0.537699 -0.988281,-0.824218 -0.04664,-0.0419 -0.08668,-0.0906 -0.134766,-0.13086 -0.242516,-0.20301 -0.568123,-0.310827 -0.769531,-0.554687 -0.09831,-0.11903 -0.217634,-0.267162 -0.195313,-0.419922 0.02033,-0.13905 0.189174,-0.206633 0.279297,-0.314453 0.03433,-0.041 0.08466,-0.07557 0.09961,-0.126953 0.02419,-0.0832 0.0067,-0.178123 -0.02734,-0.257813 -0.02279,-0.0534 -0.09396,-0.0775 -0.111328,-0.132812 -0.02062,-0.0657 -0.02214,-0.150279 0.01953,-0.205078 0.03726,-0.049 0.12145,-0.03111 0.171875,-0.06641 0.05517,-0.0387 0.135154,-0.08504 0.132812,-0.152343 -0.0042,-0.1187 -0.166655,-0.169304 -0.251953,-0.251954 -0.106681,-0.10336 -0.264183,-0.17078 -0.324219,-0.30664 -0.05896,-0.13344 0.02632,-0.29567 -0.0078,-0.4375 -0.03747,-0.15568 -0.108523,-0.306598 -0.210938,-0.429688 C 56.609259,17.975296 56.313924,17.88241 56.111328,17.6875 55.994671,17.57526 55.918613,17.425504 55.806641,17.308594 55.635511,17.129904 55.461172,16.947289 55.25,16.818359 54.976424,16.65133 54.660517,16.565237 54.355469,16.466797 c -0.195386,-0.0631 -0.392405,-0.147664 -0.597657,-0.152344 -0.0299,-8.5e-4 -0.06207,-0.002 -0.09375,-0.002 -0.09505,0.001 -0.191879,0.01342 -0.257812,0.07422 -0.06939,0.064 1.35e-4,0.218984 -0.07813,0.271484 -0.05173,0.0346 -0.125274,-0.02063 -0.1875,-0.01953 -0.10938,0.002 -0.224009,0.0035 -0.324219,0.04687 -0.07051,0.0309 -0.194624,0.07101 -0.179687,0.146484 0.02372,0.12003 0.27246,0.01209 0.351562,0.105469 0.04466,0.0527 0.07238,0.152698 0.02734,0.205078 -0.06485,0.0754 -0.19996,-0.0032 -0.298828,0.0078 -0.17705,0.0197 -0.364571,0.02488 -0.523438,0.105468 -0.09068,0.046 -0.258841,0.109319 -0.224609,0.205079 0.0283,0.0792 0.17075,-0.0085 0.251953,0.01367 0.09353,0.0252 0.184057,0.07 0.257813,0.132813 0.07102,0.0605 0.202118,0.138609 0.166015,0.224609 -0.03026,0.0721 -0.156634,0.0141 -0.232422,0.0332 -0.143768,0.0361 -0.32642,0.03575 -0.417968,0.152344 -0.03709,0.0472 -0.04264,0.124268 -0.01953,0.179688 0.0521,0.12487 0.327385,0.116953 0.31836,0.251953 -0.01184,0.177 -0.316357,0.163414 -0.457031,0.271484 -0.107831,0.0828 -0.307031,0.149907 -0.292969,0.285156 0.0059,0.0573 0.09364,0.07075 0.146484,0.09375 0.09632,0.042 0.202051,0.05562 0.304688,0.07813 0.09868,0.0216 0.199734,0.03509 0.298828,0.05469 0.12205,0.0242 0.359331,-0.04617 0.365234,0.07813 0.0055,0.11589 -0.231975,0.04864 -0.332031,0.107422 -0.161816,0.095 -0.269971,0.262265 -0.41211,0.384765 -0.06197,0.0534 -0.215445,0.07415 -0.191406,0.152344 0.03518,0.1144 0.237964,0.01819 0.357422,0.02539 0.19214,0.0115 0.448886,-0.115286 0.578125,0.02734 0.02822,0.0311 0.0099,0.08692 -0.0078,0.125 -0.05876,0.12616 -0.207458,0.185587 -0.304688,0.285157 -0.09515,0.0974 -0.201349,0.187947 -0.271484,0.304687 -0.05582,0.0929 -0.187534,0.227681 -0.113281,0.306641 0.13124,0.13957 0.368966,-0.105626 0.550781,-0.166016 0.122751,-0.0408 0.242331,-0.173142 0.365234,-0.132812 0.0303,0.01 0.05372,0.04818 0.05273,0.08008 -0.0043,0.13873 -0.177113,0.213188 -0.251954,0.330078 -0.0837,0.13073 -0.31189,0.287929 -0.21875,0.412109 0.0325,0.0433 0.105326,-0.0214 0.158204,-0.0332 0.195143,-0.0436 0.398561,-0.06383 0.583984,-0.138672 0.0928,-0.0375 0.160263,-0.176626 0.257812,-0.154297 0.03883,0.009 0.06563,0.05971 0.06641,0.09961 0.0025,0.13983 -0.209452,0.219815 -0.21875,0.359375 -0.0055,0.0819 0.02192,0.198019 0.09961,0.224609 0.145024,0.0496 0.277621,-0.13245 0.404297,-0.21875 0.212585,-0.14484 0.389299,-0.337464 0.591797,-0.496094 0.09465,-0.0742 0.17182,-0.19701 0.291015,-0.21289 0.04923,-0.007 0.118961,0.0067 0.138672,0.05273 0.04838,0.11188 -0.06978,0.237321 -0.138672,0.337891 -0.105137,0.15347 -0.241645,0.294466 -0.404297,0.384765 -0.177775,0.0987 -0.39953,0.08614 -0.591796,0.152344 -0.251603,0.0866 -0.388186,0.22197 -0.498047,0.40625 -0.354038,0.59387 -0.386719,2.039063 -0.386719,2.039063 l -0.01367,0.0059 -0.220703,1.632813 -0.251953,2.363281 C 41.887199,28.121072 35.3653,26.667307 31.019531,26.810547 c -1.55659,0.0513 -0.317623,4.48914 1.001953,4.5625 19.897437,1.106079 29.285611,1.884359 60.330078,-1.335938 1.725554,-0.178999 3.107385,-7.030226 0.964844,-6.529297 -4.609421,1.077711 -8.867973,1.914784 -12.863281,2.591797 0.28809,-0.175283 0.570914,-0.367241 0.798828,-0.613281 0.224968,-0.242861 0.341,-0.567564 0.529297,-0.839844 0.25724,-0.371971 0.68181,-0.650882 0.818359,-1.082031 0.06675,-0.210775 0.101912,-0.481937 -0.02344,-0.664062 -0.08609,-0.125087 -0.26849,-0.164552 -0.419922,-0.175782 -0.326028,-0.02418 -0.687075,0.04684 -0.949219,0.242188 -0.275509,0.205305 -0.316803,0.61631 -0.53125,0.884765 -0.146317,0.183167 -0.30236,0.599237 -0.507812,0.486329 -0.362064,-0.198976 0.15102,-0.814294 0.24414,-1.216797 0.09786,-0.422966 0.290329,-0.827451 0.330079,-1.259766 0.01826,-0.198581 0.05583,-0.422481 -0.04297,-0.595703 -0.180698,-0.3168 -0.529136,-0.559625 -0.886719,-0.650391 -0.0011,-0.003 -0.0017,-0.0071 -0.0039,-0.0098 -0.09831,-0.11903 -0.217634,-0.267162 -0.195313,-0.419922 0.02033,-0.13905 0.189174,-0.206633 0.279297,-0.314453 0.03433,-0.041 0.08466,-0.07557 0.09961,-0.126953 0.02419,-0.0832 0.0067,-0.178123 -0.02734,-0.257813 -0.02279,-0.0534 -0.09396,-0.0775 -0.111328,-0.132812 -0.02062,-0.0657 -0.02214,-0.150279 0.01953,-0.205078 0.03726,-0.049 0.12145,-0.03111 0.171875,-0.06641 0.05517,-0.0387 -0.03384,-0.321647 -0.119141,-0.404297 -0.106681,-0.10336 -0.264183,-0.17078 -0.324219,-0.30664 -0.05896,-0.13344 0.02632,-0.29567 -0.0078,-0.4375 -0.03747,-0.15568 -0.108523,-0.306598 -0.210938,-0.429688 C 79.203009,17.287796 78.907674,17.19491 78.705078,17 c -0.116657,-0.11224 -0.192715,-0.261996 -0.304687,-0.378906 -0.17113,-0.17869 -0.345469,-0.361305 -0.556641,-0.490235 -0.273576,-0.167029 -0.589483,-0.253122 -0.894531,-0.351562 -0.195386,-0.0631 -0.392405,-0.147664 -0.597657,-0.152344 -0.0299,-8.5e-4 -0.06207,-0.002 -0.09375,-0.002 z m -18.003906,9.328125 2.449219,0.408203 -2.523437,2.998047 c -0.05985,0.001 -0.120057,0.0029 -0.179688,0.0039 z m 16.666016,0.59375 c 0.05841,-0.0052 0.116811,0.002 0.166016,0.02734 0.09992,0.05155 0.151421,0.177347 0.175781,0.287109 0.04177,0.1882 -0.03852,0.383193 -0.06445,0.574219 -0.02175,0.160214 -0.137149,0.347181 -0.160157,0.505859 -0.286729,0.03973 -0.591613,0.0911 -0.875,0.128906 0.0067,-0.01943 0.01241,-0.03913 0.01758,-0.05859 0.05483,-0.206449 -0.06708,-0.439781 0,-0.642578 0.100856,-0.3049 0.292267,-0.619689 0.574218,-0.773438 0.04861,-0.02651 0.107605,-0.04358 0.166016,-0.04883 z m 4.392578,0.169922 c 0.04358,-0.0036 0.08743,-5.36e-4 0.126953,0.01172 0.111233,0.03449 0.182059,0.171919 0.199219,0.287109 0.01135,0.07618 -0.03831,0.160159 -0.0918,0.240234 -0.18844,0.031 -0.387108,0.06942 -0.574219,0.09961 5.28e-4,-0.0025 0.0014,-0.0053 0.002,-0.0078 0.03031,-0.144161 -0.08359,-0.320107 0,-0.441406 0.07045,-0.102223 0.207162,-0.178573 0.337891,-0.189453 z" /></svg>
