<?xml version="1.0" encoding="UTF-8" standalone="no"?>
<!-- Created with Inkscape (http://www.inkscape.org/) -->

<svg
   id="svg2"
   version="1.1"
   inkscape:version="1.3.2 (091e20e, 2023-11-25, custom)"
   width="124.3913"
   height="29.404963"
   sodipodi:docname="fleet.svg"
   xml:space="preserve"
   xmlns:inkscape="http://www.inkscape.org/namespaces/inkscape"
   xmlns:sodipodi="http://sodipodi.sourceforge.net/DTD/sodipodi-0.dtd"
   xmlns="http://www.w3.org/2000/svg"
   xmlns:svg="http://www.w3.org/2000/svg"
   xmlns:rdf="http://www.w3.org/1999/02/22-rdf-syntax-ns#"
   xmlns:cc="http://creativecommons.org/ns#"
   xmlns:dc="http://purl.org/dc/elements/1.1/"><metadata
     id="metadata8"><rdf:RDF><cc:Work
         rdf:about=""><dc:format>image/svg+xml</dc:format><dc:type
           rdf:resource="http://purl.org/dc/dcmitype/StillImage" /></cc:Work></rdf:RDF></metadata><defs
     id="defs6"><inkscape:perspective
       sodipodi:type="inkscape:persp3d"
       inkscape:vp_x="0 : 0.5 : 1"
       inkscape:vp_y="0 : 1000 : 0"
       inkscape:vp_z="1 : 0.5 : 1"
       inkscape:persp3d-origin="0.5 : 0.33333333 : 1"
       id="perspective10" /></defs><sodipodi:namedview
     pagecolor="#ffffff"
     bordercolor="#666666"
     borderopacity="1"
     objecttolerance="10"
     gridtolerance="10"
     guidetolerance="10"
     inkscape:pageopacity="0"
     inkscape:pageshadow="2"
     inkscape:window-width="2560"
     inkscape:window-height="1369"
     id="namedview4"
     showgrid="false"
     inkscape:zoom="8"
     inkscape:cx="61.75"
     inkscape:cy="14.8125"
     inkscape:window-x="-8"
     inkscape:window-y="-8"
     inkscape:window-maximized="1"
     inkscape:current-layer="svg2"
     fit-margin-top="0"
     fit-margin-left="0"
     fit-margin-right="0"
     fit-margin-bottom="0"
     inkscape:pagecheckerboard="0"
     inkscape:showpageshadow="2"
     inkscape:deskcolor="#d1d1d1" /><path
     id="shadow"
     style="fill:#000000;fill-opacity:0.5;stroke-width:0.199531"
     d="m 46.83858,8.625 c -0.095,10e-4 -0.19188,0.01342 -0.25781,0.07422 -0.0694,0.064 1.4e-4,0.218984 -0.0781,0.271484 -0.0517,0.0346 -0.12527,-0.02063 -0.1875,-0.01953 -0.10938,0.002 -0.22401,0.0035 -0.32422,0.04687 -0.0705,0.0309 -0.19462,0.07101 -0.17968,0.146484 0.0237,0.12003 0.27246,0.01209 0.35156,0.105469 0.0447,0.0527 0.0724,0.152698 0.0273,0.205078 -0.0648,0.0754 -0.19996,-0.0032 -0.29883,0.0078 -0.17705,0.0197 -0.36457,0.02488 -0.52344,0.105468 -0.0907,0.046 -0.25884,0.109319 -0.22461,0.205079 0.0283,0.0792 0.17075,-0.0085 0.25196,0.01367 0.0935,0.0252 0.18405,0.07 0.25781,0.132813 0.071,0.0605 0.20212,0.138609 0.16601,0.224609 -0.0303,0.0721 -0.15663,0.0141 -0.23242,0.0332 -0.14377,0.0361 -0.32642,0.03575 -0.41797,0.152344 -0.0371,0.0472 -0.0426,0.124268 -0.0195,0.179688 0.0521,0.12487 0.32739,0.116953 0.31836,0.251953 -0.0118,0.177 -0.31635,0.163414 -0.45703,0.271484 -0.10783,0.0828 -0.307028,0.149907 -0.292966,0.285156 0.0059,0.0573 0.09364,0.07075 0.146484,0.09375 0.09632,0.042 0.202052,0.05562 0.304692,0.07813 0.0987,0.0216 0.19973,0.03509 0.29882,0.05469 0.12205,0.0242 0.35933,-0.04617 0.36524,0.07813 0.006,0.11589 -0.23198,0.04864 -0.33203,0.107422 -0.16182,0.095 -0.26997,0.262265 -0.41211,0.384765 -0.062,0.0534 -0.215448,0.07415 -0.19141,0.152344 0.0352,0.1144 0.23796,0.01819 0.35742,0.02539 0.19214,0.0115 0.44889,-0.115286 0.57813,0.02734 0.0282,0.0311 0.01,0.08692 -0.008,0.125 -0.0588,0.12616 -0.20746,0.185587 -0.30469,0.285157 -0.0952,0.0974 -0.20135,0.187947 -0.27148,0.304687 -0.0558,0.0929 -0.18754,0.227681 -0.11329,0.306641 0.13124,0.13957 0.36897,-0.105626 0.55079,-0.166016 0.12275,-0.0408 0.24233,-0.173142 0.36523,-0.132812 0.0303,0.01 0.0537,0.04818 0.0527,0.08008 -0.004,0.13873 -0.17711,0.213188 -0.25195,0.330078 -0.0837,0.13073 -0.31189,0.287929 -0.21875,0.412109 0.0325,0.0433 0.10532,-0.0214 0.1582,-0.0332 0.19514,-0.0436 0.39856,-0.06383 0.58398,-0.138672 0.0928,-0.0375 0.16027,-0.176626 0.25782,-0.154297 0.0388,0.009 0.0656,0.05971 0.0664,0.09961 0.002,0.13983 -0.20946,0.219815 -0.21875,0.359375 -0.006,0.0819 0.0219,0.198019 0.0996,0.224609 0.14502,0.0496 0.27762,-0.13245 0.40429,-0.21875 0.21259,-0.14484 0.3893,-0.337464 0.5918,-0.496094 0.0947,-0.0742 0.17182,-0.19701 0.29101,-0.21289 0.0492,-0.007 0.11897,0.0067 0.13868,0.05273 0.0484,0.11188 -0.0698,0.237321 -0.13868,0.337891 -0.0677,0.09877 -0.14988,0.191345 -0.24218,0.269531 -0.16493,0.06449 -0.32677,0.134963 -0.48633,0.208984 -0.0907,0.01507 -0.18192,0.0291 -0.26758,0.05859 -0.19844,0.0683 -0.32487,0.167806 -0.42383,0.296875 -0.40023,0.232153 -0.70047,0.616815 -0.98242,0.984375 -0.55481,0.723277 -0.974312,1.547854 -1.35742,2.375 -0.167943,0.362597 -0.375433,0.728698 -0.408203,1.126953 -0.02991,0.363605 -0.09971,0.843769 0.01758,1.1875 -5.275391,0.67017 -9.983695,1.021202 -14.15625,1.146485 l 2.167969,-2.867188 c 0,0 0.707159,-0.492983 1.046874,-0.757812 0.495997,-0.38667 1.111647,-0.677848 1.445313,-1.210938 0.13523,-0.21606 0.09354,-0.504487 0.185547,-0.742187 0.06591,-0.17026 0.148846,-0.337422 0.259766,-0.482422 0.196737,-0.2572 0.69032,-0.344489 0.705078,-0.667969 0.02476,-0.542839 -0.533178,-1.245759 -1.076172,-1.224609 -0.247072,0.01 -0.293904,0.39827 -0.445313,0.59375 -0.290913,0.375589 -0.605834,0.733021 -0.890625,1.113281 -0.180976,0.24164 -0.269028,0.573698 -0.519531,0.742188 -0.09653,0.0649 -0.224725,0.06133 -0.339844,0.07812 -0.380251,0.0554 -0.766444,0.08982 -1.15039,0.07422 -0.424657,-0.0173 -0.87371,-0.0121 -1.261719,-0.185547 -0.391295,-0.174909 -0.669525,-0.537699 -0.988281,-0.824218 -0.04664,-0.0419 -0.08668,-0.0906 -0.134766,-0.13086 -0.242516,-0.20301 -0.568123,-0.310827 -0.769531,-0.554687 -0.09831,-0.11903 -0.217634,-0.267162 -0.195313,-0.419922 0.02033,-0.13905 0.189174,-0.206633 0.279297,-0.314453 0.03433,-0.041 0.08466,-0.07557 0.09961,-0.126953 0.02419,-0.0832 0.0067,-0.178123 -0.02734,-0.257813 -0.02279,-0.0534 -0.09396,-0.0775 -0.111328,-0.132812 -0.02062,-0.0657 -0.02214,-0.150279 0.01953,-0.205078 0.03726,-0.049 0.12145,-0.03111 0.171875,-0.06641 0.05517,-0.0387 0.135154,-0.08504 0.132812,-0.152343 -0.0042,-0.1187 -0.166655,-0.169304 -0.251953,-0.251954 -0.106681,-0.10336 -0.264183,-0.17078 -0.324219,-0.30664 -0.05896,-0.13344 0.02632,-0.29567 -0.0078,-0.4375 -0.03747,-0.15568 -0.108523,-0.306598 -0.210938,-0.429688 C 27.190031,10.975296 26.894696,10.88241 26.6921,10.6875 26.575443,10.57526 26.499385,10.425504 26.387413,10.308594 26.216283,10.129904 26.041944,9.947289 25.830772,9.818359 25.557196,9.65133 25.241289,9.565237 24.936241,9.466797 24.740855,9.403697 24.543836,9.319133 24.338584,9.314453 c -0.0299,-8.5e-4 -0.06207,-0.002 -0.09375,-0.002 -0.09505,0.001 -0.191879,0.01342 -0.257812,0.07422 -0.06939,0.064 1.35e-4,0.218984 -0.07813,0.271484 -0.05173,0.0346 -0.125274,-0.02063 -0.1875,-0.01953 -0.10938,0.002 -0.224009,0.0035 -0.324219,0.04687 -0.07051,0.0309 -0.194624,0.07101 -0.179687,0.146484 0.02372,0.12003 0.27246,0.01209 0.351562,0.105469 0.04466,0.0527 0.07238,0.152698 0.02734,0.205078 -0.06485,0.0754 -0.19996,-0.0032 -0.298828,0.0078 -0.17705,0.0197 -0.364571,0.02488 -0.523438,0.105468 -0.09068,0.046 -0.258841,0.109319 -0.224609,0.205079 0.0283,0.0792 0.17075,-0.0085 0.251953,0.01367 0.09353,0.0252 0.184057,0.07 0.257813,0.132813 0.07102,0.0605 0.202118,0.138609 0.166015,0.224609 -0.03026,0.0721 -0.156634,0.0141 -0.232422,0.0332 -0.143768,0.0361 -0.32642,0.03575 -0.417968,0.152344 -0.03709,0.0472 -0.04264,0.124268 -0.01953,0.179688 0.0521,0.12487 0.327385,0.116953 0.31836,0.251953 -0.01184,0.177 -0.316357,0.163414 -0.457031,0.271484 -0.107831,0.0828 -0.307031,0.149907 -0.292969,0.285156 0.0059,0.0573 0.09364,0.07075 0.146484,0.09375 0.09632,0.042 0.202051,0.05562 0.304688,0.07813 0.09868,0.0216 0.199734,0.03509 0.298828,0.05469 0.12205,0.0242 0.359331,-0.04617 0.365234,0.07813 0.0055,0.11589 -0.231975,0.04864 -0.332031,0.107422 -0.161816,0.095 -0.269971,0.262265 -0.41211,0.384765 -0.06197,0.0534 -0.215445,0.07415 -0.191406,0.152344 0.03518,0.1144 0.237964,0.01819 0.357422,0.02539 0.19214,0.0115 0.448886,-0.115286 0.578125,0.02734 0.02822,0.0311 0.0099,0.08692 -0.0078,0.125 -0.05876,0.12616 -0.207458,0.185587 -0.304688,0.285157 -0.09515,0.0974 -0.201349,0.187947 -0.271484,0.304687 -0.05582,0.0929 -0.187534,0.227681 -0.113281,0.306641 0.13124,0.13957 0.368966,-0.105626 0.550781,-0.166016 0.122751,-0.0408 0.242331,-0.173142 0.365234,-0.132812 0.0303,0.01 0.05372,0.04818 0.05273,0.08008 -0.0043,0.13873 -0.177113,0.213188 -0.251954,0.330078 -0.0837,0.13073 -0.31189,0.287929 -0.21875,0.412109 0.0325,0.0433 0.105326,-0.0214 0.158204,-0.0332 0.195143,-0.0436 0.398561,-0.06383 0.583984,-0.138672 0.0928,-0.0375 0.160263,-0.176626 0.257812,-0.154297 0.03883,0.009 0.06563,0.05971 0.06641,0.09961 0.0025,0.13983 -0.209452,0.219815 -0.21875,0.359375 -0.0055,0.0819 0.02192,0.198019 0.09961,0.224609 0.145024,0.0496 0.277621,-0.13245 0.404297,-0.21875 0.212585,-0.14484 0.389299,-0.337464 0.591797,-0.496094 0.09465,-0.0742 0.17182,-0.19701 0.291015,-0.21289 0.04923,-0.007 0.118961,0.0067 0.138672,0.05273 0.04838,0.11188 -0.06978,0.237321 -0.138672,0.337891 -0.105137,0.15347 -0.241645,0.294466 -0.404297,0.384765 -0.177775,0.0987 -0.39953,0.08614 -0.591796,0.152344 -0.251603,0.0866 -0.388186,0.22197 -0.498047,0.40625 -0.354038,0.59387 -0.386719,2.039063 -0.386719,2.039063 l -0.01367,0.0059 -0.220703,1.632813 -0.251953,2.363281 C 12.467971,21.121072 5.946072,19.667307 1.600303,19.810547 c -1.55659,0.0513 -0.317623,4.48914 1.001953,4.5625 19.897437,1.106079 29.285611,1.884359 60.330074,-1.335938 1.72556,-0.178999 3.10739,-7.030226 0.96485,-6.529297 -4.60942,1.077711 -8.86798,1.914784 -12.86328,2.591797 0.28809,-0.175283 0.57091,-0.367241 0.79882,-0.613281 0.22497,-0.242861 0.341,-0.567564 0.5293,-0.839844 0.25724,-0.371971 0.68181,-0.650882 0.81836,-1.082031 0.0667,-0.210775 0.10191,-0.481937 -0.0234,-0.664062 -0.0861,-0.125087 -0.26849,-0.164552 -0.41992,-0.175782 -0.32603,-0.02418 -0.68708,0.04684 -0.94922,0.242188 -0.27551,0.205305 -0.3168,0.61631 -0.53125,0.884765 -0.14632,0.183167 -0.30236,0.599237 -0.50781,0.486329 -0.36207,-0.198976 0.15102,-0.814294 0.24414,-1.216797 0.0979,-0.422966 0.29033,-0.827451 0.33008,-1.259766 0.0183,-0.198581 0.0558,-0.422481 -0.043,-0.595703 -0.1807,-0.3168 -0.52914,-0.559625 -0.88672,-0.650391 -10e-4,-0.003 -0.002,-0.0071 -0.004,-0.0098 -0.0983,-0.11903 -0.21764,-0.267162 -0.19531,-0.419922 0.0203,-0.13905 0.18917,-0.206633 0.27929,-0.314453 0.0343,-0.041 0.0847,-0.07557 0.0996,-0.126953 0.0242,-0.0832 0.007,-0.178123 -0.0273,-0.257813 -0.0228,-0.0534 -0.094,-0.0775 -0.11133,-0.132812 -0.0206,-0.0657 -0.0221,-0.150279 0.0195,-0.205078 0.0373,-0.049 0.12145,-0.03111 0.17188,-0.06641 0.0552,-0.0387 -0.0338,-0.321647 -0.11914,-0.404297 -0.10668,-0.10336 -0.26418,-0.17078 -0.32422,-0.30664 -0.059,-0.13344 0.0263,-0.29567 -0.008,-0.4375 -0.0375,-0.15568 -0.10852,-0.306598 -0.21094,-0.429688 C 49.78349,10.287796 49.48816,10.19491 49.28556,10 49.1689,9.88776 49.09284,9.738004 48.98087,9.621094 48.80974,9.442404 48.6354,9.259789 48.42423,9.130859 48.15066,8.96383 47.83475,8.877737 47.5297,8.779297 47.33431,8.716197 47.1373,8.631633 46.93204,8.626953 c -0.0299,-8.5e-4 -0.0621,-0.002 -0.0937,-0.002 z m -18.003902,9.328125 2.449219,0.408203 -2.523437,2.998047 c -0.05985,0.001 -0.120057,0.0029 -0.179688,0.0039 z m 16.666012,0.59375 c 0.0584,-0.0052 0.11681,0.002 0.16602,0.02734 0.0999,0.05155 0.15142,0.177347 0.17578,0.287109 0.0418,0.1882 -0.0385,0.383193 -0.0644,0.574219 -0.0217,0.160214 -0.13715,0.347181 -0.16016,0.505859 -0.28672,0.03973 -0.59161,0.0911 -0.874996,0.128906 0.0067,-0.01943 0.01241,-0.03913 0.01758,-0.05859 0.05483,-0.206449 -0.06708,-0.439781 0,-0.642578 0.100856,-0.3049 0.292266,-0.619689 0.574216,-0.773438 0.0486,-0.02651 0.10761,-0.04358 0.16602,-0.04883 z m 4.39258,0.169922 c 0.0436,-0.0036 0.0874,-5.36e-4 0.12695,0.01172 0.11124,0.03449 0.18206,0.171919 0.19922,0.287109 0.0113,0.07618 -0.0383,0.160159 -0.0918,0.240234 -0.18844,0.031 -0.3871,0.06942 -0.57422,0.09961 5.3e-4,-0.0025 10e-4,-0.0053 0.002,-0.0078 0.0303,-0.144161 -0.0836,-0.320107 0,-0.441406 0.0705,-0.102223 0.20717,-0.178573 0.3379,-0.189453 z" /><path
     id="hull"
     style="fill:#060707;stroke-width:0.160383;stroke-linejoin:bevel"
     d="M 76.257812 16.125 C 76.162763 16.126 76.065933 16.138419 76 16.199219 C 75.93061 16.263219 76.000135 16.418203 75.921875 16.470703 C 75.870145 16.505303 75.796601 16.450072 75.734375 16.451172 C 75.624995 16.453172 75.510366 16.454647 75.410156 16.498047 C 75.339646 16.528947 75.215532 16.569061 75.230469 16.644531 C 75.254189 16.764561 75.502929 16.65662 75.582031 16.75 C 75.626691 16.8027 75.654415 16.902698 75.609375 16.955078 C 75.544525 17.030478 75.409415 16.951891 75.310547 16.962891 C 75.133497 16.982591 74.945976 16.987769 74.787109 17.068359 C 74.696429 17.114359 74.528268 17.177678 74.5625 17.273438 C 74.5908 17.352637 74.73325 17.264909 74.814453 17.287109 C 74.907983 17.312309 74.99851 17.357112 75.072266 17.419922 C 75.143286 17.480422 75.274384 17.558531 75.238281 17.644531 C 75.208021 17.716631 75.081647 17.658634 75.005859 17.677734 C 74.862091 17.713834 74.679439 17.713488 74.587891 17.830078 C 74.550801 17.877278 74.545249 17.954346 74.568359 18.009766 C 74.620459 18.134636 74.895744 18.126719 74.886719 18.261719 C 74.874879 18.438719 74.570362 18.425133 74.429688 18.533203 C 74.321857 18.616003 74.122657 18.68311 74.136719 18.818359 C 74.142619 18.875659 74.230363 18.889109 74.283203 18.912109 C 74.379523 18.954109 74.485254 18.967734 74.587891 18.990234 C 74.686571 19.011834 74.787625 19.025322 74.886719 19.044922 C 75.008769 19.069122 75.24605 18.998747 75.251953 19.123047 C 75.257453 19.238937 75.019978 19.171689 74.919922 19.230469 C 74.758106 19.325469 74.649951 19.492734 74.507812 19.615234 C 74.445843 19.668634 74.292367 19.689388 74.316406 19.767578 C 74.351586 19.881978 74.55437 19.785769 74.673828 19.792969 C 74.865968 19.804469 75.122714 19.677683 75.251953 19.820312 C 75.280173 19.851412 75.261851 19.907233 75.244141 19.945312 C 75.185381 20.071472 75.036683 20.130899 74.939453 20.230469 C 74.844303 20.327869 74.738104 20.418416 74.667969 20.535156 C 74.612149 20.628056 74.480435 20.762837 74.554688 20.841797 C 74.685928 20.981367 74.923654 20.736171 75.105469 20.675781 C 75.22822 20.634981 75.3478 20.502639 75.470703 20.542969 C 75.501003 20.552969 75.524427 20.591147 75.523438 20.623047 C 75.519138 20.761777 75.346325 20.836235 75.271484 20.953125 C 75.187784 21.083855 74.959594 21.241054 75.052734 21.365234 C 75.085234 21.408534 75.15806 21.343831 75.210938 21.332031 C 75.406081 21.288431 75.609499 21.268199 75.794922 21.193359 C 75.887722 21.155859 75.955185 21.016733 76.052734 21.039062 C 76.091564 21.048062 76.118361 21.098772 76.119141 21.138672 C 76.121641 21.278502 75.909689 21.358487 75.900391 21.498047 C 75.894891 21.579947 75.92231 21.696066 76 21.722656 C 76.145024 21.772256 76.277621 21.590206 76.404297 21.503906 C 76.616882 21.359066 76.793596 21.166442 76.996094 21.007812 C 77.090744 20.933613 77.167914 20.810802 77.287109 20.794922 C 77.336339 20.787922 77.40607 20.801656 77.425781 20.847656 C 77.474161 20.959536 77.355997 21.084977 77.287109 21.185547 C 77.219447 21.284314 77.137223 21.376892 77.044922 21.455078 C 76.879992 21.519566 76.718153 21.590041 76.558594 21.664062 C 76.467911 21.67913 76.376678 21.693161 76.291016 21.722656 C 76.092573 21.790959 75.966146 21.890462 75.867188 22.019531 C 75.466957 22.251684 75.166715 22.636346 74.884766 23.003906 C 74.329954 23.727183 73.910452 24.55176 73.527344 25.378906 C 73.359401 25.741503 73.151911 26.107604 73.119141 26.505859 C 73.089227 26.869464 73.019429 27.349628 73.136719 27.693359 C 67.861328 28.363529 63.153024 28.714561 58.980469 28.839844 L 61.148438 25.972656 C 61.148438 25.972656 61.855597 25.479673 62.195312 25.214844 C 62.691309 24.828174 63.306959 24.536996 63.640625 24.003906 C 63.775855 23.787846 63.73416 23.499419 63.826172 23.261719 C 63.892082 23.091459 63.975018 22.924297 64.085938 22.779297 C 64.282675 22.522097 64.776258 22.434808 64.791016 22.111328 C 64.815776 21.568489 64.257838 20.865569 63.714844 20.886719 C 63.467772 20.896719 63.42094 21.284989 63.269531 21.480469 C 62.978618 21.856058 62.663697 22.21349 62.378906 22.59375 C 62.19793 22.83539 62.109878 23.167448 61.859375 23.335938 C 61.762845 23.400837 61.63465 23.397263 61.519531 23.414062 C 61.13928 23.469462 60.753087 23.503881 60.369141 23.488281 C 59.944484 23.470981 59.495431 23.476184 59.107422 23.302734 C 58.716127 23.127825 58.437897 22.765035 58.119141 22.478516 C 58.072501 22.436616 58.03246 22.387916 57.984375 22.347656 C 57.741859 22.144646 57.416252 22.036829 57.214844 21.792969 C 57.116534 21.673939 56.99721 21.525807 57.019531 21.373047 C 57.039861 21.233997 57.208705 21.166414 57.298828 21.058594 C 57.333158 21.017594 57.383488 20.983021 57.398438 20.931641 C 57.422627 20.848441 57.405114 20.753518 57.371094 20.673828 C 57.348304 20.620428 57.277133 20.596326 57.259766 20.541016 C 57.239146 20.475316 57.237627 20.390737 57.279297 20.335938 C 57.316557 20.286938 57.400747 20.304831 57.451172 20.269531 C 57.506342 20.230831 57.586326 20.184487 57.583984 20.117188 C 57.579784 19.998488 57.417329 19.947884 57.332031 19.865234 C 57.22535 19.761874 57.067848 19.694454 57.007812 19.558594 C 56.948853 19.425154 57.03413 19.262924 57 19.121094 C 56.96253 18.965414 56.891477 18.814496 56.789062 18.691406 C 56.609259 18.475296 56.313924 18.38241 56.111328 18.1875 C 55.994671 18.07526 55.918613 17.925504 55.806641 17.808594 C 55.635511 17.629904 55.461172 17.447289 55.25 17.318359 C 54.976424 17.15133 54.660517 17.065237 54.355469 16.966797 C 54.160083 16.903697 53.963064 16.819133 53.757812 16.814453 C 53.727913 16.813603 53.695742 16.8125 53.664062 16.8125 C 53.569013 16.8135 53.472183 16.825919 53.40625 16.886719 C 53.33686 16.950719 53.406385 17.105703 53.328125 17.158203 C 53.276395 17.192803 53.202851 17.137572 53.140625 17.138672 C 53.031245 17.140672 52.916616 17.142147 52.816406 17.185547 C 52.745896 17.216447 52.621782 17.256561 52.636719 17.332031 C 52.660439 17.452061 52.909179 17.34412 52.988281 17.4375 C 53.032941 17.4902 53.060665 17.590198 53.015625 17.642578 C 52.950775 17.717978 52.815665 17.639391 52.716797 17.650391 C 52.539747 17.670091 52.352226 17.675269 52.193359 17.755859 C 52.102679 17.801859 51.934518 17.865178 51.96875 17.960938 C 51.99705 18.040137 52.1395 17.952409 52.220703 17.974609 C 52.314233 17.999809 52.40476 18.044612 52.478516 18.107422 C 52.549536 18.167922 52.680634 18.246031 52.644531 18.332031 C 52.614271 18.404131 52.487897 18.346134 52.412109 18.365234 C 52.268341 18.401334 52.085689 18.400988 51.994141 18.517578 C 51.957051 18.564778 51.951499 18.641846 51.974609 18.697266 C 52.026709 18.822136 52.301994 18.814219 52.292969 18.949219 C 52.281129 19.126219 51.976612 19.112633 51.835938 19.220703 C 51.728107 19.303503 51.528907 19.37061 51.542969 19.505859 C 51.548869 19.563159 51.636613 19.576609 51.689453 19.599609 C 51.785773 19.641609 51.891504 19.655234 51.994141 19.677734 C 52.092821 19.699334 52.193875 19.712822 52.292969 19.732422 C 52.415019 19.756622 52.6523 19.686247 52.658203 19.810547 C 52.663703 19.926437 52.426228 19.859189 52.326172 19.917969 C 52.164356 20.012969 52.056201 20.180234 51.914062 20.302734 C 51.852093 20.356134 51.698617 20.376888 51.722656 20.455078 C 51.757836 20.569478 51.96062 20.473269 52.080078 20.480469 C 52.272218 20.491969 52.528964 20.365183 52.658203 20.507812 C 52.686423 20.538912 52.668101 20.594733 52.650391 20.632812 C 52.591631 20.758972 52.442933 20.818399 52.345703 20.917969 C 52.250553 21.015369 52.144354 21.105916 52.074219 21.222656 C 52.018399 21.315556 51.886685 21.450337 51.960938 21.529297 C 52.092178 21.668867 52.329904 21.423671 52.511719 21.363281 C 52.63447 21.322481 52.75405 21.190139 52.876953 21.230469 C 52.907253 21.240469 52.930677 21.278647 52.929688 21.310547 C 52.925388 21.449277 52.752575 21.523735 52.677734 21.640625 C 52.594034 21.771355 52.365844 21.928554 52.458984 22.052734 C 52.491484 22.096034 52.56431 22.031331 52.617188 22.019531 C 52.812331 21.975931 53.015749 21.955699 53.201172 21.880859 C 53.293972 21.843359 53.361435 21.704233 53.458984 21.726562 C 53.497814 21.735562 53.524611 21.786272 53.525391 21.826172 C 53.527891 21.966002 53.315939 22.045987 53.306641 22.185547 C 53.301141 22.267447 53.32856 22.383566 53.40625 22.410156 C 53.551274 22.459756 53.683871 22.277706 53.810547 22.191406 C 54.023132 22.046566 54.199846 21.853942 54.402344 21.695312 C 54.496994 21.621113 54.574164 21.498302 54.693359 21.482422 C 54.742589 21.475422 54.81232 21.489156 54.832031 21.535156 C 54.880411 21.647036 54.762247 21.772477 54.693359 21.873047 C 54.588222 22.026517 54.451714 22.167513 54.289062 22.257812 C 54.111287 22.356512 53.889532 22.343956 53.697266 22.410156 C 53.445663 22.496756 53.30908 22.632126 53.199219 22.816406 C 52.845181 23.410276 52.8125 24.855469 52.8125 24.855469 L 52.798828 24.861328 L 52.578125 26.494141 L 52.326172 28.857422 C 41.887199 28.621072 35.3653 27.167307 31.019531 27.310547 C 29.462941 27.361847 30.701908 31.799687 32.021484 31.873047 C 51.918921 32.979126 61.307095 33.757406 92.351562 30.537109 C 94.077116 30.35811 95.458947 23.506883 93.316406 24.007812 C 88.706985 25.085523 84.448433 25.922596 80.453125 26.599609 C 80.741215 26.424326 81.024039 26.232368 81.251953 25.986328 C 81.476921 25.743467 81.592953 25.418764 81.78125 25.146484 C 82.03849 24.774513 82.46306 24.495602 82.599609 24.064453 C 82.666359 23.853678 82.701521 23.582516 82.576172 23.400391 C 82.490082 23.275304 82.307682 23.235839 82.15625 23.224609 C 81.830222 23.200426 81.469175 23.271452 81.207031 23.466797 C 80.931522 23.672102 80.890228 24.083107 80.675781 24.351562 C 80.529464 24.534729 80.373421 24.950799 80.167969 24.837891 C 79.805905 24.638915 80.318989 24.023597 80.412109 23.621094 C 80.509967 23.198128 80.702438 22.793643 80.742188 22.361328 C 80.760447 22.162747 80.798019 21.938847 80.699219 21.765625 C 80.518521 21.448825 80.170083 21.206 79.8125 21.115234 C 79.811427 21.11227 79.810818 21.108162 79.808594 21.105469 C 79.710284 20.986439 79.59096 20.838307 79.613281 20.685547 C 79.633611 20.546497 79.802455 20.478914 79.892578 20.371094 C 79.926908 20.330094 79.977238 20.295521 79.992188 20.244141 C 80.016377 20.160941 79.998864 20.066018 79.964844 19.986328 C 79.942054 19.932928 79.870883 19.908826 79.853516 19.853516 C 79.832896 19.787816 79.831377 19.703237 79.873047 19.648438 C 79.910307 19.599438 79.994497 19.617331 80.044922 19.582031 C 80.100092 19.543331 80.011079 19.260384 79.925781 19.177734 C 79.8191 19.074374 79.661598 19.006954 79.601562 18.871094 C 79.542603 18.737654 79.62788 18.575424 79.59375 18.433594 C 79.55628 18.277914 79.485227 18.126996 79.382812 18.003906 C 79.203009 17.787796 78.907674 17.69491 78.705078 17.5 C 78.588421 17.38776 78.512363 17.238004 78.400391 17.121094 C 78.229261 16.942404 78.054922 16.759789 77.84375 16.630859 C 77.570174 16.46383 77.254267 16.377737 76.949219 16.279297 C 76.753833 16.216197 76.556814 16.131633 76.351562 16.126953 C 76.321663 16.126103 76.289492 16.125 76.257812 16.125 z M 58.253906 25.453125 L 60.703125 25.861328 L 58.179688 28.859375 C 58.119838 28.860375 58.059631 28.862281 58 28.863281 L 58.253906 25.453125 z M 74.919922 26.046875 C 74.978333 26.04163 75.036733 26.048834 75.085938 26.074219 C 75.185854 26.125767 75.237359 26.251566 75.261719 26.361328 C 75.303486 26.549528 75.223196 26.744521 75.197266 26.935547 C 75.175513 27.095761 75.060117 27.282728 75.037109 27.441406 C 74.75038 27.481132 74.445496 27.532504 74.162109 27.570312 C 74.168764 27.550879 74.174519 27.531182 74.179688 27.511719 C 74.234517 27.30527 74.112608 27.071938 74.179688 26.869141 C 74.280544 26.564241 74.471955 26.249452 74.753906 26.095703 C 74.802514 26.069198 74.861511 26.05212 74.919922 26.046875 z M 79.3125 26.216797 C 79.356076 26.21317 79.399928 26.216261 79.439453 26.228516 C 79.550686 26.263004 79.621512 26.400435 79.638672 26.515625 C 79.650023 26.591801 79.600365 26.675784 79.546875 26.755859 C 79.358435 26.786858 79.159767 26.825277 78.972656 26.855469 C 78.973184 26.85294 78.97408 26.850171 78.974609 26.847656 C 79.004919 26.703495 78.891019 26.527549 78.974609 26.40625 C 79.045055 26.304027 79.181771 26.227677 79.3125 26.216797 z " /></svg>
