<?xml version="1.0" encoding="UTF-8" standalone="no"?>
<!-- Created with Inkscape (http://www.inkscape.org/) -->

<svg
   xmlns:dc="http://purl.org/dc/elements/1.1/"
   xmlns:cc="http://creativecommons.org/ns#"
   xmlns:rdf="http://www.w3.org/1999/02/22-rdf-syntax-ns#"
   xmlns:svg="http://www.w3.org/2000/svg"
   xmlns="http://www.w3.org/2000/svg"
   xmlns:xlink="http://www.w3.org/1999/xlink"
   xmlns:sodipodi="http://sodipodi.sourceforge.net/DTD/sodipodi-0.dtd"
   xmlns:inkscape="http://www.inkscape.org/namespaces/inkscape"
   width="100%"
   height="100%"
   viewBox="0 0 106.42 105.83333"
   version="1.1"
   id="svg8"
   inkscape:version="0.92.4 (5da689c313, 2019-01-14)"
   sodipodi:docname="cambodia.svg">
  <defs
     id="defs2">
    <clipPath
       clipPathUnits="userSpaceOnUse"
       id="clipPath924">
      <rect
         style="opacity:1;fill:#5ee16a;fill-opacity:0.97254902;stroke:none;stroke-width:14.3544302;stroke-miterlimit:4;stroke-dasharray:none;stroke-dashoffset:0;stroke-opacity:0.23137255"
         id="rect926"
         width="600"
         height="600"
         x="-1.6364727e-06"
         y="-1.3638041e-05" />
    </clipPath>
    <clipPath
       clipPathUnits="userSpaceOnUse"
       id="clipPath5000">
      <rect
         style="opacity:1;fill:#5ee16a;fill-opacity:0.97254902;stroke:none;stroke-width:11.42461586;stroke-miterlimit:4;stroke-dasharray:none;stroke-dashoffset:0;stroke-opacity:0.23137255"
         id="rect5002"
         width="402.19034"
         height="400.62997"
         x="111.40482"
         y="-3.2405728e-06" />
    </clipPath>
  </defs>
  <sodipodi:namedview
     id="base"
     pagecolor="#ffffff"
     bordercolor="#666666"
     borderopacity="1.0"
     inkscape:pageopacity="0.0"
     inkscape:pageshadow="2"
     inkscape:zoom="0.7"
     inkscape:cx="12.306876"
     inkscape:cy="95.039318"
     inkscape:document-units="mm"
     inkscape:current-layer="layer1"
     showgrid="false"
     fit-margin-top="0"
     fit-margin-left="-0.1"
     fit-margin-right="0"
     fit-margin-bottom="0"
     inkscape:window-width="1920"
     inkscape:window-height="1051"
     inkscape:window-x="-9"
     inkscape:window-y="-9"
     inkscape:window-maximized="1"
     scale-x="0.8" />
  <metadata
     id="metadata5">
    <rdf:RDF>
      <cc:Work
         rdf:about="">
        <dc:format>image/svg+xml</dc:format>
        <dc:type
           rdf:resource="http://purl.org/dc/dcmitype/StillImage" />
        <dc:title></dc:title>
      </cc:Work>
    </rdf:RDF>
  </metadata>
  <g
     inkscape:label="Layer 1"
     inkscape:groupmode="layer"
     id="layer1"
     transform="translate(13.957352,-61.067264)">
    <g
       id="g1135"
       transform="matrix(0.2648,0,0,0.26458333,-43.537349,61.067264)"
       clip-path="url(#clipPath5000)">
      <path
         id="path942"
         d="M 0,0 H 625 V 400 H 0 Z"
         inkscape:connector-curvature="0"
         style="fill:#032ea1" />
      <path
         id="path944"
         d="M 0,100 H 625 V 300 H 0 Z"
         inkscape:connector-curvature="0"
         style="fill:#e00025" />
      <g
         id="g1063"
         transform="translate(117.143,-434.934)"
         style="fill:#ffffff;stroke:#000000;stroke-width:0.95999998">
        <g
           id="g956"
           style="stroke-linejoin:bevel">
          <path
             id="path946"
             d="m 139.02,623.46 h 113.8 v 43.788 h -113.8 z"
             inkscape:connector-curvature="0" />
          <path
             id="path948"
             d="m 246.95,647.64 h 3.586 v 16.495 h -3.586 z m -107.93,-8.15 h 113.8 v 5.09 h -113.8 z m 0,-6.9 h 113.8 v 4.49 h -113.8 z"
             inkscape:connector-curvature="0" />
          <path
             id="path950"
             d="m 139.02,625.7 h 113.8 v 4.354 h -113.8 z"
             inkscape:connector-curvature="0"
             style="stroke-width:0.94499999" />
          <path
             id="path952"
             d="m 168.98,647.64 h 3.586 v 16.495 h -3.586 z m 48.99,0 h 3.586 v 16.495 h -3.586 z m -78.05,0 h 3.586 v 16.495 h -3.586 z m 7.03,0 h 3.586 v 16.495 h -3.586 z m 7.5,0 h 3.586 v 16.495 h -3.586 z m 7.5,0 h 3.586 v 16.495 h -3.586 z m 62.82,0 h 3.586 v 16.495 h -3.586 z m 7.5,0 h 3.586 v 16.495 h -3.586 z m 7.5,0 h 3.586 v 16.495 h -3.586 z"
             inkscape:connector-curvature="0" />
          <path
             id="path954"
             d="m 94.51,669.55 c 1.76,-0.897 3.767,-2.984 4.424,-5.32 h 193.07 c 0.657,2.336 2.665,4.423 4.425,5.32 z"
             inkscape:connector-curvature="0"
             style="stroke-linejoin:miter" />
        </g>
        <path
           id="path958"
           d="m 193,556.8 c 0,0 -0.144,-4.112 2.25,-4.157 2.396,0.044 2.25,4.157 2.25,4.157 z m -12.49,54.54 v -5.536 c -0.08,-2.768 -2.76,-2.968 -2.838,-4.986 0,0 -0.346,-3.027 0.452,-4.408 1.084,4.047 3.056,3.304 3.056,1.64 0,-1.453 -1.117,-2.804 -3.408,-6.33 -0.732,-1.128 -0.28,-4.66 0.747,-5.923 0.397,3.07 0.852,4.54 2.17,4.54 0.805,0 1.462,-0.524 1.462,-2.062 0,-1.957 -1.325,-2.945 -1.977,-4.725 -0.76,-2.078 -0.236,-4.196 1.026,-5.38 0.542,3.03 0.38,4.237 1.727,4.237 2.713,-0.858 0,-4.786 -0.58,-5.777 -0.666,-1.155 0.897,-3.46 0.897,-3.46 0.863,2.69 1.14,2.91 2.07,2.66 1.174,-0.315 1.023,-2.056 -0.41,-3.463 -0.904,-0.89 -0.808,-2.212 0.163,-3.274 0.975,1.905 2.223,1.79 2.343,0.658 l -0.784,-4.392 h 17.255 l -0.856,4.25 c -0.245,1.215 1.396,1.48 2.416,-0.515 0.972,1.062 1.067,2.385 0.163,3.274 -1.432,1.407 -1.584,3.148 -0.41,3.463 0.93,0.25 1.208,0.03 2.07,-2.66 0,0 1.403,1.57 0.897,3.46 -0.58,0.99 -3.293,4.92 -0.58,5.777 1.346,0 1.185,-1.208 1.726,-4.237 1.263,1.184 1.786,3.302 1.026,5.38 -0.65,1.78 -1.976,2.768 -1.976,4.725 0,1.538 0.657,2.062 1.46,2.062 1.32,0 1.775,-1.47 2.173,-4.54 1.025,1.263 1.478,4.795 0.746,5.922 -2.29,3.526 -3.408,4.877 -3.408,6.33 0,1.664 1.97,2.407 3.056,-1.64 0.797,1.38 0.45,4.408 0.45,4.408 -0.078,2.018 -2.758,2.218 -2.837,4.986 v 5.536 z m 7.22,-46.02 -0.397,-3.125 h 15.838 l -0.396,3.125 z m 1.06,-3.19 -0.34,-2.57 h 13.603 l -0.34,2.57 z m 2.16,-2.66 -0.227,-2.57 h 9.058 l -0.226,2.57 z m 33.02,110.08 c -2.027,-0.78 -4.977,-2.92 -4.977,-5.07 v -24.297 l 2.638,-3.358 h -52.775 l 2.53,3.36 v 24.296 c 0,2.15 -2.027,4.29 -4.053,5.07 z"
           inkscape:connector-curvature="0" />
        <path
           id="path960"
           d="m 178.24,647.64 h 3.586 v 16.495 h -3.586 z m 30.32,0 h 3.586 v 16.495 h -3.586 z"
           inkscape:connector-curvature="0"
           style="stroke-linejoin:bevel" />
        <path
           id="path962"
           d="m 167.91,609.17 v 27.656 h 54.023 v -5.957 l 0.078,-21.7 c -2.208,0.868 -2.596,2.87 -2.596,2.87 v 11.778 h -48.75 V 612.04 c 0,0 -0.544,-2.002 -2.754,-2.87 z"
           inkscape:connector-curvature="0" />
        <path
           id="path964"
           d="m 214.6,669.55 c -1.766,-0.78 -5.612,-2.92 -5.612,-5.07 v -27.19 c 0.378,-1.518 2.436,-2.414 3.76,-3.358 h -35.822 c 1.705,0.902 3.606,1.652 4.285,3.36 v 27.19 c 0,2.15 -3.04,4.29 -4.806,5.07 z"
           inkscape:connector-curvature="0" />
        <path
           id="path966"
           d="m 219.41,634.22 v -19.587 h -4.91 v -1.91 h -38.84 v 1.91 h -4.91 v 19.587 z m -12.55,35.33 c -1.73,-0.78 -4.25,-2.92 -4.25,-5.07 v -23.214 l 1.422,-2.11 h -17.69 l 1.42,2.11 v 23.215 c 0,2.152 -2.52,4.29 -4.25,5.07 z"
           inkscape:connector-curvature="0" />
        <path
           id="path968"
           d="m 190.71,639.16 h 8.966 v 30.377 h -8.966 z"
           inkscape:connector-curvature="0"
           style="stroke-width:0.98100001" />
        <path
           id="path970"
           d="m 204.38,632.48 c 0.02,-2 5.838,-2.09 8.832,-3.795 H 177.26 c 2.994,1.704 8.675,1.844 8.675,3.795 l 1.217,3.882 14.883,0.598 z"
           inkscape:connector-curvature="0"
           style="stroke-linejoin:bevel" />
        <path
           id="path972"
           d="m 211.41,611.34 c 0,-4.9 0.205,-6.786 1.71,-6.786 v 15.58 c -3.69,1.34 -6.325,6.05 -6.325,6.05 h -23.21 c 0,0 -2.635,-4.71 -6.326,-6.05 v -15.58 c 1.855,0 1.867,1.972 1.867,6.786 z m 1.71,-2.01 c 0,-5.618 4.85,-6.25 4.85,-6.25 v 5 c -1.845,-0.08 -2.736,1.578 -2.736,4.044 0,2.466 1.487,2.506 1.487,2.506 v 14.19 h -3.6 z"
           inkscape:connector-curvature="0" />
        <path
           id="path974"
           d="m 177.28,609.33 c 0,-5.618 -4.85,-6.25 -4.85,-6.25 v 5 c 1.845,-0.08 2.736,1.578 2.736,4.044 0,2.466 -1.487,2.506 -1.487,2.506 v 14.19 h 3.6 z"
           inkscape:connector-curvature="0" />
        <g
           id="g980"
           style="fill:none;stroke-width:0.80000001">
          <path
             id="path976"
             d="m 186.84,570.62 h 17.128 m -19.158,5.35 h 20.92 m -22.95,6.49 h 24.904 m -27.024,7.93 h 29.536 m -30.216,9.04 h 30.426"
             inkscape:connector-curvature="0" />
          <path
             id="path978"
             d="m 170.75,628.92 h 48.66 m -33.22,0.01 h 18.036 v 6.63 H 186.19 Z"
             inkscape:connector-curvature="0"
             style="stroke-width:0.95999998" />
        </g>
        <g
           id="g998">
          <path
             id="path982"
             d="m 183.93,614.24 c 2.99,3.59 2.713,9.68 2.68,13.27 h 17.342 c -0.035,-3.59 -0.312,-9.68 2.678,-13.27 z m 9.75,-41.13 -2.376,-1.224 v -3.497 c 0.97,0.29 2.062,0.41 2.168,1.958 0.338,-2.21 0.948,-2.102 1.907,-2.963 0.957,0.86 1.567,0.753 1.905,2.963 0.107,-1.548 1.197,-1.667 2.17,-1.96 v 3.498 l -2.378,1.224 z"
             inkscape:connector-curvature="0" />
          <path
             id="path984"
             d="m 193.52,578.85 -3.946,-2.713 v -3.223 c 1.383,0.32 2.936,0.45 3.088,2.15 0.482,-2.424 1.35,-3.676 2.715,-4.62 1.365,0.944 2.233,2.196 2.715,4.62 0.152,-1.7 1.705,-1.83 3.09,-2.15 v 3.223 l -3.948,2.713 z"
             inkscape:connector-curvature="0" />
          <path
             id="path986"
             d="m 193.24,587.8 -4.538,-3.985 v -4.736 c 1.59,0.47 3.377,0.662 3.552,3.156 0.553,-3.56 1.552,-5.4 3.12,-6.787 1.57,1.387 2.57,3.226 3.123,6.786 0.175,-2.494 1.96,-2.686 3.55,-3.157 v 4.735 l -4.536,3.985 z m 8.37,5.29 -4.104,5.676 h -4.646 l -4.104,-5.676 z m -15.22,9.53 c 2.053,1.122 2.81,3.357 3.03,7.553 h 11.55 c 0.22,-4.196 0.977,-6.43 3.03,-7.553 z"
             inkscape:connector-curvature="0" />
          <path
             id="path988"
             d="m 204.17,593.09 v -5.702 c -1.95,0.537 -3.213,1.69 -3.776,3.258 0,-1.893 -2.49,-6.257 -5.207,-8.43 -2.724,2.432 -5.257,6.38 -5.206,8.43 -0.463,-1.492 -1.825,-2.72 -3.775,-3.258 v 5.702 z"
             inkscape:connector-curvature="0"
             style="stroke-linejoin:bevel" />
          <path
             id="path990"
             d="m 205.04,602.62 v -5.702 c -2.138,0.537 -3.522,1.69 -4.14,3.258 0,-1.893 -2.73,-6.258 -5.707,-8.43 -2.986,2.432 -5.763,6.38 -5.707,8.43 -0.508,-1.492 -2.002,-2.72 -4.14,-3.258 v 5.702 z"
             inkscape:connector-curvature="0"
             style="stroke-linejoin:bevel" />
          <path
             id="path992"
             d="m 207.44,614.32 v -6.577 c -2.66,0.687 -4.312,2.653 -5.15,3.8 0,-3.56 -4.02,-8.99 -7.1,-10.768 -3.16,1.825 -7.1,7.435 -7.1,10.768 -0.86,-1.14 -2.49,-3.113 -5.15,-3.8 v 6.577 z"
             inkscape:connector-curvature="0"
             style="stroke-linejoin:bevel" />
          <path
             id="path994"
             d="m 206,628.92 v -6.762 c -2.346,0.92 -3.048,3.18 -3.786,4.717 0.29,-6.86 -3.862,-14.23 -7.024,-16.1 -3.163,1.87 -7.393,9.4 -7.024,16.1 -0.758,-1.527 -1.44,-3.797 -3.786,-4.717 v 6.762 z"
             inkscape:connector-curvature="0"
             style="stroke-linejoin:bevel" />
          <path
             id="path996"
             d="m 204.36,639.16 v -6.762 c -2.458,0.585 -2.61,1.49 -3.392,3.006 0.29,-4.097 -2.61,-8.77 -5.773,-10.64 -3.163,1.87 -6.064,6.544 -5.774,10.64 -0.78,-1.515 -0.877,-2.42 -3.39,-3.006 v 6.762 z"
             inkscape:connector-curvature="0" />
        </g>
        <g
           id="a">
          <path
             id="path1000"
             d="m 98.935,664.23 v -20.44 c -0.67,-2.603 -2.88,-4.905 -4.54,-5.366 V 620.43 l 3.74,2.024 4.272,18.81 v 22.966 z"
             inkscape:connector-curvature="0" />
          <path
             id="path1002"
             d="m 98.935,664.31 v -20.52 c -0.67,-2.602 -2.88,-4.904 -4.54,-5.365 v -19.243 c 2.51,0 3.74,3.273 3.74,3.273 l 4.272,18.81 v 22.887 z"
             inkscape:connector-curvature="0" />
          <path
             id="path1004"
             d="m 96.275,669.55 c 1.73,-0.78 4.25,-2.92 4.25,-5.07 v -25.547 l -1.187,-2.108 h 43.523 l -1.698,2.108 v 25.547 c 0,2.15 1.73,4.29 3.46,5.07 z"
             inkscape:connector-curvature="0" />
          <path
             id="path1006"
             d="m 135.84,669.55 c -1.73,-0.78 -4.25,-2.92 -4.25,-5.07 v -24.297 l 3.62,-3.36 -29.588,0.002 3.62,3.358 v 24.297 c 0,2.15 -2.52,4.29 -4.25,5.07 z"
             inkscape:connector-curvature="0" />
          <path
             id="path1008"
             d="m 131.69,669.55 c -1.73,-0.78 -4.25,-2.92 -4.25,-5.07 v -21.965 l 2.37,-3.36 h -18.798 l 2.37,3.36 v 21.965 c 0,2.15 -2.52,4.29 -4.25,5.07 z"
             inkscape:connector-curvature="0" />
          <path
             id="path1010"
             d="m 115.92,639.16 h 8.982 v 30.393 h -8.982 z"
             inkscape:connector-curvature="0" />
          <path
             id="path1012"
             d="m 103.7,647.64 h 3.586 v 16.495 H 103.7 Z m 30.75,0 h 3.586 v 16.495 h -3.586 z m -33.81,-27.82 h 4.32 v 16.91 h -4.32 z m 0,-3.18 h 4.295 v 3.14 h -4.295 z"
             inkscape:connector-curvature="0"
             style="stroke-linejoin:bevel" />
          <path
             id="path1014"
             d="m 136.17,623.46 h 6.16 v 13.054 h -6.16 z"
             inkscape:connector-curvature="0"
             style="stroke-width:1.03400004;stroke-linejoin:bevel" />
          <path
             id="path1016"
             d="m 104.89,636.6 v -28.94 c 1.232,0 1.422,4.24 4.25,4.24 1.47,0 1.314,-1.756 0.488,-3.187 -0.732,-1.268 -1.637,-3.018 -0.407,-6.28 0.844,2.496 3.113,3.288 2.694,1.723 -0.72,-2.688 -2.795,-3.13 -1.24,-7.302 0.542,3.48 2.774,3.327 2.232,1.304 -0.61,-2.28 -1.873,-3.214 -0.316,-6.428 0.873,3.65 2.052,3.435 2.052,1.17 0,-3.346 -0.128,-6.956 4.203,-8.295 0,0 0.25,-3.068 1.812,-3.068 1.562,0 1.813,3.068 1.813,3.068 4.33,1.34 4.202,4.95 4.202,8.296 0,2.265 1.18,2.48 2.052,-1.17 1.558,3.214 0.295,4.148 -0.315,6.428 -0.544,2.023 1.69,2.177 2.23,-1.304 1.556,4.172 -0.518,4.614 -1.24,7.302 -0.418,1.565 1.85,0.773 2.694,-1.722 1.23,3.26 0.325,5.01 -0.407,6.28 -0.826,1.43 -0.983,3.187 0.49,3.187 2.826,0 3.016,-4.24 4.248,-4.24 v 28.94 z m -6.766,-21.86 v 22.08 h 2.51 v -22.136 c -0.904,-0.457 -1.754,-0.527 -2.51,0.056 z"
             inkscape:connector-curvature="0" />
          <path
             id="path1018"
             d="m 98.203,629.03 c 3.112,1.59 6.195,3.433 6.975,7.793 h -6.975 z m 43.167,-6.61 v 14.407 h 2.035 v -14.443 c -0.635,-0.298 -1.503,-0.345 -2.035,0.036 z"
             inkscape:connector-curvature="0" />
          <path
             id="path1020"
             d="m 143.41,628.92 c -3.112,1.59 -6.195,3.433 -6.975,7.793 h 6.975 z"
             inkscape:connector-curvature="0" />
          <g
             id="g1038">
            <path
               id="path1022"
               d="m 122.83,595.27 1.814,-1.525 v -1.953 c -0.664,0.065 -1.026,0.293 -1.516,0.936 -0.417,-1.295 -1.334,-2.305 -2.562,-2.933 -1.23,0.628 -2.146,1.593 -2.563,2.887 -0.49,-0.643 -0.852,-0.825 -1.516,-0.89 v 1.953 l 1.815,1.525 z"
               inkscape:connector-curvature="0" />
            <path
               id="path1024"
               d="m 123.8,600.16 0.843,-1.825 v -2.54 c -0.664,0.067 -1.026,0.298 -1.516,0.95 -0.417,-1.313 -1.334,-2.338 -2.562,-2.974 -1.23,0.637 -2.146,1.616 -2.563,2.928 -0.49,-0.65 -0.852,-0.836 -1.516,-0.902 v 2.54 l 0.844,1.824 z"
               inkscape:connector-curvature="0" />
            <path
               id="path1026"
               d="m 123.93,606.79 2.695,-3.287 v -3.243 c -0.986,0.11 -1.524,0.503 -2.252,1.606 -0.62,-2.222 -1.98,-2.708 -3.806,-3.786 -1.825,1.078 -3.187,1.485 -3.806,3.707 -0.728,-1.103 -1.266,-1.416 -2.25,-1.527 v 3.243 l 2.693,3.287 z"
               inkscape:connector-curvature="0" />
            <path
               id="path1028"
               d="m 124.72,613.3 c 0,0 3.14,-2.74 3.327,-4.244 v -3.467 c -1.217,0.142 -2.368,0.458 -3.267,1.882 -0.765,-2.87 -1.96,-3.67 -4.212,-5.062 -2.253,1.392 -3.447,2.192 -4.212,5.062 -0.9,-1.425 -2.05,-1.74 -3.267,-1.883 v 3.466 c 0.396,1.504 3.326,4.244 3.326,4.244 z"
               inkscape:connector-curvature="0" />
            <path
               id="path1030"
               d="m 126.06,625.32 c 0,0 4.3,-4.76 4.4,-6.616 v -5.406 c -1.61,0.223 -3.132,1.33 -4.32,3.55 -1.012,-4.474 -2.59,-7.594 -5.57,-9.764 -2.98,2.17 -4.56,5.29 -5.57,9.765 -1.19,-2.222 -2.713,-3.33 -4.322,-3.552 v 5.406 c 0.308,1.855 4.4,6.616 4.4,6.616 z"
               inkscape:connector-curvature="0" />
            <path
               id="path1032"
               d="m 126.06,632.43 c 0,0 3.676,-3.742 4.4,-5.366 v -5.406 c -1.61,0.223 -3.132,1.33 -4.32,3.55 -1.012,-4.474 -2.59,-7.036 -5.57,-9.206 -2.98,2.17 -4.56,4.732 -5.57,9.207 -1.19,-2.223 -2.713,-3.33 -4.322,-3.552 v 5.406 c 0.933,1.624 4.4,5.366 4.4,5.366 z"
               inkscape:connector-curvature="0" />
            <path
               id="path1034"
               d="m 127.54,636.56 c -1.073,-4.668 -1.996,-8.13 -7.163,-11.64 -5.167,3.51 -6.09,6.972 -7.163,11.64 z"
               inkscape:connector-curvature="0" />
            <path
               id="path1036"
               d="m 130.2,639.16 v -6.762 c -2.346,0.92 -4.467,2.28 -5.25,3.795 -0.872,-3.754 -2.556,-5.408 -4.652,-7.68 -2.097,2.272 -3.5,3.926 -4.375,7.68 -0.782,-1.515 -2.902,-2.875 -5.25,-3.795 v 6.762 z"
               inkscape:connector-curvature="0" />
          </g>
        </g>
        <use
           id="use1041"
           transform="matrix(-1,0,0,1,390.74,0)"
           xlink:href="#a"
           x="0"
           y="0"
           width="100%"
           height="100%" />
        <g
           id="g1057">
          <path
             id="path1043"
             d="m 89.412,669.28 v 6.173 h 211.89 v -6.174 z m -3.836,6.23 v 8.05 h 219.56 v -8.05 z m 219.56,8.05 -219.56,0.06 -6.418,-0.06 v 10.622 h 232.398 v -10.62 z m -232.443,10.69 0.002,12.51 h 245.33 l -0.002,-12.51 z m 245.332,12.51 v 0.02 H 72.695 v -0.02 h -6.467 v 12.51 h 258.26 v -12.51 z"
             inkscape:connector-curvature="0" />
          <path
             id="path1045"
             d="m 112.41,669.31 h 16.005 v 49.935 H 112.41 Z"
             inkscape:connector-curvature="0"
             style="stroke-width:1.04499996" />
          <path
             id="path1047"
             d="m 115.95,669.31 h 8.917 v 49.936 h -8.917 z"
             inkscape:connector-curvature="0"
             style="stroke-width:1.04299998" />
          <path
             id="path1049"
             d="m 187.08,669.31 h 16.006 v 49.935 H 187.08 Z"
             inkscape:connector-curvature="0"
             style="stroke-width:1.04499996" />
          <path
             id="path1051"
             d="m 190.73,669.31 h 8.917 v 49.936 h -8.917 z"
             inkscape:connector-curvature="0"
             style="stroke-width:1.04299998" />
          <path
             id="path1053"
             d="m 262.19,669.31 h 16.005 v 49.935 H 262.19 Z"
             inkscape:connector-curvature="0"
             style="stroke-width:1.04499996" />
          <path
             id="path1055"
             d="m 265.73,669.31 h 8.917 v 49.936 h -8.917 z"
             inkscape:connector-curvature="0"
             style="stroke-width:1.04299998" />
        </g>
        <g
           id="g1061"
           style="fill:none">
          <path
             id="path1059"
             d="m 98.935,664.23 h 193.07 M 115.79,712.97 h 9.244 m -9.244,-6.25 h 9.244 m -9.244,-6.25 h 9.244 m -9.244,-6.25 h 9.244 m -9.244,-6.25 h 9.244 m -9.244,-6.25 h 9.244 m -9.244,-6.25 h 9.244 m 65.736,37.51 h 8.607 m -8.607,-6.253 h 8.607 m -8.607,-6.254 h 8.607 m -8.607,-6.253 h 8.607 m -8.607,-6.253 h 8.607 m -8.607,-6.253 h 8.607 m -8.607,-6.254 h 8.607 m 66.193,37.51 h 9.244 m -9.244,-6.25 h 9.244 m -9.244,-6.25 h 9.244 m -9.244,-6.25 h 9.244 m -9.244,-6.25 h 9.244 m -9.244,-6.25 h 9.244 m -9.244,-6.25 h 9.244"
             inkscape:connector-curvature="0" />
        </g>
      </g>
    </g>
  </g>
</svg>
