<?xml version="1.0" encoding="UTF-8" standalone="no"?>
<!-- Created with Inkscape (http://www.inkscape.org/) -->

<svg
   xmlns:dc="http://purl.org/dc/elements/1.1/"
   xmlns:cc="http://creativecommons.org/ns#"
   xmlns:rdf="http://www.w3.org/1999/02/22-rdf-syntax-ns#"
   xmlns:svg="http://www.w3.org/2000/svg"
   xmlns="http://www.w3.org/2000/svg"
   xmlns:sodipodi="http://sodipodi.sourceforge.net/DTD/sodipodi-0.dtd"
   xmlns:inkscape="http://www.inkscape.org/namespaces/inkscape"
   width="100%"
   height="100%"
   viewBox="0 0 127.71002 127.8"
   version="1.1"
   id="svg8"
   inkscape:version="0.92.4 (5da689c313, 2019-01-14)"
   sodipodi:docname="laos.svg">
  <defs
     id="defs2">
    <clipPath
       clipPathUnits="userSpaceOnUse"
       id="clipPath924">
      <rect
         style="opacity:1;fill:#5ee16a;fill-opacity:0.97254902;stroke:none;stroke-width:14.3544302;stroke-miterlimit:4;stroke-dasharray:none;stroke-dashoffset:0;stroke-opacity:0.23137255"
         id="rect926"
         width="600"
         height="600"
         x="-1.6364727e-06"
         y="-1.3638041e-05" />
    </clipPath>
    <clipPath
       clipPathUnits="userSpaceOnUse"
       id="clipPath5000">
      <rect
         style="opacity:1;fill:#5ee16a;fill-opacity:0.97254902;stroke:none;stroke-width:11.42461586;stroke-miterlimit:4;stroke-dasharray:none;stroke-dashoffset:0;stroke-opacity:0.23137255"
         id="rect5002"
         width="402.19034"
         height="400.62997"
         x="111.40482"
         y="-3.2405728e-06" />
    </clipPath>
    <clipPath
       clipPathUnits="userSpaceOnUse"
       id="clipPath5248">
      <rect
         style="opacity:1;fill:#5ee16a;fill-opacity:0.97254902;stroke:none;stroke-width:6.63936186;stroke-miterlimit:4;stroke-dasharray:none;stroke-dashoffset:0;stroke-opacity:0.23137255"
         id="rect5250"
         width="248.83179"
         height="250"
         x="0.58411348"
         y="1.4469121e-06" />
    </clipPath>
  </defs>
  <sodipodi:namedview
     id="base"
     pagecolor="#ffffff"
     bordercolor="#666666"
     borderopacity="1.0"
     inkscape:pageopacity="0.0"
     inkscape:pageshadow="2"
     inkscape:zoom="1.4"
     inkscape:cx="197.90394"
     inkscape:cy="235.67427"
     inkscape:document-units="mm"
     inkscape:current-layer="layer1"
     showgrid="false"
     fit-margin-top="0"
     fit-margin-left="-0.1"
     fit-margin-right="0"
     fit-margin-bottom="0"
     inkscape:window-width="1920"
     inkscape:window-height="1051"
     inkscape:window-x="-9"
     inkscape:window-y="-9"
     inkscape:window-maximized="1"
     scale-x="0.9" />
  <metadata
     id="metadata5">
    <rdf:RDF>
      <cc:Work
         rdf:about="">
        <dc:format>image/svg+xml</dc:format>
        <dc:type
           rdf:resource="http://purl.org/dc/dcmitype/StillImage" />
        <dc:title></dc:title>
      </cc:Work>
    </rdf:RDF>
  </metadata>
  <g
     inkscape:label="Layer 1"
     inkscape:groupmode="layer"
     id="layer1"
     transform="translate(13.916608,-51.800595)"
     style="opacity:0.98000004">
    <g
       id="g5105"
       transform="matrix(0.51360001,0,0,0.51120001,-14.306609,51.800594)"
       clip-path="url(#clipPath5248)"
       style="opacity:1">
      <path
         id="path5004"
         d="m -62.5,0 h 375 v 250 h -375 z"
         inkscape:connector-curvature="0"
         style="fill:#d70000" />
      <g
         id="g5038"
         transform="matrix(1.15795,0,0,1.1574,422.80766,269.49234)"
         style="fill:#ffffff">
        <path
           id="path5006"
           d="m -300.29401,-52.341999 h 86 v 4 h -86 z"
           inkscape:connector-curvature="0" />
        <path
           id="path5008"
           d="m -295.29401,-57.341999 h 76 v 4 h -76 z"
           inkscape:connector-curvature="0" />
        <path
           id="path5010"
           d="m -290.29401,-62.341999 h 66 v 4 h -66 z"
           inkscape:connector-curvature="0" />
        <path
           id="path5012"
           d="m -285.29401,-67.342003 h 56 v 4 h -56 z"
           inkscape:connector-curvature="0" />
        <path
           id="path5014"
           d="m -280.29401,-72.342003 h 46 v 4 h -46 z"
           inkscape:connector-curvature="0" />
        <path
           id="path5016"
           d="m -287.29501,-163.343 h 60 v 4 h -60 z"
           inkscape:connector-curvature="0" />
        <path
           id="path5018"
           d="m -283.29501,-168.343 h 52 v 4 h -52 z"
           inkscape:connector-curvature="0" />
        <path
           id="path5020"
           d="m -279.29501,-173.343 h 44 v 4 h -44 z"
           inkscape:connector-curvature="0" />
        <path
           id="path5022"
           d="m -275.29501,-178.343 h 36 v 4 h -36 z"
           inkscape:connector-curvature="0" />
        <path
           id="path5024"
           d="m -271.29501,-183.343 h 28 v 4 h -28 z"
           inkscape:connector-curvature="0" />
        <path
           id="path5026"
           d="m -267.29501,-188.343 h 20 v 4 h -20 z"
           inkscape:connector-curvature="0" />
        <path
           id="path5028"
           d="m -263.29501,-193.343 h 12 v 4 h -12 z"
           inkscape:connector-curvature="0" />
        <path
           id="path5030"
           d="m -259.29501,-198.343 h 4 v 4 h -4 z"
           inkscape:connector-curvature="0" />
        <path
           id="path5032"
           d="m -258.29501,-201.343 h 2 v 2 h -2 z"
           inkscape:connector-curvature="0" />
        <path
           id="path5034"
           d="m -261.29501,-158.343 h 8 v 2 h -8 z"
           inkscape:connector-curvature="0" />
        <path
           id="path5036"
           d="m -258.29501,-155.343 h 2 v 2 h -2 z"
           inkscape:connector-curvature="0" />
      </g>
      <g
         id="g5064"
         transform="matrix(0.416667,0,0,0.416667,-511.66133,-91.43076)">
        <g
           id="g5054"
           transform="matrix(2.88791,0,0,2.89089,926.599,188.783)">
          <g
             id="g5046"
             transform="translate(86.659,3.76234)">
            <path
               id="path5040"
               d="m 122.77,145.023 c 0.268,1.723 0.611,3.47 1.08,5.259 -0.059,0.547 -0.026,1.1 0.003,1.654 0.031,0.55 0.063,1.102 0.003,1.612 -0.268,1.138 -0.45,2.279 -0.57,3.421 -0.121,1.148 -0.179,1.63164 -0.196,2.76964 l 14.94948,-4.2e-4 c -0.245,-1.764 -0.57348,-2.58622 -1.13948,-3.71722 -0.558,-1.112 -1.269,-1.927 -2.136,-2.439 l -0.724,-3.473 c 0.179,-1.033 0.33,-2.087 0.479,-3.14 0.3,-2.11 0.601,-4.22 1.171,-6.318 0.327,-1.204 0.779,-2.271 1.257,-3.4 0.779,-1.841 1.627,-3.843 2.134,-6.847 0.346,-2.057 0.395,-4.524 0.447,-7.179 0.069,-3.537 0.146,-7.412 0.94,-11.04 0.625,0.23 1.36,0.431 2.189,0.606 0.909,0.193 1.931,0.357 3.045,0.497 0.22,0.603 0.327,1.189 0.355,1.776 0.032,0.641 -0.029,1.282 -0.136,1.943 l -0.05,0.317 0.317,-0.026 c 0.776,-0.061 1.675,-0.418 2.323,-1.143 0.092,-0.104 0.181,-0.216 0.263,-0.336 0.197,0.896 0.565,1.435 1.019,2.101 0.322,0.473 0.69,1.013 1.072,1.812 0.194,0.789 -0.429,2.198 -1.165,3.868 -0.975,2.208 -2.142,4.851 -1.953,7.313 l 10e-4,0.011 v 0.002 c 0.212,2.705 1.092,4.988 1.807,6.848 0.428,1.107 0.795,2.061 0.918,2.844 v 0.003 c 0.004,0.019 -0.001,-0.007 10e-4,0.003 l 0.001,0.002 c 0.123,0.786 0.071,1.444 -0.095,1.907 -0.085,0.235 -0.197,0.413 -0.328,0.523 -0.109,0.093 -0.235,0.137 -0.368,0.12 -0.122,-0.015 -0.26,-0.077 -0.405,-0.193 -0.689,-0.552 -0.644,-1.771 -0.596,-3.018 0.015,-0.382 0.029,-0.769 0.022,-1.147 0,0 0,0 0,-0.002 -0.001,-0.021 -0.001,-0.034 -0.001,-0.05 l -0.007,-0.365 -0.338,0.139 c -1.073,0.434 -2.146,0.996 -3.218,1.685 l -0.128,0.082 0.012,0.147 c 0.088,1.124 0.567,2.456 1.304,3.551 0.509,0.757 1.142,1.403 1.855,1.795 0.735,0.405 1.555,0.54 2.409,0.256 0.59,-0.196 1.192,-0.593 1.79,-1.242 1.91,-2.071 1.446,-4.664 0.945,-7.47 -0.403,-2.259 -0.833,-4.66 -0.012,-6.975 0.602,-1.7 1.566,-3.262 2.607,-4.776 1.941,0.952 4.244,1.167 6.959,0.545 l 0.979,-0.223 -0.97,-0.265 c -2.139,-0.582 -3.855,-1.434 -5.271,-2.473 0.145,-0.209 0.289,-0.421 0.432,-0.631 1.795,0.696 3.88,0.804 6.289,0.251 l 0.977,-0.223 -0.968,-0.264 c -1.924,-0.523 -3.506,-1.266 -4.834,-2.165 0.693,-1.321 1.198,-2.697 1.344,-4.194 0.504,-5.214 -1.745,-7.733 -3.835,-10.076 -0.054,-0.062 -0.109,-0.122 -0.163,-0.183 -0.225,-2.24 -0.445,-4.068 -1.067,-5.75 -0.628,-1.701 -1.66,-3.241 -3.502,-4.88 -1.8,-4.211 -4.064,-7.029 -6.846,-8.31 -2.769,-1.275 -6.027,-1.022 -9.817,0.901 -1.026,-0.843 -2.063,-1.4 -3.108,-1.512 -1.025,-0.107 -2.045,0.211 -3.058,1.102 0,0 -4.01563,-2.6903 -7.95888,-2.69305 -3.94325,-0.0027 -7.81412,2.68205 -7.81412,2.68205 -1.009,-0.884 -2.025,-1.199 -3.046,-1.092 -1.046,0.112 -2.08,0.669 -3.108,1.512 -3.791,-1.923 -7.048,-2.176 -9.817,-0.901 -2.781,1.28 -5.046,4.099 -6.845,8.31 -1.843,1.64 -2.875,3.179 -3.502,4.88 -0.622,1.682 -0.842,3.51 -1.067,5.75 -0.054,0.062 -0.109,0.122 -0.164,0.183 -2.089,2.342 -4.338,4.862 -3.834,10.076 0.144,1.498 0.65,2.874 1.344,4.194 -1.329,0.899 -2.912,1.642 -4.834,2.165 l -0.968,0.264 0.978,0.223 c 2.408,0.552 4.493,0.445 6.288,-0.251 0.142,0.209 0.286,0.421 0.432,0.631 -1.417,1.04 -3.133,1.891 -5.273,2.473 l -0.968,0.265 0.979,0.223 c 2.714,0.622 5.018,0.407 6.959,-0.545 1.04,1.515 2.005,3.076 2.607,4.776 0.821,2.314 0.392,4.716 -0.012,6.975 -0.502,2.806 -0.965,5.398 0.945,7.47 0.598,0.649 1.201,1.046 1.79,1.242 0.855,0.284 1.674,0.149 2.41,-0.256 0.713,-0.392 1.346,-1.038 1.855,-1.795 0.735,-1.095 1.215,-2.427 1.303,-3.551 l 0.011,-0.147 -0.127,-0.082 c -1.073,-0.688 -2.145,-1.251 -3.217,-1.685 l -0.338,-0.139 -0.007,0.365 c 0,0.016 0,0.029 -0.001,0.05 v 0.002 c -0.006,0.379 0.008,0.766 0.023,1.147 0.047,1.246 0.093,2.466 -0.596,3.018 -0.146,0.116 -0.283,0.179 -0.406,0.193 -0.133,0.017 -0.26,-0.027 -0.369,-0.12 -0.13,-0.11 -0.242,-0.288 -0.327,-0.523 -0.166,-0.463 -0.218,-1.121 -0.094,-1.907 v -0.002 c 0.002,-0.01 -0.002,0.016 0,-0.003 v -0.003 c 0.125,-0.783 0.492,-1.736 0.918,-2.844 0.717,-1.859 1.596,-4.143 1.808,-6.848 v -0.002 l 10e-4,-0.011 c 0.188,-2.462 -0.979,-5.104 -1.953,-7.313 -0.737,-1.669 -1.359,-3.079 -1.166,-3.868 0.381,-0.798 0.75,-1.339 1.073,-1.812 0.454,-0.666 0.821,-1.204 1.019,-2.101 0.082,0.121 0.17,0.233 0.263,0.336 0.648,0.725 1.546,1.082 2.323,1.143 l 0.318,0.026 -0.051,-0.317 c -0.106,-0.662 -0.166,-1.302 -0.135,-1.943 0.028,-0.587 0.135,-1.173 0.355,-1.776 1.115,-0.139 2.137,-0.304 3.044,-0.497 0.829,-0.176 1.564,-0.376 2.19,-0.606 0.794,3.628 0.871,7.502 0.941,11.04 0.052,2.655 0.101,5.123 0.447,7.179 0.506,3.004 1.354,5.006 2.133,6.847 0.478,1.129 0.929,2.196 1.256,3.4 0.57,2.099 0.871,4.208 1.172,6.318 0.149,1.053 0.301,2.106 0.479,3.14 l -0.724,3.473 c -0.867,0.513 -1.58,1.327 -2.135,2.439 -0.566,1.131 -0.85026,1.95573 -1.09726,3.71973 l 14.85116,-0.004 c -0.018,-1.138 -0.0199,-1.6186 -0.1419,-2.7676 -0.119,-1.142 -0.302,-2.283 -0.57,-3.421 -0.059,-0.511 -0.028,-1.063 0.002,-1.612 0.031,-0.555 0.063,-1.107 0.005,-1.654 0.424,-1.615 0.744,-3.196 0.999,-4.755 0.479,0.029 0.952,-0.01 1.404,-0.117 0.366,-0.085 0.719,-0.216 1.047,-0.386 z"
               inkscape:connector-curvature="0"
               style="fill:#d70000" />
            <path
               id="path5042"
               d="m 159.348,120.589 c 1.132,0.758 2.438,1.407 3.97,1.91 -1.847,0.288 -3.478,0.147 -4.908,-0.383 0.332,-0.505 0.648,-1.012 0.938,-1.527 z m -6.114,-1.563 c 0.991,1.548 2.165,2.982 3.687,4.195 1.34,1.068 2.948,1.964 4.938,2.617 -2.224,0.347 -4.131,0.072 -5.758,-0.753 -1.853,-0.941 -3.351,-2.601 -4.546,-4.879 0.059,-0.55 0.246,-0.881 0.527,-1.05 0.284,-0.171 0.682,-0.198 1.152,-0.13 z m -69.464,1.563 c -1.131,0.758 -2.438,1.407 -3.97,1.91 1.847,0.288 3.478,0.147 4.909,-0.383 -0.333,-0.505 -0.65,-1.012 -0.939,-1.527 z m 6.113,-1.563 c -0.991,1.548 -2.165,2.982 -3.685,4.195 -1.34,1.068 -2.948,1.964 -4.938,2.617 2.224,0.347 4.131,0.072 5.758,-0.753 1.851,-0.941 3.351,-2.601 4.545,-4.879 -0.057,-0.55 -0.246,-0.881 -0.526,-1.05 -0.286,-0.171 -0.684,-0.198 -1.154,-0.13 z m 31.675,15.519 0.002,0.018 c 0.131,1.158 0.241,2.278 0.352,3.396 0.005,0.044 0.01,0.089 0.014,0.135 -0.256,-0.011 -0.505,0.011 -0.739,0.062 0.006,-0.065 0.014,-0.131 0.02,-0.196 0.11,-1.118 0.221,-2.238 0.351,-3.396 z m 1.108,9.941 c 0,0.003 0,0.007 0.001,0.009 -0.333,0.192 -0.699,0.335 -1.085,0.426 -0.336,0.079 -0.686,0.117 -1.039,0.112 v 0.002 c -0.444,0.003 -0.927,-0.086 -1.35,-0.229 -1.404,-0.473 -2.691,-1.697 -3.256,-3.868 -0.51,-1.958 -0.018,-4.116 0.743,-6.186 -0.004,-5.7e-4 0.1518,-0.40216 0.153,-0.406 -0.001,0 -0.001,0 -0.001,0 0.27107,-0.63381 0.51831,-1.27576 0.793,-1.908 -0.001,0.001 0.17624,-0.3979 0.176,-0.4 0.05,-0.112 0.099,-0.224 0.147,-0.335 0.044,-0.099 0.088,-0.195 0.131,-0.294 -0.002,5.9e-4 0.17923,-0.40109 0.177,-0.398 0.093,-0.214 0.185,-0.425 0.271,-0.632 0.004,3.4e-4 0.16604,-0.40271 0.168,-0.402 0.104,-0.255 0.2,-0.502 0.288,-0.742 -0.004,0.003 0.14072,-0.40485 0.142,-0.406 0.089,-0.271 0.164,-0.531 0.223,-0.779 -9.6e-4,-0.004 0.10204,-0.51817 0.099,-0.524 0.312,-2.218 -0.595,-5.333 -1.481,-8.385 -0.296,-1.016 -0.589,-2.025 -0.835,-2.991 -0.333,-1.315 -0.148,-1.729 0.207,-3.297 0.03,-0.135 -0.056,-0.27 -0.19,-0.299 -0.135,-0.03 -0.27,0.054 -0.301,0.189 -0.143,0.629 -0.274,1.255 -0.389,1.878 -0.267,-0.316 -0.635,-0.54 -1.051,-0.676 -0.592,-0.194 -1.285,-0.211 -1.912,-0.069 -0.043,0.01 -0.086,0.021 -0.128,0.032 0.027,-1.036 0.084,-2.106 0.165,-3.204 0.002,-0.025 -0.002,-0.051 -0.007,-0.073 0.509,-0.733 0.905,-1.794 1.299,-2.848 0.353,-0.949 0.704,-1.892 1.119,-2.539 0.096,0.031 0.198,0.048 0.308,0.049 1.471,0.019 0.852,-4.391 -0.052,-4.442 -0.163,0.152 -0.307,0.315 -0.434,0.484 -0.169,-0.829 -0.548,-1.62 -0.812,-2.287 -0.14039,-0.353618 -0.27302,-0.713346 -0.391,-1.059 -0.16125,-1.982607 -1.33703,-4.363022 -1.18904,-6.14528 -0.17923,-1.296065 0.34029,-3.434297 0.67392,-4.252104 0.50444,-0.144875 6.461,-5.599564 15.06168,-0.08492 1.50421,3.373383 -0.11087,8.115342 -0.60856,10.560304 -0.021,0.048 -0.027,0.1 -0.02,0.148 -0.095,0.278 -0.204,0.554 -0.314,0.833 -0.264,0.667 -0.644,1.458 -0.812,2.287 -0.128,-0.169 -0.271,-0.332 -0.434,-0.484 -0.905,0.051 -1.523,4.461 -0.053,4.442 0.109,-0.001 0.212,-0.019 0.307,-0.049 0.416,0.647 0.767,1.59 1.121,2.539 0.393,1.054 0.79,2.115 1.297,2.848 -0.004,0.022 -0.007,0.048 -0.005,0.073 0.081,1.098 0.137,2.168 0.164,3.204 -0.041,-0.011 -0.084,-0.021 -0.127,-0.032 -0.628,-0.142 -1.321,-0.125 -1.913,0.069 -0.416,0.136 -0.784,0.36 -1.05,0.676 -0.114,-0.623 -0.246,-1.249 -0.391,-1.878 -0.029,-0.135 -0.166,-0.219 -0.3,-0.189 -0.136,0.029 -0.221,0.165 -0.189,0.299 10e-4,0.002 10e-4,0.005 0.002,0.008 h -0.007 c 0.001,0.023 0.002,0.047 0.004,0.07 l -0.006,0.002 c 0.144,0.429 0.059,1.087 0.069,1.559 0.133,5.416 -0.797,8.673 -1.845,12.343 -0.033,0.113 -0.062,0.213 -0.132,0.46 -0.0842,0.28096 -0.13426,0.52747 -0.215,0.723 -0.503,1.535 -1.282,2.873 -2.092,4.119 l -0.177,0.271 c -0.174,0.264 -0.348,0.523 -0.521,0.781 -1.104,1.647 -2.136,3.186 -2.494,4.918 -0.28,1.354 -0.12,2.672 0.308,3.617 0.215,0.472 0.498,0.857 0.831,1.115 0.186,0.143 0.386,0.245 0.597,0.304 0.218,0.046 0.429,0.057 0.636,0.035 0.409,-0.063 0.838,-0.292 1.263,-0.722 0.18,-0.183 0.227,-0.33 0.283,-0.487 -0.479,0.216 -1.024,0.168 -1.49,-0.11 0,-0.001 0.001,-0.004 0.001,-0.007 -0.233,-0.136 -0.414,-0.353 -0.525,-0.583 -0.001,-0.002 -0.002,-0.003 -0.002,-0.005 -0.001,-0.001 -0.001,-0.001 -0.001,-0.001 -0.001,-0.002 -0.001,-0.003 -0.002,-0.003 v -0.003 c -0.001,-0.001 -0.002,-0.002 -0.002,-0.002 0,-0.002 0,-0.002 -10e-4,-0.002 0,-10e-4 -0.001,-0.003 -0.002,-0.003 0,-0.001 0,-0.001 0,-0.001 -0.091,-0.192 -0.149,-0.403 -0.177,-0.617 -0.164,-1.279 0.536,-2.074 1.784,-2.037 0.254,-0.005 0.509,0.035 0.763,0.124 v 0.005 c 0.312,0.1 0.609,0.259 0.865,0.479 0.325,0.278 0.585,0.661 0.72,1.151 0.467,1.694 -0.082,3.028 -1.088,3.828 -0.001,-0.004 -0.002,-0.007 -0.002,-0.012 -0.136,0.114 -0.291,0.22 -0.46,0.316 z m -13.521,2.807 c -0.02,-0.131 -0.038,-0.262 -0.057,-0.393 -0.304,-2.13 -0.607,-4.26 -1.186,-6.382 -0.334,-1.224 -0.795,-2.313 -1.284,-3.462 -0.769,-1.813 -1.607,-3.785 -2.105,-6.735 -0.34,-2.015 -0.388,-4.467 -0.44,-7.106 -0.062,-3.097 -0.129,-6.455 -0.679,-9.701 1.839,2.509 1.935,7.282 2.017,11.408 0.049,2.455 0.094,4.684 0.5,6.128 0.722,2.563 1.438,4.48 2.042,6.097 1.328,3.557 2.107,5.644 1.192,10.146 z m -8.17027,-53.96268 6.53727,-5.09532 0.029,0.015 0.129,-0.108 c 0.999,-0.841 1.991,-1.398 2.971,-1.502 0.928,-0.098 1.859,0.215 2.799,1.085 -0.397,1.481 -0.556,2.843 -0.519,4.108 -1.057,-1.589 -2.101,-2.492 -3.05,-2.848 -0.673,-0.251 -1.301,-0.236 -1.855,0.002 -0.548,0.234 -1.018,0.682 -1.386,1.298 -0.707,1.181 -1.042,3.003 -0.819,5.123 -0.637,-0.382 -1.29,-0.642 -1.958,-0.778 -0.789,-0.162 -1.596,-0.15 -2.42,0.032 -0.26,-0.37 -0.396,-0.734 -0.321,-1.146 l -0.22753,-0.317729 z M 115.514,104.978 c -0.441,0.693 -0.801,1.658 -1.163,2.629 -0.421,1.128 -0.847,2.267 -1.386,2.932 -0.489,0.602 -1.104,0.788 -1.965,0.123 -0.656,-2.379 -1.534,-4.195 -2.554,-5.647 -1.006,-1.432 -2.151,-2.512 -3.357,-3.431 -0.167,-3.212 -1.671,-4.776 -2.811,-5.96 -0.175,-0.182 -0.341,-0.354 -0.49,-0.521 0.669,-0.118 1.324,-0.112 1.963,0.019 0.761,0.155 1.505,0.489 2.232,0.998 0.173,0.122 0.424,-0.031 0.394,-0.242 -0.328,-2.232 -0.025,-4.146 0.684,-5.333 0.314,-0.525 0.705,-0.903 1.151,-1.094 0.438,-0.188 0.94,-0.199 1.484,0.005 0.837,0.314 1.771,1.124 2.737,2.554 6.7e-4,2.36e-4 0.28357,0.427765 0.281,0.43 0.097,0.152 0.191,0.311 0.287,0.476 0.086,0.714 0.234,1.397 0.436,2.055 0.002,-9.6e-5 0.15706,0.478283 0.157,0.48 0.30479,0.839487 0.28284,1.728918 0.462,2.616 0.002,0.0022 0.15888,0.484888 0.161,0.486 0.084,0.229 0.173,0.455 0.264,0.684 0.157,0.396 0.317,0.799 0.446,1.226 0.002,-0.002 0.12679,0.49309 0.126,0.487 0.057,0.251 0.256,0.669 0.278,0.944 0.003,0.04 0.016,0.076 0.035,0.107 -0.528,1.139 -0.422,2.403 0.148,2.977 z m 0.482,13.704 c -0.018,0.695 0,1.383 0.063,2.061 0.225,2.383 1.001,4.644 2.666,6.707 -2.352,-0.484 -3.784,-2.313 -4.571,-5.024 -0.303,-1.04 -0.51,-2.21 -0.639,-3.484 0.014,-0.029 0.024,-0.059 0.028,-0.093 0.039,-0.366 0.216,-0.627 0.456,-0.788 0.177,-0.118 0.394,-0.184 0.619,-0.2 0.23,-0.017 0.467,0.02 0.678,0.106 0.315,0.127 0.58,0.367 0.7,0.715 z m 0.325,-3.281 c -0.132,0.823 -0.231,1.64 -0.286,2.447 -0.16,-0.148 -0.347,-0.264 -0.548,-0.346 -0.287,-0.118 -0.601,-0.167 -0.903,-0.145 -0.307,0.022 -0.608,0.118 -0.863,0.287 -0.107,0.072 -0.206,0.154 -0.293,0.252 -0.073,-1.094 -0.095,-2.253 -0.074,-3.464 0.083,-0.026 0.168,-0.049 0.253,-0.068 0.541,-0.124 1.137,-0.108 1.642,0.057 0.481,0.157 0.875,0.454 1.045,0.896 0.01,0.029 0.019,0.055 0.027,0.084 z m 2.49,35.14017 c -0.007,0.224 -0.019,1.14083 -0.032,1.36583 -10e-4,0.029 -0.002,0.74783 -0.004,0.77483 -1.323,-0.262 -2.605,-0.352 -3.849,-0.289 -1.35,0.066 -2.66,0.312 -3.936,0.716 -0.341,-0.094 -0.702,-0.172 -1.089,-0.231 -0.232,-0.036 -0.477,-0.065 -0.732,-0.085 l 0.35594,-2.10908 c 0.178,0.017 0.14906,0.008 0.31306,0.0334 0.398,0.061 0.76,0.142 1.102,0.235 l 0.062,0.018 0.058,-0.02 c 1.256,-0.401 2.55,-0.647 3.887,-0.714 1.251,-0.06 2.539,0.034 3.864,0.305 z m 0.021,3.30283 c 0.217,0.948 0.373,1.895 0.483,2.841 -0.295,0.161 -0.552,0.41 -0.756,0.723 -0.212,0.324 -0.367,0.72 -0.451,1.161 -0.033,-0.089 -0.069,-0.176 -0.107,-0.261 -0.502,-1.119 -1.413,-1.896 -2.38,-1.896 -0.058,0 -0.12,0.004 -0.186,0.012 -0.584,0.061 -1.079,0.406 -1.424,0.934 -0.144,0.219 -0.26,0.468 -0.347,0.744 -0.085,-0.255 -0.197,-0.489 -0.332,-0.693 -0.345,-0.528 -0.839,-0.873 -1.424,-0.935 -0.064,-0.006 -0.127,-0.01 -0.186,-0.01 -0.965,0 -1.877,0.775 -2.38,1.896 -0.039,0.089 -0.076,0.178 -0.109,0.271 -0.063,-0.57 -0.238,-1.077 -0.5,-1.478 -0.345,-0.529 -0.839,-0.873 -1.424,-0.934 -0.064,-0.008 -0.126,-0.011 -0.186,-0.011 -0.163,0 -0.323,0.022 -0.481,0.064 0.005,-0.01 0.009,-0.02 0.013,-0.028 0.534,-1.063 1.211,-1.823 2.036,-2.282 l 0.091,-0.05 c 0.38,0.017 0.729,0.053 1.057,0.103 0.398,0.061 0.76,0.143 1.102,0.237 l 0.062,0.016 0.058,-0.02 c 1.256,-0.401 2.55,-0.646 3.887,-0.714 1.257,-0.06 2.551,0.034 3.884,0.31 z m -13.142,5.367 c 0.173,-0.852 0.392,-1.61 0.656,-2.275 0.249,-0.145 0.511,-0.225 0.777,-0.225 0.05,0 0.095,0.003 0.135,0.006 0.424,0.044 0.792,0.306 1.054,0.708 0.276,0.425 0.44,1.007 0.44,1.663 0,0.041 0,0.082 -10e-4,0.123 z m 13.686,-1.967 c 0.064,0.654 0.108,1.308 0.136,1.967 h -0.969 c 0.021,-0.603 0.179,-1.135 0.438,-1.53 0.113,-0.174 0.246,-0.323 0.395,-0.437 z m -5.383,1.967 c 0.013,-0.625 0.174,-1.175 0.439,-1.583 0.264,-0.4 0.63,-0.662 1.054,-0.706 0.04,-0.004 0.085,-0.007 0.135,-0.007 0.761,0 1.498,0.653 1.921,1.598 0.084,0.187 0.155,0.39 0.213,0.599 0.009,0.033 0.018,0.065 0.025,0.1 h -3.787 z m -4.416,0 c 0.005,-0.017 0.009,-0.033 0.013,-0.048 0.058,-0.211 0.129,-0.411 0.213,-0.599 0.423,-0.944 1.161,-1.599 1.921,-1.599 0.05,0 0.095,0.003 0.135,0.007 0.424,0.045 0.79,0.305 1.054,0.708 0.259,0.396 0.418,0.928 0.438,1.53 h -3.774 z m -13.264,-42.53 c -0.686,-0.205 -1.297,-0.647 -1.673,-1.257 h -0.001 c -0.171,-0.276 -0.288,-0.565 -0.396,-0.86 0.124,-1.473 0.628,-2.174 1.108,-2.841 0.173,-0.24 0.343,-0.477 0.494,-0.741 -0.059,0.401 -0.173,0.791 -0.285,1.181 -0.385,1.329 -0.769,2.66 0.753,4.518 z m -4.538,4.188 c 0.2,0.827 0.642,1.826 1.132,2.934 0.942,2.129 2.068,4.673 1.921,6.991 -0.002,0.023 -0.022,0.279 -0.024,0.304 -0.235,2.55 -1.074,4.718 -1.759,6.494 -0.437,1.132 -0.814,2.107 -0.947,2.946 h -0.001 c -10e-4,0.008 -10e-4,0.009 -10e-4,0.011 -0.137,0.874 -0.075,1.617 0.117,2.149 0.115,0.321 0.279,0.573 0.478,0.739 0.219,0.186 0.476,0.27 0.754,0.236 0.216,-0.026 0.441,-0.122 0.663,-0.3 0.889,-0.711 0.838,-2.054 0.786,-3.429 -0.01,-0.268 -0.021,-0.536 -0.022,-0.798 0.888,0.382 1.778,0.854 2.667,1.415 -0.11,1.012 -0.55,2.188 -1.207,3.162 -0.467,0.693 -1.043,1.282 -1.685,1.633 -0.619,0.34 -1.304,0.454 -2.015,0.219 -0.513,-0.171 -1.045,-0.523 -1.583,-1.103 -1.745,-1.89 -1.301,-4.364 -0.822,-7.044 0.092,-0.512 0.186,-1.032 0.266,-1.557 l 0.047,-0.332 c 0.063,-0.443 0.114,-0.89 0.144,-1.34 l 0.019,-0.333 c 0.012,-0.268 0.017,-0.534 0.011,-0.802 l -0.011,-0.336 c -0.021,-0.399 -0.063,-0.801 -0.135,-1.2 l -0.066,-0.332 c -0.073,-0.332 -0.167,-0.666 -0.285,-0.998 -0.01,-0.029 -0.021,-0.06 -0.031,-0.088 l -0.119,-0.314 c -0.265,-0.675 -0.581,-1.328 -0.931,-1.963 l -0.165,-0.292 c -0.171,-0.299 -0.349,-0.594 -0.532,-0.883 l -0.18,-0.283 c -0.222,-0.344 -0.45,-0.684 -0.682,-1.021 1.679,-0.946 3.067,-2.464 4.198,-4.485 z m 42.198,26.424 c 0.019,-0.131 0.036,-0.262 0.055,-0.393 0.305,-2.13 0.608,-4.26 1.188,-6.382 0.334,-1.224 0.795,-2.313 1.283,-3.462 0.77,-1.813 1.607,-3.785 2.104,-6.735 0.34,-2.015 0.39,-4.467 0.441,-7.106 0.062,-3.097 0.128,-6.455 0.679,-9.701 -1.839,2.509 -1.937,7.282 -2.018,11.408 -0.05,2.455 -0.094,4.684 -0.499,6.128 -0.722,2.563 -1.438,4.48 -2.042,6.097 -1.327,3.557 -2.107,5.644 -1.191,10.146 z m 8.028,-53.801 -6.397,-5.257 -0.028,0.015 -0.129,-0.108 c -0.998,-0.841 -1.991,-1.398 -2.971,-1.502 -0.927,-0.098 -1.859,0.215 -2.799,1.085 0.397,1.481 0.555,2.843 0.52,4.108 1.055,-1.589 2.1,-2.492 3.049,-2.848 0.673,-0.251 1.301,-0.236 1.855,0.002 0.549,0.234 1.019,0.682 1.387,1.298 0.705,1.181 1.041,3.003 0.818,5.123 0.638,-0.382 1.29,-0.642 1.958,-0.778 0.788,-0.162 1.595,-0.15 2.42,0.032 0.26,-0.37 0.396,-0.734 0.321,-1.146 -0.001,-0.008 -0.003,-0.016 -0.004,-0.024 z m -14.399,11.486 c 0.442,0.693 0.803,1.658 1.164,2.629 0.421,1.128 0.847,2.267 1.387,2.932 0.488,0.602 1.102,0.788 1.964,0.123 0.656,-2.379 1.534,-4.195 2.555,-5.647 1.006,-1.432 2.149,-2.512 3.355,-3.431 0.168,-3.212 1.673,-4.776 2.811,-5.96 0.176,-0.182 0.342,-0.354 0.491,-0.521 -0.669,-0.118 -1.324,-0.112 -1.963,0.019 -0.761,0.155 -1.505,0.489 -2.232,0.998 -0.172,0.122 -0.424,-0.031 -0.394,-0.242 0.328,-2.232 0.026,-4.146 -0.684,-5.333 -0.313,-0.525 -0.705,-0.903 -1.152,-1.094 -0.438,-0.188 -0.939,-0.199 -1.483,0.005 -0.838,0.314 -1.771,1.124 -2.737,2.554 -0.005,-0.0017 -0.27484,0.426698 -0.281,0.43 -0.095,0.152 -0.189,0.311 -0.286,0.476 -0.086,0.714 -0.234,1.397 -0.437,2.055 0.002,3.93e-4 -0.14881,0.480447 -0.158,0.48 -0.30456,0.839501 -0.28242,1.728772 -0.461,2.616 -0.001,-0.0027 -0.16078,0.493461 -0.162,0.486 -0.084,0.229 -0.173,0.455 -0.264,0.684 -0.157,0.396 -0.317,0.799 -0.445,1.226 -4.7e-4,0.004 -0.12629,0.49366 -0.128,0.487 -0.056,0.251 -0.256,0.669 -0.278,0.944 -0.002,0.04 -0.014,0.076 -0.033,0.107 0.528,1.139 0.422,2.403 -0.149,2.977 z m -8.757,23.005 c -2.695,-0.451 -4.309,-2.435 -5.175,-5.417 -0.859,-2.965 -0.978,-6.921 -0.684,-11.331 -0.624,0.521 -1.38,0.563 -2.367,-0.234 -0.019,-0.016 -0.078,-0.106 -0.085,-0.129 -0.641,-2.355 -1.501,-4.145 -2.502,-5.569 -1,-1.422 -2.14,-2.486 -3.341,-3.391 -0.037,-0.027 -0.1,-0.144 -0.102,-0.19 -0.128,-3.104 -1.579,-4.612 -2.673,-5.75 -0.691,-0.719 -1.252,-1.302 -1.323,-2.052 l 6.76406,-6.013594 c -0.17661,0.632422 -9.730133,-7.232615 -16.195808,7.369646 -2.109301,2.16358 -3.201104,3.494266 -3.946252,6.657948 -0.248,1.167 -0.39,2.438 -0.535,3.888 l -0.008,0.083 -0.054,0.059 c -0.073,0.082 -0.145,0.164 -0.218,0.245 -0.757,0.847 -1.537,1.718 -2.189,2.737 -3.59e-4,-1.8e-4 -0.194179,0.31405 -0.193,0.314 -0.255,0.427 -0.486,0.88 -0.683,1.369 -0.0011,6.7e-4 -0.126245,0.32474 -0.125,0.325 -0.099,0.275 -0.188,0.562 -0.266,0.859 3.3e-4,0.002 -0.07876,0.32381 -0.078,0.327 -0.195,0.876 -0.287,1.857 -0.239,2.973 -0.0091,0.002 0.01595,0.33597 0.019,0.336 0.009,0.149 0.022,0.3 0.037,0.455 0.068,0.7 0.222,1.377 0.44,2.035 0.0029,0.004 0.111872,0.32347 0.113,0.324 0.123,0.332 0.261,0.661 0.412,0.985 -2.44e-4,0.003 0.146947,0.30394 0.145,0.303 0.133,0.268 0.274,0.534 0.423,0.797 -0.0036,0.003 0.176346,0.31425 0.179,0.31 0.437,0.747 0.927,1.479 1.438,2.211 0.017,-0.016 0.035,-0.029 0.052,-0.043 1.476,-1.177 2.616,-2.567 3.577,-4.072 10e-4,-0.001 10e-4,-0.003 10e-4,-0.004 0.234,-1.12 0.576,-2.094 1.014,-2.935 0.442,-0.848 0.984,-1.561 1.616,-2.154 0.101,-0.095 0.261,-0.09 0.356,0.011 0.095,0.101 0.09,0.259 -0.011,0.354 -0.59,0.554 -1.098,1.224 -1.514,2.02 -0.372,0.714 -0.67,1.53 -0.889,2.456 0.488,-0.043 0.919,0.015 1.263,0.222 0.227,0.136 0.412,0.331 0.545,0.596 0.363,-0.723 0.712,-1.233 1.02,-1.683 0.532,-0.779 0.935,-1.37 1.054,-2.638 -0.093,-1.266 0.337,-2.323 1.167,-3.474 0.311,-0.433 0.613,-0.852 0.792,-1.448 -0.003,-0.047 0.014,-0.091 0.045,-0.124 0.286,-0.722 0.685,-0.935 1.069,-1.139 0.326,-0.173 0.64,-0.339 0.826,-0.911 0.029,-0.087 0.124,-0.135 0.212,-0.106 0.088,0.029 0.136,0.123 0.107,0.211 -0.228,0.698 -0.6,0.896 -0.987,1.102 -0.301,0.159 -0.612,0.326 -0.85,0.816 0.832,-0.039 1.562,-0.16 2.168,-0.381 0.644,-0.235 1.15,-0.584 1.487,-1.067 0.053,-0.076 0.159,-0.094 0.234,-0.041 0.076,0.053 0.095,0.157 0.042,0.233 -0.379,0.542 -0.938,0.931 -1.649,1.189 -0.661,0.241 -1.455,0.371 -2.355,0.407 0.031,0.708 -0.153,1.347 -0.337,1.985 -0.36,1.244 -0.719,2.489 0.692,4.217 -0.056,-0.483 -0.082,-0.958 -0.058,-1.43 0.034,-0.682 0.166,-1.366 0.444,-2.075 l 0.055,-0.139 0.149,-0.019 c 1.166,-0.142 2.227,-0.31 3.16,-0.507 0.93,-0.197 1.733,-0.424 2.388,-0.687 l 0.273,-0.109 0.022,0.098 c 0.471,-0.31 0.614,-1.235 0.622,-2.411 -0.024,-0.062 -0.023,-0.129 10e-4,-0.188 -10e-4,-0.09 -0.002,-0.18 -0.004,-0.272 -0.013,-0.729 -0.068,-1.548 -0.125,-2.366 -0.093,-1.368 -0.186,-2.738 -0.081,-3.808 0.004,-0.041 0.008,-0.079 0.008,-0.081 0.015,-0.137 0.14,-0.237 0.277,-0.222 0.138,0.014 0.238,0.138 0.223,0.275 -0.005,0.05 -0.007,0.065 -0.008,0.077 -0.077,0.782 -0.039,1.768 0.024,2.801 l 1.449,1.565 c 0.094,0.101 0.088,0.261 -0.014,0.354 -0.103,0.094 -0.262,0.088 -0.356,-0.013 l -1.026,-1.109 c 0.003,0.043 0.006,0.085 0.009,0.128 0.055,0.814 0.11,1.627 0.124,2.391 0.003,0.111 0.004,0.222 0.004,0.33 l 1.042,1.616 c 0.075,0.117 0.041,0.272 -0.076,0.347 -0.118,0.075 -0.273,0.041 -0.348,-0.075 l -0.648,-1.006 c -0.082,1.092 -0.348,1.91 -0.98,2.183 0.032,0.15 0.063,0.299 0.094,0.45 0.022,0.01 0.044,0.025 0.063,0.041 0.002,0.002 0.033,0.034 0.036,0.036 2.401,2.461 2.507,7.746 2.598,12.267 0.048,2.423 0.092,4.624 0.479,6.003 0.718,2.553 1.429,4.454 2.028,6.058 1.481,3.969 2.296,6.151 0.924,11.701 0.041,0.273 0.085,0.545 0.13,0.817 0.146,0.016 0.286,0.035 0.424,0.056 0.387,0.06 0.748,0.139 1.089,0.231 0.015,-0.006 0.028,-0.01 0.042,-0.014 0.652,-5.548 -0.427,-10.087 -1.561,-14.849 -1.584,-6.645 -3.27,-13.723 -0.562,-24.587 0.034,-0.134 0.17,-0.216 0.305,-0.183 0.136,0.033 0.218,0.169 0.184,0.303 -2.678,10.744 -1.007,17.762 0.563,24.352 1.131,4.745 2.208,9.271 1.596,14.809 1.096,-0.303 2.219,-0.491 3.369,-0.547 1.313,-0.065 2.668,0.039 4.067,0.334 0.325,-1.328 0.581,-2.634 0.795,-3.926 -0.023,-0.005 -0.046,-0.007 -0.068,-0.012 -1.809,-0.327 -3.566,-1.688 -4.271,-4.396 -0.646,-2.486 0.203,-5.21 1.235,-7.705 0.005,-0.036 0.019,-0.068 0.04,-0.096 0.279,-0.67 0.487,-1.14 0.763,-1.762 0.222,-0.501 0.443,-1 0.665,-1.534 0.296,-0.719 0.544,-1.388 0.688,-1.98 z m 3.217,6.543 c 0.126,1.109 0.238,2.247 0.35,3.384 0.009,0.082 0.017,0.162 0.024,0.243 0.009,0.002 0.018,0.006 0.026,0.007 0.485,0.103 0.966,0.319 1.365,0.663 0.396,0.343 0.713,0.806 0.876,1.4 0.533,1.929 -0.115,3.455 -1.285,4.371 -0.066,0.053 -0.136,0.103 -0.206,0.15 0.234,1.528 0.525,3.075 0.912,4.651 1.399,-0.295 2.754,-0.399 4.066,-0.334 1.151,0.056 2.273,0.244 3.369,0.547 -0.612,-5.538 0.466,-10.063 1.596,-14.809 1.568,-6.59 3.24,-13.608 0.562,-24.352 -0.032,-0.134 0.049,-0.27 0.184,-0.303 0.136,-0.033 0.272,0.049 0.305,0.183 2.708,10.864 1.022,17.942 -0.56,24.587 -1.134,4.762 -2.215,9.301 -1.562,14.849 0.015,0.004 0.028,0.008 0.041,0.014 0.343,-0.093 0.703,-0.172 1.09,-0.231 0.138,-0.021 0.279,-0.04 0.424,-0.056 0.046,-0.272 0.09,-0.544 0.13,-0.817 -1.371,-5.55 -0.557,-7.732 0.925,-11.701 0.6,-1.604 1.31,-3.505 2.028,-6.058 0.387,-1.379 0.431,-3.58 0.479,-6.003 0.09,-4.521 0.196,-9.806 2.598,-12.267 0.002,-0.002 0.033,-0.034 0.035,-0.036 0.02,-0.016 0.041,-0.031 0.063,-0.041 0.03,-0.15 0.063,-0.299 0.094,-0.45 -0.634,-0.273 -0.898,-1.091 -0.98,-2.183 l -0.647,1.006 c -0.075,0.116 -0.23,0.149 -0.348,0.075 -0.118,-0.075 -0.15,-0.23 -0.076,-0.347 l 1.042,-1.616 c 0,-0.108 0.001,-0.219 0.003,-0.33 0.015,-0.764 0.069,-1.577 0.125,-2.391 0.003,-0.043 0.006,-0.085 0.008,-0.128 l -1.025,1.109 c -0.094,0.101 -0.253,0.107 -0.355,0.013 -0.103,-0.093 -0.108,-0.252 -0.016,-0.354 l 1.449,-1.565 c 0.064,-1.033 0.102,-2.019 0.024,-2.801 0,-0.011 -0.003,-0.027 -0.008,-0.077 -0.015,-0.137 0.084,-0.261 0.224,-0.275 0.137,-0.016 0.262,0.084 0.276,0.222 0,0.002 0.005,0.04 0.009,0.081 0.105,1.07 0.011,2.44 -0.081,3.808 -0.056,0.818 -0.112,1.637 -0.126,2.366 -0.001,0.092 -0.003,0.182 -0.003,0.272 0.024,0.059 0.024,0.126 0,0.188 0.009,1.176 0.151,2.101 0.623,2.411 l 0.022,-0.098 0.272,0.109 c 0.653,0.263 1.458,0.49 2.389,0.687 0.933,0.197 1.994,0.365 3.159,0.507 l 0.149,0.019 0.055,0.139 c 0.279,0.709 0.412,1.393 0.444,2.075 0.023,0.472 -0.002,0.947 -0.058,1.43 1.411,-1.728 1.053,-2.973 0.692,-4.217 -0.184,-0.638 -0.369,-1.277 -0.338,-1.985 -0.9,-0.036 -1.693,-0.166 -2.354,-0.407 -0.711,-0.258 -1.27,-0.647 -1.649,-1.189 -0.053,-0.076 -0.034,-0.18 0.041,-0.233 0.077,-0.053 0.182,-0.035 0.234,0.041 0.338,0.483 0.843,0.832 1.488,1.067 0.606,0.221 1.336,0.342 2.168,0.381 -0.237,-0.49 -0.55,-0.657 -0.85,-0.816 -0.387,-0.206 -0.759,-0.404 -0.987,-1.102 -0.029,-0.088 0.02,-0.182 0.106,-0.211 0.089,-0.028 0.184,0.02 0.213,0.106 0.186,0.572 0.499,0.738 0.826,0.911 0.383,0.204 0.782,0.417 1.069,1.139 0.03,0.033 0.048,0.077 0.045,0.124 0.178,0.596 0.48,1.015 0.791,1.448 0.828,1.151 1.258,2.208 1.166,3.474 0.118,1.268 0.521,1.858 1.054,2.638 0.308,0.45 0.657,0.96 1.02,1.683 0.133,-0.265 0.318,-0.46 0.545,-0.596 0.345,-0.207 0.775,-0.265 1.264,-0.222 -0.219,-0.925 -0.519,-1.741 -0.89,-2.456 -0.417,-0.796 -0.925,-1.466 -1.514,-2.02 -0.102,-0.095 -0.106,-0.253 -0.012,-0.354 0.096,-0.101 0.254,-0.106 0.355,-0.011 0.633,0.593 1.176,1.307 1.617,2.154 0.438,0.841 0.779,1.815 1.014,2.935 0,10e-4 0,0.003 0.001,0.004 0.962,1.505 2.101,2.895 3.576,4.072 0.019,0.014 0.035,0.027 0.053,0.043 0.511,-0.733 1.001,-1.465 1.438,-2.211 -3.1e-4,-3.4e-4 0.17998,-0.31156 0.179,-0.31 0.149,-0.264 0.291,-0.53 0.423,-0.797 0.002,-1.5e-4 0.15248,-0.30519 0.148,-0.303 0.15,-0.324 0.289,-0.653 0.41,-0.985 0.003,-10e-5 0.11686,-0.3225 0.115,-0.324 0.218,-0.658 0.371,-1.335 0.438,-2.035 0.016,-0.155 0.027,-0.306 0.037,-0.455 0.003,-0.005 0.019,-0.33548 0.018,-0.336 0.047,-1.115 -0.045,-2.097 -0.239,-2.973 0.002,-9.1e-4 -0.0769,-0.32773 -0.079,-0.327 -0.078,-0.297 -0.167,-0.584 -0.268,-0.859 -8e-5,3e-5 -0.12152,-0.32448 -0.122,-0.325 -0.198,-0.489 -0.431,-0.942 -0.684,-1.369 -0.011,-0.0123 -0.19261,-0.31167 -0.194,-0.314 -0.652,-1.019 -1.432,-1.89 -2.189,-2.737 -0.072,-0.081 -0.146,-0.163 -0.218,-0.245 l -0.054,-0.059 -0.008,-0.083 c -0.146,-1.45 -0.24112,-2.81475 -0.48712,-3.98175 -1.15469,-4.332104 -3.14122,-5.558684 -4.03161,-6.468619 -3.24937,-7.171869 -7.69961,-11.313167 -16.03535,-7.385456 L 142.52,93.922 c -0.07,0.75 -0.632,1.333 -1.322,2.052 -1.095,1.138 -2.546,2.646 -2.675,5.75 -0.001,0.046 -0.063,0.163 -0.1,0.19 -1.201,0.905 -2.343,1.969 -3.342,3.391 -1,1.425 -1.861,3.214 -2.502,5.569 -0.006,0.022 -0.067,0.113 -0.085,0.129 -0.986,0.797 -1.743,0.755 -2.366,0.234 0.292,4.41 0.176,8.366 -0.686,11.331 -0.874,3.013 -2.514,5.008 -5.258,5.432 -0.574,1.845 -1.526,3.393 -2.481,4.831 z m 2.244,16.01517 c 0.007,0.224 0.02,1.83266 0.033,2.05766 0.001,0.029 0.002,0.056 0.004,0.083 1.322,-0.262 2.604,-0.352 3.848,-0.289 1.351,0.066 2.661,0.312 3.935,0.716 0.343,-0.094 0.703,-0.172 1.09,-0.231 0.233,-0.036 0.478,-0.065 0.733,-0.085 l -0.46947,-2.11634 c -0.4363,0.0727 -0.87259,0.16804 -1.30353,0.27568 l -0.06,0.018 -0.06,-0.02 c -1.255,-0.401 -2.549,-0.647 -3.886,-0.714 -1.25,-0.06 -2.538,0.034 -3.864,0.305 z m -0.02,3.30283 c -0.217,0.948 -0.374,1.895 -0.483,2.841 0.295,0.161 0.552,0.41 0.757,0.723 0.211,0.324 0.366,0.72 0.45,1.161 0.034,-0.089 0.069,-0.176 0.107,-0.261 0.502,-1.119 1.414,-1.896 2.38,-1.896 0.059,0 0.121,0.004 0.187,0.012 0.583,0.061 1.078,0.406 1.424,0.934 0.143,0.219 0.26,0.468 0.347,0.744 0.085,-0.255 0.197,-0.489 0.331,-0.693 0.345,-0.528 0.839,-0.873 1.424,-0.935 0.065,-0.006 0.127,-0.01 0.186,-0.01 0.966,0 1.878,0.775 2.381,1.896 0.038,0.089 0.074,0.178 0.109,0.271 0.063,-0.57 0.236,-1.077 0.498,-1.478 0.346,-0.529 0.841,-0.873 1.425,-0.934 0.065,-0.008 0.128,-0.011 0.186,-0.011 0.164,0 0.324,0.022 0.482,0.064 -0.005,-0.01 -0.009,-0.02 -0.014,-0.028 -0.533,-1.063 -1.212,-1.823 -2.034,-2.282 l -0.093,-0.05 c -0.379,0.017 -0.729,0.053 -1.056,0.103 -0.397,0.061 -0.761,0.143 -1.103,0.237 l -0.06,0.016 -0.06,-0.02 c -1.255,-0.401 -2.549,-0.646 -3.886,-0.714 -1.258,-0.06 -2.552,0.034 -3.885,0.31 z m 13.141,5.367 c -0.172,-0.852 -0.392,-1.61 -0.657,-2.275 -0.248,-0.145 -0.511,-0.225 -0.777,-0.225 -0.05,0 -0.094,0.003 -0.134,0.006 -0.425,0.044 -0.791,0.306 -1.054,0.708 -0.277,0.425 -0.44,1.007 -0.44,1.663 0,0.041 0.001,0.082 0.002,0.123 z m -13.686,-1.967 c -0.063,0.654 -0.107,1.308 -0.134,1.967 h 0.968 c -0.021,-0.603 -0.18,-1.135 -0.438,-1.53 -0.114,-0.174 -0.247,-0.323 -0.396,-0.437 z m 5.385,1.967 c -0.014,-0.625 -0.174,-1.175 -0.439,-1.583 -0.265,-0.4 -0.631,-0.662 -1.055,-0.706 -0.04,-0.004 -0.085,-0.007 -0.135,-0.007 -0.761,0 -1.497,0.653 -1.921,1.598 -0.085,0.187 -0.155,0.39 -0.213,0.599 -0.009,0.033 -0.017,0.065 -0.025,0.1 h 3.788 z m 4.415,0 c -0.004,-0.017 -0.008,-0.033 -0.013,-0.048 -0.057,-0.211 -0.13,-0.411 -0.213,-0.599 -0.423,-0.944 -1.161,-1.599 -1.921,-1.599 -0.05,0 -0.096,0.003 -0.135,0.007 -0.425,0.045 -0.791,0.305 -1.054,0.708 -0.259,0.396 -0.418,0.928 -0.438,1.53 h 3.774 z m 13.263,-42.53 c 0.686,-0.205 1.298,-0.647 1.674,-1.257 h 0.001 c 0.17,-0.276 0.287,-0.565 0.395,-0.86 -0.122,-1.473 -0.627,-2.174 -1.107,-2.841 -0.173,-0.24 -0.343,-0.477 -0.493,-0.741 0.06,0.401 0.173,0.791 0.285,1.181 0.383,1.329 0.768,2.66 -0.755,4.518 z m 4.538,4.188 c -0.2,0.827 -0.642,1.826 -1.132,2.934 -0.942,2.129 -2.067,4.673 -1.921,6.991 0.003,0.023 0.022,0.279 0.025,0.304 0.234,2.55 1.073,4.718 1.758,6.494 0.438,1.132 0.814,2.107 0.947,2.946 h 0.001 c 0.002,0.008 0.002,0.009 0.002,0.011 h -0.002 c 0.139,0.874 0.076,1.617 -0.116,2.149 -0.114,0.321 -0.279,0.573 -0.478,0.739 -0.219,0.186 -0.475,0.27 -0.754,0.236 -0.217,-0.026 -0.441,-0.122 -0.663,-0.3 -0.889,-0.711 -0.838,-2.054 -0.786,-3.429 0.011,-0.268 0.021,-0.536 0.022,-0.798 -0.888,0.382 -1.777,0.854 -2.667,1.415 0.11,1.012 0.552,2.188 1.208,3.162 0.467,0.693 1.042,1.282 1.684,1.633 0.619,0.34 1.305,0.454 2.016,0.219 0.512,-0.171 1.045,-0.523 1.581,-1.103 1.746,-1.89 1.303,-4.364 0.822,-7.044 -0.091,-0.512 -0.185,-1.032 -0.265,-1.557 l -0.049,-0.332 c -0.062,-0.443 -0.112,-0.89 -0.144,-1.34 l -0.02,-0.333 c -0.012,-0.268 -0.016,-0.534 -0.011,-0.802 l 0.01,-0.336 c 0.02,-0.399 0.063,-0.801 0.134,-1.2 l 0.067,-0.332 c 0.073,-0.332 0.167,-0.666 0.286,-0.998 0.01,-0.029 0.019,-0.06 0.03,-0.088 l 0.119,-0.314 c 0.266,-0.675 0.581,-1.328 0.931,-1.963 l 0.167,-0.292 c 0.169,-0.299 0.349,-0.594 0.531,-0.883 l 0.179,-0.283 c 0.222,-0.344 0.45,-0.684 0.682,-1.021 -1.675,-0.946 -3.062,-2.464 -4.194,-4.485 z m -24.546,-5.468 c 0.132,0.823 0.232,1.64 0.285,2.447 0.16,-0.148 0.348,-0.264 0.548,-0.346 0.287,-0.118 0.603,-0.167 0.905,-0.145 0.307,0.022 0.606,0.118 0.862,0.287 0.106,0.072 0.207,0.154 0.294,0.252 0.072,-1.094 0.094,-2.253 0.072,-3.464 -0.083,-0.026 -0.167,-0.049 -0.252,-0.068 -0.54,-0.124 -1.137,-0.108 -1.642,0.057 -0.48,0.157 -0.876,0.454 -1.045,0.896 -0.009,0.029 -0.019,0.055 -0.027,0.084 z m -10.115,1.022 c -0.096,0.739 -0.158,1.471 -0.181,2.193 0.004,0.029 0.003,0.057 -0.003,0.085 -0.017,0.675 0,1.342 0.063,1.997 0.209,2.227 0.92,4.343 2.434,6.281 0.119,-2.086 -0.703,-4.918 -1.513,-7.698 -0.281,-0.971 -0.562,-1.935 -0.8,-2.858 z m 8.038,9.719 c 1.108,-1.704 1.659,-3.533 1.838,-5.444 0.062,-0.654 0.08,-1.322 0.063,-1.997 -0.005,-0.028 -0.007,-0.056 -0.002,-0.085 -0.028,-0.898 -0.12,-1.812 -0.257,-2.735 -0.041,4.283 -0.774,7.195 -1.642,10.261 z m 2.404,-7.46 c 0.019,0.695 -0.001,1.383 -0.065,2.061 -0.223,2.383 -1,4.644 -2.665,6.707 2.353,-0.484 3.784,-2.313 4.571,-5.024 0.303,-1.04 0.511,-2.21 0.64,-3.484 -0.015,-0.029 -0.026,-0.059 -0.029,-0.093 -0.039,-0.366 -0.215,-0.627 -0.457,-0.788 -0.177,-0.118 -0.393,-0.184 -0.618,-0.2 -0.231,-0.017 -0.466,0.02 -0.678,0.106 -0.315,0.127 -0.58,0.367 -0.699,0.715 z m -5.995,23.831 c -0.446,0.255 -0.885,0.259 -1.313,-0.071 -0.267,-0.205 -0.498,-0.524 -0.68,-0.925 -0.39,-0.858 -0.532,-2.064 -0.273,-3.311 0.329,-1.593 1.292,-3.058 2.338,-4.618 l -0.146,0.938 c -0.125,1.109 -0.237,2.247 -0.35,3.384 -0.014,0.142 -0.027,0.281 -0.042,0.423 -0.226,0.107 -0.422,0.252 -0.576,0.431 -0.411,0.475 -0.59,1.228 -0.5,1.933 0.034,0.27 0.109,0.536 0.223,0.773 0.257,0.535 0.732,0.931 1.319,1.043 z m -1.112,16.698 h 3.086 c 0.03,-0.745 0.083,-1.492 0.162,-2.241 0.12,-1.142 0.304,-2.283 0.573,-3.421 0.058,-0.511 0.027,-1.063 -0.004,-1.612 -0.03,-0.555 -0.061,-1.107 -0.004,-1.654 -0.47,-1.789 -0.813,-3.536 -1.082,-5.259 -0.329,0.17 -0.684,0.301 -1.051,0.387 -0.452,0.107 -0.928,0.146 -1.407,0.117 -0.257,1.559 -0.577,3.14 -1.002,4.755 0.059,0.547 0.026,1.1 -0.004,1.654 -0.031,0.55 -0.063,1.102 -0.003,1.612 0.269,1.138 0.452,2.279 0.572,3.421 0.08,0.749 0.132,1.496 0.164,2.241 z"
               inkscape:connector-curvature="0"
               style="fill:#ffffff" />
            <path
               id="path5044"
               d="m 148.509,100.898 c 1.691,0.562 4.434,2.071 3.456,3.456 -0.429,0.606 -1.836,0.523 -2.268,0.011 -0.718,-0.853 -0.468,-2.747 -1.188,-3.467 z m 0.208,-1.777 c -0.038,-0.134 -0.177,-0.211 -0.31,-0.174 -0.133,0.038 -0.212,0.176 -0.174,0.309 0.323,1.137 1.174,1.221 2.109,1.313 1.125,0.11 2.396,0.236 2.672,2.886 0.014,0.138 0.138,0.238 0.275,0.224 0.138,-0.013 0.237,-0.137 0.225,-0.275 -0.318,-3.058 -1.808,-3.205 -3.123,-3.334 -0.756,-0.075 -1.446,-0.143 -1.674,-0.949 z m -53.537,1.777 c -1.691,0.562 -4.434,2.071 -3.455,3.456 0.429,0.606 1.836,0.523 2.267,0.011 0.718,-0.853 0.468,-2.747 1.188,-3.467 z m 27.16,39.277 c 0.558,0.005 0.891,-0.814 1.39,-0.37 0.5,0.443 -0.253,1.732 -1.538,1.801 -1.284,0.07 -1.683,-1.297 -1.241,-1.671 0.442,-0.375 0.831,0.237 1.389,0.24 z M 94.972,99.121 c 0.038,-0.134 0.177,-0.211 0.31,-0.174 0.134,0.038 0.211,0.176 0.172,0.309 -0.322,1.137 -1.172,1.221 -2.109,1.313 -1.125,0.11 -2.396,0.236 -2.672,2.886 -0.014,0.138 -0.137,0.238 -0.275,0.224 -0.137,-0.013 -0.238,-0.137 -0.224,-0.275 0.318,-3.058 1.807,-3.205 3.122,-3.334 0.758,-0.075 1.447,-0.143 1.676,-0.949 z"
               inkscape:connector-curvature="0"
               style="fill:#d70000" />
          </g>
          <g
             id="g5052"
             style="stroke:#d70000;stroke-width:0.40000001">
            <path
               id="path5048"
               d="m 194.14336,91.794287 -6.99244,5.761374"
               inkscape:connector-curvature="0" />
            <path
               id="path5050"
               d="m 222.28935,91.794276 6.99244,5.761374"
               inkscape:connector-curvature="0" />
          </g>
        </g>
        <g
           id="g5062"
           style="fill:none;stroke:#d70000">
          <path
             id="path5056"
             d="m 1451.6902,456.21084 c 6.9344,1.17025 17.8728,1.41751 24.572,0"
             inkscape:connector-curvature="0" />
          <path
             id="path5058"
             d="m 1578.964,456.21039 c 6.9344,1.17025 17.8728,1.41751 24.572,0"
             inkscape:connector-curvature="0" />
          <path
             id="path5060"
             d="m 1508.7007,456.21057 c 12.338,1.21382 24.9625,1.37677 38.007,0"
             inkscape:connector-curvature="0" />
        </g>
      </g>
    </g>
  </g>
</svg>
