<?xml version="1.0" encoding="UTF-8" standalone="no"?>
<!-- Created with Inkscape (http://www.inkscape.org/) -->

<svg
   xmlns:dc="http://purl.org/dc/elements/1.1/"
   xmlns:cc="http://creativecommons.org/ns#"
   xmlns:rdf="http://www.w3.org/1999/02/22-rdf-syntax-ns#"
   xmlns:svg="http://www.w3.org/2000/svg"
   xmlns="http://www.w3.org/2000/svg"
   xmlns:sodipodi="http://sodipodi.sourceforge.net/DTD/sodipodi-0.dtd"
   xmlns:inkscape="http://www.inkscape.org/namespaces/inkscape"
   id="svg2"
   version="1.1"
   inkscape:version="0.48.2 r9819"
   width="64.791565"
   height="33.969849"
   sodipodi:docname="army.svg">
  <metadata
     id="metadata8">
    <rdf:RDF>
      <cc:Work
         rdf:about="">
        <dc:format>image/svg+xml</dc:format>
        <dc:type
           rdf:resource="http://purl.org/dc/dcmitype/StillImage" />
        <dc:title />
      </cc:Work>
    </rdf:RDF>
  </metadata>
  <defs
     id="defs6">
    <inkscape:perspective
       sodipodi:type="inkscape:persp3d"
       inkscape:vp_x="0 : 0.5 : 1"
       inkscape:vp_y="0 : 1000 : 0"
       inkscape:vp_z="1 : 0.5 : 1"
       inkscape:persp3d-origin="0.5 : 0.33333333 : 1"
       id="perspective10" />
  </defs>
  <sodipodi:namedview
     pagecolor="#ffffff"
     bordercolor="#666666"
     borderopacity="1"
     objecttolerance="10"
     gridtolerance="10"
     guidetolerance="10"
     inkscape:pageopacity="0"
     inkscape:pageshadow="2"
     inkscape:window-width="1916"
     inkscape:window-height="1156"
     id="namedview4"
     showgrid="false"
     inkscape:zoom="10.042553"
     inkscape:cx="50.843968"
     inkscape:cy="8.3908484"
     inkscape:window-x="0"
     inkscape:window-y="0"
     inkscape:window-maximized="1"
     inkscape:current-layer="svg2"
     fit-margin-top="0"
     fit-margin-left="0"
     fit-margin-right="0"
     fit-margin-bottom="0" />
  <path
     id="shadow"
     d="m 3.3791047,33.759657 c -0.185784,-0.110029 -0.368513,-0.181071 -0.406067,-0.157857 -0.1953813,0.120757 0.04926,-0.404731 1.278353,-2.745777 l 1.346228,-2.564197 12.6949103,-3.270268 c 6.982202,-1.798641 12.789944,-3.299673 12.906098,-3.335607 0.159811,-0.04948 0.239659,-0.166188 0.328218,-0.479759 0.06906,-0.244502 0.0856,-0.445776 0.04035,-0.491017 -0.04524,-0.04526 -0.510062,0.116325 -1.133963,0.394154 -0.581506,0.258959 -1.126127,0.470833 -1.210266,0.470833 -0.195054,0 -0.271712,-0.154592 -0.455685,-0.918983 -0.116499,-0.484063 -0.182801,-0.619786 -0.302756,-0.619786 -0.08448,0 -0.798416,0.269263 -1.586535,0.598395 -0.788119,0.329132 -1.502129,0.598416 -1.58669,0.598416 -0.201114,0 -0.327779,-0.248953 -0.388806,-0.764243 -0.04131,-0.348764 -0.02303,-0.433819 0.111178,-0.517475 0.08834,-0.05506 1.50675,-0.684827 3.152028,-1.399505 2.092531,-0.908912 2.999893,-1.343388 3.019627,-1.445827 0.01552,-0.08056 -0.03336,-0.358262 -0.108597,-0.617072 -0.106492,-0.366338 -0.174381,-0.470622 -0.306371,-0.470622 -0.09326,0 -0.600233,0.173099 -1.126613,0.384719 -0.993658,0.399389 -1.214155,0.448467 -1.31097,0.29182 -0.08364,-0.135342 -0.55112,-2.191649 -0.55112,-2.424235 0,-0.108693 0.04809,-0.233795 0.106859,-0.278061 0.05877,-0.04426 2.03033,-0.80552 4.381241,-1.691706 2.350908,-0.886144 4.328676,-1.660458 4.395039,-1.720666 0.102208,-0.09279 0.05319,-0.202017 -0.320577,-0.7142751 -0.242684,-0.332609 -0.441241,-0.662991 -0.441241,-0.734203 0,-0.139052 0.640609,-0.451838 1.073592,-0.524173 0.247386,-0.04134 0.285928,-0.0064 0.716051,0.648745 0.295027,0.449379 0.509632,0.692418 0.611409,0.692418 0.08625,0 2.255539,-0.773275 4.820645,-1.718377 2.565105,-0.945081 4.715819,-1.698427 4.779356,-1.674047 0.07416,0.02847 0.171501,0.401233 0.271841,1.041054 0.08598,0.548192 0.201849,1.058989 0.257497,1.135097 0.09007,0.123173 0.738813,-0.107485 5.909907,-2.101208 3.194795,-1.2317277 5.981385,-2.2983699 6.192413,-2.3703016 0.319539,-0.1088629 0.415202,-0.1955712 0.572157,-0.5186611 0.180532,-0.3715751 0.237852,-0.4113465 1.362162,-0.9451655 0.645534,-0.3064691 1.269497,-0.5634785 1.386578,-0.5711102 0.203838,-0.013297 0.22133,0.026036 0.4118,0.9264459 0.109406,0.5172189 0.254747,1.1228644 0.322981,1.3459106 0.06824,0.2230471 0.147826,0.5788911 0.176865,0.7907647 0.04492,0.3277545 0.03088,0.3852281 -0.0942,0.3852281 -0.08085,0 -0.654872,0.211556 -1.27561,0.4701767 -1.165172,0.4854194 -1.434251,0.5385464 -1.891008,0.3733544 -0.250968,-0.09071 -0.600718,0.04257 -5.592882,2.131694 -2.928845,1.225665 -5.336817,2.2405991 -5.351048,2.2553761 -0.08062,0.08372 -0.05918,0.370133 0.08273,1.105438 0.08727,0.452136 0.137149,0.875311 0.110857,0.940353 -0.0263,0.06506 -2.032791,0.940099 -4.458885,1.944603 -4.280227,1.77214 -4.411078,1.833154 -4.411078,2.056539 0,0.126586 0.248516,1.318458 0.552257,2.648554 0.655929,2.872342 0.730058,3.358016 0.730058,4.782749 0,1.489308 -0.123145,2.369877 -0.486001,3.475189 -0.446135,1.359013 -0.928701,2.142909 -1.929592,3.134544 -0.651828,0.645819 -0.97874,0.897995 -1.496045,1.154093 l -0.661948,0.327669 -1.457753,0 -1.457756,0 -0.59395,-0.295932 c -0.703504,-0.350587 -1.758905,-1.262892 -2.312142,-1.998685 -0.515769,-0.685951 -1.103985,-1.864276 -1.279548,-2.563159 -0.09185,-0.365681 -0.187622,-0.566955 -0.280603,-0.589809 -0.121076,-0.0297 -23.1867973,3.994167 -23.7784853,4.148271 -0.198256,0.05162 -3.170797,2.551288 -3.234281,2.719744 -0.05138,0.136338 -0.477768,0.06345 -0.822217,-0.140578 z"
     style="fill:#000000;fill-opacity:0.53333285"
     inkscape:connector-curvature="0" />
  <path
     style="fill:#000000;fill-opacity:1;stroke:#000000;stroke-width:0;stroke-miterlimit:4;stroke-opacity:1;stroke-dasharray:none"
     d="m 0.51889167,31.580474 c -0.185784,-0.11005 -0.3685137,-0.181091 -0.4060665,-0.157877 -0.1953813,0.120755 0.0492734,-0.404753 1.27835303,-2.745819 L 2.7374056,26.112601 15.432317,22.842333 c 6.9822,-1.798619 12.789945,-3.29963 12.906097,-3.335607 0.159812,-0.04948 0.239661,-0.166166 0.328218,-0.479738 0.06906,-0.244501 0.0856,-0.445775 0.04035,-0.491016 -0.04525,-0.04526 -0.510061,0.116304 -1.133963,0.394132 -0.581509,0.25898 -1.126127,0.470833 -1.210266,0.470833 -0.195054,0 -0.271711,-0.154591 -0.455684,-0.919004 -0.116503,-0.484042 -0.182803,-0.619764 -0.302759,-0.619764 -0.08448,0 -0.798416,0.269283 -1.586535,0.598416 -0.788119,0.32911 -1.502129,0.598416 -1.586687,0.598416 -0.201116,0 -0.32778,-0.248996 -0.388807,-0.764223 -0.0413,-0.348806 -0.02303,-0.433881 0.111179,-0.517517 0.08834,-0.05508 1.506747,-0.684827 3.152026,-1.399483 2.092528,-0.908934 2.999892,-1.343389 3.019626,-1.445849 0.01552,-0.08058 -0.03336,-0.35824 -0.108596,-0.617072 -0.106493,-0.366317 -0.174382,-0.4706 -0.30637,-0.4706 -0.09326,0 -0.600233,0.173119 -1.126613,0.384675 -0.993659,0.399411 -1.214154,0.448511 -1.310969,0.291884 -0.08365,-0.135362 -0.551123,-2.191669 -0.551123,-2.424256 0,-0.108671 0.04809,-0.233816 0.106861,-0.278082 0.05877,-0.04426 2.030331,-0.805519 4.381237,-1.691685 2.35091,-0.8861441 4.328678,-1.6604571 4.395041,-1.7207081 0.102208,-0.09273 0.05319,-0.201974 -0.320575,-0.714254 -0.242687,-0.332587 -0.441241,-0.662991 -0.441241,-0.734202 0,-0.139031 0.640608,-0.451796 1.073589,-0.524173 0.247387,-0.04132 0.285931,-0.0064 0.716052,0.648744 0.295027,0.449401 0.509634,0.692439 0.611409,0.692439 0.08625,0 2.255541,-0.773253 4.820644,-1.7183767 2.565108,-0.9451224 4.71582,-1.6984269 4.779357,-1.6740466 0.07417,0.028474 0.171502,0.4012552 0.271841,1.0410322 0.08598,0.5482143 0.201848,1.0589891 0.257499,1.1350761 0.09007,0.123194 0.738811,-0.107442 5.909906,-2.1011655 3.194797,-1.2317705 5.981383,-2.2984119 6.192414,-2.3702806 0.319536,-0.1088836 0.4152,-0.1956134 0.572155,-0.518661 0.180532,-0.3715959 0.237855,-0.4113888 1.362163,-0.94516564 0.645534,-0.3064897 1.269496,-0.5634992 1.386578,-0.5711731 0.203839,-0.013297 0.221332,0.026081 0.411799,0.9264872 0.109406,0.51719824 0.254748,1.12286544 0.322982,1.34591164 0.06824,0.2230255 0.147825,0.5788695 0.176865,0.7907439 0.04493,0.3277537 0.03088,0.3852272 -0.09419,0.3852272 -0.08085,0 -0.654871,0.2115983 -1.275611,0.4701767 -1.16517,0.4854193 -1.434253,0.5385467 -1.891009,0.3733978 -0.250965,-0.090779 -0.600717,0.042553 -5.59288,2.1316944 -2.928847,1.225663 -5.336816,2.240556 -5.35105,2.255354 -0.08062,0.08374 -0.05918,0.370133 0.08273,1.105417 0.08726,0.4521561 0.13715,0.8753111 0.110858,0.9403521 -0.0263,0.06506 -2.032794,0.940141 -4.458885,1.944625 -4.280228,1.772139 -4.41108,1.833153 -4.41108,2.056518 0,0.126607 0.248517,1.318479 0.552256,2.648574 0.655925,2.872363 0.730058,3.357973 0.730058,4.782728 0,1.48933 -0.123143,2.369877 -0.486001,3.475189 -0.446136,1.359013 -0.928701,2.14293 -1.92959,3.134566 -0.651828,0.645777 -0.978742,0.897973 -1.496045,1.154071 l -0.661949,0.327712 -1.457754,0 -1.457755,0 -0.593949,-0.295997 C 31.52267,29.654082 30.467268,28.741777 29.91403,28.005985 29.398262,27.320054 28.810046,26.14173 28.634483,25.442804 28.542633,25.077166 28.44686,24.87587 28.35388,24.853016 c -0.121075,-0.02972 -23.1867993,3.99419 -23.7784873,4.148251 -0.198255,0.0516 -3.1707958,2.551265 -3.2342808,2.719764 -0.051379,0.136359 -0.47776783,0.06345 -0.82221703,-0.140557 z"
     id="body"
     inkscape:connector-curvature="0" />
</svg>
