<?xml version="1.0" encoding="UTF-8" standalone="no"?>
<!-- Created with Inkscape (http://www.inkscape.org/) -->

<svg
   id="svg2"
   version="1.1"
   inkscape:version="1.1.1 (3bf5ae0d25, 2021-09-20)"
   width="64.791565"
   height="33.969849"
   sodipodi:docname="army.svg"
   xmlns:inkscape="http://www.inkscape.org/namespaces/inkscape"
   xmlns:sodipodi="http://sodipodi.sourceforge.net/DTD/sodipodi-0.dtd"
   xmlns="http://www.w3.org/2000/svg"
   xmlns:svg="http://www.w3.org/2000/svg"
   xmlns:rdf="http://www.w3.org/1999/02/22-rdf-syntax-ns#"
   xmlns:cc="http://creativecommons.org/ns#"
   xmlns:dc="http://purl.org/dc/elements/1.1/">
  <metadata
     id="metadata8">
    <rdf:RDF>
      <cc:Work
         rdf:about="">
        <dc:format>image/svg+xml</dc:format>
        <dc:type
           rdf:resource="http://purl.org/dc/dcmitype/StillImage" />
      </cc:Work>
    </rdf:RDF>
  </metadata>
  <defs
     id="defs6">
    <inkscape:perspective
       sodipodi:type="inkscape:persp3d"
       inkscape:vp_x="0 : 0.5 : 1"
       inkscape:vp_y="0 : 1000 : 0"
       inkscape:vp_z="1 : 0.5 : 1"
       inkscape:persp3d-origin="0.5 : 0.33333333 : 1"
       id="perspective10" />
  </defs>
  <sodipodi:namedview
     pagecolor="#ffffff"
     bordercolor="#666666"
     borderopacity="1"
     objecttolerance="10"
     gridtolerance="10"
     guidetolerance="10"
     inkscape:pageopacity="0"
     inkscape:pageshadow="2"
     inkscape:window-width="1920"
     inkscape:window-height="1017"
     id="namedview4"
     showgrid="false"
     inkscape:zoom="5.0212765"
     inkscape:cx="6.0741527"
     inkscape:cy="4.0826272"
     inkscape:window-x="-8"
     inkscape:window-y="-8"
     inkscape:window-maximized="1"
     inkscape:current-layer="svg2"
     fit-margin-top="0"
     fit-margin-left="0"
     fit-margin-right="0"
     fit-margin-bottom="0"
     inkscape:pagecheckerboard="0" />
  <path
     id="shadow"
     d="m 6.286512,12.829065 c -0.1646378,-0.09751 -0.3265684,-0.160462 -0.3598479,-0.13989 -0.1731428,0.107012 0.043653,-0.358664 1.1328494,-2.43325 L 8.2525124,7.9835881 19.502474,5.0855455 c 6.18748,-1.5939176 11.334178,-2.9241005 11.437111,-2.9559444 0.141622,-0.043848 0.212381,-0.1472723 0.29086,-0.4251523 0.0612,-0.2166726 0.07585,-0.3950374 0.03576,-0.435129 -0.04009,-0.040109 -0.452007,0.1030848 -1.004894,0.349291 -0.515319,0.229484 -0.997951,0.4172422 -1.072513,0.4172422 -0.172853,0 -0.240785,-0.1369961 -0.403818,-0.8143833 -0.10324,-0.4289664 -0.161994,-0.5492412 -0.268296,-0.5492412 -0.07486,0 -0.707539,0.2386151 -1.405954,0.5302849 -0.698415,0.2916699 -1.331155,0.5303037 -1.406091,0.5303037 -0.178223,0 -0.290471,-0.2206169 -0.344551,-0.677256 -0.03661,-0.3090674 -0.02041,-0.3844413 0.09852,-0.4585755 0.07829,-0.048793 1.335251,-0.6068792 2.793262,-1.2402118 1.854357,-0.8054586 2.658441,-1.190482 2.675929,-1.2812613 0.01375,-0.07139 -0.02956,-0.3174842 -0.09624,-0.5468362 -0.09437,-0.32464 -0.154533,-0.417055 -0.271499,-0.417055 -0.08264,0 -0.531915,0.153397 -0.998381,0.34093 -0.880559,0.3539298 -1.075959,0.3974212 -1.161755,0.258605 -0.07412,-0.119937 -0.488391,-1.942193 -0.488391,-2.148306 0,-0.09632 0.04262,-0.207184 0.0947,-0.246412 0.05208,-0.03922 1.799235,-0.713835 3.882563,-1.499155 2.083325,-0.785282 3.835981,-1.471462 3.894791,-1.524817 0.09058,-0.08222 0.04714,-0.179023 -0.284088,-0.632976 -0.215062,-0.294751 -0.391019,-0.587528 -0.391019,-0.650635 0,-0.123225 0.567694,-0.400409 0.951395,-0.464511 0.219228,-0.03663 0.253383,-0.0056 0.634549,0.574904 0.261446,0.398231 0.451625,0.613607 0.541818,0.613607 0.07644,0 1.99881,-0.68526 4.271954,-1.52279 2.273141,-0.8375113 4.179059,-1.5051103 4.235364,-1.4835053 0.06572,0.02523 0.15198,0.355564 0.2409,0.92256 0.0762,0.4857963 0.178874,0.9384533 0.228188,1.0058993 0.07982,0.109153 0.65472,-0.09525 5.237234,-1.8620463 2.831161,-1.091531 5.300578,-2.036767 5.487587,-2.100511 0.283168,-0.09647 0.367943,-0.173312 0.507033,-0.459628 0.159984,-0.329281 0.21078,-0.364525 1.207119,-0.837585 0.572059,-0.271586 1.125002,-0.499343 1.228756,-0.506105 0.180638,-0.01179 0.196138,0.02308 0.364929,0.820997 0.09695,0.458349 0.225751,0.995058 0.286219,1.192717 0.06047,0.197659 0.131,0.513001 0.156734,0.700759 0.03981,0.290448 0.02736,0.341381 -0.08348,0.341381 -0.07165,0 -0.580334,0.187477 -1.130418,0.416661 -1.032551,0.430168 -1.271004,0.477248 -1.675771,0.330858 -0.222404,-0.08038 -0.532344,0.03773 -4.956295,1.8890633 -2.59548,1.086158 -4.729374,1.985571 -4.741985,1.998666 -0.07145,0.07419 -0.05244,0.328005 0.07332,0.979616 0.07733,0.400674 0.121539,0.775683 0.09824,0.833321 -0.02331,0.05766 -1.801417,0.833096 -3.95137,1.723266 -3.793047,1.570434 -3.909004,1.624503 -3.909004,1.8224609 0,0.1121783 0.22023,1.1683901 0.489398,2.3470931 0.58127,2.5454089 0.646962,2.9758029 0.646962,4.2383713 0,1.3197932 -0.109129,2.1001349 -0.430683,3.0796391 -0.39536,1.2043287 -0.823,1.8990008 -1.709969,2.7777673 -0.577636,0.572311 -0.867339,0.795784 -1.325764,1.022732 l -0.586604,0.290374 h -1.29183 -1.291833 L 34.384828,11.432638 C 33.761397,11.121955 32.826123,10.31349 32.335856,9.6614455 31.878793,9.0535702 31.357528,8.0093635 31.201948,7.3900281 31.120552,7.0659693 31.035681,6.8876046 30.953283,6.8673518 30.845988,6.8410323 10.405633,10.406898 9.8812909,10.543462 c -0.17569,0.04575 -2.8098929,2.260898 -2.866151,2.41018 -0.045532,0.12082 -0.4233879,0.05623 -0.7286314,-0.124577 z"
     style="fill:#000000;fill-opacity:0.533333;stroke-width:0.886179"
     inkscape:connector-curvature="0" />
  <path
     style="fill:#000000;fill-opacity:1;stroke:#000000;stroke-width:0;stroke-miterlimit:4;stroke-dasharray:none;stroke-opacity:1"
     d="M 3.7518516,10.897919 C 3.5872137,10.800395 3.4252825,10.73744 3.392004,10.758011 3.2188613,10.865022 3.4356691,10.399328 4.5248535,8.3247244 L 5.7178519,6.0524048 16.967814,3.1543623 c 6.187479,-1.5938981 11.33418,-2.9240624 11.437111,-2.9559445 0.141622,-0.043848 0.212383,-0.1472527 0.29086,-0.4251337 0.0612,-0.2166716 0.07585,-0.3950364 0.03575,-0.435128 -0.0401,-0.040109 -0.452005,0.1030662 -1.004894,0.3492714 -0.515321,0.2295026 -0.997949,0.4172424 -1.072512,0.4172424 -0.172852,0 -0.240785,-0.1369954 -0.403817,-0.814402 -0.103243,-0.4289478 -0.161997,-0.5492218 -0.268299,-0.5492218 -0.07486,0 -0.70754,0.2386329 -1.405953,0.5303036 -0.698415,0.2916504 -1.331156,0.5303037 -1.406089,0.5303037 -0.178225,0 -0.290472,-0.220655 -0.344553,-0.6772383 -0.0366,-0.3091045 -0.02041,-0.3844962 0.09852,-0.4586127 0.07829,-0.048811 1.335247,-0.6068792 2.793258,-1.2401921 1.854354,-0.805478 2.658442,-1.190483 2.67593,-1.281281 0.01375,-0.07141 -0.02956,-0.317464 -0.09624,-0.546836 -0.09437,-0.324623 -0.154534,-0.417035 -0.271499,-0.417035 -0.08264,0 -0.531913,0.153414 -0.998381,0.34089 -0.880559,0.35395 -1.075957,0.397461 -1.161752,0.258662 -0.07413,-0.119955 -0.488394,-1.942212 -0.488394,-2.148325 0,-0.0963 0.04262,-0.207203 0.0947,-0.24643 0.05208,-0.03922 1.799237,-0.713835 3.88256,-1.499136 2.083326,-0.785282 3.835983,-1.471462 3.894792,-1.524855 0.09058,-0.08218 0.04714,-0.178985 -0.284087,-0.6329573 -0.215064,-0.294732 -0.391018,-0.587529 -0.391018,-0.650634 0,-0.123206 0.567693,-0.400372 0.951392,-0.464511 0.219229,-0.03662 0.253386,-0.0056 0.63455,0.574903 0.261447,0.39825 0.451627,0.613625 0.541818,0.613625 0.07644,0 1.998813,-0.68524 4.271953,-1.522789 2.273145,-0.837547 4.17906,-1.50511 4.235365,-1.483505 0.06573,0.02522 0.151982,0.355583 0.2409,0.922541 0.0762,0.485816 0.178873,0.938453 0.22819,1.00588 0.07982,0.109172 0.654719,-0.09521 5.237234,-1.862008 2.831162,-1.09157 5.300575,-2.036804 5.487587,-2.100493 0.283166,-0.09649 0.367941,-0.173348 0.507031,-0.459627 0.159984,-0.3293 0.210782,-0.364563 1.20712,-0.837586 0.572059,-0.271603 1.125001,-0.49936 1.228757,-0.506161 0.180637,-0.01179 0.19614,0.02312 0.364927,0.821035 0.09695,0.458329 0.225753,0.995059 0.28622,1.192717 0.06047,0.197641 0.130999,0.512982 0.156734,0.70074 0.03982,0.29045 0.02736,0.341381 -0.08347,0.341381 -0.07165,0 -0.580334,0.187515 -1.13042,0.41666 -1.032549,0.430169 -1.271006,0.477249 -1.675772,0.330898 -0.222401,-0.08045 -0.532344,0.03771 -4.956293,1.889062 -2.595482,1.086157 -4.729373,1.9855333 -4.741987,1.9986473 -0.07145,0.07421 -0.05244,0.328004 0.07332,0.979598 0.07733,0.40069 0.121539,0.775682 0.09824,0.83332 -0.02331,0.05766 -1.801419,0.833133 -3.95137,1.723285 -3.793047,1.570432 -3.909006,1.624502 -3.909006,1.822443 0,0.112196 0.220231,1.168408 0.489398,2.3471104 0.581267,2.5454275 0.646962,2.9757648 0.646962,4.2383526 0,1.3198129 -0.109127,2.100135 -0.430684,3.0796391 -0.395356,1.2043288 -0.822995,1.8990195 -1.709962,2.7777864 -0.577627,0.5722739 -0.867332,0.7957647 -1.325755,1.0227133 L 34.960181,9.7637416 H 33.66835 32.376518 L 31.850174,9.5014353 C 31.226746,9.1907905 30.29147,8.3823252 29.801203,7.7302818 29.34414,7.1224243 28.822876,6.0782184 28.667296,5.4588448 28.585899,5.1348242 28.501028,4.9564399 28.41863,4.9361872 28.311337,4.9098499 7.8709787,8.4757541 7.3466373,8.6122797 7.1709479,8.6580065 4.5367449,10.873157 4.4804859,11.022477 4.4349548,11.143316 4.057098,11.078705 3.7518544,10.897919 Z"
     id="body"
     inkscape:connector-curvature="0" />
</svg>
