<?xml version="1.0" encoding="UTF-8" standalone="no"?>
<!-- Created with Inkscape (http://www.inkscape.org/) -->

<svg
   id="svg2"
   version="1.1"
   inkscape:version="1.1.1 (3bf5ae0d25, 2021-09-20)"
   width="124.3913"
   height="29.404963"
   sodipodi:docname="fleet.svg"
   xmlns:inkscape="http://www.inkscape.org/namespaces/inkscape"
   xmlns:sodipodi="http://sodipodi.sourceforge.net/DTD/sodipodi-0.dtd"
   xmlns="http://www.w3.org/2000/svg"
   xmlns:svg="http://www.w3.org/2000/svg"
   xmlns:rdf="http://www.w3.org/1999/02/22-rdf-syntax-ns#"
   xmlns:cc="http://creativecommons.org/ns#"
   xmlns:dc="http://purl.org/dc/elements/1.1/">
  <metadata
     id="metadata8">
    <rdf:RDF>
      <cc:Work
         rdf:about="">
        <dc:format>image/svg+xml</dc:format>
        <dc:type
           rdf:resource="http://purl.org/dc/dcmitype/StillImage" />
      </cc:Work>
    </rdf:RDF>
  </metadata>
  <defs
     id="defs6">
    <inkscape:perspective
       sodipodi:type="inkscape:persp3d"
       inkscape:vp_x="0 : 0.5 : 1"
       inkscape:vp_y="0 : 1000 : 0"
       inkscape:vp_z="1 : 0.5 : 1"
       inkscape:persp3d-origin="0.5 : 0.33333333 : 1"
       id="perspective10" />
  </defs>
  <sodipodi:namedview
     pagecolor="#ffffff"
     bordercolor="#666666"
     borderopacity="1"
     objecttolerance="10"
     gridtolerance="10"
     guidetolerance="10"
     inkscape:pageopacity="0"
     inkscape:pageshadow="2"
     inkscape:window-width="1920"
     inkscape:window-height="1017"
     id="namedview4"
     showgrid="false"
     inkscape:zoom="8.0871796"
     inkscape:cx="69.554533"
     inkscape:cy="8.7175015"
     inkscape:window-x="-8"
     inkscape:window-y="-8"
     inkscape:window-maximized="1"
     inkscape:current-layer="svg2"
     fit-margin-top="0"
     fit-margin-left="0"
     fit-margin-right="0"
     fit-margin-bottom="0"
     inkscape:pagecheckerboard="0" />
  <path
     d="m 18.50279,19.551569 1.767045,-0.158851 1.767045,-0.158851 0.385929,-1.100449 c 0.212262,-0.605248 0.397705,-1.409952 0.412096,-1.788233 l 0.02617,-0.687781 0.279564,0.756563 0.279564,0.756557 h 6.575976 0.439116 L 30.263271,16.895413 30.091246,16.6203 h -1.792807 -1.79281 V 16.386464 16.15263 l 3.270541,-0.196663 c 1.798799,-0.108166 3.771559,-0.298205 4.383916,-0.422309 l 1.113376,-0.225645 -2.017993,-0.03165 -2.017994,-0.03165 V 14.9696 14.694487 h 1.930287 1.930289 l 0.645426,-0.242542 c 0.354986,-0.133398 1.459118,-0.28815 2.453628,-0.34389 l 1.808203,-0.101347 0.08479,0.723003 0.115518,0.927683 2.472315,0.495562 v -1.265789 -1.265785 l 0.447986,-0.247778 0.447983,-0.247792 -0.484939,-0.183927 -0.484939,-0.18393 0.715045,-0.613623 0.715045,-0.613621 0.110152,-1.100449 0.11015,-1.1004495 0.04679,1.3067835 0.04679,1.306785 0.347932,0.03705 c 0.191361,0.02038 0.723694,0.05134 1.18296,0.06878 l 0.835033,0.03171 0.274761,0.619006 0.274763,0.619001 h 0.490683 0.490684 l 0.0038,-1.581897 c 0.0021,-0.870043 0.07933,-1.8604481 0.17164,-2.2009002 l 0.167833,-0.6190025 h 1.185292 1.18529 l 0.173964,0.8597269 c 0.09568,0.4728468 0.173965,1.2477738 0.173965,1.7220518 v 0.862329 l 0.556688,0.34362 0.556687,0.343624 v 1.098118 1.098117 l 0.167096,0.03168 c 0.574085,0.01742 1.2943,0.01155 1.600477,-0.01313 0.306178,-0.02466 0.869824,-0.159084 1.252547,-0.298729 0.382723,-0.139648 1.510017,-0.306902 2.505096,-0.371685 l 1.809234,-0.117788 -0.0829,-0.553713 -0.0829,-0.553708 0.291664,-0.178165 c 0.160414,-0.09799 0.291662,-0.361785 0.291662,-0.586207 v -0.408044 l -4.52309,0.03598 -4.174755,0.03598 -0.0059,-0.230707 c -0.0033,-0.126888 0.08682,-0.521564 0.62587,-0.877057 0.539053,-0.355494 1.363389,-0.974497 1.831863,-1.3755637 0.46847,-0.4010644 0.236823,-0.1377758 -0.514781,0.5850867 l -1.366553,1.314294 4.133253,-0.07629 4.133251,-0.07629 0.07815,-3.3701274 0.07815,-3.3701301 h -0.199386 c -0.109662,0 -0.515972,0.278553 -0.902909,0.6190051 L 58.661596,6.0284131 59.562066,4.9802711 60.462533,3.9321263 60.300808,3.673484 60.139082,3.4148407 h 0.294768 0.294773 l 0.04501,-1.857009 0.045,-1.85700818 0.196956,2.06334358 c 0.108329,1.1348403 0.213327,4.0677983 0.233339,6.5176879 l 0.03638,4.454343 0.278343,0.170028 0.278344,0.17003 v 0.74277 0.742772 l 1.042996,0.08051 0.893157,0.08051 0.09278,0.260933 0.09279,0.260932 0.356256,-0.0037 c 0.790963,-0.0021 0.929155,-0.07841 1.273604,-0.169643 l 0.626274,-0.165886 v -0.639458 -0.639459 l 0.278344,-0.170029 0.278343,-0.170029 v -1.462492 c 0,-0.804372 0.07829,-1.8493721 0.173966,-2.3222227 l 0.173965,-0.859727 h 1.496098 1.496097 v 1.1004505 1.1004512 h 0.267618 0.267612 L 70.972586,9.6736973 C 71.148946,9.030626 71.4415,7.9433224 71.622684,7.2574691 L 71.952104,6.0104645 71.840156,4.8502341 71.728208,3.6900046 h -0.511043 -0.511026 l -0.171765,-0.2747021 -0.171771,-0.2747003 0.642444,0.068369 0.642441,0.068369 0.305539,-3.71402005 c 0.168047,-2.04271055 0.332151,-3.59021815 0.36468,-3.43890705 0.03253,0.1513129 0.04464,1.5440693 0.02691,3.09501609 l -0.03223,2.81990431 h 0.966489 0.966492 l 0.104698,-0.310443 0.104695,-0.3104416 0.307035,0.9887766 0.307027,0.9887779 -0.533214,0.1672708 -0.533212,0.1672708 0.600375,0.4805172 0.600387,0.4805172 -1.081971,0.6500176 -1.081973,0.650023 0.487101,0.1073726 c 0.267906,0.059051 0.487102,0.2088544 0.487102,0.3328832 0,0.1240278 -0.18788,0.2967646 -0.417517,0.3838604 l -0.417514,0.1583562 v 1.3256512 1.325653 l 0.540432,0.040235 0.540435,0.040235 0.110879,-0.8758093 0.110884,-0.8758066 0.04454,0.8768188 0.04454,0.8768206 0.9742,-0.1562567 0.974208,-0.1562568 v 0.6058734 0.605869 l -0.417517,0.41267 c -0.229641,0.226968 -0.417516,0.589527 -0.417516,0.805687 v 0.393018 h 0.9742 0.9742 v 1.238007 1.238005 l 0.76545,-0.03747 0.765442,-0.03747 -0.626266,-0.11923 -0.626276,-0.119217 v -0.806205 -0.806199 h 2.349498 2.349496 l 0.172025,0.27511 0.172025,0.275112 h 2.349497 2.349497 v 0.263062 0.263059 l -2.017993,0.08083 -2.018001,0.08083 -0.05138,0.687783 -0.05137,0.687781 0.145076,-0.500361 0.145075,-0.500357 2.411418,0.152512 c 1.32628,0.08387 2.568074,0.225619 3.831057,0.314973 l 2.296333,0.162463 v 0.254162 0.254163 h -1.948408 -1.9484 v 0.275113 0.275113 h 9.93855 -0.154714 l 0.172021,-0.275113 c 0.09462,-0.151311 0.352519,-0.275113 0.573117,-0.275113 h 0.401096 l 0.0045,1.581899 0.0045,1.581896 0.212618,0.330612 0.212617,0.330612 2.711698,0.09617 c 1.14369,0.05289 -10.193612,0.0994 -40.122541,0.103345 z m 23.741185,-2.543947 c 0.238347,-0.09185 0.433355,-0.277544 0.433355,-0.412668 v -0.277192 l -1.781657,-0.0055 h -0.637148 v 0.444181 0.412669 h 0.203789 c 0.967111,0 1.543313,-0.06964 1.781661,-0.161484 z M 56.363014,8.1262806 c -0.687066,0.5888649 -1.071798,0.9020914 -1.154197,0.9396759 -0.0622,0.028369 0.197003,-0.2104649 0.777591,-0.7165042 0.542481,-0.5140547 1.352847,-1.2441432 1.80081,-1.6224212 L 59.074297,5.6351762 58.163828,6.5038575 C 57.95444,6.7733151 57.144077,7.5034037 56.363014,8.1262806 Z"
     id="shadow"
     inkscape:connector-curvature="0"
     inkscape:label="shadow"
     style="display:inline;fill:#000000;fill-opacity:0.470588;stroke:none;stroke-width:0.903756;stroke-miterlimit:4;stroke-dasharray:none;stroke-opacity:0.470588" />
  <path
     d="m 17.709303,17.876786 1.767045,-0.158851 1.767045,-0.158851 0.385929,-1.100449 c 0.212262,-0.605248 0.397705,-1.409952 0.412096,-1.788233 l 0.02617,-0.687781 0.279565,0.756563 0.279564,0.756557 h 6.575975 0.439116 L 29.469784,15.22063 29.297758,14.945517 h -1.792807 -1.792809 v -0.233836 -0.233834 l 3.27054,-0.196663 c 1.798799,-0.108166 3.771559,-0.298205 4.383916,-0.422309 l 1.113376,-0.225645 -2.017993,-0.03165 -2.017994,-0.03165 v -0.275113 -0.275113 h 1.930287 1.93029 l 0.645425,-0.242543 c 0.354986,-0.133397 1.459118,-0.288149 2.453628,-0.343889 l 1.808203,-0.101347 0.08479,0.723003 0.115518,0.927683 2.472315,0.495562 V 13.212385 11.9466 l 0.447986,-0.247778 0.447983,-0.247792 -0.484939,-0.183927 -0.484939,-0.18393 0.715045,-0.613623 0.715045,-0.6136211 0.110152,-1.1004488 0.11015,-1.1004496 0.04679,1.3067835 0.04679,1.306785 0.347932,0.03705 c 0.191361,0.02038 0.723694,0.05134 1.18296,0.06878 l 0.835033,0.03171 0.274761,0.619006 0.274763,0.619001 h 0.490683 0.490684 l 0.0038,-1.581897 c 0.0021,-0.8700435 0.07933,-1.8604481 0.17164,-2.2009003 l 0.167833,-0.6190025 h 1.185292 1.185291 l 0.173964,0.859727 c 0.09568,0.472847 0.173964,1.2477736 0.173964,1.7220522 v 0.8623286 l 0.556688,0.34362 0.556687,0.343624 v 1.098118 1.098117 l 0.167096,0.03168 c 0.574085,0.01743 1.2943,0.01155 1.600477,-0.01313 0.306178,-0.02466 0.869824,-0.159084 1.252548,-0.298729 0.382722,-0.139648 1.510016,-0.306902 2.505095,-0.371685 l 1.809234,-0.117788 -0.0829,-0.553713 -0.0829,-0.553708 0.291665,-0.178165 c 0.160414,-0.09799 0.291662,-0.361785 0.291662,-0.586207 v -0.408044 l -4.523091,0.03598 -4.174754,0.03598 -0.0059,-0.230707 c -0.0033,-0.126888 0.08682,-0.5215644 0.62587,-0.8770569 0.539053,-0.3554943 1.363389,-0.9744968 1.831863,-1.3755638 0.46847,-0.4010644 0.236823,-0.1377759 -0.514781,0.5850863 l -1.366553,1.3142944 4.133253,-0.076286 4.133251,-0.076286 0.07815,-3.3701275 0.07815,-3.3701302 H 59.47454 c -0.109662,0 -0.515972,0.278553 -0.902909,0.6190052 L 57.868108,4.35363 58.768578,3.305488 59.669045,2.2573433 59.50732,1.9987018 59.345594,1.7400584 h 0.294768 0.294773 l 0.04501,-1.85700917 0.045,-1.85700833 0.196956,2.06334399 C 60.33043,1.2242243 60.435428,4.1571824 60.45544,6.6070719 l 0.03638,4.4543431 0.278343,0.170028 0.278344,0.17003 v 0.74277 0.742772 l 1.042996,0.08051 0.893157,0.08051 0.09278,0.260933 0.09279,0.260932 0.356256,-0.0037 c 0.790963,-0.0021 0.929155,-0.07841 1.273604,-0.169643 l 0.626274,-0.165886 v -0.639458 -0.639459 l 0.278344,-0.170029 0.278343,-0.170029 v -1.462492 c 0,-0.8043725 0.07829,-1.8493722 0.173966,-2.3222228 l 0.173965,-0.859727 h 1.496098 1.496097 v 1.1004506 1.1004514 h 0.267618 0.267612 l 0.320707,-1.16923 C 70.355458,7.3558429 70.648012,6.2685393 70.829196,5.582686 L 71.158616,4.3356815 71.046668,3.1754511 70.93472,2.0152216 H 70.423677 69.912651 L 69.740886,1.7405203 69.569115,1.46582 l 0.642444,0.068369 0.642442,0.068369 0.305538,-3.7140203 c 0.168047,-2.0427103 0.332151,-3.5902181 0.36468,-3.438907 0.03253,0.1513129 0.04464,1.5440693 0.02691,3.0950161 l -0.03223,2.81990352 h 0.966489 0.966492 l 0.104698,-0.31044205 0.104695,-0.31044204 0.307035,0.98877701 0.307027,0.98877796 -0.533214,0.1672708 -0.533212,0.16727 0.600375,0.4805181 0.600387,0.4805172 -1.081971,0.6500166 -1.081973,0.650023 0.487101,0.1073726 c 0.267906,0.059051 0.487103,0.2088544 0.487103,0.3328832 0,0.1240279 -0.187881,0.2967646 -0.417518,0.3838605 l -0.417514,0.1583561 v 1.3256513 1.325653 l 0.540432,0.040235 0.540435,0.040235 0.110879,-0.8758093 0.110884,-0.8758066 0.04454,0.8768188 0.04454,0.8768206 0.9742,-0.1562567 0.974208,-0.1562567 V 8.326468 8.9323371 L 75.307501,9.3450066 C 75.07786,9.571975 74.889985,9.934534 74.889985,10.150694 v 0.393018 h 0.9742 0.9742 v 1.238006 1.238006 l 0.76545,-0.03747 0.765442,-0.03747 -0.626266,-0.11923 -0.626276,-0.119217 v -0.806205 -0.806199 h 2.349501 2.349495 l 0.172021,0.27511 0.17203,0.275112 h 2.349495 2.349495 v 0.263062 0.263059 l -2.017988,0.08083 -2.018006,0.08083 -0.05133,0.687783 -0.05133,0.687781 0.14508,-0.500361 0.145071,-0.500357 2.41142,0.152512 c 1.32628,0.08387 2.568077,0.225619 3.831059,0.314973 l 2.296336,0.162463 v 0.254162 0.254163 H 89.60066 87.652261 v 0.275113 0.275113 h 9.938543 -0.154714 l 0.172021,-0.275113 c 0.09462,-0.151311 0.352519,-0.275113 0.573117,-0.275113 h 0.401096 l 0.0045,1.581899 0.0045,1.581896 0.212618,0.330612 0.212618,0.330612 2.71169,0.09617 c 1.14369,0.05289 -10.193589,0.0994 -40.122523,0.103345 z m 23.741184,-2.543948 c 0.238347,-0.09185 0.433355,-0.277543 0.433355,-0.412667 v -0.277192 l -1.781657,-0.0055 h -0.637148 v 0.444181 0.412669 h 0.203789 c 0.967112,0 1.543313,-0.06964 1.781661,-0.161484 z M 55.569526,6.4514975 c -0.687066,0.5888649 -1.071798,0.9020914 -1.154197,0.939676 -0.0622,0.028369 0.197003,-0.210465 0.777591,-0.7165042 C 55.735401,6.1606146 56.545767,5.430526 56.99373,5.052248 L 58.280809,3.9603931 57.37034,4.8290745 c -0.209388,0.2694576 -1.019751,0.9995461 -1.800814,1.622423 z"
     id="hull"
     inkscape:connector-curvature="0"
     inkscape:label="hull"
     style="display:inline;fill:#4fffff;fill-opacity:1;stroke:#000000;stroke-width:0.871591;stroke-opacity:1" />
</svg>
