<?xml version="1.0" encoding="UTF-8" standalone="no"?>
<!-- Created with Inkscape (http://www.inkscape.org/) -->

<svg
   xmlns:dc="http://purl.org/dc/elements/1.1/"
   xmlns:cc="http://creativecommons.org/ns#"
   xmlns:rdf="http://www.w3.org/1999/02/22-rdf-syntax-ns#"
   xmlns:svg="http://www.w3.org/2000/svg"
   xmlns="http://www.w3.org/2000/svg"
   xmlns:sodipodi="http://sodipodi.sourceforge.net/DTD/sodipodi-0.dtd"
   xmlns:inkscape="http://www.inkscape.org/namespaces/inkscape"
   id="svg2"
   version="1.1"
   inkscape:version="0.48.2 r9819"
   width="124.3913"
   height="29.404963"
   sodipodi:docname="fleet.svg">
  <metadata
     id="metadata8">
    <rdf:RDF>
      <cc:Work
         rdf:about="">
        <dc:format>image/svg+xml</dc:format>
        <dc:type
           rdf:resource="http://purl.org/dc/dcmitype/StillImage" />
        <dc:title />
      </cc:Work>
    </rdf:RDF>
  </metadata>
  <defs
     id="defs6">
    <inkscape:perspective
       sodipodi:type="inkscape:persp3d"
       inkscape:vp_x="0 : 0.5 : 1"
       inkscape:vp_y="0 : 1000 : 0"
       inkscape:vp_z="1 : 0.5 : 1"
       inkscape:persp3d-origin="0.5 : 0.33333333 : 1"
       id="perspective10" />
  </defs>
  <sodipodi:namedview
     pagecolor="#ffffff"
     bordercolor="#666666"
     borderopacity="1"
     objecttolerance="10"
     gridtolerance="10"
     guidetolerance="10"
     inkscape:pageopacity="0"
     inkscape:pageshadow="2"
     inkscape:window-width="1916"
     inkscape:window-height="1156"
     id="namedview4"
     showgrid="false"
     inkscape:zoom="8.0871796"
     inkscape:cx="69.588069"
     inkscape:cy="8.7107056"
     inkscape:window-x="0"
     inkscape:window-y="0"
     inkscape:window-maximized="1"
     inkscape:current-layer="svg2"
     fit-margin-top="0"
     fit-margin-left="0"
     fit-margin-right="0"
     fit-margin-bottom="0" />
    <path
     d="m 16.069244,28.911747 1.955223,-0.175768 1.955223,-0.175768 0.427028,-1.217639 c 0.234866,-0.669703 0.440058,-1.560102 0.455981,-1.978667 l 0.02896,-0.761025 0.309336,0.837131 0.309336,0.837126 h 7.276272 0.485879 L 29.082136,25.972728 28.891791,25.668317 H 26.908062 24.92433 V 25.40958 25.150844 l 3.618831,-0.217607 c 1.990359,-0.119684 4.173205,-0.329961 4.850774,-0.467282 l 1.231942,-0.249674 -2.232895,-0.03502 -2.232897,-0.03502 V 23.84183 23.53742 h 2.13585 2.135852 l 0.714159,-0.268372 c 0.392789,-0.147603 1.614504,-0.318835 2.714922,-0.380511 l 2.000765,-0.11214 0.09382,0.799998 0.12782,1.026475 2.7356,0.548336 v -1.400587 -1.400583 l 0.495693,-0.274164 0.49569,-0.274181 -0.536581,-0.203514 -0.536582,-0.203517 0.791192,-0.678969 0.791193,-0.678968 0.121882,-1.217639 0.121881,-1.21764 0.05177,1.445947 0.05177,1.445949 0.384984,0.041 c 0.21174,0.02255 0.800763,0.05681 1.308937,0.0761 l 0.923959,0.03509 0.304021,0.684926 0.304023,0.68492 h 0.542937 0.542939 l 0.0042,-1.750358 c 0.0023,-0.962697 0.08778,-2.058573 0.189919,-2.435281 l 0.185706,-0.684922 h 1.311517 1.311516 l 0.19249,0.951282 c 0.105866,0.523202 0.192491,1.380653 0.192491,1.905439 v 0.954161 l 0.615971,0.380213 0.61597,0.380217 v 1.21506 1.215059 l 0.184891,0.03505 c 0.635221,0.01928 1.432134,0.01278 1.770917,-0.01453 0.338784,-0.02729 0.962454,-0.176025 1.385935,-0.330541 0.42348,-0.15452 1.670823,-0.339585 2.771871,-0.411267 l 2.001905,-0.130332 -0.09173,-0.612679 -0.09173,-0.612674 0.322725,-0.197139 c 0.177497,-0.108429 0.322722,-0.400312 0.322722,-0.648634 v -0.451498 l -5.004769,0.03981 -4.619337,0.03981 -0.0065,-0.255276 c -0.0036,-0.1404 0.09606,-0.577107 0.692521,-0.970457 0.596458,-0.393352 1.50858,-1.078274 2.026944,-1.522052 0.518358,-0.443775 0.262043,-0.152448 -0.569602,0.647394 l -1.512082,1.454258 4.573417,-0.08441 4.573414,-0.08441 0.08647,-3.729023 0.08647,-3.729026 h -0.220619 c -0.12134,0 -0.57092,0.308217 -0.999063,0.684925 l -0.778443,0.684922 0.996364,-1.159762 0.99636,-1.159765 -0.178947,-0.286186 -0.178949,-0.286187 h 0.326159 0.326164 l 0.0498,-2.0547677 0.04979,-2.0547669 0.21793,2.2830756 c 0.119866,1.255693 0.236045,4.500991 0.258188,7.211777 l 0.04025,4.9287 0.307985,0.188135 0.307986,0.188137 v 0.82187 0.821872 l 1.154067,0.08908 0.988273,0.08908 0.102656,0.28872 0.102668,0.28872 0.394195,-0.0041 c 0.875195,-0.0023 1.028103,-0.08676 1.409234,-0.187708 l 0.692968,-0.183552 v -0.707556 -0.707557 l 0.307985,-0.188136 0.307985,-0.188136 v -1.618237 c 0,-0.890033 0.08663,-2.046318 0.192492,-2.569524 l 0.192491,-0.951282 h 1.655422 1.655422 v 1.217641 1.217642 h 0.296117 0.296111 l 0.35486,-1.293745 c 0.195141,-0.711554 0.51885,-1.914648 0.719329,-2.67354 l 0.364501,-1.379802 -0.12387,-1.283787 -0.123869,-1.283786 h -0.565466 -0.565447 l -0.190057,-0.303956 -0.190063,-0.303954 0.71086,0.07565 0.710857,0.07565 0.338076,-4.1095378 c 0.185943,-2.2602452 0.367523,-3.9725518 0.403516,-3.8051271 0.03599,0.1674267 0.04939,1.7085021 0.02978,3.4246141 l -0.03566,3.1202048 h 1.069414 1.069416 l 0.115848,-0.343503 0.115844,-0.3435015 0.339733,1.0940745 0.339723,1.094076 -0.589998,0.185084 -0.589995,0.185084 0.664311,0.531689 0.664324,0.531689 -1.197194,0.71924 -1.197195,0.719246 0.538973,0.118807 c 0.296437,0.06534 0.538976,0.231096 0.538976,0.368333 0,0.137236 -0.207889,0.328368 -0.46198,0.424739 l -0.461977,0.17522 v 1.466824 1.466826 l 0.597985,0.04452 0.597987,0.04452 0.122687,-0.969077 0.122693,-0.969074 0.04928,0.970194 0.04928,0.970196 1.077946,-0.172897 1.077955,-0.172897 v 0.670395 0.67039 l -0.46198,0.456616 c -0.254096,0.251139 -0.461979,0.652308 -0.461979,0.891488 v 0.434871 h 1.077946 1.077946 v 1.369846 1.369845 l 0.846965,-0.04146 0.846956,-0.04146 -0.692959,-0.131927 -0.69297,-0.131913 v -0.89206 -0.892054 h 2.599703 2.599702 l 0.190344,0.304407 0.190345,0.30441 h 2.599702 2.599702 v 0.291076 0.291073 l -2.232895,0.08944 -2.232904,0.08944 -0.05685,0.761028 -0.05684,0.761025 0.160525,-0.553646 0.160525,-0.553642 2.668217,0.168753 c 1.46752,0.0928 2.841556,0.249646 4.239039,0.348516 l 2.540876,0.179764 v 0.281229 0.281229 h -2.1559 -2.155891 v 0.304411 0.304411 h 10.996938 -0.17119 l 0.19034,-0.304411 c 0.1047,-0.167425 0.39006,-0.304411 0.63415,-0.304411 h 0.44381 l 0.005,1.750361 0.005,1.750357 0.23526,0.36582 0.23526,0.36582 3.00047,0.106411 c 1.26549,0.05852 -11.279157,0.109981 -44.395312,0.114351 z m 26.269458,-2.814861 c 0.26373,-0.101629 0.479505,-0.3071 0.479505,-0.456614 v -0.306711 l -1.971391,-0.0061 h -0.705 v 0.491483 0.456616 h 0.225491 c 1.070102,0 1.707665,-0.07706 1.971395,-0.178681 z m 15.622621,-9.827143 c -0.760234,0.651575 -1.185938,0.998158 -1.277112,1.039745 -0.06882,0.03139 0.217983,-0.232878 0.8604,-0.792807 0.600251,-0.568798 1.496915,-1.376636 1.992584,-1.795198 l 1.424144,-1.20813 -1.007428,0.96119 c -0.231687,0.298153 -1.128348,1.105991 -1.992588,1.7952 z"
     id="shadow"
     inkscape:connector-curvature="0"
     inkscape:label="shadow"
     style="display:inline;fill:#000000;fill-opacity:0.47058824;stroke:none;stroke-width:1;stroke-miterlimit:4;stroke-dasharray:none;stroke-opacity:0.47058824" />
  <path
     d="m 15.191256,27.058611 1.955223,-0.175768 1.955223,-0.175768 0.427028,-1.217639 c 0.234866,-0.669703 0.440058,-1.560102 0.455981,-1.978667 l 0.02896,-0.761025 0.309336,0.837131 0.309336,0.837126 h 7.276271 0.485879 l -0.190346,-0.304409 -0.190345,-0.304411 h -1.983729 -1.983731 v -0.258737 -0.258736 l 3.61883,-0.217607 c 1.990359,-0.119684 4.173205,-0.329961 4.850774,-0.467282 l 1.231942,-0.249674 -2.232895,-0.03502 -2.232897,-0.03502 v -0.304411 -0.30441 h 2.13585 2.135852 l 0.714159,-0.268372 c 0.392789,-0.147603 1.614504,-0.318835 2.714922,-0.380511 l 2.000765,-0.11214 0.09382,0.799998 0.12782,1.026475 2.7356,0.548336 V 21.897483 20.4969 l 0.495693,-0.274164 0.49569,-0.274181 -0.536581,-0.203514 -0.536582,-0.203517 0.791192,-0.678969 0.791193,-0.678968 0.121882,-1.217639 0.121881,-1.21764 0.05177,1.445947 0.05177,1.445949 0.384984,0.041 c 0.21174,0.02255 0.800763,0.05681 1.308937,0.0761 l 0.923959,0.03509 0.304021,0.684926 0.304023,0.68492 h 0.542937 0.542939 l 0.0042,-1.750358 c 0.0023,-0.962697 0.08778,-2.058573 0.189919,-2.435281 l 0.185706,-0.684922 h 1.311517 1.311516 l 0.19249,0.951282 c 0.105866,0.523202 0.192491,1.380653 0.192491,1.905439 v 0.954161 l 0.615971,0.380213 0.61597,0.380217 v 1.21506 1.215059 l 0.184891,0.03505 c 0.635221,0.01928 1.432134,0.01278 1.770917,-0.01453 0.338784,-0.02729 0.962454,-0.176025 1.385935,-0.330541 0.42348,-0.15452 1.670823,-0.339585 2.771871,-0.411267 l 2.001905,-0.130332 -0.09173,-0.612679 -0.09173,-0.612674 0.322725,-0.197139 c 0.177497,-0.108429 0.322722,-0.400312 0.322722,-0.648634 v -0.451498 l -5.004769,0.03981 -4.619337,0.03981 -0.0065,-0.255276 c -0.0036,-0.1404 0.09606,-0.577107 0.692521,-0.970457 0.596458,-0.393352 1.50858,-1.078274 2.026944,-1.522052 0.518358,-0.443775 0.262043,-0.152448 -0.569602,0.647394 l -1.512082,1.454258 4.573417,-0.08441 4.573414,-0.08441 0.08647,-3.729023 0.08647,-3.729026 h -0.220619 c -0.12134,0 -0.57092,0.308217 -0.999063,0.684925 l -0.778443,0.684922 0.996364,-1.159762 0.99636,-1.159765 -0.178947,-0.286185 -0.178949,-0.2861871 h 0.326159 0.326164 l 0.0498,-2.054768 0.04979,-2.054767 0.21793,2.283076 c 0.119866,1.255692 0.236045,4.5009901 0.258188,7.2117761 l 0.04025,4.9287 0.307985,0.188135 0.307986,0.188137 v 0.82187 0.821872 l 1.154067,0.08908 0.988273,0.08908 0.102656,0.28872 0.102668,0.28872 0.394195,-0.0041 c 0.875195,-0.0023 1.028103,-0.08676 1.409234,-0.187708 L 67.98984,21.917703 V 21.210147 20.50259 l 0.307985,-0.188136 0.307985,-0.188136 v -1.618237 c 0,-0.890033 0.08663,-2.046318 0.192492,-2.569524 l 0.192491,-0.951282 h 1.655422 1.655422 v 1.217641 1.217642 h 0.296117 0.296111 l 0.35486,-1.293745 c 0.195141,-0.711554 0.51885,-1.914648 0.719329,-2.67354 l 0.364501,-1.379802 -0.12387,-1.283787 -0.123869,-1.283786 H 73.51935 72.953903 l -0.190057,-0.3039551 -0.190063,-0.303954 0.71086,0.07565 0.710857,0.07565 0.338076,-4.109538 c 0.185943,-2.260245 0.367523,-3.9725518 0.403516,-3.8051271 0.03599,0.1674267 0.04939,1.7085021 0.02978,3.4246141 l -0.03566,3.120204 h 1.069414 1.069416 l 0.115848,-0.343502 0.115844,-0.343502 0.339733,1.094075 0.339723,1.094076 -0.589998,0.185084 -0.589995,0.1850831 0.664311,0.53169 0.664324,0.531689 -1.197194,0.719239 -1.197195,0.719246 0.538973,0.118807 c 0.296437,0.06534 0.538976,0.231096 0.538976,0.368333 0,0.137236 -0.207889,0.328368 -0.46198,0.424739 l -0.461977,0.17522 v 1.466824 1.466826 l 0.597985,0.04452 0.597987,0.04452 0.122687,-0.969077 0.122693,-0.969074 0.04928,0.970194 0.04928,0.970196 1.077946,-0.172897 1.077955,-0.172897 v 0.670395 0.67039 l -0.46198,0.456616 c -0.254096,0.251139 -0.461979,0.652308 -0.461979,0.891488 v 0.434871 h 1.077946 1.077946 v 1.369846 1.369845 l 0.846965,-0.04146 0.846956,-0.04146 -0.692959,-0.131927 -0.69297,-0.131913 v -0.89206 -0.892054 h 2.599707 2.5997 l 0.19034,0.304407 0.19035,0.30441 h 2.5997 2.5997 v 0.291076 0.291073 l -2.23289,0.08944 -2.23291,0.08944 -0.0568,0.761028 -0.0568,0.761025 0.16053,-0.553646 0.16052,-0.553642 2.66822,0.168753 c 1.46752,0.0928 2.84156,0.249646 4.23904,0.348516 l 2.54088,0.179764 v 0.281229 0.281229 h -2.15591 -2.15589 v 0.304411 0.304411 h 10.99693 -0.17119 l 0.19034,-0.304411 c 0.1047,-0.167425 0.39006,-0.304411 0.63415,-0.304411 h 0.44381 l 0.005,1.750361 0.005,1.750357 0.23526,0.36582 0.23526,0.36582 3.00047,0.106411 c 1.26549,0.05852 -11.27914,0.109981 -44.395301,0.114351 z M 41.460713,24.24375 c 0.26373,-0.101629 0.479505,-0.3071 0.479505,-0.456614 v -0.306711 l -1.971391,-0.0061 h -0.705 v 0.491483 0.456616 h 0.225491 c 1.070102,0 1.707665,-0.07706 1.971395,-0.178681 z m 15.622621,-9.827143 c -0.760234,0.651575 -1.185938,0.998158 -1.277112,1.039745 -0.06882,0.03139 0.217983,-0.232878 0.8604,-0.792807 0.600251,-0.568798 1.496915,-1.376636 1.992584,-1.795198 l 1.424144,-1.20813 -1.007428,0.96119 c -0.231687,0.298153 -1.128348,1.105991 -1.992588,1.7952 z"
     id="hull"
     inkscape:connector-curvature="0"
     inkscape:label="hull"
     style="display:inline;fill:#4fffff;fill-opacity:1;stroke:#000000;stroke-width:0.96440899;stroke-opacity:1"
     sodipodi:insensitive="true" />
</svg>
