<?xml version="1.0" encoding="UTF-8" standalone="no"?>
<!-- Created with Inkscape (http://www.inkscape.org/) -->

<svg
   id="svg2"
   version="1.1"
   inkscape:version="1.1.1 (3bf5ae0d25, 2021-09-20)"
   width="64.738815"
   height="59.189262"
   sodipodi:docname="army.svg"
   xmlns:inkscape="http://www.inkscape.org/namespaces/inkscape"
   xmlns:sodipodi="http://sodipodi.sourceforge.net/DTD/sodipodi-0.dtd"
   xmlns="http://www.w3.org/2000/svg"
   xmlns:svg="http://www.w3.org/2000/svg"
   xmlns:rdf="http://www.w3.org/1999/02/22-rdf-syntax-ns#"
   xmlns:cc="http://creativecommons.org/ns#"
   xmlns:dc="http://purl.org/dc/elements/1.1/">
  <metadata
     id="metadata8">
    <rdf:RDF>
      <cc:Work
         rdf:about="">
        <dc:format>image/svg+xml</dc:format>
        <dc:type
           rdf:resource="http://purl.org/dc/dcmitype/StillImage" />
      </cc:Work>
    </rdf:RDF>
  </metadata>
  <defs
     id="defs6">
    <inkscape:perspective
       sodipodi:type="inkscape:persp3d"
       inkscape:vp_x="0 : 25.719414 : 1"
       inkscape:vp_y="0 : 1000 : 0"
       inkscape:vp_z="1 : 25.719414 : 1"
       inkscape:persp3d-origin="0.5 : 25.552747 : 1"
       id="perspective10" />
  </defs>
  <sodipodi:namedview
     pagecolor="#ffffff"
     bordercolor="#666666"
     borderopacity="1"
     objecttolerance="10"
     gridtolerance="10"
     guidetolerance="10"
     inkscape:pageopacity="0"
     inkscape:pageshadow="2"
     inkscape:window-width="1920"
     inkscape:window-height="1017"
     id="namedview4"
     showgrid="false"
     inkscape:zoom="10.042553"
     inkscape:cx="8.8125002"
     inkscape:cy="32.810382"
     inkscape:window-x="-8"
     inkscape:window-y="-8"
     inkscape:window-maximized="1"
     inkscape:current-layer="svg2"
     fit-margin-top="0"
     fit-margin-left="0"
     fit-margin-right="0"
     fit-margin-bottom="0"
     inkscape:pagecheckerboard="0" />
  <path
     id="shadow"
     style="display:inline;opacity:0.5;fill:#040606;fill-opacity:1;fill-rule:nonzero;stroke:none;stroke-width:0.00717047"
     d="m 37.927797,-16.843487 c -0.55464,0.189375 -0.423247,0.867146 -0.226562,1.304688 -0.129426,0.152445 0.06213,0.461334 0.11914,0.669921 0.095,-0.10024 0.184507,-0.277373 0.230469,-0.419921 0.01783,0.01957 0.02065,0.01932 0.002,-0.0059 0.02178,-0.06906 0.0349,-0.13018 0.03125,-0.167969 -0.0056,-0.05916 -0.04806,-0.113734 -0.109375,-0.140625 0.07357,-0.412877 0.291797,-0.998987 0.896485,-0.892578 -0.538361,-0.220136 -0.886081,0.366595 -1.027344,0.824219 -0.05929,-0.410083 -0.02534,-0.972039 0.544922,-1.074219 -0.494835,-0.01816 -0.659273,0.465103 -0.681641,0.904297 -0.143844,-0.340242 -0.191602,-0.753135 0.220703,-1.001953 z m -0.40039,1.388672 c 0,0 -1.18499,0.856867 -0.482422,1.646484 0,-0.02683 -0.187541,-0.770263 0.708984,-0.984375 z m 0.675781,0 -0.228516,0.601562 c 0.843033,0.107051 0.948168,0.296996 1.525391,0.638672 -0.0066,-0.669009 -0.748186,-1.11303 -1.296875,-1.240234 z m -0.490234,0.736328 c -0.796212,0.321165 -0.694761,1.076726 -0.353516,1.417969 -0.180699,-0.347984 0.420563,-0.876024 0.353516,-1.417969 z m 0.107421,0 c 0.113646,0.327834 0.782537,1.498724 1.337891,1.304688 0.287752,-0.3814 0.222656,-0.695313 0.222656,-0.695313 0,0 -0.79775,-0.683017 -1.560547,-0.609375 z m 0.02344,0.267578 c -0.196398,0.602251 -0.312111,0.883148 -0.431641,0.896484 0.06123,0.23426 0.07444,0.716776 0.04102,0.763672 -0.0335,0.04675 0.320565,0.267579 0.521484,0.267578 0.20077,0 0.802735,-0.341796 0.802735,-0.341796 0,0 -0.117312,-0.388586 0,-0.46875 -0.384626,-0.171806 -0.843247,-0.675631 -0.933594,-1.117188 z m 1.167969,1.367188 c -0.05084,0.01455 -0.10998,0.02029 -0.121094,0.05664 0.01557,0.36792 -0.332532,0.35779 -0.675781,0.587891 -0.265667,0.06367 -0.394532,-0.0293 -0.394532,-0.0293 v 0.169922 c -0.209738,0.196254 -0.975316,0.480853 -0.998047,0.71289 -0.0226,0.231895 -0.05765,1.08068 0,1.107422 0,0 -0.264708,0.9457513 -0.193359,1.0527353 0.07142,0.10713 -1.409264,1.043172 -1.275391,1.230469 0,0 0.319775,0.247576 0.447266,0.251953 0.19411,0.0067 0.127399,0.968422 0.375,0.939453 0.247523,-0.02897 0.373556,-0.428546 0.480469,-0.421875 0.277285,-0.119103 -0.459653,-0.733944 -0.314453,-0.742188 0,0 0.803211,0.05309 0.857422,0.0918 0.05435,0.03863 1.062938,-0.146946 1.333984,-0.658203 l 0.121094,0.279297 c -0.229098,0.362684 -1.335311,0.572265 -1.542969,0.572266 0,0 -0.455701,0.527109 -0.214844,0.607421 0.24093,0.08031 0.749298,0.215397 0.931641,0.179688 0.182421,-0.03571 0.600756,-0.693734 0.845703,-0.662109 0.17173,0.02206 -0.01367,0.33789 -0.01367,0.33789 0,0 0.40446,0.257596 0.521485,0.175781 0.09358,-0.17317 -0.267597,-0.690414 -0.269532,-1.373047 -0.0021,-0.716118 2.074219,-0.833984 2.074219,-0.833984 0,0 -0.279432,-2.0805533 -0.466797,-2.4375003 -0.187365,-0.356733 -1.204758,-0.758131 -1.365234,-0.802734 -0.160689,-0.04468 -0.142578,-0.392578 -0.142578,-0.392578 z m 2.632812,0.785156 c -0.294422,-0.06245 -0.741196,0.526472 -0.875,0.722656 0.07142,0.15173 0.329251,1.7311283 0.382813,2.1503913 0,0 0.84673,-0.02854 0.742187,-0.400391 -0.10462,-0.3718623 -0.581951,-0.5882243 -0.34375,-0.8554693 0.182347,-0.204573 0.404297,-0.404296 0.404297,-0.404297 -0.334504,-0.258783 -0.256985,-0.989889 -0.310547,-1.21289 z m 0.646484,1.167969 c -0.236341,-0.0089 -0.636718,0.611328 -0.636718,0.611328 0.02675,0.02675 0.507676,0.307643 0.320312,0.8964843 -0.187365,0.588771 -1.707247,0.350638 -2.412109,0.671875 -0.657822,0.299803 -0.365371,1.140442 -0.0625,1.701172 -0.148792,0.403409 -0.115871,1.103767 -0.115235,1.117188 0.177591,0.299128 0.841323,0.946612 1.355469,1.447265 1.234618,1.202493 2.769199,2.698809 2.748047,3.652344 -0.0048,0.21697896 -0.08662,0.39889496 -0.246094,0.54101496 l -0.04492,0.03906 -0.05273,-0.02148 c -0.907226,-0.374602 -3.384266,-1.22107596 -3.941414,-0.64843896 l -0.177734,0.18359396 0.01953,-0.25585896 c 0.04295,-0.578375 -0.03165,-1.783559 -0.216797,-2.839844 0.01857,1.246236 -0.137364,2.761587 -0.341797,2.943359 -0.08546,0.07601 -0.165224,0.10156296 -0.255859,0.10156296 -0.05571,0 -0.114613,-0.01003 -0.183594,-0.02344 l 0.365234,0.42968796 c 0,0 -0.272652,0.276256 -0.642578,0.5625 0.133799,0.465007 0.434681,1.46416604 0.705078,2.00195304 1.223504,-0.490245 3.125839,-0.389764 4.810547,-0.300781 1.379537,0.07285 2.68497,0.141058 3.201172,-0.154297 -0.07192,-1.97123604 -2.888339,-6.114776 -4.414063,-7.583985 -0.167429,-0.07334 -0.320244,-0.128391 -0.441406,-0.134765 -0.27879,-0.01472 -1.124971,0.01557 -2.023437,0.05664 0.07428,-0.44651 1.799854,0.0082 2.24414,-0.419922 0.490608,-0.472894 0.184942,-1.816639 0.0332,-1.736328 -0.151581,0.08024 -1.248574,0.302894 -1.27539,0.222657 -0.02675,-0.08038 1.042462,-0.293931 1.345703,-0.427735 1.070699,-0.446074 0.527749,-1.8734123 0.335937,-1.9804693 -0.191885,-0.107051 0.23641,-0.64345 0,-0.652343 z m -6.589843,0.884765 c -0.651227,-5.3e-5 -0.835362,1.7485773 -0.417969,1.6855473 0,0 0.365848,-0.843222 1.115234,-0.816406 l 0.142578,-0.486328 c -0.09824,-0.0892 -0.750141,-0.3828133 -0.839843,-0.3828133 z m -0.292969,2.3535163 c -0.21418,0.116021 -1.644064,1.133086 -1.771484,1.253906 -0.348055,0.330132 0.663988,0.04952 1.966796,0.267578 0.0199,0.0033 0.03342,0.02288 0.04492,0.04883 0.07615,-0.117913 0.185548,-0.2968 0.195313,-0.308593 l 0.1875,0.103515 c -0.23971,0.290409 -0.796592,1.053807 -0.830078,1.470703 1.020001,0.879388 1.445702,2.306561 1.710937,3.789063 0.537072,-0.04403 0.876736,0.10751 1.089844,0.15039 0.208374,0.04188 0.303059,0.06056 0.421875,-0.04492 0.209737,-0.186576 0.38875,-2.753563 0.167969,-3.894532 -0.11093,-0.361826 -0.241118,-0.650432 -0.390625,-0.802734 -0.07163,-0.07314 -0.139232,-0.106366 -0.210938,-0.101563 l -0.0098,-0.1875 c 0.127278,-0.0071 0.243663,0.04815 0.353515,0.160157 0.0887,0.09043 0.171301,0.218988 0.246094,0.376953 l 0.01172,-0.0098 c 0.05479,0.07974 0.100067,0.210758 0.134765,0.378906 0.378388,1.12326 0.532797,3.007301 0.511719,3.867188 0.91804,-0.466869 3.490409,0.53240896 3.919922,0.70507796 0.09415,-0.100388 0.141379,-0.221199 0.144531,-0.36718696 0.01944,-0.872653 -1.548299,-2.400394 -2.693359,-3.515625 -0.797878,-0.777136 -1.282127,-1.261298 -1.416016,-1.564454 -0.08146,0.0039 -0.163419,0.0077 -0.24414,0.01172 l 0.287109,-0.6875 c 0.06819,-0.07084 0.05577,-0.265526 -0.109375,-0.294922 -0.215258,-0.0383 -0.602516,-0.260036 -0.71875,-0.291015 -0.110862,-0.02955 -0.340389,0.362223 -0.361328,0.398437 -0.08591,0.01015 -0.153792,0.03281 -0.203125,0.03906 -0.273701,0.03468 -0.708586,-0.07955 -1.015625,-0.183594 -0.307188,-0.103971 -0.321669,0.347216 -0.705078,0.289062 -0.383479,-0.05808 -0.382813,-0.972656 -0.382813,-0.972656 z m -1.035156,1.617187 c -0.894318,0.0025 -3.22175,0.170642 -3.804688,0.251953 -0.728163,0.10842 -1.719156,-0.387029 -2.912109,-0.201171 -1.192957,0.185935 -1.71966,1.534323 -2.060547,1.890625 -0.340886,0.356372 -0.775008,2.04582 -0.960938,2.835937 -0.20142,0.325396 -0.789542,0.71376696 -0.835937,1.09960896 -0.120031,0.999355 0.502062,2.09098704 0.285156,3.23632904 -0.216909,1.145273 -0.859169,3.130606 -0.835937,4.478515 0.02322,1.347914 0.05517,4.9739987 -0.347656,6.7402347 -0.402831,1.766238 -2.046224,3.935484 -2.201172,4.617187 -0.154976,0.681621 -0.495359,2.014485 -0.867188,2.107422 0.557788,0 0.755223,-0.467723 0.90625,-0.351562 0.104255,0.08018 0.288239,0.698009 0.876953,0.09375 -0.294385,-0.32539 -0.222151,-0.656595 -0.0059,-1.197266 0.340878,-0.852199 2.583178,-2.441648 3.164062,-4.773438 0.390696,-1.568181 1.678327,-5.9934607 2.117188,-7.3378897 -0.433924,-0.06777 -0.148438,-0.363281 -0.148438,-0.363282 1.254981,-0.697114 1.386613,-1.323141 1.375,-1.660156 -0.01164,-0.336941 -0.709474,-2.489564 0.382813,-2.552734 -0.720421,0.609278 -0.266602,1.71124 -0.115235,2.548828 0.116234,0.642908 -0.596235,1.214498 -1.238281,1.560547 -0.04365,0.02353 -0.07013,0.04472 -0.103515,0.06641 0.218672,0.166325 -0.02148,0.882813 -0.02148,0.882813 0.371861,-0.453177 0.770207,-0.298778 1.083985,-0.751954 0.313714,-0.453175 0.279531,-1.034132 1.232422,-0.917968 0.952815,0.116234 0.963402,-0.128387 1.021484,-0.291016 0,0 0.04747,0.03997 0.05078,0.04297 1.100715,-0.03335 1.925245,-0.519148 2.322266,-1.292969 0.302597,-0.58956 0.260628,-1.243725 -0.117188,-1.794922 l 0.152344,-0.103515 c 0.411512,0.600389 0.46063,1.341754 0.130859,1.984375 -0.418125,0.814842 -1.274533,1.228631 -2.402343,1.279296 0.369502,0.329196 3.442493,3.007075 5.603515,2.673829 -0.194322,-0.571413 -0.371094,-1.763672 -0.371094,-1.763672 l 0.386719,-0.265625 c 0.511333,2.107126 0.806824,3.237551 0.589844,4.5234367 -0.216905,1.28596 -0.97609,2.262655 -0.914063,3.533203 0.04528,0.928674 0.187698,1.515881 0.183594,1.886719 l 0.002,-0.01172 c 0.541088,0.181041 2.235932,0.20631 2.748047,-0.03125 -0.09079,-0.885002 -0.16205,-1.691057 -0.09961,-1.84375 0.139466,-0.340907 1.595732,-3.36129 2.525391,-3.578125 1.417605,-0.372006 1.201377,-1.0771207 1.224609,-1.4140617 0.02132,-0.309309 -0.45223,-5.519126 -0.662109,-6.613281 -1.341923,-0.01666 -2.584324,0.025 -3.28125,0.316406 -0.122906,0.05141 -0.238951,0.07617 -0.347657,0.07617 -0.112653,0 -0.218582,-0.02713 -0.314453,-0.08203 -0.525383,-0.300947 -0.679233,-1.381325 -0.865234,-2.75390604 -0.117381,0.04719 -0.232661,0.08034 -0.341797,0.09375 0.04359,-0.05091 0.163182,-0.239606 0.292969,-0.455078 C 36.52025,-2.3053107 36.031131,-5.1977427 33.476636,-5.5114517 l 0.0332,-0.277343 c 0.648427,0.07959 1.173127,0.313786 1.601563,0.65625 0.04008,-0.308937 0.232889,-0.687404 0.417969,-1.001954 -0.344886,-0.05267 -0.679908,-0.107935 -0.871094,-0.130859 -0.06003,-0.0072 -0.157397,-0.01012 -0.285156,-0.0098 z m 7.953125,0.333985 c 1.67717,1.724026 4.441406,5.61096496 4.441406,7.541015 v 0.07227 l -0.05859,0.04102 c -0.548327,0.396816 -1.886806,0.325813 -3.4375,0.24414 -1.709234,-0.0902 -3.648065,-0.191883 -4.802734,0.328125 l -0.115235,0.05273 -0.0625,-0.111329 c -0.283807,-0.498777 -0.603109,-1.52780904 -0.761718,-2.07226504 -0.116449,0.08081 -0.236975,0.157707 -0.359375,0.224609 8.23e-4,0.0063 0.0011,0.01316 0.002,0.01953 0.165711,1.22378904 0.321517,2.37955704 0.736328,2.61718704 0.111079,0.06346 0.247938,0.06057 0.416016,-0.0098 0.965149,-0.403556 2.833302,-0.357673 4.640625,-0.3125 1.971819,0.04948 4.010898,0.100265 4.541015,-0.457031 0.09179,-0.09644 0.131275,-0.208443 0.121094,-0.34375 -0.122989,-1.63749804 -1.739368,-5.065586 -3.882812,-7.222656 -0.534572,-0.147751 -1.013852,-0.412241 -1.417969,-0.611328 z m 1.644531,0.664062 c 2.122386,2.211513 3.813609,5.52601796 3.935547,7.148438 0.01619,0.215402 -0.0502,0.403994 -0.197266,0.558594 -0.266098,0.279649 -0.792997,0.428686 -1.476562,0.503906 0.0033,2.129822 -0.62495,6.28017 -2.378907,6.953125 1.159871,-0.209992 2.48405,-0.728153 3.214844,-1.841797 0,0 0.07694,0.06374 0.154297,0.115234 0.283907,-0.409989 1.105791,-1.66846 2.011719,-3.761718 l 0.0293,0.07422 c -0.947296,2.441987 -1.957097,3.891597 -1.966797,3.904297 -0.296457,0.676298 -1.482422,1.232422 -1.482422,1.232422 0.499641,1.8591667 0.25236,2.8884877 0.109375,4.5566407 -0.05369,0.626264 -0.156247,1.11554 -0.283203,1.513672 0.783225,0.09999 2.133783,0.08107 2.537109,-0.121094 -7.46e-4,-0.272846 0.0027,-0.51661 0.02539,-0.619141 0.05837,-0.263517 0.678307,-3.484901 0.972656,-4.011719 0.294278,-0.526744 2.495435,-5.8240157 2.658203,-8.0957027 0.02667,-0.373082 0.06242,-0.90029 -0.07813,-1.724609 0.07773,0.05586 0.154068,0.107363 0.226563,0.15039 0.665565,0.39495 2.340451,0.339378 2.015625,-1.62304604 -0.253836,-1.53377496 -1.471684,-1.18821996 -1.689453,-1.00781296 -0.371578,0.307758 -0.635958,1.01904096 -0.15625,1.16015596 -0.485228,-0.81822796 1.212449,-1.87692496 1.53125,-0.002 0.184715,1.08583 -0.68421,1.72947704 -1.712891,1.035156 -0.117524,-0.07938 -0.226804,-0.170883 -0.328125,-0.271484 -0.08755,-0.375877 -0.209146,-0.801091 -0.375,-1.287109 -0.681774,-1.99870796 -4.884553,-3.74999996 -5.082031,-3.74999996 -0.197545,0 -1.126286,-0.302584 -1.509766,-0.744141 -0.238932,0.02191 -0.475176,0.0012 -0.705078,-0.04492 z m -10.759766,0.517578 c 0.325397,0 1.083434,1.216392 2.160157,1.169922 0.593288,-0.0256 1.203114,3.97361496 0.898437,4.07421896 -2.076077,0.68557504 -2.248846,2.24259304 -2.80664,2.28906304 -0.557724,0.04653 -1.658313,-1.44823 -1.441407,-2.25390704 0.08096,0.77412704 0.984487,1.87666804 1.472657,1.83593804 0.488238,-0.04066 0.571447,-1.57965604 2.388671,-2.17968804 0.266595,-0.08805 -0.390797,-3.53212496 -0.910156,-3.50976496 -0.942492,0.04073 -1.578466,-1.185547 -1.863281,-1.185547 -0.284739,0 -0.910964,0.495728 -1.494141,0.929687 v -0.417968 c 0.666214,-0.495769 1.270375,-0.751954 1.595703,-0.751954 z m -7.382812,1.433594 c 0.320807,0 0.580078,0.446136 0.580078,0.998047 0,0.551916 -0.259271,1 -0.580078,1 -0.320881,0 -0.582031,-0.448084 -0.582031,-1 0,-0.551911 0.26115,-0.998047 0.582031,-0.998047 z m 1.425781,0.394531 c 0.213967,0 0.386719,0.298025 0.386719,0.666016 0,0.367989 -0.172752,0.666016 -0.386719,0.666016 -0.213897,0 -0.388672,-0.298027 -0.388672,-0.666016 0,-0.367991 0.174775,-0.666016 0.388672,-0.666016 z m 1.169922,0.1875 c 0.134017,0 0.242187,0.185487 0.242187,0.416016 0,0.230534 -0.10817,0.417969 -0.242187,0.417969 -0.134087,0 -0.244141,-0.187435 -0.244141,-0.417969 0,-0.230529 0.110053,-0.416016 0.244141,-0.416016 z m 0.933594,0.08594 c 0.0763,0 0.138672,0.107133 0.138672,0.238281 0,0.131219 -0.06238,0.238281 -0.138672,0.238281 -0.07637,0 -0.138672,-0.107062 -0.138672,-0.238281 0,-0.131149 0.0623,-0.238281 0.138672,-0.238281 z m 8.035156,1.558594 c -0.127566,-0.0041 -0.273258,-0.0015 -0.441406,0.01172 0.0497,0.28552996 0.09323,0.56863696 0.132812,0.84570296 0.120608,-0.205078 0.212891,-0.365234 0.212891,-0.365234 z m -8.708984,1.42773396 c 0.178226,0.01983 0.344875,0.09304 0.478515,0.238281 0.53449,0.58102804 -1.474189,0.132538 -1.648437,0.73242204 -0.04969,0.171091 -0.245443,-0.05821 -0.164063,-0.24414 0.161012,-0.36819504 0.799305,-0.78606304 1.333985,-0.72656304 z m 0.466797,0.97070304 c 0.255631,0.56934 -0.481455,1.369981 -1.683594,1.121094 -0.32625,-0.06755 -0.121556,-0.458678 0.04687,-0.423828 0.450168,0.09314 1.462406,-0.093 1.636719,-0.697266 z m 13.171874,1.660156 c 0.01639,0.165152 0.429058,4.349926 0.447266,7.0468747 0.312066,-0.01128 0.670262,-0.04751 1.044922,-0.1132807 2.130148,-1.595316 1.79929,-5.244691 1.939453,-6.919922 -0.816651,0.04905 -1.792128,0.02502 -2.794922,0 -0.212798,-0.0053 -0.423869,-0.009 -0.636719,-0.01367 z m -15.291015,3.861328 c -0.271421,0.180235 -0.210948,0.291094 -0.126953,0.351563 0.06401,-0.194781 0.108624,-0.321336 0.126953,-0.351563 z m 4.230469,0.128907 c -0.481619,-0.07435 0.295429,3.4742517 0.818359,4.7597647 0.557792,1.371217 0.812165,2.604321 0.765625,3.16211 -0.04639,0.557731 -0.0051,1.09343 0.164062,1.394531 0.208875,0.371858 0.547597,1.074475 0.408204,1.341797 -0.10725,0.205513 -0.760257,0.610808 -0.988282,1.259766 0.09239,0.03149 0.17986,0.0933 0.251954,0.1875 0.0162,0.02114 0.03124,0.04376 0.04492,0.06641 0.163849,-0.08047 0.409149,-0.121374 0.623047,0.002 0.142906,0.08246 0.275086,0.268811 0.322266,0.677734 0.08196,-0.261225 0.245868,-0.567216 0.482422,-0.683593 0.125341,-0.0617 0.25849,-0.064 0.392578,-0.0059 0.03785,0.01645 0.06898,0.03888 0.101562,0.06055 0.0201,-0.498862 0.190864,-1.559985 1.207032,-2.652344 -0.255701,-0.999272 -0.521485,-7.4980467 -0.521485,-7.4980467 0,0 -2.083808,-0.340527 -3.957031,-2.007812 -0.04373,-0.03892 -0.08313,-0.0595 -0.115234,-0.06445 z m 14.316406,2.664062 -0.740234,0.175781 c 0.283881,0.2757817 0.609355,0.4615907 0.951171,0.6093757 z m 3.582031,1.8554687 c 0,0 -0.571747,2.821172 -0.742187,3.84375 0.162629,1.007122 0.04492,2.595703 0.04492,2.595703 0,0 0.341153,0.0069 1.177734,-0.101562 0.743727,-0.511349 -0.495958,-5.702583 -0.480469,-6.337891 z m -3.708984,4.697266 c -0.369634,0.814974 -0.831014,1.147912 -1.023438,1.638672 0.292764,0.06864 0.636993,0.221568 0.677735,0.683593 0.146708,-0.31917 0.350009,-0.591181 0.714843,-0.550781 0.374383,0.04225 0.674225,0.475323 0.806641,0.894531 0.685412,0.0028 1.453125,-0.277343 1.453125,-0.277343 0,0 0.182908,-1.21343 0.105469,-1.72461 0.0035,-0.117911 -0.0024,-0.307291 -0.0039,-0.466797 -0.09361,-0.0016 -1.914729,0.156796 -2.730469,-0.197265 z m -9.552735,0.601562 c -0.151457,0.23301 -0.757646,1.018162 -0.917968,1.867188 0.163641,-0.01653 0.368476,0.04826 0.535156,0.18164 0.07256,0.05806 0.153951,0.152186 0.21289,0.289063 0.171016,-0.211225 0.503032,-0.394473 0.960938,-0.314453 0.229958,0.04003 0.506904,0.272337 0.658203,0.607422 0.309477,-0.737468 0.69548,-0.718677 0.96875,-0.628907 0.279956,0.09193 0.42693,0.417202 0.488281,0.59375 0.09985,-0.0726 0.165833,-0.148416 0.177735,-0.224609 0,-0.323803 -0.08905,-1.136169 -0.179688,-1.976563 -0.0959,-0.0034 -3.09144,0.262405 -2.904297,-0.394531 z m 8.496094,1.126953 c -0.06485,0.210534 -0.08216,0.454176 -0.02148,0.779297 0.272562,0.07006 0.498338,0.04357 0.648437,0.01563 0.01284,-0.03272 0.02555,-0.06505 0.03906,-0.09766 3.58e-4,-0.461118 -0.313452,-0.618038 -0.666016,-0.697266 z m 1.414063,0.136719 c -0.357529,-0.04126 -0.532554,0.280691 -0.675782,0.636719 0.0088,-0.0023 0.05469,-0.0098 0.05469,-0.0098 0,0 0.708444,0.324908 1.335937,0.173828 0.01605,7.91e-4 0.03265,-4.41e-4 0.04883,0 -0.128532,-0.379456 -0.430464,-0.763307 -0.763671,-0.800781 z m -10.783203,0.689453 c -0.02267,1.6e-5 -0.039,0.0044 -0.05859,0.0078 -0.03712,0.250543 -0.0352,0.505675 0.0332,0.751953 0.250094,0.09351 0.506744,0.160527 0.763672,0.210937 0.0388,-0.44573 -0.169964,-0.694993 -0.304688,-0.802734 -0.14687,-0.117639 -0.310924,-0.168056 -0.433593,-0.167969 z m 3.132812,0.109375 c -0.294218,-0.02403 -0.544942,0.220677 -0.746094,0.728516 l -0.0039,0.0078 c 0.01776,0.06065 0.02066,0.128358 0.0293,0.19336 0.586406,-0.06091 1.073386,-0.199115 1.333984,-0.371094 -0.02274,-0.05953 -0.17144,-0.428533 -0.484375,-0.53125 -0.04379,-0.01439 -0.08687,-0.02391 -0.128906,-0.02734 z m -1.777344,0.04297 c -0.276583,0.03126 -0.499389,0.171775 -0.621094,0.314453 0.04286,0.132974 0.05992,0.304943 0.04102,0.509766 0.561546,0.106008 1.114733,0.114573 1.605469,0.06641 -0.07282,-0.506342 -0.49539,-0.839452 -0.732422,-0.88086 -0.102699,-0.01793 -0.200774,-0.02018 -0.292969,-0.0098 z m -3.978515,0.07617 c -0.04935,0.173178 -0.06911,0.361448 -0.03906,0.568359 0.08846,0.119315 0.359296,0.134766 0.400391,0.136719 0.03993,-0.201447 -0.04181,-0.427538 -0.140625,-0.556641 -0.06126,-0.08015 -0.140014,-0.126815 -0.220703,-0.148437 z m 0.61914,0.189453 c -0.09315,0.0043 -0.181001,0.02992 -0.251953,0.06445 0.06721,0.150763 0.08072,0.319484 0.04297,0.470703 0.05362,0.03833 0.319289,0.199784 0.810547,0.134766 -0.04208,-0.295278 -0.148584,-0.506352 -0.320313,-0.605469 -0.09071,-0.0523 -0.188096,-0.06879 -0.281251,-0.06445 z m 1.306641,0.01953 c -0.06332,-0.0012 -0.125836,0.01062 -0.175781,0.03516 -0.195582,0.09609 -0.351128,0.353117 -0.433594,0.603516 0.443341,0.177545 1.096564,0.09697 1.222656,0.01953 -0.0042,-0.01821 -0.01202,-0.03838 -0.01758,-0.05859 -0.152508,-0.125381 -0.271484,-0.285156 -0.271484,-0.285156 0,0 -0.0043,-0.09626 -0.0059,-0.191406 -0.04076,-0.03344 -0.08537,-0.06166 -0.136719,-0.08398 -0.05399,-0.02345 -0.118316,-0.03786 -0.18164,-0.03906 z"
     inkscape:label="shadow" />
  <path
     id="body"
     style="display:inline;fill:#040606;fill-opacity:1;fill-rule:nonzero;stroke:none;stroke-width:0.00717047"
     d="m 36.976628,-17.452861 c -0.55464,0.189375 -0.423247,0.867146 -0.226562,1.304688 -0.129426,0.152445 0.06213,0.461334 0.11914,0.669921 0.095,-0.10024 0.184507,-0.277373 0.230469,-0.419921 0.01783,0.01957 0.02065,0.01932 0.002,-0.0059 0.02178,-0.06906 0.0349,-0.13018 0.03125,-0.167969 -0.0056,-0.05916 -0.04806,-0.113734 -0.109375,-0.140625 0.07357,-0.412877 0.291797,-0.998987 0.896485,-0.892578 -0.538361,-0.220136 -0.886081,0.366595 -1.027344,0.824219 -0.05929,-0.410083 -0.02534,-0.972039 0.544922,-1.074219 -0.494835,-0.01816 -0.659273,0.465103 -0.681641,0.904297 -0.143844,-0.340242 -0.191602,-0.753135 0.220703,-1.001953 z m -0.40039,1.388672 c 0,0 -1.18499,0.856867 -0.482422,1.646484 0,-0.02683 -0.187541,-0.770263 0.708984,-0.984375 z m 0.675781,0 -0.228516,0.601562 c 0.843033,0.107051 0.948168,0.296996 1.525391,0.638672 -0.0066,-0.669009 -0.748186,-1.11303 -1.296875,-1.240234 z m -0.490234,0.736328 c -0.796212,0.321165 -0.694761,1.076726 -0.353516,1.417969 -0.180699,-0.347984 0.420563,-0.876024 0.353516,-1.417969 z m 0.107421,0 c 0.113646,0.327834 0.782537,1.498724 1.337891,1.304688 0.287752,-0.3814 0.222656,-0.695313 0.222656,-0.695313 0,0 -0.79775,-0.683017 -1.560547,-0.609375 z m 0.02344,0.267578 c -0.196398,0.602251 -0.312111,0.883148 -0.431641,0.896484 0.06123,0.23426 0.07444,0.716776 0.04102,0.763672 -0.0335,0.04675 0.320565,0.267579 0.521484,0.267578 0.20077,0 0.802735,-0.341796 0.802735,-0.341796 0,0 -0.117312,-0.388586 0,-0.46875 -0.384626,-0.171806 -0.843247,-0.675631 -0.933594,-1.117188 z m 1.167969,1.367188 c -0.05084,0.01455 -0.10998,0.02029 -0.121094,0.05664 0.01557,0.36792 -0.332532,0.35779 -0.675781,0.587891 -0.265667,0.06367 -0.394532,-0.0293 -0.394532,-0.0293 v 0.169922 c -0.209738,0.196254 -0.975316,0.480853 -0.998047,0.71289 -0.0226,0.231895 -0.05765,1.08068 0,1.107422 0,0 -0.264708,0.945751 -0.193359,1.052735 0.07142,0.1071303 -1.409264,1.0431723 -1.275391,1.2304693 0,0 0.319775,0.247576 0.447266,0.251953 0.19411,0.0067 0.127399,0.968422 0.375,0.939453 0.247523,-0.02897 0.373556,-0.428546 0.480469,-0.421875 0.277285,-0.119103 -0.459653,-0.733944 -0.314453,-0.742188 0,0 0.803211,0.053087 0.857422,0.091797 0.05435,0.03863 1.062938,-0.146946 1.333984,-0.658203 l 0.121094,0.279297 c -0.229098,0.362684 -1.335311,0.572265 -1.542969,0.572266 0,0 -0.455701,0.527109 -0.214844,0.607421 0.24093,0.08031 0.749298,0.215397 0.931641,0.179688 0.182421,-0.03571 0.600756,-0.693734 0.845703,-0.662109 0.17173,0.022059 -0.01367,0.33789 -0.01367,0.33789 0,0 0.40446,0.257596 0.521485,0.175781 0.09358,-0.17317 -0.267597,-0.690414 -0.269532,-1.373047 -0.0021,-0.716118 2.074219,-0.8339843 2.074219,-0.8339843 0,0 -0.279432,-2.080553 -0.466797,-2.4375 -0.187365,-0.356733 -1.204758,-0.758131 -1.365234,-0.802734 -0.160689,-0.04468 -0.142578,-0.392578 -0.142578,-0.392578 z m 2.632812,0.785156 c -0.294422,-0.06245 -0.741196,0.526472 -0.875,0.722656 0.07142,0.15173 0.329251,1.731128 0.382813,2.150391 0,0 0.84673,-0.02854 0.742187,-0.400391 -0.10462,-0.371862 -0.581951,-0.588224 -0.34375,-0.855469 0.182347,-0.204573 0.404297,-0.404296 0.404297,-0.404297 -0.334504,-0.258783 -0.256985,-0.989889 -0.310547,-1.21289 z m 0.646484,1.167969 c -0.236341,-0.0089 -0.636718,0.611328 -0.636718,0.611328 0.02675,0.02675 0.507676,0.307643 0.320312,0.896484 -0.187365,0.5887713 -1.707247,0.3506383 -2.412109,0.6718753 -0.657822,0.299803 -0.365371,1.140442 -0.0625,1.701172 -0.148792,0.403409 -0.115871,1.103767 -0.115235,1.117188 0.177591,0.299128 0.841323,0.946612 1.355469,1.447265 1.234618,1.202493 2.769199,2.698809 2.748047,3.652344 -0.0048,0.216979 -0.08662,0.398895 -0.246094,0.541015 l -0.04492,0.039063 -0.05273,-0.021484 c -0.907218,-0.374601 -3.384258,-1.221075 -3.941406,-0.648438 l -0.177734,0.183594 0.01953,-0.255859 c 0.04295,-0.578375 -0.03165,-1.783559 -0.216797,-2.839844 0.01857,1.246236 -0.137364,2.761587 -0.341797,2.943359 -0.08546,0.07601 -0.165224,0.101563 -0.255859,0.101563 -0.05571,0 -0.114613,-0.010028 -0.183594,-0.023438 l 0.365234,0.429688 c 0,0 -0.272652,0.27625596 -0.642578,0.56249996 0.133799,0.465007 0.434681,1.464166 0.705078,2.00195304 1.223504,-0.49024504 3.125839,-0.38976404 4.810547,-0.300781 1.379537,0.072849 2.68497,0.141058 3.201172,-0.15429704 -0.07192,-1.97123596 -2.888339,-6.11477596 -4.414063,-7.58398496 -0.167429,-0.073339 -0.320244,-0.128391 -0.441406,-0.134765 -0.27879,-0.01472 -1.124971,0.01557 -2.023437,0.05664 0.07428,-0.44651 1.799854,0.00823 2.24414,-0.419922 0.490608,-0.472894 0.184942,-1.816639 0.0332,-1.736328 -0.151581,0.08024 -1.248574,0.302894 -1.27539,0.222657 -0.02675,-0.080381 1.042462,-0.293931 1.345703,-0.427735 1.070699,-0.446074 0.527749,-1.8734123 0.335937,-1.9804693 -0.191885,-0.107051 0.23641,-0.64345 0,-0.652343 z m -6.589843,0.884765 c -0.651227,-5.3e-5 -0.835362,1.7485773 -0.417969,1.6855473 0,0 0.365848,-0.8432223 1.115234,-0.816406 l 0.142578,-0.4863283 c -0.09824,-0.0892 -0.750141,-0.382813 -0.839843,-0.382813 z m -0.292969,2.3535163 c -0.21418,0.116021 -1.644064,1.133086 -1.771484,1.253906 -0.348055,0.330132 0.663988,0.049518 1.966796,0.267578 0.0199,0.00331 0.03342,0.022885 0.04492,0.048828 0.07615,-0.117913 0.185548,-0.2968 0.195313,-0.308593 l 0.1875,0.103515 c -0.23971,0.290409 -0.796592,1.053807 -0.830078,1.470703 1.020001,0.879388 1.445702,2.306561 1.710937,3.789063 0.537072,-0.04403 0.876736,0.10751 1.089844,0.15039 0.208374,0.04188 0.303059,0.060559 0.421875,-0.044921 0.209737,-0.186576 0.38875,-2.753563 0.167969,-3.894532 -0.11093,-0.361826 -0.241118,-0.650432 -0.390625,-0.802734 -0.07163,-0.07314 -0.139232,-0.106366 -0.210938,-0.101563 l -0.0098,-0.1875 c 0.127278,-0.0071 0.243663,0.048152 0.353515,0.160157 0.0887,0.09043 0.171301,0.218988 0.246094,0.376953 l 0.01172,-0.00977 c 0.05479,0.07974 0.100067,0.210758 0.134765,0.378906 0.378388,1.12326 0.532797,3.007301 0.511719,3.867188 0.91804,-0.466869 3.490409,0.532409 3.919922,0.705078 0.09415,-0.100388 0.141379,-0.221199 0.144531,-0.367187 0.01944,-0.872653 -1.548299,-2.400394 -2.693359,-3.515625 -0.797878,-0.777136 -1.282127,-1.261298 -1.416016,-1.564454 -0.08146,0.00392 -0.163419,0.00771 -0.24414,0.011719 l 0.287109,-0.6875 c 0.06819,-0.07084 0.05577,-0.265526 -0.109375,-0.294922 -0.215258,-0.0383 -0.602516,-0.260036 -0.71875,-0.291015 -0.110862,-0.02955 -0.340389,0.362223 -0.361328,0.398437 -0.08591,0.01015 -0.153792,0.032813 -0.203125,0.039063 -0.273701,0.03468 -0.708586,-0.079546 -1.015625,-0.183594 -0.307188,-0.103971 -0.321669,0.347216 -0.705078,0.289062 -0.383479,-0.05808 -0.382813,-0.972656 -0.382813,-0.972656 z m -1.035156,1.617187 c -0.894318,0.00247 -3.22175,0.170642 -3.804688,0.251953 -0.728163,0.10842 -1.719156,-0.387029 -2.912109,-0.201171 -1.192957,0.185935 -1.71966,1.534323 -2.060547,1.890625 -0.340886,0.356372 -0.775008,2.04582 -0.960938,2.835937 -0.20142,0.325396 -0.789542,0.713767 -0.835937,1.099609 -0.120031,0.99935496 0.502062,2.090987 0.285156,3.236329 -0.216909,1.145273 -0.859169,3.130606 -0.835937,4.478515 0.02322,1.347914 0.05517,4.9739987 -0.347656,6.7402347 -0.402831,1.766238 -2.046224,3.935484 -2.201172,4.617187 -0.154976,0.681621 -0.495359,2.014485 -0.867188,2.107422 0.557788,0 0.755223,-0.467723 0.90625,-0.351562 0.104255,0.08018 0.288239,0.698009 0.876953,0.09375 -0.294385,-0.32539 -0.222151,-0.656595 -0.0059,-1.197266 0.340878,-0.852199 2.583178,-2.441648 3.164062,-4.773438 0.390696,-1.568181 1.678327,-5.9934607 2.117188,-7.3378897 -0.433924,-0.067766 -0.148438,-0.363281 -0.148438,-0.363282 1.254981,-0.697114 1.386613,-1.323141 1.375,-1.660156 -0.01164,-0.336941 -0.709474,-2.489564 0.382813,-2.552734 -0.720421,0.609278 -0.266602,1.71124 -0.115235,2.548828 0.116234,0.642908 -0.596235,1.214498 -1.238281,1.560547 -0.04365,0.023532 -0.07013,0.04472 -0.103515,0.066406 0.218672,0.166325 -0.02148,0.882813 -0.02148,0.882813 0.371861,-0.453177 0.770207,-0.298778 1.083985,-0.751954 0.313714,-0.453175 0.279531,-1.034132 1.232422,-0.917968 0.952815,0.116234 0.963402,-0.128387 1.021484,-0.291016 0,0 0.04747,0.03997 0.05078,0.042969 1.100715,-0.033348 1.925245,-0.519148 2.322266,-1.292969 0.302597,-0.58956 0.260628,-1.243725 -0.117188,-1.794922 l 0.152344,-0.103515 c 0.411512,0.600389 0.46063,1.341754 0.130859,1.984375 -0.418125,0.814842 -1.274533,1.228631 -2.402343,1.279296 0.369502,0.329196 3.442493,3.007075 5.603515,2.673829 -0.194322,-0.571413 -0.371094,-1.763672 -0.371094,-1.763672 l 0.386719,-0.265625 c 0.511333,2.107126 0.806824,3.237551 0.589844,4.5234367 -0.216905,1.28596 -0.97609,2.262655 -0.914063,3.533203 0.04528,0.928674 0.187698,1.515881 0.183594,1.886719 l 0.002,-0.01172 c 0.541088,0.181041 2.235932,0.20631 2.748047,-0.03125 -0.09079,-0.885002 -0.16205,-1.691057 -0.09961,-1.84375 0.139466,-0.340907 1.595732,-3.36129 2.525391,-3.578125 1.417605,-0.3720057 1.201377,-1.0771207 1.224609,-1.4140617 0.02132,-0.309309 -0.45223,-5.519126 -0.662109,-6.613281 -1.341923,-0.016657 -2.584324,0.024997 -3.28125,0.316406 -0.122906,0.05141 -0.238951,0.076172 -0.347657,0.076172 -0.112653,0 -0.218582,-0.027132 -0.314453,-0.082032 -0.525383,-0.300947 -0.679233,-1.381325 -0.865234,-2.75390604 -0.117381,0.04719 -0.232661,0.08034 -0.341797,0.09375 0.04359,-0.05091 0.163182,-0.239606 0.292969,-0.455078 C 35.56907,-2.9146887 35.079951,-5.8071207 32.525456,-6.1208297 l 0.0332,-0.277343 c 0.648427,0.079589 1.173127,0.313786 1.601563,0.65625 0.04008,-0.308937 0.232889,-0.687404 0.417969,-1.001954 -0.344886,-0.052671 -0.679908,-0.107935 -0.871094,-0.130859 -0.06003,-0.00722 -0.157397,-0.010118 -0.285156,-0.00977 z m 7.953125,0.333985 c 1.67717,1.724026 4.441406,5.61096496 4.441406,7.54101496 v 0.072266 l -0.05859,0.041016 c -0.548327,0.396816 -1.886806,0.325813 -3.4375,0.24414 -1.709234,-0.0902 -3.648065,-0.191883 -4.802734,0.328125 l -0.115235,0.052735 -0.0625,-0.111329 C 37.056102,1.1186743 36.7368,0.08964226 36.578191,-0.45481374 c -0.116449,0.08081 -0.236975,0.157707 -0.359375,0.224609 8.23e-4,0.0063 0.0011,0.013161 0.002,0.019532 0.165711,1.22378904 0.321517,2.37955704 0.736328,2.61718704 0.111079,0.06346 0.247938,0.060574 0.416016,-0.00977 0.965149,-0.403556 2.833302,-0.357673 4.640625,-0.3125 1.971819,0.04948 4.010898,0.100265 4.541015,-0.457031 0.09179,-0.09644 0.131275,-0.208443 0.121094,-0.34375 -0.122989,-1.63749804 -1.739368,-5.065586 -3.882812,-7.222656 -0.534572,-0.147751 -1.013852,-0.412241 -1.417969,-0.611328 z m 1.644531,0.664062 c 2.122386,2.211513 3.813609,5.52601796 3.935547,7.148438 0.01619,0.215402 -0.0502,0.403994 -0.197266,0.558594 -0.266098,0.279649 -0.792997,0.428686 -1.476562,0.503906 0.0033,2.129822 -0.62495,6.28017 -2.378907,6.953125 1.159871,-0.209992 2.48405,-0.728153 3.214844,-1.841797 0,0 0.07694,0.063744 0.154297,0.115234 0.283907,-0.409989 1.105791,-1.66846 2.011719,-3.761718 l 0.0293,0.074218 c -0.947296,2.441987 -1.957097,3.891597 -1.966797,3.904297 -0.296457,0.676298 -1.482422,1.232422 -1.482422,1.232422 0.499641,1.8591667 0.25236,2.8884877 0.109375,4.5566407 -0.05369,0.626264 -0.156247,1.11554 -0.283203,1.513672 0.783225,0.09999 2.133783,0.08107 2.537109,-0.121094 -7.46e-4,-0.272846 0.0027,-0.51661 0.02539,-0.619141 0.05837,-0.263517 0.678307,-3.484901 0.972656,-4.011719 0.294278,-0.5267437 2.495435,-5.8240157 2.658203,-8.0957027 0.02667,-0.373082 0.06243,-0.90029 -0.07813,-1.72460904 0.07773,0.05586 0.154068,0.107363 0.226563,0.15039 0.665565,0.39495004 2.340451,0.339378 2.015625,-1.623046 -0.253836,-1.53377496 -1.471684,-1.18821996 -1.689453,-1.00781296 -0.371578,0.307758 -0.635958,1.01904096 -0.15625,1.16015596 -0.485228,-0.81822796 1.212449,-1.87692496 1.53125,-0.001953 0.184715,1.08583 -0.68421,1.729477 -1.712891,1.035156 -0.117524,-0.07938 -0.226804,-0.170883 -0.328125,-0.271484 -0.08755,-0.375877 -0.209146,-0.801091 -0.375,-1.28710896 -0.681774,-1.998708 -4.884553,-3.75 -5.082031,-3.75 -0.197545,0 -1.126286,-0.302584 -1.509766,-0.744141 -0.238932,0.021913 -0.475176,0.00125 -0.705078,-0.044922 z m -10.759766,0.517578 c 0.325397,0 1.083434,1.216392 2.160157,1.169922 0.593288,-0.025599 1.203114,3.97361496 0.898437,4.07421896 -2.076077,0.685575 -2.248846,2.24259304 -2.80664,2.28906304 -0.557724,0.046534 -1.658313,-1.44823004 -1.441407,-2.25390704 0.08096,0.774127 0.984487,1.87666804 1.472657,1.83593804 0.488238,-0.040657 0.571447,-1.57965604 2.388671,-2.17968804 0.266595,-0.08805 -0.390797,-3.53212496 -0.910156,-3.50976496 -0.942492,0.040727 -1.578466,-1.185547 -1.863281,-1.185547 -0.284739,0 -0.910964,0.495728 -1.494141,0.929687 v -0.417968 c 0.666214,-0.495769 1.270375,-0.751954 1.595703,-0.751954 z m -7.382812,1.433594 c 0.320807,0 0.580078,0.446136 0.580078,0.998047 0,0.551916 -0.259271,1 -0.580078,1 -0.320881,0 -0.582031,-0.448084 -0.582031,-1 0,-0.551911 0.26115,-0.998047 0.582031,-0.998047 z m 1.425781,0.394531 c 0.213967,0 0.386719,0.298025 0.386719,0.666016 0,0.367989 -0.172752,0.666016 -0.386719,0.666016 -0.213897,0 -0.388672,-0.298027 -0.388672,-0.666016 0,-0.367991 0.174775,-0.666016 0.388672,-0.666016 z m 1.169922,0.1875 c 0.134017,0 0.242187,0.185487 0.242187,0.416016 0,0.230534 -0.10817,0.417969 -0.242187,0.417969 -0.134087,0 -0.244141,-0.187435 -0.244141,-0.417969 0,-0.230529 0.110053,-0.416016 0.244141,-0.416016 z m 0.933594,0.085938 c 0.0763,0 0.138672,0.107133 0.138672,0.238281 0,0.131219 -0.06238,0.238281 -0.138672,0.238281 -0.07637,0 -0.138672,-0.107062 -0.138672,-0.238281 0,-0.131149 0.0623,-0.238281 0.138672,-0.238281 z m 8.035156,1.558594 c -0.127566,-0.0041 -0.273258,-0.00154 -0.441406,0.011718 0.0497,0.28553 0.09323,0.568637 0.132812,0.84570296 0.120608,-0.20507796 0.212891,-0.36523396 0.212891,-0.36523396 z m -8.708984,1.42773396 c 0.178226,0.019833 0.344875,0.093042 0.478515,0.238281 0.53449,0.581028 -1.474189,0.132538 -1.648437,0.732422 -0.04969,0.171091 -0.245443,-0.058211 -0.164063,-0.24414 0.161012,-0.368195 0.799305,-0.786063 1.333985,-0.726563 z m 0.466797,0.970703 C 28.454916,1.2590573 27.71783,2.0596983 26.515691,1.8108113 c -0.32625,-0.067546 -0.121556,-0.458678 0.04687,-0.423828 0.450168,0.093145 1.462406,-0.093005 1.636719,-0.69726604 z M 41.371159,2.3498733 c 0.01639,0.165152 0.429058,4.349926 0.447266,7.046875 0.312066,-0.011277 0.670262,-0.047508 1.044922,-0.113281 2.130148,-1.595316 1.79929,-5.244691 1.939453,-6.919922 -0.816651,0.04905 -1.792128,0.025021 -2.794922,0 -0.212798,-0.00533 -0.423869,-0.00903 -0.636719,-0.013672 z m -15.291015,3.861328 c -0.271421,0.180235 -0.210948,0.291094 -0.126953,0.351563 0.064,-0.194781 0.108624,-0.321336 0.126953,-0.351563 z m 4.230469,0.128907 c -0.481619,-0.074348 0.295429,3.474252 0.818359,4.7597647 0.557792,1.371217 0.812165,2.604321 0.765625,3.16211 -0.0464,0.557731 -0.0051,1.09343 0.164062,1.394531 0.208875,0.371858 0.547597,1.074475 0.408204,1.341797 -0.10725,0.205513 -0.760257,0.610808 -0.988282,1.259766 0.09239,0.03149 0.17986,0.0933 0.251954,0.1875 0.0162,0.02114 0.03124,0.04376 0.04492,0.06641 0.163849,-0.08047 0.409149,-0.121374 0.623047,0.002 0.142906,0.08246 0.275086,0.268811 0.322266,0.677734 0.08196,-0.261225 0.245868,-0.567216 0.482422,-0.683593 0.125341,-0.0617 0.25849,-0.064 0.392578,-0.0059 0.03785,0.01645 0.06898,0.03888 0.101562,0.06055 0.0201,-0.498862 0.190864,-1.559985 1.207032,-2.652344 -0.255701,-0.999272 -0.521485,-7.4980467 -0.521485,-7.4980467 0,0 -2.083808,-0.340527 -3.957031,-2.007812 -0.04373,-0.038918 -0.08313,-0.059497 -0.115234,-0.064453 z m 14.316406,2.664062 -0.740234,0.175781 c 0.283881,0.275782 0.609355,0.461591 0.951171,0.609376 z m 3.582031,1.8554687 c 0,0 -0.571747,2.821172 -0.742187,3.84375 0.162629,1.007122 0.04492,2.595703 0.04492,2.595703 0,0 0.341153,0.0069 1.177734,-0.101562 0.743727,-0.511349 -0.495958,-5.702583 -0.480469,-6.337891 z m -3.708984,4.697266 c -0.369634,0.814974 -0.831014,1.147912 -1.023438,1.638672 0.292764,0.06864 0.636993,0.221568 0.677735,0.683593 0.146708,-0.31917 0.350009,-0.591181 0.714843,-0.550781 0.374383,0.04225 0.674225,0.475323 0.806641,0.894531 0.685412,0.0028 1.453125,-0.277343 1.453125,-0.277343 0,0 0.182908,-1.21343 0.105469,-1.72461 0.0035,-0.117911 -0.0024,-0.307291 -0.0039,-0.466797 -0.09361,-0.0016 -1.914729,0.156796 -2.730469,-0.197265 z m -9.552735,0.601562 c -0.151457,0.23301 -0.757646,1.018162 -0.917968,1.867188 0.163641,-0.01654 0.368476,0.04826 0.535156,0.18164 0.07257,0.05806 0.153951,0.152186 0.21289,0.289063 0.171016,-0.211225 0.503032,-0.394473 0.960938,-0.314453 0.229958,0.04003 0.506904,0.272337 0.658203,0.607422 0.309477,-0.737468 0.69548,-0.718677 0.96875,-0.628907 0.279956,0.09193 0.42693,0.417202 0.488281,0.59375 0.09985,-0.0726 0.165833,-0.148416 0.177735,-0.224609 0,-0.323803 -0.08905,-1.136169 -0.179688,-1.976563 -0.0959,-0.0034 -3.09144,0.262405 -2.904297,-0.394531 z m 8.496094,1.126953 c -0.06485,0.210534 -0.08216,0.454176 -0.02148,0.779297 0.272562,0.07006 0.498338,0.04357 0.648437,0.01563 0.01284,-0.03272 0.02555,-0.06505 0.03906,-0.09766 3.58e-4,-0.461118 -0.313452,-0.618038 -0.666016,-0.697266 z m 1.414063,0.136719 c -0.357529,-0.04126 -0.532554,0.280691 -0.675782,0.636719 0.0088,-0.0023 0.05469,-0.0098 0.05469,-0.0098 0,0 0.708444,0.324908 1.335937,0.173828 0.01605,7.91e-4 0.03265,-4.41e-4 0.04883,0 -0.128532,-0.379456 -0.430464,-0.763307 -0.763671,-0.800781 z m -10.783203,0.689453 c -0.02267,1.6e-5 -0.03901,0.0044 -0.05859,0.0078 -0.03712,0.250543 -0.0352,0.505675 0.0332,0.751953 0.250094,0.09351 0.506744,0.160527 0.763672,0.210937 0.0388,-0.44573 -0.169964,-0.694993 -0.304688,-0.802734 -0.14687,-0.117639 -0.310924,-0.168056 -0.433593,-0.167969 z m 3.132812,0.109375 c -0.294218,-0.02403 -0.544942,0.220677 -0.746094,0.728516 l -0.0039,0.0078 c 0.01776,0.06065 0.02066,0.128358 0.0293,0.19336 0.586406,-0.06091 1.073386,-0.199115 1.333984,-0.371094 -0.02274,-0.05953 -0.17144,-0.428533 -0.484375,-0.53125 -0.04379,-0.01439 -0.08687,-0.02391 -0.128906,-0.02734 z m -1.777344,0.04297 c -0.276583,0.03126 -0.499389,0.171775 -0.621094,0.314453 0.04286,0.132974 0.05992,0.304943 0.04102,0.509766 0.561546,0.106008 1.114733,0.114573 1.605469,0.06641 -0.07282,-0.506342 -0.49539,-0.839452 -0.732422,-0.88086 -0.102699,-0.01793 -0.200774,-0.02018 -0.292969,-0.0098 z m -3.978515,0.07617 c -0.04935,0.173178 -0.06911,0.361448 -0.03906,0.568359 0.08846,0.119315 0.359296,0.134766 0.400391,0.136719 0.03993,-0.201447 -0.04181,-0.427538 -0.140625,-0.556641 -0.06126,-0.08015 -0.140014,-0.126815 -0.220703,-0.148437 z m 0.61914,0.189453 c -0.09315,0.0043 -0.181001,0.02992 -0.251953,0.06445 0.06721,0.150763 0.08072,0.319484 0.04297,0.470703 0.05362,0.03833 0.319289,0.199784 0.810547,0.134766 -0.04208,-0.295278 -0.148584,-0.506352 -0.320313,-0.605469 -0.09071,-0.0523 -0.188096,-0.06879 -0.28125,-0.06445 z m 1.306641,0.01953 c -0.06332,-0.0012 -0.125836,0.01062 -0.175781,0.03516 -0.195582,0.09609 -0.351128,0.353117 -0.433594,0.603516 0.443341,0.177545 1.096564,0.09697 1.222656,0.01953 -0.0042,-0.01821 -0.01202,-0.03838 -0.01758,-0.05859 -0.152508,-0.125381 -0.271484,-0.285156 -0.271484,-0.285156 0,0 -0.0043,-0.09626 -0.0059,-0.191406 -0.04076,-0.03344 -0.08537,-0.06167 -0.136719,-0.08398 -0.05399,-0.02344 -0.118316,-0.03787 -0.18164,-0.03906 z"
     inkscape:label="body" />
</svg>
