<?xml version="1.0" encoding="UTF-8" standalone="no"?>
<!-- Created with Inkscape (http://www.inkscape.org/) -->

<svg
   id="svg2"
   version="1.1"
   inkscape:version="1.1.1 (3bf5ae0d25, 2021-09-20)"
   width="80"
   height="31.42371"
   sodipodi:docname="fleet.svg"
   xmlns:inkscape="http://www.inkscape.org/namespaces/inkscape"
   xmlns:sodipodi="http://sodipodi.sourceforge.net/DTD/sodipodi-0.dtd"
   xmlns="http://www.w3.org/2000/svg"
   xmlns:svg="http://www.w3.org/2000/svg"
   xmlns:rdf="http://www.w3.org/1999/02/22-rdf-syntax-ns#"
   xmlns:cc="http://creativecommons.org/ns#"
   xmlns:dc="http://purl.org/dc/elements/1.1/">
  <metadata
     id="metadata8">
    <rdf:RDF>
      <cc:Work
         rdf:about="">
        <dc:format>image/svg+xml</dc:format>
        <dc:type
           rdf:resource="http://purl.org/dc/dcmitype/StillImage" />
      </cc:Work>
    </rdf:RDF>
  </metadata>
  <defs
     id="defs6">
    <inkscape:perspective
       sodipodi:type="inkscape:persp3d"
       inkscape:vp_x="0 : 0.5 : 1"
       inkscape:vp_y="0 : 1000 : 0"
       inkscape:vp_z="1 : 0.5 : 1"
       inkscape:persp3d-origin="0.5 : 0.33333333 : 1"
       id="perspective10" />
  </defs>
  <sodipodi:namedview
     pagecolor="#ffffff"
     bordercolor="#666666"
     borderopacity="1"
     objecttolerance="10"
     gridtolerance="10"
     guidetolerance="10"
     inkscape:pageopacity="0"
     inkscape:pageshadow="2"
     inkscape:window-width="1920"
     inkscape:window-height="1017"
     id="namedview4"
     showgrid="false"
     inkscape:zoom="11.437452"
     inkscape:cx="56.874555"
     inkscape:cy="10.273267"
     inkscape:window-x="-8"
     inkscape:window-y="-8"
     inkscape:window-maximized="1"
     inkscape:current-layer="svg2"
     fit-margin-top="0"
     fit-margin-left="0"
     fit-margin-right="0"
     fit-margin-bottom="0"
     inkscape:pagecheckerboard="0" />
  <path
     id="shadow"
     d="m 65.622257,0.76751116 c -0.05868,-0.0200278 0.06658,0.17523469 0.377216,0.58866474 1.866469,2.4839743 2.929159,5.8044764 2.931046,9.1585651 0.0024,4.15643 -1.706307,9.309587 -4.520219,13.632369 -0.482086,0.740727 -0.852854,1.346783 -0.823934,1.346783 0.02904,0 0.267305,-0.146827 0.529723,-0.326383 0.691815,-0.473278 1.988679,-1.105068 2.929082,-1.427085 1.662019,-0.569098 4.414193,-1.009796 6.318386,-1.01181 l 0.974476,-0.0011 v 0.943043 c 0,0.94304 0,0.94304 0.377217,0.94304 0.377216,0 0.377216,-7.4e-5 0.377216,-0.960968 v -0.960971 l 1.414564,0.08767 c 2.695846,0.166982 6.141848,0.716215 9.336122,1.487749 1.296244,0.313089 1.556524,0.409759 1.257391,0.467347 -0.293727,0.05646 -0.06775,0.134838 1.020401,0.354379 0.768643,0.155035 1.984814,0.446907 2.702407,0.648341 0.717716,0.201559 1.312429,0.356378 1.321735,0.344307 0.0092,-0.01206 -0.783694,-0.785719 -1.762067,-1.719333 -0.97825,-0.933636 -3.61638,-3.453824 -5.862581,-5.600566 C 76.611579,11.202967 66.09794,1.1796942 65.7421,0.85893389 65.681712,0.80448894 65.641816,0.77400731 65.622257,0.7673306 Z M 93.117107,20.210399 c -0.01581,-0.0011 -0.03317,0.0027 -0.05108,0.01179 -0.0716,0.03569 -0.15362,0.148935 -0.195241,0.314594 -0.06513,0.259778 0.0064,0.415567 0.361009,0.78587 0.640516,0.668806 0.847263,1.159012 0.847263,2.00863 0,1.38074 -0.444266,2.149571 -1.591381,2.753246 -0.404126,0.212747 -1.118809,0.481092 -1.588193,0.596521 -1.231991,0.303157 -3.409718,0.452741 -4.681568,0.321468 -0.933235,-0.09631 -1.229934,-0.191011 -2.144685,-0.68567 -0.583932,-0.315604 -1.499639,-0.728641 -2.03491,-0.917499 -0.973346,-0.343522 -0.973249,-0.34358 -5.751332,-0.385325 -5.217668,-0.04564 -9.991475,0.122741 -11.567989,0.407916 -0.553254,0.09996 -1.769777,0.379057 -2.70339,0.620101 -2.265693,0.585062 -3.952529,0.834779 -6.227273,0.922165 -2.371188,0.09116 -3.152002,-0.08093 -3.568828,-0.787586 -0.312962,-0.530241 -0.682428,-0.545358 -0.742154,-0.0302 -0.02803,0.242174 0.08601,0.47445 0.40865,0.831547 0.332456,0.368037 0.447699,0.607934 0.447699,0.933222 0,0.785364 0.76437,1.351148 3.01774,2.233587 0.01755,0.0069 0.04241,0.01481 0.06115,0.02185 a 30.586925,0.27958797 0 0 0 -12.039515,0.221756 30.586925,0.27958797 0 0 0 30.586755,0.279477 30.586925,0.27958797 0 0 0 30.586996,-0.279477 30.586925,0.27958797 0 0 0 -13.436884,-0.231584 c 1.677909,-0.53096 2.583557,-1.766176 3.224766,-4.407988 0.496666,-2.046152 0.323752,-3.272193 -0.643432,-4.559513 -0.270842,-0.360366 -0.492398,-0.727561 -0.492398,-0.815829 0,-0.108686 -0.03433,-0.159501 -0.08178,-0.163069 z M 73.87609,31.227051 a 25.246793,0.27958797 0 0 0 -25.246776,0.27972 25.246793,0.27958797 0 0 0 25.246776,0.279476 25.246793,0.27958797 0 0 0 25.246773,-0.279476 25.246793,0.27958797 0 0 0 -25.246773,-0.27972 z"
     style="opacity:0.5;stroke-width:0.125739"
     inkscape:label="shadow" />
  <path
     id="hull"
     d="m 63.961048,0.15548674 c -0.05868,-0.0200278 0.06658,0.17523469 0.377216,0.58866474 1.866469,2.48397432 2.929159,5.80447642 2.931046,9.15856512 0.0024,4.1564304 -1.706307,9.3095874 -4.520219,13.6323694 -0.482086,0.740727 -0.852854,1.346783 -0.823934,1.346783 0.02904,0 0.267305,-0.146827 0.529723,-0.326383 0.691815,-0.473278 1.988679,-1.105068 2.929082,-1.427085 1.662019,-0.569098 4.414193,-1.009796 6.318386,-1.01181 l 0.974476,-0.0011 v 0.943043 c 0,0.94304 0,0.94304 0.377217,0.94304 0.377216,0 0.377216,-7.4e-5 0.377216,-0.960968 v -0.960971 l 1.414564,0.08767 c 2.695846,0.166982 6.141848,0.716215 9.336122,1.487749 1.296244,0.313089 1.556524,0.409759 1.257391,0.467347 -0.293727,0.05646 -0.06775,0.134838 1.020401,0.354379 0.768643,0.155035 1.984814,0.446907 2.702407,0.648341 0.717716,0.201559 1.312429,0.356378 1.321735,0.344307 0.0092,-0.01206 -0.783694,-0.785719 -1.762067,-1.719333 C 87.74356,22.816459 85.10543,20.296271 82.859229,18.149529 74.95037,10.590943 64.436731,0.56766978 64.080891,0.24690947 64.020503,0.19246452 63.980607,0.16198289 63.961048,0.15530618 Z M 91.455898,19.598375 c -0.01581,-0.0011 -0.03317,0.0027 -0.05108,0.01179 -0.0716,0.03569 -0.15362,0.148935 -0.195241,0.314594 -0.06513,0.259778 0.0064,0.415567 0.361009,0.78587 0.640516,0.668806 0.847263,1.159012 0.847263,2.00863 0,1.38074 -0.444266,2.149571 -1.591381,2.753246 -0.404126,0.212747 -1.118809,0.481092 -1.588193,0.596521 -1.231991,0.303157 -3.409718,0.452741 -4.681568,0.321468 -0.933235,-0.09631 -1.229934,-0.191011 -2.144685,-0.68567 -0.583932,-0.315604 -1.499639,-0.728641 -2.03491,-0.917499 -0.973346,-0.343522 -0.973249,-0.34358 -5.751332,-0.385325 -5.217668,-0.04564 -9.991475,0.122741 -11.567989,0.407916 -0.553254,0.09996 -1.769777,0.379057 -2.70339,0.620101 -2.265693,0.585062 -3.952529,0.834779 -6.227273,0.922165 -2.371188,0.09116 -3.152002,-0.08093 -3.568828,-0.787586 -0.312962,-0.530241 -0.682428,-0.545358 -0.742154,-0.0302 -0.02803,0.242174 0.08601,0.47445 0.40865,0.831547 0.332456,0.368037 0.447699,0.607934 0.447699,0.933222 0,0.785364 0.76437,1.351148 3.01774,2.233587 0.01755,0.0069 0.04241,0.01481 0.06115,0.02185 A 30.586925,0.27958797 0 0 0 41.71187,29.776358 30.586925,0.27958797 0 0 0 72.298625,30.055835 30.586925,0.27958797 0 0 0 102.88562,29.776358 30.586925,0.27958797 0 0 0 89.448737,29.544774 c 1.677909,-0.53096 2.583557,-1.766176 3.224766,-4.407988 0.496666,-2.046152 0.323752,-3.272193 -0.643432,-4.559513 -0.270842,-0.360366 -0.492398,-0.727561 -0.492398,-0.815829 0,-0.108686 -0.03433,-0.159501 -0.08178,-0.163069 z M 72.214881,30.615027 a 25.246793,0.27958797 0 0 0 -25.246776,0.27972 25.246793,0.27958797 0 0 0 25.246776,0.279476 25.246793,0.27958797 0 0 0 25.246773,-0.279476 25.246793,0.27958797 0 0 0 -25.246773,-0.27972 z"
     style="stroke-width:0.125739"
     inkscape:label="hull" />
</svg>
