<?xml version="1.0" encoding="UTF-8" standalone="no"?>
<!-- Created with Inkscape (http://www.inkscape.org/) -->

<svg
   id="svg2"
   version="1.1"
   inkscape:version="1.1.1 (3bf5ae0d25, 2021-09-20)"
   width="64"
   height="126.79156"
   sodipodi:docname="army.svg"
   xmlns:inkscape="http://www.inkscape.org/namespaces/inkscape"
   xmlns:sodipodi="http://sodipodi.sourceforge.net/DTD/sodipodi-0.dtd"
   xmlns="http://www.w3.org/2000/svg"
   xmlns:svg="http://www.w3.org/2000/svg"
   xmlns:rdf="http://www.w3.org/1999/02/22-rdf-syntax-ns#"
   xmlns:cc="http://creativecommons.org/ns#"
   xmlns:dc="http://purl.org/dc/elements/1.1/">
  <metadata
     id="metadata8">
    <rdf:RDF>
      <cc:Work
         rdf:about="">
        <dc:format>image/svg+xml</dc:format>
        <dc:type
           rdf:resource="http://purl.org/dc/dcmitype/StillImage" />
      </cc:Work>
    </rdf:RDF>
  </metadata>
  <defs
     id="defs6">
    <inkscape:perspective
       sodipodi:type="inkscape:persp3d"
       inkscape:vp_x="0 : 93.321709 : 1"
       inkscape:vp_y="0 : 1000 : 0"
       inkscape:vp_z="1 : 93.321709 : 1"
       inkscape:persp3d-origin="0.5 : 93.155042 : 1"
       id="perspective10" />
  </defs>
  <sodipodi:namedview
     pagecolor="#ffffff"
     bordercolor="#666666"
     borderopacity="1"
     objecttolerance="10"
     gridtolerance="10"
     guidetolerance="10"
     inkscape:pageopacity="0"
     inkscape:pageshadow="2"
     inkscape:window-width="1920"
     inkscape:window-height="1017"
     id="namedview4"
     showgrid="false"
     inkscape:zoom="5.0212765"
     inkscape:cx="25.192797"
     inkscape:cy="49.68856"
     inkscape:window-x="-8"
     inkscape:window-y="-8"
     inkscape:window-maximized="1"
     inkscape:current-layer="svg2"
     fit-margin-top="0"
     fit-margin-left="0"
     fit-margin-right="0"
     fit-margin-bottom="0"
     inkscape:pagecheckerboard="0"
     width="34px" />
  <path
     style="fill:#060707;fill-opacity:0.53;stroke:none;stroke-width:0.131727"
     d="m 33.799683,17.389749 c 0.462307,0.14619 1.591419,-0.09625 0.998881,0.658631 -1.785584,3.338446 -3.60206,6.661729 -5.36417,10.011217 -0.176962,0.922252 0.553066,1.749889 0.777095,2.624324 0.274473,0.36685 0.171468,1.208116 0.690207,1.195745 1.167802,-3.293643 2.339039,-6.591727 3.596986,-9.850359 0.571684,-1.03582 1.270748,-2.009015 1.803807,-3.058839 0.217897,0.841378 -0.132679,1.760208 -0.185978,2.631385 -0.548169,4.13019 -2.19891,8.065234 -2.347574,12.251468 -0.196732,1.308805 -0.02158,2.652122 -0.338203,3.950898 -0.307562,1.717478 -1.235217,3.211578 -1.99844,4.745301 -0.426507,0.869394 0.110863,1.867459 1.050121,2.045448 1.36219,0.320184 3.361123,0.08056 3.765143,-1.518542 0.09388,-1.129954 -0.268938,-2.290082 0.0252,-3.422379 0.133561,-1.574125 0.873829,-2.979401 1.606695,-4.339841 0.538554,-1.037919 0.366843,-2.196889 0.267208,-3.302079 0.02191,-2.970806 1.551004,-5.626889 2.663769,-8.299504 0.778517,-1.584779 1.397689,-3.258098 2.312596,-4.771401 0.368133,0.05146 0.0641,1.327666 0.160971,1.873414 0.138845,1.482346 0.20582,2.98893 0.08048,4.478706 -0.127448,1.719814 -0.21862,3.4848 -0.863385,5.114961 -0.457332,1.177364 -0.64699,2.46563 -0.585602,3.710718 0.152106,1.322626 0.604733,2.599961 0.446421,3.950319 0.106408,1.917205 -0.89579,3.753054 -0.592769,5.665717 0.515238,1.118319 1.945647,0.928846 2.963843,1.053813 1.938973,0.01244 3.883785,0.05475 5.795968,-0.26345 0.252847,-0.714839 0.201128,-1.237751 -0.654393,-1.135147 -1.818943,-0.369245 -3.875197,-1.536382 -3.952346,-3.607015 -0.05502,-2.690713 0.799142,-5.290358 1.331885,-7.903592 0.530131,-1.931117 0.747948,-3.922857 0.640323,-5.923277 0.05265,-1.01919 -0.292176,-2.024745 -0.0039,-3.034128 0.116675,-1.728587 0.873422,-3.306325 1.533172,-4.873881 0.63642,-2.271991 0.554566,-4.675734 0.172033,-6.981512 -0.472054,-2.2316433 0.305344,-4.4239663 0.750047,-6.5863243 0.233619,-2.236816 -0.730482,-4.45745604 -2.127446,-6.166983 -0.341862,-0.821952 0.600731,-1.508362 0.832185,-2.263515 1.608641,-2.985053 3.252366,-5.9522457 4.837256,-8.9500987 0.273395,-0.757833 -0.592768,-0.665943 -0.944041,-0.02185 -1.667153,3.060721 -3.11208,6.2727727 -5.217092,9.0729717 -0.357998,0.704566 -1.174961,0.395596 -1.430896,-0.209973 -0.30664,-0.548031 -0.517073,-1.286134 -1.292563,-1.259093 -0.82661,-0.236204 -1.087704,-1.57284 -0.158622,-1.883666 0.602799,-0.25912 0.91296,-0.560001 0.993208,-1.217323 0.420387,-1.1997387 1.990549,-1.1866757 2.521181,-2.2489987 0.659842,-1.971082 -1.359223,-4.105437 -3.362716,-3.820073 -1.006153,0.325548 0.03836,-0.958546 -0.78902,-1.180957 -1.329997,-0.474962 -2.814573,-0.08941 -4.084861,0.427192 -1.981335,1.059563 -3.350213,3.24993 -3.413956,5.495927 -0.0026,0.74477 0.589083,1.2486347 1.298355,1.2834097 1.519292,0.481596 1.573079,3.15619 -0.123749,3.425813 -0.95547,0.187977 -2.333968,-0.611981 -2.916319,0.559835 -0.590433,1.207043 -0.795035,2.601487 -1.650273,3.68834296 -0.981593,1.720861 -2.873329,3.05369304 -3.073575,5.13733704 0.08187,1.528143 1.386409,2.592853 2.189795,3.790355 1.126539,1.372956 2.465604,2.5667533 3.799996,3.7217413 0.315354,0.841985 -0.211466,1.815746 -0.569873,2.596407 -0.514474,1.084875 -1.782886,1.62626 -1.863299,2.932426 z"
     id="shadow"
     sodipodi:nodetypes="ccccccccccccccccccccccccccccccccccccccccccccccccccccccccc"
     inkscape:label="shadow" />
  <path
     style="fill:#060707;stroke:none;stroke-width:0.131727"
     d="m 31.296644,15.809052 c 0.462307,0.14619 1.591418,-0.09625 0.998881,0.658631 -1.785584,3.338446 -3.60206,6.661729 -5.36417,10.011217 -0.176962,0.922252 0.553066,1.749889 0.777095,2.624324 0.274473,0.36685 0.171468,1.208116 0.690207,1.195745 1.167802,-3.293643 2.339039,-6.591727 3.596986,-9.850359 0.571683,-1.03582 1.270747,-2.009015 1.803806,-3.058839 0.217897,0.841378 -0.132679,1.760208 -0.185978,2.631385 -0.548169,4.13019 -2.198909,8.065234 -2.347573,12.251468 -0.196732,1.308805 -0.02158,2.652122 -0.338203,3.950898 -0.307562,1.717478 -1.235217,3.211578 -1.99844,4.745301 -0.426507,0.869394 0.110863,1.867459 1.050121,2.045448 1.36219,0.320184 3.361122,0.08056 3.765142,-1.518542 0.09388,-1.129954 -0.268938,-2.290082 0.0252,-3.422379 0.133561,-1.574125 0.873829,-2.979401 1.606695,-4.339841 0.538554,-1.037919 0.366843,-2.196889 0.267208,-3.302079 0.02191,-2.970806 1.551004,-5.626889 2.663769,-8.299504 0.778517,-1.584779 1.397689,-3.258098 2.312596,-4.771401 0.368133,0.05146 0.0641,1.327666 0.160971,1.873414 0.138845,1.482346 0.20582,2.98893 0.08048,4.478706 -0.127448,1.719814 -0.21862,3.4848 -0.863385,5.114961 -0.457332,1.177364 -0.64699,2.46563 -0.585602,3.710718 0.152106,1.322626 0.604733,2.599961 0.446421,3.950319 0.106408,1.917205 -0.89579,3.753054 -0.592769,5.665717 0.515238,1.118319 1.945647,0.928846 2.963843,1.053813 1.938973,0.01244 3.883785,0.05475 5.795968,-0.26345 0.252847,-0.714839 0.201128,-1.237751 -0.654393,-1.135147 -1.818943,-0.369245 -3.875197,-1.536382 -3.952346,-3.607015 -0.05502,-2.690713 0.799142,-5.290358 1.331885,-7.903592 0.530131,-1.931117 0.747948,-3.922857 0.640323,-5.923277 0.05265,-1.01919 -0.292176,-2.024745 -0.0039,-3.034128 0.116675,-1.728587 0.873422,-3.306325 1.533172,-4.873881 0.63642,-2.271991 0.554566,-4.675734 0.172033,-6.9815123 -0.472054,-2.231643 0.305344,-4.423966 0.750047,-6.586324 0.233619,-2.23681604 -0.730482,-4.457456 -2.127446,-6.166983 -0.341862,-0.821952 0.600731,-1.508362 0.832185,-2.263515 1.608641,-2.985053 3.252366,-5.9522457 4.837256,-8.9500987 0.273395,-0.757833 -0.592768,-0.665943 -0.944041,-0.02185 -1.667153,3.060721 -3.11208,6.2727727 -5.217092,9.0729717 -0.357998,0.704566 -1.174961,0.395596 -1.430896,-0.209973 -0.30664,-0.548031 -0.517073,-1.286134 -1.292563,-1.259093 -0.82661,-0.236204 -1.087704,-1.57284 -0.158622,-1.8836657 0.602799,-0.25912 0.91296,-0.560001 0.993208,-1.217323 0.420387,-1.199739 1.990549,-1.186676 2.521181,-2.248998 0.659842,-1.971082 -1.359223,-4.105438 -3.362716,-3.820074 -1.006153,0.325548 0.03836,-0.958546 -0.78902,-1.180957 -1.329997,-0.474962 -2.814573,-0.08941 -4.084861,0.427192 -1.981335,1.059563 -3.350213,3.249931 -3.413956,5.495927 -0.0026,0.74477 0.589083,1.248635 1.298355,1.28341 1.519292,0.481596 1.573079,3.1561897 -0.123749,3.4258127 -0.95547,0.187977 -2.333968,-0.611981 -2.916318,0.559835 -0.590433,1.207043 -0.795035,2.601487 -1.650273,3.688343 -0.981593,1.72086096 -2.873329,3.05369296 -3.073575,5.137337 0.08187,1.528143 1.386409,2.592853 2.189795,3.790355 1.126539,1.372956 2.465604,2.566753 3.799995,3.7217413 0.315354,0.841985 -0.211466,1.815746 -0.569873,2.596407 -0.514474,1.084875 -1.782885,1.62626 -1.863298,2.932426 z"
     id="body"
     sodipodi:nodetypes="ccccccccccccccccccccccccccccccccccccccccccccccccccccccccc"
     inkscape:label="body" />
</svg>
