<?xml version="1.0" encoding="UTF-8" standalone="no"?>
<!-- Created with Inkscape (http://www.inkscape.org/) -->

<svg
   id="svg2"
   version="1.1"
   inkscape:version="1.1.1 (3bf5ae0d25, 2021-09-20)"
   width="124.3913"
   height="29.404963"
   sodipodi:docname="fleet.svg"
   xmlns:inkscape="http://www.inkscape.org/namespaces/inkscape"
   xmlns:sodipodi="http://sodipodi.sourceforge.net/DTD/sodipodi-0.dtd"
   xmlns="http://www.w3.org/2000/svg"
   xmlns:svg="http://www.w3.org/2000/svg"
   xmlns:rdf="http://www.w3.org/1999/02/22-rdf-syntax-ns#"
   xmlns:cc="http://creativecommons.org/ns#"
   xmlns:dc="http://purl.org/dc/elements/1.1/">
  <metadata
     id="metadata8">
    <rdf:RDF>
      <cc:Work
         rdf:about="">
        <dc:format>image/svg+xml</dc:format>
        <dc:type
           rdf:resource="http://purl.org/dc/dcmitype/StillImage" />
      </cc:Work>
    </rdf:RDF>
  </metadata>
  <defs
     id="defs6">
    <inkscape:perspective
       sodipodi:type="inkscape:persp3d"
       inkscape:vp_x="0 : 0.5 : 1"
       inkscape:vp_y="0 : 1000 : 0"
       inkscape:vp_z="1 : 0.5 : 1"
       inkscape:persp3d-origin="0.5 : 0.33333333 : 1"
       id="perspective10" />
  </defs>
  <sodipodi:namedview
     pagecolor="#ffffff"
     bordercolor="#666666"
     borderopacity="1"
     objecttolerance="10"
     gridtolerance="10"
     guidetolerance="10"
     inkscape:pageopacity="0"
     inkscape:pageshadow="2"
     inkscape:window-width="1920"
     inkscape:window-height="1017"
     id="namedview4"
     showgrid="false"
     inkscape:zoom="4.0435898"
     inkscape:cx="39.197843"
     inkscape:cy="-20.155358"
     inkscape:window-x="-8"
     inkscape:window-y="-8"
     inkscape:window-maximized="1"
     inkscape:current-layer="svg2"
     fit-margin-top="0"
     fit-margin-left="0"
     fit-margin-right="0"
     fit-margin-bottom="0"
     inkscape:pagecheckerboard="0" />
  <path
     id="shadow"
     d="m 36.269553,-28.18234 c -0.14239,-0.0066 -0.31212,0.130819 -0.34879,0.358537 -0.0285,0.177779 -0.1886,1.247666 -0.35541,2.377614 -0.16681,1.129741 -0.32139,2.114207 -0.34334,2.187435 -0.0355,0.118521 -0.15628,0.133283 -1.09508,0.133283 -0.92582,0 -1.74076,0.119678 -1.36944,0.201087 0.18158,0.03986 1.76744,0.184413 1.98752,0.181221 0.45413,-0.0066 0.45826,0.131563 0.0776,2.698734 -0.12411,0.837031 -0.24989,1.834747 -0.27942,2.217054 l -0.0538,0.695627 -0.2763,0.04557 c -0.41802,0.06906 -1.1512,0.05632 -1.15121,-0.02026 0,-0.03714 0.27676,-1.033131 0.61497,-2.213159 0.338,-1.179829 0.59999,-2.160317 0.58183,-2.178472 -0.0183,-0.0182 -0.16194,0.418666 -0.31917,0.970763 -0.34339,1.205973 -1.03024,3.438253 -1.07014,3.478159 -0.0399,0.04011 -5.00224,0.24268 -5.03894,0.205768 -0.0166,-0.01654 0.61518,-0.794727 1.40373,-1.729535 1.36799,-1.621388 2.79882,-3.344316 3.05961,-3.68392 0.20971,-0.273357 -0.80523,0.799847 -1.73265,1.832027 -0.48885,0.544115 -1.3157,1.463218 -1.83787,2.042856 -0.52197,0.579638 -1.05598,1.177472 -1.18627,1.328512 l -0.23695,0.274746 -1.37957,0.06195 c -1.78181,0.07998 -1.7613,0.07204 -1.79422,0.70499 -0.004,0.0836 -0.0531,0.282313 -0.10834,0.441541 -0.0553,0.159022 -0.078,0.378569 -0.0507,0.487916 l 0.0499,0.198357 0.0978,-0.183552 c 0.0541,-0.100961 0.17853,-0.337364 0.2767,-0.525721 0.22207,-0.425795 0.26304,-0.454171 0.6625,-0.455569 0.40246,-0.0017 0.41388,-0.0885 -0.16017,1.218627 -0.26597,0.605377 -0.55978,1.331647 -0.65276,1.613778 -0.14067,0.426199 -0.23535,0.571061 -0.56118,0.856195 -0.52597,0.459919 -0.52416,0.463856 -0.23305,-0.513249 0.37233,-1.249063 0.27628,-1.156671 -0.1551,0.149262 -0.2554,0.77338 -0.44737,1.220339 -0.61458,1.429448 -0.13368,0.167408 -0.3591,0.475617 -0.50077,0.684727 -0.18656,0.275746 -0.26475,0.344037 -0.28371,0.24746 -0.0371,-0.188755 -0.0224,-0.196447 -0.95596,0.4867499 -3.23679,2.368631 -8.76979,7.5392898 -13.5844796,12.6947718 -0.64468,0.690582 -1.28002,1.367964 -1.411914,1.505837 l -0.240061,0.250975 -0.515975,-0.231878 c -0.707538,-0.317456 -0.759117,-0.277053 -0.311768,0.245517 0.317454,0.370926 0.319422,0.390023 0.07599,0.709274 -0.249414,0.327025 -0.263521,0.309755 0.305143,0.370611 0.518581,0.0555 0.587479,0.140338 0.180435,0.221747 -0.13229,0.0263 -0.280238,0.10192 -0.328525,0.167962 -0.05806,0.0794 -0.305295,0.147054 -0.731095,0.199532 -0.353569,0.04367 -0.677311,0.11359 -0.719013,0.15549 -0.106749,0.10675 1.176127,0.02423 2.132879,-0.136782 l 0.763834,-0.12861 0.52961,0.342169 c 0.5527,0.356758 1.30472,0.771222 3.7252296,2.05221 1.38375,0.732473 3.15781,1.7231263 3.15781,1.7634293 0,0.01059 -0.15419,0.129718 -0.34255,0.265003 -0.70774,0.508203 -0.25377,0.809308 0.68862,0.456743 l 0.4279,-0.160171 0.21278,0.203816 c 0.34718,0.332616 0.58813,0.861314 1.14263,2.505049 1.02239,3.031474 1.79514,4.54812 3.84253,7.540482 0.57345,0.838032 0.87567,1.335377 0.87567,1.441928 0,8.28e-4 -7.9e-4,0.0025 -7e-5,0.0033 0.0714,0.194834 0.30077,0.529046 0.45019,0.743638 0.79357,0.150032 1.58509,0.284745 2.37645,0.414257 1.27321,0.20896 2.54529,0.392546 3.81992,0.554172 h 0.0175 c 4.55961,0.577033 9.15568,0.877931 13.99017,1.028442 6.85857,0.202939 13.86845,-0.354137 20.05366,-1.028442 -1.3876,-2.267422 -2.52142,-4.603625 -3.35072,-6.904089 l -0.47271,-0.02729 c -1.13493,-0.06567 -1.01663,0.09834 -1.52883,-2.118458 -0.83763,-3.626074 -1.02672,-4.18898 -1.40763,-4.18898 -0.20731,0 -0.21933,-0.02655 -0.78799,-1.7688883 -0.58782,-1.800771 -1.54691,-4.568011 -3.14495,-9.07282603 -1.50247,-4.23544477 -2.30292,-6.73012277 -3.43646,-10.71076267 -0.40245,-1.413478 -0.74494,-2.556287 -0.7611,-2.540126 -0.0748,0.07485 1.92852,6.9822649 3.01557,10.3974427 1.59904,5.023795 3.63493,10.919401 4.47815,12.9667893 0.3378,0.820672 0.33301,0.836891 -0.26578,0.904132 -0.47788,0.05368 -0.43498,0.101829 -0.93959,-1.050657 -0.21989,-0.5020253 -0.70767,-1.5974843 -1.08378,-2.4345163 -0.37612,-0.836834 -0.84741,-1.89859 -1.04754,-2.358914 -0.20013,-0.460118 -0.83357,-1.881221 -1.40802,-3.157421 -0.57425,-1.27639803 -1.35982,-3.02254903 -1.74551,-3.880332 -0.38569,-0.857982 -0.95834,-2.1242898 -1.2724,-2.8148708 -0.31386,-0.690376 -0.73553,-1.623695 -0.93686,-2.07364 -0.20153,-0.449945 -0.37693,-0.807009 -0.3901,-0.793842 -0.0413,0.04127 1.92043,4.6112008 5.19872,12.1117768 0.43897,1.004233 1.13398,2.596193 1.54442,3.537775 0.41043,0.94159 0.87131,1.9826863 1.02415,2.3137063 0.18337,0.39707 0.25011,0.619428 0.19564,0.653148 -0.12451,0.07683 -5.76012,0.466354 -7.91266,0.54677 l -0.64575,0.02415 -0.46882,-0.950895 c -1.16925,-2.3706253 -1.50474,-3.1291593 -1.40996,-3.1878153 0.0517,-0.03193 0.71751,-0.169824 1.47972,-0.306704 3.95611,-0.710134 4.76076,-0.964186 3.1282,-0.987129 l -0.54092,-0.0074 -0.36048,-0.927514 c -2.85489,-7.344582 -3.92698,-15.4529408 -2.74316,-20.7504977 0.31326,-1.401906 0.23342,-1.306801 1.18199,-1.410359 0.88192,-0.09617 0.83475,-0.113938 0.83475,0.307878 0,0.229455 0.0525,0.386723 0.18044,0.538963 0.0992,0.118321 0.20506,0.32858 0.23538,0.467652 0.0303,0.139072 0.071,0.236824 0.0908,0.217066 0.0196,-0.01977 0.002,-0.16769 -0.0378,-0.328911 -0.17578,-0.700953 -0.17899,-1.167572 -0.008,-1.167572 0.13189,0 0.15363,-0.04036 0.13367,-0.24746 l -0.0238,-0.247469 -5.1652,0.02299 -5.16482,0.02299 0.0483,-0.441542 c 0.0465,-0.425397 0.13747,-1.896496 0.24162,-3.917742 0.0543,-1.049341 0.10942,-1.198537 0.45401,-1.224077 0.21589,-0.01596 0.2448,0.01869 0.55807,0.667961 0.38888,0.805901 1.37629,2.625076 1.42477,2.625076 0.0186,0 -0.3264,-0.719067 -0.76616,-1.597808 -0.94957,-1.897738 -0.9138,-1.690771 -0.31021,-1.78954 0.92183,-0.151049 0.8005,-0.254177 -0.37334,-0.317225 l -0.89517,-0.04797 0.053,-0.65276 c 0.0625,-0.768591 0.0472,-0.74143 0.32073,-0.566636 0.24463,0.156234 0.14923,-0.03242 -0.14029,-0.277864 -0.1297,-0.109744 -0.0179,-2.88466 0.12198,-3.024534 0.11473,-0.114931 1.32311,1.034181 1.51207,1.438025 0.34499,0.737468 -0.0215,1.55159 -0.88191,1.960628 l -0.28839,0.136789 0.40842,0.37373 c 0.65252,0.596395 1.60595,1.078314 2.74784,1.442318 0.0488,-1.065503 0.38636,-2.112868 0.99259,-3.079874 -0.64909,-0.271446 -1.35277,-0.59532 -2.15743,-0.98947 -0.43578,-0.213501 -0.85535,-0.388154 -0.93297,-0.388154 -0.17838,0 -1.40606,-1.03309 -1.45634,-1.225632 -0.0311,-0.118975 -0.10669,-0.174943 -0.19213,-0.17888 z m -1.8632,6.147276 c -0.018,-0.01795 -0.0555,0.05872 -0.0834,0.170303 -0.0279,0.111539 -0.0365,0.217428 -0.0187,0.235385 0.018,0.01795 0.0558,-0.05897 0.0838,-0.170303 0.0279,-0.111539 0.0361,-0.217429 0.0183,-0.235385 z m -10.49525,7.460983 c -0.0172,-0.01712 -0.0732,0.109182 -0.12471,0.280982 -0.0515,0.171792 -0.0793,0.326173 -0.0623,0.343327 0.0172,0.0172 0.0732,-0.109182 0.12471,-0.280974 0.0515,-0.171799 0.0795,-0.326181 0.0624,-0.343335 z m -0.1138,2.340206 c 0.0762,0.01588 -0.0439,0.339679 -0.36204,1.075204 -1.50446,3.4780269 -2.14891,6.8526209 -2.22134,11.63398367 l -0.0401,2.64028503 -0.50429,0.113797 c -0.78735,0.177382 -1.53516,0.295679 -1.58065,0.25019 -0.0894,-0.08939 2.05396,-8.5800478 2.82695,-11.1982908 1.11877,-3.7888989 1.13326,-3.8283589 1.53272,-4.2337989 0.18676,-0.189606 0.30306,-0.290906 0.34879,-0.28137 z m -1.13834,1.226021 c 0.0123,-0.0041 0.0219,-0.0033 0.0284,0.0033 0.0215,0.02159 -0.28645,1.0946489 -0.68472,2.3850159 -0.95914,3.109095 -1.93091,6.7729568 -2.90762,10.9629048 -0.22108,0.948571 -0.31585,1.236525 -0.40763,1.237336 -0.0948,8.27e-4 -0.0983,0.01456 -0.0175,0.06583 0.0842,0.05326 0.0786,0.149402 -0.0312,0.550657 -0.18537,0.678002 -0.18231,0.675753 -0.91699,0.675753 -0.37412,0 -0.63756,0.03168 -0.63756,0.07642 0,0.04491 0.26641,0.07601 0.64691,0.07601 0.35577,0 0.64653,0.02217 0.64653,0.04946 0,0.0832 -0.7515,2.593918 -1.06975,3.574414 -0.41961,1.291559 -0.50294,1.4738793 -0.67654,1.4738793 -0.18995,0 -0.26568,-0.122936 -0.11184,-0.1819983 0.32403,-0.124309 0.0838,-0.389452 -0.33281,-0.367105 -0.32883,0.01778 -0.53201,-0.03308 -1.10327,-0.275912 -0.3851,-0.163818 -1.18373,-0.48794 -1.77474,-0.719794 -1.43243,-0.562268 -5.1262296,-2.413118 -5.1262296,-2.568955 0,-0.06823 0.15298,-0.1024 1.14146,-0.256038 1.9603896,-0.304685 4.5927296,-0.590845 6.4130496,-0.696801 l 0.89711,-0.05219 0.0908,-0.340217 c 0.10815,-0.404448 0.36085,-0.701889 0.60288,-0.709266 0.0962,-0.0025 0.24355,-0.03705 0.32736,-0.07601 0.10974,-0.0507 0.0657,-0.05856 -0.15822,-0.02804 -0.47509,0.06468 -0.53737,-0.06013 -0.37257,-0.745516 0.82526,-3.42894103 2.20776,-7.5704048 3.46101,-10.3674278 0.26259,-0.585825 0.6242,-1.407763 0.80358,-1.826179 0.28377,-0.662387 1.08474,-1.8589979 1.27006,-1.9197129 z m -1.53467,14.2910247 c 0.0249,-0.0041 0.0679,0.332045 0.0951,0.747071 0.0704,1.074079 0.33558,2.810223 0.55846,3.657031 0.10475,0.398062 0.2078,0.79758 0.22876,0.887368 0.0375,0.161023 0.0261,0.162735 -0.78722,0.128221 -0.74864,-0.03176 -0.81209,-0.0239 -0.6816,0.08147 0.30249,0.244028 1.68582,0.439399 3.87527,0.547547 1.02,0.05029 1.05058,0.05641 1.01247,0.211996 -0.0216,0.0884 -0.13257,0.6229683 -0.2463,1.1878353 -0.25719,1.276001 -0.21943,1.24339 -0.80046,0.70226 l -0.4848,-0.451673 -1.55962,-0.04599 c -2.12261,-0.06286 -4.83418,-0.403785 -5.24821,-0.659781 -0.074,-0.04565 0.0292,-0.4426253 0.43725,-1.6851053 0.29371,-0.8941 0.64511,-2.036736 0.78059,-2.538951 0.2975,-1.101018 0.22446,-1.013513 0.91504,-1.093524 l 0.56625,-0.06583 -0.55144,-0.0098 c -0.61955,-0.011 -0.5995,0.02068 -0.4279,-0.662511 0.14226,-0.566066 0.18914,-0.602746 0.86515,-0.674975 0.27196,-0.02911 0.70027,-0.09827 0.95128,-0.153935 0.25101,-0.0555 0.47681,-0.104335 0.50195,-0.108727 z m 20.81865,4.476984 c 0.30174,0.0074 0.35089,0.227131 0.67575,0.902172 1.00923,2.0976743 1.41359,3.1656583 1.22603,3.2384823 -0.74645,0.289922 -0.66444,0.233044 -2.19484,1.521816 -0.78735,0.662841 -1.0143,0.785869 -1.1855,0.643802 -0.38589,-0.320251 -2.11424,-4.7361883 -2.06117,-5.2661443 0.0269,-0.266773 0.69878,-0.492556 2.60949,-0.876459 0.47708,-0.09592 0.74919,-0.168111 0.93024,-0.163669 z m -3.8059,0.936859 c 0.0873,0.0066 0.0986,0.03879 0.0986,0.09158 0,0.278344 0.82491,2.8030203 1.33631,4.0899963 0.31127,0.783355 0.56586,1.441044 0.56586,1.461795 0,0.19514 -2.18743,0.298896 -3.50972,0.166407 l -0.58067,-0.05806 -0.1247,-0.964525 c -0.14865,-1.148698 -0.27219,-2.843257 -0.27319,-3.7439403 l -8e-4,-0.649253 1.12236,-0.196025 c 0.86422,-0.150767 1.22038,-0.209415 1.36593,-0.197968 z m -4.79498,0.526102 c 0.14546,-0.01117 0.17108,0.03581 0.21278,0.386591 0.0259,0.219687 0.0544,1.3924453 0.0627,2.6059853 l 0.0152,2.206145 -1.14146,-0.01009 c -1.66688,-0.01497 -3.67321,-0.457727 -5.42709,-1.197189 -0.62573,-0.263977 -1.91503,-1.057745 -1.91503,-1.179259 0,-0.08097 0.42487,-1.967732 0.5378,-2.3877453 l 0.0768,-0.285275 2.90723,-0.0093 c 2.45483,-0.0083 3.44015,-0.03499 4.67106,-0.129777 z"
     sodipodi:nodetypes="sccsscsccccsccccccccccccccccccccccccccccccccccccsccccccsccccccsccccccccccscccsccscccccccscsccccccccccccscsccsccccccccscccccccccccccccscssssccsssscsssccccsccssscccccsssccsccccscsccccccccsssccccccccccccccccccccsssccccccsssssccccccssccccccsccccc"
     style="fill:#000000;fill-opacity:0.5;stroke-width:0.199531"
     inkscape:label="shadow" />
  <path
     id="hull"
     d="m 56.713822,-16.096882 c -0.14239,-0.0066 -0.31212,0.130819 -0.34879,0.358537 -0.0285,0.177779 -0.1886,1.247666 -0.35541,2.377614 -0.16681,1.129741 -0.32139,2.114207 -0.34334,2.187435 -0.0355,0.118521 -0.15628,0.133283 -1.09508,0.133283 -0.92582,0 -1.74076,0.119678 -1.36944,0.201087 0.18158,0.03986 1.76744,0.184413 1.98752,0.181221 0.45413,-0.0066 0.45826,0.131563 0.0776,2.6987342 -0.12411,0.837031 -0.24989,1.834747 -0.27942,2.217054 l -0.0538,0.695627 -0.2763,0.04557 c -0.41802,0.06906 -1.1512,0.05632 -1.15121,-0.02026 0,-0.03714 0.27676,-1.033131 0.61497,-2.213159 0.338,-1.179829 0.59999,-2.160317 0.58183,-2.178472 -0.0183,-0.0182 -0.16194,0.418666 -0.31917,0.970763 -0.34339,1.205973 -1.03024,3.438253 -1.07014,3.478159 -0.0399,0.04011 -5.00224,0.24268 -5.03894,0.205768 -0.0166,-0.01654 0.61518,-0.794727 1.40373,-1.729535 1.36799,-1.621388 2.79882,-3.344316 3.05961,-3.6839202 0.20971,-0.273357 -0.80523,0.7998472 -1.73265,1.8320272 -0.48885,0.544115 -1.3157,1.463218 -1.83787,2.042856 -0.52197,0.579638 -1.05598,1.177472 -1.18627,1.328512 l -0.23695,0.274746 -1.37957,0.06195 c -1.78181,0.07998 -1.7613,0.07204 -1.79422,0.70499 -0.004,0.0836 -0.0531,0.282313 -0.10834,0.441541 -0.0553,0.159022 -0.078,0.378569 -0.0507,0.487916 l 0.0499,0.198357 0.0978,-0.183552 c 0.0541,-0.100961 0.17853,-0.337364 0.2767,-0.525721 0.22207,-0.425795 0.26304,-0.454171 0.6625,-0.455569 0.40246,-0.0017 0.41388,-0.0885 -0.16017,1.218627 -0.26597,0.605377 -0.55978,1.3316467 -0.65276,1.6137777 -0.14067,0.426199 -0.23535,0.571061 -0.56118,0.856195 -0.52597,0.459919 -0.52416,0.463856 -0.23305,-0.513249 0.37233,-1.2490627 0.27628,-1.1566707 -0.1551,0.149262 -0.2554,0.77338 -0.44737,1.220339 -0.61458,1.429448 -0.13368,0.167408 -0.3591,0.475617 -0.50077,0.684727 -0.18656,0.275746 -0.26475,0.344037 -0.28371,0.24746 -0.0371,-0.188755 -0.0224,-0.196447 -0.95596,0.48675 -3.23679,2.368631 -8.76979,7.53929 -13.58448,12.6947721 -0.64468,0.690582 -1.28002,1.367964 -1.411914,1.505837 l -0.240061,0.250975 -0.515975,-0.231878 c -0.707538,-0.317456 -0.759117,-0.277053 -0.311768,0.245517 0.317454,0.370926 0.319422,0.390023 0.07599,0.709274 -0.249414,0.327025 -0.263521,0.309755 0.305143,0.370611 0.518581,0.0555 0.587479,0.140338 0.180435,0.221747 -0.13229,0.0263 -0.280238,0.10192 -0.328525,0.167962 -0.05806,0.0794 -0.305295,0.147054 -0.731095,0.199532 -0.353569,0.04367 -0.677311,0.11359 -0.719013,0.15549 -0.106749,0.10675 1.176127,0.02423 2.132879,-0.136782 l 0.763834,-0.12861 0.52961,0.342169 c 0.5527,0.356758 1.30472,0.771222 3.72523,2.05221 1.38375,0.732473 3.15781,1.723126 3.15781,1.763429 0,0.01059 -0.15419,0.129718 -0.34255,0.265003 -0.70774,0.508203 -0.25377,0.809308 0.68862,0.456743 l 0.4279,-0.160171 0.21278,0.203816 c 0.34718,0.332616 0.58813,0.861314 1.14263,2.505049 1.02239,3.031474 1.79514,4.54812 3.84253,7.540482 0.57345,0.838032 0.87567,1.335377 0.87567,1.441928 0,8.28e-4 -7.9e-4,0.0025 -7e-5,0.0033 0.0714,0.194834 0.30077,0.529046 0.45019,0.743638 0.79357,0.150032 1.58509,0.284745 2.37645,0.414257 1.27321,0.20896 2.54529,0.392546 3.81992,0.554172 h 0.0175 c 4.55961,0.577033 9.15568,0.877931 13.99017,1.028442 6.85857,0.202939 13.86845,-0.354137 20.05366,-1.028442 -1.3876,-2.267422 -2.52142,-4.603625 -3.35072,-6.904089 l -0.47271,-0.02729 c -1.13493,-0.06567 -1.01663,0.09834 -1.52883,-2.118458 -0.83763,-3.626074 -1.02672,-4.18898 -1.40763,-4.18898 -0.20731,0 -0.21933,-0.02655 -0.78799,-1.768888 -0.58782,-1.800771 -1.54691,-4.568011 -3.14495,-9.072826 -1.50247,-4.2354451 -2.30292,-6.7301231 -3.43646,-10.7107631 -0.40245,-1.413478 -0.74494,-2.556287 -0.7611,-2.540126 -0.0748,0.07485 1.92852,6.982265 3.01557,10.397443 1.59904,5.0237951 3.63493,10.9194011 4.47815,12.9667891 0.3378,0.820672 0.33301,0.836891 -0.26578,0.904132 -0.47788,0.05368 -0.43498,0.101829 -0.93959,-1.050657 -0.21989,-0.502025 -0.70767,-1.597484 -1.08378,-2.434516 -0.37612,-0.836834 -0.84741,-1.89859 -1.04754,-2.358914 -0.20013,-0.460118 -0.83357,-1.881221 -1.40802,-3.157421 -0.57425,-1.276398 -1.35982,-3.022549 -1.74551,-3.880332 -0.38569,-0.8579821 -0.95834,-2.1242901 -1.2724,-2.8148711 -0.31386,-0.690376 -0.73553,-1.623695 -0.93686,-2.07364 -0.20153,-0.449945 -0.37693,-0.807009 -0.3901,-0.793842 -0.0413,0.04127 1.92043,4.611201 5.19872,12.1117771 0.43897,1.004233 1.13398,2.596193 1.54442,3.537775 0.41043,0.94159 0.87131,1.982686 1.02415,2.313706 0.18337,0.39707 0.25011,0.619428 0.19564,0.653148 -0.12451,0.07683 -5.76012,0.466354 -7.91266,0.54677 l -0.64575,0.02415 -0.46882,-0.950895 c -1.16925,-2.370625 -1.50474,-3.129159 -1.40996,-3.187815 0.0517,-0.03193 0.71751,-0.169824 1.47972,-0.306704 3.95611,-0.710134 4.76076,-0.964186 3.1282,-0.987129 l -0.54092,-0.0074 -0.36048,-0.927514 c -2.85489,-7.344582 -3.92698,-15.4529411 -2.74316,-20.7504978 0.31326,-1.401906 0.23342,-1.306801 1.18199,-1.410359 0.88192,-0.09617 0.83475,-0.113938 0.83475,0.307878 0,0.229455 0.0525,0.386723 0.18044,0.538963 0.0992,0.118321 0.20506,0.32858 0.23538,0.467652 0.0303,0.139072 0.071,0.236824 0.0908,0.217066 0.0196,-0.01977 0.002,-0.16769 -0.0378,-0.328911 -0.17578,-0.700953 -0.17899,-1.167572 -0.008,-1.167572 0.13189,0 0.15363,-0.04036 0.13367,-0.24746 l -0.0238,-0.247469 -5.1652,0.02299 -5.16482,0.02299 0.0483,-0.441542 c 0.0465,-0.425397 0.13747,-1.896496 0.24162,-3.917742 0.0543,-1.0493412 0.10942,-1.1985372 0.45401,-1.2240772 0.21589,-0.01596 0.2448,0.01869 0.55807,0.6679612 0.38888,0.805901 1.37629,2.625076 1.42477,2.625076 0.0186,0 -0.3264,-0.719067 -0.76616,-1.597808 -0.94957,-1.8977382 -0.9138,-1.6907712 -0.31021,-1.7895402 0.92183,-0.151049 0.8005,-0.254177 -0.37334,-0.317225 l -0.89517,-0.04797 0.053,-0.65276 c 0.0625,-0.768591 0.0472,-0.74143 0.32073,-0.566636 0.24463,0.156234 0.14923,-0.03242 -0.14029,-0.277864 -0.1297,-0.109744 -0.0179,-2.88466 0.12198,-3.024534 0.11473,-0.114931 1.32311,1.034181 1.51207,1.438025 0.34499,0.737468 -0.0215,1.55159 -0.88191,1.960628 l -0.28839,0.136789 0.40842,0.37373 c 0.65252,0.596395 1.60595,1.078314 2.74784,1.442318 0.0488,-1.065503 0.38636,-2.112868 0.99259,-3.079874 -0.64909,-0.271446 -1.35277,-0.59532 -2.15743,-0.98947 -0.43578,-0.213501 -0.85535,-0.388154 -0.93297,-0.388154 -0.17838,0 -1.40606,-1.03309 -1.45634,-1.225632 -0.0311,-0.118975 -0.10669,-0.174943 -0.19213,-0.17888 z m -1.8632,6.1472762 c -0.018,-0.01795 -0.0555,0.05872 -0.0834,0.170303 -0.0279,0.111539 -0.0365,0.217428 -0.0187,0.235385 0.018,0.01795 0.0558,-0.05897 0.0838,-0.170303 0.0279,-0.111539 0.0361,-0.217429 0.0183,-0.235385 z m -10.49525,7.460983 c -0.0172,-0.01712 -0.0732,0.109182 -0.12471,0.280982 -0.0515,0.171792 -0.0793,0.326173 -0.0623,0.343327 0.0172,0.0172 0.0732,-0.109182 0.12471,-0.280974 0.0515,-0.171799 0.0795,-0.326181 0.0624,-0.343335 z m -0.1138,2.3402057 c 0.0762,0.01588 -0.0439,0.339679 -0.36204,1.075204 -1.50446,3.478027 -2.14891,6.852621 -2.22134,11.6339841 l -0.0401,2.640285 -0.50429,0.113797 c -0.78735,0.177382 -1.53516,0.295679 -1.58065,0.25019 -0.0894,-0.08939 2.05396,-8.5800481 2.82695,-11.1982911 1.11877,-3.788899 1.13326,-3.828359 1.53272,-4.233799 0.18676,-0.189606 0.30306,-0.290906 0.34879,-0.28137 z m -1.13834,1.226021 c 0.0123,-0.0041 0.0219,-0.0033 0.0284,0.0033 0.0215,0.02159 -0.28645,1.094649 -0.68472,2.385016 -0.95914,3.109095 -1.93091,6.7729571 -2.90762,10.9629051 -0.22108,0.948571 -0.31585,1.236525 -0.40763,1.237336 -0.0948,8.27e-4 -0.0983,0.01456 -0.0175,0.06583 0.0842,0.05326 0.0786,0.149402 -0.0312,0.550657 -0.18537,0.678002 -0.18231,0.675753 -0.91699,0.675753 -0.37412,0 -0.63756,0.03168 -0.63756,0.07642 0,0.04491 0.26641,0.07601 0.64691,0.07601 0.35577,0 0.64653,0.02217 0.64653,0.04946 0,0.0832 -0.7515,2.593918 -1.06975,3.574414 -0.41961,1.291559 -0.50294,1.473879 -0.67654,1.473879 -0.18995,0 -0.26568,-0.122936 -0.11184,-0.181998 0.32403,-0.124309 0.0838,-0.389452 -0.33281,-0.367105 -0.32883,0.01778 -0.53201,-0.03308 -1.10327,-0.275912 -0.3851,-0.163818 -1.18373,-0.48794 -1.77474,-0.719794 -1.43243,-0.562268 -5.12623,-2.413118 -5.12623,-2.568955 0,-0.06823 0.15298,-0.1024 1.14146,-0.256038 1.96039,-0.304685 4.59273,-0.590845 6.41305,-0.696801 l 0.89711,-0.05219 0.0908,-0.340217 c 0.10815,-0.404448 0.36085,-0.701889 0.60288,-0.709266 0.0962,-0.0025 0.24355,-0.03705 0.32736,-0.07601 0.10974,-0.0507 0.0657,-0.05856 -0.15822,-0.02804 -0.47509,0.06468 -0.53737,-0.06013 -0.37257,-0.745516 0.82526,-3.428941 2.20776,-7.5704051 3.46101,-10.3674281 0.26259,-0.585825 0.6242,-1.407763 0.80358,-1.826179 0.28377,-0.662387 1.08474,-1.858998 1.27006,-1.919713 z m -1.53467,14.2910251 c 0.0249,-0.0041 0.0679,0.332045 0.0951,0.747071 0.0704,1.074079 0.33558,2.810223 0.55846,3.657031 0.10475,0.398062 0.2078,0.79758 0.22876,0.887368 0.0375,0.161023 0.0261,0.162735 -0.78722,0.128221 -0.74864,-0.03176 -0.81209,-0.0239 -0.6816,0.08147 0.30249,0.244028 1.68582,0.439399 3.87527,0.547547 1.02,0.05029 1.05058,0.05641 1.01247,0.211996 -0.0216,0.0884 -0.13257,0.622968 -0.2463,1.187835 -0.25719,1.276001 -0.21943,1.24339 -0.80046,0.70226 l -0.4848,-0.451673 -1.55962,-0.04599 c -2.12261,-0.06286 -4.83418,-0.403785 -5.24821,-0.659781 -0.074,-0.04565 0.0292,-0.442625 0.43725,-1.685105 0.29371,-0.8941 0.64511,-2.036736 0.78059,-2.538951 0.2975,-1.101018 0.22446,-1.013513 0.91504,-1.093524 l 0.56625,-0.06583 -0.55144,-0.0098 c -0.61955,-0.011 -0.5995,0.02068 -0.4279,-0.662511 0.14226,-0.566066 0.18914,-0.602746 0.86515,-0.674975 0.27196,-0.02911 0.70027,-0.09827 0.95128,-0.153935 0.25101,-0.0555 0.47681,-0.104335 0.50195,-0.108727 z m 20.81865,4.476984 c 0.30174,0.0074 0.35089,0.227131 0.67575,0.902172 1.00923,2.097674 1.41359,3.165658 1.22603,3.238482 -0.74645,0.289922 -0.66444,0.233044 -2.19484,1.521816 -0.78735,0.662841 -1.0143,0.785869 -1.1855,0.643802 -0.38589,-0.320251 -2.11424,-4.736188 -2.06117,-5.266144 0.0269,-0.266773 0.69878,-0.492556 2.60949,-0.876459 0.47708,-0.09592 0.74919,-0.168111 0.93024,-0.163669 z m -3.8059,0.936859 c 0.0873,0.0066 0.0986,0.03879 0.0986,0.09158 0,0.278344 0.82491,2.80302 1.33631,4.089996 0.31127,0.783355 0.56586,1.441044 0.56586,1.461795 0,0.19514 -2.18743,0.298896 -3.50972,0.166407 l -0.58067,-0.05806 -0.1247,-0.964525 c -0.14865,-1.148698 -0.27219,-2.843257 -0.27319,-3.74394 l -8e-4,-0.649253 1.12236,-0.196025 c 0.86422,-0.150767 1.22038,-0.209415 1.36593,-0.197968 z m -4.79498,0.526102 c 0.14546,-0.01117 0.17108,0.03581 0.21278,0.386591 0.0259,0.219687 0.0544,1.392445 0.0627,2.605985 l 0.0152,2.206145 -1.14146,-0.01009 c -1.66688,-0.01497 -3.67321,-0.457727 -5.42709,-1.197189 -0.62573,-0.263977 -1.91503,-1.057745 -1.91503,-1.179259 0,-0.08097 0.42487,-1.967732 0.5378,-2.387745 l 0.0768,-0.285275 2.90723,-0.0093 c 2.45483,-0.0083 3.44015,-0.03499 4.67106,-0.129777 z"
     sodipodi:nodetypes="sccsscsccccsccccccccccccccccccccccccccccccccccccsccccccsccccccsccccccccccscccsccscccccccscsccccccccccccscsccsccccccccscccccccccccccccscssssccsssscsssccccsccssscccccsssccsccccscsccccccccsssccccccccccccccccccccsssccccccsssssccccccssccccccsccccc"
     style="fill:#000000;fill-opacity:0.995338;stroke-width:0.199531"
     inkscape:label="hull"
     sodipodi:insensitive="true" />
</svg>
