<?xml version="1.0" encoding="UTF-8" standalone="no"?>
<!-- Created with Inkscape (http://www.inkscape.org/) -->

<svg
   width="100%"
   height="100%"
   id="svg5511"
   sodipodi:version="0.32"
   inkscape:version="1.1.1 (3bf5ae0d25, 2021-09-20)"
   version="1.0"
   sodipodi:docname="muskogee.svg"
   xmlns:inkscape="http://www.inkscape.org/namespaces/inkscape"
   xmlns:sodipodi="http://sodipodi.sourceforge.net/DTD/sodipodi-0.dtd"
   xmlns="http://www.w3.org/2000/svg"
   xmlns:svg="http://www.w3.org/2000/svg"
   xmlns:rdf="http://www.w3.org/1999/02/22-rdf-syntax-ns#"
   xmlns:cc="http://creativecommons.org/ns#"
   xmlns:dc="http://purl.org/dc/elements/1.1/">
  <defs
     id="defs5513" />
  <sodipodi:namedview
     id="base"
     pagecolor="#ffffff"
     bordercolor="#666666"
     borderopacity="1.0"
     gridtolerance="10000"
     guidetolerance="10"
     objecttolerance="10"
     inkscape:pageopacity="0.0"
     inkscape:pageshadow="2"
     inkscape:zoom="0.67705475"
     inkscape:cx="157.29895"
     inkscape:cy="356.69198"
     inkscape:document-units="px"
     inkscape:current-layer="layer1"
     height="400px"
     width="600px"
     inkscape:window-width="1920"
     inkscape:window-height="1017"
     inkscape:window-x="-8"
     inkscape:window-y="-8"
     inkscape:pagecheckerboard="0"
     showgrid="false"
     fit-margin-top="0"
     fit-margin-left="0"
     fit-margin-right="0"
     fit-margin-bottom="0"
     inkscape:window-maximized="1" />
  <metadata
     id="metadata5516">
    <rdf:RDF>
      <cc:Work
         rdf:about="">
        <dc:format>image/svg+xml</dc:format>
        <dc:type
           rdf:resource="http://purl.org/dc/dcmitype/StillImage" />
      </cc:Work>
    </rdf:RDF>
  </metadata>
  <g
     inkscape:label="Layer 1"
     inkscape:groupmode="layer"
     id="layer1">
    <path
       id="rect6519"
       style="fill:#d43547;fill-opacity:1;stroke:none;stroke-width:1.06322;stroke-miterlimit:4;stroke-dasharray:none;stroke-opacity:1"
       d="M 0,229.0625 V 400 H 172.62109 V 229.0625 Z" />
    <path
       id="rect6523"
       style="fill:#d43547;fill-opacity:1;stroke:none;stroke-width:1.09917;stroke-miterlimit:4;stroke-dasharray:none;stroke-opacity:1"
       d="M 230.74414,229.0625 V 400 H 400 V 229.0625 Z" />
    <path
       id="rect6525"
       style="fill:#00498e;fill-opacity:1;stroke:none;stroke-width:1.18355;stroke-miterlimit:4;stroke-dasharray:none;stroke-opacity:1"
       d="m 180.92383,0 v 400 h 41.51758 V 0 Z" />
    <path
       id="rect6527"
       style="fill:#00498e;fill-opacity:1;stroke:none;stroke-width:1.00172;stroke-miterlimit:4;stroke-dasharray:none;stroke-opacity:1"
       d="m 0,179.24219 v 41.51562 h 400 v -41.51562 z" />
    <path
       id="rect6529"
       style="fill:#d43547;fill-opacity:1;stroke:none;stroke-width:1.04373;stroke-miterlimit:4;stroke-dasharray:none;stroke-opacity:1"
       d="M 230.74414,0 V 170.9375 H 400 V 0 Z" />
    <path
       id="rect6531"
       style="fill:#00498e;fill-opacity:1;stroke:none;stroke-width:1.05044;stroke-miterlimit:4;stroke-dasharray:none;stroke-opacity:1"
       d="M 0,0 V 170.9375 H 172.62109 V 0 Z" />
    <path
       sodipodi:nodetypes="ccccccccccccccccccccccccc"
       style="fill:#fef200;fill-opacity:1;stroke-width:0.830343"
       d="m 106.15648,132.40407 12.98588,17.57351 0.91221,-22.4122 23.38166,8.26976 -13.78318,-19.78965 22.96608,-4.72512 -20.48775,-10.5043 18.55239,-16.436477 -23.5408,2.574109 9.75995,-24.713418 L 115.49044,77.289482 111.14977,52.56492 100.7344,75.456686 85.327211,55.22784 87.088279,79.876883 63.153438,70.865095 77.231566,91.433536 50.29628,92.909852 l 24.666744,13.345528 -21.559589,14.86798 26.400206,-1.21979 -11.21503,22.37577 22.950055,-12.84231 2.813819,22.86048 z"
       id="path5585" />
    <path
       sodipodi:nodetypes="ccsssssss"
       style="fill:#fef200;fill-opacity:1;stroke-width:0.830343"
       d="m 66.826158,109.72653 5.125185,-3.52888 -7.934498,-4.18639 c -0.02689,-0.0142 -3.711019,2.17584 -5.682654,2.3773 -2.444028,0.13266 -4.407731,-0.38593 -7.945087,-2.09819 -1.161219,-0.56208 -2.140276,-1.02198 -2.175691,-1.02198 -0.03537,0 0.279079,0.23163 0.698842,0.51473 2.811396,2.27182 5.159857,5.07331 8.323613,6.88639 2.984653,1.59711 8.390439,1.88316 9.59029,1.05702 z"
       id="path5555" />
    <path
       style="fill:#fef200;fill-opacity:1;stroke-width:0.830343"
       d="m 103.9725,152.34988 c 4.0075,-3.98817 5.20903,-6.14627 5.61685,-10.08857 0.21638,-2.09162 0.26317,-2.25539 -1.46164,-4.46506 l -1.77168,-2.26971 -3.78458,6.37642 c 2.2465,4.18976 0.8416,8.20439 -1.03047,12.2313 -0.58613,1.12305 -0.76153,1.54978 -0.50777,1.23533 0.21324,-0.26423 1.53591,-1.62309 2.93929,-3.01971 z"
       id="path5589"
       sodipodi:nodetypes="cssccssc" />
    <path
       style="fill:#fef200;fill-opacity:1;stroke-width:0.830343"
       d="m 126.03285,146.24184 c 1.29159,-3.02508 1.69816,-4.21409 2.02489,-5.92176 0.38576,-2.78599 0.2474,-5.82222 -1.07647,-8.33159 l -5.31872,-1.91518 -0.27986,6.92056 0.90587,0.97843 c 2.483,2.68876 2.63852,6.17584 2.4135,9.64213 -0.0871,0.90591 -0.18779,1.95595 -0.2238,2.33341 l -0.0655,0.6863 0.19469,-0.75493 c 0.10708,-0.41521 0.7485,-2.05203 1.42538,-3.63737 z"
       id="path5569"
       sodipodi:nodetypes="csssccscccc" />
    <path
       style="fill:#fef200;fill-opacity:1;stroke-width:0.830343"
       d="m 73.763565,145.77484 c 3.635954,-0.31843 7.241871,-0.56668 10.663333,-1.93692 2.910589,-1.30494 5.179096,-3.6833 6.389181,-6.45109 l -0.703701,-5.1616 -7.669265,4.38436 c -0.402541,1.64042 -1.160664,3.08411 -2.104801,4.48835 -1.308974,1.5729 -2.995523,2.69771 -6.025707,4.01872 -1.768406,0.77094 -2.314424,1.04867 -1.71574,0.8727 0.150983,-0.0443 0.676001,-0.14091 1.1667,-0.21452 z"
       id="path5565"
       sodipodi:nodetypes="csccssssc" />
    <path
       style="fill:#fef200;fill-opacity:1;stroke-width:0.830343"
       d="m 146.38713,131.37526 c -0.37517,-0.73539 -0.63375,-1.81706 -1.03984,-4.34975 -0.84409,-5.2644 -1.79589,-7.71698 -3.98177,-10.26015 -0.72584,-0.84449 -0.99585,-1.11544 -1.28154,-1.05713 l -7.47258,1.52499 3.38127,4.83535 c 0.48157,0.68867 3.01027,0.54487 4.07772,1.17903 1.97786,1.17502 3.542,3.11641 5.50035,6.82694 0.52937,1.00303 0.98966,1.82368 1.02285,1.82368 0.0332,0 -0.0597,-0.23533 -0.20646,-0.52296 z"
       id="path5561"
       sodipodi:nodetypes="cssscssssc" />
    <path
       style="fill:#fef200;fill-opacity:1;stroke-width:0.830343"
       d="m 74.053751,127.60937 2.866785,-5.81472 -8.647349,0.19521 c -0.181369,0.004 -0.470428,1.02636 -0.793742,1.44733 -1.545661,2.01247 -4.666872,3.50069 -7.8536,3.74467 -1.095252,0.1296 -2.1924,0.16768 -3.294228,0.1922 l -1.71574,0.0258 1.166701,0.1837 c 0.641689,0.10103 1.691725,0.34167 2.333415,0.53475 2.673551,0.80445 4.663521,1.33068 5.696265,1.50633 3.622677,0.61888 7.119295,-0.14422 10.241493,-2.01525 z"
       id="path5559"
       sodipodi:nodetypes="ccssscccssc" />
    <path
       style="fill:#fef200;fill-opacity:1;stroke-width:0.830343"
       d="m 154.62236,104.58349 c -0.37752,-0.37752 -1.35218,-1.56653 -2.16592,-2.64225 -3.11413,-4.116725 -5.5744,-6.166475 -8.67488,-7.227437 -1.66614,-0.570147 -1.35914,-0.726885 -5.21728,2.663658 l -3.43616,3.019709 4.52927,2.27103 1.40227,-0.69289 c 1.55966,-0.77066 2.82312,-1.09175 4.31006,-1.09534 2.46425,-0.006 4.58608,0.8214 7.97143,3.10825 1.03725,0.70067 1.9043,1.27569 1.92676,1.27782 0.0225,0.002 -0.26803,-0.30503 -0.64555,-0.68255 z"
       id="path5551"
       sodipodi:nodetypes="cssccccsssc" />
    <path
       style="fill:#fef200;fill-opacity:1;stroke-width:0.830343"
       d="M 74.386382,89.967297 69.431576,83.34016 c -5.988584,0.977538 -9.643906,-2.645183 -12.348902,-7.448257 -0.506711,-0.924781 -0.94385,-1.681429 -0.971424,-1.681429 -0.02758,0 0.06537,0.293396 0.206572,0.651986 0.28049,0.712362 0.520255,1.862253 0.980197,4.701135 0.524459,4.209049 3.578965,10.843833 5.632697,10.776923 z"
       id="path5547"
       sodipodi:nodetypes="ccsssssc" />
    <path
       style="fill:#fef200;fill-opacity:1;stroke-width:0.830343"
       d="m 133.72254,84.420192 c 0.0845,-0.01378 0.34976,-0.622467 0.61573,-1.282574 1.50074,-3.724637 4.1827,-5.735032 8.46681,-6.346713 0.71718,-0.102401 2.41519,-0.297075 3.77464,-0.271669 2.51826,0.04707 2.27994,0.199809 -1.57849,-0.8346 -3.559,-1.332464 -7.16285,-1.880349 -10.91216,-1.549732 l -4.42349,10.946879 z"
       id="path5545"
       sodipodi:nodetypes="cssssscs" />
    <path
       style="fill:#fef200;fill-opacity:1;stroke-width:0.830343"
       d="M 84.797353,69.786931 C 81.279826,68.378326 78.984996,65.943902 77.791574,62.23904 77.537561,61.18445 77.464923,58.210954 77.633953,55.787848 l 0.09576,-1.372595 -0.200864,0.740076 c -0.110467,0.407038 -0.722854,2.043859 -1.36085,3.637373 -0.637982,1.593515 -1.331883,3.576733 -1.541995,4.407151 -0.541765,2.409249 -0.609757,4.81202 0.01165,7.398344 0.621411,2.586323 2.572858,3.693432 2.572858,3.693432 l 8.061593,3.230468 z"
       id="path5543"
       sodipodi:nodetypes="cscccsszccs" />
    <path
       style="fill:#fef200;fill-opacity:1;stroke-width:0.830343"
       d="m 120.64265,71.543733 c -0.60092,-6.517541 1.73368,-10.048777 7.65296,-13.289199 1.77469,-0.853026 2.02149,-1.028086 1.05714,-0.749863 -0.26373,0.0761 -1.65308,0.294271 -3.08744,0.484859 -4.48676,0.348259 -8.36376,1.84301 -11.57329,4.935807 l 2.03376,11.531866 z"
       id="path5541"
       sodipodi:nodetypes="csssccs" />
    <path
       style="fill:#fef200;fill-opacity:1;stroke-width:0.830343"
       d="m 103.01757,66.169823 c -1.75606,-1.858244 -2.9744,-3.963052 -3.48359,-6.478703 -0.366292,-2.513141 0.54354,-5.408466 2.80092,-8.913248 1.04838,-1.627706 1.0614,-1.665137 0.30669,-0.881958 -0.36916,0.383088 -1.44328,1.337816 -2.38695,2.121618 -3.647288,2.766804 -6.129524,6.210734 -7.056446,10.671139 l 7.190336,9.274034 z"
       id="path5537"
       sodipodi:nodetypes="cssssccc" />
    <path
       sodipodi:nodetypes="cscss"
       style="fill:#00498e;fill-opacity:1;stroke-width:0.830343"
       d="m 100.80368,125.43231 c 1.35735,0.45581 2.72449,0.64452 4.0896,0.61051 1.3651,-0.0341 2.72817,-0.29077 4.07734,-0.72588 -1.13679,1.46018 -2.57803,2.06105 -4.03532,2.01086 -1.45728,-0.0502 -2.93062,-0.75143 -4.13162,-1.89549 z"
       id="path5583" />
    <path
       style="fill:#00498e;fill-opacity:1;stroke-width:0.830343"
       d="m 96.688641,118.80099 c -1.524423,-0.71874 -1.592226,-1.60711 -0.373049,-2.19474 4.269288,-1.32611 11.344678,-1.2542 15.651908,-0.0657 1.74673,0.5594 1.75675,1.36602 0.27686,2.22902 -5.08914,2.6213 -10.44848,2.01016 -15.555719,0.0314 z"
       id="path5581"
       sodipodi:nodetypes="cssss" />
    <path
       style="fill:#00498e;fill-opacity:1;stroke-width:0.830343"
       d="m 100.0641,106.64367 c -1.399129,0.75319 -2.489758,1.80246 -3.235829,-0.17337 -0.148618,-1.4279 0.545878,-2.06423 1.843988,-2.13665 1.717491,0.27749 3.262301,1.23662 4.857201,1.9081 1.90663,1.04316 1.76305,0.88352 4.06618,-1.84687 1.46678,-2.31148 0.043,-5.073516 -0.80407,-7.394882 -0.27143,-0.736055 -0.44204,-1.33828 -0.37914,-1.33828 0.25826,0 1.69558,1.683692 2.0021,2.345297 0.87999,2.672405 2.51826,6.034165 0.24528,8.308505 -1.29519,1.13755 -3.3269,2.54769 -3.62993,2.5194 -1.71364,-0.61769 -3.21486,-1.68251 -4.96578,-2.19125 z"
       id="path5579"
       sodipodi:nodetypes="cssssssssss" />
    <path
       sodipodi:nodetypes="cssssssssc"
       style="fill:#00498e;fill-opacity:1;stroke-width:0.830343"
       d="m 89.65738,95.468031 c -2.26524,-0.654248 -4.913057,-2.666622 -4.913057,-3.733965 0,-0.356985 -0.358067,-0.601911 -0.879971,-0.601911 -0.37086,0 -1.864708,-0.56091 -1.865023,-0.700284 -3e-4,-0.131082 1.818456,-0.93427 2.84175,-1.254961 4.508048,-0.430829 9.262456,-0.732374 13.786503,-0.177907 1.036982,0.265654 1.215281,0.401856 1.215281,0.928356 0,0.473629 -0.772638,1.342056 -1.19403,1.342056 -0.499752,0.431862 -0.879663,1.106212 -1.360661,1.637299 -2.026316,1.851946 -5.754346,3.103272 -7.630792,2.561317 z"
       id="path5577" />
    <path
       sodipodi:nodetypes="ccccsssssssssc"
       style="fill:#00498e;fill-opacity:1;stroke-width:0.830343"
       d="m 114.85639,94.849581 c -2.07925,-0.56264 -3.92079,-1.803699 -4.39644,-2.962883 l -0.25399,-0.618999 -0.86903,0.03518 c -0.82719,0.03348 -0.88832,0.01359 -1.26966,-0.413082 -0.45099,-0.504621 -0.52681,-1.121688 -0.18041,-1.468085 3.00958,-1.84501 6.69051,-1.320601 10.07426,-1.204937 4.31182,0.16072 5.20599,0.278287 7.34339,0.965473 0.66577,0.214057 0.77095,0.285183 0.54903,0.371342 -0.15099,0.05861 -0.64512,0.278335 -1.09807,0.488273 -0.45297,0.209924 -1.05519,0.424475 -1.33829,0.476757 -0.31022,0.05729 -0.51472,0.17296 -0.51472,0.291141 0,0.374718 -0.52985,1.217903 -1.12107,1.784016 -1.96799,1.796949 -4.33257,2.722872 -6.925,2.255804 z"
       id="path5575" />
    <path
       sodipodi:nodetypes="cssss"
       style="fill:#00498e;fill-opacity:1;stroke-width:0.830343"
       d="m 95.963536,84.702977 c 0.542932,0.333254 1.128955,1.272138 1.030065,1.650301 -0.453613,0.420091 -1.261079,0.08202 -1.886183,-0.02087 -4.178837,-0.382843 -8.378492,-0.172121 -12.490617,0.628196 3.700889,-2.353288 8.875292,-3.484664 13.346735,-2.25763 z"
       id="path5573" />
    <path
       sodipodi:nodetypes="cssssc"
       style="fill:#00498e;fill-opacity:1;stroke-width:0.830343"
       d="m 124.06916,86.726816 c -4.24662,-0.75438 -8.73068,-1.154914 -13.00608,-0.378743 -0.57491,0.153787 -0.67998,0.147346 -0.88132,-0.05398 -0.17553,-0.856985 0.5704,-1.395826 1.26026,-1.887652 3.78125,-0.984618 7.9867,-0.06732 11.52906,1.433207 1.68111,0.806537 2.20094,1.226523 1.09808,0.887168 z"
       id="path5571" />
  </g>
</svg>
