<?xml version="1.0" encoding="UTF-8" standalone="no"?>
<svg
   width="100%"
   height="100%"
   viewBox="0 0 547 547"
   version="1.1"
   id="svg24"
   sodipodi:docname="southcarolina.svg"
   inkscape:version="1.1.1 (3bf5ae0d25, 2021-09-20)"
   xmlns:inkscape="http://www.inkscape.org/namespaces/inkscape"
   xmlns:sodipodi="http://sodipodi.sourceforge.net/DTD/sodipodi-0.dtd"
   xmlns="http://www.w3.org/2000/svg"
   xmlns:svg="http://www.w3.org/2000/svg">
  <defs
     id="defs28" />
  <sodipodi:namedview
     id="namedview26"
     pagecolor="#ffffff"
     bordercolor="#666666"
     borderopacity="1.0"
     inkscape:pageshadow="2"
     inkscape:pageopacity="0.0"
     inkscape:pagecheckerboard="0"
     showgrid="false"
     inkscape:zoom="0.69331586"
     inkscape:cx="300.72873"
     inkscape:cy="221.39981"
     inkscape:window-width="1920"
     inkscape:window-height="1017"
     inkscape:window-x="-8"
     inkscape:window-y="-8"
     inkscape:window-maximized="1"
     inkscape:current-layer="svg24" />
  <rect
     width="547"
     height="547"
     fill="#160b60"
     id="rect2"
     x="0"
     y="0"
     style="stroke-width:0.846704" />
  <circle
     cx="173.5"
     cy="173.5"
     r="103.5"
     fill="#ffffff"
     id="circle4" />
  <circle
     cx="148.5"
     cy="148.5"
     r="68.5"
     fill="#160b60"
     id="circle6" />
  <g
     fill="#160b60"
     id="g22"
     transform="translate(34,34.000006)">
    <path
       d="m 92.594999,182.19703 c 2.736,1.644 5.478,3.072 8.220001,4.299 -3.780001,8.877 -7.560001,17.754 -11.340001,26.631 6.924,3.096 13.839001,5.286 20.676001,6.654 -0.399,2.238 -0.795,4.476 -1.194,6.714 -11.475001,-2.295 -23.154001,-6.75 -34.743001,-13.713 6.126,-10.197 12.252,-20.391 18.381,-30.585 z"
       id="path8" />
    <path
       d="m 128.064,192.36703 c 0.18,12.003 0.36,24.006 0.54,36.009 -4.029,0.03 -8.109,-0.192 -12.225,-0.69 1.239,-11.922 2.475,-23.847 3.714,-35.769 2.682,0.324 5.346,0.471 7.971,0.45 z"
       id="path10" />
    <path
       d="m 134.895,192.47503 c 2.001,-0.648 5.934,-1.665 9.624,-2.736 4.464,-1.293 7.191,-1.965 10.092,-1.569 2.7,0.228 5.352,1.563 6.867,4.5 1.425,2.769 1.002,6.426 -2.697,9.735 0.012,0.033 0.027,0.063 0.042,0.096 4.752,-0.879 9.372,0.066 11.595,4.134 1.554,2.901 1.026,6.15 -1.044,9.12 -2.382,3.414 -7.665,7.341 -17.718,9.99 -5.631,1.437 -10.026,1.773 -12.687,1.824 -1.359,-11.7 -2.718,-23.397 -4.074,-35.094 z m 10.692,11.997 c 0.987,-0.243 1.968,-0.501 2.94,-0.78 4.761,-1.392 6.465,-4.077 5.511,-6.54 -0.984,-2.553 -3.423,-3.06 -6.984,-1.983 -1.77,0.525 -2.754,0.873 -3.354,1.188 0.627,2.706 1.257,5.412 1.887,8.115 z m 3.621,15.555 c 1.098,-0.108 2.373,-0.432 4.188,-0.963 4.854,-1.416 8.421,-4.476 7.011,-7.983 -1.356,-3.372 -5.496,-3.165 -10.221,-1.809 -1.083,0.312 -2.178,0.603 -3.276,0.873 0.765,3.294 1.53,6.588 2.298,9.882 z"
       id="path12" />
    <path
       d="m 193.473,181.80103 c -3.495,4.083 -7.338,7.866 -11.478,11.289 1.773,2.202 3.546,4.404 5.319,6.606 5.073,-4.194 9.738,-8.88 13.92,-13.965 1.704,1.398 3.411,2.799 5.118,4.197 -6.921,8.421 -15.087,15.816 -24.186,21.813 -6.39,-10.074 -12.783,-20.148 -19.173,-30.225 5.739,-3.783 10.911,-8.421 15.327,-13.689 1.689,1.416 3.381,2.835 5.073,4.251 -3.078,3.672 -6.486,7.062 -10.176,10.113 1.554,1.926 3.105,3.852 4.656,5.781 3.831,-3.168 7.383,-6.666 10.617,-10.443 1.662,1.422 3.324,2.847 4.983,4.272 z"
       id="path14" />
    <path
       d="m 182.334,163.48903 c 1.032,-2.277 2.709,-5.427 4.557,-9.039 2.247,-4.404 4.134,-7.359 6.903,-9.105 2.283,-1.506 5.007,-2.067 8.214,-1.251 4.407,1.062 6.444,5.517 6.168,9.393 0.051,0.018 0.102,0.036 0.15,0.054 1.998,-2.469 4.722,-3.417 8.241,-3.651 4.362,-0.267 9.303,-0.585 10.896,-1.239 -0.987,3.849 -2.199,7.632 -3.621,11.334 -1.221,0.366 -4.437,0.564 -9.048,0.144 -4.722,-0.462 -6.492,0.807 -8.43,4.467 -0.456,0.876 -0.924,1.743 -1.407,2.604 4.116,2.235 8.232,4.473 12.345,6.708 -1.875,3.345 -3.927,6.594 -6.144,9.726 -9.609,-6.717 -19.218,-13.431 -28.824,-20.145 z m 17.499,0.924 c 0.6,-1.074 1.182,-2.157 1.737,-3.255 2.115,-4.212 1.179,-7.533 -1.749,-8.604 -3.054,-1.125 -5.43,0.399 -7.092,3.756 -0.894,1.788 -1.362,2.82 -1.509,3.42 2.868,1.56 5.742,3.123 8.613,4.683 z"
       id="path16" />
    <path
       d="m 201.117,130.67503 c -0.306,3.342 -0.849,6.645 -1.614,9.888 -2.22,-0.48 -4.44,-0.963 -6.663,-1.443 1.977,-8.376 2.322,-17.202 0.675,-26.037 2.247,-0.399 4.491,-0.795 6.735,-1.194 0.642,3.459 1.008,6.915 1.119,10.344 9.72,-0.345 19.44,-0.687 29.163,-1.032 0.126,3.945 0.003,7.872 -0.351,11.757 -9.687,-0.762 -19.374,-1.524 -29.064,-2.283 z"
       id="path18" />
    <path
       d="m 222.531,85.843027 c -4.533,1.851 -9.069,3.705 -13.602,5.559 -4.485,7.398 -9.939,13.704003 -16.002,18.870003 -0.699,-2.985 -1.629,-5.967 -2.811,-8.925 2.238,-2.157003 4.383,-4.458003 6.414,-6.900003 1.827,-2.247 3.111,-3.96 4.701,-5.97 -0.021,-0.042 -0.042,-0.081 -0.063,-0.123 -2.484,0.066 -4.845,0.057 -7.725,0.156 -3.252,0.105 -6.462,0.36 -9.621,0.765 -1.836,-2.808 -3.927,-5.574 -6.282,-8.286 8.295,-1.032 17.085,-0.873 26.007,0.519 4.326,-2.451 8.649,-4.902 12.975,-7.353 2.298,3.855 4.296,7.758 6.009,11.688 z"
       id="path20" />
  </g>
</svg>
