<?xml version="1.0" encoding="UTF-8" standalone="no"?>
<!-- Created with Inkscape (http://www.inkscape.org/) -->

<svg
   width="900"
   height="600"
   viewBox="0 0 900 600"
   version="1.1"
   id="svg1"
   inkscape:version="1.3.2 (091e20e, 2023-11-25, custom)"
   sodipodi:docname="scandinavia.svg"
   xmlns:inkscape="http://www.inkscape.org/namespaces/inkscape"
   xmlns:sodipodi="http://sodipodi.sourceforge.net/DTD/sodipodi-0.dtd"
   xmlns="http://www.w3.org/2000/svg"
   xmlns:svg="http://www.w3.org/2000/svg">
  <sodipodi:namedview
     id="namedview1"
     pagecolor="#ffffff"
     bordercolor="#000000"
     borderopacity="0.25"
     inkscape:showpageshadow="2"
     inkscape:pageopacity="0.0"
     inkscape:pagecheckerboard="0"
     inkscape:deskcolor="#d1d1d1"
     inkscape:document-units="mm"
     showguides="true"
     inkscape:zoom="1"
     inkscape:cx="544"
     inkscape:cy="300.5"
     inkscape:window-width="2560"
     inkscape:window-height="1369"
     inkscape:window-x="-8"
     inkscape:window-y="-8"
     inkscape:window-maximized="1"
     inkscape:current-layer="layer1" />
  <defs
     id="defs1">
    <clipPath
       clipPathUnits="userSpaceOnUse"
       id="clipPath2">
      <rect
         style="fill:#ffffff;fill-opacity:1;stroke:none;stroke-width:6.4959;stroke-linejoin:bevel"
         id="rect3"
         width="900"
         height="600"
         x="0"
         y="0" />
    </clipPath>
  </defs>
  <g
     inkscape:label="Layer 1"
     inkscape:groupmode="layer"
     id="layer1">
    <rect
       width="250"
       height="600"
       fill="#ba0c2f"
       id="rect1"
       x="8.7000345e-08"
       y="2.0977683e-07"
       style="stroke-width:20.6432" />
    <rect
       width="506.76675"
       height="600"
       fill="#ba0c2f"
       id="rect1-3"
       x="400"
       y="0"
       style="fill:#002f6c;fill-opacity:1;stroke-width:29.3908"
       clip-path="url(#clipPath2)"
       transform="matrix(1.1343503,0,0,1,-120.91526,0)" />
    <rect
       style="fill:#ffffff;fill-opacity:1;stroke:none;stroke-width:4.99335;stroke-linejoin:bevel"
       id="rect4"
       width="900"
       height="200"
       x="0"
       y="200" />
    <rect
       style="fill:#ffffff;fill-opacity:1;stroke:none;stroke-width:4.07705;stroke-linejoin:bevel"
       id="rect4-0"
       width="600"
       height="200"
       x="0"
       y="-440"
       transform="rotate(90)" />
    <rect
       style="fill:#00205b;fill-opacity:1;stroke:none;stroke-width:5.21003;stroke-linejoin:bevel"
       id="rect5"
       width="100"
       height="600"
       x="290"
       y="0" />
    <rect
       style="fill:#00205b;fill-opacity:1;stroke:none;stroke-width:6.38096;stroke-linejoin:bevel"
       id="rect5-1"
       width="100"
       height="900"
       x="250"
       y="-900"
       transform="rotate(90)" />
    <rect
       style="fill:#fecc00;fill-opacity:1;stroke:none;stroke-width:6.00386;stroke-linejoin:bevel"
       id="rect4-5"
       width="70"
       height="600"
       x="305"
       y="0" />
    <rect
       style="fill:#fecc00;fill-opacity:1;stroke:none;stroke-width:7.3532;stroke-linejoin:bevel"
       id="rect4-5-8"
       width="70"
       height="900"
       x="265"
       y="-900"
       transform="rotate(90)" />
    <path
       sodipodi:type="star"
       style="fill:#fecc00;fill-opacity:1;stroke:none;stroke-width:5;stroke-linejoin:bevel"
       id="path5"
       inkscape:flatsided="false"
       sodipodi:sides="5"
       sodipodi:cx="234.22913"
       sodipodi:cy="247.48737"
       sodipodi:r1="17.097607"
       sodipodi:r2="8.5488024"
       sodipodi:arg1="-1.5707963"
       sodipodi:arg2="-0.9424778"
       inkscape:rounded="0"
       inkscape:randomized="0"
       d="m 234.22913,230.38976 5.02486,10.18148 11.23593,1.63268 -8.1304,7.92517 1.91933,11.19053 -10.04972,-5.28345 -10.04973,5.28345 1.91933,-11.19053 -8.13039,-7.92518 11.23593,-1.63267 z"
       inkscape:transform-center-y="-1.995067"
       transform="matrix(1.1621599,0,0,1.2219672,-7.6447681,-119.387)"
       inkscape:transform-center-x="-1.7161113e-05" />
    <path
       sodipodi:type="star"
       style="fill:#fecc00;fill-opacity:1;stroke:none;stroke-width:5;stroke-linejoin:bevel"
       id="path5-9"
       inkscape:flatsided="false"
       sodipodi:sides="5"
       sodipodi:cx="234.22913"
       sodipodi:cy="247.48737"
       sodipodi:r1="17.097607"
       sodipodi:r2="8.5488024"
       sodipodi:arg1="-1.5707963"
       sodipodi:arg2="-0.9424778"
       inkscape:rounded="0"
       inkscape:randomized="0"
       d="m 234.22913,230.38976 5.02486,10.18148 11.23593,1.63268 -8.1304,7.92517 1.91933,11.19053 -10.04972,-5.28345 -10.04973,5.28345 1.91933,-11.19053 -8.13039,-7.92518 11.23593,-1.63267 z"
       inkscape:transform-center-y="-1.9950722"
       transform="matrix(1.1621599,0,0,1.2219672,143.53633,-119.387)"
       inkscape:transform-center-x="-7.9859127e-06" />
    <path
       sodipodi:type="star"
       style="fill:#fecc00;fill-opacity:1;stroke:none;stroke-width:5;stroke-linejoin:bevel"
       id="path5-9-8"
       inkscape:flatsided="false"
       sodipodi:sides="5"
       sodipodi:cx="234.22913"
       sodipodi:cy="247.48737"
       sodipodi:r1="17.097607"
       sodipodi:r2="8.5488024"
       sodipodi:arg1="-1.5707963"
       sodipodi:arg2="-0.9424778"
       inkscape:rounded="0"
       inkscape:randomized="0"
       d="m 234.22913,230.38976 5.02486,10.18148 11.23593,1.63268 -8.1304,7.92517 1.91933,11.19053 -10.04972,-5.28345 -10.04973,5.28345 1.91933,-11.19053 -8.13039,-7.92518 11.23593,-1.63267 z"
       inkscape:transform-center-y="-1.9950742"
       transform="matrix(1.1621599,0,0,1.2219672,187.0009,-75.544477)"
       inkscape:transform-center-x="-7.9859128e-06" />
    <path
       sodipodi:type="star"
       style="fill:#fecc00;fill-opacity:1;stroke:none;stroke-width:5;stroke-linejoin:bevel"
       id="path5-9-8-0"
       inkscape:flatsided="false"
       sodipodi:sides="5"
       sodipodi:cx="234.22913"
       sodipodi:cy="247.48737"
       sodipodi:r1="17.097607"
       sodipodi:r2="8.5488024"
       sodipodi:arg1="-1.5707963"
       sodipodi:arg2="-0.9424778"
       inkscape:rounded="0"
       inkscape:randomized="0"
       d="m 234.22913,230.38976 5.02486,10.18148 11.23593,1.63268 -8.1304,7.92517 1.91933,11.19053 -10.04972,-5.28345 -10.04973,5.28345 1.91933,-11.19053 -8.13039,-7.92518 11.23593,-1.63267 z"
       inkscape:transform-center-y="-1.9950742"
       transform="matrix(1.1621599,0,0,1.2219672,187.0009,73.746862)"
       inkscape:transform-center-x="-7.9859127e-06" />
    <path
       sodipodi:type="star"
       style="fill:#fecc00;fill-opacity:1;stroke:none;stroke-width:5;stroke-linejoin:bevel"
       id="path5-9-8-0-5"
       inkscape:flatsided="false"
       sodipodi:sides="5"
       sodipodi:cx="234.22913"
       sodipodi:cy="247.48737"
       sodipodi:r1="17.097607"
       sodipodi:r2="8.5488024"
       sodipodi:arg1="-1.5707963"
       sodipodi:arg2="-0.9424778"
       inkscape:rounded="0"
       inkscape:randomized="0"
       d="m 234.22913,230.38976 5.02486,10.18148 11.23593,1.63268 -8.1304,7.92517 1.91933,11.19053 -10.04972,-5.28345 -10.04973,5.28345 1.91933,-11.19053 -8.13039,-7.92518 11.23593,-1.63267 z"
       inkscape:transform-center-y="-1.9950752"
       transform="matrix(1.1621599,0,0,1.2219672,143.53633,118.53426)"
       inkscape:transform-center-x="-7.9859126e-06" />
    <path
       sodipodi:type="star"
       style="fill:#fecc00;fill-opacity:1;stroke:none;stroke-width:5;stroke-linejoin:bevel"
       id="path5-9-8-0-5-0"
       inkscape:flatsided="false"
       sodipodi:sides="5"
       sodipodi:cx="234.22913"
       sodipodi:cy="247.48737"
       sodipodi:r1="17.097607"
       sodipodi:r2="8.5488024"
       sodipodi:arg1="-1.5707963"
       sodipodi:arg2="-0.9424778"
       inkscape:rounded="0"
       inkscape:randomized="0"
       d="m 234.22913,230.38976 5.02486,10.18148 11.23593,1.63268 -8.1304,7.92517 1.91933,11.19053 -10.04972,-5.28345 -10.04973,5.28345 1.91933,-11.19053 -8.13039,-7.92518 11.23593,-1.63267 z"
       inkscape:transform-center-y="-1.9950742"
       transform="matrix(1.1621599,0,0,1.2219672,-51.109335,73.746862)"
       inkscape:transform-center-x="-7.9859126e-06" />
    <path
       sodipodi:type="star"
       style="fill:#fecc00;fill-opacity:1;stroke:none;stroke-width:5;stroke-linejoin:bevel"
       id="path5-9-8-0-5-0-5"
       inkscape:flatsided="false"
       sodipodi:sides="5"
       sodipodi:cx="234.22913"
       sodipodi:cy="247.48737"
       sodipodi:r1="17.097607"
       sodipodi:r2="8.5488024"
       sodipodi:arg1="-1.5707963"
       sodipodi:arg2="-0.9424778"
       inkscape:rounded="0"
       inkscape:randomized="0"
       d="m 234.22913,230.38976 5.02486,10.18148 11.23593,1.63268 -8.1304,7.92517 1.91933,11.19053 -10.04972,-5.28345 -10.04973,5.28345 1.91933,-11.19053 -8.13039,-7.92518 11.23593,-1.63267 z"
       inkscape:transform-center-y="-1.9950742"
       transform="matrix(1.1621599,0,0,1.2219672,-7.6447681,118.53426)"
       inkscape:transform-center-x="-7.9859127e-06" />
    <path
       sodipodi:type="star"
       style="fill:#fecc00;fill-opacity:1;stroke:none;stroke-width:5;stroke-linejoin:bevel"
       id="path5-7"
       inkscape:flatsided="false"
       sodipodi:sides="5"
       sodipodi:cx="234.22913"
       sodipodi:cy="247.48737"
       sodipodi:r1="17.097607"
       sodipodi:r2="8.5488024"
       sodipodi:arg1="-1.5707963"
       sodipodi:arg2="-0.9424778"
       inkscape:rounded="0"
       inkscape:randomized="0"
       d="m 234.22913,230.38976 5.02486,10.18148 11.23593,1.63268 -8.1304,7.92517 1.91933,11.19053 -10.04972,-5.28345 -10.04973,5.28345 1.91933,-11.19053 -8.13039,-7.92518 11.23593,-1.63267 z"
       inkscape:transform-center-y="-1.9950742"
       transform="matrix(1.1621599,0,0,1.2219672,-51.109335,-75.544477)"
       inkscape:transform-center-x="-7.9859126e-06" />
  </g>
</svg>
