<?xml version="1.0" encoding="UTF-8" standalone="no"?>
<!-- Generator: Adobe Illustrator 25.2.1, SVG Export Plug-In . SVG Version: 6.00 Build 0)  -->

<svg
   version="1.1"
   id="Layer_1"
   x="0px"
   y="0px"
   viewBox="0 0 786.26923 840.01445"
   xml:space="preserve"
   sodipodi:docname="wu.svg"
   inkscape:version="1.1.1 (3bf5ae0d25, 2021-09-20)"
   width="786.26923"
   height="840.0144"
   xmlns:inkscape="http://www.inkscape.org/namespaces/inkscape"
   xmlns:sodipodi="http://sodipodi.sourceforge.net/DTD/sodipodi-0.dtd"
   xmlns="http://www.w3.org/2000/svg"
   xmlns:svg="http://www.w3.org/2000/svg"><defs
   id="defs205" /><sodipodi:namedview
   id="namedview203"
   pagecolor="#ffffff"
   bordercolor="#666666"
   borderopacity="1.0"
   inkscape:pageshadow="2"
   inkscape:pageopacity="0.0"
   inkscape:pagecheckerboard="0"
   showgrid="false"
   inkscape:zoom="0.38027682"
   inkscape:cx="445.72793"
   inkscape:cy="585.10009"
   inkscape:window-width="1920"
   inkscape:window-height="1017"
   inkscape:window-x="-8"
   inkscape:window-y="-8"
   inkscape:window-maximized="1"
   inkscape:current-layer="Layer_1"
   fit-margin-top="0"
   fit-margin-left="0"
   fit-margin-right="0"
   fit-margin-bottom="0" />
<style
   type="text/css"
   id="style2">
	.st0{fill:#FFFFFF;}
	.st1{fill:#1D1F25;}
	.st2{fill:#DFEBDD;}
	.st3{fill:#BE1E2D;}
</style>



<rect
   style="opacity:0.997967;fill:#7f5e13;fill-opacity:1;stroke:none;stroke-width:0.546999"
   id="rect2186"
   width="786.26923"
   height="840.0144"
   x="0"
   y="0" /><g
   id="g200"
   style="opacity:0.0711382"
   transform="translate(-118.33492,-124.33321)">
	<path
   class="st3"
   d="m 786.39,508.08 h -0.01 v 0 l -11.58,-0.19 -7.28,-0.12 v 0 h -0.01 l -0.5,9.8 2.09,0.11 5.38,0.29 0.14,-2.96 3.96,0.17 -0.57,11.29 -2.09,-0.18 -14.85,-1.27 0.64,-13.54 0.39,-7.95 v 0 0 l -0.18,-3.7 -0.21,-4.25 -0.64,-13.54 13.86,-1.19 3.08,-0.26 0.58,11.29 -3.96,0.17 -0.13,-2.69 -0.01,-0.27 -6.88,0.38 -0.59,0.03 0.5,9.8 h 0.01 v 0 l 3.17,-0.05 15.7,-0.26 v 0 h 0.01 l -0.2,-4.25 -0.23,-4.81 -0.14,-2.83 -0.22,-4.6 c -0.05,-1.88 -0.16,-3.74 -0.35,-5.61 -0.09,-1.45 -0.23,-2.89 -0.51,-4.33 l -0.06,0.01 c 0,0 0,0 0,-0.01 v 0 c 0,0 0,0 0,0 l -11.38,1.29 -1.19,-7.81 -0.2,-1.41 11.38,-1.69 v -0.01 h 0.01 l -1.5,-10.29 c -0.12,-0.93 -0.31,-1.85 -0.52,-2.77 -0.25,-1.52 -0.55,-3.03 -0.98,-4.51 l -2.15,-8.4 -1.58,0.39 -16.75,4.18 2.33,9.53 7.28,-1.52 v 0 l 0.13,-0.03 -0.74,-2.87 3.81,-0.84 c 0.48,1.95 0.97,3.91 1.4,5.87 0.29,1.73 0.53,3.47 0.8,5.2 l -4.35,0.77 -12.39,2.19 c -0.16,-1.69 -0.46,-3.36 -0.83,-5.02 l -0.25,-1.67 -1.7,-6.56 -1.1,-4.26 -0.84,-3.46 c -0.68,-2.56 -1.13,-5.2 -2,-7.7 l -0.11,-0.32 c -0.98,-3.59 -2.41,-7.03 -3.69,-10.53 l -0.68,-1.93 14.63,-5.3 1.4,-0.51 0.27,0.75 3.47,9.92 -3.67,1.16 -1.02,-2.78 -1.88,0.62 -5.29,1.73 c 0.55,1.72 1.21,3.41 1.8,5.11 0.39,1.41 0.74,2.83 1.1,4.24 l 0.85,-0.24 17.4,-4.96 c -0.29,-1.42 -0.71,-2.8 -1.17,-4.17 -0.4,-1.54 -0.83,-3.06 -1.44,-4.53 l -2.55,-7 -0.59,-1.61 -2.74,-7.8 -0.1,0.04 v -0.01 l -10.61,4.18 c -0.45,-1.5 -1.05,-2.93 -1.7,-4.34 -0.54,-1.46 -1.13,-2.9 -1.87,-4.27 l 10.45,-4.55 v -0.01 l 0.1,-0.04 v 0 0 l -3.57,-7.42 -0.91,-1.96 -3.15,-6.75 c -0.56,-1.37 -1.29,-2.65 -2.04,-3.92 -0.63,-1.27 -1.3,-2.52 -2.08,-3.71 l -11.87,6.6 -4.71,2.62 c 0.75,1.25 1.5,2.5 2.22,3.77 0.79,1.63 1.51,3.3 2.35,4.9 l 6.64,-3.37 v 0 0 0 l 0.09,-0.05 -1.25,-2.69 3.41,-1.78 4.58,9.51 0.32,0.68 -15.44,7.22 -0.88,-1.84 c -1.56,-3.38 -2.99,-6.82 -4.84,-10.05 l -0.15,-0.31 c -1.16,-2.38 -2.7,-4.56 -4.03,-6.86 v 0 l -1.85,-3.04 -2.24,-3.8 -3.44,-5.84 -1,-1.36 c -0.91,-1.43 -1.88,-2.82 -2.96,-4.14 l 5.08,-3.55 8.85,-6.19 c 1.04,1.43 2.11,2.85 3.14,4.29 1.08,1.68 2.11,3.39 3.14,5.1 l -3.29,2.1 -1.51,-2.55 -0.11,0.07 v 0 0 l -0.57,0.37 -5.66,3.7 1.7,2.79 3.39,5.59 15.96,-9.59 0.22,-0.14 v 0 h 0.01 l -4.63,-7.81 c -0.66,-1.23 -1.45,-2.38 -2.27,-3.51 -0.57,-0.92 -1.16,-1.83 -1.85,-2.68 l -5.97,-8.01 v 0 l -0.01,0.01 -0.01,-0.01 -9.24,6.85 -0.84,-1.13 -4.69,-6.38 8.95,-7.13 c 0,0 0,0 0,-0.01 l 0.05,-0.04 c -0.8,-1.19 -1.72,-2.29 -2.66,-3.37 -1.29,-1.57 -2.64,-3.09 -4.03,-4.57 l -5,-5.51 -5.83,-6.4 v 0 0 l -0.01,0.01 v 0 l -8.55,8.28 -5,4.84 v 0 l -0.01,0.01 6.58,7.28 1.43,-1.28 4.14,-3.71 -1.99,-2.19 2.92,-2.68 7.58,8.39 -1.56,1.32 -11.44,9.63 -9.12,-10.03 -5.35,-5.9 v 0 0 l -2.88,-2.62 -3.02,-2.74 -10.03,-9.12 8.96,-10.64 1.99,-2.37 8.39,7.57 -2.68,2.92 -1.87,-1.7 -0.32,-0.29 -4.67,5.21 -0.32,0.36 7.28,6.58 0.01,-0.01 v 0 l 2.04,-2.11 11.08,-11.45 v 0 l 0.01,-0.01 -3.56,-3.24 -3.16,-2.87 -2.12,-1.93 -3.38,-3.07 c -1.42,-1.35 -2.89,-2.64 -4.4,-3.87 -1.03,-0.9 -2.09,-1.77 -3.23,-2.54 l -0.04,0.05 c 0,0 0,0 -0.01,0 v 0 c 0,0 0,0 0,0 l -7.14,8.95 -6.37,-4.68 -1.14,-0.85 6.85,-9.24 h -0.01 l 0.01,-0.01 -8.34,-6.22 c -0.74,-0.58 -1.53,-1.09 -2.33,-1.59 -1.25,-0.9 -2.53,-1.76 -3.89,-2.5 l -7.46,-4.42 -1,1.66 -8.73,14.53 8.38,5.09 4.08,-6.23 v 0 l 0.07,-0.11 -2.55,-1.51 2.1,-3.29 c 1.71,1.03 3.42,2.06 5.1,3.14 1.44,1.03 2.86,2.1 4.29,3.14 l -2.56,3.65 -7.19,10.27 c -1.31,-1.08 -2.7,-2.05 -4.13,-2.96 l -1.36,-1 -5.84,-3.44 -3.78,-2.24 -3.05,-1.85 c -2.29,-1.33 -4.48,-2.87 -6.86,-4.03 l -0.3,-0.15 c -3.23,-1.84 -6.68,-3.27 -10.05,-4.84 l -1.84,-0.89 6.56,-14.03 0.66,-1.41 0.72,0.34 9.47,4.56 -1.78,3.41 -2.69,-1.25 -0.88,1.73 -2.54,5 c 1.6,0.83 3.27,1.55 4.89,2.34 1.27,0.72 2.52,1.48 3.78,2.22 l 0.36,-0.65 8.87,-15.93 c -1.21,-0.8 -2.49,-1.48 -3.78,-2.12 -1.36,-0.8 -2.75,-1.57 -4.21,-2.18 l -6.75,-3.14 -1.56,-0.72 -7.45,-3.58 -0.05,0.1 h -0.01 l -4.55,10.45 c -1.38,-0.74 -2.82,-1.32 -4.28,-1.86 -1.41,-0.65 -2.85,-1.25 -4.34,-1.7 l 4.18,-10.61 h -0.01 l 0.04,-0.1 v 0 0 l -7.77,-2.73 -2.04,-0.75 -7,-2.55 c -1.37,-0.57 -2.79,-0.97 -4.22,-1.33 -0.52,-0.17 -1.04,-0.33 -1.56,-0.49 -0.83,-0.25 -1.67,-0.48 -2.53,-0.65 l -4.05,14.21 -1.15,4.03 c 1.41,0.36 2.83,0.71 4.23,1.09 0.14,0.05 0.29,0.1 0.43,0.15 1.41,0.5 2.81,1.04 4.23,1.51 0.15,0.05 0.31,0.1 0.46,0.15 l 2.31,-7.07 v 0 l 0.03,-0.1 -2.78,-1.02 1.16,-3.67 9.97,3.48 0.7,0.26 -0.04,0.11 -5.77,15.91 -1.9,-0.66 c -3.51,-1.29 -6.97,-2.72 -10.57,-3.7 l -0.32,-0.11 c -2.51,-0.86 -5.14,-1.32 -7.7,-2 v 0 l -3.45,-0.84 -4.28,-1.1 -6.56,-1.69 -1.67,-0.25 c -1.66,-0.36 -3.32,-0.67 -5.02,-0.83 l 1.04,-5.88 1.92,-10.85 c 1.73,0.27 3.47,0.51 5.2,0.8 1.53,0.33 3.06,0.7 4.59,1.08 0.43,0.11 0.86,0.21 1.29,0.32 l -0.84,3.81 -2.87,-0.74 -0.03,0.13 v 0 0 l -1.52,7.28 8.06,1.97 1.46,0.36 4.57,-18.32 v 0 -0.01 l -8.8,-2.25 c -1.34,-0.4 -2.71,-0.66 -4.09,-0.88 -1.06,-0.25 -2.12,-0.47 -3.2,-0.59 l -9.88,-1.44 v 0 0.01 h -0.01 l -1.69,11.38 -1.39,-0.2 -7.84,-1.19 1.28,-11.38 v 0 0 c 0,0 0,0 -0.01,0 l 0.01,-0.06 c -1.5,-0.3 -3.02,-0.44 -4.54,-0.53 -1.46,-0.14 -2.93,-0.23 -4.4,-0.29 -0.47,-0.02 -0.94,-0.04 -1.41,-0.06 l -7.43,-0.36 -4.67,-0.22 -3.98,-0.19 v 0.01 0 l -0.19,11.59 -0.12,7.27 v 0 0.01 l 9.8,0.5 0.35,-6.47 0.05,-1 v 0 0 l -2.93,-0.14 h -0.03 l 0.17,-3.96 11.29,0.57 -0.19,2.17 -1.27,14.76 -0.69,-0.03 -12.86,-0.61 -7.95,-0.39 -7.96,0.39 -13.54,0.64 -1.05,-12.25 -0.4,-4.69 11.29,-0.58 0.17,3.96 -2.96,0.14 v 0 0 l 0.38,6.88 0.03,0.59 9.8,-0.5 -0.31,-18.87 v 0 -0.01 0 0 l -9.06,0.42 -7.43,0.36 c -0.12,0 -0.24,0.01 -0.36,0.01 -1.75,0.05 -3.49,0.16 -5.23,0.33 -1.45,0.09 -2.9,0.23 -4.34,0.52 l 0.01,0.06 c 0,0 -0.01,0 -0.01,0 v 0 c 0,0 0,0 0,0 l 1.29,11.38 -7.84,1.19 -1.39,0.2 -1.69,-11.38 h -0.01 v -0.01 l -10.29,1.5 c -0.93,0.12 -1.85,0.31 -2.76,0.52 -1.52,0.25 -3.04,0.55 -4.52,0.99 l -8.4,2.15 v 0.01 0 l 4.57,18.32 9.53,-2.33 -1.52,-7.28 v 0 l -0.03,-0.13 -2.87,0.74 -0.84,-3.81 c 1.95,-0.48 3.91,-0.97 5.87,-1.4 1.73,-0.29 3.47,-0.53 5.21,-0.8 l 1.2,6.77 1.76,9.96 c -1.69,0.16 -3.36,0.46 -5.01,0.83 l -1.67,0.25 -6.56,1.7 -4.28,1.1 -3.44,0.84 v 0 c -2.56,0.68 -5.2,1.13 -7.71,2 l -0.32,0.11 c -3.58,0.98 -7.02,2.4 -10.5,3.68 l -1.96,0.69 -5.81,-16.03 0.76,-0.28 9.9,-3.46 1.16,3.67 -2.78,1.02 0.27,0.84 2.07,6.33 c 1.72,-0.55 3.41,-1.21 5.11,-1.81 1.41,-0.39 2.83,-0.74 4.24,-1.1 l -0.93,-3.27 -4.27,-14.98 c -1.42,0.29 -2.8,0.71 -4.16,1.17 -1.54,0.4 -3.06,0.83 -4.53,1.44 l -7,2.55 -1.64,0.6 -7.78,2.73 0.04,0.1 h -0.01 l 4.18,10.61 c -1.5,0.45 -2.93,1.06 -4.34,1.7 -1.46,0.54 -2.9,1.13 -4.27,1.86 l -0.11,-0.25 -4.44,-10.2 h -0.01 l -0.04,-0.1 v 0 0 l -7.43,3.57 -1.96,0.91 -6.75,3.14 c -1.37,0.56 -2.65,1.29 -3.92,2.04 -0.51,0.25 -1.01,0.52 -1.51,0.78 -0.75,0.4 -1.48,0.83 -2.2,1.3 l 5.36,9.64 3.86,6.94 c 1.25,-0.75 2.5,-1.5 3.77,-2.22 0.38,-0.19 0.77,-0.37 1.16,-0.55 1.16,-0.54 2.33,-1.08 3.48,-1.66 0.09,-0.05 0.18,-0.09 0.27,-0.14 l -3.37,-6.64 v 0 0 0 l -0.05,-0.09 -2.69,1.25 -1.78,-3.41 9.53,-4.6 0.66,-0.31 7.22,15.44 -1.8,0.86 c -3.39,1.57 -6.86,3.01 -10.11,4.86 l -0.3,0.14 c -2.38,1.16 -4.56,2.7 -6.86,4.03 v 0 l -3,1.82 -3.84,2.27 -5.84,3.44 -1.36,1 c -1.43,0.91 -2.82,1.88 -4.13,2.96 l -0.57,-0.82 -9.17,-13.1 c 1.43,-1.04 2.85,-2.11 4.29,-3.14 1.25,-0.81 2.53,-1.59 3.81,-2.36 0.43,-0.26 0.86,-0.52 1.29,-0.78 l 2.1,3.29 -2.55,1.51 0.07,0.11 v 0 l 4.07,6.23 6.42,-3.9 1.97,-1.19 -9.72,-16.18 v 0 -0.01 l -7.81,4.63 c -1.23,0.67 -2.38,1.45 -3.52,2.27 -0.51,0.32 -1.02,0.65 -1.51,0.99 -0.39,0.28 -0.79,0.55 -1.16,0.86 l -8.01,5.97 v 0 0 l 0.01,0.01 -0.01,0.01 6.85,9.24 -1.13,0.85 -6.38,4.69 -7.14,-8.95 v 0 0 c 0,0 0,0 -0.01,0 l -0.04,-0.05 c -1.2,0.81 -2.31,1.73 -3.39,2.68 -1.2,0.98 -2.36,2.01 -3.51,3.05 -0.35,0.32 -0.7,0.63 -1.04,0.96 l -5.51,5 -3.38,3.08 -3.02,2.75 0.01,0.01 v 0 l 6.87,7.1 6.25,6.46 v 0 l 0.01,0.01 7.28,-6.58 -1.27,-1.42 -3.72,-4.15 v 0 0 l -2.17,1.97 -0.02,0.02 -2.68,-2.92 8.39,-7.57 2.92,3.46 8.03,9.54 -0.52,0.48 -9.51,8.65 -5.9,5.35 -5.35,5.9 -9.12,10.02 v 0 l -10.89,-9.17 -2.11,-1.78 7.58,-8.39 2.92,2.68 -1.99,2.19 v 0 0 l 4.92,4.41 0.65,0.58 6.58,-7.28 -0.01,-0.01 -0.39,-0.37 -13.17,-12.74 v 0 l -0.01,-0.01 v 0 0 l -6.11,6.71 -5,5.51 c -1.34,1.41 -2.63,2.87 -3.86,4.38 -0.91,1.04 -1.78,2.1 -2.56,3.25 l 0.05,0.04 c 0,0 0,0 0,0.01 v 0 0 l 8.95,7.13 -4.74,6.44 -0.8,1.07 -9.24,-6.85 v 0.01 l -0.01,-0.01 -6.22,8.34 c -0.58,0.74 -1.09,1.52 -1.58,2.32 -0.9,1.26 -1.76,2.54 -2.5,3.9 l -4.42,7.46 h 0.01 l 16.18,9.72 5.09,-8.38 -6.23,-4.07 v 0 l -0.11,-0.07 -1.51,2.55 -3.29,-2.1 c 1.03,-1.71 2.06,-3.43 3.14,-5.11 1.03,-1.44 2.09,-2.85 3.14,-4.28 l 3.1,2.17 10.82,7.58 c -1.08,1.31 -2.05,2.7 -2.96,4.13 l -1.01,1.37 -3.44,5.84 -2.27,3.85 -1.81,2.98 0.04,0.02 -0.04,-0.02 c -1.33,2.29 -2.87,4.48 -4.03,6.86 l -5.87,12.21 -15.45,-7.24 4.91,-10.19 3.54,1.85 -1.29,2.67 6.64,3.37 c 1.5,-2.9 2.64,-6 4.48,-8.71 L 272,370.23 c -1.68,2.53 -2.83,5.34 -4.19,8.05 l -3.24,6.7 -4.33,9.01 10.55,4.6 c -1.48,2.75 -2.34,5.76 -3.47,8.66 l -10.71,-4.22 v 0.01 l -0.1,-0.04 -2.73,7.78 -0.74,2.02 -2.55,7 c -0.57,1.37 -0.97,2.79 -1.33,4.22 -0.45,1.34 -0.86,2.69 -1.14,4.08 l 10.68,3.04 7.56,2.16 c 0.36,-1.41 0.71,-2.83 1.1,-4.23 0.59,-1.71 1.26,-3.4 1.81,-5.13 l -7.07,-2.31 v 0 l -0.1,-0.03 -1.02,2.78 -3.67,-1.16 3.49,-9.98 0.25,-0.69 16.03,5.81 -0.65,1.86 c -1.29,3.52 -2.73,6.99 -3.72,10.6 l -0.11,0.31 c -0.86,2.51 -1.32,5.14 -2,7.7 l -0.82,3.38 -1.12,4.35 -1.69,6.56 -0.25,1.67 c -0.36,1.65 -0.66,3.32 -0.83,5.01 l -4.58,-0.81 -12.15,-2.15 c 0.27,-1.73 0.51,-3.47 0.8,-5.2 0.42,-1.97 0.91,-3.92 1.4,-5.88 l 3.81,0.84 -0.74,2.87 0.13,0.03 v 0 l 7.28,1.52 2.33,-9.53 -18.32,-4.57 v 0 h -0.01 l -2.25,8.8 c -0.4,1.34 -0.66,2.71 -0.88,4.09 -0.25,1.05 -0.47,2.11 -0.58,3.2 l -1.44,9.88 h 0.01 v 0.01 l 11.38,1.69 -0.2,1.39 -1.19,7.84 -11.38,-1.29 c 0,0 0,0.01 0,0.01 l -0.06,-0.01 c -0.3,1.51 -0.44,3.03 -0.53,4.55 -0.18,1.92 -0.29,3.86 -0.35,5.79 l -0.36,7.43 -0.4,8.65 h 0.01 v 0 l 18.14,0.3 0.72,0.01 h 0.01 l 0.5,-9.8 -1.82,-0.1 -5.65,-0.31 -0.14,2.96 -3.96,-0.17 0.57,-11.29 6.1,0.52 10.84,0.93 -0.64,13.54 -0.38,7.76 -0.01,0.19 0.01,0.2 0.38,7.76 0.64,13.54 -14.15,1.21 -2.78,0.24 -0.57,-11.29 3.96,-0.17 0.14,2.96 4.91,-0.27 2.56,-0.14 -0.5,-9.8 h -0.01 l -0.64,0.01 -18.22,0.3 v 0 h -0.01 l 0.42,9.06 0.36,7.43 c 0.05,1.87 0.16,3.73 0.35,5.59 0.09,1.46 0.23,2.91 0.52,4.34 l 0.06,-0.01 c 0,0 0,0.01 0,0.01 l 11.38,-1.29 1.2,7.9 0.19,1.33 -11.38,1.69 v 0.01 h -0.01 l 1.5,10.29 c 0.12,0.93 0.31,1.84 0.52,2.75 0.25,1.52 0.55,3.04 0.99,4.53 l 2.15,8.4 h 0.01 v 0 l 18.32,-4.57 -2.33,-9.53 -7.28,1.52 v 0 l -0.13,0.03 0.74,2.87 -3.81,0.84 c -0.48,-1.96 -0.98,-3.91 -1.4,-5.88 -0.29,-1.73 -0.53,-3.46 -0.8,-5.19 l 3.84,-0.68 12.89,-2.28 c 0.16,1.69 0.46,3.36 0.83,5.01 l 0.25,1.68 1.7,6.56 1.11,4.33 0.83,3.39 v 0 c 0.68,2.56 1.13,5.2 2,7.71 l 4.48,12.78 -16.04,5.81 -3.73,-10.68 3.81,-1.2 0.98,2.8 7.07,-2.31 c -0.99,-3.11 -2.37,-6.11 -3,-9.33 l -18.15,5.17 c 0.6,2.97 1.78,5.78 2.73,8.65 l 2.45,7.03 3.31,9.43 10.71,-4.21 c 0.9,2.99 2.42,5.73 3.67,8.57 l -10.56,4.59 v 0.01 l -0.1,0.04 3.57,7.43 0.91,1.96 3.15,6.75 c 0.56,1.37 1.29,2.66 2.05,3.92 0.63,1.27 1.3,2.51 2.08,3.7 l 9.72,-5.41 6.86,-3.81 c -0.75,-1.25 -1.5,-2.5 -2.22,-3.77 -0.79,-1.63 -1.51,-3.3 -2.35,-4.91 l -6.64,3.37 v 0 l -0.09,0.05 1.25,2.69 -3.41,1.78 -4.59,-9.52 -0.31,-0.67 15.44,-7.22 0.86,1.78 c 1.58,3.4 3.02,6.87 4.87,10.13 l 0.14,0.3 c 1.16,2.38 2.7,4.56 4.03,6.86 l 1.8,2.97 2.29,3.87 3.44,5.84 1,1.36 c 0.91,1.43 1.88,2.82 2.96,4.13 l -3.78,2.65 -10.14,7.09 c -1.04,-1.43 -2.11,-2.85 -3.14,-4.29 -1.08,-1.68 -2.11,-3.39 -3.14,-5.1 l 3.29,-2.1 1.51,2.55 0.11,-0.07 6.23,-4.07 -5.09,-8.38 -16.18,9.72 v 0 h -0.01 l 4.63,7.81 c 0.67,1.23 1.45,2.38 2.27,3.52 0.57,0.92 1.16,1.83 1.85,2.67 l 5.97,8.01 0.01,-0.01 v 0.01 l 9.24,-6.85 0.84,1.13 4.69,6.38 -8.95,7.13 c 0,0 0,0 0.01,0.01 l -0.05,0.04 c 0.81,1.2 1.73,2.31 2.68,3.4 1.28,1.56 2.62,3.07 4.01,4.54 l 5,5.51 5.83,6.4 0.01,-0.01 v 0 l 13.1,-12.68 0.46,-0.44 v 0 l 0.01,-0.01 -6.58,-7.28 -1.42,1.27 -4.15,3.72 1.99,2.19 -2.92,2.68 -7.57,-8.39 4.74,-3.99 8.26,-6.96 9.12,10.03 5.23,5.76 0.12,0.13 0.14,0.13 5.76,5.22 10.02,9.12 -9.16,10.88 -1.79,2.12 -8.39,-7.58 2.68,-2.92 2.19,1.99 3.31,-3.69 1.68,-1.88 -7.28,-6.58 -0.01,0.01 -0.09,0.09 -13.03,13.46 v 0 l -0.01,0.01 6.71,6.11 5.51,5 c 1.41,1.34 2.87,2.63 4.38,3.86 1.04,0.91 2.1,1.78 3.25,2.56 l 0.04,-0.05 c 0,0 0,0 0.01,0 l 7.13,-8.95 6.44,4.74 1.07,0.8 -6.85,9.24 h 0.01 l -0.01,0.01 8.34,6.22 c 0.74,0.58 1.52,1.09 2.32,1.58 1.26,0.9 2.54,1.76 3.9,2.5 l 7.46,4.42 v -0.01 l 9.72,-16.18 -8.38,-5.09 -4.07,6.23 v 0 l -0.07,0.11 2.55,1.51 -2.1,3.29 c -1.71,-1.03 -3.43,-2.06 -5.11,-3.14 -1.44,-1.03 -2.85,-2.09 -4.28,-3.14 l 2.25,-3.21 7.5,-10.71 c 1.31,1.08 2.7,2.04 4.13,2.96 l 1.37,1.01 5.84,3.44 3.85,2.27 2.98,1.81 0.02,-0.04 v 0 l -0.02,0.04 c 2.29,1.33 4.48,2.87 6.86,4.03 l 12.21,5.87 -7.24,15.45 -10.19,-4.91 1.85,-3.54 2.67,1.29 3.37,-6.64 c -2.9,-1.5 -6,-2.64 -8.72,-4.48 l -9.18,16.49 c 2.53,1.68 5.34,2.83 8.05,4.19 l 6.7,3.24 9.01,4.33 4.6,-10.55 c 2.75,1.48 5.76,2.34 8.66,3.47 l -4.22,10.71 h 0.01 l -0.04,0.1 7.78,2.73 2.02,0.74 7,2.55 c 1.36,0.57 2.78,0.96 4.21,1.33 1.34,0.45 2.7,0.86 4.09,1.15 l 2.8,-9.85 2.4,-8.4 c -1.42,-0.36 -2.83,-0.71 -4.24,-1.1 -1.71,-0.59 -3.4,-1.26 -5.12,-1.81 l -2.31,7.07 v 0 l -0.03,0.1 2.78,1.02 -1.16,3.67 -9.95,-3.48 -0.72,-0.26 5.81,-16.03 1.91,0.67 c 3.5,1.28 6.95,2.71 10.55,3.7 l 0.33,0.11 c 2.51,0.86 5.14,1.32 7.7,2 l 3.4,0.83 4.33,1.11 6.56,1.69 1.67,0.25 c 1.65,0.36 3.32,0.66 5.02,0.83 l -0.15,0.86 -2.81,15.87 c -1.73,-0.27 -3.47,-0.52 -5.2,-0.8 -1.97,-0.42 -3.92,-0.91 -5.87,-1.4 l 0.84,-3.81 2.87,0.74 0.68,-3.26 0.87,-4.15 -9.53,-2.33 -4.57,18.32 v 0 0.01 l 8.8,2.25 c 1.34,0.4 2.71,0.66 4.09,0.88 1.06,0.25 2.12,0.48 3.2,0.59 l 9.88,1.44 v -0.01 h 0.01 l 1.69,-11.38 1.39,0.2 7.83,1.19 -1.29,11.38 c 0,0 0.01,0 0.01,0 l -0.01,0.06 c 1.5,0.3 3.01,0.44 4.53,0.53 1.93,0.18 3.87,0.29 5.81,0.35 l 7.43,0.36 8.65,0.41 v -0.01 0 l 0.31,-18.87 -9.8,-0.5 -0.01,0.24 -0.4,7.23 2.96,0.14 -0.17,3.96 -11.29,-0.57 0.57,-6.66 0.88,-10.28 13.54,0.64 7.95,0.39 7.96,-0.39 13.54,-0.64 1.38,16.09 0.07,0.84 -11.29,0.58 -0.1,-2.38 -0.07,-1.58 2.96,-0.14 -0.14,-2.5 -0.27,-4.97 -9.8,0.5 v 0.01 0 l 0.1,6.11 0.21,12.75 v 0 0.01 l 9.06,-0.43 7.43,-0.36 c 1.87,-0.05 3.74,-0.16 5.6,-0.35 1.45,-0.09 2.9,-0.23 4.33,-0.52 l -0.01,-0.06 c 0,0 0,0 0.01,0 l -1.29,-11.38 7.88,-1.2 1.35,-0.19 1.69,11.38 h 0.01 v 0.01 l 10.29,-1.5 c 0.93,-0.12 1.85,-0.31 2.76,-0.52 1.52,-0.25 3.03,-0.55 4.52,-0.98 l 8.4,-2.15 -1.03,-4.13 -3.54,-14.19 -9.53,2.33 1.52,7.28 v 0 l 0.03,0.13 2.87,-0.74 0.84,3.81 c -1.96,0.48 -3.91,0.98 -5.88,1.4 -1.73,0.29 -3.46,0.53 -5.19,0.8 l -0.1,-0.58 -2.85,-16.15 c 1.69,-0.16 3.36,-0.46 5.01,-0.83 l 1.68,-0.25 6.56,-1.69 4.31,-1.11 3.41,-0.83 c 2.56,-0.68 5.2,-1.13 7.7,-2 l 12.79,-4.48 5.81,16.04 -10.68,3.73 -1.2,-3.81 2.8,-0.98 -2.31,-7.07 c -3.11,0.99 -6.11,2.37 -9.33,3 l 5.17,18.15 c 2.97,-0.6 5.78,-1.78 8.65,-2.73 l 7.03,-2.45 9.43,-3.31 -4.21,-10.71 c 2.99,-0.9 5.73,-2.42 8.57,-3.67 l 4.59,10.56 h 0.01 l 0.04,0.1 7.42,-3.57 1.97,-0.91 6.75,-3.15 c 1.37,-0.56 2.65,-1.29 3.92,-2.04 1.27,-0.63 2.52,-1.3 3.71,-2.08 l -6.6,-11.87 -2.62,-4.71 c -1.25,0.75 -2.5,1.5 -3.77,2.22 -1.63,0.79 -3.29,1.51 -4.9,2.34 l 3.37,6.64 v 0 l 0.05,0.09 2.69,-1.25 1.78,3.41 -9.47,4.56 -0.72,0.34 -7.22,-15.44 1.84,-0.88 c 3.38,-1.56 6.82,-2.99 10.05,-4.83 l 0.31,-0.15 c 2.38,-1.16 4.56,-2.7 6.86,-4.03 l 3.03,-1.84 3.81,-2.25 5.84,-3.44 1.36,-1 c 1.43,-0.91 2.82,-1.88 4.13,-2.96 l 3.68,5.26 6.06,8.66 c -1.43,1.04 -2.85,2.11 -4.29,3.14 -1.67,1.08 -3.39,2.1 -5.09,3.14 l -2.1,-3.29 2.55,-1.51 -0.07,-0.11 v 0 l -4.07,-6.23 -8.38,5.09 9.72,16.18 v 0 0.01 l 7.81,-4.63 c 1.23,-0.66 2.38,-1.45 3.51,-2.27 0.92,-0.57 1.83,-1.16 2.68,-1.85 l 8.01,-5.97 -0.01,-0.01 0.01,-0.01 -6.85,-9.24 1.13,-0.84 6.38,-4.7 7.13,8.95 c 0,0 0,0 0.01,0 l 0.04,0.05 c 1.19,-0.8 2.3,-1.72 3.37,-2.66 1.57,-1.29 3.09,-2.64 4.57,-4.03 l 5.51,-5 6.4,-5.83 -0.01,-0.01 v 0 l -13.13,-13.57 -7.28,6.58 1.34,1.5 3.65,4.07 2.19,-1.99 2.68,2.92 -8.39,7.57 -2.61,-3.1 -8.34,-9.9 10.03,-9.12 5.9,-5.35 5.35,-5.9 9.12,-10.03 10.57,8.9 2.43,2.05 -7.58,8.39 -2.92,-2.68 1.99,-2.19 -1.91,-1.72 -3.65,-3.28 -6.58,7.28 0.01,0.01 2.11,2.04 11.45,11.08 v 0 l 0.01,0.01 6.11,-6.71 5,-5.51 c 1.35,-1.42 2.64,-2.89 3.87,-4.4 0.9,-1.03 1.77,-2.09 2.54,-3.23 l -0.05,-0.04 c 0,0 0,0 0,-0.01 l -8.95,-7.14 4.69,-6.37 0.85,-1.14 9.24,6.85 v -0.01 l 0.01,0.01 6.22,-8.34 c 0.58,-0.74 1.09,-1.53 1.59,-2.33 0.9,-1.25 1.76,-2.53 2.49,-3.89 l 4.42,-7.46 -1.43,-0.86 -14.76,-8.87 -5.12,8.45 6.23,4.08 v 0 l 0.11,0.07 1.51,-2.55 3.29,2.1 c -1.03,1.71 -2.06,3.42 -3.14,5.1 -1.03,1.44 -2.1,2.86 -3.14,4.29 l -3.69,-2.58 -10.24,-7.16 c 1.08,-1.31 2.05,-2.71 2.96,-4.13 l 1,-1.36 3.44,-5.84 2.24,-3.79 1.85,-3.04 c 1.33,-2.29 2.87,-4.48 4.03,-6.86 l 0.15,-0.3 c 1.84,-3.23 3.27,-6.68 4.84,-10.05 l 0.89,-1.84 14.1,6.6 1.34,0.63 -0.34,0.72 -4.56,9.47 -3.41,-1.78 1.25,-2.69 -1.74,-0.88 -4.99,-2.53 c -0.83,1.6 -1.55,3.27 -2.34,4.89 -0.72,1.27 -1.48,2.52 -2.22,3.78 l 0.65,0.36 15.93,8.87 c 0.8,-1.21 1.48,-2.49 2.12,-3.78 0.8,-1.36 1.57,-2.75 2.18,-4.21 l 3.14,-6.75 0.72,-1.55 3.58,-7.46 -0.1,-0.04 v -0.01 l -10.45,-4.55 c 0.74,-1.38 1.32,-2.82 1.87,-4.27 0.65,-1.41 1.25,-2.85 1.7,-4.34 l 10.61,4.18 v -0.01 l 0.1,0.04 v 0 0 l 2.73,-7.77 0.74,-2.03 2.55,-7 c 0.57,-1.37 0.97,-2.78 1.33,-4.21 0.45,-1.34 0.86,-2.7 1.15,-4.09 l -13.08,-3.73 -5.17,-1.47 c -0.36,1.41 -0.71,2.83 -1.09,4.23 -0.59,1.71 -1.26,3.4 -1.81,5.13 l 7.07,2.31 v 0 0 0 l 0.1,0.03 1.02,-2.78 3.67,1.16 -3.48,9.97 -0.26,0.7 -16.03,-5.81 0.67,-1.92 c 1.28,-3.49 2.71,-6.94 3.69,-10.53 l 0.12,-0.33 c 0.86,-2.51 1.32,-5.14 2,-7.7 l 0.84,-3.46 1.1,-4.27 1.69,-6.56 0.25,-1.67 c 0.36,-1.66 0.67,-3.32 0.83,-5.02 l 6.02,1.06 10.71,1.89 c -0.27,1.73 -0.51,3.47 -0.8,5.2 -0.42,1.97 -0.91,3.92 -1.4,5.87 l -3.81,-0.84 0.74,-2.87 -0.13,-0.03 v 0 l -7.28,-1.52 -0.38,1.53 -1.95,7.99 17.58,4.38 0.73,0.18 v 0 h 0.01 l 2.25,-8.8 c 0.4,-1.34 0.66,-2.71 0.88,-4.09 0.25,-1.06 0.48,-2.12 0.59,-3.2 l 1.44,-9.88 v 0 0 h -0.01 v -0.01 l -11.38,-1.69 0.2,-1.39 1.19,-7.83 11.38,1.29 c 0,0 0,0 0,-0.01 l 0.06,0.01 c 0.29,-1.5 0.44,-3.01 0.53,-4.53 0.18,-1.93 0.29,-3.87 0.35,-5.82 l 0.36,-7.43 z m -528.24,-33.4 1.11,-7.7 0.19,-1.27 2.61,0.39 7.82,1.17 c -0.42,2.85 -0.79,5.73 -1.11,8.61 z m 2.82,66.45 -1.51,0.22 -0.19,-1.27 -1.11,-7.7 10.64,-1.2 c 0.32,2.89 0.7,5.76 1.12,8.61 z m 9.69,27.09 -0.04,0.01 z m 3.61,-158.26 c 1.09,-2.82 1.92,-5.74 3.36,-8.41 l 9.87,4.3 c -1.15,2.64 -2.27,5.31 -3.33,8 z m 3.46,195.51 c -1.22,-2.76 -2.7,-5.42 -3.57,-8.32 l 10.02,-3.94 c 1.06,2.69 2.18,5.35 3.33,8 z m 34.37,57.16 -4.66,-6.24 -0.76,-1.03 2.07,-1.53 6.44,-4.77 c 1.72,2.33 3.47,4.63 5.28,6.89 z m 3.07,-304.63 -7.23,-5.35 -1.26,-0.94 0.76,-1.04 4.66,-6.23 8.37,6.68 c -1.81,2.26 -3.57,4.55 -5.3,6.88 z m 43.96,-59.02 1.04,-0.76 1.51,2.04 4.78,6.46 c -2.33,1.72 -4.62,3.49 -6.88,5.29 l -6.68,-8.37 z m 1.92,408.69 -0.88,1.18 -1.04,-0.76 -6.23,-4.66 6.67,-8.36 c 2.26,1.8 4.57,3.56 6.89,5.28 z m 53.11,-440.31 c 1.42,-0.52 2.85,-1.01 4.26,-1.55 l 3.89,9.9 c -2.69,1.06 -5.35,2.18 -8,3.33 l -4.26,-9.77 c 1.39,-0.61 2.74,-1.28 4.11,-1.91 z m 4.27,473.9 c -2.82,-1.09 -5.74,-1.92 -8.41,-3.36 l 4.3,-9.87 c 2.64,1.15 5.31,2.27 8,3.33 z m 28.89,-479.06 -0.01,-0.04 z m 35.83,495.18 -7.62,-1.1 -1.35,-0.21 0.74,-4.95 0.82,-5.49 c 2.85,0.42 5.73,0.79 8.61,1.12 z m -7.42,-495.95 -1.42,-9.55 -0.13,-0.88 1.33,-0.2 7.64,-1.1 1.2,10.63 c -2.89,0.31 -5.77,0.67 -8.62,1.1 z m 65.12,-11.75 7.71,1.11 1.27,0.19 -1.55,10.44 c -2.85,-0.42 -5.73,-0.79 -8.61,-1.11 z m 7.62,506.6 -7.62,1.1 -1.2,-10.63 c 2.89,-0.32 5.76,-0.69 8.61,-1.11 l 1.55,10.44 z m 57.1,-490.48 c 1.41,0.54 2.84,1.02 4.25,1.55 1.37,0.63 2.73,1.31 4.11,1.92 l -4.26,9.77 c -2.64,-1.15 -5.31,-2.27 -8,-3.33 z m 0.04,475.57 -3.93,-10 c 2.69,-1.06 5.35,-2.18 8,-3.33 l 4.26,9.77 c -2.77,1.21 -5.42,2.69 -8.33,3.56 z m 58.22,-443.16 1.15,0.85 6.12,4.57 -6.68,8.37 c -2.26,-1.8 -4.56,-3.57 -6.88,-5.29 z m 1.09,409.84 -1.1,0.81 -1.34,-1.81 -4.95,-6.69 c 2.33,-1.72 4.62,-3.49 6.88,-5.29 l 6.68,8.37 z m 52.4,-52.69 -0.84,1.15 -4.57,6.12 -8.37,-6.68 c 1.8,-2.26 3.57,-4.56 5.29,-6.88 z M 715.4,353.13 708.83,358 c -1.72,-2.33 -3.49,-4.62 -5.29,-6.88 l 8.37,-6.68 4.65,6.22 0.77,1.05 z m 30.86,48.47 c 0.61,1.38 1.28,2.73 1.91,4.1 0.52,1.42 1.01,2.85 1.55,4.26 l -9.9,3.89 c -1.06,-2.69 -2.18,-5.35 -3.33,-8 z m 3.47,195.51 c -0.54,1.41 -1.02,2.84 -1.55,4.25 -0.63,1.37 -1.31,2.73 -1.92,4.11 l -9.77,-4.26 c 1.15,-2.64 2.27,-5.31 3.33,-8 z m 14.81,-131.4 0.22,1.41 1.09,7.56 -10.63,1.2 c -0.32,-2.89 -0.69,-5.76 -1.11,-8.61 z m 0.2,74.36 -0.2,1.29 -2.25,-0.33 -8.19,-1.22 c 0.42,-2.85 0.79,-5.73 1.11,-8.61 l 10.63,1.19 z"
   id="path82"
   style="fill:#000000;fill-opacity:1" />
	<path
   class="st0"
   d="m 624.41,641.02 c -0.67,0 -1.27,-0.47 -1.41,-1.16 -1.57,-8.04 -5.03,-14.51 -10,-18.7 -16.98,-14.34 -40.43,-7.42 -40.67,-7.35 -0.55,0.17 -1.14,-0.01 -1.51,-0.44 -0.37,-0.43 -0.45,-1.05 -0.2,-1.56 1.49,-3.04 1.7,-5.77 0.62,-8.09 -1.7,-3.64 -6.13,-5.66 -8.51,-6.51 -0.89,3.89 -4.21,6.59 -4.37,6.72 -0.39,0.31 -0.92,0.4 -1.39,0.23 -0.47,-0.17 -0.82,-0.58 -0.91,-1.08 -0.01,-0.03 -0.73,-3.51 -3.39,-4.6 -2.73,-1.12 -2.61,-3.07 -2.52,-4.5 0.07,-1.23 0.16,-2.63 -0.99,-4.6 -2.34,-4 -7.36,-3.75 -7.57,-3.74 -0.48,0.03 -0.94,-0.18 -1.23,-0.56 -0.29,-0.38 -0.37,-0.88 -0.22,-1.33 0.02,-0.05 1.71,-5.16 -0.96,-8.32 -2.27,-2.7 -1.73,-4.76 -1.33,-6.27 0.29,-1.12 0.41,-1.69 -0.11,-2.56 -1.34,-2.22 -6.1,-1.26 -6.15,-1.25 -0.51,0.11 -1.05,-0.07 -1.39,-0.47 -0.34,-0.4 -0.44,-0.96 -0.25,-1.45 0.09,-0.24 2.28,-5.82 5.72,-9.96 2.88,-3.45 1.88,-10.47 1.87,-10.54 -0.07,-0.45 0.08,-0.9 0.4,-1.22 0.32,-0.32 0.76,-0.47 1.21,-0.41 0.02,0 2.61,0.3 4.32,-1.19 1.06,-0.92 1.61,-2.41 1.63,-4.41 0.1,-7.39 -3.64,-12.73 -3.68,-12.78 -0.3,-0.42 -0.35,-0.96 -0.14,-1.43 0.21,-0.47 0.65,-0.79 1.16,-0.84 20.47,-2.04 39.98,-2.69 57.98,-1.94 0.79,0.03 1.41,0.7 1.37,1.49 -0.03,0.79 -0.7,1.39 -1.49,1.37 -17.21,-0.71 -35.81,-0.14 -55.34,1.71 1.27,2.44 3.07,6.89 3,12.44 -0.04,2.87 -0.93,5.07 -2.64,6.55 -1.55,1.34 -3.44,1.76 -4.8,1.86 0.16,2.65 0.06,7.87 -2.67,11.15 -1.88,2.25 -3.37,5.06 -4.28,6.96 2.17,-0.05 5.14,0.42 6.6,2.85 1.17,1.94 0.74,3.57 0.43,4.77 -0.34,1.29 -0.56,2.13 0.75,3.69 2.55,3.03 2.34,6.99 1.92,9.28 2.3,0.27 6.12,1.29 8.33,5.08 1.59,2.73 1.46,4.83 1.38,6.22 -0.08,1.33 -0.08,1.33 0.75,1.67 2.26,0.93 3.57,2.81 4.3,4.34 0.96,-1.17 2.02,-2.9 2.02,-4.83 0,-0.44 0.2,-0.86 0.55,-1.13 0.35,-0.27 0.8,-0.37 1.23,-0.27 0.37,0.09 9.03,2.26 11.98,8.57 1.13,2.41 1.27,5.05 0.43,7.88 7.01,-1.5 25.77,-3.92 40.59,8.59 5.48,4.62 9.27,11.66 10.96,20.35 0.15,0.78 -0.36,1.53 -1.13,1.68 -0.06,0.03 -0.16,0.04 -0.25,0.04 z"
   id="path84" />
	<path
   class="st0"
   d="m 305.3,522.39 c -0.64,0 -1.23,-0.43 -1.39,-1.08 -2.92,-11.59 -4.35,-22.56 -4.27,-32.62 0.01,-0.79 0.65,-1.42 1.43,-1.42 0,0 0.01,0 0.01,0 0.79,0.01 1.43,0.65 1.42,1.45 -0.09,9.81 1.32,20.55 4.18,31.9 0.19,0.77 -0.27,1.55 -1.04,1.74 -0.1,0.01 -0.22,0.03 -0.34,0.03 z"
   id="path86" />
	<path
   class="st0"
   d="m 452.65,620.23 c -0.02,0 -0.05,0 -0.07,0 -0.56,-0.03 -56.05,-3.22 -99.4,-31.61 -0.66,-0.43 -0.85,-1.32 -0.41,-1.99 0.43,-0.66 1.32,-0.85 1.99,-0.41 38.73,25.36 87.37,30.31 96.47,31.03 0.25,-5.31 2.77,-13.56 11.24,-15 0.71,-0.12 1.41,0.31 1.61,1 0.16,0.54 0.55,1.49 1.12,2.4 -0.28,-3.18 0.56,-7.07 4.33,-10.17 -0.59,-3.04 -1.88,-12.63 3.99,-17.35 2.76,-2.22 4.85,-3.36 6.45,-3.49 0.19,-2.02 0.9,-4.85 3.31,-5.75 0.18,-0.07 0.23,-0.12 0.23,-0.12 0.08,-0.25 -0.25,-1.29 -0.44,-1.91 -0.39,-1.24 -0.88,-2.78 -0.71,-4.4 0.3,-2.89 3.77,-6.17 5.73,-7.8 -2.1,-2.32 -6.31,-7.41 -6.15,-10.94 l 0.14,-3.12 c -1.88,-1.33 -6.64,-5.28 -6.05,-10.77 0.21,-1.99 0.5,-3.65 0.85,-4.92 -11.19,0.73 -58.24,1.68 -69.88,-32.57 -5.29,-15.58 -1.71,-26.28 2.23,-32.51 3.08,-4.87 6.79,-7.8 8.73,-9.12 -2.77,-3.91 -13.58,-16.1 -38.15,-11.94 -25.1,4.26 -37.42,-8.14 -40.39,-11.7 -3.13,1.29 -13.48,6.17 -22.35,17.19 -0.5,0.62 -1.4,0.71 -2.02,0.22 -0.62,-0.5 -0.72,-1.4 -0.22,-2.02 11.09,-13.77 24.05,-18.29 24.6,-18.47 0.6,-0.21 1.27,0.01 1.64,0.54 0.03,0.04 2.89,4.04 9,7.43 5.64,3.13 15.29,6.35 29.26,3.98 30.58,-5.19 41.76,14.32 41.87,14.51 0.18,0.33 0.23,0.73 0.12,1.1 -0.11,0.37 -0.36,0.68 -0.69,0.86 -0.83,0.45 -20.29,11.43 -10.92,39 12.42,36.56 68.66,30.51 69.23,30.44 0.63,-0.08 1.23,0.28 1.48,0.86 0.23,0.53 0.12,1.13 -0.27,1.54 -0.11,0.17 -0.8,1.4 -1.28,5.88 -0.52,4.85 5.35,8.46 5.41,8.49 0.45,0.27 0.72,0.77 0.69,1.29 l -0.18,3.93 c -0.11,2.4 3.88,7.38 6.41,9.95 0.29,0.3 0.44,0.7 0.41,1.12 -0.03,0.41 -0.24,0.79 -0.57,1.04 -2.31,1.72 -5.65,4.97 -5.84,6.8 -0.11,1.02 0.25,2.15 0.59,3.23 0.53,1.68 1.42,4.49 -1.52,5.59 -1.32,0.5 -1.58,3.63 -1.5,4.98 0.04,0.73 -0.47,1.38 -1.19,1.5 -0.55,0.09 -1.08,-0.14 -1.4,-0.56 -0.41,0.03 -1.78,0.36 -4.88,2.86 -5.45,4.39 -2.83,15.24 -2.8,15.35 0.14,0.57 -0.08,1.17 -0.55,1.51 -6.34,4.57 -3.15,11.18 -3.01,11.45 0.24,0.49 0.19,1.07 -0.14,1.5 -0.33,0.43 -0.87,0.65 -1.4,0.55 -3.07,-0.55 -4.83,-3.63 -5.6,-5.41 -8.1,2.31 -7.73,13.27 -7.72,13.39 0.02,0.4 -0.14,0.8 -0.42,1.08 -0.27,0.31 -0.64,0.46 -1.01,0.46 z m 27.31,-43.17 c 0,0 0,0 0,0 0,0 0,0 0,0 z m 0.06,-52.67 c 0,0 -0.01,0 0,0 -0.01,0 0,0 0,0 z m 0,-0.01 c 0,0 0,0.01 0,0 0,0.01 0,0 0,0 z m 0,0 c 0,0 0,0 0,0 0,0 0,0 0,0 z"
   id="path88" />
	<g
   id="g106">
		<path
   class="st0"
   d="m 396.88,356.02 c -2.28,-1.55 -5.34,-2.2 -9.07,-1.95 -0.39,0.03 -0.74,0.21 -0.99,0.51 -0.25,0.3 -0.37,0.69 -0.33,1.07 0.08,0.78 0.75,1.34 1.54,1.28 3.42,-0.23 6.05,0.39 7.81,1.87 1.94,1.63 2.15,3.79 2.15,3.82 0.4,4.27 -2.18,6.49 -4.29,7.59 -0.01,-0.14 -0.02,-0.28 -0.04,-0.42 -0.37,-3.13 -2.02,-5.92 -4.52,-7.67 -2.35,-1.64 -5.19,-2.18 -8.02,-1.51 -0.33,0.08 -0.68,0.05 -1.03,-0.09 -2.24,-0.88 -6.9,-1.98 -12.9,0.57 -4.06,1.73 -5.52,4.53 -6.03,6.57 -0.82,3.25 0.21,6.77 1.64,8.56 1.78,2.22 5.34,3.67 8.51,3.44 2.68,-0.2 4.79,-1.49 6.1,-3.74 1.83,-3.15 0.62,-6.09 -1.4,-7.62 -1.71,-1.29 -4.46,-1.82 -6.74,-0.09 -0.33,0.26 -0.54,0.65 -0.56,1.06 -0.02,0.42 0.14,0.83 0.44,1.12 0.51,0.49 1.31,0.53 1.86,0.1 1.16,-0.88 2.49,-0.5 3.27,0.09 0.34,0.26 1.96,1.64 0.65,3.89 -1.03,1.76 -2.65,2.24 -3.83,2.32 -2.46,0.18 -5.01,-1.06 -6.06,-2.37 -0.81,-1 -1.71,-3.63 -1.1,-6.06 0.52,-2.06 1.99,-3.62 4.37,-4.63 5.24,-2.24 9.25,-1.12 10.73,-0.54 0.9,0.35 1.85,0.42 2.74,0.21 2,-0.48 4.03,-0.1 5.71,1.07 1.83,1.28 3.04,3.34 3.31,5.65 0.51,4.37 -3.33,6.63 -3.78,6.88 l -0.39,0.2 c -0.24,0.13 -0.39,0.38 -0.39,0.66 l 0.01,0.45 c 0.01,0.42 0.21,10.27 -10.74,12.03 -9.59,1.55 -13.13,-4.05 -13.99,-5.81 -0.25,-0.52 -0.72,-0.87 -1.28,-0.98 -0.63,-0.13 -1.18,0.02 -1.61,0.39 -1.85,1.56 -5.63,1.88 -8.98,0.78 -4.53,-1.5 -7.44,-5.2 -8,-10.16 -0.68,-6.1 2.55,-10.22 9.6,-12.26 3.41,-1.01 6.25,-3.4 7.88,-6.58 1.83,-3.58 6.13,-8.42 16.21,-11.17 13.44,-3.7 21.85,-0.34 24.84,1.27 1.74,0.94 3.49,1.65 5.23,2.17 -0.64,-1.2 -1.16,-2.41 -1.57,-3.6 -0.77,-0.32 -1.53,-0.68 -2.3,-1.09 -4.09,-2.21 -13.04,-5.35 -26.96,-1.52 l -0.88,0.25 c -10.51,3.1 -15.12,8.44 -17.13,12.37 -1.28,2.51 -3.51,4.38 -6.12,5.14 0,0 -0.19,0.05 -0.19,0.05 -8.22,2.43 -12.3,7.86 -11.47,15.28 0.68,6.12 4.31,10.7 9.95,12.56 3.71,1.22 7.73,1.04 10.51,-0.48 0.16,-0.09 0.34,-0.05 0.44,0.1 1.96,2.94 6.67,7.66 16.26,6.11 7.02,-1.13 10.23,-5.14 11.68,-8.31 1.11,-2.4 1.38,-4.65 1.45,-5.8 1.19,-0.82 3.36,-2.65 4.23,-5.58 2.01,-0.75 8.19,-3.67 7.5,-11.09 v 0 c -0.03,-0.3 -0.12,-0.98 -0.44,-1.87 -0.07,-0.19 -0.04,-0.39 0.09,-0.54 0.07,-0.08 0.22,-0.21 0.46,-0.18 4.2,0.58 10.13,0.73 16.3,-1.25 -1.35,-0.52 -2.67,-1.13 -3.91,-1.86 -8.3,1.77 -15.41,-0.34 -16.43,-0.66 z"
   id="path90" />
		<path
   class="st0"
   d="m 407.29,329.78 c 0.02,-0.15 0.03,-0.29 0.06,-0.44 0.2,-0.97 0.09,-2 -0.3,-2.95 -0.65,-1.63 -2.36,-7.26 3.08,-11.22 1.82,-1.32 3.78,-1.68 5.53,-1.64 -0.07,-0.91 -0.13,-1.79 -0.19,-2.65 -2.14,-0.02 -4.55,0.48 -6.88,2.18 -7.22,5.23 -4.58,12.85 -3.97,14.33 0.19,0.49 0.24,1 0.14,1.46 -0.17,0.9 -0.23,1.79 -0.24,2.66 0.73,-0.88 1.69,-1.46 2.77,-1.73 z"
   id="path92" />
		<path
   class="st0"
   d="m 501.39,298.83 c -1.3,-0.9 -5.71,-3.42 -13.85,-3.42 -1.64,0 -3.43,0.1 -5.39,0.34 l -0.42,0.05 c -10.02,1.3 -12.88,4.13 -15.9,7.13 l -0.22,0.22 c -0.63,0.63 -1.29,1.27 -2.03,1.9 -3.43,2.91 -5.16,4.12 -10.5,2.33 -2.9,-0.97 -9.67,-2.89 -16.55,-2.47 -0.03,0.85 -0.05,1.72 -0.08,2.62 6.47,-0.46 13.03,1.42 15.79,2.34 2.01,0.67 3.64,0.98 5.07,0.98 3.04,0 5.16,-1.42 7.97,-3.8 0.94,-0.81 1.75,-1.61 2.4,-2.26 2.9,-2.88 5.34,-5.3 14.8,-6.45 4.55,-0.55 8.14,-0.32 10.87,0.2 -5.23,0.01 -12.12,1.35 -17.14,7.22 l -1.34,1.57 c -7.92,9.29 -9.8,11.5 -22.92,8.59 -0.01,0 -0.02,0 -0.03,-0.01 -0.7,-0.23 -1.84,-0.35 -3.47,-0.36 -0.02,0 -0.04,0 -0.06,0 -3.61,0 -9.72,0.94 -10.59,7.18 -0.53,3.78 1.15,5.46 2.2,6.12 1.73,1.09 4.14,1 6,-0.23 0.36,-0.24 0.68,-0.5 0.96,-0.81 0.2,-0.21 0.48,-0.3 0.74,-0.25 0.13,0.03 0.36,0.11 0.47,0.41 0.24,0.63 0.4,1.28 0.49,1.94 0.33,2.63 -0.65,5.13 -2.91,7.43 -1.38,1.4 -2.92,2.34 -4.59,2.82 0.38,0.82 0.79,1.61 1.21,2.39 1.92,-0.64 3.67,-1.75 5.25,-3.35 5.65,-5.74 3.51,-11.48 2.33,-13.68 0,0 -1.59,-3.21 -3.18,-2.98 -0.64,0.11 -1.1,0.61 -1.16,1.19 -0.01,0.1 -0.02,0.21 0,0.33 0.16,0.95 -0.23,1.81 -1.08,2.36 -0.98,0.65 -2.3,0.73 -3.14,0.2 -0.88,-0.55 -1.24,-1.79 -1.01,-3.52 0.22,-1.58 0.99,-2.8 2.28,-3.62 3,-1.87 7.96,-1.2 8.52,-1.04 0.04,0.02 0.16,0.05 0.27,0.06 14.58,3.24 17.31,0.04 25.41,-9.47 l 1.32,-1.57 c 0.24,-0.28 0.5,-0.56 0.76,-0.83 4.05,-4.19 8.43,-4.78 8.48,-4.78 5.13,-1.27 10.09,-0.5 12.6,0.06 0,0 0,0 0.01,0 0.8,0.17 1.61,-0.23 1.96,-0.99 0.35,-0.75 0.08,-1.64 -0.6,-2.09 z"
   id="path94" />
		<path
   class="st0"
   d="m 575.34,329.94 c 0.08,-0.66 0.25,-1.31 0.49,-1.94 0.11,-0.3 0.34,-0.38 0.47,-0.41 0.26,-0.05 0.55,0.04 0.74,0.25 0.28,0.31 0.6,0.57 0.96,0.81 1.86,1.23 4.27,1.32 6,0.23 0.5,-0.31 1.14,-0.87 1.62,-1.76 0.22,-1.63 0.38,-3.19 0.51,-4.72 -1.06,-5.9 -6.98,-6.82 -10.52,-6.82 -0.02,0 -0.04,0 -0.06,0 -1.63,0.01 -2.77,0.13 -3.47,0.36 -0.01,0 -0.02,0 -0.03,0.01 -7.43,1.64 -11.26,1.65 -14.61,-0.34 -0.02,0.09 -0.03,0.18 -0.05,0.27 -0.15,0.84 -0.29,1.67 -0.41,2.49 3.59,1.78 7.96,1.85 15.55,0.17 0.12,-0.01 0.23,-0.04 0.27,-0.06 0.56,-0.16 5.52,-0.82 8.52,1.04 1.3,0.82 2.06,2.04 2.28,3.62 0.23,1.72 -0.12,2.97 -1.01,3.52 -0.84,0.53 -2.16,0.45 -3.14,-0.2 -0.84,-0.55 -1.24,-1.4 -1.08,-2.36 0.02,-0.12 0.01,-0.23 0,-0.33 -0.06,-0.58 -0.52,-1.08 -1.16,-1.19 -1.58,-0.23 -3.18,2.98 -3.18,2.98 -1.18,2.2 -3.32,7.94 2.33,13.68 1.45,1.47 3.05,2.52 4.79,3.18 0.37,-0.79 0.71,-1.61 1.04,-2.42 -1.43,-0.52 -2.75,-1.39 -3.96,-2.61 -2.24,-2.31 -3.22,-4.81 -2.89,-7.45 z"
   id="path96" />
		<path
   class="st0"
   d="m 613.87,315.17 c 5.44,3.96 3.73,9.59 3.08,11.22 -0.39,0.96 -0.49,1.98 -0.3,2.95 0.06,0.29 0.08,0.57 0.11,0.86 1.14,0.57 2.06,1.54 2.62,2.86 0.01,0.02 0.01,0.04 0.02,0.06 0.16,-1.38 0.12,-2.81 -0.16,-4.28 -0.09,-0.46 -0.04,-0.98 0.14,-1.46 0.6,-1.48 3.25,-9.1 -3.97,-14.33 -2.72,-1.98 -5.56,-2.33 -7.93,-2.13 -0.06,0.87 -0.12,1.77 -0.19,2.68 1.99,-0.23 4.38,-0.02 6.58,1.57 z"
   id="path98" />
		<path
   class="st0"
   d="m 673.72,359.58 c 0,0 -0.19,-0.05 -0.19,-0.05 -2.61,-0.76 -4.84,-2.63 -6.12,-5.14 -2.01,-3.93 -6.61,-9.27 -17.13,-12.37 l -0.88,-0.25 c -13.92,-3.83 -22.86,-0.69 -26.96,1.52 -1.17,0.64 -2.35,1.15 -3.52,1.56 -0.42,1.15 -0.95,2.32 -1.6,3.48 2.15,-0.52 4.32,-1.35 6.47,-2.52 2.99,-1.61 11.4,-4.97 24.84,-1.27 10.08,2.75 14.38,7.59 16.21,11.17 1.63,3.19 4.47,5.58 7.88,6.58 7.05,2.04 10.28,6.17 9.6,12.26 -0.55,4.95 -3.47,8.66 -8,10.16 -3.35,1.11 -7.13,0.78 -8.98,-0.78 -0.43,-0.37 -0.98,-0.52 -1.61,-0.39 -0.56,0.11 -1.03,0.47 -1.28,0.98 -0.86,1.75 -4.4,7.35 -13.99,5.81 -10.96,-1.76 -10.76,-11.61 -10.74,-12.03 l 0.01,-0.45 c 0.01,-0.27 -0.14,-0.53 -0.39,-0.66 l -0.39,-0.2 c -0.44,-0.24 -4.29,-2.51 -3.78,-6.88 0.27,-2.31 1.48,-4.37 3.31,-5.65 1.68,-1.17 3.71,-1.55 5.71,-1.07 0.9,0.21 1.84,0.14 2.74,-0.21 1.48,-0.58 5.49,-1.7 10.73,0.54 2.38,1.01 3.85,2.57 4.37,4.63 0.61,2.44 -0.29,5.06 -1.1,6.06 -1.05,1.31 -3.6,2.55 -6.06,2.37 -1.18,-0.09 -2.8,-0.56 -3.83,-2.32 -1.31,-2.25 0.31,-3.64 0.65,-3.89 0.78,-0.59 2.11,-0.97 3.27,-0.09 0.55,0.43 1.35,0.38 1.86,-0.1 0.3,-0.29 0.46,-0.7 0.44,-1.12 -0.02,-0.42 -0.23,-0.8 -0.56,-1.06 -2.28,-1.73 -5.03,-1.2 -6.74,0.09 -2.01,1.52 -3.23,4.47 -1.4,7.62 1.31,2.25 3.42,3.54 6.1,3.74 3.17,0.23 6.73,-1.21 8.51,-3.44 1.43,-1.79 2.46,-5.3 1.64,-8.56 -0.51,-2.04 -1.97,-4.84 -6.03,-6.57 -6,-2.55 -10.66,-1.45 -12.9,-0.57 -0.35,0.13 -0.7,0.17 -1.03,0.09 -2.82,-0.67 -5.67,-0.13 -8.02,1.51 -2.51,1.75 -4.15,4.54 -4.52,7.67 -0.02,0.14 -0.03,0.28 -0.04,0.42 -2.11,-1.09 -4.69,-3.31 -4.29,-7.59 0,-0.02 0.22,-2.19 2.15,-3.82 1.76,-1.48 4.39,-2.1 7.81,-1.87 0.79,0.06 1.46,-0.51 1.54,-1.28 0.04,-0.38 -0.08,-0.77 -0.33,-1.07 -0.25,-0.3 -0.6,-0.48 -0.99,-0.51 -3.73,-0.25 -6.79,0.4 -9.07,1.95 -1.05,0.34 -8.57,2.56 -17.22,0.47 -1.18,0.72 -2.43,1.33 -3.72,1.85 6.37,2.19 12.54,2.04 16.88,1.44 0.24,-0.03 0.39,0.1 0.46,0.18 0.12,0.15 0.15,0.35 0.09,0.54 -0.32,0.9 -0.42,1.58 -0.44,1.87 v 0 c -0.69,7.41 5.49,10.34 7.5,11.09 0.87,2.94 3.04,4.77 4.23,5.58 0.07,1.14 0.34,3.4 1.45,5.8 1.46,3.17 4.67,7.18 11.68,8.31 9.59,1.55 14.31,-3.16 16.26,-6.11 0.1,-0.15 0.28,-0.19 0.44,-0.1 2.78,1.52 6.81,1.71 10.51,0.48 5.64,-1.86 9.27,-6.44 9.95,-12.56 0.86,-7.41 -3.22,-12.84 -11.44,-15.27 z"
   id="path100" />
		<path
   class="st0"
   d="m 534.39,298.81 c -1.3,-0.17 -2.57,-0.25 -3.74,-0.25 1.16,-0.22 2.48,-0.38 3.96,-0.46 0.25,-0.87 0.42,-1.76 0.46,-2.66 -7.26,0.26 -11.24,2.55 -12.47,3.39 -0.68,0.45 -0.95,1.34 -0.62,2.13 0.35,0.76 1.16,1.16 1.96,0.99 0,0 0,0 0.01,0 1.94,-0.44 5.34,-0.98 9.15,-0.63 0.31,-0.49 0.6,-0.98 0.85,-1.5 0.17,-0.33 0.31,-0.66 0.44,-1.01 z"
   id="path102" />
		<path
   class="st0"
   d="m 558.72,307.07 c 2.81,2.38 4.93,3.8 7.97,3.8 1.43,0 3.06,-0.31 5.07,-0.98 2.61,-0.88 8.62,-2.6 14.74,-2.4 -0.02,-0.9 -0.05,-1.77 -0.08,-2.62 -6.51,-0.19 -12.75,1.59 -15.5,2.51 -5.34,1.79 -7.07,0.58 -10.5,-2.33 -0.74,-0.62 -1.4,-1.27 -2.03,-1.9 l -0.22,-0.22 c -0.27,-0.27 -0.54,-0.53 -0.81,-0.79 0.38,1.43 0.63,2.9 0.76,4.38 0.2,0.19 0.38,0.37 0.6,0.55 z"
   id="path104" />
	</g>
	<g
   id="g120">
		<g
   id="g112">
			<path
   class="st0"
   d="m 463.42,563.52 c -12.19,-1.48 -15.34,-4.6 -19.09,-8.31 -0.84,-0.84 -1.89,-1.88 -3.1,-2.92 -3.62,-3.07 -6.35,-4.89 -10.28,-4.89 -1.84,0 -3.95,0.4 -6.54,1.27 -6.15,2.07 -26.97,7.82 -36.51,-4.75 -0.59,-0.79 -1.48,-1.3 -2.52,-1.44 -0.57,-0.07 -1.13,-0.02 -1.74,0.16 l -0.53,0.19 c -2.42,0.78 -8.1,2.59 -13.02,-0.97 -7.01,-5.1 -4.81,-12.37 -3.97,-14.47 0.51,-1.24 0.64,-2.56 0.38,-3.81 -0.53,-2.75 -0.34,-5.34 0.57,-7.69 1.56,-4.11 5.47,-7.19 10.2,-8.04 8.83,-1.56 13.42,2.28 15.38,4.71 0.51,0.62 1.22,0.98 2.07,1.05 0.81,0.03 1.64,-0.28 2.24,-0.88 1.47,-1.47 5.26,-3.64 9.69,-3.64 0.01,0 0.02,0 0.02,0 3.52,0 6.66,1.39 9.35,4.13 2.91,2.96 4.18,6.19 3.75,9.58 -0.11,0.85 -0.32,1.69 -0.63,2.5 -0.14,0.38 -0.44,0.49 -0.61,0.53 -0.34,0.07 -0.7,-0.05 -0.96,-0.32 -0.37,-0.39 -0.77,-0.74 -1.24,-1.04 -2.4,-1.59 -5.51,-1.71 -7.74,-0.3 -1.35,0.85 -3.52,3.01 -2.84,7.89 1.13,8.05 9,9.26 13.66,9.26 0.03,0 0.05,0 0.08,0 2.11,-0.02 3.58,-0.17 4.48,-0.47 0.01,0 0.02,0 0.04,-0.01 16.93,-3.75 19.36,-0.9 29.57,11.08 l 1.73,2.02 c 6.47,7.57 15.35,9.31 22.1,9.32 -3.48,0.67 -8.12,0.97 -13.99,0.26 z"
   id="path108" />
			<path
   class="st0"
   d="m 325.25,503.97 c -13,-3.54 -18.55,-9.79 -20.91,-14.4 -2.1,-4.11 -5.77,-7.19 -10.16,-8.49 -9.1,-2.63 -13.27,-7.95 -12.39,-15.82 0.72,-6.39 4.48,-11.17 10.32,-13.1 4.32,-1.43 9.19,-1 11.58,1 0.56,0.47 1.27,0.67 2.08,0.5 0.72,-0.14 1.32,-0.6 1.65,-1.27 1.1,-2.26 5.67,-9.49 18.04,-7.49 14.13,2.27 13.87,14.98 13.86,15.52 L 339.3,461 c -0.01,0.35 0.18,0.68 0.5,0.85 l 0.5,0.26 c 0.57,0.31 5.53,3.24 4.87,8.87 -0.35,2.98 -1.91,5.64 -4.27,7.29 -2.16,1.51 -4.78,1.99 -7.37,1.38 -1.16,-0.28 -2.38,-0.18 -3.54,0.27 -1.91,0.75 -7.08,2.19 -13.84,-0.69 -3.07,-1.31 -4.97,-3.32 -5.63,-5.97 -0.79,-3.14 0.38,-6.53 1.42,-7.82 1.35,-1.69 4.64,-3.29 7.81,-3.06 1.52,0.11 3.62,0.73 4.94,3 1.68,2.9 -0.4,4.69 -0.84,5.02 -1.01,0.77 -2.73,1.25 -4.22,0.12 -0.71,-0.55 -1.74,-0.49 -2.4,0.13 -0.39,0.37 -0.59,0.9 -0.56,1.44 0.03,0.54 0.29,1.04 0.72,1.37 2.94,2.24 6.49,1.55 8.69,-0.12 2.6,-1.97 4.16,-5.77 1.8,-9.83 -1.68,-2.9 -4.41,-4.57 -7.87,-4.83 -4.08,-0.3 -8.68,1.56 -10.97,4.43 -1.85,2.31 -3.17,6.84 -2.12,11.04 0.66,2.63 2.54,6.24 7.77,8.47 7.74,3.29 13.75,1.87 16.64,0.73 0.45,-0.17 0.9,-0.21 1.32,-0.11 3.64,0.87 7.31,0.17 10.34,-1.95 3.23,-2.25 5.36,-5.86 5.83,-9.89 0.02,-0.18 0.04,-0.36 0.05,-0.55 2.72,1.41 6.05,4.27 5.54,9.78 0,0.03 -0.28,2.82 -2.78,4.92 -2.27,1.91 -5.66,2.71 -10.07,2.41 -1.02,-0.08 -1.88,0.65 -1.98,1.65 -0.05,0.49 0.11,1 0.43,1.38 0.33,0.39 0.78,0.62 1.28,0.65 4.82,0.33 8.76,-0.51 11.7,-2.51 2.36,-0.76 30.11,-8.96 46.66,17.95 -1.46,0.6 -2.8,1.35 -3.9,2.19 -6.93,-8.76 -15.55,-11.07 -22.71,-11.07 -1.52,0 -2.97,0.1 -4.32,0.27 v 0 c -3.79,0.47 -7.64,1.76 -11.45,3.82 -3.84,2.13 -14.68,6.45 -32.02,1.68 z"
   id="path110" />
		</g>
		<g
   id="g118">
			<path
   class="st0"
   d="m 546.55,563.27 c 6.75,-0.01 15.63,-1.74 22.1,-9.32 l 1.73,-2.02 c 10.21,-11.98 12.64,-14.83 29.57,-11.08 0.01,0 0.02,0.01 0.04,0.01 0.9,0.3 2.37,0.45 4.48,0.47 0.03,0 0.05,0 0.08,0 4.66,0 12.54,-1.22 13.66,-9.26 0.68,-4.88 -1.49,-7.04 -2.84,-7.89 -2.23,-1.41 -5.34,-1.29 -7.74,0.3 -0.47,0.31 -0.87,0.65 -1.24,1.04 -0.25,0.27 -0.62,0.39 -0.96,0.32 -0.17,-0.03 -0.47,-0.15 -0.61,-0.53 -0.31,-0.82 -0.52,-1.66 -0.63,-2.5 -0.42,-3.39 0.84,-6.62 3.75,-9.58 2.69,-2.74 5.84,-4.13 9.35,-4.13 0.01,0 0.02,0 0.02,0 4.43,0 8.22,2.18 9.69,3.64 0.6,0.6 1.43,0.91 2.24,0.88 0.85,-0.07 1.56,-0.43 2.07,-1.05 1.96,-2.43 6.55,-6.27 15.38,-4.71 4.73,0.85 8.64,3.93 10.2,8.04 0.9,2.35 1.09,4.93 0.57,7.69 -0.25,1.25 -0.12,2.57 0.38,3.81 0.84,2.1 3.04,9.37 -3.97,14.47 -4.92,3.56 -10.6,1.75 -13.02,0.97 l -0.53,-0.19 c -0.61,-0.18 -1.17,-0.22 -1.74,-0.16 -1.04,0.14 -1.94,0.65 -2.52,1.44 -9.54,12.58 -30.36,6.82 -36.51,4.75 -2.59,-0.87 -4.69,-1.27 -6.54,-1.27 -3.92,0 -6.65,1.83 -10.28,4.89 -1.21,1.04 -2.26,2.08 -3.1,2.92 -3.74,3.71 -6.89,6.83 -19.09,8.31 -5.83,0.7 -10.47,0.4 -13.99,-0.26 z"
   id="path114" />
			<path
   class="st0"
   d="m 666.71,502.33 c -3.81,-2.06 -7.66,-3.35 -11.45,-3.82 v 0 c -1.35,-0.17 -2.81,-0.27 -4.32,-0.27 -7.15,0 -15.78,2.3 -22.71,11.07 -1.1,-0.84 -2.44,-1.59 -3.9,-2.19 16.55,-26.91 44.3,-18.71 46.66,-17.95 2.95,2 6.89,2.84 11.7,2.51 0.5,-0.04 0.95,-0.27 1.28,-0.65 0.32,-0.38 0.48,-0.89 0.43,-1.38 -0.1,-1 -0.96,-1.73 -1.98,-1.65 -4.42,0.3 -7.81,-0.5 -10.07,-2.41 -2.5,-2.1 -2.78,-4.89 -2.78,-4.92 -0.52,-5.51 2.82,-8.38 5.54,-9.78 0.01,0.18 0.03,0.37 0.05,0.55 0.48,4.03 2.6,7.64 5.83,9.89 3.03,2.12 6.7,2.81 10.34,1.95 0.42,-0.1 0.88,-0.06 1.32,0.11 2.89,1.14 8.89,2.56 16.64,-0.73 5.23,-2.23 7.12,-5.84 7.77,-8.47 1.05,-4.2 -0.27,-8.73 -2.12,-11.04 -2.3,-2.87 -6.89,-4.74 -10.97,-4.43 -3.46,0.26 -6.18,1.93 -7.87,4.83 -2.36,4.06 -0.8,7.86 1.8,9.83 2.21,1.67 5.75,2.35 8.69,0.12 0.43,-0.33 0.69,-0.83 0.72,-1.37 0.03,-0.54 -0.18,-1.07 -0.56,-1.44 -0.66,-0.63 -1.68,-0.68 -2.4,-0.13 -1.5,1.13 -3.21,0.65 -4.22,-0.12 -0.44,-0.33 -2.52,-2.12 -0.84,-5.02 1.33,-2.27 3.42,-2.88 4.94,-3 3.18,-0.23 6.46,1.37 7.81,3.06 1.04,1.3 2.21,4.68 1.42,7.82 -0.67,2.66 -2.56,4.66 -5.63,5.97 -6.76,2.88 -11.93,1.45 -13.84,0.69 -1.16,-0.45 -2.38,-0.55 -3.54,-0.27 -2.58,0.62 -5.2,0.13 -7.37,-1.38 -2.36,-1.65 -3.92,-4.3 -4.27,-7.29 -0.66,-5.63 4.3,-8.56 4.87,-8.87 l 0.5,-0.26 c 0.31,-0.16 0.51,-0.49 0.5,-0.85 l -0.02,-0.58 c -0.02,-0.54 -0.27,-13.24 13.86,-15.52 12.37,-2 16.94,5.23 18.04,7.49 0.33,0.66 0.93,1.13 1.65,1.27 0.82,0.16 1.52,-0.03 2.08,-0.5 2.39,-2.01 7.26,-2.43 11.58,-1 5.84,1.93 9.6,6.71 10.32,13.1 0.88,7.86 -3.29,13.19 -12.39,15.82 -4.4,1.3 -8.06,4.38 -10.16,8.49 -2.36,4.62 -7.9,10.86 -20.91,14.4 -17.32,4.73 -28.16,0.41 -32.02,-1.68 z"
   id="path116" />
		</g>
	</g>
	<path
   class="st0"
   d="m 512,742.7 c -131.88,0 -239.16,-107.29 -239.16,-239.16 0,-131.87 107.28,-239.17 239.16,-239.17 131.88,0 239.16,107.29 239.16,239.16 C 751.16,635.4 643.88,742.7 512,742.7 Z m 0,-475.46 c -130.29,0 -236.3,106 -236.3,236.3 0,130.3 106,236.29 236.3,236.29 130.29,0 236.3,-106 236.3,-236.29 0,-130.29 -106.01,-236.3 -236.3,-236.3 z"
   id="path122" />
	<path
   class="st3"
   d="M 512,781.17 C 358.91,781.17 234.37,656.62 234.37,503.54 234.37,350.46 358.91,225.9 512,225.9 c 153.09,0 277.63,124.55 277.63,277.63 0,153.08 -124.54,277.64 -277.63,277.64 z m 0,-551.94 c -151.25,0 -274.3,123.05 -274.3,274.3 0,151.25 123.05,274.3 274.3,274.3 151.25,0 274.3,-123.05 274.3,-274.3 0,-151.25 -123.05,-274.3 -274.3,-274.3 z"
   id="path124"
   style="fill:#000000;fill-opacity:1;stroke:none" />
	<g
   id="g152">
		<path
   class="st0"
   d="m 618.44,426.71 c -8.43,3.58 -10.94,10.45 -9.94,19.21 0.92,8.06 2.88,15.44 1.33,23.59 -1.49,7.8 -5.24,15.15 -10.74,20.89 -11.66,12.17 -30.36,15.74 -45.87,9.36 1.81,-1.36 4.2,-4.35 3.89,-8.73 13.66,7.17 31.45,2.3 40.71,-10.13 4.26,-5.72 6.76,-12.72 6.94,-19.85 0.2,-7.73 -2.39,-15.38 -0.88,-23.11 3.62,-18.48 24.88,-13.84 36.76,-23.06 14.3,-11.1 8.38,-27.89 12.32,-43.02 -1.74,8.43 0.15,17.04 -0.81,25.53 -0.9,8.03 -4.76,15.34 -11.19,20.31 -6.67,5.15 -14.98,5.81 -22.52,9.01 z"
   id="path126" />
		<path
   class="st0"
   d="m 531.9,539.18 c -2.5,-2.22 -6.3,-2.47 -9.65,-1.87 -3.35,0.59 -4.71,2.34 -9.91,2.34 -5.2,0 -6.56,-1.74 -9.91,-2.34 -3.35,-0.59 -7.15,-0.35 -9.65,1.87 -2.5,2.22 -2.2,6.04 0.37,8.38 -4.83,-3.03 -6.37,-9.99 -3.26,-14.65 -2.32,-0.06 -4.55,1.61 -5.08,3.77 -1.68,-2.57 -1.19,-5.95 -0.04,-8.78 1.15,-2.83 2.91,-5.44 3.7,-8.38 1.25,-4.6 -0.13,-9.78 -3.51,-13.25 -3.1,-3.17 -7.7,-4.96 -10.06,-8.68 -3.06,-4.82 -1.32,-11.03 -2.18,-16.61 -0.98,-6.39 -5.76,-12.1 -12.04,-14.4 -6.28,-2.3 -13.81,-1.1 -18.97,3.04 2.03,-4.49 5.73,-8.39 10.5,-10.13 2.84,-1.04 5.93,-1.37 8.95,-1.05 1.48,0.32 2.93,0.78 4.35,1.37 3.72,1.57 6.79,4.01 9.49,6.98 2.14,2.35 4.02,5.69 7.51,6.15 -3.97,-1.07 -5.53,-5.9 -7.81,-8.83 -2.59,-3.32 -5.96,-6.05 -9.73,-7.92 -1.28,-0.64 -2.61,-1.15 -3.97,-1.57 -5.58,-3.16 -12.69,-4.79 -17.25,-9.32 -3.32,-3.29 -4.95,-7.8 -6.3,-12.2 -1.35,-4.4 -2.57,-8.95 -5.32,-12.71 -2.75,-3.75 -7.46,-6.59 -12.16,-5.78 6.36,-2.98 14.67,-1.5 19.49,3.49 2.62,2.71 6.48,10.63 10.62,13.73 3.03,2.28 7.34,4.06 12.97,3.01 -7.16,-2.8 -20.68,-9.06 -19.04,-32.4 0.42,-5.94 3.38,-12.86 4.02,-18.79 0.63,-5.92 -0.05,-12.5 -4.37,-16.78 5.19,1.05 7.79,4.65 8.86,8.92 1.07,4.26 0.56,8.73 0.89,13.1 0.28,3.6 1.4,8.77 5.42,12.07 0.09,0.55 0.17,1.1 0.27,1.64 1.32,7.07 4.27,13.57 8.7,19.23 3.81,4.87 10.46,9.18 12.68,15.07 -0.84,-4.03 -4.3,-7.45 -6.74,-10.6 -3.06,-3.95 -5.92,-8.04 -7.93,-12.64 -4.03,-9.25 -4.49,-19.94 -2.55,-29.75 2.89,13.4 11.56,24.1 20.86,33.68 -0.15,-4.68 -0.58,-9.44 1.27,-13.88 0.94,11.97 11.48,21.88 23.73,20.76 -6.39,-0.35 -12.75,-3.59 -16.53,-8.8 -5.2,-7.21 -4.1,-14.79 -1.99,-22.74 -5.39,3.13 -9.12,7.92 -10.37,14.12 -9.7,-12.24 -14.42,-26 -13.26,-41.57 -7.58,8.33 -9.64,20.54 -8.62,31.67 -3.86,-10.88 -0.52,-30.42 13.97,-38.12 6.01,-3.19 14.9,-6.91 16.4,-13.34 0.74,-3.18 -0.22,-6.47 -0.18,-9.73 0.03,-3.26 1.68,-7.02 5.02,-7.58 -2.48,3.18 -1.25,7.88 0.11,10.45 3.68,6.92 2.11,12.87 -1.35,15.73 -3.46,2.86 -7.15,6.27 -9.63,9.96 -3.88,5.78 -2.51,14.26 3,18.65 -3.87,-6.09 -2.93,-14.64 2.19,-19.82 5.99,-6.06 16.56,-7.57 20.51,-15.02 3.32,-6.26 0.42,-14.01 2.42,-20.77 1.74,-5.86 6.89,-10.13 11.94,-13.83 5.04,-3.7 10.45,-7.44 13.16,-12.96 2.7,-5.52 1.39,-13.39 -4.42,-15.83 6.6,0 13.16,2.68 17.74,7.25 4.58,4.57 7.1,10.97 6.84,17.31 -0.23,5.57 -2.51,11.18 -1.12,16.6 1.57,6.15 7.44,10.39 10.22,16.14 2.85,5.9 2.03,13.28 -2.06,18.46 -2.71,3.44 -6.64,5.87 -9.29,9.35 -2.65,3.49 -4.06,9.52 -0.65,12.32 -1.06,-3.77 1.72,-7.59 4.95,-9.97 0.73,-0.54 1.49,-1.03 2.27,-1.52 -0.06,4.15 -0.14,8.3 -1.07,12.38 -1.98,8.7 -6.73,16.86 -12.23,23.8 -1.09,-5.43 -4.76,-11.34 -10.17,-13.36 1.53,5.76 2.68,11.22 0.47,17.05 -3,7.93 -10.77,13.28 -19.19,13.74 12.25,1.12 22.79,-8.8 23.73,-20.76 1.85,4.43 1.41,9.21 1.27,13.88 9.3,-9.58 17.97,-20.28 20.86,-33.68 1.42,7.18 1.55,14.82 -0.06,22.03 -0.34,0.46 -0.71,0.91 -1.13,1.35 0.33,-0.15 0.64,-0.31 0.94,-0.49 -0.57,2.35 -1.33,4.64 -2.29,6.86 -1.88,4.32 -4.53,8.21 -7.38,11.93 -2.57,3.36 -6.39,7.02 -7.29,11.3 1.45,-3.84 5.13,-6.72 7.88,-9.61 3.16,-3.33 6.11,-6.81 8.42,-10.79 2.66,-4.59 4.37,-9.63 5.26,-14.83 1.8,-3.21 3.06,-7.02 5.1,-9.97 2.61,-3.78 5.86,-6.07 10.22,-7.82 4.36,-1.75 7.92,-3.99 11.14,-7.31 3.22,-3.32 4.91,-6.95 2.54,-11.82 4.71,3.26 6.22,10.05 3.42,15.43 -3.56,6.84 -10.91,8.72 -14.93,13.04 -4.01,4.32 -5.18,8.16 -7.26,15.83 -1.5,5.54 -0.43,11.88 -2.8,18.12 -2.38,6.27 -7.89,10.76 -13.82,10.16 3.13,2.15 7.67,1.41 10.75,-0.81 3.08,-2.21 4.99,-5.59 6.65,-8.92 1.66,-3.33 3.21,-6.8 5.83,-9.51 4.82,-4.98 13.13,-6.47 19.49,-3.49 -4.7,-0.8 -9.41,2.03 -12.16,5.78 -2.75,3.75 -3.97,8.31 -5.32,12.71 -1.35,4.4 -2.98,8.91 -6.3,12.2 -4.66,4.62 -12.35,6.07 -18.21,9.28 -1.05,0.37 -2.09,0.8 -3.1,1.3 -3.77,1.87 -7.14,4.59 -9.73,7.92 -2.29,2.94 -3.84,7.76 -7.81,8.83 3.71,-0.48 5.7,-4.23 7.99,-6.71 2.53,-2.74 5.58,-4.94 9.01,-6.42 1.23,-0.53 2.49,-0.93 3.77,-1.25 3.29,-0.26 6.72,0.19 9.61,1.24 4.76,1.74 8.47,5.64 10.5,10.13 -5.16,-4.13 -12.69,-5.34 -18.97,-3.04 -6.28,2.3 -11.06,8.02 -12.04,14.4 -0.86,5.59 0.88,11.79 -2.18,16.61 -2.36,3.71 -6.96,5.5 -10.06,8.68 -3.39,3.47 -4.76,8.65 -3.51,13.25 0.8,2.94 2.55,5.55 3.7,8.38 1.15,2.83 1.64,6.2 -0.04,8.78 -0.52,-2.17 -2.76,-3.83 -5.08,-3.77 3.12,4.66 1.57,11.62 -3.26,14.65 2.47,-1.87 2.85,-6.16 0.35,-8.38 z"
   id="path128" />
		<path
   class="st0"
   d="m 429.32,496.42 c -4.9,-6.1 -7.62,-13.98 -7.25,-21.81 0.39,-8.27 4.43,-15.64 6,-23.65 3.81,-19.46 -15.66,-30.5 -32.72,-28.94 -9.19,0.84 -18.17,4.46 -27.5,3.15 -3.12,-0.44 -6.25,-1.56 -8.89,-3.31 -0.02,-0.16 -0.04,-0.32 -0.06,-0.48 -0.01,-0.1 -0.01,-0.21 -0.02,-0.31 3.19,1.96 7.1,2.98 10.77,3.09 9.3,0.27 17.99,-3.85 27.13,-4.82 17.91,-1.9 37.74,9.34 36.8,29.3 -0.43,9.22 -5.44,17.75 -5.06,27.03 0.36,8.7 5.49,17.19 13.25,21.24 7.02,3.66 21.79,2.6 26.47,-1.49 0.6,2.94 2.29,5.97 4.66,7.34 -13.81,9.03 -33.12,6.67 -43.58,-6.34 z"
   id="path130" />
		<path
   class="st0"
   d="m 417.9,314.53 c -1.5,-18.24 -0.22,-26.6 8.51,-26.6 13.35,0 5.34,14 8.79,39.49 3.65,26.96 27.33,37.45 27.33,37.45 0,0 -5.45,5.42 -6.2,13.27 0,0 -0.67,-0.21 -1.78,-0.62 0.67,-4.73 -1.39,-9.24 -7.23,-11.86 -5.71,-2.56 -8.21,0.17 -8.21,0.17 5.33,3.68 5.4,6.54 5.4,6.56 -1.63,-1.07 -3.28,-2.3 -4.88,-3.71 -4.37,-3.88 -8.1,-9.59 -8.1,-9.59 0,0 -14.21,-0.19 -20.46,-6.88 -6.14,-6.57 -7.24,-14.26 -5.53,-18.3 1.7,-4.04 7.87,-2.2 9.15,4.54 1.28,6.74 12.42,8.81 12.42,8.81 0,0 -7.34,-10.04 -9.21,-32.73 z"
   id="path132" />
		<path
   class="st0"
   d="m 587.75,327.42 c 3.45,-25.5 -4.56,-39.5 8.79,-39.49 8.73,0 10.02,8.36 8.51,26.6 -1.87,22.7 -9.22,32.72 -9.22,32.72 0,0 11.14,-2.07 12.42,-8.81 1.28,-6.74 7.45,-8.58 9.15,-4.54 1.7,4.04 0.6,11.73 -5.53,18.3 -6.25,6.69 -20.46,6.88 -20.46,6.88 0,0 -3.73,5.7 -8.1,9.59 -7.59,6.74 -19.34,10.41 -19.34,10.41 2.9,-8.08 0,-14.54 0,-14.54 0,0 20.13,-10.17 23.78,-37.12 z"
   id="path134" />
		<g
   id="g150"
   style="fill:#001000;fill-opacity:1">
			<path
   class="st3"
   d="m 501.07,482.12 c -1.72,-0.55 -4.24,-0.2 -5.69,1.55 -1.21,1.46 -1.44,3.59 -0.75,5.43 0.64,1.69 2.51,2.54 4.45,2.78 -0.21,-0.92 -0.02,-1.95 0.51,-2.7 0.53,-0.75 1.38,-1.2 2.24,-1.19 1.28,0.02 2.34,1.02 3.45,1.74 3,1.91 5.88,3.53 11.77,0 1.14,-0.68 2.17,-1.72 3.45,-1.74 0.86,-0.01 1.71,0.44 2.24,1.19 0.53,0.75 0.73,1.78 0.51,2.7 1.9,0 3.81,-1.09 4.45,-2.78 0.69,-1.83 0.47,-3.96 -0.75,-5.43 -1.45,-1.75 -3.97,-2.1 -5.69,-1.55 -2.06,0.66 -3.45,2.71 -4.87,4.49 -1.38,1.73 -2.58,3.08 -5.24,3.16 -2.66,-0.07 -3.86,-1.43 -5.24,-3.16 -1.4,-1.78 -2.79,-3.83 -4.84,-4.49 z"
   id="path136"
   style="fill:#001000;fill-opacity:1" />
			<path
   class="st3"
   d="m 487.47,465.1 c 3.15,1.58 7.21,1.2 9.86,-1.04 5.24,0.15 10.78,-3.6 7.67,-11 -2.28,-5.43 -7.98,-7.2 -12.35,-10.46 -4.69,-3.49 -7.01,-9.36 -5.73,-15.13 -2.4,5.3 -0.91,11.68 3.02,15.8 3.32,3.49 8.45,5.11 11.2,9.17 2.51,3.71 0.99,10.48 -4.72,8.98 -3.97,-1.04 -4.2,-5.23 -3.32,-8.52 -5.41,2.45 -16.6,3.93 -16.42,-5.28 -1.24,5.08 2.26,7.79 6.51,8.79 -0.48,3.37 0.62,6.86 4.28,8.69 z"
   id="path138"
   style="fill:#001000;fill-opacity:1" />
			<path
   class="st3"
   d="m 525.12,464.07 c 2.66,2.23 6.71,2.61 9.86,1.03 3.67,-1.83 4.77,-5.33 4.28,-8.69 4.24,-0.99 7.75,-3.7 6.51,-8.78 0.18,9.21 -11.01,7.73 -16.42,5.28 0.89,3.4 0.46,8.22 -3.97,8.69 -5.48,0.57 -6.46,-5.61 -4.07,-9.14 2.92,-4.31 8.46,-5.89 11.78,-9.84 3.48,-4.12 4.71,-10.12 2.43,-15.14 1.37,6.17 -1.33,12.02 -6.38,15.56 -4.22,2.96 -9.59,4.88 -11.7,10.03 -3.05,7.44 2.46,11.16 7.68,11 z"
   id="path140"
   style="fill:#001000;fill-opacity:1" />
			<path
   class="st3"
   d="m 538.9,494.62 c -0.54,-5.13 -4.7,-8.06 -7.11,-12.19 -2.59,-4.43 -2.64,-10.35 -0.02,-14.78 -4.27,4.58 -4.53,11.93 -1.67,17.29 2.55,4.79 7.72,10.15 2.25,14.97 -1.04,-4.29 -3.46,-5.51 -6.38,-5.38 0.04,0.1 0.09,0.2 0.12,0.31 0.93,3.32 -3.06,7.4 -5.69,8.7 1.38,-1.66 1.46,-4.17 0.51,-6.11 -0.26,-0.52 -0.58,-1 -0.95,-1.44 -2.99,1.07 -5.93,2.36 -8.12,2.48 -2.57,0.14 -6.2,-1.47 -9.81,-2.67 -0.44,0.49 -0.83,1.04 -1.13,1.64 -0.96,1.94 -0.87,4.45 0.51,6.11 -2.64,-1.3 -6.62,-5.37 -5.69,-8.7 0.03,-0.11 0.08,-0.2 0.12,-0.3 -2.73,0.06 -4.94,1.39 -5.9,5.39 -5.47,-4.81 -0.32,-10.2 2.24,-14.99 2.86,-5.36 2.6,-12.7 -1.67,-17.28 2.62,4.43 2.58,10.35 -0.02,14.79 -2.55,4.36 -7.08,7.51 -7.12,13.04 -0.05,6.35 4.78,9.49 9.96,11.64 4.12,1.66 1.33,5.73 0.79,11.47 -0.45,4.78 1.04,6.97 3.64,9.05 0.03,-1.1 0.09,-2.16 0.28,-3.24 0.37,-2.16 1.17,-4.3 2.63,-5.94 0.28,3.05 0.32,5.81 2.08,8.32 1.29,1.83 3.36,3.21 6.21,3.61 0.87,0.06 1.57,0.05 2.16,0.05 0.59,0 1.28,0.01 2.16,-0.05 2.85,-0.4 4.92,-1.77 6.21,-3.61 1.76,-2.51 1.8,-5.27 2.08,-8.32 1.46,1.64 2.26,3.78 2.63,5.94 0.19,1.08 0.24,2.15 0.28,3.24 2.6,-2.08 4.09,-4.27 3.64,-9.05 -0.54,-5.73 -3.18,-9.11 0.79,-11.46 5.47,-2.31 10.73,-5.75 9.99,-12.53 z"
   id="path142"
   style="fill:#001000;fill-opacity:1" />
			<path
   class="st0"
   d="m 511.16,529.98 c -6.75,0 -8.72,-5.9 -8.72,-5.9 h 17.25 c 0,0 -1.77,5.9 -8.53,5.9 z"
   id="path144"
   style="fill:#001000;fill-opacity:1" />
			<path
   class="st3"
   d="m 518.58,386.25 c 0,0 3.73,2.32 5.7,14.82 1.96,12.5 -7.5,17.54 -7.5,17.54 0,0 14.64,-5.04 11.6,-17.54 -3.03,-12.5 -9.8,-14.82 -9.8,-14.82 z"
   id="path146"
   style="fill:#001000;fill-opacity:1" />
			<path
   class="st3"
   d="m 544.37,327.18 c 0,0 0.51,15.83 -8.67,28.48 -18.69,25.77 -37.04,18.95 -40.95,38.51 -2.98,14.95 7.88,23.56 13.17,24.43 -5.29,-0.87 -17.4,-21.2 0,-35.45 14.25,-11.67 44.08,-19.22 36.45,-55.97 z"
   id="path148"
   style="fill:#001000;fill-opacity:1" />
		</g>
	</g>
	<path
   class="st0"
   d="m 507.25,651.51 c 0,0 -1.47,5.98 5.13,2.88 6.6,-3.1 -1.15,-12.4 -10.44,-9.52 -9.3,2.88 -15.05,10.4 -8.85,22.14 6.2,11.73 24.57,9.74 34.53,2.88 9.96,-6.86 8.41,-30.77 7.08,-33.2 -1.33,-2.43 -1.77,-19.48 7.53,-16.82 9.3,2.66 5.88,-7.87 0.85,-7.11 -5.03,0.76 -5.64,-7.02 -1.83,-7.17 3.81,-0.15 4.88,-1.98 4.88,-2.59 0,-0.61 -5.57,-6.25 1.94,-10.68 0,0 -3.25,3.37 0,6.2 3.25,2.83 5.14,4.48 3.78,9.56 -1.35,5.07 1.07,5.19 2.14,7.21 1.07,2.03 0.9,7.47 -2.17,9.31 -3.07,1.84 -1.14,8.77 2.19,8.77 3.33,0 4.04,-5.53 2.89,-7.37 -1.14,-1.84 -1.58,-10.79 2.11,-9.91 3.68,0.88 3.77,-2.98 2.81,-4.03 -0.96,-1.05 -2.54,-3.77 0,-5.09 2.54,-1.32 1.84,-5.44 1.84,-5.44 0,0 4.21,2.37 3.07,6.05 -1.14,3.68 -0.92,4.21 0.2,6.93 1.12,2.72 -3.7,8.42 -2.13,11.14 1.58,2.72 5.77,-1.48 5.77,-1.48 0,0 3.04,5.64 0,14.76 -3.04,9.11 -7.23,9.26 -7.23,9.26 0,0 7.15,6.35 -0.58,15.05 -5.71,6.43 -12.3,2.92 -12.3,2.92 0,0 -3.47,24.9 -29.16,28.44 -25.68,3.54 -41.04,-13.58 -43.69,-24.21 -2.66,-10.63 -2.93,-17.55 -11.16,-16.01 0,0 -0.73,3.49 2.76,4.16 3.49,0.67 -2.59,12.03 -11.36,4.16 -8.77,-7.87 1.69,-16.75 1.69,-16.75 0,0 -8.66,-6.18 -7.31,-14.17 1.35,-7.98 5.4,-6.41 7.65,-5.51 2.25,0.9 2.81,-3.15 -0.34,-5.73 -3.15,-2.59 -0.79,-10.01 2.47,-11.58 0,0 -2.36,4.27 1.01,6.52 3.37,2.25 6.18,1.8 5.62,6.63 -0.56,4.83 -0.79,7.76 2.7,7.87 3.49,0.11 2.47,-5.06 0.22,-7.08 -2.25,-2.02 -2.36,-5.73 -0.11,-7.42 2.25,-1.69 1.35,-4.05 -0.34,-5.51 -1.69,-1.46 -1.57,-7.42 2.36,-8.66 0,0 -1.69,3.6 0.45,4.83 2.14,1.24 3.71,1.91 3.26,7.42 -0.45,5.51 4.83,-0.9 7.2,3.49 2.36,4.38 -0.79,7.76 -0.79,7.76 0,0 3.71,-0.9 4.27,2.92 0.56,3.82 0.22,5.73 0.22,5.73 0,0 2.54,-4.68 11.84,-4.85 9.3,-0.17 13.87,-3.55 14.38,-10.15 0.51,-6.6 -11.33,-5.58 -11.16,-2.71 0.17,2.88 5.24,2.88 5.24,2.88 0,0 0.1,8.38 -12.35,7.27 -12.45,-1.1 -8.12,-16.24 -8.12,-16.24 0,0 -10.32,0.34 -10.32,-16.07 0,-16.41 7.27,-10.32 8.8,-10.99 1.52,-0.68 -0.85,-0.51 -1.01,-4.57 -0.17,-4.06 3.89,-4.4 5.07,-6.26 1.18,-1.86 -1.01,-3.55 -1.18,-5.41 -0.17,-1.86 4.57,-5.92 4.57,-5.92 0,0 -4.74,4.74 -1.35,6.93 3.38,2.2 1.35,6.93 1.35,8.96 0,2.03 5.07,0.34 5.07,5.75 0,5.41 -4.23,7.61 -2.88,12.52 1.35,4.91 8.8,2.88 9.13,-3.21 0.33,-6.09 -6.93,-12.52 -5.58,-21.31 1.35,-8.8 6.6,-5.58 8.12,-6.93 1.52,-1.35 -1.86,-3.21 -1.86,-5.75 0,-2.54 3.55,-3.72 3.55,-3.72 0,0 -2.54,-2.37 -2.37,-4.74 0.17,-2.37 4.97,-3.89 4.97,-3.89 0,0 -3.95,2.71 -1.42,4.57 2.54,1.86 3.38,4.4 2.54,6.93 -0.85,2.54 3.04,1.86 3.55,5.07 0.51,3.21 -2.54,6.6 0.51,8.96 3.04,2.37 6.6,-2.54 7.61,5.41 1.01,7.95 -6.43,13.53 -5.07,18.61 1.35,5.07 7.78,2.54 7.95,-1.69 0.17,-4.23 -2.88,-8.29 -1.01,-11.33 1.86,-3.04 6.6,-1.18 5.92,-2.2 -0.68,-1.01 -2.88,-9.47 3.72,-12.69 0,0 -4.06,5.07 -0.34,8.8 3.72,3.72 -1.01,8.63 0,10.66 1.01,2.03 6.23,0.24 4.57,10.99 -1.67,10.75 -10.99,16.24 -10.99,16.24 0,0 3.04,3.21 0.85,11.84 -2.2,8.63 -6.6,9.13 -6.6,9.13 0,0 10.49,2.88 7.61,20.97 -2.88,18.1 -27.57,18.44 -32.64,7.27 -5.07,-11.17 5.99,-14.81 8.5,-11.08 z"
   id="path154" />
	<g
   id="g192">
		<g
   id="g172">
			<g
   id="g164">
				<path
   class="st0"
   d="m 335.47,537.2 c 0,0 1.9,-3 4.74,-3.24 2.84,-0.24 4.43,0.76 4.43,0.76 0,0 5.41,20.49 7.25,24.87 1.85,4.39 6.97,10.14 6.97,10.14 0,0 -10.91,-6.16 -14.9,-12.62 -3.99,-6.44 -8.49,-19.91 -8.49,-19.91 z"
   id="path156" />
				<path
   class="st0"
   d="m 308.12,544.59 c 0,0 -1.92,-2.96 -6.78,-0.19 -4.86,2.77 4.56,14.8 9.43,22.46 4.87,7.65 14.57,20.73 19.77,21.29 0,0 -12.08,-15.67 -16.22,-26.81 -4.13,-11.15 -6.2,-16.75 -6.2,-16.75 z"
   id="path158" />
				<path
   class="st0"
   d="m 313.56,592.73 c 0,0 -2.94,-2.57 -7.05,-1.18 -4.11,1.39 0.15,7.81 6.66,12.21 6.52,4.41 21.35,14.69 26.72,13.8 0,0 -13.67,-10.88 -18.65,-15.98 -4.98,-5.1 -7.68,-8.85 -7.68,-8.85 z"
   id="path160" />
				<path
   class="st0"
   d="m 389.88,586.53 c 0,0 -6.06,1.11 -7.1,7.04 -1.04,5.93 -16.26,18.87 -16.26,18.87 0,0 8.01,-0.4 14.87,-7.02 6.86,-6.62 10.4,-11.81 10.96,-13.02 0.56,-1.21 0.42,-7.01 -2.47,-5.87 z"
   id="path162" />
			</g>
			<g
   id="g170">
				<path
   class="st0"
   d="m 389.04,566.59 c -7.48,-1.69 -15.19,-5.8 -19.7,-11.81 -4.51,-6 -11.36,-9.31 -11.36,-9.31 0,0 -0.68,-0.85 -1.75,-6.34 -1.07,-5.49 -5.02,-7.11 -5.02,-7.11 0,0 -2.41,-7.4 -8.34,-11.78 -5.93,-4.38 -18.86,2 -15.63,11.66 1.8,5.38 5.09,7.98 7.66,9.23 -0.68,-1.89 -1.12,-3.18 -1.17,-3.34 -0.18,-0.53 -0.11,-1.11 0.19,-1.58 0.24,-0.39 2.5,-3.79 6.15,-4.1 3.36,-0.28 5.36,0.9 5.57,1.04 0.4,0.25 0.68,0.64 0.8,1.09 0.05,0.2 5.39,20.41 7.17,24.63 1.7,4.05 6.59,9.57 6.64,9.62 0.6,0.68 0.63,1.69 0.06,2.39 -0.25,0.31 -0.59,0.52 -0.96,0.62 -0.46,0.12 -0.96,0.07 -1.39,-0.17 -0.46,-0.26 -11.37,-6.48 -15.56,-13.25 -1.72,-2.78 -3.51,-6.76 -5.01,-10.46 -1.15,-0.35 -3.11,-1.13 -4.77,-2.73 -2.51,-2.42 -3.16,-1 -3.16,-1 0,0 -0.56,-1.29 -2.72,-3.19 -2.16,-1.89 -5.89,-1.94 -5.89,-1.94 0,0 1.23,-1.55 -3.32,-4.03 -4.56,-2.48 -6.36,-2 -6.36,-2 0,0 -1.7,-5.53 -4.84,-7.98 -3.14,-2.45 -9.97,2.07 -13.57,5.53 -3.61,3.45 0.93,8.01 0.93,8.01 0,0 -2.12,2.84 2.06,9.14 0.64,0.97 1.69,1.87 3.01,2.72 -0.56,-1.7 -0.75,-3.2 -0.45,-4.49 0.29,-1.25 1.03,-2.24 2.14,-2.88 5.04,-2.88 8.25,-0.74 9.25,0.79 0.07,0.11 0.14,0.24 0.18,0.36 l 4.44,11.98 c 4.01,0.99 7.04,1.51 7.04,1.51 0.59,2.94 3.61,4.8 3.61,4.8 -2.93,0.17 -5.41,0.78 -7.55,1.63 2.19,4.72 5.39,9.91 8.24,14.17 5.12,-0.43 5.9,-2.72 5.9,-2.72 0,0 1.48,3.94 4.04,4.27 2.57,0.34 5.63,0.96 9.89,4.51 4.26,3.55 12.48,-3.37 12.48,-3.37 6.92,2.01 13.71,-5.11 13.71,-5.11 1.56,5.77 6.36,6.74 6.36,6.74 0.05,5.51 1.27,8.76 3.02,10.53 1.32,-6.27 7.19,-7.9 8.33,-8.15 1.35,-0.47 2.65,-0.17 3.59,0.83 1.06,1.12 1.47,3.07 1.49,4.78 2.32,-3.2 2.32,-7.66 2,-10.07 -0.41,-2.97 0.04,-11.97 -7.43,-13.67 z"
   id="path166" />
				<path
   class="st0"
   d="m 306.83,573.13 c -6.45,-0.32 -10.67,4.95 -10.43,13.49 0.16,5.57 4.46,8.59 7.45,10.02 -0.61,-1.25 -0.91,-2.46 -0.76,-3.57 0.21,-1.56 1.22,-2.72 2.84,-3.27 5.05,-1.71 8.7,1.4 8.86,1.54 0.11,0.09 0.2,0.2 0.28,0.31 0.01,0.01 0.22,0.3 0.6,0.8 1.68,-3.46 1.12,-7.35 1.12,-7.35 1.83,-0.12 3.16,-0.81 4.13,-1.71 -4.66,-5.01 -9.08,-11.5 -11.03,-14.5 -2.17,2.26 -3.06,4.24 -3.06,4.24 z"
   id="path168" />
			</g>
		</g>
		<g
   id="g190">
			<g
   id="g182">
				<path
   class="st0"
   d="m 688.53,537.2 c 0,0 -1.9,-3 -4.74,-3.24 -2.84,-0.24 -4.43,0.76 -4.43,0.76 0,0 -5.41,20.49 -7.25,24.87 -1.85,4.39 -6.97,10.14 -6.97,10.14 0,0 10.91,-6.16 14.9,-12.62 3.99,-6.44 8.49,-19.91 8.49,-19.91 z"
   id="path174" />
				<path
   class="st0"
   d="m 715.88,544.59 c 0,0 1.92,-2.96 6.78,-0.19 4.86,2.77 -4.56,14.8 -9.43,22.46 -4.87,7.65 -14.57,20.73 -19.77,21.29 0,0 12.08,-15.67 16.22,-26.81 4.13,-11.15 6.2,-16.75 6.2,-16.75 z"
   id="path176" />
				<path
   class="st0"
   d="m 710.44,592.73 c 0,0 2.94,-2.57 7.05,-1.18 4.11,1.39 -0.15,7.81 -6.66,12.21 -6.52,4.41 -21.35,14.69 -26.72,13.8 0,0 13.67,-10.88 18.65,-15.98 4.98,-5.1 7.68,-8.85 7.68,-8.85 z"
   id="path178" />
				<path
   class="st0"
   d="m 634.12,586.53 c 0,0 6.06,1.11 7.1,7.04 1.04,5.93 16.26,18.87 16.26,18.87 0,0 -8.01,-0.4 -14.87,-7.02 -6.86,-6.62 -10.4,-11.81 -10.96,-13.02 -0.56,-1.21 -0.43,-7.01 2.47,-5.87 z"
   id="path180" />
			</g>
			<g
   id="g188">
				<path
   class="st0"
   d="m 634.96,566.59 c 7.48,-1.69 15.19,-5.8 19.7,-11.81 4.51,-6 11.36,-9.31 11.36,-9.31 0,0 0.68,-0.85 1.75,-6.34 1.07,-5.49 5.02,-7.11 5.02,-7.11 0,0 2.41,-7.4 8.34,-11.78 5.93,-4.38 18.86,2 15.63,11.66 -1.8,5.38 -5.09,7.98 -7.66,9.23 0.68,-1.89 1.12,-3.18 1.17,-3.34 0.18,-0.53 0.11,-1.11 -0.19,-1.58 -0.24,-0.39 -2.5,-3.79 -6.15,-4.1 -3.36,-0.28 -5.36,0.9 -5.57,1.04 -0.4,0.25 -0.68,0.64 -0.8,1.09 -0.05,0.2 -5.39,20.41 -7.17,24.63 -1.7,4.05 -6.59,9.57 -6.64,9.62 -0.6,0.68 -0.63,1.69 -0.06,2.39 0.25,0.31 0.59,0.52 0.96,0.62 0.46,0.12 0.96,0.07 1.39,-0.17 0.46,-0.26 11.37,-6.48 15.56,-13.25 1.72,-2.78 3.51,-6.76 5.01,-10.46 1.15,-0.35 3.11,-1.13 4.77,-2.73 2.51,-2.42 3.16,-1 3.16,-1 0,0 0.56,-1.29 2.72,-3.19 2.16,-1.89 5.89,-1.94 5.89,-1.94 0,0 -1.23,-1.55 3.32,-4.03 4.56,-2.48 6.36,-2 6.36,-2 0,0 1.7,-5.53 4.84,-7.98 3.14,-2.45 9.97,2.07 13.57,5.53 3.61,3.45 -0.93,8.01 -0.93,8.01 0,0 2.12,2.84 -2.06,9.14 -0.64,0.97 -1.69,1.87 -3.01,2.72 0.56,-1.7 0.75,-3.2 0.45,-4.49 -0.29,-1.25 -1.03,-2.24 -2.14,-2.88 -5.04,-2.88 -8.25,-0.74 -9.25,0.79 -0.07,0.11 -0.14,0.24 -0.18,0.36 l -4.44,11.98 c -4.01,0.99 -7.04,1.51 -7.04,1.51 -0.59,2.94 -3.61,4.8 -3.61,4.8 2.93,0.17 5.41,0.78 7.55,1.63 -2.19,4.72 -5.39,9.91 -8.24,14.17 -5.12,-0.43 -5.9,-2.72 -5.9,-2.72 0,0 -1.48,3.94 -4.04,4.27 -2.57,0.34 -5.63,0.96 -9.89,4.51 -4.26,3.55 -12.48,-3.37 -12.48,-3.37 -6.92,2.01 -13.71,-5.11 -13.71,-5.11 -1.56,5.77 -6.36,6.74 -6.36,6.74 -0.05,5.51 -1.27,8.76 -3.02,10.53 -1.32,-6.27 -7.19,-7.9 -8.33,-8.15 -1.35,-0.47 -2.65,-0.17 -3.59,0.83 -1.06,1.12 -1.47,3.07 -1.49,4.78 -2.32,-3.2 -2.32,-7.66 -2,-10.07 0.41,-2.97 -0.04,-11.97 7.43,-13.67 z"
   id="path184" />
				<path
   class="st0"
   d="m 717.17,573.13 c 6.45,-0.32 10.67,4.95 10.43,13.49 -0.16,5.57 -4.46,8.59 -7.45,10.02 0.61,-1.25 0.91,-2.46 0.76,-3.57 -0.21,-1.56 -1.22,-2.72 -2.84,-3.27 -5.05,-1.71 -8.7,1.4 -8.86,1.54 -0.11,0.09 -0.2,0.2 -0.28,0.31 -0.01,0.01 -0.22,0.3 -0.6,0.8 -1.68,-3.46 -1.12,-7.35 -1.12,-7.35 -1.83,-0.12 -3.16,-0.81 -4.13,-1.71 4.66,-5.01 9.08,-11.5 11.03,-14.5 2.17,2.26 3.06,4.24 3.06,4.24 z"
   id="path186" />
			</g>
		</g>
	</g>
	<g
   id="g198">
		<path
   class="st0"
   d="m 502.01,715.53 c -0.35,-0.76 -1.16,-1.16 -1.96,-0.99 0,0 0,0 -0.01,0 -2.51,0.57 -7.47,1.33 -12.6,0.06 -0.04,-0.01 -4.42,-0.59 -8.48,-4.78 -0.26,-0.27 -0.51,-0.55 -0.76,-0.83 l -1.32,-1.57 c -8.1,-9.51 -10.83,-12.71 -25.41,-9.47 -0.12,0.01 -0.23,0.04 -0.27,0.06 -0.56,0.16 -5.52,0.82 -8.52,-1.04 -1.3,-0.82 -2.06,-2.04 -2.28,-3.62 -0.23,-1.72 0.12,-2.97 1.01,-3.52 0.84,-0.53 2.16,-0.45 3.14,0.2 0.84,0.55 1.24,1.4 1.08,2.36 -0.02,0.12 -0.01,0.23 0,0.33 0.06,0.58 0.52,1.08 1.16,1.19 1.58,0.23 3.18,-2.98 3.18,-2.98 1.18,-2.2 3.32,-7.94 -2.33,-13.68 -2.59,-2.63 -5.66,-3.97 -9.12,-3.98 -0.8,0 -1.71,0.08 -2.6,0.26 -10.31,-17.42 -26.3,-18.04 -34.96,-16.84 -0.24,0.03 -0.39,-0.1 -0.46,-0.18 -0.12,-0.15 -0.15,-0.35 -0.09,-0.54 0.32,-0.9 0.42,-1.58 0.44,-1.87 v 0 c 0.69,-7.41 -5.49,-10.34 -7.5,-11.09 -0.87,-2.94 -3.04,-4.77 -4.23,-5.58 -0.07,-1.14 -0.34,-3.4 -1.45,-5.8 -1.46,-3.17 -4.67,-7.18 -11.68,-8.31 -9.59,-1.55 -14.31,3.16 -16.26,6.11 -0.1,0.15 -0.28,0.19 -0.44,0.1 -2.78,-1.52 -6.81,-1.71 -10.51,-0.48 -5.64,1.86 -9.27,6.44 -9.95,12.56 -0.83,7.43 3.24,12.85 11.47,15.28 0,0 0.19,0.05 0.19,0.05 2.61,0.76 4.84,2.63 6.12,5.14 2.01,3.93 6.61,9.27 17.13,12.37 l 0.88,0.25 c 13.92,3.83 22.86,0.69 26.96,-1.52 2.65,-1.43 5.3,-2.32 7.87,-2.64 3.1,-0.39 7.25,-0.3 11.32,1.6 -1.72,-0.21 -3.56,-0.15 -5.51,0.2 -4.57,0.81 -8.37,3.84 -9.91,7.89 -0.87,2.3 -1.07,4.79 -0.57,7.4 0.09,0.46 0.04,0.97 -0.14,1.46 -0.6,1.48 -3.25,9.1 3.97,14.33 4.92,3.57 10.21,1.86 12.48,1.12 l 0.38,-0.12 c 0.16,-0.05 0.32,-0.01 0.38,0.07 8.45,11.14 26.05,6.34 31.25,4.6 5.34,-1.79 7.07,-0.58 10.5,2.33 0.74,0.62 1.4,1.27 2.03,1.9 l 0.22,0.22 c 3.02,3 5.88,5.83 15.9,7.13 l 0.42,0.05 c 1.95,0.24 3.74,0.34 5.39,0.34 8.14,0 12.55,-2.52 13.85,-3.42 0.66,-0.43 0.93,-1.31 0.6,-2.11 z m -19.53,2.6 c -9.45,-1.15 -11.9,-3.57 -14.8,-6.45 -0.65,-0.65 -1.47,-1.45 -2.4,-2.26 -2.81,-2.38 -4.93,-3.8 -7.97,-3.8 -1.43,0 -3.06,0.31 -5.07,0.98 -4.77,1.6 -20.91,6.07 -28.31,-3.69 -0.45,-0.61 -1.15,-1.01 -1.95,-1.12 -0.44,-0.05 -0.88,-0.02 -1.35,0.12 l -0.41,0.15 c -1.88,0.6 -6.28,2.01 -10.09,-0.75 -5.44,-3.96 -3.73,-9.59 -3.08,-11.22 0.39,-0.96 0.49,-1.98 0.3,-2.95 -0.41,-2.14 -0.26,-4.14 0.44,-5.96 1.21,-3.19 4.24,-5.58 7.91,-6.23 6.84,-1.21 10.4,1.77 11.92,3.65 0.4,0.48 0.94,0.76 1.61,0.81 0.63,0.02 1.27,-0.22 1.74,-0.68 1.14,-1.14 4.08,-2.82 7.52,-2.82 0.01,0 0.01,0 0.02,0 2.73,0 5.16,1.08 7.25,3.2 2.26,2.3 3.24,4.8 2.91,7.43 -0.08,0.66 -0.25,1.31 -0.49,1.94 -0.11,0.3 -0.34,0.38 -0.47,0.41 -0.26,0.05 -0.55,-0.04 -0.74,-0.25 -0.28,-0.31 -0.6,-0.57 -0.96,-0.81 -1.86,-1.23 -4.27,-1.32 -6,-0.23 -1.05,0.66 -2.73,2.33 -2.2,6.12 0.87,6.24 6.98,7.18 10.59,7.18 0.02,0 0.04,0 0.06,0 1.63,-0.01 2.77,-0.13 3.47,-0.36 0.01,0 0.02,0 0.03,-0.01 13.13,-2.91 15.01,-0.7 22.92,8.59 l 1.34,1.57 c 5.02,5.87 11.9,7.22 17.14,7.22 -2.74,0.54 -6.33,0.77 -10.88,0.22 z M 375.35,671.96 c -10.08,-2.75 -14.38,-7.59 -16.21,-11.17 -1.63,-3.19 -4.47,-5.58 -7.88,-6.58 -7.05,-2.04 -10.28,-6.17 -9.6,-12.26 0.55,-4.95 3.47,-8.66 8,-10.16 3.35,-1.11 7.13,-0.78 8.98,0.78 0.43,0.37 0.98,0.52 1.61,0.39 0.56,-0.11 1.03,-0.47 1.28,-0.98 0.86,-1.75 4.4,-7.35 13.99,-5.81 10.96,1.76 10.76,11.61 10.74,12.03 l -0.01,0.45 c -0.01,0.27 0.14,0.53 0.39,0.66 l 0.39,0.2 c 0.44,0.24 4.29,2.51 3.78,6.88 -0.27,2.31 -1.48,4.37 -3.31,5.65 -1.68,1.17 -3.71,1.55 -5.71,1.07 -0.9,-0.21 -1.84,-0.14 -2.74,0.21 -1.48,0.58 -5.49,1.7 -10.73,-0.54 -2.38,-1.01 -3.85,-2.57 -4.37,-4.63 -0.61,-2.44 0.29,-5.06 1.1,-6.06 1.05,-1.31 3.6,-2.55 6.06,-2.37 1.18,0.09 2.8,0.56 3.83,2.32 1.31,2.25 -0.31,3.64 -0.65,3.89 -0.78,0.59 -2.11,0.97 -3.27,0.09 -0.55,-0.43 -1.35,-0.38 -1.86,0.1 -0.3,0.29 -0.46,0.7 -0.44,1.12 0.02,0.42 0.23,0.8 0.56,1.06 2.28,1.73 5.03,1.2 6.74,-0.09 2.01,-1.52 3.23,-4.47 1.4,-7.62 -1.31,-2.25 -3.42,-3.54 -6.1,-3.74 -3.17,-0.23 -6.73,1.21 -8.51,3.44 -1.43,1.79 -2.46,5.3 -1.64,8.56 0.51,2.04 1.97,4.84 6.03,6.57 6,2.55 10.66,1.45 12.9,0.57 0.35,-0.13 0.7,-0.17 1.03,-0.09 2.82,0.67 5.67,0.13 8.02,-1.51 2.51,-1.75 4.15,-4.54 4.52,-7.67 0.02,-0.14 0.03,-0.28 0.04,-0.42 2.11,1.09 4.69,3.31 4.29,7.59 0,0.02 -0.22,2.19 -2.15,3.82 -1.76,1.48 -4.39,2.1 -7.81,1.87 -0.79,-0.06 -1.46,0.51 -1.54,1.28 -0.04,0.38 0.08,0.77 0.33,1.07 0.25,0.3 0.6,0.48 0.99,0.51 3.73,0.25 6.79,-0.4 9.07,-1.95 1.83,-0.59 23.34,-6.95 36.17,13.92 -1.13,0.46 -2.17,1.04 -3.03,1.7 -5.37,-6.79 -12.06,-8.58 -17.61,-8.58 -1.18,0 -2.3,0.08 -3.35,0.21 v 0 c -2.94,0.37 -5.92,1.37 -8.88,2.96 -2.99,1.6 -11.4,4.96 -24.84,1.26 z"
   id="path194" />
		<path
   class="st0"
   d="m 522.61,717.66 c 1.3,0.9 5.71,3.42 13.85,3.42 1.64,0 3.43,-0.1 5.39,-0.34 l 0.42,-0.05 c 10.02,-1.3 12.88,-4.13 15.9,-7.13 l 0.22,-0.22 c 0.63,-0.63 1.29,-1.27 2.03,-1.9 3.43,-2.91 5.16,-4.12 10.5,-2.33 5.2,1.74 22.8,6.54 31.25,-4.6 0.07,-0.08 0.23,-0.12 0.38,-0.07 l 0.38,0.12 c 2.27,0.74 7.56,2.45 12.48,-1.12 7.22,-5.23 4.58,-12.85 3.97,-14.33 -0.19,-0.49 -0.24,-1 -0.14,-1.46 0.5,-2.61 0.31,-5.1 -0.57,-7.4 -1.54,-4.05 -5.34,-7.07 -9.91,-7.89 -1.95,-0.35 -3.79,-0.41 -5.51,-0.2 4.08,-1.9 8.22,-1.99 11.32,-1.6 2.57,0.32 5.22,1.21 7.87,2.64 4.09,2.21 13.04,5.35 26.96,1.52 l 0.88,-0.25 c 10.51,-3.1 15.11,-8.44 17.13,-12.37 1.28,-2.51 3.51,-4.38 6.12,-5.14 0,0 0.19,-0.05 0.19,-0.05 8.22,-2.43 12.3,-7.86 11.47,-15.28 -0.68,-6.12 -4.31,-10.7 -9.95,-12.56 -3.71,-1.22 -7.73,-1.04 -10.51,0.48 -0.16,0.09 -0.34,0.05 -0.44,-0.1 -1.96,-2.94 -6.67,-7.66 -16.26,-6.11 -7.02,1.13 -10.23,5.14 -11.68,8.31 -1.11,2.4 -1.38,4.65 -1.45,5.8 -1.19,0.82 -3.36,2.65 -4.23,5.58 -2.01,0.75 -8.19,3.67 -7.5,11.09 v 0 c 0.03,0.3 0.12,0.98 0.44,1.87 0.07,0.19 0.04,0.39 -0.09,0.54 -0.07,0.08 -0.22,0.21 -0.46,0.18 -8.66,-1.2 -24.65,-0.58 -34.96,16.84 -0.89,-0.17 -1.8,-0.25 -2.6,-0.26 -3.46,0.01 -6.53,1.35 -9.12,3.98 -5.65,5.74 -3.51,11.48 -2.33,13.68 0,0 1.59,3.21 3.18,2.98 0.64,-0.11 1.1,-0.61 1.16,-1.19 0.01,-0.1 0.02,-0.21 0,-0.33 -0.16,-0.95 0.23,-1.81 1.08,-2.36 0.98,-0.65 2.3,-0.73 3.14,-0.2 0.88,0.55 1.24,1.79 1.01,3.52 -0.22,1.58 -0.99,2.8 -2.28,3.62 -3,1.87 -7.96,1.2 -8.52,1.04 -0.04,-0.02 -0.16,-0.05 -0.27,-0.06 -14.58,-3.24 -17.31,-0.04 -25.41,9.47 l -1.32,1.57 c -0.24,0.28 -0.5,0.56 -0.76,0.83 -4.05,4.19 -8.43,4.78 -8.48,4.78 -5.13,1.27 -10.09,0.5 -12.6,-0.06 0,0 0,0 -0.01,0 -0.8,-0.17 -1.61,0.23 -1.96,0.99 -0.35,0.78 -0.08,1.66 0.6,2.11 z m 8.04,0.27 c 5.23,-0.01 12.12,-1.35 17.14,-7.22 l 1.34,-1.57 c 7.92,-9.29 9.8,-11.5 22.92,-8.59 0.01,0 0.02,0 0.03,0.01 0.7,0.23 1.84,0.35 3.47,0.36 0.02,0 0.04,0 0.06,0 3.61,0 9.72,-0.94 10.59,-7.18 0.53,-3.78 -1.15,-5.46 -2.2,-6.12 -1.73,-1.09 -4.14,-1 -6,0.23 -0.36,0.24 -0.68,0.5 -0.96,0.81 -0.2,0.21 -0.48,0.3 -0.74,0.25 -0.13,-0.03 -0.36,-0.11 -0.47,-0.41 -0.24,-0.63 -0.4,-1.28 -0.49,-1.94 -0.33,-2.63 0.65,-5.13 2.91,-7.43 2.09,-2.12 4.52,-3.2 7.25,-3.2 0.01,0 0.01,0 0.02,0 3.43,0 6.37,1.69 7.52,2.82 0.47,0.46 1.11,0.7 1.74,0.68 0.66,-0.05 1.21,-0.33 1.61,-0.81 1.52,-1.89 5.08,-4.86 11.92,-3.65 3.66,0.66 6.7,3.04 7.91,6.23 0.7,1.82 0.85,3.83 0.44,5.96 -0.2,0.97 -0.09,2 0.3,2.95 0.65,1.63 2.36,7.26 -3.08,11.22 -3.82,2.76 -8.21,1.35 -10.09,0.75 l -0.41,-0.15 c -0.47,-0.14 -0.91,-0.17 -1.35,-0.12 -0.81,0.11 -1.5,0.51 -1.95,1.12 -7.4,9.75 -23.54,5.29 -28.31,3.69 -2.01,-0.67 -3.64,-0.98 -5.07,-0.98 -3.04,0 -5.16,1.42 -7.97,3.8 -0.94,0.81 -1.75,1.61 -2.4,2.26 -2.9,2.88 -5.34,5.3 -14.8,6.45 -4.56,0.53 -8.16,0.3 -10.88,-0.22 z m 93.16,-47.24 c -2.96,-1.6 -5.94,-2.6 -8.88,-2.96 v 0 c -1.05,-0.13 -2.18,-0.21 -3.35,-0.21 -5.55,0 -12.23,1.79 -17.61,8.58 -0.86,-0.65 -1.89,-1.23 -3.03,-1.7 12.83,-20.86 34.34,-14.5 36.17,-13.92 2.28,1.55 5.34,2.2 9.07,1.95 0.39,-0.03 0.74,-0.21 0.99,-0.51 0.25,-0.3 0.37,-0.69 0.33,-1.07 -0.08,-0.78 -0.75,-1.34 -1.54,-1.28 -3.42,0.23 -6.05,-0.39 -7.81,-1.87 -1.94,-1.63 -2.15,-3.79 -2.15,-3.82 -0.4,-4.27 2.18,-6.49 4.29,-7.59 0.01,0.14 0.02,0.28 0.04,0.42 0.37,3.13 2.02,5.92 4.52,7.67 2.35,1.64 5.19,2.18 8.02,1.51 0.33,-0.08 0.68,-0.05 1.03,0.09 2.24,0.88 6.9,1.98 12.9,-0.57 4.06,-1.73 5.52,-4.53 6.03,-6.57 0.82,-3.25 -0.21,-6.77 -1.64,-8.56 -1.78,-2.22 -5.34,-3.67 -8.51,-3.44 -2.68,0.2 -4.79,1.49 -6.1,3.74 -1.83,3.15 -0.62,6.09 1.4,7.62 1.71,1.29 4.46,1.82 6.74,0.09 0.33,-0.26 0.54,-0.65 0.56,-1.06 0.02,-0.42 -0.14,-0.83 -0.44,-1.12 -0.51,-0.49 -1.31,-0.53 -1.86,-0.1 -1.16,0.88 -2.49,0.5 -3.27,-0.09 -0.34,-0.26 -1.96,-1.64 -0.65,-3.89 1.03,-1.76 2.65,-2.24 3.83,-2.32 2.46,-0.18 5.01,1.06 6.06,2.37 0.81,1 1.71,3.63 1.1,6.06 -0.52,2.06 -1.99,3.62 -4.37,4.63 -5.24,2.24 -9.25,1.12 -10.73,0.54 -0.9,-0.35 -1.85,-0.42 -2.74,-0.21 -2,0.48 -4.03,0.1 -5.71,-1.07 -1.83,-1.28 -3.04,-3.34 -3.31,-5.65 -0.51,-4.37 3.33,-6.63 3.78,-6.88 l 0.39,-0.2 c 0.24,-0.13 0.39,-0.38 0.39,-0.66 l -0.01,-0.45 c -0.01,-0.42 -0.21,-10.27 10.74,-12.03 9.59,-1.55 13.13,4.05 13.99,5.81 0.25,0.52 0.72,0.87 1.28,0.98 0.63,0.13 1.18,-0.02 1.61,-0.39 1.85,-1.56 5.63,-1.88 8.98,-0.78 4.53,1.5 7.44,5.2 8,10.16 0.68,6.1 -2.55,10.22 -9.6,12.26 -3.41,1.01 -6.25,3.4 -7.88,6.58 -1.83,3.58 -6.13,8.42 -16.21,11.17 -13.44,3.71 -21.85,0.35 -24.84,-1.26 z"
   id="path196" />
	</g>
</g>
<text
   xml:space="preserve"
   style="font-size:666.667px;line-height:1.25;font-family:sans-serif"
   x="44.704208"
   y="588.30554"
   id="text7155"><tspan
     sodipodi:role="line"
     id="tspan7153"
     x="44.704208"
     y="588.30554"
     style="font-style:normal;font-variant:normal;font-weight:normal;font-stretch:normal;font-family:HanyiSentyFoundation;-inkscape-font-specification:HanyiSentyFoundation;fill:#ffffff;fill-opacity:1"></tspan></text></svg>
