<?xml version="1.0" encoding="UTF-8"?>
<svg width="82px" height="35px" version="1.1" xmlns="http://www.w3.org/2000/svg" xmlns:xlink="http://www.w3.org/1999/xlink">
    <title>Artboard</title>
    <g id="Artboard" stroke="none" stroke-width="1" fill="none" fill-rule="evenodd">
        <g id="army" transform="translate(1.000000, 0.000000)" fill-rule="nonzero">
            <path d="M54.2845692,3 L54.475,3.006 L54.4794296,3.18736547 L54.4900772,3.35431502 L54.5449792,3.87886883 L54.5556269,4.04581839 L54.5591206,4.23318386 L54.7254902,4.23318386 L54.7254902,3.67264574 L54.8606655,3.65110538 L55.0062389,3.60906502 L55.1414141,3.56053812 L55.1414141,4.56950673 L55.2858229,4.4579148 L55.3424718,4.38897982 L55.4144266,4.21649103 L55.4552704,4.00680493 L55.4704932,3.78483857 L55.4738206,3.56330605 L55.474,3.1 L55.677568,3.10384338 L55.9156989,3.1033527 L55.9156989,4.64290752 L55.7453092,4.66167982 L55.5057847,4.70190326 L55.3197938,4.72811674 L55.1683702,4.74126454 L54.9979805,4.7455445 L54.9979805,5.15609245 L55.1621501,5.12362837 L55.2041613,5.10018609 L55.2875717,5.06675722 L55.3997372,4.98455526 L55.5078241,4.84818149 L55.7642499,4.85111049 L56.0202168,4.86560925 L56.4255424,4.92151562 L56.5782278,4.93720111 L56.7314485,4.94677458 L57.0373546,4.95073637 L57.8515747,4.95271726 L58.0479664,4.96403812 L58.231816,4.9975491 L58.319713,5.02368047 L58.5842198,5.1108706 L58.7786997,5.15228719 L58.9751679,5.18349653 C59.1105823,5.20454737 59.2460987,5.22816414 59.3826348,5.24130168 L59.6373271,5.25579017 L59.8924783,5.25864733 L62.5436646,5.25911946 L62.7478315,5.26265017 L62.9515394,5.2761572 L63.4613829,5.34393867 L63.6650909,5.35744954 L64.1751639,5.36136643 L65.8065612,5.35938553 L66.0086631,5.34616589 L66.1994466,5.29943527 L66.2840806,5.25604035 L66.3569882,5.19727041 L66.4589569,5.0428428 L66.488018,4.96126692 L66.514122,4.81397258 L66.5204441,4.64290752 L66.9283189,4.64290752 L66.9283189,5.36136643 L67.5425019,5.3626866 L67.7440685,5.37055244 L68.4578494,5.4548174 L68.7126947,5.46369037 L69.7834426,5.46400341 L69.7834426,5.97718835 L68.7296376,5.97767645 L68.4914916,5.97435329 L68.253912,5.95976059 L67.9480059,5.9181105 C67.8461392,5.90384396 67.7447823,5.89081933 67.6420998,5.88373737 L67.4382389,5.87578686 L66.3165067,5.87502349 L66.1129771,5.88056589 L66.0121301,5.8897519 C65.9455105,5.90030298 65.8783018,5.91308927 65.8145525,5.93573783 L65.7220291,5.97806077 L65.6318888,6.03309472 L65.3696253,6.22919295 L65.2794849,6.2842269 L65.0889054,6.35519011 L64.989384,6.37253576 L64.8885369,6.38172177 L64.6850074,6.38726417 L62.2377585,6.3862378 L62.0338211,6.37855029 L61.8298837,6.35843344 L61.4220089,6.30252707 L61.1672783,6.2881579 L60.9121654,6.28518142 L60.6062592,6.28557144 L60.4028317,6.29111384 L60.3022905,6.30029985 L60.2044006,6.31772761 L60.0268731,6.39042539 L59.9539654,6.44919533 L59.8519967,6.60362294 L59.8229357,6.68519882 L59.7968317,6.83249316 L59.7905096,7.00355823 L59.1786974,7.00355823 L59.1786974,7.31146919 L57.1394253,7.31345008 L56.9373233,7.32666973 L56.8394334,7.34409749 L56.7465399,7.37340035 L56.5889982,7.47603733 C56.4970224,7.56870827 56.4549094,7.69913935 56.4406338,7.82663502 L56.4295574,7.97940376 L56.4260522,8.13256509 L56.4255424,10.8011268 L57.3432607,10.8011268 L57.3332678,10.6295896 L57.3140977,10.4768965 L57.2586267,10.0989871 L57.2455747,9.94629408 L57.241292,9.77475689 L58.1590104,9.77475689 L58.1590104,10.0826678 L59.2297965,10.0823548 L59.4846035,10.0734818 L59.6885409,10.053365 L59.994447,10.0093337 L60.1470942,9.99340189 L60.3003531,9.98407476 L60.6062592,9.98011297 L61.9318524,9.98003086 L61.9303229,11.3143117 C61.9269579,11.4520095 61.9210437,11.5897483 61.8920846,11.7248596 C61.8692436,11.8308939 61.8347782,11.9324737 61.7939907,12.0327706 L61.7248432,12.1878808 L61.6507247,12.3406816 L61.2168988,13.2141082 L61.0845944,13.4696884 L60.7397363,14.0855104 L60.3831517,14.7875474 L60.3266611,14.890287 L60.3014748,14.9403738 L60.1983844,15.1118802 L60.0720452,15.0995638 L59.9485611,15.0985374 L59.4841956,15.1107512 L58.5668852,15.1119829 L58.2613869,15.1179358 L58.1605399,15.1270705 L57.9657797,15.1737703 L57.7909033,15.2764073 L57.6456999,15.4349815 L57.5830911,15.5284838 L57.4720472,15.7280101 L57.3215414,16.0309945 L57.2067246,16.2746547 L57.1393233,16.4461611 L59.2806661,16.4461611 L59.2806661,16.754072 L60.3003531,16.754072 L60.3003531,15.9329761 L67.4382006,15.9337972 L67.6420998,15.9386212 L67.8455274,15.9616119 L68.0439585,16.0205255 C68.1065673,16.0433109 68.1628313,16.0790058 68.2159532,16.1188517 L68.2936798,16.1806392 L68.3911619,16.29549 L68.4578494,16.4461611 L68.6282391,16.4418503 L68.7800705,16.4287128 L69.2735991,16.3609724 L69.4263992,16.349708 L69.5795052,16.3450636 L69.8854113,16.3439346 L70.0895399,16.3479888 L70.2932861,16.3609724 L70.7011609,16.4169095 C70.8030277,16.4295339 70.9044865,16.4376422 71.007067,16.4421582 L71.2619506,16.4469308 L72.6386045,16.4459686 L72.8425037,16.4501639 L72.9957627,16.4595167 L73.1484098,16.4754126 L73.4543159,16.5195465 L73.6582533,16.5395607 L73.9130986,16.5484517 L74.983923,16.551133 L75.1877839,16.5599855 L75.3917213,16.592932 L75.49369,16.6235178 L75.6976274,16.7180464 L75.8528748,16.814089 L76.6153457,17.3392055 C76.777476,17.4471796 76.9381787,17.5597724 77.1251893,17.6200203 C77.2729419,17.6675925 77.4283231,17.675502 77.5829443,17.6770464 L78.8067806,17.6782668 L78.9596062,17.6838605 C79.0248662,17.6887871 79.0910326,17.6950365 79.155084,17.7099379 L79.2491974,17.739695 L79.3379101,17.7833157 L79.4235638,17.842332 L79.5041191,17.9157175 L79.6580919,18.0944085 L79.8018677,18.29414 L80.1353054,18.8068118 L80.6257749,19.5252707 C80.6964732,19.6343396 80.7703438,19.7442296 80.8322804,19.8599281 L80.9143463,20.0384556 L80.9714488,20.2437296 L80.9949016,20.4490036 L81,20.6542391 L81,22.2964694 L80.9938819,22.5017433 L80.9847047,22.6043803 L80.96737,22.7069147 L80.8949722,22.9107517 L80.7634326,23.1083279 L80.5860071,23.293485 L80.1842504,23.6389611 L79.0625946,24.5824003 L78.3548299,25.1995565 L78.2618344,25.2903903 L78.1767925,25.3847137 L78.0397466,25.5803398 L77.8945431,25.8561254 L77.7794205,25.9884244 L77.6204513,26.0594492 L77.4336446,26.072792 L77.3396294,26.0594492 L77.1679141,25.9884244 L77.0322958,25.8566385 L76.9796799,25.7735026 L76.9017758,25.5953248 L76.8557879,25.4444484 L76.8192831,25.272942 L76.2074709,25.272942 C76.2617216,25.3098419 76.3139561,25.3447591 76.3638229,25.387125 C76.3278146,25.7014064 76.2288694,26.0327671 76.0762556,26.3755365 L75.9517334,26.6382192 L75.9584633,26.8032595 L75.8970782,26.9562912 L75.7696173,27.0585177 L75.6998187,27.0784767 C75.5050686,27.3926221 75.2732646,27.7127077 75.0108011,28.034821 C74.9913911,28.1497041 74.9865724,28.2660618 74.9850559,28.3825836 L74.9838465,28.5573256 L74.8134568,28.5762108 L74.6616254,28.6025885 L74.4857274,28.6386735 C73.2329532,29.9961181 71.5094355,31.3463034 69.7892887,32.3991512 C69.188759,33.054662 68.3713879,33.5070098 67.4515475,33.6407321 C66.3590623,34.1244172 65.3692662,34.4108731 64.6273691,34.4108731 L21.6542144,34.8181818 L21.4623114,34.8181818 C21.0710642,34.8181818 20.6563222,34.7657336 20.2254309,34.6686259 L20.075686,34.6332507 C19.678149,34.5350765 19.267804,34.4002733 18.8502763,34.2348055 L18.5957559,34.130546 C16.170472,33.1052467 13.543872,31.0986897 11.7975052,29.2576275 L11.4561751,28.8873656 C11.1650687,28.5620093 10.9046452,28.2444719 10.68115,27.9413754 L10.410023,27.5531421 C10.1014408,27.0835455 9.89740061,26.6596419 9.82463607,26.3097765 L9.8015665,26.1644498 L9.82095424,26.0942045 L9.63747032,26.1008248 L9.51789927,26.1113835 L9.33190836,26.1370428 L9.01009513,26.1966749 L9.010503,24.965031 C9.01142072,24.862394 9.01223647,24.7596544 9.01927231,24.6573253 L9.04621754,24.4080586 L9.09340356,24.1101676 L9.11206383,23.9386612 L5.96057848,23.293485 C5.96057848,21.4941954 6.79442416,20.7756971 7.58512917,20.4490036 C8.02440973,20.2675072 8.4904279,20.1616343 8.98318368,20.1313849 L9.28204566,20.12231 L9.65586293,20.0572382 L9.82584476,20.0384556 L9.82584476,17.6778049 L9.99623446,17.6821157 L10.1480659,17.6952532 L10.5398296,17.7511904 L10.692413,17.7668553 L10.8455318,17.7764391 L11.1514379,17.7803393 L13.190812,17.7804419 L13.190812,19.5252707 L13.3612017,19.4809315 L13.5130331,19.4518852 L13.9047968,19.406725 L14.4144364,19.3359054 L14.8223112,19.2910531 L15.4341235,19.192111 C15.5696399,19.1697362 15.7050543,19.1455138 15.8417943,19.132171 C15.9998458,19.1166386 16.1588037,19.1141525 16.317671,19.1141601 L16.5557792,19.1147227 L16.5557792,17.5751679 L21.9601205,17.5751679 L21.9601205,18.2936268 L22.1305102,18.2748443 L22.4725132,18.2199335 L22.8778388,18.1750811 L23.2857137,18.1172965 L23.6935885,18.0723415 L23.8975259,18.0433979 L24.5093381,17.9280339 L24.7132755,17.8990903 L25.0191816,17.8671702 L25.5264759,17.7978902 L25.5264759,17.7978902 L25.7824429,17.7833542 L26.0388687,17.7804419 L26.0538581,17.563262 L26.0712947,17.4667833 L26.1431826,17.30513 L26.2706435,17.1644147 L26.3435511,17.1085802 L26.4823306,17.0288312 L26.6506809,16.959346 L26.8210706,17.1245916 L26.972902,17.2514509 L27.1628697,17.3735889 C27.2575986,17.4244968 27.3589555,17.4577512 27.4618419,17.4866948 L27.6672324,17.5349342 L27.8743053,17.5751679 L27.8044568,17.3179596 L27.7723366,17.16462 L27.9426244,17.1746784 L28.0921105,17.1939742 L28.4177985,17.2484744 L28.5880863,17.267257 L28.5880863,17.5751679 C28.725642,17.5740389 28.8631978,17.5758864 29.0005497,17.5663411 L29.3371068,17.5376864 C29.3932651,17.5337596 29.4494839,17.5311367 29.5058046,17.5311367 C29.6747667,17.5311367 29.8428112,17.5547432 30.0110595,17.5663411 L30.2172147,17.5739106 L30.4235229,17.5751679 L30.4556431,17.4218283 L30.5254916,17.16462 L32.7688031,17.16462 L32.7021156,17.0219546 L32.6673442,16.9885975 L32.6046335,16.9137752 L32.5326436,16.8540405 L32.3549121,16.7220493 L32.156481,16.5975506 L32.0549202,16.5461295 L31.8510848,16.4782864 C31.7846692,16.4626856 31.7160782,16.4557063 31.6475779,16.4519658 L31.5451787,16.4481112 C31.3751968,16.4435951 31.2050111,16.448727 31.0353351,16.4369237 L30.8820762,16.4224776 L30.4260721,16.3609724 L30.1701052,16.3464749 L29.9136794,16.3435241 L29.9136794,15.9329761 L27.976274,15.9328735 L27.6703679,15.9289733 L27.5171472,15.9193896 L27.3644618,15.9037246 L27.1605244,15.8738572 L26.956587,15.8477874 L26.8037869,15.8365615 L26.6506809,15.8318787 L23.8975259,15.8302365 L23.5916198,15.8263363 L23.4383608,15.8171246 L23.2857137,15.8006771 L22.8778388,15.7369395 C22.7760741,15.7239046 22.6745132,15.7162068 22.5719327,15.7136409 L22.4189414,15.7145261 L21.9601205,15.7265732 L19.958364,15.7273942 L19.2445831,15.712204 L18.8367083,15.7225703 L18.4288335,15.7275995 L16.1268519,15.7277022 L16.0950377,15.8944873 L16.0566975,16.074102 L16.0248832,16.2408871 L9.388561,16.238937 C9.30324718,16.2357895 9.21788804,16.2322314 9.13363168,16.2200214 L9.00821773,16.1941873 L8.74615816,16.1084854 L8.56210465,16.0621961 L8.41403335,16.0444912 L8.26496785,16.0375632 L7.95946961,16.0356131 L5.0477142,16.0356131 L4.56890463,15.9329761 L3.85512371,15.9325656 L3.65095687,15.9290503 L3.44724889,15.9155278 L3.24331148,15.889458 L3.03937408,15.8595907 L2.88666957,15.8439257 L2.73346796,15.834342 L2.42756185,15.8304418 L1.71425304,15.828389 L1.51582296,15.8151489 L1.42298148,15.7977006 L1.33832196,15.768449 L1.2654643,15.7248283 L1.2067701,15.6658121 C1.16897846,15.6177779 1.14766315,15.5610311 1.13368414,15.5023531 L1.11707537,15.4137356 L1.10786963,15.3152041 L1.09803475,15.0092432 L1.08821805,14.8550568 L1.07285725,14.7013323 L1.01730949,14.295403 L1.00695523,14.1737653 L1.00157359,14.0517428 L1,13.8802364 L3.24331148,13.8802364 L3.31002961,13.7438318 L3.40751169,13.661517 L3.56440073,13.6023981 L3.755123,13.5781757 L3.95803817,13.5730567 L8.26527375,13.5718122 L8.4677836,13.566783 L8.56730506,13.5590852 L8.75788456,13.5256256 L9.11018643,13.4137513 C9.193053,13.390829 9.27759639,13.3806794 9.3626685,13.3750609 L9.4905297,13.3690015 L12.5579473,13.3655119 L12.7622671,13.3570443 L12.9658221,13.3377999 L13.2717282,13.293666 L13.4756656,13.2736518 L13.6795266,13.2657128 L15.2090316,13.2649276 C15.3334589,13.267237 15.4592628,13.2672947 15.5811951,13.2913406 L15.7016424,13.3243545 L15.8796798,13.4137513 L15.9661493,13.4696884 L16.1441866,13.5755072 L16.3347661,13.642837 L16.4342876,13.6598748 L16.5351346,13.6689068 L16.7386642,13.6744492 L18.2248961,13.675373 C18.3610243,13.6770151 18.4972545,13.6782468 18.6327709,13.6923081 L18.9720925,13.7335605 C19.028772,13.7390649 19.0855799,13.7427028 19.1426144,13.7427028 C19.3137179,13.7427028 19.482782,13.7099616 19.6524579,13.6923081 L19.8562041,13.6791834 L20.0603327,13.675373 L21.8236902,13.6758405 C21.9369056,13.6771406 22.0502269,13.6819075 22.1615087,13.7015454 C22.2402285,13.715504 22.3166371,13.7362595 22.3917314,13.7619263 L22.5035117,13.8038745 L22.6739014,13.8802364 L22.740589,13.7758546 L22.7753603,13.7607669 L22.838071,13.7207385 L22.9950009,13.6836866 L23.2862235,13.6461214 C23.4560014,13.6227202 23.6243517,13.5932634 23.7955572,13.5815627 L23.9994181,13.5736084 L25.4781555,13.571979 L25.7329625,13.5630881 L25.9369,13.5430739 L26.2428061,13.49894 C26.3445708,13.4856998 26.4462336,13.4782073 26.5487122,13.4736913 L26.7526113,13.469496 L27.7724131,13.468444 L27.976274,13.4604511 L28.690055,13.3762888 L28.8926413,13.3683344 L29.6077733,13.3670514 L29.6398934,13.2137323 L29.709742,12.9565035 C29.9466153,12.9563495 30.1851201,12.9629183 30.4211776,12.9391578 L30.6781133,12.9019276 L30.9333664,12.8538665 L30.9376491,12.6823293 L30.9507011,12.5296363 L31.0061721,12.1517269 L31.0253422,11.9990338 L31.0353351,11.8274966 L31.74932,11.8278969 C31.8628452,11.8294912 31.9774127,11.8297991 32.0905753,11.841867 L32.2589596,11.8704194 L32.462897,11.9373387 L32.5648657,11.9828788 L32.7168246,12.0576691 L32.8707718,12.1282025 L33.0747092,12.1951218 L33.1766779,12.2149205 C33.2785447,12.2268982 33.3799016,12.2360329 33.482584,12.2304392 C33.5759194,12.2253621 33.6693001,12.2131825 33.7590401,12.1875384 L33.8904589,12.1381788 L33.9924276,12.0871785 L34.2983337,11.9095446 L34.4003024,11.858144 C34.4968667,11.8109823 34.6014866,11.7815871 34.7062085,11.760177 C34.795601,11.7419145 34.8865798,11.7346546 34.9776341,11.7306062 L35.3181737,11.7200331 L35.5219581,11.7074319 L36.0318016,11.6395683 L36.5414412,11.604877 L36.737629,11.5791138 L36.933205,11.5489706 L37.0850364,11.5296441 L37.2554261,11.5195857 L37.2554261,10.5958528 L37.5776472,10.5918089 L37.7678188,10.5785071 L38.0692383,10.5426355 L38.2599198,10.5407367 L38.4168496,10.5864307 L38.4795604,10.6416289 L38.5810192,10.8011268 L38.7514089,10.8027074 L38.9227164,10.8126965 L39.093412,10.8304296 L39.3967689,10.8743788 L39.4987376,10.885946 L39.702675,10.8956041 L39.8046437,10.892679 L40.0085811,10.8699449 C40.132626,10.8488222 40.2525412,10.8132892 40.3707102,10.7719766 L41.4780521,10.3556848 L41.7257341,10.2664804 L41.8775655,10.221977 L42.0479552,10.1853048 L42.0494847,10.0137676 L42.0546978,9.89304217 L42.0651879,9.77269388 L42.09068,9.58548402 L42.1499239,9.26157195 L42.472145,9.26204408 L42.6623166,9.26758648 L42.8639087,9.29420025 L43.0676422,9.36657985 C43.1413996,9.40218804 43.2086309,9.44821503 43.274684,9.49599673 L43.475517,9.64100036 L43.5774857,9.70363972 L43.7814231,9.77143145 L43.9853605,9.74530007 L44.0873292,9.70213095 L44.1892979,9.64456187 L44.3931334,9.50834206 L44.5948275,9.36262833 L44.7816341,9.20874469 L44.8599461,9.12559847 L44.9620168,8.94447498 L44.9789436,8.84848887 L44.9433565,8.65612662 L44.896145,8.56489261 L44.8346579,8.48046342 L44.6792576,8.3327688 L44.5059108,8.20351804 L44.4240299,8.13763535 L44.3524479,8.06754456 L44.2507851,7.90542943 C44.224953,7.84518152 44.2121276,7.78048145 44.2043024,7.71534041 L44.1953141,7.61779954 L44.1898078,7.41402407 L44.1898078,5.77199649 L44.1953141,5.5686213 L44.221724,5.37656696 L44.2507851,5.29135774 L44.2941218,5.2179415 L44.3527538,5.15854548 L44.4256614,5.11387786 L44.5102954,5.08203987 L44.7010789,5.0420525 L45.0050476,4.99493185 L45.208985,4.97386048 L45.4129224,4.98344678 L45.5148911,5.00507239 L45.6168598,5.0392813 L45.8203893,5.14516161 L46.0203499,5.29404683 L46.1160986,5.38076482 L46.2072586,5.47366155 L46.3704085,5.67077589 L46.4422964,5.7723044 L46.5723065,5.97718835 C46.6735615,6.14586967 46.7664422,6.32107486 46.8321929,6.50657534 L46.8882056,6.69564726 L46.9235887,6.90076728 L46.9329698,7.0030861 L46.9409234,7.20424433 L46.9424529,7.61938015 L47.1128426,7.55934778 L47.1626034,7.5534872 L47.264674,7.5332164 L47.4548457,7.52022256 L47.7594389,7.51689327 L48.4719835,7.51713318 C48.6081117,7.51835456 48.7442399,7.52095128 48.8798583,7.53417092 L49.0842928,7.56065383 L49.2877331,7.59411092 C49.4238613,7.61684502 49.5602955,7.63813193 49.6956079,7.66547442 C49.8324499,7.69311456 49.9680683,7.72659475 50.1034828,7.76050601 C50.3088477,7.81195793 50.5127851,7.86774113 50.715295,7.92982625 C50.9177029,7.9919011 51.1173576,8.06335697 51.3265974,8.09914648 C51.4618079,8.12225349 51.5978341,8.12863751 51.7341927,8.13083698 L51.9389194,8.13256509 L51.9389194,8.851024 L52.1093091,8.80263066 L52.2607327,8.72937864 L52.4447862,8.60116452 L52.614666,8.42978128 L52.7219371,8.23963599 L52.7356009,8.06279246 L52.6956292,7.98035444 L52.5507316,7.82465413 L52.5494443,7.66233116 L52.5447155,7.50026993 L52.5183056,7.30893405 L52.4459078,7.10604126 C52.3947195,7.00324005 52.3261739,6.91282827 52.2534438,6.82554273 L51.9708356,6.49290842 L51.8399078,6.30157255 L51.7699573,6.14872555 L51.734982,5.97718835 L51.9823963,6.02333266 L52.2309578,6.06247969 L52.3804439,6.07554538 L52.5507316,6.07982534 L52.585503,6.24961771 L52.6532102,6.39240628 L52.7706781,6.54936903 L52.8964056,6.67125045 L53.0605752,6.79828425 L53.0647143,6.38725201 C53.0672145,6.31880644 53.0712819,6.2504217 53.0779098,6.18214415 L53.1033128,5.98494642 L53.1333808,5.78838761 L53.1525509,5.63554061 L53.1625439,5.46400341 L53.3026489,5.35249859 L53.3331375,5.3083031 L53.4015585,5.22578297 L53.5035272,5.04743067 L53.6982874,4.64290752 L53.8404318,4.33499655 L53.9133394,4.12972258 L53.9565742,3.9244486 C53.9753992,3.80033396 52.8585956,3.84819498 52.6873901,3.74959444 L52.6654931,3.72170874 L53.9782935,3.00071572 L54.2845692,3 Z M33.2720934,30.993607 L33.2061456,31.1341159 C32.7929818,31.9641929 32.155853,32.6631883 31.3738593,33.1520017 L33.586,33.132 L33.5943329,33.1501577 L34.3787875,33.1501577 L34.389,33.126 L35.115,33.119 L35.1632421,33.2486751 L35.3339072,33.2492385 C34.5079777,32.7754611 33.8301676,32.0727101 33.3870575,31.2275662 L33.2720934,30.993607 Z M51.4539116,30.993607 L51.3879638,31.1341159 C50.9664483,31.9809722 50.3118217,32.6913938 49.5080787,33.1813862 L49.7544022,33.2285481 L49.9164458,33.2486751 L49.9806994,33.064893 L50.011,32.993 L50.739,32.987 L50.7913062,33.1386918 L52.1522002,33.1386918 L52.182,32.975 L53.0788073,32.9674583 C52.4578932,32.5197417 51.943854,31.9330406 51.5822701,31.2529357 L51.4539116,30.993607 Z M42.3630025,30.993607 L42.2970547,31.1341159 C41.9054065,31.9209665 41.312512,32.5900321 40.5857463,33.0739377 L42.6,33.056 L42.6167646,33.1354398 L42.7745438,33.1371383 L42.8867997,33.1431539 L42.9987016,33.1546898 L43.1837688,33.1834516 C43.2770577,33.1998707 43.3702523,33.2184413 43.4642022,33.2294251 L43.701225,33.245462 L43.9386728,33.2486751 L44.007,33.044 L44.0972189,33.044094 C43.423007,32.5847289 42.8669666,31.9647802 42.4841258,31.2392758 L42.3630025,30.993607 Z M24.1811843,30.993607 L24.1152365,31.1341159 C23.6792461,32.0100534 22.9938596,32.7400249 22.1520253,33.2310822 L23.153,33.221 L23.1597657,33.2486751 L23.3604024,33.2486751 L23.371,33.219 L24.444,33.21 L24.4639039,33.2486751 L25.0658138,33.2486751 L25.078,33.204 L26.1523719,33.1959776 C25.2933902,32.6789242 24.6025265,31.9109994 24.1811843,30.993607 Z M60.0903438,31.7838145 L60.0591031,31.8292632 C59.7597491,32.2446405 59.3982077,32.6122174 58.9881173,32.9183551 L61.1691417,32.899904 C60.8373025,32.6490046 60.5377368,32.3576713 60.277775,32.0332345 L60.0903438,31.7838145 Z M65.456328,5.93235711 L60.4652406,5.93235711 L60.4652406,6.20298737 L65.352347,6.20298737 L65.352347,6.11277728 L65.456328,5.93235711 Z" id="shadow" fill-opacity="0.53" fill="#000000"></path>
            <path d="M53.2845692,0 L53.475,0.006 L53.4794296,0.187365471 L53.4900772,0.354315022 L53.5449792,0.878868834 L53.5556269,1.04581839 L53.5591206,1.23318386 L53.7254902,1.23318386 L53.7254902,0.67264574 L53.8606655,0.651105381 L54.0062389,0.609065022 L54.1414141,0.560538117 L54.1414141,1.56950673 L54.2858229,1.4579148 L54.3424718,1.38897982 L54.4144266,1.21649103 L54.4552704,1.00680493 L54.4704932,0.784838565 L54.4738206,0.563306054 L54.474,0.1 L54.677568,0.103843381 L54.9156989,0.103352704 L54.9156989,1.64290752 L54.7453092,1.66167982 L54.5057847,1.70190326 L54.3197938,1.72811674 L54.1683702,1.74126454 L53.9979805,1.7455445 L53.9979805,2.15609245 L54.1621501,2.12362837 L54.2041613,2.10018609 L54.2875717,2.06675722 L54.3997372,1.98455526 L54.5078241,1.84818149 L54.7642499,1.85111049 L55.0202168,1.86560925 L55.4255424,1.92151562 L55.5782278,1.93720111 L55.7314485,1.94677458 L56.0373546,1.95073637 L56.8515747,1.95271726 L57.0479664,1.96403812 L57.231816,1.9975491 L57.319713,2.02368047 L57.5842198,2.1108706 L57.7786997,2.15228719 L57.9751679,2.18349653 C58.1105823,2.20454737 58.2460987,2.22816414 58.3826348,2.24130168 L58.6373271,2.25579017 L58.8924783,2.25864733 L61.5436646,2.25911946 L61.7478315,2.26265017 L61.9515394,2.2761572 L62.4613829,2.34393867 L62.6650909,2.35744954 L63.1751639,2.36136643 L64.8065612,2.35938553 L65.0086631,2.34616589 L65.1994466,2.29943527 L65.2840806,2.25604035 L65.3569882,2.19727041 L65.4589569,2.0428428 L65.488018,1.96126692 L65.514122,1.81397258 L65.5204441,1.64290752 L65.9283189,1.64290752 L65.9283189,2.36136643 L66.5425019,2.3626866 L66.7440685,2.37055244 L67.4578494,2.4548174 L67.7126947,2.46369037 L68.7834426,2.46400341 L68.7834426,2.97718835 L67.7296376,2.97767645 L67.4914916,2.97435329 L67.253912,2.95976059 L66.9480059,2.9181105 C66.8461392,2.90384396 66.7447823,2.89081933 66.6420998,2.88373737 L66.4382389,2.87578686 L65.3165067,2.87502349 L65.1129771,2.88056589 L65.0121301,2.8897519 C64.9455105,2.90030298 64.8783018,2.91308927 64.8145525,2.93573783 L64.7220291,2.97806077 L64.6318888,3.03309472 L64.3696253,3.22919295 L64.2794849,3.2842269 L64.0889054,3.35519011 L63.989384,3.37253576 L63.8885369,3.38172177 L63.6850074,3.38726417 L61.2377585,3.3862378 L61.0338211,3.37855029 L60.8298837,3.35843344 L60.4220089,3.30252707 L60.1672783,3.2881579 L59.9121654,3.28518142 L59.6062592,3.28557144 L59.4028317,3.29111384 L59.3022905,3.30029985 L59.2044006,3.31772761 L59.0268731,3.39042539 L58.9539654,3.44919533 L58.8519967,3.60362294 L58.8229357,3.68519882 L58.7968317,3.83249316 L58.7905096,4.00355823 L58.1786974,4.00355823 L58.1786974,4.31146919 L56.1394253,4.31345008 L55.9373233,4.32666973 L55.8394334,4.34409749 L55.7465399,4.37340035 L55.5889982,4.47603733 C55.4970224,4.56870827 55.4549094,4.69913935 55.4406338,4.82663502 L55.4295574,4.97940376 L55.4260522,5.13256509 L55.4255424,7.80112676 L56.3432607,7.80112676 L56.3332678,7.62958956 L56.3140977,7.47689652 L56.2586267,7.09898713 L56.2455747,6.94629408 L56.241292,6.77475689 L57.1590104,6.77475689 L57.1590104,7.08266785 L58.2297965,7.08235481 L58.4846035,7.07348184 L58.6885409,7.05336499 L58.994447,7.00933372 L59.1470942,6.99340189 L59.3003531,6.98407476 L59.6062592,6.98011297 L60.9318524,6.98003086 L60.9303229,8.3143117 C60.9269579,8.45200948 60.9210437,8.58974832 60.8920846,8.72485965 C60.8692436,8.83089392 60.8347782,8.93247375 60.7939907,9.03277061 L60.7248432,9.18788076 L60.6507247,9.34068157 L60.2168988,10.2141082 L60.0845944,10.4696884 L59.7397363,11.0855104 L59.3831517,11.7875474 L59.3266611,11.890287 L59.3014748,11.9403738 L59.1983844,12.1118802 L59.0720452,12.0995638 L58.9485611,12.0985374 L58.4841956,12.1107512 L57.5668852,12.1119829 L57.2613869,12.1179358 L57.1605399,12.1270705 L56.9657797,12.1737703 L56.7909033,12.2764073 L56.6456999,12.4349815 L56.5830911,12.5284838 L56.4720472,12.7280101 L56.3215414,13.0309945 L56.2067246,13.2746547 L56.1393233,13.4461611 L58.2806661,13.4461611 L58.2806661,13.754072 L59.3003531,13.754072 L59.3003531,12.9329761 L66.4382006,12.9337972 L66.6420998,12.9386212 L66.8455274,12.9616119 L67.0439585,13.0205255 C67.1065673,13.0433109 67.1628313,13.0790058 67.2159532,13.1188517 L67.2936798,13.1806392 L67.3911619,13.29549 L67.4578494,13.4461611 L67.6282391,13.4418503 L67.7800705,13.4287128 L68.2735991,13.3609724 L68.4263992,13.349708 L68.5795052,13.3450636 L68.8854113,13.3439346 L69.0895399,13.3479888 L69.2932861,13.3609724 L69.7011609,13.4169095 C69.8030277,13.4295339 69.9044865,13.4376422 70.007067,13.4421582 L70.2619506,13.4469308 L71.6386045,13.4459686 L71.8425037,13.4501639 L71.9957627,13.4595167 L72.1484098,13.4754126 L72.4543159,13.5195465 L72.6582533,13.5395607 L72.9130986,13.5484517 L73.983923,13.551133 L74.1877839,13.5599855 L74.3917213,13.592932 L74.49369,13.6235178 L74.6976274,13.7180464 L74.8528748,13.814089 L75.6153457,14.3392055 C75.777476,14.4471796 75.9381787,14.5597724 76.1251893,14.6200203 C76.2729419,14.6675925 76.4283231,14.675502 76.5829443,14.6770464 L77.8067806,14.6782668 L77.9596062,14.6838605 C78.0248662,14.6887871 78.0910326,14.6950365 78.155084,14.7099379 L78.2491974,14.739695 L78.3379101,14.7833157 L78.4235638,14.842332 L78.5041191,14.9157175 L78.6580919,15.0944085 L78.8018677,15.29414 L79.1353054,15.8068118 L79.6257749,16.5252707 C79.6964732,16.6343396 79.7703438,16.7442296 79.8322804,16.8599281 L79.9143463,17.0384556 L79.9714488,17.2437296 L79.9949016,17.4490036 L80,17.6542391 L80,19.2964694 L79.9938819,19.5017433 L79.9847047,19.6043803 L79.96737,19.7069147 L79.8949722,19.9107517 L79.7634326,20.1083279 L79.5860071,20.293485 L79.1842504,20.6389611 L78.0625946,21.5824003 L77.3548299,22.1995565 L77.2618344,22.2903903 L77.1767925,22.3847137 L77.0397466,22.5803398 L76.8945431,22.8561254 L76.7794205,22.9884244 L76.6204513,23.0594492 L76.4336446,23.072792 L76.3396294,23.0594492 L76.1679141,22.9884244 L76.0322958,22.8566385 L75.9796799,22.7735026 L75.9017758,22.5953248 L75.8557879,22.4444484 L75.8192831,22.272942 L75.2074709,22.272942 C75.2617216,22.3098419 75.3139561,22.3447591 75.3638229,22.387125 C75.3278146,22.7014064 75.2288694,23.0327671 75.0762556,23.3755365 L74.9517334,23.6382192 L74.9584633,23.8032595 L74.8970782,23.9562912 L74.7696173,24.0585177 L74.6998187,24.0784767 C74.5050686,24.3926221 74.2732646,24.7127077 74.0108011,25.034821 C73.9913911,25.1497041 73.9865724,25.2660618 73.9850559,25.3825836 L73.9838465,25.5573256 L73.8134568,25.5762108 L73.6616254,25.6025885 L73.4857274,25.6386735 C72.2329532,26.9961181 70.5094355,28.3463034 68.7892887,29.3991512 C68.188759,30.054662 67.3713879,30.5070098 66.4515475,30.6407321 C65.3590623,31.1244172 64.3692662,31.4108731 63.6273691,31.4108731 L20.6542144,31.8181818 L20.4623114,31.8181818 C20.0710642,31.8181818 19.6563222,31.7657336 19.2254309,31.6686259 L19.075686,31.6332507 C18.678149,31.5350765 18.267804,31.4002733 17.8502763,31.2348055 L17.5957559,31.130546 C15.170472,30.1052467 12.543872,28.0986897 10.7975052,26.2576275 L10.4561751,25.8873656 C10.1650687,25.5620093 9.90464517,25.2444719 9.68115005,24.9413754 L9.41002295,24.5531421 C9.10144077,24.0835455 8.89740061,23.6596419 8.82463607,23.3097765 L8.8015665,23.1644498 L8.82095424,23.0942045 L8.63747032,23.1008248 L8.51789927,23.1113835 L8.33190836,23.1370428 L8.01009513,23.1966749 L8.010503,21.965031 C8.01142072,21.862394 8.01223647,21.7596544 8.01927231,21.6573253 L8.04621754,21.4080586 L8.09340356,21.1101676 L8.11206383,20.9386612 L4.96057848,20.293485 C4.96057848,18.4941954 5.79442416,17.7756971 6.58512917,17.4490036 C7.02440973,17.2675072 7.4904279,17.1616343 7.98318368,17.1313849 L8.28204566,17.12231 L8.65586293,17.0572382 L8.82584476,17.0384556 L8.82584476,14.6778049 L8.99623446,14.6821157 L9.14806586,14.6952532 L9.53982962,14.7511904 L9.69241304,14.7668553 L9.8455318,14.7764391 L10.1514379,14.7803393 L12.190812,14.7804419 L12.190812,16.5252707 L12.3612017,16.4809315 L12.5130331,16.4518852 L12.9047968,16.406725 L13.4144364,16.3359054 L13.8223112,16.2910531 L14.4341235,16.192111 C14.5696399,16.1697362 14.7050543,16.1455138 14.8417943,16.132171 C14.9998458,16.1166386 15.1588037,16.1141525 15.317671,16.1141601 L15.5557792,16.1147227 L15.5557792,14.5751679 L20.9601205,14.5751679 L20.9601205,15.2936268 L21.1305102,15.2748443 L21.4725132,15.2199335 L21.8778388,15.1750811 L22.2857137,15.1172965 L22.6935885,15.0723415 L22.8975259,15.0433979 L23.5093381,14.9280339 L23.7132755,14.8990903 L24.0191816,14.8671702 L24.5264759,14.7978902 L24.5264759,14.7978902 L24.7824429,14.7833542 L25.0388687,14.7804419 L25.0538581,14.563262 L25.0712947,14.4667833 L25.1431826,14.30513 L25.2706435,14.1644147 L25.3435511,14.1085802 L25.4823306,14.0288312 L25.6506809,13.959346 L25.8210706,14.1245916 L25.972902,14.2514509 L26.1628697,14.3735889 C26.2575986,14.4244968 26.3589555,14.4577512 26.4618419,14.4866948 L26.6672324,14.5349342 L26.8743053,14.5751679 L26.8044568,14.3179596 L26.7723366,14.16462 L26.9426244,14.1746784 L27.0921105,14.1939742 L27.4177985,14.2484744 L27.5880863,14.267257 L27.5880863,14.5751679 C27.725642,14.5740389 27.8631978,14.5758864 28.0005497,14.5663411 L28.3371068,14.5376864 C28.3932651,14.5337596 28.4494839,14.5311367 28.5058046,14.5311367 C28.6747667,14.5311367 28.8428112,14.5547432 29.0110595,14.5663411 L29.2172147,14.5739106 L29.4235229,14.5751679 L29.4556431,14.4218283 L29.5254916,14.16462 L31.7688031,14.16462 L31.7021156,14.0219546 L31.6673442,13.9885975 L31.6046335,13.9137752 L31.5326436,13.8540405 L31.3549121,13.7220493 L31.156481,13.5975506 L31.0549202,13.5461295 L30.8510848,13.4782864 C30.7846692,13.4626856 30.7160782,13.4557063 30.6475779,13.4519658 L30.5451787,13.4481112 C30.3751968,13.4435951 30.2050111,13.448727 30.0353351,13.4369237 L29.8820762,13.4224776 L29.4260721,13.3609724 L29.1701052,13.3464749 L28.9136794,13.3435241 L28.9136794,12.9329761 L26.976274,12.9328735 L26.6703679,12.9289733 L26.5171472,12.9193896 L26.3644618,12.9037246 L26.1605244,12.8738572 L25.956587,12.8477874 L25.8037869,12.8365615 L25.6506809,12.8318787 L22.8975259,12.8302365 L22.5916198,12.8263363 L22.4383608,12.8171246 L22.2857137,12.8006771 L21.8778388,12.7369395 C21.7760741,12.7239046 21.6745132,12.7162068 21.5719327,12.7136409 L21.4189414,12.7145261 L20.9601205,12.7265732 L18.958364,12.7273942 L18.2445831,12.712204 L17.8367083,12.7225703 L17.4288335,12.7275995 L15.1268519,12.7277022 L15.0950377,12.8944873 L15.0566975,13.074102 L15.0248832,13.2408871 L8.388561,13.238937 C8.30324718,13.2357895 8.21788804,13.2322314 8.13363168,13.2200214 L8.00821773,13.1941873 L7.74615816,13.1084854 L7.56210465,13.0621961 L7.41403335,13.0444912 L7.26496785,13.0375632 L6.95946961,13.0356131 L4.0477142,13.0356131 L3.56890463,12.9329761 L2.85512371,12.9325656 L2.65095687,12.9290503 L2.44724889,12.9155278 L2.24331148,12.889458 L2.03937408,12.8595907 L1.88666957,12.8439257 L1.73346796,12.834342 L1.42756185,12.8304418 L0.714253042,12.828389 L0.515822964,12.8151489 L0.422981479,12.7977006 L0.338321962,12.768449 L0.265464304,12.7248283 L0.206770098,12.6658121 C0.168978457,12.6177779 0.147663146,12.5610311 0.133684143,12.5023531 L0.117075367,12.4137356 L0.107869633,12.3152041 L0.0980347512,12.0092432 L0.0882180456,11.8550568 L0.0728572507,11.7013323 L0.0173094934,11.295403 L0.0069552292,11.1737653 L0.00157359123,11.0517428 L0,10.8802364 L2.24331148,10.8802364 L2.31002961,10.7438318 L2.40751169,10.661517 L2.56440073,10.6023981 L2.755123,10.5781757 L2.95803817,10.5730567 L7.26527375,10.5718122 L7.4677836,10.566783 L7.56730506,10.5590852 L7.75788456,10.5256256 L8.11018643,10.4137513 C8.193053,10.390829 8.27759639,10.3806794 8.3626685,10.3750609 L8.4905297,10.3690015 L11.5579473,10.3655119 L11.7622671,10.3570443 L11.9658221,10.3377999 L12.2717282,10.293666 L12.4756656,10.2736518 L12.6795266,10.2657128 L14.2090316,10.2649276 C14.3334589,10.267237 14.4592628,10.2672947 14.5811951,10.2913406 L14.7016424,10.3243545 L14.8796798,10.4137513 L14.9661493,10.4696884 L15.1441866,10.5755072 L15.3347661,10.642837 L15.4342876,10.6598748 L15.5351346,10.6689068 L15.7386642,10.6744492 L17.2248961,10.675373 C17.3610243,10.6770151 17.4972545,10.6782468 17.6327709,10.6923081 L17.9720925,10.7335605 C18.028772,10.7390649 18.0855799,10.7427028 18.1426144,10.7427028 C18.3137179,10.7427028 18.482782,10.7099616 18.6524579,10.6923081 L18.8562041,10.6791834 L19.0603327,10.675373 L20.8236902,10.6758405 C20.9369056,10.6771406 21.0502269,10.6819075 21.1615087,10.7015454 C21.2402285,10.715504 21.3166371,10.7362595 21.3917314,10.7619263 L21.5035117,10.8038745 L21.6739014,10.8802364 L21.740589,10.7758546 L21.7753603,10.7607669 L21.838071,10.7207385 L21.9950009,10.6836866 L22.2862235,10.6461214 C22.4560014,10.6227202 22.6243517,10.5932634 22.7955572,10.5815627 L22.9994181,10.5736084 L24.4781555,10.571979 L24.7329625,10.5630881 L24.9369,10.5430739 L25.2428061,10.49894 C25.3445708,10.4856998 25.4462336,10.4782073 25.5487122,10.4736913 L25.7526113,10.469496 L26.7724131,10.468444 L26.976274,10.4604511 L27.690055,10.3762888 L27.8926413,10.3683344 L28.6077733,10.3670514 L28.6398934,10.2137323 L28.709742,9.9565035 C28.9466153,9.95634954 29.1851201,9.96291831 29.4211776,9.93915785 L29.6781133,9.90192756 L29.9333664,9.85386651 L29.9376491,9.68232931 L29.9507011,9.52963627 L30.0061721,9.15172688 L30.0253422,8.99903383 L30.0353351,8.82749663 L30.74932,8.82789692 C30.8628452,8.82949121 30.9774127,8.82979912 31.0905753,8.84186695 L31.2589596,8.87041942 L31.462897,8.93733874 L31.5648657,8.98287877 L31.7168246,9.05766906 L31.8707718,9.12820248 L32.0747092,9.1951218 L32.1766779,9.21492047 C32.2785447,9.22689821 32.3799016,9.2360329 32.482584,9.23043918 C32.5759194,9.22536207 32.6693001,9.21318248 32.7590401,9.18753844 L32.8904589,9.1381788 L32.9924276,9.08717848 L33.2983337,8.90954464 L33.4003024,8.85814404 C33.4968667,8.81098234 33.6014866,8.78158711 33.7062085,8.76017703 C33.795601,8.74191449 33.8865798,8.73465464 33.9776341,8.73060618 L34.3181737,8.72003314 L34.5219581,8.70743189 L35.0318016,8.63956831 L35.5414412,8.60487701 L35.737629,8.57911384 L35.933205,8.54897064 L36.0850364,8.5296441 L36.2554261,8.51958567 L36.2554261,7.59585279 L36.5776472,7.59180889 L36.7678188,7.57850713 L37.0692383,7.54263551 L37.2599198,7.54073672 L37.4168496,7.58643071 L37.4795604,7.64162888 L37.5810192,7.80112676 L37.7514089,7.80270737 L37.9227164,7.81269651 L38.093412,7.83042962 L38.3967689,7.87437878 L38.4987376,7.88594597 L38.702675,7.89560411 L38.8046437,7.89267895 L39.0085811,7.86994486 C39.132626,7.84882217 39.2525412,7.81328924 39.3707102,7.77197657 L40.4780521,7.3556848 L40.7257341,7.26648043 L40.8775655,7.22197703 L41.0479552,7.18530484 L41.0494847,7.01376764 L41.0546978,6.89304217 L41.0651879,6.77269388 L41.09068,6.58548402 L41.1499239,6.26157195 L41.472145,6.26204408 L41.6623166,6.26758648 L41.8639087,6.29420025 L42.0676422,6.36657985 C42.1413996,6.40218804 42.2086309,6.44821503 42.274684,6.49599673 L42.475517,6.64100036 L42.5774857,6.70363972 L42.7814231,6.77143145 L42.9853605,6.74530007 L43.0873292,6.70213095 L43.1892979,6.64456187 L43.3931334,6.50834206 L43.5948275,6.36262833 L43.7816341,6.20874469 L43.8599461,6.12559847 L43.9620168,5.94447498 L43.9789436,5.84848887 L43.9433565,5.65612662 L43.896145,5.56489261 L43.8346579,5.48046342 L43.6792576,5.3327688 L43.5059108,5.20351804 L43.4240299,5.13763535 L43.3524479,5.06754456 L43.2507851,4.90542943 C43.224953,4.84518152 43.2121276,4.78048145 43.2043024,4.71534041 L43.1953141,4.61779954 L43.1898078,4.41402407 L43.1898078,2.77199649 L43.1953141,2.5686213 L43.221724,2.37656696 L43.2507851,2.29135774 L43.2941218,2.2179415 L43.3527538,2.15854548 L43.4256614,2.11387786 L43.5102954,2.08203987 L43.7010789,2.0420525 L44.0050476,1.99493185 L44.208985,1.97386048 L44.4129224,1.98344678 L44.5148911,2.00507239 L44.6168598,2.0392813 L44.8203893,2.14516161 L45.0203499,2.29404683 L45.1160986,2.38076482 L45.2072586,2.47366155 L45.3704085,2.67077589 L45.4422964,2.7723044 L45.5723065,2.97718835 C45.6735615,3.14586967 45.7664422,3.32107486 45.8321929,3.50657534 L45.8882056,3.69564726 L45.9235887,3.90076728 L45.9329698,4.0030861 L45.9409234,4.20424433 L45.9424529,4.61938015 L46.1128426,4.55934778 L46.1626034,4.5534872 L46.264674,4.5332164 L46.4548457,4.52022256 L46.7594389,4.51689327 L47.4719835,4.51713318 C47.6081117,4.51835456 47.7442399,4.52095128 47.8798583,4.53417092 L48.0842928,4.56065383 L48.2877331,4.59411092 C48.4238613,4.61684502 48.5602955,4.63813193 48.6956079,4.66547442 C48.8324499,4.69311456 48.9680683,4.72659475 49.1034828,4.76050601 C49.3088477,4.81195793 49.5127851,4.86774113 49.715295,4.92982625 C49.9177029,4.9919011 50.1173576,5.06335697 50.3265974,5.09914648 C50.4618079,5.12225349 50.5978341,5.12863751 50.7341927,5.13083698 L50.9389194,5.13256509 L50.9389194,5.851024 L51.1093091,5.80263066 L51.2607327,5.72937864 L51.4447862,5.60116452 L51.614666,5.42978128 L51.7219371,5.23963599 L51.7356009,5.06279246 L51.6956292,4.98035444 L51.5507316,4.82465413 L51.5494443,4.66233116 L51.5447155,4.50026993 L51.5183056,4.30893405 L51.4459078,4.10604126 C51.3947195,4.00324005 51.3261739,3.91282827 51.2534438,3.82554273 L50.9708356,3.49290842 L50.8399078,3.30157255 L50.7699573,3.14872555 L50.734982,2.97718835 L50.9823963,3.02333266 L51.2309578,3.06247969 L51.3804439,3.07554538 L51.5507316,3.07982534 L51.585503,3.24961771 L51.6532102,3.39240628 L51.7706781,3.54936903 L51.8964056,3.67125045 L52.0605752,3.79828425 L52.0647143,3.38725201 C52.0672145,3.31880644 52.0712819,3.2504217 52.0779098,3.18214415 L52.1033128,2.98494642 L52.1333808,2.78838761 L52.1525509,2.63554061 L52.1625439,2.46400341 L52.3026489,2.35249859 L52.3331375,2.3083031 L52.4015585,2.22578297 L52.5035272,2.04743067 L52.6982874,1.64290752 L52.8404318,1.33499655 L52.9133394,1.12972258 L52.9565742,0.924448603 C52.9753992,0.800333958 51.8585956,0.848194982 51.6873901,0.749594435 L51.6654931,0.721708735 L52.9782935,0.000715716195 L53.2845692,0 Z M32.2720934,27.993607 L32.2061456,28.1341159 C31.7929818,28.9641929 31.155853,29.6631883 30.3738593,30.1520017 L32.586,30.132 L32.5943329,30.1501577 L33.3787875,30.1501577 L33.389,30.126 L34.115,30.119 L34.1632421,30.2486751 L34.3339072,30.2492385 C33.5079777,29.7754611 32.8301676,29.0727101 32.3870575,28.2275662 L32.2720934,27.993607 Z M50.4539116,27.993607 L50.3879638,28.1341159 C49.9664483,28.9809722 49.3118217,29.6913938 48.5080787,30.1813862 L48.7544022,30.2285481 L48.9164458,30.2486751 L48.9806994,30.064893 L49.011,29.993 L49.739,29.987 L49.7913062,30.1386918 L51.1522002,30.1386918 L51.182,29.975 L52.0788073,29.9674583 C51.4578932,29.5197417 50.943854,28.9330406 50.5822701,28.2529357 L50.4539116,27.993607 Z M41.3630025,27.993607 L41.2970547,28.1341159 C40.9054065,28.9209665 40.312512,29.5900321 39.5857463,30.0739377 L41.6,30.056 L41.6167646,30.1354398 L41.7745438,30.1371383 L41.8867997,30.1431539 L41.9987016,30.1546898 L42.1837688,30.1834516 C42.2770577,30.1998707 42.3702523,30.2184413 42.4642022,30.2294251 L42.701225,30.245462 L42.9386728,30.2486751 L43.007,30.044 L43.0972189,30.044094 C42.423007,29.5847289 41.8669666,28.9647802 41.4841258,28.2392758 L41.3630025,27.993607 Z M23.1811843,27.993607 L23.1152365,28.1341159 C22.6792461,29.0100534 21.9938596,29.7400249 21.1520253,30.2310822 L22.153,30.221 L22.1597657,30.2486751 L22.3604024,30.2486751 L22.371,30.219 L23.444,30.21 L23.4639039,30.2486751 L24.0658138,30.2486751 L24.078,30.204 L25.1523719,30.1959776 C24.2933902,29.6789242 23.6025265,28.9109994 23.1811843,27.993607 Z M59.0903438,28.7838145 L59.0591031,28.8292632 C58.7597491,29.2446405 58.3982077,29.6122174 57.9881173,29.9183551 L60.1691417,29.899904 C59.8373025,29.6490046 59.5377368,29.3576713 59.277775,29.0332345 L59.0903438,28.7838145 Z M64.456328,2.93235711 L59.4652406,2.93235711 L59.4652406,3.20298737 L64.352347,3.20298737 L64.352347,3.11277728 L64.456328,2.93235711 Z" id="body" stroke="#000000" fill="#FF0000"></path>
        </g>
    </g>
</svg>