<?xml version="1.0" encoding="UTF-8"?>
<svg width="95px" height="29px" version="1.1" xmlns="http://www.w3.org/2000/svg" xmlns:xlink="http://www.w3.org/1999/xlink">
    <title>Artboard Copy 2</title>
    <g id="Artboard-Copy-2" stroke="none" stroke-width="1" fill="none" fill-rule="evenodd">
        <g id="fleet" transform="translate(1.000000, 3.000000)" fill-rule="nonzero">
            <path d="M34.384316,3.47916667 L34.3080212,3.97608167 L34.2803456,4.26890361 L34.2043,4.82793139 L34.0933483,5.20948861 L33.9479891,5.55555556 L34.2319756,6.03472222 L34.3773348,6.53165 L34.4189729,6.83333333 L34.4396672,7.15277778 L34.4466485,7.79166667 L34.4466485,8.09335 L34.4466485,9.06944444 L32.4520109,9.06944444 L32.2026812,9.38888889 L32.2026812,10.0277778 L31.2053625,10.0277778 L31.2053625,9.05168333 L31.2053625,8.43055556 L31.2123437,8.11111111 L31.2260568,7.79166667 L31.2816573,7.15277778 L31.3023517,6.83333333 L31.3023517,6.51388889 L31.2537324,5.875 L31.2260568,5.57331667 L31.2053625,5.07638889 L31.2053625,4.59722222 L30.9076628,4.69483167 L30.8106736,4.81018306 L30.4573734,5.23611111 L30.5404002,5.71527778 L30.5473814,6.19444444 L30.5404002,6.35416667 L30.4573734,6.83333333 L30.7413599,7.08179722 L30.7897299,7.2504 L30.8867191,7.5077125 L30.9490515,8.11111111 L30.9560328,8.75 L30.9560328,9.05168333 L30.9560328,10.0277778 L30.4434109,10.0543875 L29.9726765,10.1520097 L29.5847195,10.2673611 L29.2107249,10.3472222 L29.2107249,8.43055556 L28.2134062,8.43055556 L27.9640765,8.11111111 L27.9640765,7.45446111 L27.9640765,7.13501667 L27.9847708,6.51388889 L28.0124464,6.19444444 L28.0610657,5.55555556 L28.0610657,5.23611111 L28.0124464,4.61497056 L27.9847708,4.4375 L27.9640765,3.95833333 L27.4654171,3.95833333 L27.4447227,4.4375 L27.4170471,4.61497056 L27.3684278,5.23611111 L27.3891222,5.875 L27.4447227,6.51388889 L27.4654171,7.15277778 L27.4654171,7.45446111 L27.4654171,8.43055556 L26.4680983,8.43055556 L26.4680983,10.3472222 L24.7227905,10.3472222 L24.7227905,14.5 L23.2268123,14.5 L23.0258526,14.9791667 L22.9844639,15.15665 L22.8944558,15.4760944 L22.8321234,15.7777778 L22.7488473,16.3989056 L22.7351342,16.71835 L22.7281529,17.375 L22.4788232,17.6944444 L22.1048287,17.703325 L21.7168717,17.765425 L21.2321748,17.8896569 L20.7335154,17.9872792 L20.4841857,18.0050083 L19.9855263,18.0138889 L19.7361966,18.0138889 L19.2375372,18.0138889 L16.99357,18.0138889 L16.99357,11.625 L16.8135041,11.8734639 L16.8065727,12.0420667 L16.758103,12.2993792 L16.7511717,12.5922139 L16.7442403,12.9027778 L16.7442403,13.2222222 L16.7442403,13.8611111 L16.7442403,18.0138889 L7.66184211,18.0138889 L7.66184211,11.9444444 L7.4817762,12.1929083 L7.47484484,12.3615111 L7.42637514,12.6188236 L7.41944378,12.9116583 L7.41251241,13.2222222 L7.41251241,13.5416667 L7.41251241,14.1805556 L7.41251241,18.0138889 L1,18.0138889 L1.00692638,18.6705389 L1.08310907,19.2916667 L1.17314451,19.6111111 L1.44325833,20.2322389 L1.57485454,20.5516833 L1.65795612,20.7291667 L1.74798908,21.2083333 L3.99195631,21.2083333 L3.99195631,22.4861111 L3.68029419,22.5925819 L3.57639851,22.6902042 L3.18856617,23.0362583 L2.76607701,23.515425 L2.57907974,23.7904986 L2.42671436,24.0922139 L2.32975005,24.4027778 L2.25357983,25.0239056 L2.24664846,25.34335 L2.24664846,26 L74.8259186,26 L89.2627358,26 L89.2627358,25.34335 L89.2627358,25.0239056 L89.2834302,24.4027778 L89.3874007,23.7638889 L89.4981031,23.4444444 L89.8237277,22.8055556 L90.0314193,22.4861111 L90.5093843,21.8561028 L91.0080437,21.2793139 L91.2573734,21.0131208 L91.5067031,20.7735375 L92.0053625,20.2943708 L92.5040218,19.8152042 L92.7533515,19.5667403 L93.2450297,19.1141833 L93.473665,18.9189708 L93.819984,18.5196653 L93.909992,18.4043139 L94,18.0138889 L76.3218967,18.0138889 L76.3218967,11.9444444 L76.1418807,12.1929083 L76.1348995,12.3615111 L76.0865295,12.6188236 L76.0795483,12.9116583 L76.072567,13.2222222 L76.072567,13.5416667 L76.072567,14.1805556 L76.072567,18.0138889 L60.9147468,18.0138889 L60.9147468,10.9861111 L60.7347307,11.234575 L60.7277495,11.4031778 L60.6793795,11.6604903 L60.6723983,11.953325 L60.6654171,12.5833333 L60.6654171,12.9027778 L60.6654171,13.5416667 L60.6654171,18.0138889 L50.4037488,18.0138889 L50.2721027,17.5347222 L50.1751134,17.3572389 L50.0297542,17.0377944 L49.8497382,16.7361111 L49.4687624,16.1149833 L49.2747839,15.7955389 L48.9077706,15.1388889 L47.4117925,15.1388889 L47.4117925,14.4822389 L47.4048112,14.171675 L47.3841169,13.8966014 L47.2454895,13.452925 L47.0101223,13.2577125 L46.6638034,13.2222222 L47.0377979,12.9915194 L47.4257549,12.9205389 L47.6611221,12.9116583 L48.1321059,12.8672875 L48.3260844,12.8140361 L48.5684329,12.6277042 L48.6584409,12.2638889 L48.2844464,12.2904986 L48.1458191,12.3348694 L47.8964894,12.3881208 L47.4117925,12.4857111 L46.9131331,12.4413722 L46.6638034,12.3615111 L46.165144,12.1662667 L45.9158143,12.0775569 L45.4171549,11.9710542 L44.9184955,11.953325 L44.4268174,12.0243056 L44.1912008,12.1041667 L43.7825495,12.3881208 L43.4848498,12.6809556 L43.1731877,12.9027778 L43.0901609,12.3526306 L42.9931716,12.1574181 L42.8408312,12.0509153 L42.6468527,11.9799347 L42.4182174,11.953325 L41.9265392,11.9355639 L41.4348611,11.8379736 L41.0055153,11.5362583 L40.8738693,11.4297875 L40.6798908,10.9861111 L43.1731877,10.9861111 L43.1731877,10.3472222 L42.1758689,10.3472222 L41.6772095,10.3472222 L41.1785501,10.3383417 L40.6798908,10.2673611 L40.2019257,10.0543875 L39.9872529,9.90354583 L39.5995452,9.59298194 L39.2878831,9.42437917 L38.9345829,9.38888889 L38.9345829,8.43055556 L39.682572,8.43055556 L39.682572,7.47222222 L38.9345829,7.47222222 L39.1839126,6.83333333 L39.4332423,6.83333333 L39.2739206,6.48727917 L39.1355427,6.10570278 L39.0869234,5.84839028 L39.0385534,5.23611111 L39.0038966,4.59722222 L39.0108778,4.27777778 L39.0869234,3.65663722 L39.1215802,3.47916667 L39.1839126,3 L38.1865938,3 L38.2489263,3.47916667 L38.2835831,3.65663722 L38.3596286,4.27777778 L38.3666099,4.59722222 L38.3319531,5.23611111 L38.2905643,5.83950972 L38.2212507,6.09682222 L38.2005563,6.265425 L37.9372642,6.51388889 L38.1035671,6.84221389 L38.2696206,7.09067778 L38.4359235,7.47222222 L37.9995966,7.55208333 L37.8679505,7.56096389 L37.6879345,7.79166667 L37.8749317,8.19097222 L37.9856341,8.32408472 L38.2628887,8.80325139 L38.3459155,8.93633194 L38.4359235,9.38888889 L38.061929,9.42437917 L37.7018969,9.61959167 L37.3692911,10.0632681 L37.2723019,10.3383417 L37.1962563,10.8263889 L37.1892751,11.3055556 L36.1919563,11.3055556 L36.1919563,9.06944444 L34.6959782,9.06944444 L34.6959782,8.09335 L34.6959782,7.79166667 L34.7029594,7.15277778 L34.7236537,6.83333333 L34.7652918,6.53165 L34.910651,6.03472222 L35.1946375,5.55555556 L35.1946375,5.23611111 L34.6959782,4.91666667 L34.8622811,4.44637417 L34.8483186,4.28665194 L34.8899567,4.01157194 L34.8829754,3.78086278 L34.9036698,3.53240528 L34.9453078,3 L34.4466485,3 L34.384316,3.47916667 Z M4,21 L3.9861,21.36805 L3.8611,21.68055 L3.56945,21.909725 L3,22 L3.05555,21.63195 L3.33335,21.3125 L3.43055,21.19445 L4,21 M6,21 L6,22 L5,22 L5,21 L6,21 M7,21 L7,22 L6,22 L6,21 L7,21 Z" id="shadow" fill-opacity="0.53" fill="#000000"></path>
            <path d="M33.384316,0.479166667 L33.3080212,0.976081667 L33.2803456,1.26890361 L33.2043,1.82793139 L33.0933483,2.20948861 L32.9479891,2.55555556 L33.2319756,3.03472222 L33.3773348,3.53165 L33.4189729,3.83333333 L33.4396672,4.15277778 L33.4466485,4.79166667 L33.4466485,5.09335 L33.4466485,6.06944444 L31.4520109,6.06944444 L31.2026812,6.38888889 L31.2026812,7.02777778 L30.2053625,7.02777778 L30.2053625,6.05168333 L30.2053625,5.43055556 L30.2123437,5.11111111 L30.2260568,4.79166667 L30.2816573,4.15277778 L30.3023517,3.83333333 L30.3023517,3.51388889 L30.2537324,2.875 L30.2260568,2.57331667 L30.2053625,2.07638889 L30.2053625,1.59722222 L29.9076628,1.69483167 L29.8106736,1.81018306 L29.4573734,2.23611111 L29.5404002,2.71527778 L29.5473814,3.19444444 L29.5404002,3.35416667 L29.4573734,3.83333333 L29.7413599,4.08179722 L29.7897299,4.2504 L29.8867191,4.5077125 L29.9490515,5.11111111 L29.9560328,5.75 L29.9560328,6.05168333 L29.9560328,7.02777778 L29.4434109,7.0543875 L28.9726765,7.15200972 L28.5847195,7.26736111 L28.2107249,7.34722222 L28.2107249,5.43055556 L27.2134062,5.43055556 L26.9640765,5.11111111 L26.9640765,4.45446111 L26.9640765,4.13501667 L26.9847708,3.51388889 L27.0124464,3.19444444 L27.0610657,2.55555556 L27.0610657,2.23611111 L27.0124464,1.61497056 L26.9847708,1.4375 L26.9640765,0.958333333 L26.4654171,0.958333333 L26.4447227,1.4375 L26.4170471,1.61497056 L26.3684278,2.23611111 L26.3891222,2.875 L26.4447227,3.51388889 L26.4654171,4.15277778 L26.4654171,4.45446111 L26.4654171,5.43055556 L25.4680983,5.43055556 L25.4680983,7.34722222 L23.7227905,7.34722222 L23.7227905,11.5 L22.2268123,11.5 L22.0258526,11.9791667 L21.9844639,12.15665 L21.8944558,12.4760944 L21.8321234,12.7777778 L21.7488473,13.3989056 L21.7351342,13.71835 L21.7281529,14.375 L21.4788232,14.6944444 L21.1048287,14.703325 L20.7168717,14.765425 L20.2321748,14.8896569 L19.7335154,14.9872792 L19.4841857,15.0050083 L18.9855263,15.0138889 L18.7361966,15.0138889 L18.2375372,15.0138889 L15.99357,15.0138889 L15.99357,8.625 L15.8135041,8.87346389 L15.8065727,9.04206667 L15.758103,9.29937917 L15.7511717,9.59221389 L15.7442403,9.90277778 L15.7442403,10.2222222 L15.7442403,10.8611111 L15.7442403,15.0138889 L6.66184211,15.0138889 L6.66184211,8.94444444 L6.4817762,9.19290833 L6.47484484,9.36151111 L6.42637514,9.61882361 L6.41944378,9.91165833 L6.41251241,10.2222222 L6.41251241,10.5416667 L6.41251241,11.1805556 L6.41251241,15.0138889 L0,15.0138889 L0.00692637885,15.6705389 L0.0831090663,16.2916667 L0.173144511,16.6111111 L0.443258327,17.2322389 L0.574854538,17.5516833 L0.657956125,17.7291667 L0.747989076,18.2083333 L2.99195631,18.2083333 L2.99195631,19.4861111 L2.68029419,19.5925819 L2.57639851,19.6902042 L2.18856617,20.0362583 L1.76607701,20.515425 L1.57907974,20.7904986 L1.42671436,21.0922139 L1.32975005,21.4027778 L1.25357983,22.0239056 L1.24664846,22.34335 L1.24664846,23 L73.8259186,23 L88.2627358,23 L88.2627358,22.34335 L88.2627358,22.0239056 L88.2834302,21.4027778 L88.3874007,20.7638889 L88.4981031,20.4444444 L88.8237277,19.8055556 L89.0314193,19.4861111 L89.5093843,18.8561028 L90.0080437,18.2793139 L90.2573734,18.0131208 L90.5067031,17.7735375 L91.0053625,17.2943708 L91.5040218,16.8152042 L91.7533515,16.5667403 L92.2450297,16.1141833 L92.473665,15.9189708 L92.819984,15.5196653 L92.909992,15.4043139 L93,15.0138889 L75.3218967,15.0138889 L75.3218967,8.94444444 L75.1418807,9.19290833 L75.1348995,9.36151111 L75.0865295,9.61882361 L75.0795483,9.91165833 L75.072567,10.2222222 L75.072567,10.5416667 L75.072567,11.1805556 L75.072567,15.0138889 L59.9147468,15.0138889 L59.9147468,7.98611111 L59.7347307,8.234575 L59.7277495,8.40317778 L59.6793795,8.66049028 L59.6723983,8.953325 L59.6654171,9.58333333 L59.6654171,9.90277778 L59.6654171,10.5416667 L59.6654171,15.0138889 L49.4037488,15.0138889 L49.2721027,14.5347222 L49.1751134,14.3572389 L49.0297542,14.0377944 L48.8497382,13.7361111 L48.4687624,13.1149833 L48.2747839,12.7955389 L47.9077706,12.1388889 L46.4117925,12.1388889 L46.4117925,11.4822389 L46.4048112,11.171675 L46.3841169,10.8966014 L46.2454895,10.452925 L46.0101223,10.2577125 L45.6638034,10.2222222 L46.0377979,9.99151944 L46.4257549,9.92053889 L46.6611221,9.91165833 L48.1321059,9.8672875 L48.3260844,9.81403611 L48.5684329,9.62770417 L48.6584409,9.26388889 L48.2844464,9.29049861 L48.1458191,9.33486944 L46.8964894,9.38812083 L46.4117925,9.48571111 L45.9131331,9.44137222 L45.6638034,9.36151111 L45.165144,9.16626667 L44.9158143,9.07755694 L44.4171549,8.97105417 L43.9184955,8.953325 L43.4268174,9.02430556 L43.1912008,9.10416667 L42.7825495,9.38812083 L42.4848498,9.68095556 L42.1731877,9.90277778 L42.0901609,9.35263056 L41.9931716,9.15741806 L41.8408312,9.05091528 L41.6468527,8.97993472 L41.4182174,8.953325 L40.9265392,8.93556389 L40.4348611,8.83797361 L40.0055153,8.53625833 L39.8738693,8.4297875 L39.6798908,7.98611111 L43.1731877,7.98611111 L43.1731877,7.34722222 L41.1758689,7.34722222 L40.6772095,7.34722222 L40.1785501,7.33834167 L39.6798908,7.26736111 L39.2019257,7.0543875 L38.9872529,6.90354583 L38.5995452,6.59298194 L38.2878831,6.42437917 L37.9345829,6.38888889 L37.9345829,5.43055556 L38.682572,5.43055556 L38.682572,4.47222222 L37.9345829,4.47222222 L38.1839126,3.83333333 L38.4332423,3.83333333 L38.2739206,3.48727917 L38.1355427,3.10570278 L38.0869234,2.84839028 L38.0385534,2.23611111 L38.0038966,1.59722222 L38.0108778,1.27777778 L38.0869234,0.656637222 L38.1215802,0.479166667 L38.1839126,0 L37.1865938,0 L37.2489263,0.479166667 L37.2835831,0.656637222 L37.3596286,1.27777778 L37.3666099,1.59722222 L37.3319531,2.23611111 L37.2905643,2.83950972 L37.2212507,3.09682222 L37.2005563,3.265425 L36.9372642,3.51388889 L37.1035671,3.84221389 L37.2696206,4.09067778 L37.4359235,4.47222222 L36.9995966,4.55208333 L36.8679505,4.56096389 L36.6879345,4.79166667 L36.8749317,5.19097222 L36.9856341,5.32408472 L37.2628887,5.80325139 L37.3459155,5.93633194 L37.4359235,6.38888889 L37.061929,6.42437917 L36.7018969,6.61959167 L36.3692911,7.06326806 L36.2723019,7.33834167 L36.1962563,7.82638889 L36.1892751,8.30555556 L35.1919563,8.30555556 L35.1919563,6.06944444 L33.6959782,6.06944444 L33.6959782,5.09335 L33.6959782,4.79166667 L33.7029594,4.15277778 L33.7236537,3.83333333 L33.7652918,3.53165 L33.910651,3.03472222 L34.1946375,2.55555556 L34.1946375,2.23611111 L33.6959782,1.91666667 L33.8622811,1.44637417 L33.8483186,1.28665194 L33.8899567,1.01157194 L33.8829754,0.780862778 L33.9036698,0.532405278 L33.9453078,0 L33.4466485,0 L33.384316,0.479166667 Z M3,18 L2.9861,18.36805 L2.8611,18.68055 L2.56945,18.909725 L2,19 L2.05555,18.63195 L2.33335,18.3125 L2.43055,18.19445 L3,18 M5,18 L5,19 L4,19 L4,18 L5,18 M6,18 L6,19 L5,19 L5,18 L6,18 Z" id="body" stroke="#000000" fill="#4FFFFF"></path>
        </g>
    </g>
</svg>