<?xml version="1.0" encoding="UTF-8"?>
<svg width="203px" height="203px" viewBox="0 0 203 203" version="1.1" xmlns="http://www.w3.org/2000/svg" xmlns:xlink="http://www.w3.org/1999/xlink">
    <title>Artboard</title>
    <g id="Artboard" stroke="none" stroke-width="1" fill="none" fill-rule="evenodd">
        <g id="Flag_of_NATO" transform="translate(-34.000000, 0.000000)" fill-rule="nonzero">
            <rect id="Rectangle" fill="#012169" x="-1.4648e-05" y="-3.05179999e-06" width="270.93" height="203.2"></rect>
            <g id="d-link" transform="translate(192.700000, 86.440000) rotate(180.000000) translate(-192.700000, -86.440000) translate(133.200000, 18.940000)" fill="#FFFFFF">
                <g id="d" transform="translate(0.640000, 0.550000)">
                    <g id="c-link" transform="translate(93.320000, 26.040000) rotate(90.000000) translate(-93.320000, -26.040000) translate(67.820000, 2.540000)">
                        <g id="c">
                            <path d="M0.26,0.84 L50.901,0.84 L41.7464,9.9946 L49.7368,45.8456 C49.7368,46.24248 49.36639,46.24248 49.36639,45.8456 L38.70339,12.2966 L0.26,0.84 Z" id="Path"></path>
                            <path d="M12.46,7.32 C15.1058,23.354 27.674,36.318 44.051,39.361 L42.8868,36.3183 C29.2078,33.2491 18.1478,22.1893 15.1058,8.0873 L12.46,7.32 Z" id="Path"></path>
                        </g>
                    </g>
                    <polygon id="Path" points="0.81 53.06 0.81 50.7846 58.383 50.7846 58.383 53.06"></polygon>
                    <polygon id="Path" points="114.82 109.49 117.0954 109.49 117.0954 133.197 114.82 133.197"></polygon>
                    <g id="c" transform="translate(65.000000, 51.000000)">
                        <path d="M0.26,0.84 L50.901,0.84 L41.7464,9.9946 L49.7368,45.8456 C49.7368,46.24248 49.36639,46.24248 49.36639,45.8456 L38.70339,12.2966 L0.26,0.84 Z" id="Path"></path>
                        <path d="M12.46,7.32 C15.1058,23.354 27.674,36.318 44.051,39.361 L42.8868,36.3183 C29.2078,33.2491 18.1478,22.1893 15.1058,8.0873 L12.46,7.32 Z" id="Path"></path>
                    </g>
                </g>
            </g>
            <g id="d" transform="translate(19.640000, 49.550000)" fill="#FFFFFF">
                <g id="c-link" transform="translate(93.320000, 26.040000) rotate(90.000000) translate(-93.320000, -26.040000) translate(67.820000, 2.540000)">
                    <g id="c">
                        <path d="M0.26,0.84 L50.901,0.84 L41.7464,9.9946 L49.7368,45.8456 C49.7368,46.24248 49.36639,46.24248 49.36639,45.8456 L38.70339,12.2966 L0.26,0.84 Z" id="Path"></path>
                        <path d="M12.46,7.32 C15.1058,23.354 27.674,36.318 44.051,39.361 L42.8868,36.3183 C29.2078,33.2491 18.1478,22.1893 15.1058,8.0873 L12.46,7.32 Z" id="Path"></path>
                    </g>
                </g>
                <polygon id="Path" points="0.81 53.06 0.81 50.7846 58.383 50.7846 58.383 53.06"></polygon>
                <polygon id="Path" points="114.82 109.49 117.0954 109.49 117.0954 133.197 114.82 133.197"></polygon>
                <g id="c" transform="translate(65.000000, 51.000000)">
                    <path d="M0.26,0.84 L50.901,0.84 L41.7464,9.9946 L49.7368,45.8456 C49.7368,46.24248 49.36639,46.24248 49.36639,45.8456 L38.70339,12.2966 L0.26,0.84 Z" id="Path"></path>
                    <path d="M12.46,7.32 C15.1058,23.354 27.674,36.318 44.051,39.361 L42.8868,36.3183 C29.2078,33.2491 18.1478,22.1893 15.1058,8.0873 L12.46,7.32 Z" id="Path"></path>
                </g>
            </g>
            <path d="M129.06,62.5 C112.682,65.1723 99.744,78.137 97.098,94.144 L100.1407,93.0063 C103.1834,79.2743 114.2167,68.2153 127.9217,65.5423 L129.06,62.5 Z" id="Path" fill="#FFFFFF"></path>
        </g>
    </g>
</svg>