<?xml version="1.0" encoding="UTF-8"?>
<svg width="652px" height="652px" viewBox="0 0 652 652" version="1.1" xmlns="http://www.w3.org/2000/svg" xmlns:xlink="http://www.w3.org/1999/xlink">
    <title>Artboard</title>
    <g id="Artboard" stroke="none" stroke-width="1" fill="none" fill-rule="evenodd">
        <g id="Flag_of_the_Soviet_Union" transform="translate(-91.000000, 0.000000)" fill-rule="nonzero">
            <polygon id="path2" fill="#CC0000" points="0 0 1620 0 1620 828 0 828"></polygon>
            <path d="M269.5,69 L258.050589,104.140976 L221,104.140976 L250.974508,125.859035 L239.525098,161 L269.5,139.281535 L299.474916,161 L288.025505,125.859035 L318,104.140976 L280.949424,104.140976 L269.5,69 Z M269.5,87.3083051 L276.827499,109.798348 L300.540245,109.798348 L281.356196,123.698428 L288.683681,146.188469 L269.5,132.288785 L250.316332,146.188469 L257.643817,123.698428 L238.459755,109.798348 L262.172501,109.798348 L269.5,87.3083051 Z" id="path11728" fill="#FFD700"></path>
            <g id="g2900" transform="translate(169.000000, 170.000000)" fill="#FFD700">
                <path d="M20.5930705,82.2589467 L45.7556793,107.58388 L69.4847781,84.02936 C105.579945,122.724027 143.43746,160.022707 179.25316,198.866453 C184.634979,204.282893 193.390767,204.31312 198.809897,198.93392 C204.228907,193.554653 204.259148,184.803053 198.877396,179.386507 C160.434122,143.13304 121.87342,106.5846 83.4179804,70.1985733 L115.38654,38.4652 L70.9116584,32.3104667 L20.5930705,82.2589467 Z" id="rect4165-6"></path>
                <path d="M101.766781,0.260613333 C122.466556,11.9132 138.182434,28.6356267 147.453094,46.1172 C156.849493,63.8358933 160.978995,82.33344 161.063916,97.1229733 C161.238052,127.44796 136.468577,152.032093 106.12862,152.032093 C89.9396094,152.032093 75.3858713,145.033853 65.3318117,133.897627 L59.7709874,138.578067 C58.8238825,138.214987 57.8182298,138.028453 56.8038529,138.02772 C54.3633828,138.027973 52.0466383,139.101467 50.4693798,140.962867 C46.5025821,141.48148 43.1825593,144.223253 41.9248531,148.019187 C37.7430462,156.40376 30.4057083,162.979147 21.5270757,165.98932 C21.4421019,166.01812 21.3671061,166.055987 21.2925639,166.09372 C17.1872869,167.59716 13.0718583,170.312787 9.56805462,173.83032 C2.64268649,180.8124 -0.741633552,189.74576 1.16372811,196.014613 C0.975665119,196.559373 0.878778932,197.1314 0.876951394,197.707667 C0.877151489,200.602093 3.22461724,202.94864 6.1204244,202.94864 C6.84531663,202.945973 7.5618182,202.793453 8.22469421,202.500213 C14.4859324,203.91196 22.9901999,200.43912 29.6408237,193.754653 C33.410941,189.953693 36.2353808,185.456667 37.6220018,181.04716 C40.7127553,172.216787 47.3559622,165.022413 55.7944117,160.976333 C55.9959077,160.879667 56.1586253,160.780147 56.304228,160.678227 C59.1333367,159.32612 61.2032435,156.77296 61.9402482,153.72636 C74.8827114,168.986107 94.2924044,178.730347 115.991029,179.24072 C155.788027,180.176787 185.534835,150.896693 186.910357,108.79216 C187.602607,87.60204 179.400204,60.2792267 160.7096,37.8709733 C146.42499,20.7450933 125.479645,6.52704 101.765514,0.260613333 L101.766781,0.260613333 Z" id="path4179-3"></path>
            </g>
        </g>
    </g>
</svg>