<?xml version="1.0" encoding="UTF-8" standalone="no"?>
<svg
   xmlns:dc="http://purl.org/dc/elements/1.1/"
   xmlns:cc="http://creativecommons.org/ns#"
   xmlns:rdf="http://www.w3.org/1999/02/22-rdf-syntax-ns#"
   xmlns:svg="http://www.w3.org/2000/svg"
   xmlns="http://www.w3.org/2000/svg"
   xmlns:xlink="http://www.w3.org/1999/xlink"
   xmlns:sodipodi="http://sodipodi.sourceforge.net/DTD/sodipodi-0.dtd"
   xmlns:inkscape="http://www.inkscape.org/namespaces/inkscape"
   version="1.0"
   width="100%"
   height="100%"
   viewBox="0 0 500 500"
   id="svg54"
   sodipodi:docname="argentina.svg"
   inkscape:version="0.92.3 (2405546, 2018-03-11)">
  <metadata
     id="metadata60">
    <rdf:RDF>
      <cc:Work
         rdf:about="">
        <dc:format>image/svg+xml</dc:format>
        <dc:type
           rdf:resource="http://purl.org/dc/dcmitype/StillImage" />
        <dc:title></dc:title>
      </cc:Work>
    </rdf:RDF>
  </metadata>
  <defs
     id="defs58" />
  <sodipodi:namedview
     pagecolor="#ffffff"
     bordercolor="#666666"
     borderopacity="1"
     objecttolerance="10"
     gridtolerance="10"
     guidetolerance="10"
     inkscape:pageopacity="0"
     inkscape:pageshadow="2"
     inkscape:window-width="1853"
     inkscape:window-height="1016"
     id="namedview56"
     showgrid="false"
     inkscape:snap-page="true"
     inkscape:zoom="1.2268303"
     inkscape:cx="206.43498"
     inkscape:cy="225.36977"
     inkscape:window-x="67"
     inkscape:window-y="27"
     inkscape:window-maximized="1"
     inkscape:current-layer="svg54" />
  <rect
     width="500"
     height="500"
     id="rect2"
     x="0"
     y="0"
     style="fill:#74acdf;stroke-width:0.79056942" />
  <rect
     y="166.67"
     width="500"
     height="166.67"
     id="rect4"
     x="0"
     style="fill:#ffffff;stroke-width:0.79056942" />
  <g
     id="g895"
     transform="translate(-150)">
    <g
       id="rays">
      <path
         style="fill:#f6b40e;stroke:#85340a;stroke-width:1.11160004"
         inkscape:connector-curvature="0"
         d="m 396.84,251.31 28.454,61.992 c 0,0 0.4896,1.185 1.28,0.8586 0.7902,-0.3267 0.2988,-1.5116 0.2988,-1.5116 l -23.715,-63.956 m -0.68,24.12 c -0.3465,9.4278 5.4526,14.613 4.6943,23.032 -0.7569,8.42 3.8673,13.18 4.9396,16.454 1.0733,3.2744 -1.16,5.2323 -0.198,5.6982 0.96336,0.4662 3.07,-2.1207 2.3833,-6.7756 -0.68675,-4.6549 -4.2204,-6.0368 -3.3898,-16.32 0.83,-10.283 -4.206,-12.678 -2.98,-22.058"
         id="ray1" />
      <use
         height="100%"
         width="100%"
         y="0"
         x="0"
         id="use7"
         transform="rotate(22.5,400,250)"
         xlink:href="#ray1" />
      <use
         height="100%"
         width="100%"
         y="0"
         x="0"
         id="use9"
         transform="rotate(45,400,250)"
         xlink:href="#ray1" />
      <use
         height="100%"
         width="100%"
         y="0"
         x="0"
         id="use11"
         transform="rotate(67.5,400,250)"
         xlink:href="#ray1" />
      <path
         style="fill:#85340a"
         inkscape:connector-curvature="0"
         d="m 404.31,274.41 c 0.45334,9.0538 5.5867,13.063 4.5787,21.314 2.2133,-6.5249 -3.1233,-11.583 -2.82,-21.22 m -7.6487,-23.757 19.487,42.577 -16.329,-43.887"
         id="ray2" />
      <use
         height="100%"
         width="100%"
         y="0"
         x="0"
         id="use14"
         transform="rotate(22.5,400,250)"
         xlink:href="#ray2" />
      <use
         height="100%"
         width="100%"
         y="0"
         x="0"
         id="use16"
         transform="rotate(45,400,250)"
         xlink:href="#ray2" />
      <use
         height="100%"
         width="100%"
         y="0"
         x="0"
         id="use18"
         transform="rotate(67.5,400,250)"
         xlink:href="#ray2" />
    </g>
    <use
       height="100%"
       width="100%"
       y="0"
       x="0"
       id="use21"
       transform="rotate(90,400,250)"
       xlink:href="#rays" />
    <use
       height="100%"
       width="100%"
       y="0"
       x="0"
       id="use23"
       transform="rotate(180,400,250)"
       xlink:href="#rays" />
    <use
       height="100%"
       width="100%"
       y="0"
       x="0"
       id="use25"
       transform="rotate(-90,400,250)"
       xlink:href="#rays" />
    <circle
       style="fill:#f6b40e;stroke:#85340a;stroke-width:1.5"
       id="circle27"
       cx="400"
       cy="250"
       r="27.778" />
    <path
       style="fill:#843511"
       inkscape:connector-curvature="0"
       d="m 409.47,244.06 c -1.8967,3e-5 -3.7131,0.82183 -4.7812,2.5312 2.1367,1.9227 6.8565,2.1318 10.062,-0.21875 -1.3883,-1.4954 -3.3845,-2.3125 -5.2812,-2.3125 z m -0.0312,0.4375 c 1.8462,-0.0335 3.5717,0.81446 3.8125,1.6562 -2.1367,2.3504 -5.5508,2.1463 -7.6875,0.4375 0.9348,-1.4957 2.4391,-2.0677 3.875,-2.0938 z"
       id="loweyecontour" />
    <use
       height="100%"
       width="100%"
       y="0"
       x="0"
       id="use30"
       transform="matrix(-1,0,0,1,800.25,0)"
       xlink:href="#uppalpebra" />
    <use
       height="100%"
       width="100%"
       y="0"
       x="0"
       id="use32"
       transform="matrix(-1,0,0,1,800.25,0)"
       xlink:href="#eyebrow_nose" />
    <use
       transform="translate(18.862)"
       height="100%"
       width="100%"
       y="0"
       x="0"
       id="use34"
       xlink:href="#pupil" />
    <use
       height="100%"
       width="100%"
       y="0"
       x="0"
       id="use36"
       transform="matrix(-1,0,0,1,800.25,0)"
       xlink:href="#lowpalpebra" />
    <path
       style="fill:#85340a"
       inkscape:connector-curvature="0"
       id="path38"
       d="m 395.75,253.84 c -0.91341,0.16668 -1.5625,0.97727 -1.5625,1.9062 0,1.0614 0.87748,1.9062 1.9375,1.9062 0.62667,0 1.2025,-0.2968 1.5625,-0.8125 0.73952,0.55614 1.7646,0.61511 2.3125,0.625 0.0843,0.002 0.19312,0 0.25,0 0.54791,-0.01 1.573,-0.0689 2.3125,-0.625 0.36,0.5157 0.93583,0.8125 1.5625,0.8125 1.06,0 1.9375,-0.84488 1.9375,-1.9062 0,-0.92898 -0.64918,-1.7396 -1.5625,-1.9062 0.513,0.1809 0.84375,0.6765 0.84375,1.2188 0,0.7074 -0.57124,1.2812 -1.2812,1.2812 -0.6804,0 -1.2413,-0.54015 -1.2812,-1.2188 -0.20862,0.41637 -1.0341,1.6551 -2.6562,1.7188 -1.6222,-0.0636 -2.4476,-1.3024 -2.6562,-1.7188 -0.04,0.6786 -0.60085,1.2188 -1.2812,1.2188 -0.71001,0 -1.2812,-0.57385 -1.2812,-1.2812 0,-0.54225 0.33075,-1.0378 0.84375,-1.2188 z" />
    <path
       style="fill:#85340a"
       inkscape:connector-curvature="0"
       id="path40"
       d="m 397.84,259.53 c -2.138,0 -2.9829,1.9368 -4.9062,3.2188 1.0687,-0.42633 1.9096,-1.2693 3.4062,-2.125 1.496,-0.85442 2.7717,0.1875 3.625,0.1875 h 0.0312 c 0.8532,0 2.129,-1.0416 3.625,-0.1875 1.4967,0.8559 2.3688,1.6987 3.4375,2.125 -1.9233,-1.282 -2.7996,-3.2188 -4.9375,-3.2188 -0.4266,0 -1.2716,0.23055 -2.125,0.65625 H 399.965 C 399.11166,259.75983 398.2667,259.53 397.84,259.53 Z" />
    <path
       style="fill:#85340a"
       inkscape:connector-curvature="0"
       id="path42"
       d="m 397.12,262.06 c -0.8439,0.0374 -1.9596,0.20675 -3.5625,0.6875 3.8473,-0.85434 4.6962,0.4375 6.4062,0.4375 h 0.0312 c 1.71,0 2.5588,-1.292 6.4062,-0.4375 -4.2744,-1.282 -5.1242,-0.4375 -6.4062,-0.4375 h -0.0312 c -0.80125,0 -1.4372,-0.3124 -2.8438,-0.25 z" />
    <path
       style="fill:#85340a"
       inkscape:connector-curvature="0"
       id="path44"
       d="m 393.75,262.72 c -0.24819,0.003 -0.51871,0.005 -0.8125,0.0312 4.488,0.42766 2.3306,3 7.0312,3 h 0.0312 c 4.7007,0 2.5745,-2.5724 7.0625,-3 -4.7007,-0.4266 -3.2146,2.3438 -7.0625,2.3438 h -0.0312 c -3.6075,0 -2.4959,-2.4215 -6.2188,-2.375 z" />
    <path
       style="fill:#85340a"
       inkscape:connector-curvature="0"
       id="path46"
       d="m 403.85,269.66 c 0,-2.1234 -1.7233,-3.8465 -3.8463,-3.8465 -2.1233,0 -3.8463,1.723 -3.8463,3.8465 0.423,-1.781 2.0166,-3.0393 3.8463,-3.0393 1.8333,0 3.424,1.2586 3.8463,3.0393 z" />
    <path
       style="fill:#85340a"
       inkscape:connector-curvature="0"
       d="m 382.73,244.02 c 4.9146,-4.2729 11.11,-4.9147 14.53,-1.7086 0.837,1.1207 1.3733,2.319 1.5934,3.5696 0.4302,2.433 -0.3303,5.0617 -2.2367,7.7559 0.2151,-0.001 0.6435,0.2124 0.8568,0.4266 1.6967,-3.244 2.2967,-6.5761 1.74,-9.7454 -0.1458,-0.828 -0.3735,-1.643 -0.6696,-2.4357 -4.7007,-3.8452 -11.11,-4.2729 -15.811,2.1377 z"
       id="eyebrow_nose" />
    <path
       style="fill:#85340a"
       inkscape:connector-curvature="0"
       d="m 390.42,242.74 c 2.7767,0 3.4186,0.6417 4.7007,1.71 1.2833,1.0683 1.9233,0.8541 2.1367,1.0683 0.2124,0.2142 0,0.8541 -0.4266,0.6399 -0.4266,-0.2142 -1.2833,-0.6399 -2.5633,-1.7086 -1.2833,-1.0696 -2.5633,-1.0683 -3.8463,-1.0683 -3.8463,0 -5.983,3.2046 -6.4094,2.9907 -0.4266,-0.2142 2.1367,-3.6325 6.4094,-3.6325 z"
       id="uppalpebra" />
    <use
       transform="translate(-19.181)"
       height="100%"
       width="100%"
       y="0"
       x="0"
       id="use50"
       xlink:href="#loweyecontour" />
    <circle
       style="fill:#85340a"
       r="1.923"
       cx="390.54001"
       cy="246.14999"
       id="pupil" />
    <path
       style="fill:#85340a"
       inkscape:connector-curvature="0"
       d="m 385.29,247.44 c 3.6327,2.7783 7.265,2.5644 9.4017,1.282 2.1367,-1.282 2.1367,-1.7086 1.71,-1.7086 -0.4266,0 -0.8532,0.4266 -2.5633,1.281 -1.71,0.8559 -4.273,0.8559 -8.546,-0.8541 z"
       id="lowpalpebra" />
  </g>
</svg>
