<?xml version="1.0" encoding="UTF-8" standalone="no"?>
<svg
   xmlns:dc="http://purl.org/dc/elements/1.1/"
   xmlns:cc="http://creativecommons.org/ns#"
   xmlns:rdf="http://www.w3.org/1999/02/22-rdf-syntax-ns#"
   xmlns:svg="http://www.w3.org/2000/svg"
   xmlns="http://www.w3.org/2000/svg"
   xmlns:xlink="http://www.w3.org/1999/xlink"
   xmlns:sodipodi="http://sodipodi.sourceforge.net/DTD/sodipodi-0.dtd"
   xmlns:inkscape="http://www.inkscape.org/namespaces/inkscape"
   width="100%"
   height="100%"
   viewBox="0 0 10080 10080"
   version="1.1"
   id="svg32"
   sodipodi:docname="australia.svg"
   inkscape:version="0.92.3 (2405546, 2018-03-11)">
  <metadata
     id="metadata36">
    <rdf:RDF>
      <cc:Work
         rdf:about="">
        <dc:format>image/svg+xml</dc:format>
        <dc:type
           rdf:resource="http://purl.org/dc/dcmitype/StillImage" />
        <dc:title></dc:title>
      </cc:Work>
    </rdf:RDF>
  </metadata>
  <sodipodi:namedview
     pagecolor="#ffffff"
     bordercolor="#666666"
     borderopacity="1"
     objecttolerance="10"
     gridtolerance="10"
     guidetolerance="10"
     inkscape:pageopacity="0"
     inkscape:pageshadow="2"
     inkscape:window-width="1853"
     inkscape:window-height="1016"
     id="namedview34"
     showgrid="false"
     inkscape:snap-page="true"
     inkscape:zoom="0.38338446"
     inkscape:cx="153.84337"
     inkscape:cy="703.40114"
     inkscape:window-x="67"
     inkscape:window-y="27"
     inkscape:window-maximized="1"
     inkscape:current-layer="svg32" />
  <defs
     id="defs8">
    <clipPath
       id="c">
      <path
         d="M 0,0 V 1.5 H 7 V 3 H 6 Z M 6,0 H 3 V 3.5 H 0 V 3 Z"
         id="path2"
         inkscape:connector-curvature="0" />
    </clipPath>
    <path
       id="Star7"
       d="M 0,-360 69.421398,-144.15502 281.45933,-224.45633 155.98847,-35.603349 350.97405,80.107536 125.09304,99.758368 156.19815,324.34879 0,160 -156.19815,324.34879 -125.09304,99.758368 -350.97405,80.107536 -155.98847,-35.603349 -281.45933,-224.45633 l 212.037932,80.30131 z"
       inkscape:connector-curvature="0" />
    <path
       id="Star5"
       d="M 0,-210 54.859957,-75.508253 199.72187,-64.893569 88.765275,28.841586 123.4349,169.89357 0,93.333333 -123.4349,169.89357 -88.765275,28.841586 -199.72187,-64.893569 -54.859957,-75.508253 Z"
       inkscape:connector-curvature="0" />
    <use
       id="Cstar"
       xlink:href="#Star7"
       transform="scale(2.1)"
       x="0"
       y="0"
       width="100%"
       height="100%" />
  </defs>
  <rect
     style="fill:#00008b;stroke-width:1187.93945312"
     y="-1.8189894e-12"
     x="0"
     id="rect10"
     height="10080"
     width="10080" />
  <path
     style="stroke:#ffffff;stroke-width:712.76367188"
     inkscape:connector-curvature="0"
     id="path12"
     d="M 0,0 5040,5040 M 5040,0 0,5040" />
  <path
     style="stroke:#ff0000;stroke-width:0.40000001"
     inkscape:connector-curvature="0"
     id="path14"
     clip-path="url(#c)"
     d="M 0,0 6,3 M 6,0 0,3"
     transform="scale(840,1680)" />
  <path
     style="stroke:#ffffff;stroke-width:1181.25;stroke-miterlimit:4;stroke-dasharray:none"
     inkscape:connector-curvature="0"
     id="path16"
     d="M 2520,5.3999998e-5 V 5879.9998 M 0,2519.9999 h 5880" />
  <path
     style="stroke:#ff0000;stroke-width:712.76367188"
     inkscape:connector-curvature="0"
     id="path18"
     d="M 2520,0 V 5880 M 0,2520 h 5880" />
  <path
     style="fill:#00008b;stroke-width:1187.93945312"
     inkscape:connector-curvature="0"
     id="path20"
     d="M 0,5040 H 5040 V 0 H 6720 V 6720 H 0 Z" />
  <use
     style="fill:#ffffff"
     height="100%"
     width="100%"
     y="3780"
     x="2520"
     xlink:href="#Cstar"
     id="Comwlth"
     transform="translate(0,3782.0756)" />
  <use
     style="fill:#ffffff"
     height="100%"
     width="100%"
     y="4200"
     x="7560"
     xlink:href="#Star7"
     id="αCrucis"
     transform="translate(0,2537.8256)" />
  <use
     style="fill:#ffffff"
     height="100%"
     width="100%"
     y="2205"
     x="6300"
     xlink:href="#Star7"
     id="βCrucis"
     transform="translate(0,2537.8256)" />
  <use
     style="fill:#ffffff"
     height="100%"
     width="100%"
     y="840"
     x="7560"
     xlink:href="#Star7"
     id="γCrucis"
     transform="translate(0,2537.8256)" />
  <use
     style="fill:#ffffff"
     height="100%"
     width="100%"
     y="1869"
     x="8680"
     xlink:href="#Star7"
     id="δCrucis"
     transform="translate(0,2537.8256)" />
  <use
     style="fill:#ffffff"
     height="100%"
     width="100%"
     y="2730"
     x="8064"
     xlink:href="#Star5"
     id="εCrucis"
     transform="translate(0,2537.8256)" />
</svg>
