<?xml version="1.0" encoding="UTF-8" standalone="no"?>
<svg
   xmlns:dc="http://purl.org/dc/elements/1.1/"
   xmlns:cc="http://creativecommons.org/ns#"
   xmlns:rdf="http://www.w3.org/1999/02/22-rdf-syntax-ns#"
   xmlns:svg="http://www.w3.org/2000/svg"
   xmlns="http://www.w3.org/2000/svg"
   xmlns:xlink="http://www.w3.org/1999/xlink"
   xmlns:sodipodi="http://sodipodi.sourceforge.net/DTD/sodipodi-0.dtd"
   xmlns:inkscape="http://www.inkscape.org/namespaces/inkscape"
   version="1.0"
   width="100%"
   height="100%"
   viewBox="-2100 -1470 4200 4200"
   id="svg114"
   sodipodi:docname="brazil.svg"
   inkscape:version="0.92.3 (2405546, 2018-03-11)">
  <metadata
     id="metadata118">
    <rdf:RDF>
      <cc:Work
         rdf:about="">
        <dc:format>image/svg+xml</dc:format>
        <dc:type
           rdf:resource="http://purl.org/dc/dcmitype/StillImage" />
        <dc:title></dc:title>
      </cc:Work>
    </rdf:RDF>
  </metadata>
  <sodipodi:namedview
     pagecolor="#ffffff"
     bordercolor="#666666"
     borderopacity="1"
     objecttolerance="10"
     gridtolerance="10"
     guidetolerance="10"
     inkscape:pageopacity="0"
     inkscape:pageshadow="2"
     inkscape:window-width="1853"
     inkscape:window-height="1016"
     id="namedview116"
     showgrid="false"
     inkscape:snap-page="true"
     inkscape:zoom="0.93650794"
     inkscape:cx="358.05123"
     inkscape:cy="333.01287"
     inkscape:window-x="67"
     inkscape:window-y="27"
     inkscape:window-maximized="1"
     inkscape:current-layer="svg114" />
  <defs
     id="defs42">
    <path
       id="D"
       d="m -31.5,0 h 33 a 30,30 0 0 0 30,-30 v -10 a 30,30 0 0 0 -30,-30 h -33 z m 13,-13 h 19 a 19,19 0 0 0 19,-19 v -6 a 19,19 0 0 0 -19,-19 h -19 z"
       inkscape:connector-curvature="0"
       style="fill-rule:evenodd" />
    <path
       id="E"
       d="M 0,0 H 63 V -13 H 12 V -31 H 52 V -43 H 12 V -57 H 60 V -70 H 0 Z"
       transform="translate(-31.5)"
       inkscape:connector-curvature="0" />
    <path
       id="e"
       d="m -26.25,0 h 52.5 v -12 h -40.5 v -16 h 33 v -12 h -33 V -51 H 25 v -12 h -51.25 z"
       inkscape:connector-curvature="0" />
    <g
       id="G">
      <clipPath
         id="gcut">
        <path
           d="m -31.5,0 v -70 h 63 V 0 Z M 0,-47 v 12 h 31.5 v -12 z"
           id="path5"
           inkscape:connector-curvature="0" />
      </clipPath>
      <use
         xlink:href="#O"
         clip-path="url(#gcut)"
         id="use8"
         x="0"
         y="0"
         width="100%"
         height="100%" />
      <rect
         x="5"
         y="-35"
         width="26.5"
         height="10"
         id="rect10" />
      <rect
         x="21.5"
         y="-35"
         width="10"
         height="35"
         id="rect12" />
    </g>
    <path
       id="M"
       d="m -31.5,0 h 12 v -48 l 14,48 h 11 l 14,-48 V 0 h 12 V -70 H 14 L 0,-22 -14,-70 h -17.5 z"
       inkscape:connector-curvature="0" />
    <path
       id="O"
       d="M 0,0 A 31.5,35 0 0 0 0,-70 31.5,35 0 0 0 0,0 m 0,-13 a 18.5,22 0 0 0 0,-44 18.5,22 0 0 0 0,44"
       inkscape:connector-curvature="0"
       style="fill-rule:evenodd" />
    <path
       id="P"
       d="m -31.5,0 h 13 v -26 h 28 a 22,22 0 0 0 0,-44 h -40 z m 13,-39 h 27 a 9,9 0 0 0 0,-18 h -27 z"
       inkscape:connector-curvature="0"
       style="fill-rule:evenodd" />
    <g
       id="R">
      <use
         xlink:href="#P"
         id="use18"
         x="0"
         y="0"
         width="100%"
         height="100%" />
      <path
         d="m 28,0 c 0,-10 0,-32 -15,-32 H -6 c 22,0 22,22 22,32"
         id="path20"
         inkscape:connector-curvature="0" />
    </g>
    <path
       id="S"
       d="m -15.75,-22 c 0,7 6.75,10.5 16.75,10.5 10,0 14.74,-3.25 14.75,-7.75 C 15.75,-33.5 -31,-24.5 -30.75,-49.5 -30.5,-71 -6,-70 3,-70 c 9,0 26,4 25.75,21.25 H 13.5 c 0,-7.5 -7,-10.25 -15,-10.25 -7.75,0 -13.25,1.25 -13.25,8.5 -0.25,11.75 46.25,4 46.25,28.75 C 31.5,-3.5 13.5,0 0,0 -11.5,0 -31.55,-4.5 -31.5,-22 Z"
       inkscape:connector-curvature="0" />
    <g
       id="star"
       style="fill:#ffffff">
      <g
         id="c">
        <path
           id="t"
           d="M 0,-1 V 0 H 0.5"
           transform="rotate(18,0,-1)"
           inkscape:connector-curvature="0" />
        <use
           xlink:href="#t"
           transform="scale(-1,1)"
           id="use25"
           x="0"
           y="0"
           width="100%"
           height="100%" />
      </g>
      <use
         xlink:href="#c"
         transform="rotate(72)"
         id="use28"
         x="0"
         y="0"
         width="100%"
         height="100%" />
      <use
         xlink:href="#c"
         transform="rotate(-72)"
         id="use30"
         x="0"
         y="0"
         width="100%"
         height="100%" />
      <use
         xlink:href="#c"
         transform="rotate(144)"
         id="use32"
         x="0"
         y="0"
         width="100%"
         height="100%" />
      <use
         xlink:href="#c"
         transform="rotate(-144)"
         id="use34"
         x="0"
         y="0"
         width="100%"
         height="100%" />
    </g>
    <use
       id="star1"
       xlink:href="#star"
       transform="scale(31.5)"
       x="0"
       y="0"
       width="100%"
       height="100%" />
    <use
       id="star2"
       xlink:href="#star"
       transform="scale(26.25)"
       x="0"
       y="0"
       width="100%"
       height="100%" />
    <use
       id="star3"
       xlink:href="#star"
       transform="scale(21)"
       x="0"
       y="0"
       width="100%"
       height="100%" />
    <use
       id="star4"
       xlink:href="#star"
       transform="scale(15)"
       x="0"
       y="0"
       width="100%"
       height="100%" />
    <use
       id="star5"
       xlink:href="#star"
       transform="scale(10.5)"
       x="0"
       y="0"
       width="100%"
       height="100%" />
  </defs>
  <rect
     x="-2100"
     y="-1470"
     width="100%"
     height="100%"
     id="rect44"
     style="fill:#009b3a" />
  <clipPath
     id="band">
    <circle
       r="735"
       id="circle50"
       cx="0"
       cy="0" />
  </clipPath>
  <g
     id="g971"
     transform="translate(0,-630)">
    <path
       style="fill:#fedf00"
       inkscape:connector-curvature="0"
       id="path46"
       d="M -1743,1260 0,2373 1743,1260 0,147 Z" />
    <circle
       style="fill:#002776"
       cy="1260"
       cx="0"
       id="circle48"
       r="735" />
    <path
       transform="translate(0,1260)"
       style="fill:#ffffff"
       inkscape:connector-curvature="0"
       id="path53"
       clip-path="url(#band)"
       d="m -2205,1470 a 1785,1785 0 0 1 3570,0 h -105 a 1680,1680 0 1 0 -3360,0 z" />
    <g
       style="fill:#009b3a"
       id="g85"
       transform="translate(-420,2730)">
      <use
         height="100%"
         width="100%"
         x="0"
         id="use55"
         transform="rotate(-7)"
         y="-1697.5"
         xlink:href="#O" />
      <use
         height="100%"
         width="100%"
         x="0"
         id="use57"
         transform="rotate(-4)"
         y="-1697.5"
         xlink:href="#R" />
      <use
         height="100%"
         width="100%"
         x="0"
         id="use59"
         transform="rotate(-1)"
         y="-1697.5"
         xlink:href="#D" />
      <use
         height="100%"
         width="100%"
         x="0"
         id="use61"
         transform="rotate(2)"
         y="-1697.5"
         xlink:href="#E" />
      <use
         height="100%"
         width="100%"
         x="0"
         id="use63"
         transform="rotate(5)"
         y="-1697.5"
         xlink:href="#M" />
      <use
         height="100%"
         width="100%"
         x="0"
         id="use65"
         transform="rotate(9.75)"
         y="-1697.5"
         xlink:href="#e" />
      <use
         height="100%"
         width="100%"
         x="0"
         id="use67"
         transform="rotate(14.5)"
         y="-1697.5"
         xlink:href="#P" />
      <use
         height="100%"
         width="100%"
         x="0"
         id="use69"
         transform="rotate(17.5)"
         y="-1697.5"
         xlink:href="#R" />
      <use
         height="100%"
         width="100%"
         x="0"
         id="use71"
         transform="rotate(20.5)"
         y="-1697.5"
         xlink:href="#O" />
      <use
         height="100%"
         width="100%"
         x="0"
         id="use73"
         transform="rotate(23.5)"
         y="-1697.5"
         xlink:href="#G" />
      <use
         height="100%"
         width="100%"
         x="0"
         id="use75"
         transform="rotate(26.5)"
         y="-1697.5"
         xlink:href="#R" />
      <use
         height="100%"
         width="100%"
         x="0"
         id="use77"
         transform="rotate(29.5)"
         y="-1697.5"
         xlink:href="#E" />
      <use
         height="100%"
         width="100%"
         x="0"
         id="use79"
         transform="rotate(32.5)"
         y="-1697.5"
         xlink:href="#S" />
      <use
         height="100%"
         width="100%"
         x="0"
         id="use81"
         transform="rotate(35.5)"
         y="-1697.5"
         xlink:href="#S" />
      <use
         height="100%"
         width="100%"
         x="0"
         id="use83"
         transform="rotate(38.5)"
         y="-1697.5"
         xlink:href="#O" />
    </g>
    <use
       transform="translate(0,1260)"
       height="100%"
       width="100%"
       y="-132"
       x="-600"
       xlink:href="#star1"
       id="αCMi" />
    <use
       transform="translate(0,1260)"
       height="100%"
       width="100%"
       y="177"
       x="-535"
       xlink:href="#star1"
       id="αCMa" />
    <use
       transform="translate(0,1260)"
       height="100%"
       width="100%"
       y="243"
       x="-625"
       xlink:href="#star2"
       id="βCMa" />
    <use
       transform="translate(0,1260)"
       height="100%"
       width="100%"
       y="132"
       x="-463"
       xlink:href="#star4"
       id="γCMa" />
    <use
       transform="translate(0,1260)"
       height="100%"
       width="100%"
       y="250"
       x="-382"
       xlink:href="#star2"
       id="δCMa" />
    <use
       transform="translate(0,1260)"
       height="100%"
       width="100%"
       y="323"
       x="-404"
       xlink:href="#star3"
       id="εCMa" />
    <use
       transform="translate(0,1260)"
       height="100%"
       width="100%"
       y="-228"
       x="228"
       xlink:href="#star1"
       id="αVir" />
    <use
       transform="translate(0,1260)"
       height="100%"
       width="100%"
       y="258"
       x="515"
       xlink:href="#star1"
       id="αSco" />
    <use
       transform="translate(0,1260)"
       height="100%"
       width="100%"
       y="265"
       x="617"
       xlink:href="#star3"
       id="βSco" />
    <use
       transform="translate(0,1260)"
       height="100%"
       width="100%"
       y="323"
       x="545"
       xlink:href="#star2"
       id="εSco" />
    <use
       transform="translate(0,1260)"
       height="100%"
       width="100%"
       y="477"
       x="368"
       xlink:href="#star2"
       id="θSco" />
    <use
       transform="translate(0,1260)"
       height="100%"
       width="100%"
       y="551"
       x="367"
       xlink:href="#star3"
       id="ιSco" />
    <use
       transform="translate(0,1260)"
       height="100%"
       width="100%"
       y="419"
       x="441"
       xlink:href="#star3"
       id="κSco" />
    <use
       transform="translate(0,1260)"
       height="100%"
       width="100%"
       y="382"
       x="500"
       xlink:href="#star2"
       id="λSco" />
    <use
       transform="translate(0,1260)"
       height="100%"
       width="100%"
       y="405"
       x="365"
       xlink:href="#star3"
       id="μSco" />
    <use
       transform="translate(0,1260)"
       height="100%"
       width="100%"
       y="30"
       x="-280"
       xlink:href="#star2"
       id="αHya" />
    <use
       transform="translate(0,1260)"
       height="100%"
       width="100%"
       y="-37"
       x="200"
       xlink:href="#star3"
       id="γHya" />
    <use
       transform="translate(0,1260)"
       height="100%"
       width="100%"
       x="0"
       y="330"
       xlink:href="#star1"
       id="αCru" />
    <use
       transform="translate(0,1260)"
       height="100%"
       width="100%"
       y="184"
       x="85"
       xlink:href="#star2"
       id="βCru" />
    <use
       transform="translate(0,1260)"
       height="100%"
       width="100%"
       x="0"
       y="118"
       xlink:href="#star2"
       id="γCru" />
    <use
       transform="translate(0,1260)"
       height="100%"
       width="100%"
       y="184"
       x="-74"
       xlink:href="#star3"
       id="δCru" />
    <use
       transform="translate(0,1260)"
       height="100%"
       width="100%"
       y="235"
       x="-37"
       xlink:href="#star4"
       id="εCru" />
    <use
       transform="translate(0,1260)"
       height="100%"
       width="100%"
       y="495"
       x="220"
       xlink:href="#star2"
       id="αTrA" />
    <use
       transform="translate(0,1260)"
       height="100%"
       width="100%"
       y="430"
       x="283"
       xlink:href="#star3"
       id="βTrA" />
    <use
       transform="translate(0,1260)"
       height="100%"
       width="100%"
       y="412"
       x="162"
       xlink:href="#star3"
       id="γTrA" />
    <use
       transform="translate(0,1260)"
       height="100%"
       width="100%"
       y="390"
       x="-295"
       xlink:href="#star1"
       id="αCar" />
    <use
       transform="translate(0,1260)"
       height="100%"
       width="100%"
       x="0"
       y="575"
       xlink:href="#star5"
       id="σOct" />
  </g>
</svg>
