<?xml version="1.0" encoding="UTF-8" standalone="no"?>
<svg
   xmlns:dc="http://purl.org/dc/elements/1.1/"
   xmlns:cc="http://creativecommons.org/ns#"
   xmlns:rdf="http://www.w3.org/1999/02/22-rdf-syntax-ns#"
   xmlns:svg="http://www.w3.org/2000/svg"
   xmlns="http://www.w3.org/2000/svg"
   xmlns:sodipodi="http://sodipodi.sourceforge.net/DTD/sodipodi-0.dtd"
   xmlns:inkscape="http://www.inkscape.org/namespaces/inkscape"
   width="100%"
   height="100%"
   viewBox="0 0 9600 9600"
   version="1.1"
   id="svg8"
   sodipodi:docname="canada.svg"
   inkscape:version="0.92.3 (2405546, 2018-03-11)">
  <metadata
     id="metadata14">
    <rdf:RDF>
      <cc:Work
         rdf:about="">
        <dc:format>image/svg+xml</dc:format>
        <dc:type
           rdf:resource="http://purl.org/dc/dcmitype/StillImage" />
        <dc:title>Flag of Canada</dc:title>
      </cc:Work>
    </rdf:RDF>
  </metadata>
  <defs
     id="defs12" />
  <sodipodi:namedview
     pagecolor="#ffffff"
     bordercolor="#666666"
     borderopacity="1"
     objecttolerance="10"
     gridtolerance="10"
     guidetolerance="10"
     inkscape:pageopacity="0"
     inkscape:pageshadow="2"
     inkscape:window-width="1853"
     inkscape:window-height="1016"
     id="namedview10"
     showgrid="false"
     inkscape:snap-page="true"
     inkscape:zoom="0.57833333"
     inkscape:cx="410.08146"
     inkscape:cy="611.36639"
     inkscape:window-x="67"
     inkscape:window-y="27"
     inkscape:window-maximized="1"
     inkscape:current-layer="svg8" />
  <title
     id="title2">Flag of Canada</title>
  <path
     d="M 0,0 H 9600 V 9600 H 0 Z"
     id="path4"
     inkscape:connector-curvature="0"
     style="fill:#ff0000;stroke-width:1.41421354"
     sodipodi:nodetypes="ccccc" />
  <path
     d="M 2400,2400 H 7200 V 7200 H 2400 Z m 2490,4430 -45,-863 a 95,95 0 0 1 111,-98 l 859,151 -116,-320 a 65,65 0 0 1 20,-73 l 941,-762 -212,-99 a 65,65 0 0 1 -34,-79 l 186,-572 -542,115 a 65,65 0 0 1 -73,-38 l -105,-247 -423,454 a 65,65 0 0 1 -111,-57 l 204,-1052 -327,189 a 65,65 0 0 1 -91,-27 l -332,-652 -332,652 a 65,65 0 0 1 -91,27 l -327,-189 204,1052 a 65,65 0 0 1 -111,57 l -423,-454 -105,247 a 65,65 0 0 1 -73,38 l -542,-115 186,572 a 65,65 0 0 1 -34,79 l -212,99 941,762 a 65,65 0 0 1 20,73 l -116,320 859,-151 a 95,95 0 0 1 111,98 l -45,863 z"
     id="path6"
     inkscape:connector-curvature="0"
     style="fill:#ffffff" />
  <rect
     style="opacity:1;fill:#ffffff;fill-opacity:1;stroke:none;stroke-width:188.09118652;stroke-linecap:round;stroke-linejoin:round;stroke-miterlimit:4;stroke-dasharray:none;stroke-opacity:1;paint-order:fill markers stroke"
     id="rect821"
     width="4800"
     height="2579.8271"
     x="2400"
     y="0" />
  <rect
     style="opacity:1;fill:#ffffff;fill-opacity:1;stroke:none;stroke-width:190.12779236;stroke-linecap:round;stroke-linejoin:round;stroke-miterlimit:4;stroke-dasharray:none;stroke-opacity:1;paint-order:fill markers stroke"
     id="rect821-3"
     width="4800"
     height="2635.9973"
     x="2400"
     y="6978.6743" />
</svg>
