<?xml version="1.0" encoding="UTF-8" standalone="no"?>
<svg
   xmlns:dc="http://purl.org/dc/elements/1.1/"
   xmlns:cc="http://creativecommons.org/ns#"
   xmlns:rdf="http://www.w3.org/1999/02/22-rdf-syntax-ns#"
   xmlns:svg="http://www.w3.org/2000/svg"
   xmlns="http://www.w3.org/2000/svg"
   xmlns:xlink="http://www.w3.org/1999/xlink"
   xmlns:sodipodi="http://sodipodi.sourceforge.net/DTD/sodipodi-0.dtd"
   xmlns:inkscape="http://www.inkscape.org/namespaces/inkscape"
   width="100%"
   height="100%"
   version="1.1"
   id="svg38"
   sodipodi:docname="kenya.svg"
   inkscape:version="0.92.3 (2405546, 2018-03-11)"
   viewBox="0 0 600 600">
  <metadata
     id="metadata42">
    <rdf:RDF>
      <cc:Work
         rdf:about="">
        <dc:format>image/svg+xml</dc:format>
        <dc:type
           rdf:resource="http://purl.org/dc/dcmitype/StillImage" />
        <dc:title></dc:title>
      </cc:Work>
    </rdf:RDF>
  </metadata>
  <sodipodi:namedview
     pagecolor="#ffffff"
     bordercolor="#666666"
     borderopacity="1"
     objecttolerance="10"
     gridtolerance="10"
     guidetolerance="10"
     inkscape:pageopacity="0"
     inkscape:pageshadow="2"
     inkscape:window-width="1853"
     inkscape:window-height="1016"
     id="namedview40"
     showgrid="false"
     inkscape:snap-page="true"
     inkscape:zoom="0.77111111"
     inkscape:cx="261.45028"
     inkscape:cy="263.75781"
     inkscape:window-x="67"
     inkscape:window-y="27"
     inkscape:window-maximized="1"
     inkscape:current-layer="svg38" />
  <defs
     id="defs3">
    <path
       id="spearshape"
       d="M -1,55.425626 H 1 V -38 c 2,-2 2,-5 2,-8 C 3,-48 3,-56 0,-64.66323 -3,-56 -3,-48 -3,-46 c 0,3 0,6 2,8 z"
       stroke-miterlimit="10"
       transform="rotate(30)"
       inkscape:connector-curvature="0"
       style="stroke-miterlimit:10" />
    <!-- 32*sqrt(3), -112/sqrt(3)-->
  </defs>
  <rect
     width="600"
     height="600"
     id="rect5"
     x="0"
     y="0"
     style="fill:#ffffff;stroke-width:0.81649661" />
  <rect
     width="600"
     height="180"
     id="rect7"
     x="0"
     y="0"
     style="fill:#000000;stroke-width:0.81649661" />
  <rect
     width="600"
     height="180"
     y="210"
     id="rect9"
     x="0"
     style="fill:#bb0000;stroke-width:0.81649661" />
  <rect
     width="600"
     height="180"
     y="420"
     id="rect11"
     x="0"
     style="fill:#006600;stroke-width:0.81649661" />
  <g
     transform="matrix(3.75,0,0,3.75,300,300)"
     id="g36">
    <g
       id="spear">
      <use
         xlink:href="#spearshape"
         id="use13"
         style="fill:#000000"
         x="0"
         y="0"
         width="100%"
         height="100%" />
      <use
         xlink:href="#spearshape"
         id="use15"
         style="fill:#ffffff"
         x="0"
         y="0"
         width="100%"
         height="100%" />
    </g>
    <use
       xlink:href="#spear"
       transform="scale(-1,1)"
       id="use18"
       x="0"
       y="0"
       width="100%"
       height="100%" />
    <path
       d="m -19,24 c 3,8 13,24 19,24 6,0 16,-16 19,-24 V -24 C 16,-32 6,-48 0,-48 c -6,0 -16,16 -19,24 z"
       id="path20"
       inkscape:connector-curvature="0"
       style="fill:#bb0000" />
    <path
       id="deco_r"
       d="m 19,24 c 3,-8 5,-16 5,-24 0,-8 -2,-16 -5,-24 -3,8 -5,16 -5,24 0,8 2,16 5,24 z"
       inkscape:connector-curvature="0"
       style="fill:#000000" />
    <use
       xlink:href="#deco_r"
       transform="scale(-1,1)"
       id="use23"
       x="0"
       y="0"
       width="100%"
       height="100%" />
    <g
       id="g34"
       style="fill:#ffffff">
      <ellipse
         rx="4"
         ry="6"
         id="ellipse25"
         cx="0"
         cy="0" />
      <path
         id="deco_br"
         d="m 1,5.85 c 0,0 4,8 4,21 0,13 -4,21 -4,21 z"
         inkscape:connector-curvature="0" />
      <use
         xlink:href="#deco_br"
         transform="scale(-1)"
         id="use28"
         x="0"
         y="0"
         width="100%"
         height="100%" />
      <use
         xlink:href="#deco_br"
         transform="scale(-1,1)"
         id="use30"
         x="0"
         y="0"
         width="100%"
         height="100%" />
      <use
         xlink:href="#deco_br"
         transform="scale(1,-1)"
         id="use32"
         x="0"
         y="0"
         width="100%"
         height="100%" />
    </g>
  </g>
</svg>
