<?xml version="1.0" encoding="UTF-8" standalone="no"?>
<svg
   xmlns:dc="http://purl.org/dc/elements/1.1/"
   xmlns:cc="http://creativecommons.org/ns#"
   xmlns:rdf="http://www.w3.org/1999/02/22-rdf-syntax-ns#"
   xmlns:svg="http://www.w3.org/2000/svg"
   xmlns="http://www.w3.org/2000/svg"
   xmlns:sodipodi="http://sodipodi.sourceforge.net/DTD/sodipodi-0.dtd"
   xmlns:inkscape="http://www.inkscape.org/namespaces/inkscape"
   width="100%"
   height="100%"
   viewBox="0 0 3900 3900"
   version="1.1"
   id="svg33"
   sodipodi:docname="usa.svg"
   inkscape:version="0.92.3 (2405546, 2018-03-11)">
  <metadata
     id="metadata39">
    <rdf:RDF>
      <cc:Work
         rdf:about="">
        <dc:format>image/svg+xml</dc:format>
        <dc:type
           rdf:resource="http://purl.org/dc/dcmitype/StillImage" />
        <dc:title></dc:title>
      </cc:Work>
    </rdf:RDF>
  </metadata>
  <defs
     id="defs37">
    <clipPath
       clipPathUnits="userSpaceOnUse"
       id="clipPath1531">
      <rect
         style="opacity:1;fill:none;fill-opacity:1;stroke:#000000;stroke-width:60;stroke-linecap:round;stroke-linejoin:round;stroke-miterlimit:4;stroke-dasharray:none;stroke-opacity:1;paint-order:fill markers stroke"
         id="rect1533"
         width="3900"
         height="3900"
         x="520"
         y="0" />
    </clipPath>
    <clipPath
       clipPathUnits="userSpaceOnUse"
       id="clipPath1541">
      <rect
         style="opacity:1;fill:none;fill-opacity:1;stroke:#ffffff;stroke-width:136.06298828;stroke-linecap:round;stroke-linejoin:round;stroke-miterlimit:4;stroke-dasharray:none;stroke-opacity:1;paint-order:fill markers stroke"
         id="rect1543"
         width="3900"
         height="3900"
         x="2.1406249e-06"
         y="1.4140625e-05" />
    </clipPath>
  </defs>
  <sodipodi:namedview
     pagecolor="#ffffff"
     bordercolor="#666666"
     borderopacity="1"
     objecttolerance="10"
     gridtolerance="10"
     guidetolerance="10"
     inkscape:pageopacity="0"
     inkscape:pageshadow="2"
     inkscape:window-width="1853"
     inkscape:window-height="1016"
     id="namedview35"
     showgrid="false"
     inkscape:snap-page="true"
     inkscape:zoom="0.79470786"
     inkscape:cx="306.3666"
     inkscape:cy="383.19421"
     inkscape:window-x="67"
     inkscape:window-y="27"
     inkscape:window-maximized="1"
     inkscape:current-layer="svg33" />
  <rect
     width="3900"
     height="3900"
     id="rect2"
     x="9.5400001e-06"
     y="0"
     style="fill:#b22234;stroke-width:1" />
  <path
     d="M 9.5400002e-6,450 H 3900 m 0,600 H 9.5400002e-6 m 0,600 H 3900 m 0,600 H 9.5400002e-6 m 0,600 H 3900 m 0,600 H 9.5400002e-6"
     id="path4"
     inkscape:connector-curvature="0"
     style="stroke:#ffffff;stroke-width:300" />
  <rect
     width="2964"
     height="2100"
     id="rect6"
     x="-1014"
     y="0"
     style="fill:#3c3b6e"
     clip-path="url(#clipPath1541)" />
  <g
     transform="translate(-520)"
     id="use22"
     style="fill:#ffffff"
     clip-path="url(#clipPath1531)">
    <g
       id="g1383">
      <g
         id="g1379">
        <path
           inkscape:connector-curvature="0"
           d="M 247,90 317.53423,307.08204 132.87322,172.91796 H 361.12678 L 176.46577,307.08204 Z"
           id="path1371" />
        <path
           inkscape:connector-curvature="0"
           d="M 247,510 317.53423,727.08204 132.87322,592.91796 H 361.12678 L 176.46577,727.08204 Z"
           id="use1373" />
        <path
           inkscape:connector-curvature="0"
           d="m 247,930 70.53423,217.082 -184.66101,-134.164 h 228.25356 l -184.66101,134.164 z"
           id="use1375" />
        <path
           inkscape:connector-curvature="0"
           d="m 247,1350 70.53423,217.082 -184.66101,-134.164 h 228.25356 l -184.66101,134.164 z"
           id="use1377" />
      </g>
      <path
         inkscape:connector-curvature="0"
         d="m 247,1770 70.53423,217.082 -184.66101,-134.164 h 228.25356 l -184.66101,134.164 z"
         id="use1381" />
    </g>
    <g
       id="use1385"
       transform="translate(247,210)">
      <path
         inkscape:connector-curvature="0"
         d="M 247,90 317.53423,307.08204 132.87322,172.91796 H 361.12678 L 176.46577,307.08204 Z"
         id="path1443" />
      <path
         inkscape:connector-curvature="0"
         d="M 247,510 317.53423,727.08204 132.87322,592.91796 H 361.12678 L 176.46577,727.08204 Z"
         id="use1445" />
      <path
         inkscape:connector-curvature="0"
         d="m 247,930 70.53423,217.082 -184.66101,-134.164 h 228.25356 l -184.66101,134.164 z"
         id="use1447" />
      <path
         inkscape:connector-curvature="0"
         d="m 247,1350 70.53423,217.082 -184.66101,-134.164 h 228.25356 l -184.66101,134.164 z"
         id="use1449" />
    </g>
  </g>
  <g
     transform="translate(-26)"
     id="use25"
     style="fill:#ffffff">
    <g
       style="fill:#ffffff"
       id="g923">
      <g
         id="g919">
        <g
           id="g915">
          <path
             id="path907"
             d="M 247,90 317.53423,307.08204 132.87322,172.91796 H 361.12678 L 176.46577,307.08204 Z"
             inkscape:connector-curvature="0" />
          <path
             inkscape:connector-curvature="0"
             d="M 247,510 317.53423,727.08204 132.87322,592.91796 H 361.12678 L 176.46577,727.08204 Z"
             id="use909" />
          <path
             inkscape:connector-curvature="0"
             d="m 247,930 70.53423,217.082 -184.66101,-134.164 h 228.25356 l -184.66101,134.164 z"
             id="use911" />
          <path
             inkscape:connector-curvature="0"
             d="m 247,1350 70.53423,217.082 -184.66101,-134.164 h 228.25356 l -184.66101,134.164 z"
             id="use913" />
        </g>
        <path
           inkscape:connector-curvature="0"
           d="m 247,1770 70.53423,217.082 -184.66101,-134.164 h 228.25356 l -184.66101,134.164 z"
           id="use917" />
      </g>
      <g
         id="use921"
         transform="translate(247,210)">
        <path
           inkscape:connector-curvature="0"
           d="M 247,90 317.53423,307.08204 132.87322,172.91796 H 361.12678 L 176.46577,307.08204 Z"
           id="path1403" />
        <path
           inkscape:connector-curvature="0"
           d="M 247,510 317.53423,727.08204 132.87322,592.91796 H 361.12678 L 176.46577,727.08204 Z"
           id="use1405" />
        <path
           inkscape:connector-curvature="0"
           d="m 247,930 70.53423,217.082 -184.66101,-134.164 h 228.25356 l -184.66101,134.164 z"
           id="use1407" />
        <path
           inkscape:connector-curvature="0"
           d="m 247,1350 70.53423,217.082 -184.66101,-134.164 h 228.25356 l -184.66101,134.164 z"
           id="use1409" />
      </g>
    </g>
    <g
       transform="translate(494)"
       id="use925"
       style="fill:#ffffff">
      <g
         id="g1365">
        <g
           id="g1361">
          <path
             inkscape:connector-curvature="0"
             d="M 247,90 317.53423,307.08204 132.87322,172.91796 H 361.12678 L 176.46577,307.08204 Z"
             id="path1353" />
          <path
             inkscape:connector-curvature="0"
             d="M 247,510 317.53423,727.08204 132.87322,592.91796 H 361.12678 L 176.46577,727.08204 Z"
             id="use1355" />
          <path
             inkscape:connector-curvature="0"
             d="m 247,930 70.53423,217.082 -184.66101,-134.164 h 228.25356 l -184.66101,134.164 z"
             id="use1357" />
          <path
             inkscape:connector-curvature="0"
             d="m 247,1350 70.53423,217.082 -184.66101,-134.164 h 228.25356 l -184.66101,134.164 z"
             id="use1359" />
        </g>
        <path
           inkscape:connector-curvature="0"
           d="m 247,1770 70.53423,217.082 -184.66101,-134.164 h 228.25356 l -184.66101,134.164 z"
           id="use1363" />
      </g>
      <g
         id="use1367"
         transform="translate(247,210)">
        <path
           inkscape:connector-curvature="0"
           d="M 247,90 317.53423,307.08204 132.87322,172.91796 H 361.12678 L 176.46577,307.08204 Z"
           id="path1433" />
        <path
           inkscape:connector-curvature="0"
           d="M 247,510 317.53423,727.08204 132.87322,592.91796 H 361.12678 L 176.46577,727.08204 Z"
           id="use1435" />
        <path
           inkscape:connector-curvature="0"
           d="m 247,930 70.53423,217.082 -184.66101,-134.164 h 228.25356 l -184.66101,134.164 z"
           id="use1437" />
        <path
           inkscape:connector-curvature="0"
           d="m 247,1350 70.53423,217.082 -184.66101,-134.164 h 228.25356 l -184.66101,134.164 z"
           id="use1439" />
      </g>
    </g>
  </g>
  <g
     transform="translate(962)"
     id="use27"
     style="fill:#ffffff">
    <g
       id="g1347">
      <g
         id="g1343">
        <path
           inkscape:connector-curvature="0"
           d="M 247,90 317.53423,307.08204 132.87322,172.91796 H 361.12678 L 176.46577,307.08204 Z"
           id="path1335" />
        <path
           inkscape:connector-curvature="0"
           d="M 247,510 317.53423,727.08204 132.87322,592.91796 H 361.12678 L 176.46577,727.08204 Z"
           id="use1337" />
        <path
           inkscape:connector-curvature="0"
           d="m 247,930 70.53423,217.082 -184.66101,-134.164 h 228.25356 l -184.66101,134.164 z"
           id="use1339" />
        <path
           inkscape:connector-curvature="0"
           d="m 247,1350 70.53423,217.082 -184.66101,-134.164 h 228.25356 l -184.66101,134.164 z"
           id="use1341" />
      </g>
      <path
         inkscape:connector-curvature="0"
         d="m 247,1770 70.53423,217.082 -184.66101,-134.164 h 228.25356 l -184.66101,134.164 z"
         id="use1345" />
    </g>
    <g
       id="use1349"
       transform="translate(247,210)">
      <path
         inkscape:connector-curvature="0"
         d="M 247,90 317.53423,307.08204 132.87322,172.91796 H 361.12678 L 176.46577,307.08204 Z"
         id="path1423" />
      <path
         inkscape:connector-curvature="0"
         d="M 247,510 317.53423,727.08204 132.87322,592.91796 H 361.12678 L 176.46577,727.08204 Z"
         id="use1425" />
      <path
         inkscape:connector-curvature="0"
         d="m 247,930 70.53423,217.082 -184.66101,-134.164 h 228.25356 l -184.66101,134.164 z"
         id="use1427" />
      <path
         inkscape:connector-curvature="0"
         d="m 247,1350 70.53423,217.082 -184.66101,-134.164 h 228.25356 l -184.66101,134.164 z"
         id="use1429" />
    </g>
  </g>
  <g
     id="use29"
     style="fill:#ffffff"
     transform="translate(1456)">
    <g
       id="g1397">
      <path
         inkscape:connector-curvature="0"
         d="M 247,90 317.53423,307.08204 132.87322,172.91796 H 361.12678 L 176.46577,307.08204 Z"
         id="path1389" />
      <path
         inkscape:connector-curvature="0"
         d="M 247,510 317.53423,727.08204 132.87322,592.91796 H 361.12678 L 176.46577,727.08204 Z"
         id="use1391" />
      <path
         inkscape:connector-curvature="0"
         d="m 247,930 70.53423,217.082 -184.66101,-134.164 h 228.25356 l -184.66101,134.164 z"
         id="use1393" />
      <path
         inkscape:connector-curvature="0"
         d="m 247,1350 70.53423,217.082 -184.66101,-134.164 h 228.25356 l -184.66101,134.164 z"
         id="use1395" />
    </g>
    <path
       inkscape:connector-curvature="0"
       d="m 247,1770 70.53423,217.082 -184.66101,-134.164 h 228.25356 l -184.66101,134.164 z"
       id="use1399" />
  </g>
</svg>
