<?xml version="1.0" encoding="UTF-8" standalone="no"?>
<!-- Created with Inkscape (http://www.inkscape.org/) -->

<svg
   id="svg2"
   version="1.1"
   inkscape:version="1.1.1 (3bf5ae0d25, 2021-09-20)"
   width="64.791565"
   height="33.969849"
   sodipodi:docname="army.svg"
   xmlns:inkscape="http://www.inkscape.org/namespaces/inkscape"
   xmlns:sodipodi="http://sodipodi.sourceforge.net/DTD/sodipodi-0.dtd"
   xmlns="http://www.w3.org/2000/svg"
   xmlns:svg="http://www.w3.org/2000/svg"
   xmlns:rdf="http://www.w3.org/1999/02/22-rdf-syntax-ns#"
   xmlns:cc="http://creativecommons.org/ns#"
   xmlns:dc="http://purl.org/dc/elements/1.1/">
  <metadata
     id="metadata8">
    <rdf:RDF>
      <cc:Work
         rdf:about="">
        <dc:format>image/svg+xml</dc:format>
        <dc:type
           rdf:resource="http://purl.org/dc/dcmitype/StillImage" />
      </cc:Work>
    </rdf:RDF>
  </metadata>
  <defs
     id="defs6">
    <inkscape:perspective
       sodipodi:type="inkscape:persp3d"
       inkscape:vp_x="0 : 0.5 : 1"
       inkscape:vp_y="0 : 1000 : 0"
       inkscape:vp_z="1 : 0.5 : 1"
       inkscape:persp3d-origin="0.5 : 0.33333333 : 1"
       id="perspective10" />
  </defs>
  <sodipodi:namedview
     pagecolor="#ffffff"
     bordercolor="#666666"
     borderopacity="1"
     objecttolerance="10"
     gridtolerance="10"
     guidetolerance="10"
     inkscape:pageopacity="0"
     inkscape:pageshadow="2"
     inkscape:window-width="1920"
     inkscape:window-height="1017"
     id="namedview4"
     showgrid="false"
     inkscape:zoom="7.1011573"
     inkscape:cx="7.9564495"
     inkscape:cy="10.772892"
     inkscape:window-x="-8"
     inkscape:window-y="-8"
     inkscape:window-maximized="1"
     inkscape:current-layer="svg2"
     fit-margin-top="0"
     fit-margin-left="0"
     fit-margin-right="0"
     fit-margin-bottom="0"
     inkscape:pagecheckerboard="0" />
  <path
     id="shadow"
     style="opacity:0.5;stroke-width:0.038477"
     d="m 40.361005,-15.640385 -0.804455,1.315217 c 0.124778,0.192294 0.151848,0.379174 0.08255,0.58144 l -0.09503,0.0389 0.05494,0.08731 0.225093,0.07275 0.09532,-0.0389 -0.05434,-0.0876 c 0.06883,-0.203725 0.177703,-0.364196 0.388419,-0.458796 z m -4.946393,0.355456 -0.105719,1.538231 c 0.185964,0.105238 0.293422,0.246167 0.333186,0.435932 -0.141455,0.07268 -0.241082,0.147913 -0.285673,0.219152 -0.07122,0.113737 -0.07753,0.16587 -0.05672,0.468299 0.01289,0.187191 0.05487,0.442053 0.09354,0.566295 0.03409,0.109526 0.0511,0.166071 0.05108,0.198071 -1.7e-5,0.03202 -0.01715,0.03933 -0.05137,0.05019 -0.03007,0.0096 -0.05326,0.02601 -0.07038,0.04751 -0.01716,0.02153 -0.02796,0.04806 -0.03356,0.0778 -0.0056,0.02971 -0.0057,0.06265 -0.0012,0.09681 0.0045,0.03418 0.01352,0.06966 0.02673,0.104529 0.02628,0.06937 0.0686,0.136089 0.120862,0.185894 0.02647,0.02523 0.05545,0.04611 0.08641,0.06058 0.03071,0.01435 0.06311,0.02257 0.09681,0.02257 0.09162,0 0.123272,0.02583 0.176987,0.144916 0.0359,0.07965 0.08855,0.248388 0.117298,0.375054 0.0287,0.126666 0.06319,0.265024 0.07662,0.307349 0.0098,0.03103 0.0041,0.05899 -0.02881,0.0974 -0.03295,0.03841 -0.09321,0.08728 -0.19213,0.16006 -0.134902,0.09927 -0.304319,0.2577955 -0.37654,0.3524875 -0.07222,0.09473 -0.17697,0.199635 -0.233109,0.233109 -0.174725,0.104236 -0.47849,0.631318 -0.589459,1.023015 -0.01638,0.05781 -0.09993,0.201658 -0.185003,0.331105 -0.08507,0.129451 -0.171586,0.244649 -0.193615,0.245284 -0.01712,4.57e-4 -0.02206,-0.01388 -0.01099,-0.03178 0.01107,-0.01793 0.0064,-0.119634 -0.0104,-0.225983 -0.02289,-0.144789 -0.01718,-0.211341 0.02346,-0.265478 0.02736,-0.03646 0.03976,-0.122646 0.03801,-0.217372 -0.0017,-0.09472 -0.01756,-0.198179 -0.04692,-0.268746 -0.02151,-0.05167 -0.0091,-0.06712 0.05316,-0.06712 0.100618,0 0.102008,-0.03052 0.0063,-0.132441 -0.04109,-0.04375 -0.09735,-0.181534 -0.125018,-0.306161 -0.02926,-0.131842 -0.06832,-0.221122 -0.111061,-0.262509 -0.04273,-0.04139 -0.0892,-0.03498 -0.133927,0.02524 -0.03047,0.04109 -0.05553,0.123478 -0.05553,0.182925 0,0.08438 -0.01788,0.108092 -0.08136,0.108092 -0.11624,0 -0.365683,0.149055 -0.410393,0.245284 -0.06287,0.135172 -0.124639,0.384858 -0.114328,0.462658 0.0029,0.02187 -0.02315,0.06437 -0.07988,0.12888 -0.170259,0.193492 -0.615193,0.584548 -1.372642,1.208311 -0.319397,0.263047 -0.495363,0.405664 -0.60965,0.482556 -0.114286,0.07689 -0.166879,0.08799 -0.238753,0.0882 -0.04528,1.24e-4 -0.08347,0.0036 -0.115219,0.01069 -0.03172,0.0073 -0.05723,0.01819 -0.07691,0.03354 -0.0197,0.01535 -0.03364,0.03499 -0.04276,0.05972 -0.0091,0.02473 -0.01336,0.05449 -0.01336,0.08968 0,0.02182 -0.0047,0.04226 -0.0199,0.06591 -0.04579,0.07093 -0.185342,0.170684 -0.566888,0.423162 -1.119681,0.740879 -1.919038,1.21121 -2.024349,1.191088 -0.129707,-0.02481 -0.197476,0.0058 -0.197476,0.08938 0,0.120169 -1.649689,0.922271 -2.905119,1.412621 -0.478384,0.186847 -0.893758,0.3353065 -1.208015,0.4335569 -0.314202,0.098236 -0.527388,0.1461317 -0.601929,0.1321427 -0.05058,-0.00953 -0.09626,-0.013749 -0.136897,-0.01273 -0.08122,0.00218 -0.14263,0.025243 -0.184707,0.069472 -0.02104,0.022115 -0.03729,0.04954 -0.0487,0.082254 -0.0097,0.027789 -0.02209,0.050558 -0.03653,0.068309 -0.02889,0.0355 -0.06609,0.0507 -0.108091,0.04365 -0.021,-0.0036 -0.04312,-0.01259 -0.06592,-0.02735 -0.02071,-0.01338 -0.04138,-0.03943 -0.06028,-0.07335 -0.01889,-0.033907 -0.03599,-0.075721 -0.04989,-0.1199721 -0.0278,-0.088517 -0.04243,-0.1875676 -0.03118,-0.2568725 0.02874,-0.1771868 -0.04455,-0.344284 -0.210542,-0.481067 l -0.134523,-0.111061 0.06295,-0.157386 c 0.03466,-0.08665 0.06325,-0.243116 0.06325,-0.347732 0,-0.157836 -0.02038,-0.213632 -0.119079,-0.326061 -0.06718,-0.07653 -0.184421,-0.155115 -0.26934,-0.180547 -0.04141,-0.01244 -0.07905,-0.02808 -0.106308,-0.04336 -0.02724,-0.0152 -0.04395,-0.02997 -0.04395,-0.04066 0,-0.02146 -0.02736,-0.06925 -0.06087,-0.106311 -0.02796,-0.03092 -0.04157,-0.0483 -0.03949,-0.06292 0.0021,-0.01462 0.01975,-0.02619 0.05464,-0.04481 0.02093,-0.0112 0.04449,-0.03448 0.06562,-0.06292 0.02114,-0.02844 0.03994,-0.06212 0.05108,-0.09413 0.01449,-0.04154 0.02094,-0.08126 0.02108,-0.118481 4.56e-4,-0.148947 -0.103033,-0.257215 -0.224498,-0.275874 -0.03037,-0.0044 -0.06168,-0.0036 -0.09295,0.0036 -0.0625,0.01455 -0.124348,0.05456 -0.174312,0.125908 -0.03026,0.04321 -0.04558,0.06474 -0.06058,0.0662 -0.01498,0.0015 -0.02945,-0.01702 -0.05731,-0.05405 -0.06522,-0.08673 -0.359668,-0.800625 -0.385449,-0.934521 -0.01066,-0.05529 0.01155,-0.120997 0.05791,-0.170748 0.04144,-0.04452 0.07707,-0.09928 0.07899,-0.121755 0.02113,-0.245073 0.02853,-0.399295 0.0294,-0.524126 6.08e-4,-0.0521 1.8e-5,-0.09671 -0.0021,-0.130957 -0.0017,-0.02318 -0.0025,-0.05005 -0.0057,-0.068 -0.0068,-0.04158 -0.01636,-0.07311 -0.03386,-0.09532 -0.02012,-0.02555 -0.02524,-0.06433 -0.01159,-0.08642 0.01365,-0.02209 0.0081,-0.04038 -0.01247,-0.04038 -0.02054,0 -0.03304,-0.03006 -0.02761,-0.06711 0.01666,-0.113433 -0.133564,-0.279143 -0.253306,-0.279143 -0.0642,0 -0.109602,0.02083 -0.138085,0.06592 -0.02849,0.0451 -0.04017,0.11446 -0.03741,0.21173 0.0011,0.03993 -0.0034,0.07766 -0.01365,0.112842 -0.01025,0.03516 -0.02624,0.06776 -0.04751,0.0977 -0.02128,0.02995 -0.04789,0.05743 -0.07988,0.08166 -0.03199,0.02426 -0.06929,0.04549 -0.111654,0.06355 -0.04595,0.01961 -0.08853,0.02618 -0.168078,0.01336 -0.07955,-0.01282 -0.196133,-0.04512 -0.389903,-0.103341 -0.38908,-0.116894 -0.506372,-0.135627 -0.854936,-0.136896 -0.319513,-0.0011 -0.436277,0.01374 -0.557979,0.07157 -0.08638,0.04101 -0.254968,0.07696 -0.384558,0.08196 -0.126974,0.0049 -0.306791,0.03696 -0.399406,0.07097 -0.342869,0.125859 -0.654151,0.06133 -0.731106,-0.151448 -0.104195,-0.288155 -0.45045,-0.308697 -0.550259,-0.03266 -0.0404,0.111699 -0.06487,0.130364 -0.171639,0.130364 -0.06857,0 -0.135396,-0.01744 -0.14848,-0.03861 -0.0086,-0.01395 -0.02917,-0.0239 -0.05642,-0.02999 -0.05451,-0.01219 -0.136254,-0.0089 -0.204305,0.008 -0.03402,0.0084 -0.06455,0.02021 -0.08671,0.03534 -0.04175,0.02847 -0.214369,0.0731 -0.383668,0.09918 -0.320447,0.04934 -0.599665,0.105938 -0.838306,0.169857 -0.11932,0.03196 -0.228461,0.06585 -0.327542,0.101559 -0.09908,0.03571 -0.188278,0.07332 -0.26726,0.112847 -0.04892,0.02452 -0.08673,0.05092 -0.127988,0.07691 -0.02543,0.016 -0.05647,0.03092 -0.07899,0.0475 -0.0077,0.0058 -0.01194,0.01208 -0.0193,0.01782 -0.161848,0.126229 -0.245286,0.268134 -0.245286,0.427912 0,0.0044 -0.0075,0.01841 -0.0083,0.02408 -0.0054,0.03528 -0.02039,0.08236 -0.05227,0.147885 -0.0085,0.01724 -0.02431,0.0419 -0.03445,0.06089 -0.03076,0.05783 -0.06097,0.115622 -0.103637,0.181741 -0.02228,0.03455 -0.03567,0.05776 -0.0588,0.09413 -0.367671,0.571709 -0.390808,0.667842 -0.207573,0.851074 0.03151,0.0315 0.05464,0.04459 0.07899,0.06001 0.04936,0.02575 0.09854,0.03914 0.151744,0.02852 0.02896,-0.0058 0.04712,-7.27e-4 0.06712,0.0022 0.0089,0.0015 0.02248,-0.0022 0.03029,0.0015 0.02598,0.01215 0.04827,0.03652 0.07513,0.0775 0.02492,0.03805 0.06855,0.08158 0.12383,0.126505 0.165846,0.134783 0.435859,0.280879 0.616481,0.321303 0.184728,0.04132 0.225815,0.03928 0.32101,-0.01695 0.07909,-0.0467 0.149415,-0.06693 0.2438,-0.05703 0.09438,0.0099 0.212733,0.05005 0.387824,0.123537 0.171607,0.07202 0.363622,0.142473 0.426725,0.156789 0.06314,0.01433 0.276831,0.0951 0.474833,0.179362 0.197966,0.08426 0.509789,0.205754 0.693094,0.26993 0.183305,0.06416 0.34693,0.129553 0.363475,0.145215 0.01655,0.01564 -0.03875,0.04903 -0.12294,0.07424 -0.05089,0.0152 -0.09782,0.03572 -0.140163,0.06089 0,0 0,3.06e-4 0,3.06e-4 -0.04228,0.0251 -0.0803,0.05471 -0.113436,0.0876 -0.06636,0.06598 -0.11359,0.1453242 -0.13957,0.230444 -0.0039,0.012876 -0.0039,0.026407 -0.0068,0.039501 -0.02618,0.1169169 -0.01609,0.241334 0.04336,0.3539732 0.02197,0.04161 0.05013,0.08147 0.08493,0.118779 0.02484,0.02655 0.05248,0.0451 0.07958,0.06329 0.0087,0.0058 0.01658,0.01542 0.02524,0.02022 0,0 3.04e-4,0 3.04e-4,0 0.03585,0.01986 0.07092,0.03085 0.101559,0.03085 0.09088,0 0.100073,0.01397 0.100073,0.152635 0,0.10962 -0.02015,0.163277 -0.07186,0.190943 -0.02709,0.01448 -0.05304,0.03928 -0.07662,0.07158 -0.02359,0.0323 -0.04475,0.07209 -0.06266,0.116706 -0.03579,0.08928 -0.0582,0.197847 -0.0582,0.304078 0,0.151682 0.01903,0.207471 0.09503,0.278841 0.136054,0.127822 0.417826,0.1487 0.645879,0.04779 l 0.1755,-0.0775 0.10631,0.111061 c 0.07061,0.07371 0.151648,0.118728 0.239347,0.134223 0.0877,0.01549 0.182193,0.0015 0.279732,-0.04248 0.08346,-0.03761 0.170921,-0.09183 0.194506,-0.120271 0.01745,-0.02102 0.03445,-0.02844 0.06028,-0.01899 0.02585,0.0095 0.06061,0.03594 0.114031,0.08285 0.148251,0.130171 0.299525,0.148241 0.476019,0.05703 0.05623,-0.0291 0.08474,-0.0435 0.106609,-0.03266 0.02186,0.01084 0.03722,0.04685 0.068,0.119085 0.08536,0.20045801 0.137726,0.33241901 0.168672,0.43444501 0.03096,0.102033 0.04038,0.17419 0.04038,0.255083 0,0.153944 0.018,0.192645 0.142242,0.306456 0.07822,0.07165 0.154842,0.130069 0.170155,0.130069 0.01531,0 0.01028,0.06394 -0.01128,0.141942 -0.0511,0.185152 -0.01324,0.40707798 0.107202,0.62836298 l 0.0971,0.17846701 -0.154714,0.631921 c -0.16319,0.666845 -0.279838,1.258959 -0.336153,1.701261 -0.01877,0.147404 -0.03072,0.278259 -0.03564,0.389611 -0.006,0.135555 -0.01499,0.238133 -0.02821,0.315658 -0.01321,0.07747 -0.03062,0.129823 -0.05375,0.165111 -0.01793,0.02735 -0.03622,0.07514 -0.05108,0.129772 -0.01484,0.05463 -0.02627,0.116124 -0.03088,0.171636 -0.01169,0.141098 -0.03336,0.202226 -0.07157,0.202226 -0.0481,0 -0.10883,0.04539 -0.157684,0.105721 -0.01504,0.01855 -0.02567,0.03979 -0.03771,0.06031 -0.0075,0.0128 -0.01787,0.02444 -0.02376,0.03739 0,0 0,3.05e-4 0,3.05e-4 -0.0153,0.03375 -0.02435,0.06744 -0.02435,0.0971 0,0.03521 0.0096,0.07129 0.02702,0.106907 0,0 0,3.06e-4 0,3.06e-4 0.01738,0.03564 0.04252,0.07049 0.07365,0.102746 0.06228,0.0646 0.148242,0.118685 0.243801,0.147288 0.10127,0.03034 0.153767,0.07422 0.183816,0.153821 0.04021,0.106544 0.0528,0.111359 0.282701,0.111359 0.187537,0 0.276628,-0.02117 0.405642,-0.09681 0.091,-0.05332 0.181453,-0.125712 0.20104,-0.160651 0.02817,-0.05041 0.0868,-0.0614 0.282108,-0.05434 0.199349,0.0073 0.265531,-0.0065 0.347141,-0.07064 0.05545,-0.04357 0.135503,-0.07929 0.178174,-0.07929 0.02552,0 0.05658,-0.0099 0.08968,-0.02728 0.03313,-0.01739 0.06842,-0.04212 0.102152,-0.071 0.06746,-0.05769 0.12906,-0.132448 0.15709,-0.200153 l 0.04454,-0.107794 0.350407,0.339424 c 0.37065,0.35916 0.784398,0.680638 1.202077,0.939861 0.209656,0.13012 0.420079,0.244214 0.626875,0.340013 0.205143,0.09503 0.406569,0.171898 0.599257,0.227178 0.636758,0.18265 1.573794,0.328963 2.113434,0.329618 l 0.258054,3.06e-4 0.16392,0.336449 c 0.128091,0.2630258 0.228055,0.4010828 0.457609,0.6313308 l 0.293987,0.294875 0.04424,0.37862 c 0.02697,0.23032 0.105248,0.566471 0.199554,0.858203 0.08333,0.2578253 0.162303,0.5295673 0.236674,0.8136545 0,0 0,3.05e-4 0,3.05e-4 0.07437,0.284072 0.144067,0.580351 0.208761,0.887309 0.06469,0.306951 0.124456,0.624384 0.178766,0.950852 0,0 0,2.99e-4 0,2.99e-4 0.05431,0.326468 0.103182,0.661717 0.1464,1.004306 0.09989,0.791742 0.112823,1.005717 0.103935,1.719971 -0.0074,0.596042 0.0024,0.828239 0.03623,0.862059 0.03328,0.03332 0.03502,0.06744 0.0063,0.121158 -0.02201,0.0411 -0.03151,0.163823 -0.02108,0.272905 0.04794,0.501931 0.101348,0.834889 0.14729,0.916997 0.02019,0.03601 0.0347,0.132244 0.04365,0.261623 0.0179,0.258749 0.01391,0.650048 -0.0098,0.957384 -0.01184,0.153676 -0.02848,0.286255 -0.04989,0.370895 -0.04413,0.174342 -0.08088,0.540966 -0.104231,1.039049 -0.04509,0.963081 -0.0732,1.109256 -0.295173,1.545359 -0.147252,0.289194 -0.183732,0.403339 -0.20401,0.634889 -0.01183,0.135132 -0.04963,0.287389 -0.09413,0.405936 -0.02226,0.05929 -0.04624,0.110093 -0.06949,0.146109 -0.02324,0.03601 -0.04559,0.05732 -0.06503,0.05732 -0.01816,0 -0.106637,0.0949 -0.196288,0.211137 -0.08886,0.115179 -0.175911,0.192762 -0.268745,0.235784 -0.0464,0.02153 -0.09418,0.03441 -0.144321,0.03921 -0.05017,0.0051 -0.102811,7.27e-4 -0.158575,-0.01011 -0.08065,-0.01615 -0.151953,-0.0029 -0.21648,0.03921 -0.02657,0.01739 -0.06027,0.05267 -0.09592,0.0977 -0.106953,0.13503 -0.231192,0.356279 -0.231626,0.434146 -3.04e-4,0.03725 0.02721,0.07356 0.06919,0.100666 0,0 3.04e-4,0 3.04e-4,0 0.04197,0.02706 0.09841,0.04481 0.156198,0.04481 0.0293,0 0.04915,0.0076 0.06295,0.0267 0.01384,0.01921 0.02153,0.04998 0.02613,0.09711 0.0065,0.06663 0.03521,0.123217 0.08641,0.169861 0.01537,0.01397 0.03669,0.02517 0.05612,0.03739 0.01294,0.0081 0.02267,0.0179 0.03742,0.02524 0.184568,0.0918 0.511027,0.121711 0.984705,0.09146 1.089861,-0.06962 1.550257,-0.41009 1.178914,-0.872164 -0.03544,-0.04408 -0.06506,-0.09217 -0.08582,-0.137191 -0.02076,-0.04503 -0.03264,-0.08693 -0.03237,-0.119084 7.28e-4,-0.09239 0.01764,-0.193802 0.04484,-0.285077 0.02719,-0.09125 0.06474,-0.172451 0.106905,-0.224202 0.04444,-0.05456 0.125432,-0.191263 0.179954,-0.304077 0.09462,-0.195701 0.100656,-0.248485 0.131553,-1.135263 0.04702,-1.349164 0.207434,-2.966658 0.367036,-3.700074 0.03225,-0.148132 0.08509,-0.416702 0.117298,-0.59658 0.03217,-0.179879 0.09262,-0.429367 0.134521,-0.554417 0.02534,-0.07569 0.04451,-0.153647 0.05731,-0.23638 0.03839,-0.248267 0.0203,-0.539534 -0.05404,-0.942538 -0.09738,-0.527901 -0.181907,-1.577746 -0.258054,-3.210982 -0.03059,-0.656029 -0.08542,-1.397868 -0.122049,-1.648695 -0.01861,-0.1272912 -0.03061,-0.2468052 -0.03623,-0.3593212 -0.01122,-0.2250393 0.0034,-0.4224123 0.04514,-0.6007413 0,0 0,-3.06e-4 0,-3.06e-4 0.02085,-0.08917 0.04854,-0.173302 0.08285,-0.253897 l 0.07216,-0.169854 0.309131,0.272011 c 0.156412,0.137824 0.274751,0.243655 0.36971,0.34328 0.284866,0.2988323 0.357256,0.5429383 0.601336,1.4363795 0.284308,1.040526 0.357022,1.364434 0.526206,2.347134 0.09288,0.539643 0.214801,1.128505 0.270824,1.30839 l 0.101856,0.326949 -0.04751,0.56303 c -0.02609,0.309737 -0.03487,0.656196 -0.0196,0.769708 0.03286,0.244019 0.223376,0.852668 0.306755,0.979951 0.0322,0.04918 0.0585,0.116786 0.0585,0.150263 0,0.03346 0.07083,0.189365 0.157089,0.346547 0.11474,0.209042 0.197058,0.44596 0.306756,0.882253 0.195214,0.776335 0.330719,1.46531 0.400592,2.017225 0.05172,0.408481 0.06687,0.740493 0.04395,0.978764 -3.04e-4,0.0029 3.2e-5,0.0076 -3.04e-4,0.01069 -0.0081,0.07965 -0.0207,0.148409 -0.03771,0.205492 -0.0793,0.266068 -0.0793,0.554563 0,0.787233 0.03652,0.107169 0.05114,0.223256 0.04543,0.34328 -0.01142,0.240046 -0.103849,0.495696 -0.262212,0.726351 -0.0396,0.05769 -0.08331,0.113862 -0.130957,0.167781 -0.04763,0.05391 -0.09921,0.10554 -0.154418,0.154417 -0.284423,0.251875 -0.368224,0.377682 -0.368224,0.552635 0,0.04729 0.0089,0.08681 0.02851,0.119376 0.01963,0.03252 0.05027,0.05827 0.09384,0.0781 0.08719,0.03972 0.226416,0.0558 0.435339,0.05645 0.249915,7.27e-4 0.335894,0.01775 0.417223,0.06322 0.01432,0.008 0.03294,0.0098 0.04751,0.02022 0.05658,0.0403 0.149648,0.08243 0.221528,0.107198 a 0.60540826,0.21037937 0 0 0 0.322494,0.04008 0.60540826,0.21037937 0 0 0 0.511061,-0.09858 c 3.04e-4,-1.09e-4 7.28e-4,-3.06e-4 0.0012,-3.06e-4 4.56e-4,-1.31e-4 7.27e-4,-3.05e-4 0.0012,-3.05e-4 0.121623,-0.04343 0.225333,-0.08596 0.312695,-0.128876 0.0014,-7.28e-4 0.0024,-0.0015 0.0039,-0.0022 0.08519,-0.04212 0.154864,-0.08468 0.209651,-0.128876 0.0081,-0.0065 0.01159,-0.01433 0.01901,-0.0211 0.04392,-0.03899 0.0813,-0.07859 0.104232,-0.121158 0.02632,-0.05107 0.04128,-0.104703 0.04128,-0.163627 0,-0.07634 -0.0919,-0.351479 -0.213214,-0.638752 -0.18671,-0.442039 -0.253308,-0.675444 -0.236971,-0.926497 0.0055,-0.08372 0.01993,-0.169126 0.04247,-0.265187 0.06133,-0.261448 0.06115,-0.26454 -0.03712,-0.500367 -0.226168,-0.542698 -0.336378,-0.804153 -0.429101,-1.119819 -0.09272,-0.315673 -0.167945,-0.685636 -0.324277,-1.445283 -0.193924,-0.942458 -0.201698,-1.00459 -0.199851,-1.577433 0.0011,-0.328018 0.01488,-0.856138 0.03089,-1.173571 0.0201,-0.39893 0.0298,-0.604685 0.01573,-0.768224 -0.01406,-0.16354 -0.05165,-0.284742 -0.125908,-0.515215 -0.06953,-0.21588 -0.13352,-0.479416 -0.191538,-0.788716 -0.05801,-0.309308 -0.110076,-0.664474 -0.155901,-1.063696 -0.03482,-0.303546 -0.06546,-1.149964 -0.08285,-2.294582 l -0.02761,-1.8138065 0.09087,-0.02881 c 0.04995,-0.01586 0.214872,-0.156228 0.36674,-0.312101 0.15187,-0.155872 0.297909,-0.283301 0.324574,-0.283301 0.01632,0 0.02652,0.06649 0.03118,0.168378 0.0093,0.203739 -0.0028,0.548815 -0.02732,0.7851523 -0.01222,0.118168 -0.02739,0.209122 -0.04484,0.241719 -0.03355,0.06263 -0.03562,0.09424 -0.0065,0.103939 0.01151,0.0036 0.01993,0.0128 0.02405,0.02437 0.0041,0.01157 0.0041,0.02582 -0.0012,0.0395 -0.01053,0.02743 0.02493,0.102375 0.07899,0.166595 0.05402,0.06424 0.09829,0.135773 0.09829,0.159168 0,0.02342 0.01505,0.04248 0.03356,0.04248 0.06368,0 0.08196,-0.242483 0.08196,-1.0960605 v -0.855546 l 0.336451,-0.02022 c 0.460917,-0.02772 0.692318,-0.12414 1.067854,-0.444542 0.382192,-0.326133 0.762647,-0.493579 1.03014,-0.453446 l 0.170749,0.02553 0.02078,0.453453 c 0.01882,0.408359 0.03295,0.477234 0.14046,0.690125 0.06564,0.130055 0.119662,0.293209 0.11997,0.362586 4.56e-4,0.09561 0.0094,0.112043 0.03771,0.06831 0.0551,-0.08526 0.04643,-0.346314 -0.01871,-0.561241 -0.05867,-0.193555 -0.09093,-0.445095 -0.08641,-0.636976 0.0015,-0.06394 0.0072,-0.121093 0.01723,-0.167483 0.02928,-0.135554 0.04753,-0.155312 0.153229,-0.1657 0.135362,-0.01324 0.140079,-0.0022 0.187675,0.45405 0.01432,0.137555 0.04954,0.328229 0.0784,0.42346 0.03382,0.111563 0.0505,0.236344 0.04989,0.36941 -6.08e-4,0.133067 -0.01846,0.274353 -0.05345,0.419299 -0.04346,0.180017 -0.0628,0.3159503 -0.05731,0.4160403 0.0055,0.100091 0.03583,0.164173 0.09117,0.200444 0.166145,0.1088502 0.193011,0.2439532 0.117595,0.5930162 -0.01843,0.08525 -0.04106,0.167599 -0.06265,0.23163 -0.02161,0.06409 -0.04237,0.109839 -0.05672,0.121747 -0.01772,0.01469 -0.03037,0.04765 -0.03861,0.100076 -0.0083,0.05245 -0.01202,0.124214 -0.01128,0.217372 l 0.0024,0.27439 0.114031,-0.288641 c 0.181612,-0.459608 0.238216,-0.720888 0.212323,-0.981144 -0.01267,-0.126977 -0.02476,-0.2481792 -0.02673,-0.2693412 -0.002,-0.02117 0.01864,-0.09337 0.04573,-0.160353 0.04079,-0.100891 0.03984,-0.1503293 -0.006,-0.2883423 -0.03321,-0.100099 -0.04969,-0.332325 -0.04929,-0.600451 3.04e-4,-0.268119 0.01767,-0.572327 0.05137,-0.81692 0.02478,-0.179842 0.05009,-0.331895 0.05612,-0.33794 0.0095,-0.0095 0.186861,0.02379 0.463549,0.08671 0.06464,0.01477 0.07727,0.05005 0.07958,0.221533 0.0015,0.112509 0.03213,0.243582 0.0876,0.38337 0.05548,0.139788 0.135917,0.288364 0.237862,0.436518 0.06699,0.09739 0.11574,0.181268 0.108391,0.186193 -0.0073,0.0051 -0.0613,0.03899 -0.119972,0.07573 -0.05871,0.03674 -0.134372,0.135518 -0.168077,0.219743 -0.01683,0.04212 -0.04289,0.08908 -0.07157,0.130666 -0.02865,0.04154 -0.05979,0.07793 -0.08641,0.09888 -0.04627,0.03637 -0.06646,0.06009 -0.06622,0.07275 7.27e-4,0.0379 0.184347,-0.02481 0.392874,-0.1505533 0.140326,-0.08465 0.265131,-0.153654 0.277058,-0.153232 0.01194,3.06e-4 0.07739,0.120103 0.145807,0.265776 0.03694,0.07865 0.08469,0.1603103 0.135412,0.2337033 0.05071,0.07337 0.104492,0.1385 0.153229,0.183821 0.619712,0.5762695 0.558103,0.4878685 0.62509,0.8935355 0.01365,0.08267 0.03063,0.166719 0.05672,0.269043 0.0261,0.102324 0.06116,0.222827 0.110467,0.378918 0.0986,0.312174 0.254361,0.76618 0.510469,1.49814 0.179381,0.512669 0.214273,0.777972 0.155901,1.187523 -0.0237,0.166297 -0.06886,0.626821 -0.100371,1.023017 -0.06414,0.806095 -0.243751,2.054841 -0.391388,2.720116 -0.05452,0.245691 -0.110014,0.4391 -0.175798,0.604597 -0.03289,0.08275 -0.06843,0.158534 -0.107795,0.230444 -0.03935,0.07187 -0.08238,0.140079 -0.13066,0.207274 -0.07742,0.107737 -0.148522,0.268054 -0.174611,0.393758 -0.08369,0.403128 -0.321116,0.666962 -0.829396,0.921754 -0.139288,0.06984 -0.253292,0.147478 -0.338827,0.224792 -0.08554,0.07731 -0.142528,0.15425 -0.168078,0.22242 -0.01277,0.03412 -0.01764,0.06576 -0.01424,0.09444 0.0011,0.0092 0.0085,0.01586 0.01128,0.02437 0.006,0.01804 0.0102,0.03666 0.02405,0.05107 0.02033,0.02117 0.04928,0.03826 0.08731,0.0499 0.03807,0.01164 0.08505,0.01811 0.141648,0.01811 0.06622,0 0.123298,0.0243 0.136303,0.0582 0.01232,0.03208 0.07046,0.07674 0.129176,0.09948 0.03823,0.01484 0.09931,0.02532 0.174907,0.0315 0,0 3.04e-4,0 3.04e-4,0 0.151163,0.01229 0.359517,0.0076 0.555606,-0.01244 0.09806,-0.01004 0.19299,-0.02379 0.276167,-0.04125 0.156603,-0.03295 0.291825,-0.05289 0.300521,-0.04423 0.0082,0.0082 0.0063,0.0299 -0.0036,0.06031 -0.0295,0.09122 -0.129057,0.261179 -0.231329,0.383072 -0.07803,0.09303 -0.160588,0.204204 -0.183519,0.247066 -0.02293,0.04285 -0.09154,0.119914 -0.152338,0.171047 -0.09019,0.07592 -0.110467,0.123297 -0.110467,0.258349 0,0.1578 0.0073,0.168712 0.157089,0.228655 0.08646,0.03463 0.211853,0.05965 0.278841,0.05587 0.0708,-0.0044 0.186063,0.0315 0.274983,0.08493 0.196463,0.118008 0.476143,0.118867 0.855529,0.0029 0.221713,-0.06787 0.398505,-0.168065 0.47305,-0.261026 0.02485,-0.03099 0.03831,-0.06111 0.03831,-0.08908 0,-0.03754 -0.05306,-0.196159 -0.117891,-0.352489 -0.04089,-0.09865 -0.07277,-0.184098 -0.09562,-0.261027 -0.04569,-0.15385 -0.05597,-0.273524 -0.03415,-0.394354 0.01092,-0.06045 0.02978,-0.121144 0.05642,-0.186782 0.06814,-0.167956 0.08297,-0.26729 0.07127,-0.481075 -0.0081,-0.148132 -0.01283,-0.624224 -0.0104,-1.05805 0.0012,-0.21575 0.0062,-0.414658 0.01544,-0.603412 0.01718,-0.351435 0.05121,-0.666955 0.102748,-0.98649 0.0039,-0.02371 0.0057,-0.0475 0.0098,-0.07129 0.02923,-0.172073 0.0642,-0.34619 0.10542,-0.528578 0.05541,-0.245219 0.137322,-0.618964 0.182033,-0.830589 0.04467,-0.211625 0.118832,-0.445669 0.164811,-0.519972 0.131093,-0.21185 0.172134,-0.342916 0.205493,-0.658349 0.01997,-0.188848 0.06642,-0.363256 0.130363,-0.489382 0.03215,-0.06343 0.0561,-0.125603 0.07216,-0.188863 0.01606,-0.06322 0.02407,-0.12745 0.02405,-0.195402 -3.8e-5,-0.135897 -0.03215,-0.286146 -0.09651,-0.470374 -0.08361,-0.23929 -0.104299,-0.386462 -0.12977,-0.920561 -0.04567,-0.958469 0.0087,-2.280295 0.112547,-2.732592 0.152368,-0.6637245 0.193715,-0.9731258 0.231922,-1.7315438 0.04987,-0.990324 0.124309,-1.6701838 0.289532,-2.6426128 0.006,-0.03557 0.0302,-0.08701 0.06592,-0.14432 0.03571,-0.05725 0.08311,-0.120263 0.135709,-0.178765 0.172877,-0.192275 0.181752,-0.197069 0.203415,-0.10869 0.01243,0.05085 0.0068,0.161532 -0.01218,0.246179 -0.03131,0.139468 -0.025,0.328178 0.0077,0.447212 0.01092,0.03965 0.02454,0.07165 0.04098,0.09146 0.01969,0.02371 0.04534,0.04001 0.07424,0.04932 0.08668,0.02779 0.202387,-0.0079 0.27231,-0.0968 0.02029,-0.02583 0.0358,-0.04794 0.04632,-0.07042 0.03157,-0.06736 0.01976,-0.136951 -0.03088,-0.314771 -0.01808,-0.06358 -0.0085,-0.08671 0.03593,-0.08671 0.05401,0 0.236025,-0.155181 0.323682,-0.260728 0.02921,-0.03521 0.04811,-0.06482 0.04811,-0.08137 0,-0.02539 -0.04497,-0.0913 -0.100074,-0.146394 -0.07891,-0.07888 -0.168303,-0.326031 -0.420522,-1.163175 -0.220896,-0.733241 -0.32893,-1.093994 -0.474238,-1.432814 C 43.066728,2.3325834 42.883911,2.0156014 42.5133,1.3695463 l -0.452559,-0.78870999 -0.02524,-0.4234599 c -0.02863,-0.4768481 -0.120122,-1.49817701 -0.175798,-1.96228701 -0.02032,-0.169301 -0.03938,-0.368392 -0.04246,-0.442462 -0.0087,-0.209776 -0.03079,-0.259876 -0.12294,-0.283002 -0.05913,-0.01484 -0.128384,-0.108231 -0.224499,-0.3020039 -0.04394,-0.088612 -0.09351,-0.1770341 -0.14729,-0.2636961 -0.107578,-0.173267 -0.232429,-0.3395713 -0.364384,-0.4851713 -0.06597,-0.0728 -0.133593,-0.140436 -0.201929,-0.201339 l -0.212917,-0.189757 0.08523,-0.397621 c 0.03188,-0.14902 0.05871,-0.254021 0.08641,-0.329916 0.0277,-0.07592 0.05604,-0.122592 0.09057,-0.155611 0.05352,-0.05121 0.07976,-0.07437 0.08552,-0.100069 0.0057,-0.02575 -0.0089,-0.05412 -0.03712,-0.116109 -0.093,-0.204161 -0.623041,-0.331255 -0.793764,-0.190354 -0.07965,0.06576 -0.08214,0.07934 -0.03177,0.17491 0.0474,0.09 0.04702,0.137256 -0.003,0.356345 -0.0397,0.174189 -0.08142,0.265551 -0.134521,0.293987 -0.04237,0.02262 -0.08532,0.03281 -0.09532,0.02284 -0.01573,-0.01579 -0.284077,-1.766347 -0.34714,-2.264582 -0.01805,-0.142516 -0.0069,-0.201993 0.05434,-0.288644 0.0424,-0.06002 0.139301,-0.232816 0.215292,-0.384261 0.07599,-0.151446 0.208222,-0.375524 0.293987,-0.497995 0.17484,-0.249565 0.270229,-0.523245 0.270229,-0.77654 0,-0.112161 -0.07206,-0.361106 -0.21173,-0.732293 -0.145251,-0.386041 -0.211728,-0.6183939 -0.211728,-0.7409051 0,-0.236289 -0.110533,-0.396949 -0.412769,-0.600149 -0.149741,-0.101274 -0.30799,-0.174569 -0.464079,-0.233993 l 0.776836,-2.406827 -0.22628,-0.07305 -0.775054,2.401482 c -0.223806,-0.05544 -0.423196,-0.05693 -0.54937,0.0083 -0.114853,0.05941 -0.132111,0.05984 -0.19302,0.0047 -0.03674,-0.03328 -0.08514,-0.06058 -0.107498,-0.06058 -0.02239,0 -0.09021,-0.02569 -0.150854,-0.05731 -0.0606,-0.03159 -0.166391,-0.05775 -0.235188,-0.05791 l -0.125019,-3.04e-4 v -0.267242 c 0,-0.212587 0.02004,-0.304996 0.098,-0.451669 0.02665,-0.0501 0.04616,-0.09507 0.0588,-0.1366 0.02526,-0.08306 0.02233,-0.152073 -0.0092,-0.21856 -0.01576,-0.03324 -0.03845,-0.06596 -0.0686,-0.09948 -0.04833,-0.05375 -0.07537,-0.164007 -0.08968,-0.365552 -0.01555,-0.218799 -0.0571,-0.391705 -0.127395,-0.525018 -0.03515,-0.06666 -0.07739,-0.123252 -0.127393,-0.170749 -0.05,-0.0475 -0.107502,-0.086 -0.173125,-0.115813 -0.09946,-0.04515 -0.207785,-0.0673 -0.332591,-0.06622 v 3.04e-4 c -0.124805,0.0011 -0.266234,0.02529 -0.432667,0.07276 -0.11627,0.03317 -0.222077,0.06903 -0.318929,0.10631 -0.01092,-0.172261 0.0238,-0.331701 0.14343,-0.483147 z m 4.172229,1.704822 -0.09562,0.0389 0.05494,0.0879 0.22509,0.07275 0.09562,-0.0392 -0.05464,-0.0876 z m -6.383661,5.2911595 c 0.01335,0 0.0638,0.04228 0.11225,0.09384 l 0.08819,0.09384 -0.116999,0.31982 c -0.07669,0.209737 -0.134641,0.314985 -0.168079,0.305865 -0.158678,-0.04313 -0.538499,-0.04755 -0.659239,-0.0077 -0.153791,0.05079 -0.200159,0.138225 -0.14729,0.277357 0.04598,0.120894 0.04688,1.343619 0.0012,1.589609 -0.02774,0.149485 -0.07054,0.224312 -0.197477,0.346248 -0.149407,0.14352 -0.17602,0.154505 -0.34328,0.142538 -0.09977,-0.0073 -0.215388,-0.0022 -0.256866,0.01098 -0.07457,0.02364 -0.503284,0.769192 -0.69844,1.214257 -0.232786,0.530906 -0.387532,0.7382169 -1.012324,1.3570863 l -0.612916,0.606976 -0.08998,-0.09711 c -0.09939,-0.107271 -0.159389,-0.118096 -0.299331,-0.05434 -0.08769,0.04001 -0.179065,0.178394 -0.179065,0.271123 0,0.02248 -0.03822,0.08065 -0.08493,0.129175 -0.0658,0.06831 -0.113256,0.0837 -0.209948,0.06802 -0.171378,-0.02779 -0.363478,0.156323 -0.35813,0.34328 0.008,0.277961 -0.295769,1.06963901 -0.410392,1.06963901 -0.111545,0 -0.282097,0.206925 -0.38337,0.465027 -0.092,0.234598 -0.15016,0.3122029 -0.431775,0.57877198 l -0.325463,0.30793991 -0.05791,-0.119674 c -0.07326,-0.15121601 -0.162138,-0.19898901 -0.313585,-0.16866801 -0.134554,0.02692 -0.310319,0.21187201 -0.310319,0.32665011 0,0.1129669 0.109067,0.302892 0.174016,0.302892 0.03121,0 0.05702,0.01571 0.05702,0.03506 0,0.05056 -0.543165,0.09438 -0.850482,0.0686 -0.46388,-0.03892 -0.994621,-0.305845 -1.403709,-0.70616501 -0.191107,-0.187024 -0.283092,-0.32086898 -0.435885,-0.63488298 -0.182535,-0.3750771 -0.537159,-1.30333401 -0.671713,-1.75798101 -0.05726,-0.19346 -0.05676,-0.20411 0.0057,-0.176983 0.125744,0.0547 0.307896,0.06292 0.392277,0.01782 0.173647,-0.09295 0.209576,-0.31061 0.09711,-0.587378 -0.01758,-0.04328 -0.0096,-0.06744 0.02198,-0.06744 0.07172,0 0.189754,-0.117266 0.189754,-0.188564 3.9e-5,-0.04241 0.09805,-0.09501 0.317446,-0.1701595 1.266704,-0.4338266 2.509161,-0.9527798 3.536152,-1.4767608 0.452607,-0.230938 0.663847,-0.319368 0.719523,-0.301705 0.08438,0.02677 0.236378,-0.09079 0.236378,-0.182629 0,-0.02735 0.09636,-0.09696 0.214104,-0.154715 0.289193,-0.141825 1.09085,-0.642149 1.874088,-1.169708 0.354722,-0.238941 0.68007,-0.434445 0.723088,-0.434445 0.07341,0 0.236848,-0.13028 0.270823,-0.215887 0.0084,-0.02124 0.45602,-0.4056 0.994506,-0.854049 0.538491,-0.448442 0.990066,-0.815434 1.003417,-0.815434 z M 19.524802,2.8002718 h 3.04e-4 c 0.0084,0.0084 -0.0037,0.135605 -0.02673,0.282704 -0.02301,0.147136 -0.03355,0.462459 -0.02316,0.70052 0.0104,0.238097 0.0045,0.432662 -0.01336,0.432662 -0.01789,0 -0.06087,-0.04343 -0.09562,-0.09651 -0.05602,-0.08549 -0.05842,-0.143884 -0.0196,-0.514917 0.02412,-0.230211 0.07056,-0.508805 0.10334,-0.619153 0.03274,-0.110355 0.06645,-0.193729 0.07483,-0.185305 z m 0.179065,0.01011 0.237861,6.11e-4 0.237565,6.04e-4 -0.04722,0.384854 c -0.02609,0.211625 -0.04872,0.479897 -0.05019,0.59629 -0.0015,0.122627 -0.02635,0.243276 -0.05909,0.28656 -0.03501,0.04634 -0.05697,0.163052 -0.05731,0.307649 -6.08e-4,0.25541 -0.04261,0.375906 -0.09948,0.285374 -0.03521,-0.05609 -0.145999,-0.352053 -0.214104,-0.571643 -0.04017,-0.129589 -0.02221,-0.826552 0.0297,-1.151296 z" />
  <path
     id="body"
     style="stroke-width:0.038477"
     d="m 39.247085,-16.108362 -0.804454,1.315217 c 0.124777,0.192294 0.151848,0.379174 0.08255,0.58144 l -0.09503,0.0389 0.05494,0.08731 0.225093,0.07275 0.09532,-0.0389 -0.05434,-0.0876 c 0.06883,-0.203725 0.177703,-0.364196 0.388419,-0.458796 z m -4.946393,0.355456 -0.105718,1.538231 c 0.185964,0.105238 0.293422,0.246167 0.333186,0.435932 -0.141455,0.07268 -0.241082,0.147913 -0.285673,0.219152 -0.07122,0.113737 -0.07753,0.16587 -0.05672,0.468299 0.01289,0.187191 0.05487,0.442053 0.09354,0.566295 0.03409,0.109526 0.0511,0.166071 0.05108,0.198071 -1.7e-5,0.03202 -0.01715,0.03933 -0.05137,0.05019 -0.03007,0.0096 -0.05326,0.02601 -0.07038,0.04751 -0.01716,0.02153 -0.02796,0.04806 -0.03356,0.0778 -0.0056,0.02971 -0.0057,0.06265 -0.0012,0.09681 0.0045,0.03418 0.01352,0.06966 0.02673,0.104529 0.02628,0.06937 0.0686,0.136089 0.120862,0.185894 0.02647,0.02523 0.05545,0.04611 0.08641,0.06058 0.03071,0.01435 0.06311,0.02257 0.09681,0.02257 0.09162,0 0.123272,0.02583 0.176987,0.144916 0.0359,0.07965 0.08855,0.248388 0.117298,0.375054 0.0287,0.126666 0.06319,0.265024 0.07662,0.30735 0.0098,0.03103 0.0041,0.05899 -0.02881,0.0974 -0.03295,0.03841 -0.09321,0.08728 -0.19213,0.16006 -0.134902,0.09927 -0.304319,0.257795 -0.37654,0.352487 -0.07222,0.09473 -0.17697,0.199635 -0.233109,0.233109 -0.174725,0.1042355 -0.47849,0.6313176 -0.589459,1.0230142 -0.01638,0.057811 -0.09993,0.2016584 -0.185003,0.3311051 -0.08507,0.1294511 -0.171586,0.2446498 -0.193615,0.2452848 -0.01712,4.562e-4 -0.02206,-0.01388 -0.01099,-0.031775 0.01107,-0.017932 0.0064,-0.119634 -0.0104,-0.2259839 -0.02289,-0.1447888 -0.01718,-0.2113402 0.02346,-0.2654776 0.02736,-0.03646 0.03976,-0.1226457 0.03801,-0.2173723 -0.0017,-0.094716 -0.01756,-0.1981783 -0.04692,-0.2687453 -0.02151,-0.051671 -0.0091,-0.067115 0.05316,-0.067115 0.100618,0 0.102008,-0.030517 0.0063,-0.1324416 -0.04109,-0.043749 -0.09735,-0.1815341 -0.125018,-0.3061607 -0.02926,-0.1318417 -0.06832,-0.2211217 -0.111062,-0.2625087 -0.04273,-0.04139 -0.0892,-0.03498 -0.133927,0.02524 -0.03047,0.04109 -0.05553,0.123478 -0.05553,0.1829249 0,0.08438 -0.01788,0.1080914 -0.08136,0.1080914 -0.11624,0 -0.365683,0.1490553 -0.410393,0.2452848 -0.06287,0.1351711 -0.124639,0.3848577 -0.114328,0.4626578 0.0029,0.021875 -0.02315,0.064373 -0.07988,0.1288793 -0.170259,0.1934928 -0.615192,0.5845484 -1.372642,1.2083119 -0.319397,0.2630464 -0.495363,0.4056637 -0.60965,0.4825559 -0.114286,0.076885 -0.166879,0.087986 -0.238753,0.088197 -0.04528,1.237e-4 -0.08347,0.00364 -0.115219,0.010694 -0.03172,0.00727 -0.05723,0.018186 -0.07691,0.033536 -0.0197,0.015349 -0.03364,0.034991 -0.04276,0.059724 -0.0091,0.024734 -0.01336,0.054487 -0.01336,0.089681 0,0.021824 -0.0047,0.042265 -0.0199,0.065908 -0.04579,0.070927 -0.185341,0.1706834 -0.566888,0.423162 -1.119681,0.740879 -1.919038,1.2112093 -2.024349,1.1910879 -0.129707,-0.024806 -0.197476,0.00582 -0.197476,0.089383 0,0.1201686 -1.649689,0.9222705 -2.905119,1.4126204 -0.478384,0.1868474 -0.893758,0.3353069 -1.208015,0.4335573 -0.314202,0.098236 -0.527388,0.1461317 -0.601929,0.1321427 -0.05058,-0.00953 -0.09626,-0.013749 -0.136897,-0.01273 -0.08122,0.00218 -0.14263,0.025243 -0.184707,0.069472 -0.02104,0.022115 -0.03729,0.04954 -0.0487,0.082254 -0.0097,0.027789 -0.02209,0.050558 -0.03653,0.068309 -0.02889,0.0355 -0.06609,0.0507 -0.108091,0.04365 -0.021,-0.0036 -0.04312,-0.01259 -0.06592,-0.02735 -0.02071,-0.01338 -0.04138,-0.03943 -0.06028,-0.07335 -0.01889,-0.033907 -0.03599,-0.075721 -0.04989,-0.1199721 -0.0278,-0.088517 -0.04243,-0.1875676 -0.03118,-0.2568725 0.02874,-0.1771868 -0.04455,-0.3442837 -0.210542,-0.4810675 l -0.134523,-0.111061 0.06295,-0.1573854 c 0.03466,-0.086647 0.06325,-0.2431162 0.06325,-0.3477319 0,-0.1578364 -0.02038,-0.2136324 -0.119079,-0.326061 -0.06718,-0.076529 -0.184421,-0.1551157 -0.26934,-0.1805476 -0.04141,-0.01244 -0.07905,-0.02808 -0.106308,-0.043356 -0.02724,-0.015204 -0.04395,-0.029971 -0.04395,-0.040665 0,-0.02146 -0.02736,-0.069254 -0.06087,-0.1063107 -0.02796,-0.030917 -0.04157,-0.048303 -0.03949,-0.062925 0.0021,-0.014622 0.01975,-0.026188 0.05464,-0.044811 0.02093,-0.011203 0.04449,-0.034482 0.06562,-0.062925 0.02114,-0.028444 0.03994,-0.062125 0.05108,-0.094133 0.01449,-0.041538 0.02094,-0.081264 0.02108,-0.1184809 4.56e-4,-0.1489473 -0.103033,-0.2572147 -0.224498,-0.275874 -0.03037,-0.00436 -0.06168,-0.00364 -0.09295,0.00364 -0.0625,0.014549 -0.124348,0.054559 -0.174312,0.1259083 -0.03026,0.043211 -0.04558,0.064744 -0.06058,0.066199 -0.01498,0.00145 -0.02945,-0.017023 -0.05731,-0.05405 -0.06522,-0.086727 -0.359668,-0.800625 -0.385449,-0.9345209 -0.01066,-0.055287 0.01155,-0.1209979 0.05791,-0.1707488 0.04144,-0.04452 0.07707,-0.099283 0.07899,-0.1217545 0.02113,-0.2450731 0.02853,-0.3992948 0.0294,-0.5241258 6.08e-4,-0.0521 1.8e-5,-0.096706 -0.0021,-0.1309576 -0.0017,-0.023184 -0.0025,-0.050049 -0.0057,-0.068003 -0.0068,-0.041582 -0.01636,-0.073114 -0.03386,-0.095324 -0.02012,-0.025548 -0.02524,-0.064329 -0.01159,-0.086415 0.01365,-0.022086 0.0081,-0.040381 -0.01247,-0.040381 -0.02054,0 -0.03304,-0.030058 -0.02761,-0.067115 0.01666,-0.1134328 -0.133564,-0.2791425 -0.253306,-0.2791425 -0.0642,0 -0.109602,0.020827 -0.138085,0.065922 -0.02849,0.045102 -0.04017,0.1144597 -0.03741,0.2117302 0.0011,0.03993 -0.0034,0.07766 -0.01365,0.1128417 -0.01025,0.035158 -0.02624,0.067763 -0.04751,0.097699 -0.02128,0.029949 -0.04789,0.057425 -0.07988,0.081663 -0.03199,0.024261 -0.06929,0.045488 -0.111654,0.063551 -0.04595,0.019605 -0.08853,0.026181 -0.168078,0.013363 -0.07955,-0.012818 -0.196133,-0.045124 -0.389903,-0.1033411 -0.38908,-0.1168944 -0.506372,-0.1356271 -0.854936,-0.1368965 -0.319513,-0.00109 -0.436277,0.013742 -0.557979,0.071567 -0.08638,0.041014 -0.254968,0.076958 -0.384558,0.081961 -0.126974,0.00487 -0.306791,0.036962 -0.399406,0.070971 -0.342869,0.1258596 -0.654151,0.061332 -0.731106,-0.1514471 -0.104195,-0.2881554 -0.45045,-0.3086973 -0.550259,-0.032663 -0.0404,0.1116982 -0.06487,0.1303633 -0.171639,0.1303633 -0.06857,0 -0.135396,-0.017444 -0.14848,-0.038606 -0.0086,-0.013945 -0.02917,-0.023904 -0.05642,-0.029993 -0.05451,-0.012192 -0.136254,-0.00888 -0.204305,0.00802 -0.03402,0.00845 -0.06455,0.020209 -0.08671,0.03534 -0.04175,0.028473 -0.214369,0.073097 -0.383668,0.099184 -0.320447,0.049343 -0.599665,0.1059381 -0.838306,0.1698576 -0.11932,0.031964 -0.228461,0.065849 -0.327542,0.1015589 -0.09908,0.035711 -0.188278,0.073317 -0.26726,0.1128469 -0.04892,0.024515 -0.08673,0.050922 -0.127988,0.076914 -0.02543,0.016004 -0.05647,0.030917 -0.07899,0.047503 -0.0077,0.00582 -0.01194,0.012076 -0.0193,0.017823 -0.161848,0.1262284 -0.245286,0.2681335 -0.245286,0.4279123 0,0.00436 -0.0075,0.018405 -0.0083,0.024079 -0.0054,0.035282 -0.02039,0.082356 -0.05227,0.1478848 -0.0085,0.017241 -0.02431,0.041902 -0.03445,0.060888 -0.03076,0.057833 -0.06097,0.1156221 -0.103637,0.1817407 -0.02228,0.034554 -0.03567,0.05776 -0.0588,0.094133 -0.367671,0.5717088 -0.390808,0.6678423 -0.207573,0.8510742 0.03151,0.031499 0.05464,0.044593 0.07899,0.060015 0.04936,0.025752 0.09854,0.039137 0.151744,0.028516 0.02896,-0.00582 0.04712,-7.275e-4 0.06712,0.00218 0.0089,0.00145 0.02248,-0.00218 0.03029,0.00145 0.02598,0.012149 0.04827,0.036518 0.07513,0.077503 0.02492,0.038046 0.06855,0.081577 0.12383,0.1265048 0.165846,0.1347834 0.435859,0.2808786 0.616481,0.3213034 0.184728,0.04132 0.225815,0.039283 0.32101,-0.01695 0.07909,-0.046703 0.149415,-0.066926 0.2438,-0.057033 0.09438,0.00989 0.212733,0.050049 0.387824,0.1235368 0.171607,0.072018 0.363622,0.1424726 0.426725,0.1567889 0.06314,0.014331 0.276831,0.0951 0.474833,0.1793619 0.197966,0.084261 0.509789,0.2057541 0.693094,0.2699304 0.183305,0.064162 0.34693,0.1295529 0.363475,0.145215 0.01655,0.01564 -0.03875,0.049031 -0.12294,0.074237 -0.05089,0.015204 -0.09782,0.035718 -0.140163,0.060888 0,0 0,3.056e-4 0,3.056e-4 -0.04228,0.025097 -0.0803,0.054705 -0.113436,0.0876 -0.06636,0.06598 -0.11359,0.1453242 -0.13957,0.230444 -0.0039,0.012876 -0.0039,0.026407 -0.0068,0.039501 -0.02618,0.1169169 -0.01609,0.241334 0.04336,0.3539732 0.02197,0.04161 0.05013,0.08147 0.08493,0.118779 0.02484,0.02655 0.05248,0.0451 0.07958,0.06329 0.0087,0.0058 0.01658,0.01542 0.02524,0.02022 0,0 3.04e-4,0 3.04e-4,0 0.03585,0.01986 0.07092,0.03085 0.101559,0.03085 0.09088,0 0.100073,0.01397 0.100073,0.152635 0,0.10962 -0.02015,0.163277 -0.07186,0.190943 -0.02709,0.01448 -0.05304,0.03928 -0.07662,0.07158 -0.02359,0.0323 -0.04475,0.07209 -0.06266,0.116706 -0.03579,0.08928 -0.0582,0.197847 -0.0582,0.304078 0,0.151682 0.01903,0.207471 0.09503,0.278841 0.136054,0.127822 0.417826,0.1487 0.645879,0.04779 l 0.1755,-0.0775 0.10631,0.111061 c 0.07061,0.07371 0.151648,0.118728 0.239347,0.134223 0.0877,0.01549 0.182193,0.0015 0.279732,-0.04248 0.08346,-0.03761 0.170921,-0.09183 0.194506,-0.120271 0.01745,-0.02102 0.03445,-0.02844 0.06028,-0.01899 0.02585,0.0095 0.06061,0.03594 0.114031,0.08285 0.148251,0.130171 0.299525,0.148241 0.476019,0.05703 0.05623,-0.0291 0.08474,-0.0435 0.106609,-0.03266 0.02186,0.01084 0.03722,0.04685 0.068,0.119085 0.08536,0.200458 0.137726,0.332419 0.168672,0.434445 0.03096,0.10203295 0.04038,0.17418995 0.04038,0.25508295 0,0.153944 0.018,0.192645 0.142242,0.306456 0.07822,0.07165 0.154842,0.130069 0.170155,0.130069 0.01531,0 0.01028,0.06394 -0.01128,0.141942 -0.0511,0.185152 -0.01324,0.407078 0.107202,0.628363 l 0.0971,0.178467 -0.154714,0.63192105 c -0.16319,0.666845 -0.279838,1.258959 -0.336153,1.701261 -0.01877,0.147404 -0.03072,0.278259 -0.03564,0.389611 -0.006,0.135555 -0.01499,0.238133 -0.02821,0.315658 -0.01321,0.07747 -0.03062,0.129823 -0.05375,0.165111 -0.01793,0.02735 -0.03622,0.07514 -0.05108,0.129772 -0.01484,0.05463 -0.02627,0.116124 -0.03088,0.171636 -0.01169,0.141098 -0.03336,0.202226 -0.07157,0.202226 -0.0481,0 -0.10883,0.04539 -0.157684,0.105721 -0.01504,0.01855 -0.02567,0.03979 -0.03771,0.06031 -0.0075,0.0128 -0.01787,0.02444 -0.02376,0.03739 0,0 0,3.05e-4 0,3.05e-4 -0.0153,0.03375 -0.02435,0.06744 -0.02435,0.0971 0,0.03521 0.0096,0.07129 0.02702,0.106907 0,0 0,3.06e-4 0,3.06e-4 0.01738,0.03564 0.04252,0.07049 0.07365,0.102746 0.06228,0.0646 0.148242,0.118685 0.243801,0.147288 0.10127,0.03034 0.153767,0.07422 0.183816,0.153821 0.04021,0.106544 0.0528,0.111359 0.282701,0.111359 0.187537,0 0.276628,-0.02117 0.405642,-0.09681 0.091,-0.05332 0.181453,-0.125712 0.20104,-0.160651 0.02817,-0.05041 0.0868,-0.0614 0.282108,-0.05434 0.199349,0.0073 0.265531,-0.0065 0.347141,-0.07064 0.05545,-0.04357 0.135503,-0.07929 0.178174,-0.07929 0.02552,0 0.05658,-0.0099 0.08968,-0.02728 0.03313,-0.01739 0.06842,-0.04212 0.102152,-0.071 0.06746,-0.05769 0.12906,-0.132448 0.15709,-0.200153 l 0.04454,-0.107794 0.350407,0.339424 c 0.37065,0.35916 0.784398,0.680638 1.202077,0.939861 0.209656,0.13012 0.420079,0.244214 0.626875,0.340013 0.205143,0.09503 0.406569,0.171898 0.599257,0.227178 0.636758,0.18265 1.573794,0.328963 2.113434,0.329618 l 0.258054,3.06e-4 0.16392,0.336449 c 0.128091,0.263026 0.228055,0.401083 0.457609,0.631331 l 0.293987,0.294875 0.04424,0.37862 c 0.02697,0.23032 0.105248,0.566471 0.199554,0.858203 0.08333,0.257825 0.162303,0.529567 0.236674,0.813654 0,0 0,3.05e-4 0,3.05e-4 0.07437,0.284072 0.144067,0.580351 0.208761,0.887309 0.06469,0.306951 0.124456,0.624384 0.178766,0.950852 0,0 0,2.99e-4 0,2.99e-4 0.05431,0.326468 0.103182,0.661717 0.1464,1.004306 0.09989,0.791742 0.112823,1.005717 0.103935,1.719971 -0.0074,0.596042 0.0024,0.828239 0.03623,0.862059 0.03328,0.03332 0.03502,0.06744 0.0063,0.121158 -0.02201,0.0411 -0.03151,0.163823 -0.02108,0.272905 0.04794,0.501931 0.101348,0.834889 0.14729,0.916997 0.02019,0.03601 0.0347,0.132244 0.04365,0.261623 0.0179,0.258749 0.01391,0.650048 -0.0098,0.957384 -0.01184,0.153676 -0.02848,0.286255 -0.04989,0.370895 -0.04413,0.174342 -0.08088,0.540966 -0.104231,1.039049 -0.04509,0.963081 -0.0732,1.109256 -0.295173,1.545359 -0.147252,0.289194 -0.183732,0.403339 -0.20401,0.634889 -0.01183,0.135132 -0.04963,0.287389 -0.09413,0.405936 -0.02226,0.05929 -0.04624,0.110093 -0.06949,0.146109 -0.02324,0.03601 -0.04559,0.05732 -0.06503,0.05732 -0.01816,0 -0.106637,0.0949 -0.196288,0.211137 -0.08886,0.115179 -0.175911,0.192762 -0.268745,0.235784 -0.0464,0.02153 -0.09418,0.03441 -0.144321,0.03921 -0.05017,0.0051 -0.102811,7.27e-4 -0.158575,-0.01011 -0.08065,-0.01615 -0.151953,-0.0029 -0.21648,0.03921 -0.02657,0.01739 -0.06027,0.05267 -0.09592,0.0977 -0.106953,0.13503 -0.231192,0.356279 -0.231626,0.434146 -3.04e-4,0.03725 0.02721,0.07356 0.06919,0.100666 0,0 3.04e-4,0 3.04e-4,0 0.04197,0.02706 0.09841,0.04481 0.156198,0.04481 0.0293,0 0.04915,0.0076 0.06295,0.0267 0.01384,0.01921 0.02153,0.04998 0.02613,0.09711 0.0065,0.06663 0.03521,0.123217 0.08641,0.169861 0.01537,0.01397 0.03669,0.02517 0.05612,0.03739 0.01294,0.0081 0.02267,0.0179 0.03742,0.02524 0.184568,0.0918 0.511027,0.121711 0.984705,0.09146 1.089861,-0.06962 1.550257,-0.41009 1.178914,-0.872164 -0.03544,-0.04408 -0.06506,-0.09217 -0.08582,-0.137191 -0.02076,-0.04503 -0.03264,-0.08693 -0.03237,-0.119084 7.28e-4,-0.09239 0.01764,-0.193802 0.04484,-0.285077 0.02719,-0.09125 0.06474,-0.172451 0.106905,-0.224202 0.04444,-0.05456 0.125432,-0.191263 0.179954,-0.304077 0.09462,-0.195701 0.100656,-0.248485 0.131553,-1.135263 0.04702,-1.349164 0.207434,-2.966658 0.367036,-3.700074 0.03225,-0.148132 0.08509,-0.416702 0.117298,-0.59658 0.03217,-0.179879 0.09262,-0.429367 0.134521,-0.554417 0.02534,-0.07569 0.04451,-0.153647 0.05731,-0.23638 0.03839,-0.248267 0.0203,-0.539534 -0.05404,-0.942538 -0.09738,-0.527901 -0.181907,-1.577746 -0.258054,-3.210982 -0.03059,-0.656029 -0.08542,-1.397868 -0.122049,-1.648695 -0.01861,-0.127291 -0.03061,-0.246805 -0.03623,-0.359321 -0.01122,-0.225039 0.0034,-0.422412 0.04514,-0.600741 0,0 0,-3.06e-4 0,-3.06e-4 0.02085,-0.08917 0.04854,-0.173302 0.08285,-0.253897 l 0.07216,-0.169854 0.309131,0.272011 c 0.156412,0.137824 0.274751,0.243655 0.36971,0.34328 0.284866,0.298832 0.357256,0.542938 0.601336,1.436379 0.284308,1.040526 0.357022,1.364434 0.526206,2.347134 0.09288,0.539643 0.214801,1.128505 0.270824,1.30839 l 0.101856,0.326949 -0.04751,0.56303 c -0.02609,0.309737 -0.03487,0.656196 -0.0196,0.769708 0.03286,0.244019 0.223376,0.852668 0.306755,0.979951 0.0322,0.04918 0.0585,0.116786 0.0585,0.150263 0,0.03346 0.07083,0.189365 0.157089,0.346547 0.11474,0.209042 0.197058,0.44596 0.306756,0.882253 0.195214,0.776335 0.330719,1.46531 0.400592,2.017225 0.05172,0.408481 0.06687,0.740493 0.04395,0.978764 -3.04e-4,0.0029 3.2e-5,0.0076 -3.04e-4,0.01069 -0.0081,0.07965 -0.0207,0.148409 -0.03771,0.205492 -0.0793,0.266068 -0.0793,0.554563 0,0.787233 0.03652,0.107169 0.05114,0.223256 0.04543,0.34328 -0.01142,0.240046 -0.103849,0.495696 -0.262212,0.726351 -0.0396,0.05769 -0.08331,0.113862 -0.130957,0.167781 -0.04763,0.05391 -0.09921,0.10554 -0.154418,0.154417 -0.284423,0.251875 -0.368224,0.377682 -0.368224,0.552635 0,0.04729 0.0089,0.08681 0.02851,0.119376 0.01963,0.03252 0.05027,0.05827 0.09384,0.0781 0.08719,0.03972 0.226416,0.0558 0.435339,0.05645 0.249915,7.27e-4 0.335894,0.01775 0.417223,0.06322 0.01432,0.008 0.03294,0.0098 0.04751,0.02022 0.05658,0.0403 0.149648,0.08243 0.221528,0.107198 a 0.60540826,0.21037937 0 0 0 0.322494,0.04008 0.60540826,0.21037937 0 0 0 0.511061,-0.09858 c 3.04e-4,-1.09e-4 7.28e-4,-3.06e-4 0.0012,-3.06e-4 4.56e-4,-1.31e-4 7.27e-4,-3.05e-4 0.0012,-3.05e-4 0.121623,-0.04343 0.225333,-0.08596 0.312695,-0.128876 0.0014,-7.28e-4 0.0024,-0.0015 0.0039,-0.0022 0.08519,-0.04212 0.154864,-0.08468 0.209651,-0.128876 0.0081,-0.0065 0.01159,-0.01433 0.01901,-0.0211 0.04392,-0.03899 0.0813,-0.07859 0.104232,-0.121158 0.02632,-0.05107 0.04128,-0.104703 0.04128,-0.163627 0,-0.07634 -0.0919,-0.351479 -0.213214,-0.638752 -0.18671,-0.442039 -0.253308,-0.675444 -0.236971,-0.926497 0.0055,-0.08372 0.01993,-0.169126 0.04247,-0.265187 0.06133,-0.261448 0.06115,-0.26454 -0.03712,-0.500367 -0.226168,-0.542698 -0.336378,-0.804153 -0.429101,-1.119819 -0.09272,-0.315673 -0.167945,-0.685636 -0.324277,-1.445283 -0.193924,-0.942458 -0.201698,-1.00459 -0.199851,-1.577433 0.0011,-0.328018 0.01488,-0.856138 0.03089,-1.173571 0.0201,-0.39893 0.0298,-0.604685 0.01573,-0.768224 -0.01406,-0.16354 -0.05165,-0.284742 -0.125908,-0.515215 -0.06953,-0.21588 -0.13352,-0.479416 -0.191538,-0.788716 -0.05801,-0.309308 -0.110076,-0.664474 -0.155901,-1.063696 -0.03482,-0.303546 -0.06546,-1.149964 -0.08285,-2.294582 l -0.02761,-1.813806 0.09087,-0.02881 c 0.04995,-0.01586 0.214872,-0.156228 0.36674,-0.312101 0.15187,-0.155872 0.297909,-0.283301 0.324574,-0.283301 0.01632,0 0.02652,0.06649 0.03118,0.168378 0.0093,0.203739 -0.0028,0.548815 -0.02732,0.785152 -0.01222,0.118168 -0.02739,0.209122 -0.04484,0.241719 -0.03355,0.06263 -0.03562,0.09424 -0.0065,0.103939 0.01151,0.0036 0.01993,0.0128 0.02405,0.02437 0.0041,0.01157 0.0041,0.02582 -0.0012,0.0395 -0.01053,0.02743 0.02493,0.102375 0.07899,0.166595 0.05402,0.06424 0.09829,0.135773 0.09829,0.159168 0,0.02342 0.01505,0.04248 0.03356,0.04248 0.06368,0 0.08196,-0.242483 0.08196,-1.09606 V 7.991621 l 0.336451,-0.02022 c 0.460917,-0.02772 0.692318,-0.12414 1.067854,-0.444542 0.382192,-0.326133 0.762647,-0.493579 1.03014,-0.453446 l 0.170749,0.02553 0.02078,0.453453 c 0.01882,0.408359 0.03295,0.477234 0.14046,0.690125 0.06564,0.130055 0.119662,0.293209 0.11997,0.362586 4.56e-4,0.09561 0.0094,0.112043 0.03771,0.06831 0.0551,-0.08526 0.04643,-0.346314 -0.01871,-0.561241 -0.05867,-0.193555 -0.09093,-0.445095 -0.08641,-0.636976 0.0015,-0.06394 0.0072,-0.121093 0.01723,-0.167483 0.02928,-0.135554 0.04753,-0.155312 0.153229,-0.1657 0.135362,-0.01324 0.140079,-0.0022 0.187675,0.45405 0.01432,0.137555 0.04954,0.328229 0.0784,0.42346 0.03382,0.111563 0.0505,0.236344 0.04989,0.36941 -6.08e-4,0.133067 -0.01846,0.274353 -0.05345,0.419299 -0.04346,0.180017 -0.0628,0.31595 -0.05731,0.41604 0.0055,0.100091 0.03583,0.164173 0.09117,0.200444 0.166145,0.10885 0.193011,0.243953 0.117595,0.593016 -0.01843,0.08525 -0.04106,0.167599 -0.06265,0.23163 -0.02161,0.06409 -0.04237,0.109839 -0.05672,0.121747 -0.01772,0.01469 -0.03037,0.04765 -0.03861,0.100076 -0.0083,0.05245 -0.01202,0.124214 -0.01128,0.217372 l 0.0024,0.27439 0.114031,-0.288641 c 0.181612,-0.459608 0.238217,-0.720888 0.212323,-0.981144 -0.01267,-0.126977 -0.02476,-0.248179 -0.02673,-0.269341 -0.002,-0.02117 0.01864,-0.09337 0.04573,-0.160353 0.04079,-0.100891 0.03984,-0.150329 -0.006,-0.288342 -0.03321,-0.100099 -0.04969,-0.332325 -0.04929,-0.600451 3.04e-4,-0.268119 0.01767,-0.572327 0.05137,-0.81692 0.02478,-0.179842 0.05009,-0.331895 0.05612,-0.33794 0.0095,-0.0095 0.18686,0.02379 0.463549,0.08671 0.06464,0.01477 0.07727,0.05005 0.07958,0.221533 0.0015,0.112509 0.03213,0.243582 0.0876,0.38337 0.05548,0.139788 0.135916,0.288364 0.237861,0.436518 0.06699,0.09739 0.11574,0.181268 0.108391,0.186193 -0.0073,0.0051 -0.0613,0.03899 -0.119971,0.07573 -0.05871,0.03674 -0.134372,0.135518 -0.168078,0.219743 -0.01683,0.04212 -0.04289,0.08908 -0.07157,0.130666 -0.02865,0.04154 -0.05979,0.07793 -0.08641,0.09888 -0.04627,0.03637 -0.06646,0.06009 -0.06622,0.07275 7.27e-4,0.0379 0.184347,-0.02481 0.392873,-0.150554 0.140327,-0.08465 0.265132,-0.153654 0.277059,-0.153232 0.01194,3.06e-4 0.07739,0.120103 0.145806,0.265777 0.03694,0.07865 0.08469,0.16031 0.135412,0.233703 0.05071,0.07337 0.104493,0.1385 0.15323,0.183821 0.619711,0.57627 0.558102,0.487869 0.62509,0.893536 0.01365,0.08267 0.03063,0.166719 0.05672,0.269043 0.0261,0.102324 0.06116,0.222827 0.110467,0.378918 0.0986,0.312174 0.254361,0.76618 0.510469,1.49814 0.17938,0.512669 0.214272,0.777972 0.155901,1.187523 -0.0237,0.166297 -0.06886,0.626821 -0.100372,1.023017 -0.06414,0.806095 -0.24375,2.054841 -0.391387,2.720116 -0.05452,0.245691 -0.110015,0.4391 -0.175798,0.604597 -0.03289,0.08275 -0.06843,0.158534 -0.107795,0.230444 -0.03935,0.07187 -0.08238,0.140079 -0.13066,0.207274 -0.07742,0.107737 -0.148522,0.268054 -0.174611,0.393758 -0.08369,0.403128 -0.321116,0.666962 -0.829396,0.921754 -0.139289,0.06984 -0.253292,0.147478 -0.338827,0.224792 -0.08554,0.07731 -0.142528,0.15425 -0.168078,0.22242 -0.01277,0.03412 -0.01764,0.06576 -0.01424,0.09444 0.0011,0.0092 0.0085,0.01586 0.01128,0.02437 0.006,0.01804 0.0102,0.03666 0.02405,0.05107 0.02033,0.02117 0.04928,0.03826 0.08731,0.0499 0.03807,0.01164 0.08505,0.01811 0.141648,0.01811 0.06622,0 0.123298,0.0243 0.136303,0.0582 0.01232,0.03208 0.07046,0.07674 0.129176,0.09948 0.03823,0.01484 0.09931,0.02532 0.174907,0.0315 0,0 3.04e-4,0 3.04e-4,0 0.151163,0.01229 0.359517,0.0076 0.555606,-0.01244 0.09806,-0.01004 0.19299,-0.02379 0.276167,-0.04125 0.156603,-0.03295 0.291825,-0.05289 0.300521,-0.04423 0.0082,0.0082 0.0063,0.0299 -0.0036,0.06031 -0.0295,0.09122 -0.129057,0.261179 -0.231329,0.383072 -0.07803,0.09303 -0.160588,0.204204 -0.183519,0.247066 -0.02293,0.04285 -0.09154,0.119914 -0.152338,0.171047 -0.09019,0.07592 -0.110467,0.123297 -0.110467,0.258349 0,0.1578 0.0073,0.168712 0.157089,0.228655 0.08646,0.03463 0.211853,0.05965 0.278841,0.05587 0.0708,-0.0044 0.186063,0.0315 0.274983,0.08493 0.196463,0.118008 0.476143,0.118867 0.855529,0.0029 0.221713,-0.06787 0.398505,-0.168065 0.47305,-0.261026 0.02485,-0.03099 0.03831,-0.06111 0.03831,-0.08908 0,-0.03754 -0.05306,-0.196159 -0.117891,-0.352489 -0.04089,-0.09865 -0.07277,-0.184098 -0.09562,-0.261027 -0.04569,-0.15385 -0.05597,-0.273524 -0.03415,-0.394354 0.01092,-0.06045 0.02978,-0.121144 0.05642,-0.186782 0.06814,-0.167956 0.08297,-0.26729 0.07127,-0.481075 -0.0081,-0.148132 -0.01283,-0.624224 -0.0104,-1.05805 0.0012,-0.21575 0.0062,-0.414658 0.01544,-0.603412 0.01718,-0.351435 0.05121,-0.666955 0.102748,-0.98649 0.0039,-0.02371 0.0057,-0.0475 0.0098,-0.07129 0.02923,-0.172073 0.0642,-0.34619 0.10542,-0.528578 0.05541,-0.245219 0.137322,-0.618964 0.182033,-0.830589 0.04467,-0.211625 0.118832,-0.445669 0.164811,-0.519972 0.131093,-0.21185 0.172134,-0.342916 0.205493,-0.658349 0.01997,-0.188848 0.06642,-0.363256 0.130363,-0.489382 0.03215,-0.06343 0.0561,-0.125603 0.07216,-0.188863 0.01606,-0.06322 0.02407,-0.12745 0.02405,-0.195402 -3.8e-5,-0.135897 -0.03215,-0.286146 -0.09651,-0.470374 -0.08361,-0.23929 -0.104299,-0.386462 -0.12977,-0.920561 -0.04567,-0.958469 0.0087,-2.280295 0.112547,-2.732592 0.152368,-0.663725 0.193715,-0.973127 0.231922,-1.731545 0.04987,-0.990324 0.124309,-1.670184 0.289532,-2.642613 0.006,-0.03557 0.0302,-0.08701 0.06592,-0.14432 0.03571,-0.05725 0.08311,-0.120263 0.135709,-0.178765 0.172877,-0.192275 0.181752,-0.197069 0.203415,-0.10869 0.01243,0.05085 0.0068,0.161532 -0.01218,0.246179 -0.03131,0.139468 -0.025,0.328178 0.0077,0.447212 0.01092,0.03965 0.02454,0.07165 0.04098,0.09146 0.01969,0.02371 0.04534,0.04001 0.07424,0.04932 0.08668,0.02779 0.202387,-0.0079 0.27231,-0.0968 0.02029,-0.02583 0.0358,-0.04794 0.04632,-0.07042 0.03157,-0.06736 0.01976,-0.136951 -0.03088,-0.314771 -0.01808,-0.06358 -0.0085,-0.08671 0.03593,-0.08671 0.05401,0 0.236025,-0.155181 0.323682,-0.260728 0.02921,-0.03521 0.04811,-0.06482 0.04811,-0.08137 0,-0.02539 -0.04497,-0.0913 -0.100074,-0.146394 C 42.913965,4.720536 42.824572,4.473385 42.572354,3.636241 42.351458,2.903 42.243424,2.542247 42.098116,2.203427 41.952807,1.864606 41.76999,1.547624 41.399379,0.90156895 l -0.45256,-0.78871 -0.02524,-0.42346 c -0.02863,-0.476848 -0.120122,-1.49817695 -0.175798,-1.96228695 -0.02032,-0.169301 -0.03938,-0.368392 -0.04246,-0.442462 -0.0087,-0.209776 -0.03079,-0.259876 -0.12294,-0.283002 -0.05913,-0.01484 -0.128384,-0.108231 -0.224499,-0.3020039 -0.04394,-0.088612 -0.09351,-0.1770341 -0.14729,-0.2636961 -0.107578,-0.173267 -0.232429,-0.339571 -0.364384,-0.4851716 -0.06597,-0.072804 -0.133593,-0.1404357 -0.201929,-0.2013384 l -0.212917,-0.1897573 0.08523,-0.3976209 c 0.03188,-0.1490197 0.05871,-0.2540209 0.08641,-0.3299165 0.0277,-0.075918 0.05604,-0.1225911 0.09057,-0.1556104 0.05352,-0.051213 0.07976,-0.074375 0.08552,-0.1000691 0.0057,-0.025752 -0.0089,-0.054123 -0.03712,-0.1161094 -0.093,-0.204161 -0.623041,-0.331255 -0.793764,-0.1903538 -0.07965,0.065762 -0.08214,0.079337 -0.03177,0.1749098 0.0474,0.090001 0.04702,0.1372567 -0.003,0.3563451 -0.0397,0.1741896 -0.08142,0.265551 -0.134521,0.2939873 -0.04237,0.022624 -0.08532,0.032808 -0.09532,0.022842 -0.01573,-0.015786 -0.284077,-1.7663466 -0.34714,-2.2645822 -0.01805,-0.1425162 -0.0069,-0.2019931 0.05434,-0.2886442 0.0424,-0.060022 0.139301,-0.2328162 0.215292,-0.3842612 0.07599,-0.1514457 0.208222,-0.375523 0.293987,-0.4979948 0.17484,-0.2495644 0.270229,-0.5232448 0.270229,-0.7765397 0,-0.1121608 -0.07206,-0.3611055 -0.21173,-0.7322935 -0.145251,-0.3860402 -0.211728,-0.6183932 -0.211728,-0.7409042 0,-0.236289 -0.110533,-0.396949 -0.412769,-0.600148 -0.149741,-0.101274 -0.30799,-0.174569 -0.464079,-0.233993 l 0.776836,-2.406827 -0.22628,-0.07305 -0.775054,2.401482 c -0.223806,-0.05544 -0.423196,-0.05693 -0.54937,0.0083 -0.114853,0.05941 -0.132111,0.05984 -0.19302,0.0047 -0.03674,-0.03328 -0.08514,-0.06058 -0.107498,-0.06058 -0.02239,0 -0.09021,-0.02569 -0.150854,-0.05731 -0.0606,-0.03159 -0.166391,-0.05775 -0.235188,-0.05791 l -0.125019,-3.04e-4 v -0.267242 c 0,-0.212587 0.02004,-0.304996 0.098,-0.451669 0.02665,-0.0501 0.04616,-0.09507 0.0588,-0.1366 0.02526,-0.08306 0.02233,-0.152073 -0.0092,-0.21856 -0.01576,-0.03324 -0.03845,-0.06596 -0.0686,-0.09948 -0.04833,-0.05375 -0.07537,-0.164007 -0.08968,-0.365552 -0.01555,-0.218799 -0.0571,-0.391705 -0.127394,-0.525018 -0.03515,-0.06666 -0.07739,-0.123252 -0.127394,-0.170749 -0.05,-0.0475 -0.107502,-0.086 -0.173125,-0.115813 -0.09946,-0.04515 -0.207784,-0.0673 -0.33259,-0.06622 v 3.04e-4 c -0.124805,0.0011 -0.266234,0.02529 -0.432667,0.07276 -0.11627,0.03317 -0.222077,0.06903 -0.318929,0.10631 -0.01092,-0.172261 0.0238,-0.331701 0.14343,-0.483147 z m 4.172229,1.704822 -0.09562,0.0389 0.05494,0.0879 0.225091,0.07275 0.09562,-0.0392 -0.05464,-0.0876 z m -6.38366,5.2911598 c 0.01335,0 0.0638,0.04228 0.11225,0.093838 l 0.08819,0.093838 -0.117,0.3198201 c -0.07669,0.2097369 -0.134641,0.3149847 -0.168078,0.3058653 -0.158679,-0.043131 -0.538499,-0.047547 -0.65924,-0.00773 -0.153791,0.050791 -0.200158,0.1382242 -0.14729,0.2773569 0.04598,0.120894 0.04688,1.343619 0.0012,1.5896087 -0.02774,0.1494852 -0.07054,0.2243115 -0.197476,0.3462479 -0.149407,0.1435201 -0.176021,0.1545047 -0.34328,0.142538 -0.09977,-0.00727 -0.215388,-0.00218 -0.256866,0.010985 -0.07457,0.023642 -0.503285,0.7691917 -0.698441,1.2142574 -0.232786,0.5309057 -0.387532,0.7382165 -1.012323,1.3570859 l -0.612917,0.606976 -0.08998,-0.09711 c -0.09939,-0.107271 -0.159389,-0.118096 -0.299331,-0.05434 -0.08769,0.04001 -0.179065,0.178394 -0.179065,0.271123 0,0.02248 -0.03822,0.08065 -0.08493,0.129175 -0.0658,0.06831 -0.113256,0.0837 -0.209948,0.06802 -0.171378,-0.02779 -0.363478,0.156323 -0.358129,0.34328 0.008,0.277961 -0.295769,1.06963895 -0.410393,1.06963895 -0.111545,0 -0.282097,0.206925 -0.383369,0.465027 -0.092,0.234598 -0.150161,0.312203 -0.431775,0.578772 l -0.325463,0.30794 -0.05791,-0.119674 c -0.07326,-0.151216 -0.162138,-0.198989 -0.313585,-0.168668 -0.134554,0.02692 -0.310319,0.211872 -0.310319,0.32665 0,0.112967 0.109067,0.30289205 0.174016,0.30289205 0.03121,0 0.05702,0.01571 0.05702,0.03506 0,0.05056 -0.543165,0.09438 -0.850482,0.0686 -0.46388,-0.03892 -0.994621,-0.30584505 -1.403709,-0.70616505 -0.191107,-0.187024 -0.283092,-0.320869 -0.435885,-0.634883 -0.182535,-0.375077 -0.537159,-1.30333395 -0.671713,-1.75798095 -0.05726,-0.19346 -0.05676,-0.20411 0.0057,-0.176983 0.125744,0.0547 0.307896,0.06292 0.392277,0.01782 0.173647,-0.09295 0.209576,-0.31061 0.09711,-0.587378 -0.01758,-0.04328 -0.0096,-0.06744 0.02198,-0.06744 0.07172,0 0.189754,-0.117266 0.189754,-0.188564 3.9e-5,-0.04241 0.09805,-0.09501 0.317446,-0.1701595 1.266704,-0.4338266 2.509161,-0.9527801 3.536152,-1.4767604 0.452607,-0.2309386 0.663847,-0.3193684 0.719523,-0.3017057 0.08438,0.02677 0.236378,-0.090787 0.236378,-0.1826282 0,-0.027352 0.09636,-0.096963 0.214104,-0.1547156 0.289193,-0.1418251 1.09085,-0.6421485 1.874088,-1.1697079 0.354722,-0.2389407 0.68007,-0.4344448 0.723088,-0.4344448 0.07341,0 0.236848,-0.1302804 0.270823,-0.2158876 0.0084,-0.021242 0.45602,-0.4055997 0.994506,-0.8540488 0.538491,-0.4484421 0.990066,-0.8154335 1.003417,-0.8154335 z M 18.410882,2.332295 h 3.04e-4 c 0.0084,0.0084 -0.0037,0.135605 -0.02673,0.282704 -0.02301,0.147136 -0.03355,0.462459 -0.02316,0.70052 0.0104,0.238097 0.0045,0.432662 -0.01336,0.432662 -0.01789,0 -0.06087,-0.04343 -0.09562,-0.09651 -0.05602,-0.08549 -0.05842,-0.143884 -0.0196,-0.514917 0.02412,-0.230211 0.07056,-0.508805 0.10334,-0.619153 0.03274,-0.110355 0.06645,-0.193729 0.07483,-0.185305 z m 0.179065,0.01011 0.237861,6.11e-4 0.237565,6.04e-4 -0.04722,0.384854 c -0.02609,0.211625 -0.04872,0.479897 -0.05019,0.59629 -0.0015,0.122627 -0.02635,0.243276 -0.05909,0.28656 -0.03501,0.04634 -0.05697,0.163052 -0.05731,0.307649 -6.08e-4,0.25541 -0.04261,0.375906 -0.09948,0.285374 -0.03521,-0.05609 -0.145999,-0.352053 -0.214104,-0.571643 -0.04017,-0.129589 -0.02221,-0.826552 0.0297,-1.151296 z" />
</svg>
