<?xml version="1.0" encoding="UTF-8" standalone="no"?>
<!-- Created with Inkscape (http://www.inkscape.org/) -->

<svg
   id="svg2"
   version="1.1"
   inkscape:version="1.1.1 (3bf5ae0d25, 2021-09-20)"
   width="124.3913"
   height="29.404963"
   sodipodi:docname="fleet.svg"
   xmlns:inkscape="http://www.inkscape.org/namespaces/inkscape"
   xmlns:sodipodi="http://sodipodi.sourceforge.net/DTD/sodipodi-0.dtd"
   xmlns="http://www.w3.org/2000/svg"
   xmlns:svg="http://www.w3.org/2000/svg"
   xmlns:rdf="http://www.w3.org/1999/02/22-rdf-syntax-ns#"
   xmlns:cc="http://creativecommons.org/ns#"
   xmlns:dc="http://purl.org/dc/elements/1.1/">
  <metadata
     id="metadata8">
    <rdf:RDF>
      <cc:Work
         rdf:about="">
        <dc:format>image/svg+xml</dc:format>
        <dc:type
           rdf:resource="http://purl.org/dc/dcmitype/StillImage" />
      </cc:Work>
    </rdf:RDF>
  </metadata>
  <defs
     id="defs6">
    <inkscape:perspective
       sodipodi:type="inkscape:persp3d"
       inkscape:vp_x="0 : 0.5 : 1"
       inkscape:vp_y="0 : 1000 : 0"
       inkscape:vp_z="1 : 0.5 : 1"
       inkscape:persp3d-origin="0.5 : 0.33333333 : 1"
       id="perspective10" />
  </defs>
  <sodipodi:namedview
     pagecolor="#ffffff"
     bordercolor="#666666"
     borderopacity="1"
     objecttolerance="10"
     gridtolerance="10"
     guidetolerance="10"
     inkscape:pageopacity="0"
     inkscape:pageshadow="2"
     inkscape:window-width="1920"
     inkscape:window-height="1017"
     id="namedview4"
     showgrid="false"
     inkscape:zoom="8.0871796"
     inkscape:cx="46.67882"
     inkscape:cy="26.028852"
     inkscape:window-x="-8"
     inkscape:window-y="-8"
     inkscape:window-maximized="1"
     inkscape:current-layer="svg2"
     fit-margin-top="0"
     fit-margin-left="0"
     fit-margin-right="0"
     fit-margin-bottom="0"
     inkscape:pagecheckerboard="0" />
  <path
     d="m 65.100278,-9.4018194 c -0.0238,0.02372 -0.04324,1.2197143 -0.04324,2.6577514 v 2.6145167 H 64.86257 64.668098 v 0.5952041 0.5952085 l -0.935008,0.94117 -0.935013,0.9411018 -5.260012,0.6257362 c -5.549126,0.66009644 -5.588281,0.66703328 -5.403599,0.95387676 0.05976,0.0928264 0.15201,0.10851412 0.533689,0.0908805 0.253782,-0.0117524 0.461413,-0.007328 0.461413,0.009796 0,0.0171187 -0.131918,0.37253753 -0.293197,0.78980434 -0.726214,1.8789657 -1.205451,3.5194467 -1.455606,4.9825697 -0.165038,0.9654123 -0.28697,2.7447439 -0.243149,3.5481664 l 0.03398,0.622692 -3.510243,3.509786 c -2.880614,2.88029 -3.541225,3.509787 -3.682992,3.509787 -0.365734,0 -0.377793,-0.02397 -0.377793,-0.7524 v -0.67371 H 43.43851 c -0.135154,0 -0.162058,-0.03087 -0.162058,-0.185718 0,-0.475541 -0.557736,-0.712797 -0.83797,-0.356526 -0.12835,0.163093 -0.134375,0.248724 -0.134375,1.902235 0,1.680607 -0.0038,1.735058 -0.137104,1.854916 -0.211451,0.190453 -0.263764,0.390819 -0.164197,0.628982 0.04771,0.114152 0.135027,0.247624 0.194017,0.296501 0.09199,0.07629 0.107214,0.242438 0.106633,1.166817 -4.25e-4,1.018633 -0.0097,1.097394 -0.165945,1.433047 -0.23557,0.506074 -0.828572,1.377169 -1.0994,1.61494 -0.683628,0.600262 -2.870113,1.304373 -4.383931,1.411853 -0.50977,0.03615 -0.577703,0.02704 -0.738079,-0.09912 -0.401254,-0.315621 -0.937017,-0.06961 -0.937017,0.430237 0,0.292805 0.186952,0.508667 0.493695,0.569991 0.153435,0.03071 0.240815,0.0012 0.404236,-0.13626 l 0.20847,-0.175413 1.893875,0.03462 c 2.024108,0.03701 2.782605,0.126149 3.714696,0.436327 l 0.446955,0.148705 5.737374,-0.04356 c 19.135298,-0.145332 34.27735,-0.533301 38.440684,-0.984792 2.575298,-0.279323 4.540934,-0.793113 6.093384,-1.59284 0.89819,-0.462706 1.446204,-0.863702 2.052109,-1.501561 l 0.454605,-0.478591 0.0798,0.394127 c 0.142614,0.704757 0.532717,2.006082 0.7104,2.37 0.216121,0.442612 0.433989,0.549897 0.706052,0.34758 0.379802,-0.282496 0.224745,-0.886067 -0.669426,-2.605958 -0.229088,-0.440602 -0.415973,-0.84899 -0.41539,-0.907524 4.27e-4,-0.0586 0.176383,-0.325283 0.390627,-0.592679 0.675588,-0.843089 1.186457,-2.065072 1.391171,-3.327246 0.138978,-0.856898 0.125756,-2.325727 -0.02904,-3.229688 C 96.725928,12.896734 95.81127,11.247566 94.43112,10.201446 93.691614,9.6409212 93.63911,9.6136937 93.297296,9.6133062 c -0.269666,-2.598e-4 -0.344922,0.030192 -0.528958,0.2142395 -0.252095,0.2521003 -0.340902,0.6561403 -0.232584,1.0583073 0.14436,0.53615 0.685957,0.77872 1.215694,0.544386 0.355492,-0.157263 0.383622,-0.14488 0.905255,0.39853 0.919517,0.957829 1.404202,2.146299 1.57754,3.868263 0.08906,0.884642 0.0973,0.832392 -0.143066,0.909986 -0.177747,0.0573 -2.069093,0.531096 -2.480913,0.621397 -0.106767,0.02338 -0.151298,-0.02755 -0.240432,-0.275562 -0.09509,-0.264288 -0.09704,-0.311282 -0.01486,-0.357242 0.138075,-0.07728 0.11571,-0.164132 -0.04829,-0.18786 -0.109872,-0.01597 -0.179883,-0.118299 -0.302202,-0.442093 -0.174441,-0.461476 -0.258062,-0.556185 -0.381808,-0.432434 -0.0654,0.0654 -0.05037,0.160759 0.07623,0.483841 l 0.157646,0.402355 h -0.843284 c -0.645768,0 -0.836931,0.01899 -0.816317,0.08103 0.01925,0.05807 0.26772,0.08615 0.876669,0.09911 l 0.849766,0.01802 0.126664,0.338509 c 0.124656,0.333059 0.124656,0.339221 0.0026,0.385504 -0.347648,0.131654 -3.927121,0.769126 -5.210037,0.927881 l -0.324117,0.04011 -0.25359,-0.702037 c -0.139498,-0.386088 -0.266616,-0.738403 -0.282432,-0.782999 -0.02206,-0.06197 0.157064,-0.08103 0.761346,-0.08103 0.603312,0 0.783842,-0.0192 0.76336,-0.08103 -0.0192,-0.0577 -0.2591,-0.08621 -0.833175,-0.09905 l -0.806203,-0.01802 -0.152272,-0.424527 c -0.149676,-0.417459 -0.279387,-0.557348 -0.402618,-0.434122 -0.04007,0.04007 -0.01106,0.196807 0.08091,0.437038 0.132365,0.345898 0.134959,0.37922 0.0344,0.435548 -0.156807,0.08778 -0.134055,0.184164 0.0435,0.184164 0.135742,0 0.184618,0.08693 0.446308,0.794083 l 0.293908,0.794088 -0.203282,0.04395 c -0.111756,0.02418 -0.328721,0.05335 -0.482156,0.06482 L 86.247528,18.461324 82.199513,8.0253071 C 79.973094,2.2854692 78.151495,-2.414798 78.151495,-2.4197888 c 0,-0.00498 0.248535,-0.029766 0.552297,-0.055035 0.679344,-0.056593 0.888661,-0.2045177 0.64058,-0.4525978 -0.07007,-0.070074 -0.169837,-0.092372 -0.307908,-0.06884 -0.305513,0.051921 -11.642057,1.3947984 -11.775397,1.3947984 -0.0645,0 -0.367091,-0.2871672 -0.689394,-0.6541945 l -0.574529,-0.6542625 -0.03241,-0.5935861 c -0.03223,-0.5902769 -0.03338,-0.5937773 -0.21067,-0.614132 l -0.178266,-0.020568 v -2.5509232 c 0,-1.40297 -0.01772,-2.5970108 -0.03934,-2.6534078 -0.03909,-0.101897 -0.351017,-0.144297 -0.435999,-0.05932 m -1.310663,7.5189098 c -0.429714,0.4400189 -0.750589,0.7991386 -0.713057,0.7979719 0.190841,-0.00571 1.41172,-0.1853938 1.43791,-0.2116462 0.03748,-0.037474 0.1185,-1.4108777 0.08239,-1.3966167 -0.01431,0.00557 -0.377529,0.3702041 -0.807242,0.810291 m 2.179744,-0.690884 c -8.53e-4,0.1748928 0.449877,1.066015 0.529997,1.048062 0.02679,-0.00597 0.153435,-0.010902 0.281528,-0.010902 h 0.232908 l -0.261757,-0.3079048 c -0.143969,-0.1693186 -0.378759,-0.43918 -0.521824,-0.5996158 -0.243218,-0.2727101 -0.260137,-0.2811374 -0.260851,-0.129644 m -1.131099,0.2025717 c -0.02232,0.1114318 -0.04049,0.4062463 -0.04049,0.6551654 0,0.3860875 0.01504,0.4468279 0.102545,0.4132512 0.0564,-0.021633 0.143909,-0.039347 0.194472,-0.039347 0.07292,0 0.09192,-0.1274424 0.09192,-0.6158186 0,-0.604994 -0.0026,-0.6158186 -0.153959,-0.6158186 -0.12057,0 -0.16277,0.04395 -0.194468,0.2025717 m 12.91071,0.3860874 c -0.950669,1.7104282 -1.741969,3.635611 -2.228852,5.4229183 L 75.353855,4.0487692 75.519801,4.28654 c 0.09134,0.1307511 2.405394,3.3574541 5.142358,7.170356 4.50852,6.280787 4.996896,6.93777 5.194222,6.988398 0.119726,0.03066 0.224804,0.04687 0.233364,0.0359 0.01678,-0.02146 -7.873818,-20.3787955 -8.020836,-20.6932541 l -0.08848,-0.1892177 -0.231291,0.4161 m -11.784406,0.1969295 c 0,0.3525107 0.0048,0.3623645 0.162058,0.3322838 0.08913,-0.017034 0.162058,-0.043494 0.162058,-0.058794 0,-0.015288 -0.07293,-0.1648432 -0.162058,-0.3322839 l -0.162058,-0.304409 v 0.3632034 m 9.246509,6.4562588 c -0.145915,0.645316 -0.361194,1.9240202 -0.407153,2.4183623 l -0.03999,0.430425 4.673298,5.3750119 c 2.570303,2.956263 4.75206,5.431081 4.848324,5.499538 0.123682,0.08802 0.265837,0.120374 0.484748,0.110398 l 0.309787,-0.01414 0.01984,0.305899 c 0.01095,0.168216 0.04907,0.315494 0.08473,0.327225 0.03934,0.0129 0.05601,-0.106108 0.04237,-0.302659 -0.01946,-0.280618 -0.0044,-0.330662 0.113314,-0.374159 0.122848,-0.04544 -0.31017,-0.67157 -4.539238,-6.563544 C 78.229985,8.2979758 75.9427,5.1108112 75.718411,4.7976514 L 75.31061,4.2283079 75.211234,4.6680031 M 74.689928,7.982738 c -0.0227,0.1656906 -0.05945,1.002102 -0.08161,1.8586127 l -0.04033,1.5573763 1.710682,1.227626 c 0.94091,0.675197 2.965077,2.128662 4.498146,3.229943 1.533071,1.101283 2.725817,1.933743 2.650624,1.849862 -0.07527,-0.08381 -2.062675,-2.373696 -4.416537,-5.088556 l -4.279691,-4.9361601 -0.0413,0.3012961 m -26.965618,6.224846 c -3.28012,3.281026 -3.4202,3.430833 -3.241159,3.466552 1.939835,0.387254 12.255346,1.441734 12.330671,1.260488 0.01192,-0.02857 0.1067,-0.05199 0.210676,-0.05199 h 0.18909 v 0.577055 0.57706 l 0.372733,0.03922 c 1.130647,0.118951 5.586334,0.388681 5.633981,0.341035 0.01699,-0.01699 0.04713,-0.245615 0.06695,-0.508016 l 0.03612,-0.477164 -5.372286,-0.863315 c -2.954836,-0.47483 -5.419742,-0.876282 -5.477693,-0.892229 -0.0772,-0.02112 -0.175672,-0.31867 -0.368522,-1.112886 -0.440925,-1.816149 -0.691271,-3.255356 -0.87362,-5.022697 l -0.07863,-0.762386 -3.428308,3.42928 m 26.8619,-1.981714 c 0,0.383558 0.02951,0.641688 0.08103,0.70839 0.04459,0.05776 2.064615,1.262561 4.489007,2.677326 2.424387,1.414834 4.531983,2.644853 4.683477,2.7334 0.151489,0.08855 0.275499,0.146115 0.275499,0.127835 0,-0.0562 -1.222179,-0.943181 -7.535117,-5.468423 -1.060311,-0.76012 -1.942686,-1.381968 -1.9609,-1.381968 -0.01814,0 -0.033,0.271548 -0.033,0.60344 m 0.0925,1.543506 c 0.04738,0.63008 0.356594,3.185543 0.38946,3.218345 0.02096,0.02094 8.685789,1.498386 8.69882,1.483217 0.01257,-0.01452 -8.970951,-5.255217 -9.058396,-5.284387 -0.05613,-0.01865 -0.06385,0.131394 -0.02989,0.582825 M 60.843658,15.38523 c -0.778204,0.09724 -1.49035,0.24004 -3.046691,0.61096 -0.802187,0.191228 -1.925251,0.455903 -2.495693,0.588208 -1.079957,0.250473 -1.932898,0.522604 -2.430869,0.775607 l -0.291707,0.148185 0.291707,0.03748 c 0.398206,0.0512 10.577333,0.700805 10.594055,0.676107 0.02232,-0.03292 0.281594,-2.805744 0.264284,-2.825776 -0.04641,-0.05373 -2.468986,-0.06274 -2.885086,-0.01072 m 3.023617,0.272454 c -0.102031,0.743001 -0.250351,2.519416 -0.213465,2.556302 0.02308,0.023 0.275304,0.05536 0.560593,0.07189 l 0.518648,0.03003 v -1.466883 -1.466818 h -0.413962 -0.414026 l -0.03777,0.275498 m 1.643653,1.247845 v 1.458524 h 0.149616 c 0.146954,0 0.149224,-0.0105 0.128737,-0.599616 -0.06813,-1.959799 -0.0971,-2.317427 -0.187727,-2.317427 -0.07494,0 -0.09063,0.252806 -0.09063,1.458519 m 0.36392,-0.567202 c 0.01596,0.490258 0.04537,1.16118 0.06547,1.490934 l 0.03649,0.599616 0.236991,6.4e-5 0.23706,6.3e-5 -0.07202,-1.47479 c -0.03955,-0.811134 -0.07604,-1.482119 -0.08103,-1.491001 -0.0049,-0.0088 -0.108644,-0.01619 -0.230447,-0.01619 H 65.84594 l 0.02892,0.891317 m 0.635525,0.2755 c 0.04694,1.368418 0.08959,1.81505 0.17347,1.81505 0.07688,0 0.07409,-0.419085 -0.01188,-1.772914 -0.09872,-1.554008 -0.214499,-1.584216 -0.161607,-0.04216 m 0.254301,-0.706704 c 0.02167,0.22824 0.05588,0.8088 0.07604,1.290112 0.02023,0.481312 0.05069,0.965541 0.06767,1.076128 l 0.03092,0.200954 0.721028,0.04382 c 0.396521,0.0241 0.735873,0.029 0.754022,0.01084 0.02913,-0.02917 -0.266293,-2.378042 -0.343951,-2.734311 -0.03304,-0.151686 -0.145591,-0.184096 -0.898902,-0.25845 l -0.446118,-0.04401 0.03926,0.414932 m 1.46624,-0.152204 c -0.0012,0.02679 0.07824,0.666186 0.17703,1.420988 l 0.179624,1.372373 0.260527,0.03496 c 0.480337,0.06443 1.848691,0.122128 1.848691,0.07791 0,-0.03896 -0.430685,-1.784842 -0.586521,-2.377393 l -0.06119,-0.232844 -0.826753,-0.173206 c -0.885813,-0.18559 -0.98739,-0.198165 -0.991406,-0.122776 m 2.013927,0.428999 c 8.51e-4,0.04037 0.141247,0.627618 0.311732,1.30502 l 0.309987,1.231641 0.797325,0.05231 c 0.438593,0.02879 0.810419,0.03931 0.826367,0.02333 0.01594,-0.01592 -0.138318,-0.540356 -0.342836,-1.165381 L 71.775619,16.494575 71.009277,16.302569 C 70.51078,16.177641 70.243643,16.136153 70.244811,16.183926 m 1.699534,0.446113 c 0.0164,0.0446 0.183903,0.547758 0.372346,1.1182 0.188375,0.570447 0.35134,1.047611 0.362233,1.060381 0.02444,0.0287 1.535076,0.143713 1.560034,0.118692 0.01772,-0.01772 -0.747345,-2.000444 -0.788574,-2.043683 -0.02164,-0.02274 -1.382292,-0.328136 -1.480306,-0.332283 -0.03053,-0.0012 -0.04211,0.03415 -0.02572,0.07869 m 24.163113,0.467961 c 0,0.230835 0.01976,0.282045 0.09724,0.252356 0.06339,-0.02436 0.09723,-0.125172 0.09723,-0.289696 0,-0.181114 -0.02747,-0.252356 -0.09723,-0.252356 -0.07195,0 -0.09724,0.07539 -0.09724,0.289696 m -22.46999,-0.129454 c 0.515084,1.295103 0.776774,1.94943 0.784166,1.960774 0.01426,0.02176 1.52581,0.120569 1.52581,0.0997 0,-0.01005 -0.215734,-0.449029 -0.479301,-0.975393 L 74.988785,17.09651 74.299911,16.99927 c -0.442161,-0.06249 -0.679412,-0.07344 -0.66243,-0.03074 m 21.450195,0.121996 -0.792981,0.203934 -0.0012,0.30791 c -8.52e-4,0.169382 0.01737,0.307909 0.04007,0.307909 0.0227,0 0.401907,-0.108443 0.842705,-0.241011 l 0.801472,-0.241075 v -0.27751 c 0,-0.152659 -0.02185,-0.274528 -0.04861,-0.270831 -0.02679,0.0038 -0.405467,0.09853 -0.841534,0.210674 m -18.329675,1.095709 1.426437,1.003851 3.078779,0.203156 c 3.530596,0.23304 3.260284,0.221436 3.20849,0.13762 -0.02206,-0.03564 -0.09665,-0.06482 -0.165883,-0.06482 -0.103203,0 -0.125823,-0.04583 -0.125823,-0.255013 0,-0.229735 0.01763,-0.257091 0.178264,-0.276343 l 0.178266,-0.02138 -0.211454,-0.114608 c -0.137232,-0.07442 -1.684236,-0.364306 -4.407977,-0.826043 -2.308098,-0.39121 -4.284038,-0.729131 -4.390994,-0.750785 -0.126472,-0.02559 0.304149,0.311478 1.231895,0.964378 m -1.458778,-0.83369 c 0,0.02256 0.189801,0.419791 0.421806,0.882758 l 0.4218,0.841799 0.275049,0.0061 c 0.151297,0.0034 0.544901,0.02521 0.87466,0.04862 0.329817,0.02342 0.599611,0.03752 0.599611,0.03142 0,-0.0061 -0.488636,-0.354456 -1.085787,-0.77412 -0.597154,-0.419601 -1.180561,-0.833755 -1.296463,-0.920296 -0.115903,-0.08654 -0.210676,-0.138915 -0.210676,-0.11629 m 18.539437,0.05081 c -0.124785,0.03564 -0.235373,0.07312 -0.245806,0.0833 -0.04972,0.04861 0.20568,0.553264 0.27997,0.553264 0.230771,0 0.289953,-0.08083 0.289953,-0.395877 0,-0.174437 -0.02185,-0.314522 -0.04861,-0.311345 -0.02679,0.0034 -0.150714,0.03501 -0.2755,0.07065 m -1.053376,0.237123 -0.437557,0.09477 v 0.351212 c 0,0.302918 0.01554,0.346932 0.113441,0.320293 0.06235,-0.0169 0.323597,-0.08006 0.580364,-0.140214 l 0.466944,-0.109426 -0.103975,-0.269215 c -0.05717,-0.148121 -0.121477,-0.285673 -0.142803,-0.305703 -0.02138,-0.0201 -0.235829,0.0061 -0.476452,0.05834 m -34.145629,0.883347 c 2.477867,0.408064 4.552861,0.743264 4.611136,0.744819 0.08304,0.0021 0.115712,-0.08894 0.151557,-0.423556 0.02508,-0.23453 0.03577,-0.435289 0.02372,-0.446176 -0.01205,-0.01084 -1.903401,-0.140214 -4.203008,-0.287492 -2.299603,-0.147276 -4.385289,-0.281656 -4.63486,-0.298643 -0.249566,-0.01699 1.573583,0.303051 4.051451,0.711048 m 32.962604,-0.647194 c -0.213916,0.04563 -0.498293,0.102355 -0.632025,0.12608 l -0.243086,0.04311 v 0.353546 c 0,0.223577 0.02747,0.353614 0.07467,0.353614 0.04105,0 0.376492,-0.06334 0.745467,-0.140733 l 0.670792,-0.140797 v -0.345378 c 0,-0.3927 0.01925,-0.384921 -0.615823,-0.249438 m -1.928491,0.341618 -0.567202,0.09789 v 0.384858 c 0,0.335136 0.01465,0.380837 0.113442,0.353741 0.06236,-0.01711 0.230123,-0.04933 0.372733,-0.07163 0.142611,-0.02223 0.412404,-0.0706 0.599616,-0.107482 l 0.340319,-0.06702 v -0.351927 c 0,-0.408967 0.04953,-0.395225 -0.858908,-0.238418 m -26.107674,0.347388 c 6.3e-5,0.09308 -0.01784,0.300065 -0.03973,0.459917 l -0.03981,0.290669 0.50977,0.07909 c 0.280427,0.0435 0.560917,0.09373 0.623276,0.111694 0.101316,0.02913 0.11344,-0.023 0.11344,-0.489155 0,-0.599744 0.03347,-0.572065 -0.729392,-0.603441 -0.433214,-0.01776 -0.437684,-0.01622 -0.437553,0.151235 m 24.568124,-0.109817 c -0.532458,0.08207 -0.523124,0.0678 -0.351472,0.535571 0.110007,0.299874 0.03287,0.285417 0.837647,0.156547 l 0.259292,-0.04148 0.01946,-0.371238 c 0.02235,-0.427444 0.07358,-0.408712 -0.764914,-0.279392 m -22.623302,0.581919 c 0,0.328719 0.02665,0.557935 0.06482,0.557935 0.03565,0 0.06482,-0.116682 0.06482,-0.259291 0,-0.187277 0.02704,-0.259293 0.09724,-0.259293 0.07021,0 0.09724,-0.07202 0.09724,-0.259297 0,-0.14261 -0.02679,-0.259292 -0.05951,-0.259292 -0.03275,0 -0.105661,-0.01772 -0.162059,-0.03934 -0.08862,-0.03402 -0.102556,0.03645 -0.102556,0.518584 m 0.453765,-0.219946 c 0,0.216059 0.02159,0.259297 0.129649,0.259297 0.108062,0 0.129643,0.04323 0.129643,0.259293 0,0.216053 0.02159,0.259292 0.129648,0.259292 0.11882,0 0.129644,-0.04324 0.129644,-0.518585 v -0.518588 h -0.259292 -0.259292 v 0.259291 m 0.648233,0.191879 c 0,0.295595 0.03062,0.477684 0.09023,0.537322 0.04965,0.04965 0.104231,0.131978 0.121284,0.182928 0.01703,0.05095 0.02023,0.0088 0.007,-0.09373 -0.01325,-0.102489 -0.02406,-0.369233 -0.02406,-0.592679 0,-0.301365 -0.02508,-0.415968 -0.09724,-0.443652 -0.08064,-0.03092 -0.09724,0.03905 -0.09724,0.409815 m 20.030272,-0.346746 c -0.338701,0.04336 -0.639414,0.08135 -0.66826,0.0844 -0.02888,0.003 -0.0344,0.03475 -0.01239,0.0704 0.02206,0.03564 0.140409,0.06482 0.263116,0.06482 0.219754,0 0.223058,0.0042 0.223058,0.280103 v 0.280034 l 0.340324,-0.04842 c 0.187208,-0.0267 0.391403,-0.05062 0.45376,-0.05322 0.09354,-0.0038 0.113442,-0.06658 0.113442,-0.357434 0,-0.194016 -0.02185,-0.363207 -0.04861,-0.376105 -0.02679,-0.01282 -0.325739,0.01205 -0.66444,0.05542 m -19.705677,0.25865 c 2.6e-4,0.174631 0.0184,0.465951 0.0402,0.647453 l 0.03969,0.32995 0.838945,0.128094 0.838941,0.12809 -0.03104,-0.133924 c -0.01703,-0.07363 -0.06677,-0.403785 -0.110465,-0.733539 l -0.07948,-0.599616 -0.233879,-3.92e-4 c -0.128613,-1.92e-4 -0.474507,-0.01912 -0.768675,-0.04199 l -0.534791,-0.0416 4.25e-4,0.317503 m 1.68482,-0.152009 c 0,0.115712 0.200693,1.372439 0.222602,1.394347 0.01328,0.01328 0.544773,0.109035 1.181015,0.212685 0.636305,0.103651 1.15891,0.18909 1.161307,0.189933 0.02457,0.008 -0.428802,-1.643853 -0.459658,-1.674772 -0.06114,-0.06119 -2.105331,-0.179884 -2.105266,-0.122193 m -17.642807,0.464978 -0.0215,0.491229 0.194472,0.03156 c 0.264607,0.04297 2.307902,0.227206 2.519936,0.227206 0.169318,0 0.170225,-0.003 0.170225,-0.508799 v -0.508735 l -1.183024,-0.07694 c -0.650692,-0.04229 -1.290042,-0.09264 -1.420793,-0.111824 l -0.237834,-0.03492 -0.02146,0.491229 m 20.122424,0.442093 c 0.107538,0.436778 0.228114,0.829024 0.267852,0.871743 0.07824,0.08394 0.581591,0.122064 1.306707,0.09898 l 0.456482,-0.01457 -0.276015,-0.826494 -0.276019,-0.826498 -0.536993,-0.0422 c -0.295335,-0.02321 -0.672088,-0.04505 -0.837259,-0.04861 l -0.300262,-0.0065 0.195507,0.794084 m 1.669068,-0.613681 c 0,0.02794 0.112275,0.385244 0.249443,0.794084 l 0.249502,0.74333 0.803874,-0.02385 c 0.442156,-0.01311 0.810874,-0.02977 0.81943,-0.03709 0.0085,-0.0073 -0.112535,-0.332028 -0.269015,-0.721612 l -0.284446,-0.70839 -0.379214,-0.04157 c -0.554372,-0.0608 -1.189574,-0.0634 -1.189574,-0.0049 m -18.669045,0.453701 v 0.455191 l 0.372733,0.03649 c 0.205038,0.0201 0.66444,0.05303 1.020967,0.07312 0.35653,0.02014 0.830581,0.05373 1.05338,0.07461 l 0.405143,0.03807 V 19.708158 19.22218 L 56.354334,19.18334 C 56.024581,19.162 55.382765,19.12585 54.928226,19.10303 l -0.826499,-0.04156 v 0.455251 m 20.419318,-0.383362 c 0,0.02219 0.118039,0.346997 0.262273,0.721807 l 0.262273,0.681487 0.78339,-0.04687 c 0.430944,-0.02571 0.793628,-0.05705 0.806074,-0.06942 0.01239,-0.01243 -0.114803,-0.288721 -0.28276,-0.614004 l -0.305316,-0.591316 -0.487467,-0.03786 c -0.268111,-0.02082 -0.611479,-0.04823 -0.762973,-0.061 -0.151489,-0.01269 -0.275494,-0.005 -0.275494,0.01716 m 1.98041,0.665995 c 0.166853,0.333642 0.310566,0.614715 0.319317,0.624638 0.0221,0.02495 2.510283,-0.17159 2.539256,-0.200567 0.01281,-0.01281 -0.247561,-0.214111 -0.578677,-0.447215 -0.599872,-0.422258 -0.604151,-0.424008 -1.150934,-0.465884 -0.301884,-0.02308 -0.74761,-0.05899 -0.990567,-0.0798 l -0.441705,-0.03781 0.30331,0.606617 m 8.585769,-0.338701 c 0,0.119402 0.03347,0.199851 0.08316,0.199851 0.104298,0 0.09736,-0.339545 -0.0077,-0.374552 -0.0466,-0.01554 -0.07552,0.05134 -0.07552,0.174701 m -6.059866,0.319317 0.6494,0.450912 1.295294,-0.120961 c 1.85524,-0.173207 3.486196,-0.346285 3.423509,-0.363336 -0.02956,-0.008 -1.249791,-0.08881 -2.711555,-0.179492 -1.461764,-0.09069 -2.803602,-0.181314 -2.981868,-0.201472 l -0.324116,-0.03654 0.649336,0.450907 M 63.474042,19.611902 c -0.01619,0.08025 -0.04408,0.295139 -0.06197,0.477616 l -0.03254,0.331764 0.336304,0.04037 c 0.184942,0.02223 0.489415,0.0407 0.676559,0.04096 l 0.340324,4.27e-4 v -0.418434 -0.41837 l -0.210676,-0.03428 c -0.115902,-0.01887 -0.383753,-0.06398 -0.595336,-0.10021 -0.211518,-0.03624 -0.393284,-0.06586 -0.403913,-0.06586 -0.01061,0 -0.03253,0.0656 -0.04875,0.145855 m 21.613161,0.502378 c 0,0.421158 0.110397,0.42109 0.139565,-6.5e-5 0.01579,-0.228049 -0.0017,-0.324116 -0.05853,-0.324116 -0.054,6.4e-5 -0.08103,0.10813 -0.08103,0.324181 m -18.280145,-0.06482 c 0,0.03564 -0.131266,0.06482 -0.291702,0.06482 -0.290152,0 -0.291707,0.0012 -0.291707,0.226882 v 0.226883 h 0.324117 0.324116 v -0.291709 c 0,-0.160435 -0.01461,-0.291701 -0.03241,-0.291701 -0.01784,0 -0.03241,0.02917 -0.03241,0.06482 m 17.259183,-0.02193 c -0.04454,0.01802 -0.08103,0.121546 -0.08103,0.23006 0,0.195635 0.0026,0.196998 0.273034,0.153695 0.332417,-0.05316 0.326582,-0.04771 0.274073,-0.256959 -0.033,-0.131463 -0.08116,-0.168539 -0.213784,-0.164587 -0.09419,0.003 -0.207694,0.01984 -0.252291,0.03781 m -17.064707,0.271795 v 0.249959 l 0.437553,0.04131 c 0.240624,0.02274 0.636437,0.04157 0.879459,0.04182 0.428478,4.26e-4 0.440603,-0.0038 0.397108,-0.1454 -0.02465,-0.08025 -0.05446,-0.156675 -0.06625,-0.169964 -0.02244,-0.02517 -1.42611,-0.263636 -1.566843,-0.266166 -0.05108,-8.52e-4 -0.08103,0.09102 -0.08103,0.248467 m 15.201039,-0.08369 c -0.748708,0.08109 -1.499876,0.149802 -1.669195,0.152655 -0.237707,0.0042 -0.307909,0.02904 -0.307909,0.109683 0,0.09218 0.08874,0.09989 0.76167,0.066 0.418889,-0.02108 1.221076,-0.05652 1.78264,-0.07883 l 1.020966,-0.04045 v -0.1876 c 0,-0.13911 -0.02938,-0.185262 -0.113442,-0.178261 -0.06235,0.0051 -0.726018,0.07571 -1.47473,0.156808 m -16.691976,0.125497 c 0,0.124785 0.02917,0.226882 0.06482,0.226882 0.03564,0 0.06482,-0.102098 0.06482,-0.226882 0,-0.124786 -0.02917,-0.226883 -0.06482,-0.226883 -0.03564,0 -0.06482,0.102098 -0.06482,0.226883 m -8.297371,0.06029 c 0,0.253654 0.114996,0.274201 1.800079,0.321846 1.576627,0.04454 1.635553,0.04182 1.635553,-0.07623 0,-0.112598 -0.09504,-0.128933 -1.183024,-0.203542 -2.462764,-0.168737 -2.252608,-0.164785 -2.252608,-0.04207 m 11.653011,0.07293 0.03027,0.15849 0.851387,-0.006 0.851325,-0.0061 -0.713057,-0.119339 c -0.392178,-0.06567 -0.788898,-0.134251 -0.881661,-0.152464 -0.150062,-0.02942 -0.165235,-0.01567 -0.138266,0.125433 m 9.641415,0.06177 c -1.097585,0.08699 -0.765301,0.118432 0.573168,0.05425 0.486949,-0.02333 0.885352,-0.06709 0.885352,-0.09723 0,-0.06443 -0.164196,-0.05964 -1.45852,0.04298 m -17.642731,0.122586 c 0,0.0914 0.143194,0.103784 1.201432,0.103784 0.709946,0 1.176153,-0.02371 1.139791,-0.05802 -0.03386,-0.03194 -0.574531,-0.07864 -1.20137,-0.103785 -1.020838,-0.04093 -1.139853,-0.03487 -1.139853,0.05802 m 21.759016,0.0422 c -0.516967,0.02491 -1.093051,0.04894 -1.280259,0.05342 -0.333127,0.0079 -0.340323,0.01231 -0.340323,0.202636 0,0.106957 0.02185,0.19434 0.04861,0.194148 0.08894,-4.26e-4 2.223954,-0.258061 2.483442,-0.29955 0.249311,-0.03986 0.380254,-0.231226 0.141899,-0.20737 -0.06235,0.0063 -0.536413,0.03177 -1.053376,0.05672 m 1.361286,-0.0035 c 0,0.03564 0.07118,0.06482 0.158234,0.06482 0.08705,0 0.176256,-0.02917 0.198292,-0.06482 0.02342,-0.03781 -0.04254,-0.06482 -0.158229,-0.06482 -0.109035,0 -0.198297,0.02917 -0.198297,0.06482 m -20.613588,0.04861 c 6.4e-5,0.02679 0.313679,0.05718 0.69685,0.06761 0.491881,0.01349 0.668068,-4.26e-4 0.59942,-0.04759 -0.110777,-0.07597 -1.29653,-0.09426 -1.29627,-0.02002 m 15.314288,0.06475 -1.247844,0.01908 v 0.32671 0.326711 l 0.2755,-0.03428 c 0.151489,-0.01887 0.720312,-0.06878 1.264051,-0.111046 l 0.988552,-0.07682 v -0.249439 c 0,-0.137164 -0.0073,-0.242825 -0.01619,-0.234721 -0.0089,0.008 -0.577771,0.02333 -1.264056,0.03386 m 1.539555,0.182021 v 0.230642 l 0.275495,-0.01997 c 0.258581,-0.01866 0.276731,-0.03279 0.295791,-0.230575 0.02026,-0.209896 0.0192,-0.210675 -0.2755,-0.210675 -0.295722,0 -0.295786,6.4e-5 -0.295786,0.230574 m -22.882595,0.116167 c 0,0.197189 0.0227,0.236667 0.136126,0.236667 0.121741,0 1.696426,0.0879 2.764711,0.154343 l 0.405148,0.02521 v -0.28425 -0.284251 l -1.020966,-3.22e-4 c -0.561564,-1.93e-4 -1.305344,-0.0192 -1.652993,-0.0422 l -0.632026,-0.04186 v 0.236671 m 14.090816,-0.10365 c 0.0181,0.06236 0.06496,0.237447 0.104109,0.38894 l 0.07118,0.2755 h 0.418889 0.418821 v -0.388941 -0.388936 h -0.522928 c -0.467375,0 -0.519492,0.01205 -0.490063,0.113437 m 1.239873,0.275499 v 0.388998 h 0.400868 0.400932 L 73.34407,21.280833 73.212677,20.891897 h -0.269534 -0.269538 v 0.388936 m 0.815346,-0.01516 0.12751,0.377465 0.825004,-0.02644 c 0.453829,-0.01461 0.836348,-0.03687 0.850157,-0.04959 0.0138,-0.01269 -0.0321,-0.162577 -0.101964,-0.33293 l -0.12705,-0.309856 -0.850545,-0.0181 -0.850549,-0.01802 0.127442,0.377465 m 1.745172,-0.327293 c 0,0.02555 0.04771,0.171392 0.106052,0.324116 l 0.106052,0.277637 h 0.412535 0.412535 v -0.324116 -0.324113 h -0.518587 c -0.285221,0 -0.518585,0.02087 -0.518585,0.04648 m 1.2964,0.261435 v 0.307908 l 0.324117,-0.02249 c 0.178325,-0.01231 0.32418,-0.03539 0.32418,-0.05115 0,-0.0158 -0.05892,-0.144297 -0.130943,-0.285481 -0.10832,-0.212298 -0.164392,-0.256699 -0.324116,-0.256699 -0.187212,0 -0.193173,0.0095 -0.193238,0.307909 m -7.584252,-0.15493 c 0,0.04856 0.01852,0.223579 0.04122,0.388942 l 0.04122,0.30078 h 0.922046 c 1.059666,0 1.524191,-0.04803 1.489252,-0.153955 -0.01325,-0.04011 -0.05582,-0.196934 -0.09458,-0.348427 l -0.07053,-0.275499 h -1.164352 c -0.93864,0 -1.164292,0.01712 -1.164292,0.08816 m -8.070491,0.235957 c 0,0.164201 0.02968,0.259292 0.08103,0.259292 0.05134,0 0.08103,-0.09509 0.08103,-0.259292 0,-0.164196 -0.02968,-0.259292 -0.08103,-0.259292 -0.05134,0 -0.08103,0.09509 -0.08103,0.259292 m 0.35653,-0.0096 v 0.249698 l 0.534791,0.0416 c 0.294168,0.02287 0.713704,0.04182 0.932351,0.04203 0.425371,3.88e-4 0.474312,-0.0444 0.476645,-0.437169 8.51e-4,-0.144813 -0.006,-0.145852 -0.971442,-0.145852 h -0.972345 v 0.249699 m 2.064165,0.04199 -0.02312,0.291702 0.389395,4.26e-4 c 0.214176,2.6e-4 0.542568,0.01891 0.729712,0.04143 l 0.340323,0.04088 v -0.333158 -0.333127 h -0.706509 -0.706572 l -0.02321,0.291707 m 2.214163,0.03241 c 0,0.178266 0.02917,0.324116 0.06482,0.324116 0.03565,0 0.06482,-0.14585 0.06482,-0.324116 0,-0.178265 -0.02917,-0.324115 -0.06482,-0.324115 -0.03565,0 -0.06482,0.14585 -0.06482,0.324115 m 0.713057,0 v 0.324116 h 0.356527 0.35653 V 21.345499 21.021384 H 66.580237 66.22371 v 0.324115 m 0.842701,-0.0097 v 0.314455 l 0.593394,0.04207 c 0.326319,0.02321 0.73853,0.04216 0.915952,0.04216 h 0.322691 l -0.0402,-0.24309 c -0.0221,-0.133663 -0.04049,-0.294168 -0.04092,-0.356526 -8.52e-4,-0.102422 -0.08589,-0.113441 -0.875826,-0.113441 h -0.875117 v 0.314394"
     stroke="none"
     id="shadow"
     fill-rule="evenodd"
     fill="#040404"
     style="opacity:0.5" />
  <path
     d="m 63.958467,-10.35796 c -0.0238,0.02372 -0.04324,1.2197139 -0.04324,2.657751 v 2.6145167 h -0.194468 -0.194472 v 0.5952041 0.5952085 l -0.935008,0.94117 -0.935013,0.9411018 -5.260012,0.6257362 c -5.549126,0.66009644 -5.588281,0.66703328 -5.403599,0.95387676 0.05976,0.0928264 0.15201,0.10851412 0.533689,0.0908805 0.253782,-0.0117524 0.461413,-0.007328 0.461413,0.009796 0,0.0171187 -0.131918,0.37253753 -0.293197,0.78980434 -0.726214,1.8789657 -1.205451,3.5194467 -1.455606,4.9825697 -0.165038,0.9654123 -0.28697,2.7447439 -0.243149,3.5481664 l 0.03398,0.622692 -3.510243,3.509786 c -2.880614,2.88029 -3.541225,3.509787 -3.682992,3.509787 -0.365734,0 -0.377793,-0.02397 -0.377793,-0.7524 v -0.67371 h -0.162058 c -0.135154,0 -0.162058,-0.03087 -0.162058,-0.185718 0,-0.475541 -0.557736,-0.712797 -0.83797,-0.356526 -0.12835,0.163093 -0.134375,0.248724 -0.134375,1.902235 0,1.680607 -0.0038,1.735058 -0.137104,1.854916 -0.211451,0.190453 -0.263764,0.390819 -0.164197,0.628982 0.04771,0.114152 0.135027,0.247624 0.194017,0.296501 0.09199,0.07629 0.107214,0.242438 0.106633,1.166817 -4.25e-4,1.018633 -0.0097,1.097394 -0.165945,1.433047 -0.23557,0.506074 -0.828572,1.377169 -1.0994,1.61494 -0.683628,0.600262 -2.870113,1.304373 -4.383931,1.411853 -0.50977,0.03615 -0.577703,0.02704 -0.738079,-0.09912 -0.401254,-0.315621 -0.937017,-0.06961 -0.937017,0.430237 0,0.292805 0.186952,0.508667 0.493695,0.569991 0.153435,0.03071 0.240815,0.0012 0.404236,-0.13626 l 0.20847,-0.175413 1.893875,0.03462 c 2.024108,0.03701 2.782605,0.126149 3.714696,0.436327 l 0.446955,0.148705 5.737374,-0.04356 c 19.135298,-0.145332 34.27735,-0.533301 38.440684,-0.984792 2.575298,-0.279323 4.540934,-0.793113 6.093384,-1.59284 0.89819,-0.462706 1.446204,-0.863702 2.052109,-1.501561 l 0.454605,-0.478591 0.0798,0.394127 c 0.142614,0.704757 0.532717,2.006082 0.7104,2.37 0.216121,0.442612 0.433989,0.549897 0.706052,0.34758 0.379802,-0.282496 0.224745,-0.886067 -0.669426,-2.605958 -0.229088,-0.440602 -0.415973,-0.84899 -0.41539,-0.907524 4.27e-4,-0.0586 0.176383,-0.325283 0.390627,-0.592679 0.675588,-0.843089 1.186457,-2.065072 1.391171,-3.327246 0.138978,-0.856898 0.125756,-2.325727 -0.02904,-3.229688 C 95.584117,11.940593 94.669459,10.291425 93.289309,9.245305 92.549803,8.6847802 92.497299,8.6575527 92.155485,8.6571652 91.885819,8.6569054 91.810563,8.6873572 91.626527,8.8714047 91.374432,9.123505 91.285625,9.527545 91.393943,9.929712 c 0.14436,0.53615 0.685957,0.77872 1.215694,0.544386 0.355492,-0.157263 0.383622,-0.14488 0.905255,0.39853 0.919517,0.957829 1.404202,2.146299 1.57754,3.868263 0.08906,0.884642 0.0973,0.832392 -0.143066,0.909986 -0.177747,0.0573 -2.069093,0.531096 -2.480913,0.621397 -0.106767,0.02338 -0.151298,-0.02755 -0.240432,-0.275562 -0.09509,-0.264288 -0.09704,-0.311282 -0.01486,-0.357242 0.138075,-0.07728 0.11571,-0.164132 -0.04829,-0.18786 -0.109872,-0.01597 -0.179883,-0.118299 -0.302202,-0.442093 -0.174441,-0.461476 -0.258062,-0.556185 -0.381808,-0.432434 -0.0654,0.0654 -0.05037,0.160759 0.07623,0.483841 l 0.157646,0.402355 h -0.843284 c -0.645768,0 -0.836931,0.01899 -0.816317,0.08103 0.01925,0.05807 0.26772,0.08615 0.876669,0.09911 l 0.849766,0.01802 0.126664,0.338509 c 0.124656,0.333059 0.124656,0.339221 0.0026,0.385504 -0.347648,0.131654 -3.927121,0.769126 -5.210037,0.927881 l -0.324117,0.04011 -0.25359,-0.702037 c -0.139498,-0.386088 -0.266616,-0.738403 -0.282432,-0.782999 -0.02206,-0.06197 0.157064,-0.08103 0.761346,-0.08103 0.603312,0 0.783842,-0.0192 0.76336,-0.08103 -0.0192,-0.0577 -0.2591,-0.08621 -0.833175,-0.09905 l -0.806203,-0.01802 -0.152272,-0.424527 c -0.149676,-0.417459 -0.279387,-0.557348 -0.402618,-0.434122 -0.04007,0.04007 -0.01106,0.196807 0.08091,0.437038 0.132365,0.345898 0.134959,0.37922 0.0344,0.435548 -0.156807,0.08778 -0.134055,0.184164 0.0435,0.184164 0.135742,0 0.184618,0.08693 0.446308,0.794083 l 0.293908,0.794088 -0.203282,0.04395 c -0.111756,0.02418 -0.328721,0.05335 -0.482156,0.06482 L 85.105717,17.505183 81.057702,7.0691661 C 78.831283,1.3293282 77.009684,-3.370939 77.009684,-3.3759298 c 0,-0.00498 0.248535,-0.029766 0.552297,-0.055035 0.679344,-0.056593 0.888661,-0.2045177 0.64058,-0.4525978 -0.07007,-0.070074 -0.169837,-0.092372 -0.307908,-0.06884 -0.305513,0.051921 -11.642057,1.3947984 -11.775397,1.3947984 -0.0645,0 -0.367091,-0.2871672 -0.689394,-0.6541945 l -0.574529,-0.6542625 -0.03241,-0.5935861 c -0.03223,-0.5902769 -0.03338,-0.5937773 -0.21067,-0.614132 l -0.178266,-0.020568 v -2.5509232 c 0,-1.40297 -0.01772,-2.5970105 -0.03934,-2.6534075 -0.03909,-0.101897 -0.351017,-0.144297 -0.435999,-0.05932 m -1.310663,7.5189095 c -0.429714,0.4400189 -0.750589,0.7991386 -0.713057,0.7979719 0.190841,-0.00571 1.41172,-0.1853938 1.43791,-0.2116462 0.03748,-0.037474 0.1185,-1.4108777 0.08239,-1.3966167 -0.01431,0.00557 -0.377529,0.3702041 -0.807242,0.810291 m 2.179744,-0.690884 c -8.53e-4,0.1748928 0.449877,1.066015 0.529997,1.048062 0.02679,-0.00597 0.153435,-0.010902 0.281528,-0.010902 h 0.232908 l -0.261757,-0.3079048 c -0.143969,-0.1693186 -0.378759,-0.43918 -0.521824,-0.5996158 -0.243218,-0.2727101 -0.260137,-0.2811374 -0.260851,-0.129644 m -1.131099,0.2025717 c -0.02232,0.1114318 -0.04049,0.4062463 -0.04049,0.6551654 0,0.3860875 0.01504,0.4468279 0.102545,0.4132512 0.0564,-0.021633 0.143909,-0.039347 0.194472,-0.039347 0.07292,0 0.09192,-0.1274424 0.09192,-0.6158186 0,-0.604994 -0.0026,-0.6158186 -0.153959,-0.6158186 -0.12057,0 -0.16277,0.04395 -0.194468,0.2025717 m 12.91071,0.3860874 c -0.950669,1.7104282 -1.741969,3.635611 -2.228852,5.4229183 L 74.212044,3.0926282 74.37799,3.330399 c 0.09134,0.1307511 2.405394,3.3574541 5.142358,7.170356 4.50852,6.280787 4.996896,6.93777 5.194222,6.988398 0.119726,0.03066 0.224804,0.04687 0.233364,0.0359 0.01678,-0.02146 -7.873818,-20.3787955 -8.020836,-20.6932541 l -0.08848,-0.1892177 -0.231291,0.4161 m -11.784406,0.1969295 c 0,0.3525107 0.0048,0.3623645 0.162058,0.3322838 0.08913,-0.017034 0.162058,-0.043494 0.162058,-0.058794 0,-0.015288 -0.07293,-0.1648432 -0.162058,-0.3322839 l -0.162058,-0.304409 V -2.744389 M 74.06943,3.7118698 C 73.923515,4.3571858 73.708236,5.63589 73.662277,6.1302321 l -0.03999,0.430425 4.673298,5.3750119 c 2.570303,2.956263 4.75206,5.431081 4.848324,5.499538 0.123682,0.08802 0.265837,0.120374 0.484748,0.110398 l 0.309787,-0.01414 0.01984,0.305899 c 0.01095,0.168216 0.04907,0.315494 0.08473,0.327225 0.03934,0.0129 0.05601,-0.106108 0.04237,-0.302659 -0.01946,-0.280618 -0.0044,-0.330662 0.113314,-0.374159 0.122848,-0.04544 -0.31017,-0.67157 -4.539238,-6.563544 C 77.088174,7.3418348 74.800889,4.1546702 74.5766,3.8415104 L 74.168799,3.2721669 74.069423,3.7118621 M 73.548117,7.026597 c -0.0227,0.1656906 -0.05945,1.002102 -0.08161,1.8586127 l -0.04033,1.5573763 1.710682,1.227626 c 0.94091,0.675197 2.965077,2.128662 4.498146,3.229943 1.533071,1.101283 2.725817,1.933743 2.650624,1.849862 -0.07527,-0.08381 -2.062675,-2.373696 -4.416537,-5.088556 l -4.279691,-4.9361601 -0.0413,0.3012961 m -26.965618,6.224846 c -3.28012,3.281026 -3.4202,3.430833 -3.241159,3.466552 1.939835,0.387254 12.255346,1.441734 12.330671,1.260488 0.01192,-0.02857 0.1067,-0.05199 0.210676,-0.05199 h 0.18909 v 0.577055 0.57706 l 0.372733,0.03922 c 1.130647,0.118951 5.586334,0.388681 5.633981,0.341035 0.01699,-0.01699 0.04713,-0.245615 0.06695,-0.508016 l 0.03612,-0.477164 -5.372286,-0.863315 c -2.954836,-0.47483 -5.419742,-0.876282 -5.477693,-0.892229 -0.0772,-0.02112 -0.175672,-0.31867 -0.368522,-1.112886 -0.440925,-1.816149 -0.691271,-3.255356 -0.87362,-5.022697 l -0.07863,-0.762386 -3.428308,3.42928 m 26.8619,-1.981714 c 0,0.383558 0.02951,0.641688 0.08103,0.70839 0.04459,0.05776 2.064615,1.262561 4.489007,2.677326 2.424387,1.414834 4.531983,2.644853 4.683477,2.7334 0.151489,0.08855 0.275499,0.146115 0.275499,0.127835 0,-0.0562 -1.222179,-0.943181 -7.535117,-5.468423 -1.060311,-0.76012 -1.942686,-1.381968 -1.9609,-1.381968 -0.01814,0 -0.033,0.271548 -0.033,0.60344 m 0.0925,1.543506 c 0.04738,0.63008 0.356594,3.185543 0.38946,3.218345 0.02096,0.02094 8.685789,1.498386 8.69882,1.483217 0.01257,-0.01452 -8.970951,-5.255217 -9.058396,-5.284387 -0.05613,-0.01865 -0.06385,0.131394 -0.02989,0.582825 m -13.835029,1.615847 c -0.778204,0.09724 -1.49035,0.24004 -3.046691,0.61096 -0.802187,0.191228 -1.925251,0.455903 -2.495693,0.588208 -1.079957,0.250473 -1.932898,0.522604 -2.430869,0.775607 l -0.291707,0.148185 0.291707,0.03748 c 0.398206,0.0512 10.577333,0.700805 10.594055,0.676107 0.02232,-0.03292 0.281594,-2.805744 0.264284,-2.825776 -0.04641,-0.05373 -2.468986,-0.06274 -2.885086,-0.01072 m 3.023617,0.272454 c -0.102031,0.743001 -0.250351,2.519416 -0.213465,2.556302 0.02308,0.023 0.275304,0.05536 0.560593,0.07189 l 0.518648,0.03003 v -1.466883 -1.466818 h -0.413962 -0.414026 l -0.03777,0.275498 m 1.643653,1.247845 v 1.458524 h 0.149616 c 0.146954,0 0.149224,-0.0105 0.128737,-0.599616 -0.06813,-1.959799 -0.0971,-2.317427 -0.187727,-2.317427 -0.07494,0 -0.09063,0.252806 -0.09063,1.458519 m 0.36392,-0.567202 c 0.01596,0.490258 0.04537,1.16118 0.06547,1.490934 l 0.03649,0.599616 0.236991,6.4e-5 0.23706,6.3e-5 -0.07202,-1.47479 c -0.03955,-0.811134 -0.07604,-1.482119 -0.08103,-1.491001 -0.0049,-0.0088 -0.108644,-0.01619 -0.230447,-0.01619 h -0.221436 l 0.02892,0.891317 m 0.635525,0.2755 c 0.04694,1.368418 0.08959,1.81505 0.17347,1.81505 0.07688,0 0.07409,-0.419085 -0.01188,-1.772914 -0.09872,-1.554008 -0.214499,-1.584216 -0.161607,-0.04216 m 0.254301,-0.706704 c 0.02167,0.22824 0.05588,0.8088 0.07604,1.290112 0.02023,0.481312 0.05069,0.965541 0.06767,1.076128 l 0.03092,0.200954 0.721028,0.04382 c 0.396521,0.0241 0.735873,0.029 0.754022,0.01084 0.02913,-0.02917 -0.266293,-2.378042 -0.343951,-2.734311 -0.03304,-0.151686 -0.145591,-0.184096 -0.898902,-0.25845 l -0.446118,-0.04401 0.03926,0.414932 m 1.46624,-0.152204 c -0.0012,0.02679 0.07824,0.666186 0.17703,1.420988 l 0.179624,1.372373 0.260527,0.03496 c 0.480337,0.06443 1.848691,0.122128 1.848691,0.07791 0,-0.03896 -0.430685,-1.784842 -0.586521,-2.377393 l -0.06119,-0.232844 -0.826753,-0.173206 c -0.885813,-0.18559 -0.98739,-0.198165 -0.991406,-0.122776 m 2.013927,0.428999 c 8.51e-4,0.04037 0.141247,0.627618 0.311732,1.30502 l 0.309987,1.231641 0.797325,0.05231 c 0.438593,0.02879 0.810419,0.03931 0.826367,0.02333 0.01594,-0.01592 -0.138318,-0.540356 -0.342836,-1.165381 L 70.633808,15.538434 69.867466,15.346428 C 69.368969,15.2215 69.101832,15.180012 69.103,15.227785 m 1.699534,0.446113 c 0.0164,0.0446 0.183903,0.547758 0.372346,1.1182 0.188375,0.570447 0.35134,1.047611 0.362233,1.060381 0.02444,0.0287 1.535076,0.143713 1.560034,0.118692 0.01772,-0.01772 -0.747345,-2.000444 -0.788574,-2.043683 -0.02164,-0.02274 -1.382292,-0.328136 -1.480306,-0.332283 -0.03053,-0.0012 -0.04211,0.03415 -0.02572,0.07869 m 24.163113,0.467961 c 0,0.230835 0.01976,0.282045 0.09724,0.252356 0.06339,-0.02436 0.09723,-0.125172 0.09723,-0.289696 0,-0.181114 -0.02747,-0.252356 -0.09723,-0.252356 -0.07195,0 -0.09724,0.07539 -0.09724,0.289696 M 72.49567,16.012402 c 0.515084,1.295103 0.776774,1.94943 0.784166,1.960774 0.01426,0.02176 1.52581,0.120569 1.52581,0.0997 0,-0.01005 -0.215734,-0.449029 -0.479301,-0.975393 L 73.846974,16.140369 73.1581,16.043129 c -0.442161,-0.06249 -0.679412,-0.07344 -0.66243,-0.03074 m 21.450195,0.121996 -0.792981,0.203934 -0.0012,0.30791 c -8.52e-4,0.169382 0.01737,0.307909 0.04007,0.307909 0.0227,0 0.401907,-0.108443 0.842705,-0.241011 l 0.801472,-0.241075 v -0.27751 c 0,-0.152659 -0.02185,-0.274528 -0.04861,-0.270831 -0.02679,0.0038 -0.405467,0.09853 -0.841534,0.210674 m -18.329675,1.095709 1.426437,1.003851 3.078779,0.203156 c 3.530596,0.23304 3.260284,0.221436 3.20849,0.13762 -0.02206,-0.03564 -0.09665,-0.06482 -0.165883,-0.06482 -0.103203,0 -0.125823,-0.04583 -0.125823,-0.255013 0,-0.229735 0.01763,-0.257091 0.178264,-0.276343 l 0.178266,-0.02138 -0.211454,-0.114608 c -0.137232,-0.07442 -1.684236,-0.364306 -4.407977,-0.826043 -2.308098,-0.39121 -4.284038,-0.729131 -4.390994,-0.750785 -0.126472,-0.02559 0.304149,0.311478 1.231895,0.964378 m -1.458778,-0.83369 c 0,0.02256 0.189801,0.419791 0.421806,0.882758 l 0.4218,0.841799 0.275049,0.0061 c 0.151297,0.0034 0.544901,0.02521 0.87466,0.04862 0.329817,0.02342 0.599611,0.03752 0.599611,0.03142 0,-0.0061 -0.488636,-0.354456 -1.085787,-0.77412 -0.597154,-0.419601 -1.180561,-0.833755 -1.296463,-0.920296 -0.115903,-0.08654 -0.210676,-0.138915 -0.210676,-0.11629 m 18.539437,0.05081 c -0.124785,0.03564 -0.235373,0.07312 -0.245806,0.0833 -0.04972,0.04861 0.20568,0.553264 0.27997,0.553264 0.230771,0 0.289953,-0.08083 0.289953,-0.395877 0,-0.174437 -0.02185,-0.314522 -0.04861,-0.311345 -0.02679,0.0034 -0.150714,0.03501 -0.2755,0.07065 m -1.053376,0.237123 -0.437557,0.09477 v 0.351212 c 0,0.302918 0.01554,0.346932 0.113441,0.320293 0.06235,-0.0169 0.323597,-0.08006 0.580364,-0.140214 l 0.466944,-0.109426 -0.103975,-0.269215 c -0.05717,-0.148121 -0.121477,-0.285673 -0.142803,-0.305703 -0.02138,-0.0201 -0.235829,0.0061 -0.476452,0.05834 m -34.145629,0.883347 c 2.477867,0.408064 4.552861,0.743264 4.611136,0.744819 0.08304,0.0021 0.115712,-0.08894 0.151557,-0.423556 0.02508,-0.23453 0.03577,-0.435289 0.02372,-0.446176 -0.01205,-0.01084 -1.903401,-0.140214 -4.203008,-0.287492 -2.299603,-0.147276 -4.385289,-0.281656 -4.63486,-0.298643 -0.249566,-0.01699 1.573583,0.303051 4.051451,0.711048 m 32.962604,-0.647194 c -0.213916,0.04563 -0.498293,0.102355 -0.632025,0.12608 l -0.243086,0.04311 v 0.353546 c 0,0.223577 0.02747,0.353614 0.07467,0.353614 0.04105,0 0.376492,-0.06334 0.745467,-0.140733 l 0.670792,-0.140797 v -0.345378 c 0,-0.3927 0.01925,-0.384921 -0.615823,-0.249438 m -1.928491,0.341618 -0.567202,0.09789 v 0.384858 c 0,0.335136 0.01465,0.380837 0.113442,0.353741 0.06236,-0.01711 0.230123,-0.04933 0.372733,-0.07163 0.142611,-0.02223 0.412404,-0.0706 0.599616,-0.107482 l 0.340319,-0.06702 v -0.351927 c 0,-0.408967 0.04953,-0.395225 -0.858908,-0.238418 m -26.107674,0.347388 c 6.3e-5,0.09308 -0.01784,0.300065 -0.03973,0.459917 l -0.03981,0.290669 0.50977,0.07909 c 0.280427,0.0435 0.560917,0.09373 0.623276,0.111694 0.101316,0.02913 0.11344,-0.023 0.11344,-0.489155 0,-0.599744 0.03347,-0.572065 -0.729392,-0.603441 -0.433214,-0.01776 -0.437684,-0.01622 -0.437553,0.151235 M 86.99229,17.499757 c -0.532458,0.08207 -0.523124,0.0678 -0.351472,0.535571 0.110007,0.299874 0.03287,0.285417 0.837647,0.156547 l 0.259292,-0.04148 0.01946,-0.371238 c 0.02235,-0.427444 0.07358,-0.408712 -0.764914,-0.279392 m -22.623302,0.581919 c 0,0.328719 0.02665,0.557935 0.06482,0.557935 0.03565,0 0.06482,-0.116682 0.06482,-0.259291 0,-0.187277 0.02704,-0.259293 0.09724,-0.259293 0.07021,0 0.09724,-0.07202 0.09724,-0.259297 0,-0.14261 -0.02679,-0.259292 -0.05951,-0.259292 -0.03275,0 -0.105661,-0.01772 -0.162059,-0.03934 -0.08862,-0.03402 -0.102556,0.03645 -0.102556,0.518584 m 0.453765,-0.219946 c 0,0.216059 0.02159,0.259297 0.129649,0.259297 0.108062,0 0.129643,0.04323 0.129643,0.259293 0,0.216053 0.02159,0.259292 0.129648,0.259292 0.11882,0 0.129644,-0.04324 0.129644,-0.518585 v -0.518588 h -0.259292 -0.259292 v 0.259291 m 0.648233,0.191879 c 0,0.295595 0.03062,0.477684 0.09023,0.537322 0.04965,0.04965 0.104231,0.131978 0.121284,0.182928 0.01703,0.05095 0.02023,0.0088 0.007,-0.09373 -0.01325,-0.102489 -0.02406,-0.369233 -0.02406,-0.592679 0,-0.301365 -0.02508,-0.415968 -0.09724,-0.443652 -0.08064,-0.03092 -0.09724,0.03905 -0.09724,0.409815 M 85.50124,17.706881 c -0.338701,0.04336 -0.639414,0.08135 -0.66826,0.0844 -0.02888,0.003 -0.0344,0.03475 -0.01239,0.0704 0.02206,0.03564 0.140409,0.06482 0.263116,0.06482 0.219754,0 0.223058,0.0042 0.223058,0.280103 v 0.280034 l 0.340324,-0.04842 c 0.187208,-0.0267 0.391403,-0.05062 0.45376,-0.05322 0.09354,-0.0038 0.113442,-0.06658 0.113442,-0.357434 0,-0.194016 -0.02185,-0.363207 -0.04861,-0.376105 -0.02679,-0.01282 -0.325739,0.01205 -0.66444,0.05542 m -19.705677,0.25865 c 2.6e-4,0.174631 0.0184,0.465951 0.0402,0.647453 l 0.03969,0.32995 0.838945,0.128094 0.838941,0.12809 -0.03104,-0.133924 c -0.01703,-0.07363 -0.06677,-0.403785 -0.110465,-0.733539 l -0.07948,-0.599616 -0.233879,-3.92e-4 c -0.128613,-1.92e-4 -0.474507,-0.01912 -0.768675,-0.04199 l -0.534791,-0.0416 4.25e-4,0.317503 m 1.68482,-0.152009 c 0,0.115712 0.200693,1.372439 0.222602,1.394347 0.01328,0.01328 0.544773,0.109035 1.181015,0.212685 0.636305,0.103651 1.15891,0.18909 1.161307,0.189933 0.02457,0.008 -0.428802,-1.643853 -0.459658,-1.674772 -0.06114,-0.06119 -2.105331,-0.179884 -2.105266,-0.122193 m -17.642807,0.464978 -0.0215,0.491229 0.194472,0.03156 c 0.264607,0.04297 2.307902,0.227206 2.519936,0.227206 0.169318,0 0.170225,-0.003 0.170225,-0.508799 v -0.508735 l -1.183024,-0.07694 c -0.650692,-0.04229 -1.290042,-0.09264 -1.420793,-0.111824 l -0.237834,-0.03492 -0.02146,0.491229 m 20.122424,0.442093 c 0.107538,0.436778 0.228114,0.829024 0.267852,0.871743 0.07824,0.08394 0.581591,0.122064 1.306707,0.09898 l 0.456482,-0.01457 -0.276015,-0.826494 -0.276019,-0.826498 -0.536993,-0.0422 c -0.295335,-0.02321 -0.672088,-0.04505 -0.837259,-0.04861 l -0.300262,-0.0065 0.195507,0.794084 m 1.669068,-0.613681 c 0,0.02794 0.112275,0.385244 0.249443,0.794084 l 0.249502,0.74333 0.803874,-0.02385 c 0.442156,-0.01311 0.810874,-0.02977 0.81943,-0.03709 0.0085,-0.0073 -0.112535,-0.332028 -0.269015,-0.721612 l -0.284446,-0.70839 -0.379214,-0.04157 c -0.554372,-0.0608 -1.189574,-0.0634 -1.189574,-0.0049 m -18.669045,0.453701 v 0.455191 l 0.372733,0.03649 c 0.205038,0.0201 0.66444,0.05303 1.020967,0.07312 0.35653,0.02014 0.830581,0.05373 1.05338,0.07461 l 0.405143,0.03807 v -0.486047 -0.485978 l -0.599616,-0.03884 c -0.329753,-0.02134 -0.971569,-0.05749 -1.426108,-0.08031 l -0.826499,-0.04156 v 0.455251 m 20.419318,-0.383362 c 0,0.02219 0.118039,0.346997 0.262273,0.721807 l 0.262273,0.681487 0.78339,-0.04687 c 0.430944,-0.02571 0.793628,-0.05705 0.806074,-0.06942 0.01239,-0.01243 -0.114803,-0.288721 -0.28276,-0.614004 l -0.305316,-0.591316 -0.487467,-0.03786 c -0.268111,-0.02082 -0.611479,-0.04823 -0.762973,-0.061 -0.151489,-0.01269 -0.275494,-0.005 -0.275494,0.01716 m 1.98041,0.665995 c 0.166853,0.333642 0.310566,0.614715 0.319317,0.624638 0.0221,0.02495 2.510283,-0.17159 2.539256,-0.200567 0.01281,-0.01281 -0.247561,-0.214111 -0.578677,-0.447215 -0.599872,-0.422258 -0.604151,-0.424008 -1.150934,-0.465884 -0.301884,-0.02308 -0.74761,-0.05899 -0.990567,-0.0798 l -0.441705,-0.03781 0.30331,0.606617 m 8.585769,-0.338701 c 0,0.119402 0.03347,0.199851 0.08316,0.199851 0.104298,0 0.09736,-0.339545 -0.0077,-0.374552 -0.0466,-0.01554 -0.07552,0.05134 -0.07552,0.174701 m -6.059866,0.319317 0.6494,0.450912 1.295294,-0.120961 c 1.85524,-0.173207 3.486196,-0.346285 3.423509,-0.363336 -0.02956,-0.008 -1.249791,-0.08881 -2.711555,-0.179492 -1.461764,-0.09069 -2.803602,-0.181314 -2.981868,-0.201472 l -0.324116,-0.03654 0.649336,0.450907 M 62.332231,18.655761 c -0.01619,0.08025 -0.04408,0.295139 -0.06197,0.477616 l -0.03254,0.331764 0.336304,0.04037 c 0.184942,0.02223 0.489415,0.0407 0.676559,0.04096 l 0.340324,4.27e-4 v -0.418434 -0.41837 l -0.210676,-0.03428 c -0.115902,-0.01887 -0.383753,-0.06398 -0.595336,-0.10021 -0.211518,-0.03624 -0.393284,-0.06586 -0.403913,-0.06586 -0.01061,0 -0.03253,0.0656 -0.04875,0.145855 m 21.613161,0.502378 c 0,0.421158 0.110397,0.42109 0.139565,-6.5e-5 0.01579,-0.228049 -0.0017,-0.324116 -0.05853,-0.324116 -0.054,6.4e-5 -0.08103,0.10813 -0.08103,0.324181 m -18.280145,-0.06482 c 0,0.03564 -0.131266,0.06482 -0.291702,0.06482 -0.290152,0 -0.291707,0.0012 -0.291707,0.226882 v 0.226883 h 0.324117 0.324116 v -0.291709 c 0,-0.160435 -0.01461,-0.291701 -0.03241,-0.291701 -0.01784,0 -0.03241,0.02917 -0.03241,0.06482 m 17.259183,-0.02193 c -0.04454,0.01802 -0.08103,0.121546 -0.08103,0.23006 0,0.195635 0.0026,0.196998 0.273034,0.153695 0.332417,-0.05316 0.326582,-0.04771 0.274073,-0.256959 -0.033,-0.131463 -0.08116,-0.168539 -0.213784,-0.164587 -0.09419,0.003 -0.207694,0.01984 -0.252291,0.03781 m -17.064707,0.271795 v 0.249959 l 0.437553,0.04131 c 0.240624,0.02274 0.636437,0.04157 0.879459,0.04182 0.428478,4.26e-4 0.440603,-0.0038 0.397108,-0.1454 -0.02465,-0.08025 -0.05446,-0.156675 -0.06625,-0.169964 -0.02244,-0.02517 -1.42611,-0.263636 -1.566843,-0.266166 -0.05108,-8.52e-4 -0.08103,0.09102 -0.08103,0.248467 m 15.201039,-0.08369 c -0.748708,0.08109 -1.499876,0.149802 -1.669195,0.152655 -0.237707,0.0042 -0.307909,0.02904 -0.307909,0.109683 0,0.09218 0.08874,0.09989 0.76167,0.066 0.418889,-0.02108 1.221076,-0.05652 1.78264,-0.07883 l 1.020966,-0.04045 v -0.1876 c 0,-0.13911 -0.02938,-0.185262 -0.113442,-0.178261 -0.06235,0.0051 -0.726018,0.07571 -1.47473,0.156808 m -16.691976,0.125497 c 0,0.124785 0.02917,0.226882 0.06482,0.226882 0.03564,0 0.06482,-0.102098 0.06482,-0.226882 0,-0.124786 -0.02917,-0.226883 -0.06482,-0.226883 -0.03564,0 -0.06482,0.102098 -0.06482,0.226883 m -8.297371,0.06029 c 0,0.253654 0.114996,0.274201 1.800079,0.321846 1.576627,0.04454 1.635553,0.04182 1.635553,-0.07623 0,-0.112598 -0.09504,-0.128933 -1.183024,-0.203542 -2.462764,-0.168737 -2.252608,-0.164785 -2.252608,-0.04207 m 11.653011,0.07293 0.03027,0.15849 0.851387,-0.006 0.851325,-0.0061 -0.713057,-0.119339 c -0.392178,-0.06567 -0.788898,-0.134251 -0.881661,-0.152464 -0.150062,-0.02942 -0.165235,-0.01567 -0.138266,0.125433 m 9.641415,0.06177 c -1.097585,0.08699 -0.765301,0.118432 0.573168,0.05425 0.486949,-0.02333 0.885352,-0.06709 0.885352,-0.09723 0,-0.06443 -0.164196,-0.05964 -1.45852,0.04298 m -17.642731,0.122586 c 0,0.0914 0.143194,0.103784 1.201432,0.103784 0.709946,0 1.176153,-0.02371 1.139791,-0.05802 -0.03386,-0.03194 -0.574531,-0.07864 -1.20137,-0.103785 -1.020838,-0.04093 -1.139853,-0.03487 -1.139853,0.05802 m 21.759016,0.0422 c -0.516967,0.02491 -1.093051,0.04894 -1.280259,0.05342 -0.333127,0.0079 -0.340323,0.01231 -0.340323,0.202636 0,0.106957 0.02185,0.19434 0.04861,0.194148 0.08894,-4.26e-4 2.223954,-0.258061 2.483442,-0.29955 0.249311,-0.03986 0.380254,-0.231226 0.141899,-0.20737 -0.06235,0.0063 -0.536413,0.03177 -1.053376,0.05672 m 1.361286,-0.0035 c 0,0.03564 0.07118,0.06482 0.158234,0.06482 0.08705,0 0.176256,-0.02917 0.198292,-0.06482 0.02342,-0.03781 -0.04254,-0.06482 -0.158229,-0.06482 -0.109035,0 -0.198297,0.02917 -0.198297,0.06482 m -20.613588,0.04861 c 6.4e-5,0.02679 0.313679,0.05718 0.69685,0.06761 0.491881,0.01349 0.668068,-4.26e-4 0.59942,-0.04759 -0.110777,-0.07597 -1.29653,-0.09426 -1.29627,-0.02002 m 15.314288,0.06475 -1.247844,0.01908 v 0.32671 0.326711 l 0.2755,-0.03428 c 0.151489,-0.01887 0.720312,-0.06878 1.264051,-0.111046 l 0.988552,-0.07682 v -0.249439 c 0,-0.137164 -0.0073,-0.242825 -0.01619,-0.234721 -0.0089,0.008 -0.577771,0.02333 -1.264056,0.03386 m 1.539555,0.182021 v 0.230642 l 0.275495,-0.01997 c 0.258581,-0.01866 0.276731,-0.03279 0.295791,-0.230575 0.02026,-0.209896 0.0192,-0.210675 -0.2755,-0.210675 -0.295722,0 -0.295786,6.4e-5 -0.295786,0.230574 m -22.882595,0.116167 c 0,0.197189 0.0227,0.236667 0.136126,0.236667 0.121741,0 1.696426,0.0879 2.764711,0.154343 l 0.405148,0.02521 v -0.28425 -0.284251 l -1.020966,-3.22e-4 c -0.561564,-1.93e-4 -1.305344,-0.0192 -1.652993,-0.0422 l -0.632026,-0.04186 v 0.236671 m 14.090816,-0.10365 c 0.0181,0.06236 0.06496,0.237447 0.104109,0.38894 l 0.07118,0.2755 h 0.418889 0.418821 v -0.388941 -0.388936 h -0.522928 c -0.467375,0 -0.519492,0.01205 -0.490063,0.113437 m 1.239873,0.275499 v 0.388998 h 0.400868 0.400932 l -0.131324,-0.388939 -0.131393,-0.388936 h -0.269534 -0.269538 v 0.388936 m 0.815346,-0.01516 0.12751,0.377465 0.825004,-0.02644 c 0.453829,-0.01461 0.836348,-0.03687 0.850157,-0.04959 0.0138,-0.01269 -0.0321,-0.162577 -0.101964,-0.33293 l -0.12705,-0.309856 -0.850545,-0.0181 -0.850549,-0.01802 0.127442,0.377465 m 1.745172,-0.327293 c 0,0.02555 0.04771,0.171392 0.106052,0.324116 l 0.106052,0.277637 h 0.412535 0.412535 V 20.25987 19.935757 h -0.518587 c -0.285221,0 -0.518585,0.02087 -0.518585,0.04648 m 1.2964,0.261435 v 0.307908 l 0.324117,-0.02249 c 0.178325,-0.01231 0.32418,-0.03539 0.32418,-0.05115 0,-0.0158 -0.05892,-0.144297 -0.130943,-0.285481 -0.10832,-0.212298 -0.164392,-0.256699 -0.324116,-0.256699 -0.187212,0 -0.193173,0.0095 -0.193238,0.307909 m -7.584252,-0.15493 c 0,0.04856 0.01852,0.223579 0.04122,0.388942 l 0.04122,0.30078 h 0.922046 c 1.059666,0 1.524191,-0.04803 1.489252,-0.153955 -0.01325,-0.04011 -0.05582,-0.196934 -0.09458,-0.348427 l -0.07053,-0.275499 h -1.164352 c -0.93864,0 -1.164292,0.01712 -1.164292,0.08816 m -8.070491,0.235957 c 0,0.164201 0.02968,0.259292 0.08103,0.259292 0.05134,0 0.08103,-0.09509 0.08103,-0.259292 0,-0.164196 -0.02968,-0.259292 -0.08103,-0.259292 -0.05134,0 -0.08103,0.09509 -0.08103,0.259292 m 0.35653,-0.0096 v 0.249698 l 0.534791,0.0416 c 0.294168,0.02287 0.713704,0.04182 0.932351,0.04203 0.425371,3.88e-4 0.474312,-0.0444 0.476645,-0.437169 8.51e-4,-0.144813 -0.006,-0.145852 -0.971442,-0.145852 H 60.09049 v 0.249699 m 2.064165,0.04199 -0.02312,0.291702 0.389395,4.26e-4 c 0.214176,2.6e-4 0.542568,0.01891 0.729712,0.04143 l 0.340323,0.04088 v -0.333158 -0.333127 h -0.706509 -0.706572 l -0.02321,0.291707 m 2.214163,0.03241 c 0,0.178266 0.02917,0.324116 0.06482,0.324116 0.03565,0 0.06482,-0.14585 0.06482,-0.324116 0,-0.178265 -0.02917,-0.324115 -0.06482,-0.324115 -0.03565,0 -0.06482,0.14585 -0.06482,0.324115 m 0.713057,0 v 0.324116 h 0.356527 0.35653 v -0.324121 -0.324115 h -0.356525 -0.356527 v 0.324115 m 0.842701,-0.0097 v 0.314455 l 0.593394,0.04207 c 0.326319,0.02321 0.73853,0.04216 0.915952,0.04216 h 0.322691 l -0.0402,-0.24309 c -0.0221,-0.133663 -0.04049,-0.294168 -0.04092,-0.356526 -8.52e-4,-0.102422 -0.08589,-0.113441 -0.875826,-0.113441 h -0.875117 v 0.314394"
     stroke="none"
     id="hull"
     fill-rule="evenodd"
     fill="#040404" />
</svg>
